<?xml version="1.0" encoding="utf-8"?>
<!-- Generator: $$$/GeneralStr/196=Adobe Illustrator 27.6.0, SVG Export Plug-In . SVG Version: 6.00 Build 0)  -->
<svg version="1.1" id="圖層_1" xmlns="http://www.w3.org/2000/svg" xmlns:xlink="http://www.w3.org/1999/xlink" x="0px" y="0px"
	 viewBox="0 0 240 240" style="enable-background:new 0 0 240 240;" xml:space="preserve">
<style type="text/css">
	.st0{fill:#FFFFFF;}
	.st1{fill:#F9BE33;}
	.st2{fill:#F5CD7D;}
	.st3{fill:#36754A;}
	.st4{fill:#FF5B1A;}
	.st5{fill:#FFAD8D;}
	.st6{fill:#E62C61;}
	.st7{fill:#4A2A1A;}
	.st8{fill:#56AB6E;}
	.st9{opacity:0.7;}
	.st10{fill:#F0EAE2;}
	.st11{fill-rule:evenodd;clip-rule:evenodd;fill:#56AB6E;}
	.st12{fill:#FF7E19;}
	.st13{fill:#D16218;}
	.st14{opacity:0.5;}
	.st15{fill-rule:evenodd;clip-rule:evenodd;fill:#FB9F9F;}
	.st16{fill-rule:evenodd;clip-rule:evenodd;fill:#663A24;}
	.st17{fill-rule:evenodd;clip-rule:evenodd;fill:#5140B5;}
	.st18{fill-rule:evenodd;clip-rule:evenodd;fill:#E62C61;}
	.st19{fill:#FB9F9F;}
	.st20{fill-rule:evenodd;clip-rule:evenodd;fill:#36754A;}
	.st21{fill-rule:evenodd;clip-rule:evenodd;fill:#FFFFFF;}
</style>
<g>
	<g>
		<path class="st0" d="M108.2,44.3l0.1,1.1l0.4,12.1c0.1,1.7,1.1,3.1,2.7,3.7l2.2,0.7c0.6,0.3,1.2,0.6,1.9,0.6l0.8,0.3
			c0.7,0.6,1.7,1,2.7,1c0.1,0,0.1,0,0.2,0l0.8,0.3c0.4,0.1,0.8,0.2,1.3,0.2c0.9,0,1.8-0.3,2.5-0.9c0.9-0.7,1.4-1.7,1.5-2.8
			c1.8,1.2,4,1.9,6.2,1.9c1.5,0,3-0.3,4.4-0.9l1.6-0.7c0.5,0,1-0.1,1.5-0.3c0.1,0,0.2-0.1,0.3-0.1v0c0.4-0.2,0.7-0.5,1.1-0.7
			l2.1-0.9c0.2-0.1,0.3-0.2,0.5-0.2c0.2,0,0.3-0.1,0.5-0.2C155,53,158.9,41,156.5,31.9c0-0.3,0-0.6,0-0.9c-0.1-0.9-0.6-1.7-1.2-2.4
			c-1.9-4-5.2-7.1-9.5-9.1c-0.1,0-0.1-0.1-0.2-0.1c-0.8-0.7-1.8-1.1-2.8-1.1c-0.1,0-0.2,0-0.3,0c-2.1-0.6-4.3-0.9-6.6-0.9
			c-1.1,0-2.2,0.1-3.2,0.2c-0.1,0-0.2,0-0.3,0c-0.1,0-0.2,0-0.2,0c-0.7,0-1.3,0.2-1.9,0.5c-1.8,0.4-3.6,0.9-5.2,1.6
			c-1.3,0.6-2.6,1.2-3.9,2c-0.4,0.1-0.8,0.2-1.2,0.5c-0.6,0.4-1.1,0.8-1.5,1.4c-6.8,5.2-10.6,13-10.1,20.5
			C108.2,44.1,108.2,44.2,108.2,44.3z"/>
		<path class="st0" d="M200.8,211.1c0-0.6-0.2-14.9-1.5-21.4c-0.6-2.8-0.9-5.8-1-8.8c2.8-9.2,3.2-20.1,1.2-30.9
			c-0.8-4.2-2-8.6-3.7-12.9c0-0.7,0.1-1.4,0.3-2l1-4.9c0.2-0.6,0.3-1.3,0.4-1.9c1.3-0.9,2-2.4,1.7-3.9c-0.1-0.8-0.4-1.4-0.9-2
			c0.3-1,0.3-2,0.2-2.7c-0.5-3.2-3.2-5.2-5-6.4c-0.1-1.3-0.6-3.6-3-5.1c1.2-1.4,2.1-3.1,2.4-5l3.2-23c0.3-2.5-0.3-4.9-1.8-6.9
			c-1.5-2-3.7-3.3-6.2-3.6l-28.2-4c-0.4-0.1-0.9-0.1-1.3-0.1c-4.6,0-8.6,3.5-9.3,8.1l-1.2,8.3c-1.2-0.8-2.4-1.5-3.6-2.2
			c-3.3-2-6.6-3.8-10-5.5c-2.8-2.9-7.6-6.5-14.8-8.5c-2.9-0.8-5.8-1.2-8.6-1.2c-1.5,0-2.9,0.1-4.3,0.3c-5.2-1-10.4-1.5-15.4-1.5
			c-4.8,0-9.4,0.4-13.8,1.3c1.1-1.4,1.7-2.8,1.8-4.3c0.1-1.3-0.3-2.6-1.1-3.6c2.3-2.3,3.2-5.1,2.2-7.6c-0.4-1-1.1-1.9-1.9-2.5
			c1.2-1.8,2.2-4.2,0.7-6.5c-0.7-1.1-1.7-1.8-2.8-2.1c0-0.2,0-0.3,0-0.5c0.2-3.5-0.4-5.7-1.8-7.2c-0.9-1-2.2-1.5-3.5-1.5
			c0,0,0,0,0,0c-0.5,0-0.9,0.1-1.3,0.2c-2.2,0.6-5.3,2.9-5,9.1c0,0.4,0,0.8,0,1.1c-0.8,0.1-1.7,0.5-2.6,1.4
			c-0.1-0.1-0.1-0.1-0.2-0.2c-1.2-1-2.4-1.2-3.1-1.2c0,0,0,0,0,0c0,0-0.1,0-0.1,0c0-0.1-0.1-0.3-0.1-0.5c-1.2-4.7-3.3-7-6.2-7
			c-0.9,0-1.8,0.3-2.6,0.7c-2,1.2-4.2,4.4-2.2,10.1c0.1,0.4,0.2,0.7,0.3,1c-1.1,0.5-2,1.5-2.5,3.2c-0.8,2.7,0.7,4.7,2.1,5.9
			c-0.8,0.8-1.4,1.9-1.6,3.2c-0.4,2.3,0.5,5.2,3.3,6.7c0,0,0,0,0,0c-0.7,1.4-0.7,3-0.2,4.5c-0.4,0.1-0.7,0.2-1.1,0.4c0,0,0,0,0,0
			c-1.2-2.2-3.2-3.5-5.6-3.5c-1.6,0-3.2,0.6-4.3,1.6c-1-1.2-2.4-2.4-4.5-2.4c-0.5,0-1,0.1-1.4,0.2c-1.9,0.6-2.8,1.7-3.2,2.5
			c-0.3-0.1-0.6-0.2-1-0.3c-1.6-0.6-3-0.9-4.3-0.9c-3,0-5,1.5-5.8,3c-0.6,1-1,2.4-0.5,4c0.9,3,4.3,4.2,6.8,4.8
			c0.2,0,0.3,0.1,0.5,0.1c0,0.9,0.2,2.1,1.2,3.3c0.9,1.1,2.3,1.7,3.8,1.7c0.9,0,1.7-0.2,2.6-0.4c0.8,2.3,3,3.8,5.6,3.8
			c1.3,0,2.7-0.4,4.1-1.1c0.9,1.3,2.3,2.1,3.9,2.3c-3.9,7.2-5.5,15.7-4.4,25.1c2.4,21.5,13.6,32.1,23.4,37.4l2.5,40
			c-1.3,1.6-1.9,3.7-1.8,5.9l1.4,20c0.3,4.7,4.4,8.5,9.1,8.5c2.7,0,5.1-1.2,6.7-3.2l42.4-0.1c1.6,2,4,3.2,6.6,3.2
			c4.7,0,8.8-3.9,9.1-8.6l0.3-5.3c4.3,1.6,8.9,2.5,13.9,2.5c1.1,0,2.2,0,3.2-0.1c4-0.3,7.8-0.9,11.4-1.9l0.2,1.7
			c-0.5,0.2-1.1,0.4-1.6,0.6c-1,0.3-1.8,1-2.3,1.9c-0.7,1.3-0.8,2.9-0.2,4.2c0.7,1.4,2,2.4,3.7,2.6c0.2,0,0.4,0.1,0.7,0.1
			c0,0,0.1,0,0.1,0l8.3-0.2c0.3,0,0.5,0,0.8-0.1c1-0.2,2-0.8,2.7-1.7c0.7,1,1.9,1.6,3.2,1.9c0.2,0,0.4,0.1,0.7,0.1c0,0,0.1,0,0.1,0
			l8.3-0.2c0.3,0,0.5,0,0.8-0.1c1.4-0.3,2.7-1.3,3.3-2.7c0.5-1,0.7-2,0.6-3.2c0.3-0.2,0.5-0.4,0.8-0.6
			C200.4,213.2,200.9,212.1,200.8,211.1z"/>
	</g>
	<g>
		<g>
			<g>
				<path class="st1" d="M195.6,150.7c4.5,24.4-3.2,54.6-37.6,56.9c-22.9,1.5-32.3-14.5-43-30.3c-9.1-13.4-23.4-23.8-39.4-28.4
					c-11-3.1-27.3-12.1-30.2-37.9c-4.6-41.2,46.2-59,97.2-28C169,99.1,190.8,124.5,195.6,150.7z"/>
			</g>
			<g>
				<g>
					<g>
						<g>
							<path class="st0" d="M137.7,124.7c-6.8,7.4-15.7,8.3-21,3.3c-5.4-5-5.4-13.7,1.5-21.1c6.8-7.4,19.1-9.7,23.3-5.8
								C146.3,105.7,144.5,117.3,137.7,124.7z"/>
						</g>
					</g>
				</g>
				<g>
					<ellipse transform="matrix(0.1092 -0.994 0.994 0.1092 -4.5184 230.573)" class="st2" cx="126.4" cy="117.8" rx="6" ry="6"/>
				</g>
			</g>
			<g>
				<g>
					<g>
						<path class="st3" d="M70.2,83.4c0.1,0.3-0.1,0.6-0.4,0.8c-0.5,0.4-1.3,0.4-1.8,0c-0.2-0.1-3.8-2.9-8.5-11.8
							c-0.2-0.5,0.1-1,0.7-1.2c0.6-0.2,1.4,0,1.6,0.4c4.5,8.5,8,11.2,8,11.2C70,83,70.1,83.2,70.2,83.4z"/>
					</g>
				</g>
				<g>
					<path class="st3" d="M62.4,54.9c2.2-3.6-0.7-5.1-1.6-3.8c-0.8,1.3-1.6,1.3-2.4-0.2c-0.9-1.6,2.4-6.3,1.2-7.3
						c-1.2-1-1.2,1.2-2.2,1.4c-1,0.2-1.5-1.1-2.5-5.2c-1.3-5.2-2.8-3.8-2.8-3.8s-2.1,0.9-0.5,5.4c1.4,3.9,1.1,5.4,0.2,6.1
						C50.9,48,50,46.2,49.4,48c-0.6,1.8,4.1,3.1,4.1,5c0,2-0.6,2.6-1.9,2.1c-1.3-0.4-3,3.1,0.3,4.3c3.3,1.2,4.3,2.2,3.8,4.2
						c-0.5,2-2-0.6-2.6,0.8c-0.6,1.3,0.3,2.9,3.4,3.8c2.4,0.7,3.4,3.8,3.8,5.2c0.1,0.4,0.5,0.6,0.8,0.5h0l0,0c0.3-0.2,0.5-0.6,0.4-1
						c-0.3-1.5-0.8-4.8,0.8-7.3c2.2-3.2,2.2-5.2,1.2-5.8c-1.1-0.6-1.2,2.7-2.5,1.5C59.9,60.1,60.2,58.5,62.4,54.9z"/>
				</g>
				<g>
					<g>
						<path class="st3" d="M68.6,88.5c0.3,0.1,0.6-0.1,0.8-0.4c0.4-0.5,0.4-1.3,0.1-1.8c-0.1-0.2-2.8-3.8-11.7-8.6
							c-0.5-0.2-1,0.1-1.2,0.7c-0.2,0.6,0,1.4,0.4,1.6c8.5,4.6,11.1,8,11.1,8.1C68.3,88.4,68.5,88.5,68.6,88.5z"/>
					</g>
				</g>
				<g>
					<path class="st3" d="M40.2,80.5c-3.6,2.1-5.1-0.8-3.8-1.6c1.3-0.8,1.3-1.6-0.2-2.4c-1.6-0.9-6.3,2.4-7.4,1.1
						c-1-1.2,1.2-1.2,1.4-2.2c0.2-1-1.1-1.5-5.1-2.5C20,71.5,21.3,70,21.3,70s1-2.1,5.4-0.5c3.9,1.4,5.4,1.2,6.1,0.3
						c0.7-0.9-1.1-1.8,0.7-2.4c1.8-0.5,3,4.2,5,4.1c2,0,2.6-0.6,2.1-1.9c-0.4-1.3,3.1-2.9,4.3,0.4s2.2,4.3,4.2,3.8
						c2-0.5-0.5-2,0.8-2.6c1.3-0.6,2.9,0.3,3.8,3.5c0.6,2.4,3.7,3.4,5.2,3.8c0.4,0.1,0.6,0.5,0.5,0.8l0,0l0,0
						c-0.2,0.3-0.6,0.5-1.1,0.4c-1.5-0.3-4.8-0.8-7.3,0.8c-3.2,2.2-5.2,2.2-5.8,1.1c-0.6-1.1,2.7-1.2,1.5-2.4
						C45.4,78,43.8,78.3,40.2,80.5z"/>
				</g>
				<g>
					<g>
						<path class="st3" d="M74.7,83.6c0,0.3-0.2,0.6-0.6,0.7c-0.6,0.2-1.4,0-1.7-0.5c-0.1-0.2-2.8-3.8-4.8-13.7
							c-0.1-0.5,0.4-0.9,1-1c0.7,0,1.3,0.4,1.4,0.9c1.9,9.4,4.4,13,4.5,13C74.7,83.2,74.7,83.4,74.7,83.6z"/>
					</g>
				</g>
				<g>
					<path class="st3" d="M75.4,54.1c3.1-2.8,0.8-5.1-0.4-4.1c-1.2,1-1.9,0.8-2.3-0.9c-0.4-1.7,4.1-5.4,3.2-6.7
						c-0.9-1.3-1.5,0.8-2.5,0.7c-1-0.1-1.1-1.5-0.9-5.6c0.3-5.3-1.6-4.5-1.6-4.5s-2.3,0.3-2,5c0.2,4.1-0.5,5.5-1.5,5.9
						s-1.4-1.6-2.5-0.1c-1,1.6,3.1,4.1,2.5,6c-0.6,1.9-1.3,2.3-2.4,1.5c-1.1-0.8-3.7,2.1-0.9,4.2s3.4,3.4,2.4,5.1
						c-1,1.8-1.8-1.1-2.7,0c-1,1.1-0.6,2.9,2.2,4.6c2.1,1.3,2.2,4.6,2.1,6.1c0,0.4,0.3,0.8,0.6,0.7h0l0,0c0.4,0,0.7-0.4,0.7-0.9
						c0.1-1.5,0.6-4.9,2.9-6.7c3-2.5,3.6-4.4,2.8-5.2c-0.9-0.9-1.9,2.2-2.8,0.7C71.5,58.3,72.3,56.9,75.4,54.1z"/>
				</g>
				<g>
					<path class="st4" d="M100.5,145.4l0.4-0.4c3.4-0.8-0.9-11.3-1.7-13.7L86.5,89.5c-4.2-10.3-12.2-8.8-12.2-8.8
						c-6.2,2.1-12.4,10.5-8.7,16.2l24,36.7C90.9,135.8,96.9,146.2,100.5,145.4z"/>
				</g>
				<g>
					<g>
						<g>
							<g>
								<path class="st5" d="M83.7,103.7c0.3,0.1,0.7,0.1,1-0.2c1.1-1,2.2-1.5,3-1.3c0.3,0.1,0.5,0.2,0.6,0.5
									c0.2,0.6,0.7,0.8,1.2,0.4c0.5-0.3,0.8-1.1,0.6-1.7c-0.3-0.9-0.8-1.5-1.7-1.7c-1.3-0.3-3,0.4-4.6,1.9
									c-0.5,0.4-0.6,1.2-0.4,1.7C83.4,103.5,83.5,103.6,83.7,103.7z"/>
							</g>
						</g>
						<g>
							<g>
								<path class="st5" d="M81.1,120.4c0.5,0.2,1-0.1,1.3-0.7c0.5-1.1,1.4-1.8,2-1.6c0.5,0.1,1.1-0.3,1.3-0.9
									c0.2-0.7,0-1.3-0.5-1.4c-1.5-0.4-3.5,0.9-4.5,3.2C80.5,119.5,80.6,120.2,81.1,120.4z"/>
							</g>
						</g>
						<g>
							<g>
								<path class="st5" d="M95.9,132.8c0.2,0.1,0.5,0.1,0.8-0.1c0.9-0.7,1.1-0.4,1.2-0.3c0.3,0.5,0.9,0.4,1.3-0.1
									c0.4-0.5,0.5-1.3,0.2-1.7c-0.4-0.6-1.4-1.4-3.4,0c-0.5,0.4-0.8,1.1-0.6,1.7C95.6,132.5,95.7,132.7,95.9,132.8z"/>
							</g>
						</g>
						<g>
							<g>
								<path class="st5" d="M66,97.1c0.4,0.2,0.9,0,1.2-0.5c1.4-2,2.8-3,4.6-2.9c0.5,0,1-0.5,1.2-1.2c0.1-0.7-0.2-1.2-0.7-1.3
									c-2.4-0.1-4.5,1.2-6.4,4c-0.4,0.6-0.4,1.3,0,1.7C65.9,97,65.9,97,66,97.1z"/>
							</g>
						</g>
					</g>
				</g>
			</g>
			<g>
				<g>
					<g>
						<path class="st6" d="M127.8,97.8c0.4-1.3,0.9-2.2,2.2-2.8c1-0.4,2.1-1.3,2.7-1.9c1.2-1.6,5.3-7.4,2.1-12.5
							c-2.5-3.9-7.7-8.9-16-11.2c-8.3-2.3-15.3-0.4-16.7,1.7c-1.4,2.2-1,4.6-2.1,6c-1.1,1.3-5.3,2.1-6.6,7.3
							c-1.3,5.2,6.4,15.4,9.3,18.2c0.9,0.9,6.9,6.7,13.1,6.1c5.2-0.5,9.9-3.6,11.4-9.1C127.4,98.9,127.6,98.3,127.8,97.8z"/>
					</g>
					<g>
						<g>
							<path class="st7" d="M125.5,94.3C125.5,94.2,125.5,94.2,125.5,94.3c0.8-1.3,2.3-1.7,2.4-1.7c0.4-0.1,0.7,0.2,0.8,0.5
								c0.1,0.4-0.1,0.7-0.5,0.8c0,0-1,0.2-1.5,1c-0.3,0.5-0.4,1.1-0.2,1.8c0.1,0.4-0.1,0.7-0.5,0.8c-0.4,0.1-0.7-0.1-0.8-0.5
								C124.9,96,125,95,125.5,94.3z"/>
						</g>
					</g>
					<g>
						<path class="st7" d="M126.4,94.3c0,0,0.3-0.1,0.6,0c1.9,0.7,3.6,1.9,4.6,3.7l1.6,3.1l1,1.9c0.4,0.6,0.2,1.3-0.4,1.6
							c-0.2,0.1-0.4,0.1-0.6,0.2c-1.6,0.4-1.1,0.8-1.9,0.6c-0.8-0.1,0.3-1.7,0.4-1.9c0.2-0.2,0.5-1.5,0.3-2.1
							c-0.1-0.2-0.3-1.2-0.7-2c-0.8-1.5-2.1-2.7-3.6-3.4l-1.7-0.8L126.4,94.3z"/>
					</g>
				</g>
			</g>
			<g>
				<g>
					<g>
						<path class="st8" d="M129.1,195.9c0.2-2.7,2.3-4.9,4.7-5c0.4,0,0.7,0.1,1,0.1l3.9-60.7l-71,1.5l3.6,59.3c0.1,0,0.2,0,0.4,0
							c2.4,0,4.5,2.2,4.7,4.9l1.2,19.5c0.3,0,0.6,0.1,0.9,0.1l34.6-0.1c0,0,0,0,0,0l14.6,0c0.1,0,0.2,0,0.3,0L129.1,195.9z"/>
					</g>
					<g>
						<polygon class="st3" points="137.7,143.1 140.6,137.2 65.1,137.4 68.3,142.1 						"/>
					</g>
					<g>
						<path class="st3" d="M139.2,137.4l-72,0.2c-2.9,0-5.3-2.3-5.3-5.2l0,0c0-2.9,2.3-5.3,5.2-5.3l72-0.2c2.9,0,5.3,2.3,5.3,5.2
							l0,0C144.5,135,142.1,137.4,139.2,137.4z"/>
					</g>
					<g class="st9">
						<polygon class="st10" points="121.9,195.3 84.8,195.4 82.7,150.4 123.8,150.3 						"/>
					</g>
					<g>
						<path class="st11" d="M89.8,132.3l-20.4,0.1c-0.8,0-1.4-0.6-1.4-1.4l0,0c0-0.8,0.6-1.4,1.4-1.4l20.4-0.1
							c0.8,0,1.4,0.6,1.4,1.4l0,0C91.3,131.7,90.6,132.3,89.8,132.3z"/>
					</g>
					<g>
						
							<rect x="77.2" y="207.9" transform="matrix(1 -2.865473e-03 2.865473e-03 1 -0.6068 0.2995)" class="st8" width="54.1" height="8.1"/>
					</g>
					<g>
						<path class="st3" d="M75.9,219.2L75.9,219.2c-2.6,0-5-2.1-5.1-4.8l-1.4-20c-0.2-2.6,1.8-4.8,4.5-4.8l0,0c2.6,0,5,2.1,5.1,4.8
							l1.4,20C80.6,217.1,78.6,219.2,75.9,219.2z"/>
					</g>
					<g>
						<path class="st3" d="M131.7,219.1L131.7,219.1c2.6,0,4.9-2.2,5.1-4.8l1.3-20c0.2-2.6-1.9-4.8-4.5-4.8l0,0
							c-2.6,0-4.9,2.2-5.1,4.8l-1.3,20C127,216.9,129,219.1,131.7,219.1z"/>
					</g>
				</g>
			</g>
			<g>
				<g>
					<path class="st12" d="M152.2,31.7c-3.4-9.1-14.9-12.7-25.7-8.2c-9.1,3.8-14.8,12.3-14.3,20.4l0.1,1.2l6.9-0.9
						c0.2-13.2,16.6-16.3,18.9-10.6c1.7,4.2-2.4,6-2.9,6.2l-6.6,2.8c-3.9,1.7-5.9,6.4-4.3,10.6l0,0c1.6,4.2,6.1,6.2,10,4.6L141,55
						c0.3-0.1,0.6-0.3,0.8-0.4l0,0.1C152,49.9,155,39.1,152.2,31.7z"/>
				</g>
				<g>
					<polygon class="st13" points="119.3,43.6 112.3,45.1 112.8,57.3 121.4,60.2 					"/>
				</g>
				<g class="st14">
					<g>
						<path class="st0" d="M119.2,59.7C119.2,59.7,119.1,59.7,119.2,59.7c-0.2,0-0.4-0.1-0.4-0.2l-1-9.9c0-0.2,0.1-0.3,0.2-0.3
							c0.1,0,0.3,0.1,0.3,0.3l1,9.9C119.4,59.5,119.3,59.6,119.2,59.7z"/>
					</g>
				</g>
				<g class="st14">
					<g>
						<path class="st0" d="M116,58.5C116,58.5,116,58.5,116,58.5c-0.2,0-0.4-0.1-0.4-0.2l-1-9.9c0-0.2,0.1-0.3,0.2-0.3
							c0.1,0,0.3,0.1,0.3,0.3l1,9.9C116.2,58.3,116.1,58.4,116,58.5z"/>
					</g>
				</g>
				<g class="st14">
					<g>
						<path class="st0" d="M152.3,31.9C152.3,31.9,152.3,31.9,152.3,31.9l-9.3,1.6c-0.1,0-0.3-0.1-0.3-0.2c0-0.2,0.1-0.3,0.2-0.3
							l9.3-1.5c0.1,0,0.3,0.1,0.3,0.2C152.5,31.7,152.4,31.9,152.3,31.9z"/>
					</g>
				</g>
				<g class="st14">
					<g>
						<path class="st0" d="M137.6,56.8C137.6,56.8,137.6,56.8,137.6,56.8c-0.2,0.1-0.3,0-0.4-0.2l-4.1-10.8c-0.1-0.1,0-0.3,0.2-0.4
							c0.1-0.1,0.3,0,0.4,0.2l4.1,10.8C137.8,56.5,137.7,56.7,137.6,56.8z"/>
					</g>
				</g>
				<g class="st14">
					<g>
						<path class="st0" d="M150.5,46.5c-0.1,0-0.2,0-0.2,0l-9.7-5.4c-0.1-0.1-0.2-0.2-0.1-0.4c0.1-0.1,0.2-0.2,0.4-0.1l9.7,5.4
							c0.1,0.1,0.2,0.2,0.1,0.4C150.6,46.5,150.5,46.5,150.5,46.5z"/>
					</g>
				</g>
				<g class="st14">
					<g>
						<path class="st0" d="M139.8,27c-0.1,0-0.2,0-0.3,0c-0.1-0.1-0.1-0.3,0-0.4l3.1-4c0.1-0.1,0.3-0.1,0.4,0c0.1,0.1,0.1,0.3,0,0.4
							L139.8,27C139.9,26.9,139.8,26.9,139.8,27z"/>
					</g>
				</g>
				<g class="st14">
					<g>
						<path class="st0" d="M132,26.8c0,0-0.1,0-0.1,0c-0.1,0-0.3-0.1-0.3-0.3l0.2-4.5c0-0.2,0.1-0.3,0.3-0.3c0.1,0,0.3,0.1,0.3,0.3
							l-0.2,4.5C132.1,26.6,132.1,26.7,132,26.8z"/>
					</g>
				</g>
				<g class="st14">
					<g>
						<path class="st0" d="M123.8,29.8c-0.1,0.1-0.3,0-0.4-0.1l-1.8-3.6c-0.1-0.1,0-0.3,0.1-0.4c0.1-0.1,0.3,0,0.4,0.1l1.8,3.6
							C124,29.6,124,29.7,123.8,29.8C123.9,29.8,123.9,29.8,123.8,29.8z"/>
					</g>
				</g>
			</g>
		</g>
		<g>
			<polygon class="st15" points="158.5,131.2 173.1,131 173.4,123.9 160.6,125.8 			"/>
			<path class="st15" d="M174.8,207.3l0.8,6l3-0.2c0,0,0.4-2.4,0.7-5.9H174.8z"/>
			<path class="st16" d="M175.5,212.4l-2.7,1.9c-0.5,0.5-3.4,1.4-3.4,1.4l0,0c-0.3,0.6,0.2,0.9,0.7,1l8.3-0.2c0,0,1.8-0.4,0.4-4.1
				C177.2,213.1,175.8,213.6,175.5,212.4z"/>
			<path class="st15" d="M190,207.3l1.1,6l3-0.2c0,0,0.2-2.4,0.4-5.9H190z"/>
			<path class="st16" d="M191,212.4l-2.6,1.9c-0.5,0.5-3.3,1.4-3.3,1.4l0,0c-0.3,0.6,0.3,0.9,0.7,1l8.3-0.2c0,0,1.8-0.4,0.2-4.1
				C192.7,213.1,191.4,213.6,191,212.4z"/>
			<path class="st16" d="M193.5,123.6c-0.1-0.5,0.1-0.9,0.4-1.3c2.4-3-2.3-5.4-3.7-6.5c-1.4-1.1,0.4-3.6-2.7-4.7
				c-3.1-1.1-4.1,0.5-4.3,0.4c-0.2-0.1,0.3,3,0.3,3s1.5,0.5,1.4,3.6c-0.1,3.1-1,4.7,0.8,7.2c1.8,2.5,9.5-0.4,9.5-0.4
				C194.1,124.9,193.7,124.2,193.5,123.6z"/>
			<path class="st15" d="M180.3,117.5c0,0,0.3,2.6,0.6,4.8c0.1,0.6,0.4,1.1,0.8,1.3c0.4,0.2,0.9,0.1,1.3-0.2
				c0.1-0.1,0.2-0.2,0.3-0.3c0.5-0.5,0.7-1.3,0.5-2.1c-0.4-2-1.2-5.6-1.2-5.6L180.3,117.5L180.3,117.5z"/>
			<path class="st15" d="M183.8,114.7c0.2-0.7-0.2-1.5-0.9-1.8c-0.8-0.3-1.7-0.6-2.5-0.8c-0.7-0.2-1.4,0.2-1.7,0.9
				c-0.4,0.8-0.9,2.6-1,4c-0.1,0.8,0.2,1.6,1,1.9c0.8,0.3,3.3,0.3,4-1C183.1,116.8,183.4,115.8,183.8,114.7L183.8,114.7z"/>
			<path class="st16" d="M183.5,117.8c0.8-0.4,1.4-1.2,1.6-2.1c0.2-0.9,0.4-2-0.2-2.7c-1.3-1.7-3.2-2.9-5.7-1.3c0,0,0.5,3.2,3.9,6.3
				L183.5,117.8z"/>
			<path class="st15" d="M183.7,117.7c-0.4,0.5-1,0.6-1.4,0.3c-0.4-0.3-0.4-1,0-1.5c0.4-0.5,1-0.6,1.4-0.3
				C184.1,116.5,184.1,117.2,183.7,117.7z"/>
			<g>
				<path class="st0" d="M185.4,114.1c-0.1,0-0.2-0.1-0.2-0.1c-0.3-2.2-1.7-2.4-1.7-2.4c-0.1,0-0.2-0.1-0.1-0.2
					c0-0.1,0.1-0.2,0.2-0.1c0.1,0,1.7,0.2,2,2.7C185.5,114,185.5,114.1,185.4,114.1C185.4,114.1,185.4,114.1,185.4,114.1z"/>
			</g>
			<path class="st17" d="M189.8,142.7l-18.1,1.4c-3,1.1-3.1,18-3.1,18l11.8,0.5c5.5-0.1,11.9,4.3,13.2-4.9
				C195.2,147.2,189.8,142.7,189.8,142.7z"/>
			<path class="st18" d="M176.1,121.7l2.9-0.8l4.8-0.4l6.9,2.3c2.3,1.1,3.4,3.8,2.6,6.3l-1.1,5.2c-0.4,1.9-0.5,3.8-0.3,5.7
				c0.6,5.1,1.5,9.8,2.2,13.3c-9.7,3.7-22.7,4-25.8-0.5C168.8,140.5,174.3,129,176.1,121.7z"/>
			<path class="st19" d="M178.5,121.1c0,0-2.2,5.2,1.5,5.5c3.7,0.3,5.6-5.4,5.6-5.4l-2.5-1l-2.2,0.2L178.5,121.1z"/>
			<path class="st18" d="M178.5,121.1c0,0-3-0.1-5.7,1.5c-2.4,1.4-3.7,1.3-6.6,2.3l2.6,8.4l6.8-0.9L178.5,121.1z"/>
			<path class="st17" d="M180.9,176.4l-0.2-15l-12.1,0.6c0,2.1,0,3.5,0.3,5.6l2.7,20.4l2.2,23.1l7.7,0c0,0,0.6-14.5-0.3-20.7
				C180.6,185.8,180.5,181.1,180.9,176.4z"/>
			<path class="st17" d="M194.3,176.4l-0.9-17.6l-13.5,2.1c0.1,2.1,1,4.6,1.4,6.6l4.4,20.5l3.5,23.1l7.7,0c0,0-0.2-14.5-1.4-20.7
				C194.5,185.8,194.2,181.1,194.3,176.4z"/>
			<path class="st15" d="M186.6,141.6c0.4,2.6-0.8,5-3.8,5.8l-15.1,0.7l1-3l11.1-2.3L186.6,141.6z"/>
			<path class="st16" d="M157.7,175.8L157.7,175.8c-1.3-0.2-2.3-1.4-2.1-2.8l12.7-88.2c0.2-1.3,1.4-2.3,2.8-2.1l0,0
				c1.3,0.2,2.3,1.4,2.1,2.8l-12.7,88.2C160.2,175,159,176,157.7,175.8z"/>
			<path class="st19" d="M169.6,145.1l-2.7-0.2c-0.5,0-1.1,0.1-1.5,0.4l-1.8,1.3c-0.6,0.5-0.6,1.4,0.1,1.8l0,0l3.5,0.1
				c0.8,0,1.6-0.3,2.2-0.8l1.1-0.9L169.6,145.1z"/>
			<path class="st15" d="M161.9,129.9c0.1-0.2,0.3-0.5,0.4-0.8l2.3-14.9l-3.1,0.7l-3.5,10.8l-0.7,2.4
				C156.5,130.9,160.4,132.5,161.9,129.9z"/>
			<path class="st19" d="M161.3,115.8l0.1-2.7c0-0.5,0.2-1.1,0.6-1.5l1.5-1.6c0.5-0.6,1.5-0.4,1.8,0.3l0,0l-0.3,3.4
				c-0.1,0.8-0.4,1.5-1.1,2.1l-1,1L161.3,115.8z"/>
			<polygon class="st15" points="190.6,132.1 186.3,144 180.5,143.8 184.9,130.6 			"/>
			<polygon class="st18" points="191.8,130.9 189.5,140.2 181.7,138 184.7,128.4 			"/>
			<path class="st20" d="M182.8,107.1l-28.2-4c-2.9-0.4-5-3.1-4.6-6.1l3.2-23c0.4-2.9,3.1-5,6.1-4.6l28.2,4c2.9,0.4,5,3.1,4.6,6.1
				l-3.2,23C188.5,105.5,185.8,107.5,182.8,107.1z"/>
			<circle class="st21" cx="170.6" cy="88" r="12.8"/>
			<path class="st3" d="M178.5,84.1c0.1-0.1,0.1-0.9,0.2-1.1c0-0.3,0.1-0.5,0.1-0.8c0-0.1,0-0.3,0-0.3c-2.3,2-4.9,3.6-7.3,5.3
				c-1.7-2.4-3.4-4.7-5.1-7c0.1,0.1-0.1,0.9-0.2,1.1c0,0.3-0.1,0.5-0.1,0.8c0,0.1-0.1,0.3,0,0.3c1.4,1.9,2.8,3.8,4.2,5.7
				c-2.3,1.6-4.4,3.5-6,5.8c-0.2,0.2-0.1,0.8-0.2,1.1c0,0.3-0.1,0.5-0.1,0.8c0,0.1,0,0.3,0,0.3c1.9-2.8,4.5-4.8,7.3-6.7
				c0,0,0.1,0.1,0.1,0.1c0.8,1.1,1.6,2.3,2.4,3.5c0.7,1.1,1.4,2.3,2.2,3.4c-0.1-0.1,0.1-0.9,0.2-1.1c0-0.3,0.1-0.5,0.1-0.8
				c0-0.1,0.1-0.3,0-0.3c-0.8-1.1-1.5-2.2-2.2-3.3c-0.5-0.8-1-1.6-1.6-2.3C174.5,87.2,176.7,85.8,178.5,84.1z"/>
		</g>
	</g>
</g>
</svg>
