<?xml version="1.0" encoding="utf-8"?>
<!-- Generator: $$$/GeneralStr/196=Adobe Illustrator 27.6.0, SVG Export Plug-In . SVG Version: 6.00 Build 0)  -->
<svg version="1.1" id="圖層_1" xmlns="http://www.w3.org/2000/svg" xmlns:xlink="http://www.w3.org/1999/xlink" x="0px" y="0px"
	 viewBox="0 0 240 240" style="enable-background:new 0 0 240 240;" xml:space="preserve">
<style type="text/css">
	.st0{fill:#FFFFFF;}
	.st1{fill:#56AB6E;}
	.st2{fill:#F9BE33;}
	.st3{fill:#5140B5;}
	.st4{fill:#73A9FF;}
	.st5{fill:#678A74;}
	.st6{fill:#FB9F9F;}
	.st7{fill:#383E56;}
	.st8{fill:#F7916F;}
	.st9{opacity:0.58;}
	.st10{fill:#86C440;}
	.st11{fill:#407140;}
	.st12{fill:#3B3E54;}
	.st13{fill:#E62C61;}
	.st14{fill:#C1CFB6;}
	.st15{fill:#FFCC00;}
	.st16{fill:#FEF6E8;}
	.st17{fill:#B81C22;}
	.st18{fill:#F0EAE2;}
</style>
<g>
	<g>
		<path class="st0" d="M211.8,85.3c0.4-1.5,0.4-3.2,0.1-4.7c-0.6-3.5-2.9-6.1-6.3-7.5c-1.8-0.7-3.5-1.1-5.2-1.1
			c-1.9,0-3.5,0.5-4.8,1.2c-1.3-0.4-2.9-0.7-5-0.7c-1.2,0-2.4,0.1-3.6,0.3c-4.1,0.7-6.7,3-8.4,5.4c-0.1,0-0.1,0-0.2,0
			c-5,0-8.1,4.6-8.5,5.3c-3.1,4.9-2.1,9.6-1.4,12.3c-0.8,0.7-1.5,1.5-2.1,2.3c-0.8-0.7-1.8-1.1-2.9-1.1c-0.4,0-0.9,0.1-1.3,0.2
			c-2.4,0.7-3.9,3-3.6,5.5l0.1,1.1c-0.1,0-0.3,0-0.4,0c-0.6,0-1.2,0.1-1.8,0.3c-0.2,0.1-0.4,0.2-0.6,0.3l-3.7,2
			c-0.9,0.5-1.6,1.2-2.1,2.1c-0.2,0.3-0.4,0.7-0.5,1.1l-0.7,2.2c-0.1,0.4-0.2,0.9-0.2,1.3c-0.4,0.9-0.5,2-0.2,3
			c0.5,1.6,1.7,2.4,2.6,2.9c0,0.1,0.1,0.1,0.1,0.2c0.3,0.4,0.6,0.9,0.9,1.4c0.1,0.1,0.2,0.5,0.5,1.2c0.4,0.9,0.8,1.8,1.3,2.7
			c0.1,0.2,0.2,0.4,0.4,0.7c0.4,0.8,0.9,1.9,1.9,2.8c0.2,0.2,0.4,0.3,0.5,0.4l0,0.1c-0.1,0.3-0.1,0.7-0.1,1l0,0.2
			c-5.7-2.1-9.7-5.7-11.2-10.1c-2.1-6.3-4.9-11.1-8.5-14.6c-0.3-0.6-0.5-1.2-0.8-1.8c-0.7-1.5-1.5-2.8-2.3-4
			c-0.5-3.2-2.4-8.7-10.3-11.8c-1.7-0.6-3.5-1-5.4-1c-0.6,0-1.3,0-1.9,0.1c-0.5-1.1-1.2-2.1-2.2-3c-2.1-1.9-4.5-3-7.1-3
			c-4.7,0-8.8,3.4-9.6,7.8c-0.7,4.3,0.8,7.5,3.1,9.5c-0.1,0.2-0.2,0.5-0.3,0.7c-6.7,2-16.4,7.2-19.7,20.8L80,121
			c-2,8.3-3.3,13.3-5.4,15.8c-1.7,2-4.8,2.9-12.1,3.4c-8.3,0.6-15.1,4.4-18.9,10.6c-4.2,6.9-4.6,15.9-1,24.8
			c0.7,1.7,1.6,3.3,2.8,4.8c-10.7,4.8-17.8,15.4-17.8,27.4c0,5.4,1.5,10.7,4.2,15.4c0.7,1.2,2,1.9,3.4,1.9h70.2l25.5,0l65.8,0
			c1.1,0,2.1-0.4,2.8-1.2c8.7-8.8,13.4-20.4,13.4-32.7c0-14.3-6.4-27.5-17.5-36.4c-3.3-8.8-8.7-15.5-15.3-19.5
			c0.9,0.1,1.8,0.2,2.7,0.2c10.3,0,16.6-9.3,18-13.8c0.2-0.6,0.4-1.2,0.5-1.7c0.8-2.7,0.9-2.9,1.6-3.2c2.9-1.7,8.2-4.8,8.3-11.3
			c0-1.6-0.2-3-0.5-4.1c1.8-1.7,3.3-4.3,3.5-8C214.5,89.6,213.4,87,211.8,85.3z"/>
		<path class="st0" d="M111.4,20.2c0.1,0.1,0.5,0.5,0.7,0.8c0.2,0.3,0.5,0.5,0.7,0.8c0.7,0.7,1.7,1.8,3.4,3c1.5,1.1,3.4,1.7,5.3,1.7
			c0.6,0,1.1,0,1.6-0.1c0.1,0.1,0.1,0.3,0.2,0.4c0,0,0,0.1,0,0.1c-1.3,0.3-2.4,0.9-3.5,1.6c-3.4,2.4-6,6-7,9.9
			c-0.8,3.3-1,8.3,2.8,13.8C120.4,59,131.1,63,138.8,63c3.2,0,5.8-0.7,7.7-2c0.2-0.1,0.3-0.2,0.5-0.3c0.2,0,0.4,0,0.5-0.1
			c0.9-0.2,1.6-0.6,2.2-1.3c0.2-0.1,0.4-0.2,0.6-0.4c0.2-0.1,0.4-0.3,0.6-0.5c0.8-0.3,1.5-0.8,2-1.6c0.1-0.2,0.2-0.3,0.3-0.5
			c0.2-0.1,0.3-0.2,0.5-0.3c7.2-5,8.8-23.2,2.8-31.9c-3.4-4.9-8.3-7.7-13.8-7.7c-3.4,0-6.9,1.1-9.8,3.1c-0.7,0.5-1.3,1-1.9,1.7
			c-0.2-0.4-0.3-0.8-0.4-1.2c-0.1-0.3-0.1-0.5-0.2-0.8c0.1-0.6,0-1.2-0.1-1.8c-0.5-1.8-1.9-3.2-3.7-3.6c-1.5-1.2-3.9-2.1-7.4-2.1
			c-3.5,0-6.7,0.9-7,1c-1.6,0.5-2.7,1.9-2.8,3.5C109.1,17.9,109.9,19.5,111.4,20.2z"/>
		<path class="st0" d="M38.1,109c4.9,3.9,11.1,6.1,17.3,6.1c1,0,2-0.1,3-0.2c7.4-0.8,14-4.4,18.6-10.2c4.6-5.8,6.7-13,5.9-20.3
			c-0.8-7.4-4.4-13.9-10.2-18.6C72,65.3,71.2,65,70.3,65c-0.1,0-0.3,0-0.4,0c-1.1,0.1-2,0.6-2.7,1.5l-1.4,1.8L52.3,84.9l-13.4,16.7
			l-1.4,1.8c-0.7,0.8-1,1.9-0.9,2.9S37.2,108.3,38.1,109z"/>
	</g>
	<g>
		<g>
			<path class="st1" d="M177.4,130.5c0,0-11.8-3.6-12.1-11.4c-0.3-7.7,5.5-11.6,4.9-12.8c-0.6-1.2-2.6-5.7,2.2-8.2
				c2.1-1.1-2.8-6.4,1.1-12.4c0,0,3.3-5.3,7.4-2.7c0,0,1.4-5.2,6.9-6.1c5.5-1,8.5,1,8.5,1s2.3-3.3,7.9-1c5.5,2.3,4.2,8.5,2.6,10
				c0,0,3.9,0.7,3.6,6.5s-5.1,7-5.1,7s2.1,0.9,2.1,5.2c-0.1,4.3-3.8,6.5-6.3,7.9s-2.7,3.4-3.9,7.2
				C195.9,124.4,188.8,135.1,177.4,130.5z"/>
			<path class="st0" d="M201.8,107.2l-2.6,2.4l-0.3,0.3l-0.3,0.3l-0.7,0.6l-1.3,1.1l-0.3,0.3l-0.3,0.3l-0.7,0.5l-1.4,1.1
				c-0.5,0.3-1,0.7-1.4,1c-0.5,0.3-0.9,0.7-1.4,1l-1.5,0.9c-0.5,0.3-1,0.5-1.5,0.8c-0.3,0.1-0.5,0.3-0.8,0.4l-0.8,0.3l-0.8,0.3
				L185,119c-0.3,0.1-0.5,0.2-0.8,0.3l-0.8,0.2c-0.3,0.1-0.6,0.2-0.9,0.2l0.5-1.7c0.3-1,0.6-2,0.9-3.1c0.6-1.9,1.3-3.8,2-5.7
				c0,0,0.1,0,0.1,0c0.4-0.1,0.8-0.3,1.2-0.4c0.4-0.2,0.8-0.3,1.2-0.5c0.4-0.2,0.8-0.3,1.1-0.5c1.5-0.7,2.9-1.5,4.3-2.3
				c0.7-0.4,1.4-0.8,2.1-1.3l1-0.7l1-0.7c0.7-0.4,1.3-0.9,1.9-1.4c0.6-0.5,1.2-1,1.9-1.5l-0.1-0.2c-0.7,0.3-1.5,0.6-2.2,0.8
				c-0.7,0.2-1.5,0.5-2.2,0.7l-1.1,0.3l-1.1,0.3c-0.7,0.2-1.5,0.4-2.2,0.6c-1.4,0.3-2.9,0.6-4.3,0.8c0-0.1,0.1-0.2,0.1-0.3
				c1.2-2.6,2.4-5.1,3.8-7.6c0,0,0,0,0,0c0.3,0,0.6,0.1,0.9,0.1c0.6,0,1.2,0,1.8-0.1c1.2-0.1,2.3-0.3,3.4-0.6l0.8-0.2
				c0.3-0.1,0.5-0.2,0.8-0.3c0.5-0.2,1-0.4,1.5-0.6c0.5-0.2,1-0.5,1.5-0.7l1.4-0.8l-0.1-0.3l-1.6,0.3c-0.5,0.1-1,0.1-1.6,0.2
				c-0.5,0-1,0.1-1.5,0.1c-0.3,0-0.5,0-0.8,0l-0.8,0c-1,0-2-0.2-2.9-0.4c-0.3-0.1-0.6-0.1-0.9-0.2c0.1-0.1,0.1-0.2,0.2-0.3
				c0.6-0.9,1.2-1.8,1.8-2.7l1-1.3l0.5-0.6c0.2-0.2,0.3-0.4,0.5-0.6c1.3-1.7,2.8-3.3,4.4-4.7l-0.1-0.2c-1.9,1.2-3.6,2.6-5.2,4.1
				c-0.2,0.2-0.4,0.4-0.6,0.6l-0.6,0.6l-1.2,1.2c-0.7,0.8-1.5,1.6-2.2,2.4c-0.4,0.4-0.7,0.9-1.1,1.3c-0.1-1-0.2-2-0.2-3
				c0-1.1,0-2.2,0.1-3.4c0.1-1.1,0.3-2.2,0.6-3.3l-0.2-0.1c-0.6,1-1,2.1-1.4,3.2c-0.4,1.1-0.6,2.3-0.8,3.4c-0.2,1.2-0.4,2.3-0.5,3.5
				c-0.1,0.6-0.1,1.2-0.1,1.8c0,0.5-0.1,0.9-0.1,1.4c-1.4,1.9-2.7,3.9-4,5.9c-0.3,0.5-0.6,1-0.9,1.5c0-0.1-0.1-0.2-0.1-0.3
				c-0.7-1.4-1.3-2.8-1.9-4.3c-0.6-1.5-1.1-3-1.5-4.5c-0.4-1.5-0.8-3.1-1.1-4.7l-0.3,0c-0.1,1.6-0.1,3.2,0,4.9
				c0.1,1.6,0.2,3.3,0.5,4.9c0.2,1.6,0.5,3.2,0.9,4.9c0.2,0.8,0.4,1.6,0.6,2.4c0.1,0.3,0.2,0.6,0.3,0.9c-1.1,1.9-2.1,3.9-3.1,5.9
				c-0.5,1-0.9,2-1.4,3l-0.4,0.8c-0.3-0.3-0.6-0.7-0.9-1c-0.5-0.7-1-1.4-1.4-2.2l-0.3-0.6l-0.2-0.6c0-0.1-0.1-0.2-0.1-0.3l-0.1-0.3
				l-0.2-0.7l-0.3,0l0,0.7l0,0.4c0,0.1,0,0.2,0,0.4l0,0.7l0.1,0.7c0.1,1,0.3,2,0.7,2.9c0.3,1,0.8,1.9,1.3,2.8
				c0.1,0.1,0.1,0.2,0.2,0.3l-2.2,5.3l7.6,2.4l1-3.9c0.4-0.1,0.7-0.2,1.1-0.3c0.6-0.2,1.3-0.4,1.8-0.6l0.9-0.4
				c0.3-0.1,0.6-0.3,0.8-0.4l0.8-0.4l0.8-0.5l0.8-0.5c0.3-0.2,0.5-0.3,0.8-0.5c0.5-0.4,1-0.7,1.5-1.1l1.4-1.1
				c0.5-0.4,0.9-0.8,1.4-1.2c0.4-0.4,0.9-0.8,1.3-1.2l1.3-1.3l0.6-0.6l0.3-0.3l0.3-0.3l1.2-1.3l0.6-0.7l0.3-0.3l0.3-0.3l2.2-2.7
				L201.8,107.2z"/>
		</g>
		<path class="st2" d="M166.5,148.7c-4,0-7.9,0.6-11.6,1.6c-9.5-12.2-24.3-20.1-41-20.1c-24.7,0-45.4,17.3-50.6,40.4
			c-0.7-0.1-1.4-0.2-2.1-0.2c-5.6,0-10.2,4.6-10.2,10.2c0,0.7,0.1,1.4,0.2,2c-11.2,2.9-19.5,13.1-19.5,25.2c0,4.9,1.3,9.4,3.7,13.3
			h161.4c7.6-7.7,12.3-18.3,12.3-29.9C209.1,167.7,190,148.7,166.5,148.7z"/>
		<g>
			<path class="st3" d="M108.8,101.2c0,0-19.7-0.4-24.5,19.1s-5.1,22.6-21.5,23.9c-16.4,1.3-22.3,15.7-16.5,29.9s35.7,24.4,63,6.2
				s34.7,10.4,54.8,14.5s32-15.6,30-29.5s-11.4-29-26.8-29.7c-15.4-0.6-23.2-7.9-25.6-14.8C135,100.7,121.9,101.1,108.8,101.2z"/>
			<path class="st4" d="M131.3,135.3c-6.1-4.3-9.5,1.5-9.7,1.6c-1.9,1.5-1.6,5.9,0.2,7.9l42.4,41c0.6,0.8,2-0.3,2.8-1
				c0.3-0.2,0.5-0.5,0.6-0.8c1.4-2,1.3-5.1,0.1-7.2C162.1,166,139.3,140.9,131.3,135.3z"/>
			<path class="st5" d="M133.6,153c0,0,4.2,3.2,5.1,8.5c1,5.3-2.6,6.3-2.6,16.6c0.1,10.3-8.3-15.5-8.3-15.5L133.6,153z"/>
			<g>
				<path class="st4" d="M152,219.6c-0.3-0.7-0.5-1.3-0.8-1.9c-0.3-0.8-0.7-1.7-1-2.5c-1.2-2.9-2.3-5.7-3.3-8.4
					c-0.6-1.5-1.1-3-1.6-4.5c-0.9-2.4-1.7-4.7-2.4-7c-0.5-1.6-1-3.1-1.5-4.6c-0.3-1.1-0.6-2.1-0.9-3.1c-4.7-16.5-5.4-27.4-4.2-35.1
					c1-7-1.7-13.9-7.2-18.2l-2.2-1.7c-10.1-7.8-24.9-2.2-27.3,10.3c-0.8,4.2-1.4,9-1.7,14.4c-0.5,9.3-0.3,18.8,0.7,28.8
					c0.2,1.5,0.3,3.1,0.5,4.6c0.5,3.6,1,7.3,1.7,11c0.3,1.5,0.6,3.1,0.9,4.6c0.7,3.2,1.5,6.5,2.4,9.9c0.4,1.5,0.8,3,1.2,4.5
					c0,0.1,0.1,0.2,0.1,0.4h47.2C152.4,220.7,152.2,220.1,152,219.6z"/>
			</g>
			<path class="st4" d="M98.7,137.8c4.6-4,8.1-5.1,11-0.6c1.3,2,1.5,7.1-3,12.3l-36.8,47.8c-0.6,0.9-2,0-2.9-0.5
				c-0.3-0.2-0.5-0.4-0.7-0.7c-1.6-1.9-1.8-5.1-0.9-7.4C69.9,176.5,90.9,144.5,98.7,137.8z"/>
			<path class="st3" d="M117.6,125.5c0,0-11.9-2.1-14.7-13.1C99.1,97.6,113,87.5,122.1,91c8.4,3.2,8.2,10,7.6,11.7
				C129.1,104.5,117.6,125.5,117.6,125.5z"/>
			<path class="st3" d="M129.8,99.8c0,0-11.3-1.8-13.6-5.2c-2.3-3.4,3.3-4,3.3-4S127,91.9,129.8,99.8z"/>
			<path class="st3" d="M111.3,94.9c0,0,4.1-4.6,0-8.5c-4.1-3.9-9.4-1.1-10,2.6c-0.7,4.1,1.7,6.2,3.5,7
				C106.7,96.8,109.6,96.4,111.3,94.9z"/>
			<path class="st6" d="M112.9,114.2c4.3,8.9,13.9,13.1,19.3,10.5c5.4-2.6,4.6-11.1,0.3-19.9c-4.3-8.9-10.8-11.3-16.3-8.7
				C110.9,98.7,108.6,105.3,112.9,114.2z"/>
			<path class="st6" d="M112.4,111.4l10.6-2c0.3,1.7,2.5,17.5,2.4,23.5c-0.3,1.9-2.9,2.9-5.8,2.3c-2.7-0.5-4.7-2.2-4.9-3.9l0,0
				C114.8,127.8,113.3,117.2,112.4,111.4z"/>
			<path class="st3" d="M124.1,93.3c0,0,0.1,13.2-10.9,19.8c-5.7,3.4-9.5-5.8-9.5-5.8L108,97c0,0,4.2-4.8,8-5.1
				C116.3,91.9,124.1,93.3,124.1,93.3z"/>
			<circle class="st7" cx="122.5" cy="136.7" r="0.6"/>
			<path class="st3" d="M130.3,135.7c-3.3-1.1-7.7,0.2-7.9,0.3l-0.1,0c-0.9,0-4.9,0-7.5,1.8c-1.4,0.9-2.4,2-2.9,3
				c-0.5,1.1-0.5,2.1,0,3v0c0.4,0.7,1.3,1.2,2.4,1.2c1.1,0,2.5-0.4,4.2-1.6c1.2-0.8,2.1-1.9,2.8-3c0.1,0.5,0.2,1.1,0.3,1.7
				c0.1,0.4,0.2,0.8,0.3,1.2c0.3,1.2,0.6,2.3,0.7,3.4c0,1.3-0.4,2.6-0.9,4c-0.2,0.5-0.3,0.9-0.5,1.4c-0.8,2.8-1.1,5.9-0.6,8.8
				l1.4-0.2c-0.4-2.7-0.2-5.6,0.6-8.2c0.1-0.5,0.3-0.9,0.4-1.4c0.5-1.4,1-2.9,1-4.4c0-1.3-0.4-2.5-0.7-3.7c-0.1-0.4-0.2-0.8-0.3-1.1
				c-0.2-0.7-0.3-1.3-0.3-1.8c0.3,0.5,0.7,1,1.1,1.5c0.4,0.5,0.8,1.1,1.1,1.6c1.7,3,1.3,6.8,0.8,10.4l1.4,0.2
				c0.6-3.9,1-7.9-0.9-11.3c-0.3-0.6-0.8-1.2-1.2-1.7c-0.3-0.5-0.7-0.9-1-1.4c1.1,1.1,2.6,2.3,4.2,2.9c1.1,0.4,2.2,0.6,3.1,0.6
				c0.4,0,0.7,0,1-0.1c1.2-0.2,2-0.9,2.3-1.8C135.2,139.2,134.3,137,130.3,135.7z M117.8,142.2c-2.1,1.4-4.1,1.8-4.7,0.8
				c-0.3-0.5-0.2-1.1,0.1-1.6c0.3-0.6,0.9-1.5,2.5-2.5c1.8-1.2,4.4-1.5,5.8-1.5C120.9,138.7,119.6,141,117.8,142.2z M133.4,140.2
				c-0.2,0.6-0.8,0.8-1.3,0.9c-0.6,0.1-1.7,0.1-3.5-0.4c-2-0.7-3.9-2.6-4.8-3.7c1.4-0.3,4-0.7,6,0
				C132.3,137.8,133.8,139.1,133.4,140.2z"/>
			<path class="st6" d="M109.6,117.7c1.4,2,5.1,3.3,6.6,2.3c1.5-1,0.7-2.9-0.7-4.9c-1.4-2-3.8-3.1-5.3-2.1
				C108.7,113.9,108.2,115.7,109.6,117.7z"/>
			<g>
				
					<rect x="140.3" y="125.4" transform="matrix(0.9963 -8.609920e-02 8.609920e-02 0.9963 -12.444 12.7442)" class="st8" width="2.3" height="50.6"/>
				<path class="st6" d="M122.4,176.4c1.2,1,2.4,1.7,4.7,1c1.9-0.5,3.1-1.3,3.7-2.4c0.7-1.1,0.9-2.6,0.1-3.5
					c-0.2-0.3-0.4-0.5-0.3-0.7c0,0,0,0,0,0c0.3-1.2,1-0.8,1.8-3.5c0.8-2.7-0.7-3.3-1.2-3.4c-0.4-0.1-0.5,1.3-0.6,1.9
					c-0.1,0.6-1.4,1.9-1.9,2.7c-0.3,0.5-1.2,1.3-1.9,1.9c-0.7,0.6-1.3,1.2-1.9,1.9c-0.8,1-1.8,1.7-2.3,2.7
					C122.5,175.3,122.5,176,122.4,176.4z"/>
				<g class="st9">
					<polygon class="st0" points="153.1,191.9 132.5,191.9 129.8,145.5 155.8,145.5 					"/>
				</g>
				<g>
					<path class="st10" d="M143.6,156.8c-3.1,0.4-6.3-0.6-9.4-1.2c-1.2-0.2-2.5-0.4-3.8-0.4l2.1,36.7h20.5l2.2-38.1
						c-1.6,0.1-3.1,0.3-4.6,0.8C148.3,155.3,146,156.5,143.6,156.8z"/>
				</g>
				<polygon class="st6" points="111.6,186 109.3,180.3 123.9,175.7 126,181.9 				"/>
				<path class="st6" d="M128.3,171.6c-2.7,2.5-5.8,4.9-5.8,5l2.2,5.9c0.9,0.3,2.3,0.9,8.4-2.2l2.3-1.1l0-3c0-0.5-0.1-0.9-0.2-1.4
					l-0.1-0.6c-0.3-1.2-0.9-2.3-1.8-3.1l-0.6-0.5C132.4,170.3,128.3,171.9,128.3,171.6L128.3,171.6z"/>
				<path class="st6" d="M137.3,169l-5.8,4.3c-0.5,0.3-1.1,0.3-1.5-0.2l0,0c-0.4-0.4-0.3-1.1,0.2-1.4l5.8-4.3
					c0.5-0.3,1.1-0.3,1.5,0.2v0C137.9,168,137.8,168.7,137.3,169z"/>
				<path class="st6" d="M141.4,167.1l-4.1,1.9c-0.5,0.2-1.1,0-1.3-0.5l0,0c-0.2-0.5,0-1,0.5-1.3l4.1-1.9c0.5-0.2,1.1,0,1.3,0.5l0,0
					C142.1,166.3,141.9,166.9,141.4,167.1z"/>
				<path class="st6" d="M143.9,166.2l-2,0.7l0,0c-0.6,0.2-1.3-0.1-1.4-0.7l0,0c-0.1-0.5,0.3-1,0.9-1.2l2.6-0.6
					c0.4-0.1,0.8,0.1,0.8,0.4l0,0C144.9,165.5,144.5,166,143.9,166.2z"/>
				<path class="st6" d="M144.7,167.3l-1.8,1.1l0,0c-0.5,0.4-0.7,1.1-0.4,1.6l0,0c0.3,0.4,1,0.5,1.5,0.1l2.1-1.7
					c0.3-0.3,0.4-0.7,0.2-1h0C145.9,167,145.3,166.9,144.7,167.3z"/>
				<path class="st6" d="M139.5,170.1l-5.9,2.3c-0.5,0.2-0.8,0.8-0.6,1.4l0,0c0.2,0.5,0.8,0.8,1.3,0.6l5.9-2.3
					c0.5-0.2,0.8-0.8,0.6-1.4v0C140.6,170.2,140,169.9,139.5,170.1z"/>
				<path class="st6" d="M142.7,168.5l-3.4,1.8c-0.5,0.3-0.7,0.9-0.5,1.4l0,0c0.2,0.5,0.8,0.7,1.3,0.4l3.4-1.8
					c0.5-0.3,0.7-0.9,0.5-1.4l0,0C143.8,168.5,143.2,168.3,142.7,168.5z"/>
				<path class="st6" d="M144.4,171.6l-1.8,0.8l0,0c-0.5,0.3-0.8,0.9-0.5,1.3l0,0c0.3,0.4,0.9,0.6,1.4,0.3l2.1-1.2
					c0.3-0.2,0.5-0.6,0.3-0.8l0,0C145.6,171.5,145,171.4,144.4,171.6z"/>
				<path class="st6" d="M139.8,173.4l-5,1.5c-0.6,0.2-0.9,0.7-0.8,1.2l0,0c0.1,0.5,0.7,0.8,1.3,0.6l5-1.5c0.6-0.2,0.9-0.7,0.8-1.2
					v0C141,173.5,140.4,173.3,139.8,173.4z"/>
				<path class="st6" d="M142.6,172.4l-2.4,0.9c-0.6,0.2-0.9,0.8-0.7,1.3l0,0c0.2,0.5,0.8,0.7,1.4,0.4l2.4-0.9
					c0.6-0.2,0.9-0.8,0.7-1.3l0,0C143.8,172.4,143.2,172.2,142.6,172.4z"/>
				<path class="st6" d="M141.8,176l-1.8,0.6l0,0c-0.5,0.2-0.8,0.8-0.6,1.3l0,0c0.2,0.4,0.8,0.6,1.3,0.3l2.1-1
					c0.3-0.2,0.5-0.5,0.3-0.8l0,0C142.9,176,142.4,175.8,141.8,176z"/>
				<path class="st6" d="M137.5,177.1l-5.1,0.7c-0.5,0.1-0.8,0.5-0.8,1l0,0c0.1,0.5,0.5,0.8,1,0.8l5.1-0.7c0.5-0.1,0.8-0.5,0.8-1
					l0,0C138.5,177.4,138,177,137.5,177.1z"/>
				<path class="st6" d="M140.2,176.5l-2.7,0.6c-0.5,0.1-0.8,0.6-0.7,1.1l0,0c0.1,0.5,0.6,0.8,1,0.7l2.7-0.6
					c0.5-0.1,0.8-0.6,0.7-1.1l0,0C141.2,176.7,140.7,176.4,140.2,176.5z"/>
			</g>
			<g>
				<path class="st4" d="M121.4,183.3c-12.3,5.7-40.7,14-49.2,14.4c-7.1,0.4-7.2-3.9-7.3-4.1c-0.7-2.1,1.3-5.6,3.8-6.3l50.9-10.3
					L121.4,183.3z"/>
			</g>
			<g>
				<path class="st6" d="M160.2,125.7c1.2-0.7,2.7-1.7,2.9-3.8c0.1-1.7-0.2-2.9-0.9-3.8c-0.7-0.9-2.2-1.5-3.5-0.9
					c-0.3,0.1-0.5,0.2-0.7,0.1c0,0,0,0,0,0c-0.9-0.5-0.4-1-2.3-2.5c-2-1.4-3-0.3-3.1,0c-0.2,0.3,0.9,0.8,1.4,1.1
					c0.5,0.3,1.1,1.7,1.6,2.3c0.3,0.3,0.7,1.4,1,2.1c0.3,0.7,0.6,1.4,1,2.1c0.6,1,0.8,2,1.6,2.7
					C159.3,125.3,159.9,125.5,160.2,125.7z"/>
				<polygon class="st6" points="162.6,136 168.1,135.5 165.6,122.4 159.8,123.3 				"/>
				<path class="st6" d="M158.8,117.1c0.8,3.1,1.4,6.4,1.5,6.5l5.3,0.5c0.6-0.6,0.5-0.1,0.7-5.8c0-0.2,0-0.4,0-0.6l0.3-2.6
					c0,0-1.4-2.9-4.2-2.1l-0.6,0.2C161.4,113.3,159,117.2,158.8,117.1L158.8,117.1z"/>
				<path class="st6" d="M157.7,109.3l3.9,5.5c0.3,0.4,1.1-0.2,1.5-0.6l0,0c0.4-0.3,0.4-0.9,0.1-1.3l-4.1-4.8
					c-0.3-0.4-0.9-0.4-1.3-0.1l0,0C157.4,108.3,157.4,108.9,157.7,109.3z"/>
				<path class="st6" d="M162.7,102.3l0.2,1.9l0,0c0.1,0.6,0.6,1,1.1,0.8l0,0c0.5-0.1,0.8-0.6,0.6-1.2l-0.5-2.3
					c-0.1-0.4-0.4-0.6-0.7-0.5h0C162.9,101.2,162.6,101.7,162.7,102.3z"/>
				<path class="st6" d="M163,107.5l-0.9,5.8c0,0.5,0.8,0.7,1.3,0.8l0,0c0.5,0,0.9-0.3,1-0.8l0.4-5.6c0-0.5-0.3-0.9-0.8-1l0,0
					C163.5,106.6,163,107,163,107.5z"/>
				<path class="st6" d="M162.9,104.3l0.1,3.4c0,0.5,0.4,0.9,0.9,0.9l0,0c0.5,0,0.9-0.4,0.9-0.9l-0.1-3.4c0-0.5-0.4-0.9-0.9-0.9l0,0
					C163.3,103.4,162.9,103.8,162.9,104.3z"/>
				<path class="st6" d="M166.3,103.5l-0.3,1.8l0,0c0,0.6,0.3,1.1,0.8,1l0,0c0.5,0,0.9-0.5,0.9-1l0.1-2.3c0-0.4-0.2-0.6-0.5-0.6l0,0
					C166.8,102.5,166.4,103,166.3,103.5z"/>
				<path class="st6" d="M165.5,108.2l-1.6,4.8c-0.1,0.6,0.6,1.1,1,1.2l0,0c0.5,0.1,1-0.2,1.1-0.8l1.2-4.8c0.1-0.6-0.1-1.1-0.6-1.2
					l0,0C166.1,107.3,165.7,107.6,165.5,108.2z"/>
				<path class="st6" d="M166,105.4l-0.4,2.4c-0.1,0.6,0.2,1.1,0.7,1.2l0,0c0.5,0.1,0.9-0.3,1-0.9l0.4-2.4c0.1-0.6-0.2-1.1-0.7-1.2
					l0,0C166.6,104.4,166.1,104.8,166,105.4z"/>
				<path class="st6" d="M169.4,107.4l-0.9,1.4l0,0c-0.2,0.5-0.1,1,0.3,1.2l0,0c0.4,0.2,0.9,0,1.1-0.5l0.9-1.9
					c0.1-0.3,0-0.6-0.2-0.7v0C170.1,106.8,169.6,107,169.4,107.4z"/>
				<path class="st6" d="M167.4,111.1L165,115c-0.2,0.4,0.2,1,0.6,1.2l0,0c0.4,0.2,0.9,0.1,1.1-0.3l2.2-4c0.2-0.4,0.1-0.9-0.3-1.1
					l0,0C168.1,110.6,167.6,110.8,167.4,111.1z"/>
				<path class="st6" d="M168.5,108.9l-1,2.2c-0.2,0.4,0,0.9,0.4,1l0,0c0.4,0.2,0.9,0,1-0.4l1-2.2c0.2-0.4,0-0.9-0.4-1l0,0
					C169.1,108.3,168.6,108.5,168.5,108.9z"/>
				<path class="st6" d="M155,111.4l3.7-2c0.4-0.2,0.6-0.7,0.4-1.1l0,0c-0.2-0.4-0.7-0.6-1.1-0.4l-3.7,2c-0.4,0.2-0.6,0.7-0.4,1.1
					l0,0C154,111.5,154.6,111.6,155,111.4z"/>
				<path class="st6" d="M154.4,113l0.7-1.7l0,0c0.2-0.6,0-1.1-0.5-1.3l0,0c-0.4-0.1-0.9,0.2-1.1,0.7l-0.7,2.2
					c-0.1,0.3,0,0.7,0.3,0.8l0,0C153.7,113.9,154.2,113.6,154.4,113z"/>
				<polygon class="st6" points="160.5,112.8 160.5,116.3 162.7,115.6 162.1,112.7 				"/>
			</g>
			<g>
				<path class="st4" d="M167.2,128.8c3.3,13.1,6.3,42.5,5.2,51c-0.9,7-5.2,6.4-5.4,6.4c-2.2,0.3-5.3-2.3-5.5-4.9l-0.8-51.9
					L167.2,128.8z"/>
			</g>
		</g>
		<path class="st0" d="M147.7,166.3c1,0,1.9-0.8,1.9-1.9c0,1,0.8,1.9,1.9,1.9c-1,0-1.9,0.8-1.9,1.9
			C149.6,167.2,148.8,166.3,147.7,166.3z"/>
		<g>
			<path class="st11" d="M113.2,16.7c1,0.5,1.5,1.3,2.6,2.4c0.7,0.7,1.5,1.6,2.8,2.5c3.3,2.4,7.3-0.5,7.3-0.5c0-1.1-0.2-1.9-0.6-2.6
				C122.8,13.7,113.2,16.7,113.2,16.7z"/>
			<path class="st12" d="M125.2,17.8c-0.4,0.1-0.7,0.6-0.5,1.1c0.1,0.3,0.4,0.8,0.7,0.9c0.1,0.6,0.2,1.1,0.3,1.7
				c0.2,0.7,0.4,1.3,0.6,1.9c0.2,0.6,0.5,1.3,0.7,1.9c0.3,0.6,0.5,1.2,0.8,1.8c0.6,1.2,1.2,2.4,1.9,3.5c0.3,0.6,0.7,1.1,1.1,1.7
				c0.2,0.3,0.4,0.6,0.6,0.8c0.1,0.1,0.2,0.3,0.3,0.4c0.1,0.1,0.2,0.3,0.3,0.4l1.1-0.9c-0.1-0.1-0.2-0.2-0.3-0.4
				c-0.1-0.1-0.2-0.3-0.3-0.4c-0.2-0.3-0.4-0.5-0.6-0.8c-0.4-0.5-0.7-1.1-1.1-1.6c-0.7-1.1-1.4-2.2-2-3.3c-0.3-0.6-0.6-1.1-0.9-1.7
				c-0.3-0.6-0.5-1.2-0.8-1.8c-0.2-0.6-0.4-1.2-0.6-1.8c-0.2-0.6-0.3-1.2-0.4-1.8c0.1-0.3,0.1-0.6,0-0.9
				C126.1,18,125.7,17.7,125.2,17.8z"/>
			<polygon class="st12" points="144.9,54.1 145.8,55.4 146.7,56.7 146.9,55.5 148,55.7 148.3,54.6 149.5,54.8 148.6,53.4 
				147.7,52.2 			"/>
			<path class="st13" d="M135,23c-2.5,1.7-3.7,4.8-3.7,8.4c-3.3-1.3-6.7-1.3-9.2,0.4c-5,3.4-8.2,10.7-3.1,18.1
				c5.1,7.4,20.2,11.2,25.2,7.7c1.5-1,2.2-2.5,2.3-4.1c1.6,0.5,3.2,0.3,4.7-0.7c5-3.4,6.9-18.9,1.8-26.3C148,19.1,140,19.5,135,23z"
				/>
		</g>
		<g>
			<path class="st5" d="M145.9,158c0,0-3-3.7-0.4-5.7C148.1,150.3,148.6,156.3,145.9,158z"/>
			<path class="st5" d="M148.9,156.7c0,0,0.1-4.8,3.4-4.6C155.6,152.2,152.1,157.2,148.9,156.7z"/>
			<path class="st5" d="M146.4,159.2c0,0,4.2-2.2,5.7,0.7C153.6,162.8,147.5,162.2,146.4,159.2z"/>
			<path class="st14" d="M145.9,154.1c-0.5,1.6-0.3,4-0.3,4.7c-1.2,1-2.5,1.8-3.7,2.5c-0.1,0.1-0.2,0.2-0.1,0.4
				c0.1,0.1,0.2,0.2,0.4,0.1c1.1-0.6,2.4-1.4,3.8-2.5c0.8,0.4,2.5,0.8,3.9,1.1c0.1,0,0.3,0.1,0.3,0.1c0.1,0,0.3,0,0.4-0.2
				c0-0.1,0-0.1,0-0.2c0-0.1-0.1-0.2-0.2-0.2c0,0-0.1,0-0.4-0.1c-0.7-0.2-2.5-0.6-3.5-0.9c0.7-0.5,1.3-1.1,2.1-1.7
				c1.8-1.6,3.1-3,3.1-3c0.1-0.1,0.1-0.2,0.1-0.3c0-0.1,0-0.1-0.1-0.2c-0.1-0.1-0.3-0.1-0.4,0c0,0-2.3,2.4-5.1,4.7
				c-0.1-0.9-0.1-2.9,0.3-4.1c0-0.2,0-0.3-0.2-0.4C146.1,153.9,146,154,145.9,154.1z"/>
		</g>
		<path class="st0" d="M133.5,157.3c1.9,0,3.4-1.5,3.4-3.4c0,1.9,1.5,3.4,3.4,3.4c-1.9,0-3.4,1.5-3.4,3.4
			C136.9,158.9,135.3,157.3,133.5,157.3z"/>
		<g>
			<path class="st15" d="M42,104.1l-1.4,1.8c5.1,4.1,11.4,5.7,17.4,5.1c6-0.7,11.8-3.6,15.9-8.7c4.1-5.1,5.7-11.4,5.1-17.4
				c-0.7-6-3.6-11.8-8.7-15.9l-1.4,1.8c4.6,3.7,7.3,8.9,7.9,14.3c0.6,5.4-0.9,11.1-4.6,15.7c-3.7,4.6-8.9,7.3-14.3,7.9
				C52.3,109.3,46.6,107.8,42,104.1z"/>
			<path class="st16" d="M57.7,108.7c5.4-0.6,10.6-3.3,14.3-7.9L55.4,87.4L57.7,108.7z"/>
			<path class="st2" d="M70,101c-2.9,3.2-6.8,5.3-11,6l-1.8-16.4L70,101z"/>
			<path class="st16" d="M72.1,100.8c3.7-4.6,5.2-10.3,4.6-15.7l-21.2,2.3L72.1,100.8z"/>
			<path class="st2" d="M75.3,86.7c0.2,4.3-1.1,8.5-3.5,12.1L59,88.5L75.3,86.7z"/>
			<path class="st16" d="M42,104.1c4.6,3.7,10.3,5.2,15.7,4.6l-2.3-21.2L42,104.1z"/>
			<path class="st2" d="M56.1,107.4c-4.3,0.2-8.5-1.1-12.1-3.5L54.4,91L56.1,107.4z"/>
			<path class="st16" d="M76.7,85.1c-0.6-5.4-3.3-10.6-7.9-14.3L55.4,87.4L76.7,85.1z"/>
			<path class="st2" d="M69,72.8c3.2,2.9,5.3,6.8,6,11l-16.4,1.8L69,72.8z"/>
		</g>
		<g>
			<path class="st17" d="M51.3,177.2c0.7-2.2,1.8-7.4,3.5-8.7c0.7-1.4,2.9,1.1,3.7,1.4c6.2,4.1,12.7,7.9,19,12
				c11.7,7.6,22.4,16.5,33.3,25c0.5,0.4,0.4,1.1,0,1.5c-6.8,7.7-17.7,10-27.7,9.7C59.6,220.5,46.1,197.8,51.3,177.2z"/>
			<path class="st18" d="M52,179.3c0.3-2.8,1.3-9.4,3.5-10.6c-4.4,10.7-3,23.1,2.1,33.3c5,12,20.1,16.3,32.3,14.1
				c7.3-1.3,13.9-4.8,20.1-8.6c0.4-0.2,0.7,0.3,0.4,0.6c-12.3,11.4-33.6,14.7-47.5,4.7C53.3,204.8,51.2,190.9,52,179.3z"/>
			<path class="st11" d="M49.8,183.9c0.4-5.5,1.8-11.3,5.2-15.8c0.2-0.2,0.7,0,0.5,0.3c-11,22.1,2.9,53.3,30.7,49.4
				c9.1-0.6,17.9-4.2,24.5-10.3c0.3-0.3,1,0.1,0.7,0.5c-7.2,8.9-19.4,12.8-30.7,13.1C60.6,222.2,48.5,201.7,49.8,183.9z"/>
			<g>
				<path d="M92.2,200.1c1.1-1.1,1.7,0.7,1.1,1.5C92.7,205.7,90.4,202.1,92.2,200.1z"/>
				<path d="M85.9,204.7c0.2-0.7,0.6-2.6,1.6-1.9c0.8,0.7-0.1,4.1-1.3,3.3C85.7,205.9,85.8,205.2,85.9,204.7z"/>
				<path d="M80.5,195.2c0.2-2.1,2.5-2.4,2.1-0.9c0,0.1,0,0.2,0,0.4C82.8,196,80.4,197.3,80.5,195.2z"/>
				<path d="M63.5,193c0.5-0.5,1.4-1.1,2.2-1c1.4-0.2-0.2,2.1-0.7,2.4C63.4,196,61.8,194.6,63.5,193z"/>
				<path d="M64.4,186.7c0.4-0.2,1.1-0.5,1.4,0c0.1,0.3,0,0.5-0.2,0.6C64.2,189.9,60.5,188.5,64.4,186.7z"/>
				<path d="M60,178.6c1.8-2.2,4.5-1.1,3.2-0.4C63,179,59.4,180.1,60,178.6z"/>
				<path d="M98.1,204.6c0.1-0.1,0.1-0.2,0.3-0.3c0-0.2,0.3-0.3,0.4-0.1c0.3,0,0.7,0.3,0.6,0.7c0.4,0.5,1.4,2.9-0.1,2.5
					C98.7,206.8,97.6,205.6,98.1,204.6z"/>
				<path d="M71.3,205.2c0.9-1.6,2.3-1,1.7-0.1C72.9,207.4,69.7,207.7,71.3,205.2z"/>
			</g>
		</g>
	</g>
</g>
</svg>
