<?xml version="1.0" encoding="utf-8"?>
<!-- Generator: $$$/GeneralStr/196=Adobe Illustrator 27.6.0, SVG Export Plug-In . SVG Version: 6.00 Build 0)  -->
<svg version="1.1" id="圖層_1" xmlns="http://www.w3.org/2000/svg" xmlns:xlink="http://www.w3.org/1999/xlink" x="0px" y="0px"
	 viewBox="0 0 240 240" style="enable-background:new 0 0 240 240;" xml:space="preserve">
<style type="text/css">
	.st0{fill:#FFFFFF;}
	.st1{fill:#5140B5;}
	.st2{fill:#60C1A4;}
	.st3{fill:#0F3A44;}
	.st4{fill:#FFCC00;}
	.st5{fill:#211D1E;}
	.st6{fill:#649940;}
	.st7{fill:#339946;}
	.st8{fill:#236EA2;}
	.st9{fill:#2A73B4;}
	.st10{fill:#D34646;}
	.st11{fill:#F9A320;}
	.st12{fill:#FB9F9F;}
	.st13{fill:#FFCC02;}
	.st14{fill:#262632;}
	.st15{fill:#A1C955;}
	.st16{fill:#559D7B;}
	.st17{fill:#30636F;}
	.st18{fill:#1C4D59;}
	.st19{fill:#663B18;}
	.st20{fill:#2D83C5;}
	.st21{fill:#F79822;}
	.st22{fill:#349545;}
	.st23{fill:#FF7E19;}
	.st24{fill:#659740;}
</style>
<g>
	<path class="st0" d="M210.7,211.6c-3.6-12.5-10.9-23.5-20.9-31.7c1.9-0.2,4-0.5,6-1.5c3.4-1.7,5.5-5.3,5.5-9.3
		c0-4.4-2.6-8.4-6.5-10.3c-0.3-0.1-0.6-0.3-0.8-0.4c-0.1-0.7-0.2-1.5-0.4-2.2c0.3-0.3,0.5-0.5,0.8-0.8c0.3-0.3,0.7-0.5,1.1-0.8
		c3-2.1,7.6-5.3,7.2-10.8c-0.1-1.1-0.4-2.1-0.8-3.1c5.3-5.9,6.9-12.9,4-18.5c-1.1-2.2-2.9-4-5.2-5.3c0-2.6-1-4.9-3-6.6
		c-1-0.9-2.1-1.5-3-1.9c-0.5-0.3-1-0.5-1.3-0.7c-0.8-0.6-0.5-2.6,0.2-4.2c0.1-0.3,0.2-0.6,0.3-0.9c1.2-3,2.8-7.1,1-11.3c0,0,0,0,0,0
		c0.1-0.6,0.2-1.3,0.2-2c0.2-2.7-0.3-5-1.4-6.9c-0.7-1.3-1.8-2.3-3-3c0.3-0.6,0.6-1.2,0.8-1.7c0.5-1.1,1-2.1,1.6-2.7
		c1.2-1.3,1.5-3.3,0.6-4.9c-0.8-1.3-2.1-2.1-3.6-2.1c-0.3,0-0.6,0-1,0.1c-0.3,0.1-0.6,0.1-1,0.1c-1,0-2.2-0.3-3.1-0.5
		c-0.4-0.1-0.8-0.2-1.2-0.4c-1.7-0.5-3.6-1.1-5.7-1.2c-0.3,0-0.6,0-0.9,0c-3.3,0-6.2,1.2-8.2,3.3c-1.5,1.7-2.3,4.1-2.1,6.3
		c0.1,1.5,0.6,2.9,1.5,4c0,0.1-0.1,0.1-0.1,0.2c-0.6-0.5-1.1-0.9-1.7-1.3c0.1-0.7,0-1.4-0.2-2.1c-0.3-1.1-1-2.2-2-3.2
		c-2.2-2.1-5.1-3.3-8.2-3.3c-0.3,0-0.6,0-0.9,0c1.5-1.6,2-3.8,1.5-5.8c0.5-1.3,0.5-2.7,0-4c0.4-1.9-0.2-3.9-1.6-5.4
		c-0.2-0.2-0.5-0.5-0.8-0.7c2.6-3.1,3.2-6.8,3.5-8.7c0-0.1,0-0.2,0-0.2c0.2-0.5,0.3-1,0.3-1.5c0-2-1.4-3.6-3.2-4
		c1.3-2.8,1.3-4.7,1.2-5.8c0-0.2,0-0.4,0-0.6c0-2.3-1.8-4.1-4.1-4.1c0,0,0,0,0,0c0,0,0,0-0.1,0c-0.7,0-1.3,0.2-1.8,0.5
		c0-1.1-0.1-2.3-0.5-3.5c-0.7-2.5-2.1-4.4-3.5-6.1c-0.8-1-2-1.6-3.3-1.6c-0.1,0-0.2,0-0.3,0c-1.4,0.1-2.6,0.9-3.3,2.2
		c-0.2,0.3-0.5,0.7-0.9,1.1c-0.9,1-2.2,2.5-2.8,4.6c-0.3,1.2-0.3,2.5-0.1,3.9c-0.6-0.4-1.3-0.5-2-0.5c-1.3,0-2.6,0.6-3.4,1.7
		c-0.8,1.1-1,2.6-0.5,3.8c0,0,0,0.1,0,0.1c0.2,1,0.4,2.7,1.2,4.5c-0.4,0.2-0.9,0.4-1.2,0.8c-1.4,1.2-1.8,3.2-1,4.9
		c0.2,0.4,0.3,1.1,0.3,1.9c0.2,1.3,0.3,3,1.2,4.6c0.8,1.6,2.1,3,3.8,3.9c-0.3,0.2-0.6,0.5-0.9,0.9c-0.2,0-0.3-0.1-0.5-0.1
		c-1.3-0.4-2.1-1-2.2-1.4c-0.1-0.2-0.1-0.7-0.2-1.2c-0.1-0.9-0.2-2.1-0.7-3.3c-1.3-3.2-4.4-5.3-7.8-5.3c-0.7,0-1.3,0.1-1.9,0.2
		c-0.2,0.1-0.4,0.1-0.6,0.2c-0.2-0.9-0.4-2-0.9-3.1c-1.5-3-4.6-5-8.8-5.6c-0.8-0.1-1.5-0.1-2.2-0.1c-3,0-5.6,0.9-7.5,2.6
		c-2.2,2-3.1,4.7-3.7,6.9C95,46.6,94,47,92.9,47.7c-1.2,0.9-3.7,3.5-1.9,9c0,0.1,0.1,0.2,0.1,0.3c-2.3,0.9-3.5,2.4-3.7,4.5
		c0,0.6-0.1,1.4-0.1,2.1c-0.7,0.7-1.5,1.6-2.1,2.6c-0.4,0.7-0.7,1.4-0.8,1.9c-1,2.3-1.8,5.4-2.4,8.1c-3.7,0.4-6.5,3.9-7,9
		c-0.5,5.3-0.2,10.8,1,16c-0.7-0.3-1.6-0.5-2.5-0.5c-1.2,0-2.3,0.4-3.3,1.1c-0.4,0.3-0.7,0.6-1,0.9h-6.1c-1.6,0-3,0.9-3.7,2.2
		c-1.7-1.4-3.5-2.7-5.2-3.9c-3.8-2.7-7.5-5.2-8.5-8.6c-0.5-1.8-2.2-3-4-3c-0.4,0-0.7,0-1.1,0.2c-2.2,0.6-3.5,2.9-2.9,5
		c0.7,2.8,0.6,6,0.5,9.4c-0.2,5-0.4,10.7,2.4,15.8c1.3,2.4,3.1,4.3,4.7,6c1.6,1.7,3.1,3.3,3.8,5.1c0.4,1,0.6,2.1,0.6,3.4
		c-0.5-0.1-1-0.1-1.4-0.1c-2.2,0-4.1,1.1-5.2,2.9c-2.8-3-5.9-6-10.2-7.5c-1.1-0.4-2.2-0.6-3.2-0.6c-1.6,0-3,0.5-4.2,1.4
		c-3,2.4-3.1,6.7-0.4,10.8c2.3,3.3,5,6.3,8.1,8.8c-1.7,1-2.4,2.5-2.6,3.3c-0.3,1.1-0.7,4.1,2.8,6.8c2.5,1.9,5.2,3.5,8.1,4.6
		c-1.5,0.8-2.2,2-2.6,2.8c-0.5,1.1-0.5,2.2,0,3.3c1.6,3.8,5.2,6.7,10.2,8.3c1.2,0.4,2.4,0.7,3.6,1c-1,0.7-1.8,1.6-2.3,2.7
		c-0.8,1.6-0.8,3.4-0.1,5c0.5,1.2,1.4,1.9,2.2,2.5c-6.3,5.6-10.9,13-13.3,21.2c-0.4,1.3-0.1,2.6,0.7,3.6c0.8,1,2,1.6,3.3,1.6h49.2
		h29.7h84.6c1.3,0,2.5-0.6,3.3-1.6C210.8,214.2,211,212.8,210.7,211.6z"/>
	<g>
		<path class="st1" d="M149.6,169.6c-17.7,0-33.6,7.7-44.5,20c-6.4-4.2-14.1-6.7-22.4-6.7c-18.7,0-34.5,12.6-39.4,29.7h49.2h29.7
			h84.6C199.6,187.8,176.7,169.6,149.6,169.6z"/>
		<g>
			<path class="st2" d="M189.4,92c-1.6-3.1-6.4-4.5-9.4-2.7c-2.8,1.7-3.4,5.1-4.2,8.1c-0.8,3-2.6,6.4-6.1,6.6
				c-1.6,0.1-3.3-0.5-4.9-0.4c-3.9,0.4-5.1,4.8-4.8,8.4c0.3,3.6,0.9,7.8-1.9,10.1c-3.8,3.1-11.2,0.6-14.3,4.2
				c-2.3,2.7-0.5,6.8,0.7,10.3c1.1,3.5,0.3,8.4-3.6,8.4c-1.1,0-2.2-0.4-3.3-0.6c-5.4-1-10.3,4.7-7.9,9.3c1.3,2.5,4,4.2,5.8,6.4
				c1.8,2.2,2.3,5.9-0.3,7c-1.1,0.5-2.6,0.3-3.7,0.7c-1.9,0.7-2.7,2.7-2.4,4.6c0.3,1.9,1.5,3.6,2.8,5.2c0.8,1,1.6,2.2,1,3.2
				c-0.5,0.8-1.6,0.9-2.5,1.4c-2.3,1.4-0.8,5.1,1.7,6.4c2.6,1.3,5.6,1.2,8.4,1.6c2.8,0.4,6.1,1.7,6.8,4.2c0.3,0.9,0.2,1.9,0.8,2.7
				c0.7,0.9,2.2,1.1,3.4,0.9c5.4-1,7-7,7.6-11.9C163.7,153.6,174,123.2,189.4,92"/>
			<path class="st2" d="M181.9,89.6c3.1-1.5,7.8,0.2,9.2,3.3c1.3,3-0.2,6.1-1.4,9c-1.1,2.9-1.6,6.7,1,8.9c1.3,1,3,1.5,4.2,2.6
				c2.9,2.6,1.3,6.9-1.1,9.6c-2.3,2.7-5.3,5.7-4.4,9.3c1.2,4.7,8.7,7.1,9.1,11.8c0.3,3.6-3.6,5.8-6.6,7.9c-3,2.1-5.2,6.6-2,9
				c0.9,0.7,2,1,3.1,1.5c5,2.4,5.6,9.8,0.9,12.1c-2.5,1.2-5.7,1-8.4,1.8c-2.8,0.8-5.3,3.4-3.8,5.8c0.6,1.1,1.9,1.7,2.6,2.8
				c1.1,1.6,0.6,3.8-0.8,5.1c-1.4,1.3-3.3,2-5.3,2.5c-1.2,0.3-2.6,0.9-2.7,2c-0.1,0.9,0.8,1.7,1.1,2.6c1,2.5-2.3,4.6-5.1,4.1
				c-2.8-0.4-5.2-2.3-7.7-3.7c-2.5-1.4-5.9-2.2-8-0.6c-0.7,0.6-1.3,1.4-2.2,1.7c-1.1,0.3-2.4-0.4-3.2-1.3c-3.8-4-1.5-9.7,0.8-14.2
				C166.5,154.5,176,123.9,181.9,89.6"/>
			<g>
				<path class="st3" d="M149.9,204.1c8,0.2,14.7-6.7,16.9-13.9c0.6-2,0.8-4.1,0.8-6.2c0-2.4-0.2-4.9,0.7-7.1c1.6-3.6,5.7-5,9.1-6
					c3.6-1.1,7.2-2.1,10.2-4.6c3.1-2.6,4-6.2,2.9-10.1c-0.5-2-1.5-4.1-1.5-6.2c0-2.1,1.3-3.6,2.8-4.9c1.6-1.3,3.5-2.4,5.1-3.7
					c1.6-1.3,3-2.8,4.2-4.5c2.3-3.1,3.9-7.1,2.9-11c-1-3.9-4.3-6.5-8-7.8c-7-2.3-15.4-0.3-20.7,4.8c-2.5,2.4-4.2,5.6-4.5,9.1
					c-0.4,3.8,0.8,7.7,0.3,11.5c-0.2,1.8-1,3.4-2.6,4.3c-1.8,1-4,1.1-5.9,1.9c-3.4,1.3-6,4.2-7.3,7.5c-1.5,3.5-1.3,7,0,10.6
					c0.5,1.3,1.6,3.8,0.6,5.2c-0.6,0.8-1.9,0.8-2.9,0.9c-0.9,0.1-1.7,0.4-2.5,0.8c-3,1.6-4.3,5.2-4.7,8.3c-0.6,4.3,0.1,8.8,0.9,13
					c0.5,2.5,1.1,4.9,1.9,7.2c0.5,1.5,2.9,0.9,2.4-0.7c-1.5-4.7-2.5-9.5-2.8-14.3c-0.2-3.2-0.1-6.8,1.7-9.6c0.8-1.3,2-2.1,3.5-2.4
					c1.8-0.3,3.8-0.4,4.8-2.2c1.9-3.1-0.8-6.8-1.3-9.9c-0.6-3.3,0.6-6.9,2.9-9.4c1.2-1.3,2.6-2.4,4.2-2.9c1.8-0.6,3.8-0.8,5.5-1.7
					c7.3-3.7,2.6-13.3,4.1-19.4c1.6-6.8,9-10.7,15.5-11c3.6-0.2,7.7,0.5,10.4,3c2.9,2.7,3,6.8,1.3,10.2c-1.8,3.6-4.8,6.3-8.1,8.6
					c-3.1,2.1-6.1,4.7-6.1,8.7c0.1,3.8,3,7.6,1.6,11.3c-1.3,3.2-5,4.9-8,5.9c-3.4,1.1-7,1.8-10.1,3.9c-3.4,2.3-4.8,5.6-4.9,9.7
					c-0.1,2.1,0.2,4.3-0.2,6.4c-0.3,1.9-1,3.6-1.9,5.3c-1.8,3.3-4.5,6.2-8,7.8c-1.6,0.8-3.4,1.1-5.2,1.1
					C148.3,201.6,148.3,204.1,149.9,204.1L149.9,204.1z"/>
			</g>
			<g>
				<path class="st3" d="M149,207.2c8.6-18.5,14.8-38.4,26.7-55.1c3.3-4.7,7.1-9,11.4-12.8c1.2-1.1-0.6-2.8-1.8-1.8
					c-15.5,13.9-23.6,33.5-31.5,52.3c-2.3,5.4-4.5,10.8-7,16.1C146.2,207.4,148.4,208.6,149,207.2L149,207.2z"/>
			</g>
			<path class="st4" d="M138.4,165.8c-7.2-6.6-11-16.4-11.3-26.1c-0.3-9.7,2.5-19.2,6.7-27.9c2.3-4.8,5.2-9.5,9.7-12.3
				c4.5-2.8,11-3,14.8,0.8c3.5,3.5,3.8,9,3,13.9c-2.2,12.4-10.2,22.7-14.3,34.6c-2.1,6.1-3.1,12.7-6.7,18"/>
			<g>
				<path class="st0" d="M142.9,176c-4.4-15.9-4.5-32.9-0.3-48.9c1.2-4.5,2.8-9,4.7-13.3c0.6-1.5-1.5-2.7-2.2-1.3
					c-6.9,15.6-9.5,33-7.5,50c0.6,4.8,1.5,9.5,2.8,14.2C140.9,178.2,143.4,177.6,142.9,176L142.9,176z"/>
			</g>
		</g>
		<g>
			<g>
				<path class="st2" d="M86.8,193.4c1-3.8-2.1-7.5-5.4-9.6c-3.3-2.1-7.2-3.8-9.2-7.2c-3.1-5.3-0.1-12.5-3.1-17.9
					c-3-5.2-10.5-6.4-13.5-11.5c-3.1-5.2-0.3-12.1-2.6-17.7c-1.8-4.5-6.4-7.3-8.7-11.5c-3.9-7.2-0.4-16.3-2.5-24.3
					c2.8,9.7,17.7,12.1,20.2,21.9c0.9,3.7-0.1,8.1,2.1,11.2c2.5,3.4,7.7,3.6,10.5,6.7c3.8,4,2.1,11.1,5.6,15.3
					c2.3,2.7,6.4,3.6,8.5,6.5c2.1,2.9,1.6,6.9,1.2,10.5c-0.4,3.6-0.5,7.7,2.1,10.2c0.8,0.8,1.9,1.3,2.7,2.2c2.4,2.4,2,6.3,1,9.6
					c-1,3.2-2.4,6.6-1.6,9.9c-2.4-0.5-4.5-2-5.9-3.9"/>
			</g>
			<g>
				<path class="st5" d="M92.3,175.9c-11.8-14.6-22.4-30.1-31.7-46.5c-2.6-4.6-5.1-9.3-7.5-14c-0.6-1.1-2.3-0.1-1.7,1
					c8.6,16.9,18.6,33,29.8,48.3c3.1,4.3,6.4,8.4,9.7,12.6C91.7,178.2,93.1,176.8,92.3,175.9L92.3,175.9z"/>
			</g>
			<g>
				<path class="st6" d="M91.6,178.9c-4.9-3.8-9.7-7.8-14.1-12.1c-4.3-4.1-8.5-8.5-11-13.9c-0.4-0.8-0.7-1.6-0.5-2.4
					c0.4-1.6,2.6-1.9,4.1-1.2c1.4,0.7,2.4,2.1,3.6,3.2c1.2,1.1,3.1,1.8,4.4,0.9c1.8-1.2,1.2-4,0.1-5.8c-2-3.6-4.9-6.6-7.1-10.1
					c-2.2-3.5-3.7-7.8-2.5-11.7c1.7-0.8,3.5,0.8,4.7,2.1c1.3,1.4,3.5,2.7,4.8,1.4c0.4-0.4,0.6-0.9,0.7-1.4c0.8-3.1-1.3-6.1-2.9-8.9
					c-1.8-3.2-3.2-6.7-4-10.3c-0.3-1.2-0.3-2.7,0.7-3.4c2.6-1.8,5.3,4.8,8,3.2c1.3-0.8,0.9-2.7,0.5-4.2c-1.8-6-2.5-12.3-1.9-18.5
					c0.2-2.4,1.3-5.3,3.7-5.3c1.5,0,2.6,1.3,3.3,2.6c3.5,5.9,2.8,13.2,3.2,20.1c0,0.9,0.2,1.9,0.9,2.4c1.2,0.7,2.6-0.5,3.2-1.7
					c0.6-1.3,1.1-2.8,2.4-3.3c2.1-0.8,3.8,2,3.9,4.2c0.4,6.4-4,12.2-4.4,18.6c0,0.6,0,1.2,0.2,1.7c0.9,1.7,3.6,0.6,4.8-0.9
					c1.2-1.5,2.4-3.6,4.3-3.5c1.4,0.1,2.5,1.4,2.8,2.8c0.3,1.4-0.1,2.8-0.5,4.2c-1.4,5.2-2.8,10.5-4.2,15.7
					c-0.6,2.2-0.5,5.4,1.7,5.7c2.2,0.3,3.3-3,5.5-3.6c1.6-0.4,3.2,0.9,3.7,2.4s0.3,3.2-0.1,4.8c-2.4,10.6-8.6,20.4-17.1,27.2"/>
			</g>
			<g>
				<path class="st7" d="M84.9,190.5c-5,0.2-10.1,0.2-15.1-0.2c-4.8-0.3-9.7-0.9-14.1-2.9c-0.6-0.3-1.3-0.6-1.5-1.2
					c-0.6-1.2,0.6-2.6,1.9-2.9c1.3-0.3,2.6,0.1,3.9,0.1c1.3,0,2.8-0.5,3.2-1.8c0.5-1.7-1.4-3.1-3-3.7c-3.1-1.2-6.5-1.5-9.7-2.6
					c-3.2-1-6.3-2.9-7.7-6c0.6-1.4,2.6-1.3,4.1-1.1c1.5,0.2,3.5-0.1,3.7-1.7c0.1-0.4-0.1-0.9-0.3-1.3c-1.1-2.3-4-3.1-6.5-4
					c-2.8-1-5.5-2.5-7.8-4.3c-0.8-0.6-1.6-1.5-1.4-2.5c0.7-2.5,5.8,0.2,6.6-2.2c0.4-1.2-0.8-2.2-1.9-2.9c-4.3-2.8-8-6.4-10.9-10.6
					c-1.1-1.6-2-4-0.5-5.2c0.9-0.7,2.3-0.5,3.4-0.2c5.3,1.8,8.7,6.7,12.5,10.8c0.5,0.5,1.1,1.1,1.8,1c1.1-0.1,1.4-1.7,1.1-2.8
					c-0.3-1.1-0.8-2.3-0.2-3.3c0.9-1.6,3.4-0.8,4.6,0.6c3.6,3.8,3.9,9.7,7,13.9c0.3,0.4,0.6,0.8,1.1,0.9c1.5,0.6,2.6-1.5,2.5-3.1
					c-0.1-1.6-0.4-3.5,0.8-4.4c0.9-0.7,2.3-0.4,3.2,0.3c0.9,0.7,1.4,1.8,1.9,2.9c1.9,4,3.7,8,5.6,12c0.8,1.7,2.5,3.6,4.1,2.6
					c1.5-1,0.5-3.6,1.5-5.1c0.8-1.1,2.4-1.1,3.6-0.5c1.1,0.7,1.8,1.9,2.4,3.1c4,7.9,5.3,17.2,3.6,25.9"/>
			</g>
		</g>
		<g>
			<g>
				<path class="st8" d="M126.3,111.8c2.3,11.2,9.5,35.1,9.5,36.4c0,5.1-16.4,36.2-21.1,53.4c-4.4,0.6-4.5,1.8-8.8,0.5
					c2.6-17.6,11.9-52.7,11.7-53.6c-0.1-0.8-9.9-26.2-12.3-38.7c6-0.6,14.7-0.1,20.7,0c0.1,1.1,0.2,2.1,0.3,3.2"/>
			</g>
			<g>
				<path class="st9" d="M92.8,105.3c0.1,2.4-1.1,10.4-1.2,17.8c-0.2,22.4,3.5,64.1,3.9,79.6c4.6,0.3,4.3,0.6,8.8,0
					c3.5-29.2,3.3-73.5,18-96.1c-4.7-0.1-22.5-1.1-27.2-1.3"/>
			</g>
			<g>
				<path class="st10" d="M91.6,65.5c0,0-0.1-2.1,0-3.5c0.1-1.3,2.5-1,3.4-2c1-1.2,0.5-3,0-4.5c-0.5-1.5-0.8-3.5,0.4-4.4
					c1.1-0.8,2.9-0.4,3.7-1.5c0.3-0.3,0.4-0.8,0.5-1.2c0.5-2.1,1.1-4.3,2.7-5.7c1.7-1.5,4.2-1.7,6.5-1.4c2.2,0.3,4.6,1.2,5.6,3.3
					c0.5,1,0.6,2.3,0.9,3.4c0.3,1.1,1,2.3,2.1,2.5c1.1,0.3,2.2-0.5,3.3-0.8c1.9-0.5,4.1,0.7,4.9,2.6c0.6,1.4,0.4,3,0.9,4.4
					c0.7,2.1,2.8,3.3,4.9,4c2.1,0.6,4.3,0.8,6.3,1.6c2,0.8,4,2.4,4.3,4.6c0.2,1.1-0.1,2.3,0.3,3.3c0.9,2.5,2.4,2.6,3.9,4.8
					c0.6,0.9-0.1,1.8,0,2.8c0,0.4-0.8,2.8-0.9,3.2c-0.2,0.9,0.1,9.7-0.7,10.1c-3.5,1.6-5.4,4.9-9.1,5.9
					c-12.6,3.6-24.8-11.6-37.9-11.4c-2,0-4,1.1-5.1-0.6C92.4,84.8,92,70.9,91.6,65.5"/>
			</g>
			<g>
				<path class="st11" d="M142.9,71.4c-0.4-2.3-0.8-4.7-1-7c-0.2-1.7-0.3-3.5,0.3-5.1c0.1-0.1,0.1-0.3,0.3-0.3
					c0.1,0,0.3,0.1,0.4,0.2c1.9,1.9,2.6,4.8,1.8,7.3c-0.2,0.7-0.6,1.4-0.8,2.1c-0.4,1-0.6,2-0.7,3c0,0.1,0,0.1-0.1,0.2
					c-0.1,0-0.1-0.1-0.1-0.1"/>
			</g>
			<g>
				<path class="st12" d="M134.9,83c0.5,3.5,1.4,7.9,2.1,11.4c3.2-7.9,5.3-28.4,5.9-31.5c3.4,0.4,4.5,2.7,7.9,3.1
					c0.3,0,2,41,1.1,41.4c-0.5,0.2-8.4,0-9,0c-7.2,0.3-11.7-0.7-18.8-1.7c-0.2,0-0.4-0.1-0.5-0.2c-0.1-0.1-0.2-0.3-0.2-0.5
					c-0.4-4.9-0.8-9.9-1-14.8c0-0.3,0-0.7,0.2-1c0.2-0.3,0.6-0.5,0.9-0.7c3.4-2,6.8-3.9,10.6-5.4c0.2-0.1,0.3-0.1,0.5,0
					c0.1,0.1,0.1,0.3-0.1,0.3"/>
			</g>
			<g>
				<path class="st13" d="M102.4,62.2c-3.3-0.2-8.6,1.9-10.8,3.5c-1,0.8-2,1.6-2.6,2.7c-0.8,1.3-0.9,2.8-1.1,4.3
					c-0.5,5.5-0.5,10.9,0,16.4c4.3,0.7,5.2,0.5,9.6,0.3c0,1.7-0.7,4.1-0.7,5.8c3.5,0.6,11.1,4,14.5,4.6c4,0.7,8.3-1.7,11.5,0.6
					c0.3-3.4-0.1-11.8-0.2-11.5c4.2-1.4,8.3-2.5,12.5-6c-2.1-5.2-3.9-10.8-8.2-14.6c-1.5-1.3-2.8-2.5-4.5-3.5
					c-2.4-1.4-5.9-2.2-8.7-2.7c-3.2-0.6-4.6-0.4-6.9-0.3c-2.9,0.1,0.8,0.4-2.1,0.5"/>
			</g>
			<g>
				<path class="st12" d="M103.7,61.9c0.3-2.1,1.1-4.3,1.2-6.7c2-0.1,2.8-0.1,4.8-0.5c-0.7,2.4-0.8,4.4-0.9,6.9
					c0.9,0,2.2,0.1,3.1,0.3c0.2,1.2-0.8,2.7-1.6,3.4c-0.9,0.9-1.7,0.6-3,0.7c-1.3,0.1-2.6,0.1-3.8-0.5c-1.2-0.5-2.1-2-2-3.3
					C102,62.1,103.2,62.1,103.7,61.9"/>
			</g>
			<g>
				<path class="st12" d="M105.6,57.5c-0.6-0.2-1.1-0.8-1.4-1.4c-0.2-0.6-0.3-1.3-0.3-2c-0.4,0.2-0.8,0.1-1.2-0.2
					c-0.3-0.3-0.5-0.7-0.6-1.1c-0.1-0.3-0.1-0.7,0.1-0.9c0.3-0.4,0.9-0.6,1.4-0.3c-0.1-1.3,0.4-2.7,1.3-3.7c0.9-1,2.2-1.7,3.5-1.8
					c0.6-0.1,1.3,0,1.9,0.4c0.6,0.4,1,1,1.2,1.7c0.2,0.7,0.2,1.4,0.3,2c0.1,2.2-0.3,4.8-1.5,6.7C109.1,59,106.8,58.1,105.6,57.5"/>
			</g>
			<g>
				<g>
					<path class="st14" d="M122.6,87c3.2-1.2,6.2-2.5,9.2-4c0.9-0.4,1.7-0.9,2.6-1.3c0.2-0.1,0-0.4-0.2-0.3c-2.9,1.6-6,3.1-9.1,4.3
						c-0.9,0.4-1.8,0.7-2.7,1C122.3,86.8,122.4,87,122.6,87L122.6,87z"/>
				</g>
			</g>
			<g>
				<g>
					<path class="st14" d="M122.3,86.3c3.1-1.1,6.2-2.5,9.1-4c0.8-0.4,1.7-0.9,2.5-1.4c0.2-0.1,0-0.4-0.2-0.3
						c-2.8,1.7-5.8,3.1-8.9,4.3c-0.9,0.4-1.8,0.7-2.6,1C122,86,122.1,86.3,122.3,86.3L122.3,86.3z"/>
				</g>
			</g>
			<g>
				<g>
					<path class="st14" d="M136.8,94.3c-0.2,2.2-0.6,4.4-1,6.6c0,0.2,0.3,0.3,0.3,0.1c0.4-2.2,0.8-4.4,1-6.7
						C137.1,94.1,136.8,94.1,136.8,94.3L136.8,94.3z"/>
				</g>
			</g>
			<g>
				<g>
					<path class="st14" d="M101.4,62.2c-0.1,1,0.3,1.9,1,2.6c0.7,0.7,1.6,1.2,2.6,1.3c1.1,0.2,2.3,0.1,3.4-0.1c1-0.2,2-0.5,2.6-1.3
						c0.6-0.8,0.9-1.8,0.9-2.8c0-0.2-0.3-0.2-0.3,0c-0.1,0.8-0.2,1.7-0.7,2.4c-0.5,0.8-1.3,1.2-2.3,1.4c-1.9,0.5-4.2,0.6-5.8-0.8
						c-0.8-0.7-1.3-1.7-1.2-2.7C101.8,62,101.5,62,101.4,62.2L101.4,62.2z"/>
				</g>
			</g>
			<g>
				<g>
					<path class="st14" d="M100.1,62.4c0,1.3,0.5,2.7,1.4,3.7c0.9,1,2.1,1.6,3.3,1.8c1.3,0.2,2.6,0,3.9-0.2c0.6-0.1,1.2-0.3,1.8-0.6
						c0.5-0.3,1-0.7,1.4-1.2c1-1,1.7-2.3,1.8-3.7c0-0.2-0.3-0.2-0.3,0c0,1.2-0.6,2.3-1.4,3.2c-0.8,0.9-1.8,1.6-2.9,1.9
						c-0.4,0.1-0.9,0.2-1.4,0.2c-0.7,0.1-1.4,0.1-2.1,0.1c-1.3-0.1-2.5-0.5-3.5-1.4c-1.1-1-1.7-2.4-1.6-3.9
						C100.4,62.2,100.1,62.2,100.1,62.4L100.1,62.4z"/>
				</g>
			</g>
			<g>
				<path class="st10" d="M103.5,51.1c0,0.2,0.1,0.3,0.3,0.4c0.2,0.1,0.3,0.1,0.5,0c0.5-0.1,0.9-0.5,1.4-0.7c0.9-0.5,2-0.5,3.1-0.5
					c1-0.1,2.2-0.3,2.9-1c0.1-0.2,0.3-0.3,0.3-0.5c0-0.1,0.1-0.3,0-0.5c-0.1-0.9-0.8-1.7-1.6-1.9c-0.6-0.2-1.3-0.5-1.9-0.4
					c-0.8,0.1-1.8,0.4-2.5,0.8c-0.7,0.4-1.3,0.9-1.7,1.5c-0.4,0.7-0.8,1.4-0.9,2.2c0,0.2,0.1,0.6,0,0.7"/>
			</g>
			<g>
				<g>
					<path class="st14" d="M139.3,104.3c0.3,0,0.6,0.2,0.8,0.3c0.4,0.2,0.8,0.4,1.2,0.7c0.6,0.4,1.3,0.8,1.8,1.3
						c0.2,0.1,0.4-0.1,0.2-0.2c-0.6-0.5-1.3-0.9-2-1.3c-0.4-0.2-0.8-0.5-1.2-0.7c-0.3-0.1-0.6-0.3-0.9-0.3
						C139.1,104,139.1,104.3,139.3,104.3L139.3,104.3z"/>
				</g>
			</g>
			<g>
				<g>
					<path class="st15" d="M142.7,34.1c-1.4-0.7-2.2-2.2-2.7-3.8c-0.3-1-0.5-2.1-0.2-3.1c0.5-1.9,2.4-3,3.3-4.8
						c1.1,1.4,2.2,3,2.8,4.7c0.5,1.8,0.4,3.9-0.8,5.3C144.4,33.3,143.5,33.7,142.7,34.1"/>
				</g>
				<g>
					<path class="st15" d="M141.2,52.7c-1.4,0.3-2.8,0.4-4.1,0c-1.3-0.4-2.6-1.3-3.2-2.6c-1-2-0.5-4.5-1.5-6.5
						c1.6,1,4.5,0.2,6.7,2.7c1.5,1.6,2.6,3.9,2.2,6.1c0,0.1-0.1,0.2-0.2,0.2"/>
				</g>
				<g>
					<path class="st15" d="M144.3,51.8c-0.2-2.2,1.4-4.7,3.2-5.7c2.1-1.2,4.8-0.8,6.6-2.4c-0.4,0.2-0.2,5-3.1,8.1
						c-0.6,0.7-1.4,1.3-2.2,1.7c-0.8,0.4-1.8,0.4-2.6,0.1C145.4,53.1,144.6,52.6,144.3,51.8c0-0.1,0-0.2,0-0.2"/>
				</g>
				<g>
					<path class="st15" d="M144.2,40.7c-0.6-2,0.3-4.9,1.8-6.4c1.7-1.7,4.7,0.9,6.1-1.1c-0.3,0.3,0.7,2-1.4,5.7
						c-0.5,0.8-1,1.6-1.7,2.2c-0.7,0.6-1.6,0.9-2.5,0.8C145.6,41.7,144.8,41.4,144.2,40.7c0-0.1-0.1-0.2,0-0.2"/>
				</g>
				<g>
					<polygon class="st16" points="142.1,59.5 142.5,25.7 143.6,59.5 					"/>
				</g>
				<g>
					<polygon class="st17" points="137,61.2 138.8,69.8 147.4,69.8 149.2,61 					"/>
				</g>
				<g>
					<polygon class="st18" points="149.8,61.9 136.3,61.9 136.4,59.1 149.5,59.1 					"/>
				</g>
				<g>
					<path class="st16" d="M142.7,53.8c-2.4-1.7-4.6-3.7-6.5-6c0,0,5.5,4.2,6.6,4.2C143.9,52.1,142.7,53.8,142.7,53.8z"/>
				</g>
				<g>
					<path class="st16" d="M143.1,52.6c0.9-0.5,6.6-4.6,8.6-6c0,0-0.1,0-0.1,0l-8.3,7.3L143.1,52.6z"/>
				</g>
				<g>
					<path class="st16" d="M142.7,41c0.9-0.5,4.4-3.1,6.4-4.4c0,0-1.5,1.7-1.5,1.7l-4.6,4.1L142.7,41z"/>
				</g>
				<g>
					<path class="st15" d="M141.8,40.5c0.1-1.8-1.2-3.9-2.7-4.8c-1.7-1-4-0.7-5.5-2c0.3,0.2,0.2,4.2,2.6,6.7
						c0.5,0.6,1.1,1.1,1.8,1.4c0.7,0.3,1.5,0.4,2.2,0.1C140.8,41.6,141.5,41.2,141.8,40.5c0-0.1,0-0.1,0-0.2"/>
				</g>
				<g>
					<path class="st16" d="M142.7,41.1c-0.7-0.4-5.5-3.9-7.2-5c0,0,0.1,0,0.1,0l6.9,6.1L142.7,41.1z"/>
				</g>
			</g>
			<g>
				<path class="st12" d="M151.8,57.4c-0.2-0.1-0.5-0.1-0.7-0.1c-1.8,0.2-3.6,0.9-5.3,1.7c-0.4,0.2-0.8,0.5-1.1,0.9
					c-0.3,0.4-0.4,0.9-0.2,1.3c0.3,0.6,1.2,0.6,1.9,0.5c1.1-0.1,2.2-0.3,3.3-0.4c1-0.2,2.1-0.5,2.7-1.3c0.5-0.7,0.4-1.8-0.2-2.5
					c-0.3-0.3-0.7-0.5-1-0.2"/>
			</g>
			<g>
				<path class="st12" d="M146.2,61.9c-0.9,0.1-1.7,0.6-2.3,1.4c-0.2,0.3-0.4,0.8-0.3,1.2c0.2,0.8,1.1,1.1,1.9,1.1
					c1.5,0.1,2.9-0.1,4.3-0.5c0.9-0.2,1.7-0.6,2.3-1.2c0.6-0.6,1-1.6,0.7-2.4c-0.3-0.8-1.5-1.3-2.2-0.7"/>
			</g>
			<g>
				<path class="st12" d="M145.3,65.5c-0.5,0.2-1,0.4-1.4,0.8c-0.4,0.4-0.6,1-0.4,1.5c0.3,0.8,1.3,0.9,2.2,0.9
					c1.3,0,2.5-0.2,3.8-0.4c0.9-0.2,1.8-0.4,2.4-1c0.7-0.6,1.1-1.5,0.9-2.3c-0.2-0.8-1.1-1.3-1.9-1.2"/>
			</g>
			<g>
				<g>
					<path class="st14" d="M146.2,62c1.9-0.2,3.8-0.7,5.6-1.3c0.2-0.1,0.1-0.4-0.1-0.3c-1.8,0.6-3.6,1.1-5.5,1.3
						C146,61.7,146,62,146.2,62L146.2,62z"/>
				</g>
			</g>
			<g>
				<g>
					<path class="st14" d="M145.2,65.7c1.3-0.1,2.5-0.3,3.8-0.5c1.1-0.2,2.2-0.4,3-1c0.2-0.1-0.1-0.3-0.2-0.2c-0.8,0.7-2,0.8-3,1
						c-1.2,0.2-2.4,0.4-3.6,0.5C145,65.4,145,65.7,145.2,65.7L145.2,65.7z"/>
				</g>
			</g>
			<g>
				<g>
					<path class="st14" d="M145.4,69c1-0.1,2-0.2,3-0.3c0.5-0.1,1-0.2,1.5-0.3c0.4-0.1,0.8-0.2,1.2-0.4c0.2-0.1,0-0.4-0.2-0.3
						c-0.3,0.2-0.8,0.3-1.2,0.4c-0.5,0.1-1,0.2-1.4,0.3c-1,0.2-1.9,0.3-2.9,0.3C145.2,68.7,145.2,69,145.4,69L145.4,69z"/>
				</g>
			</g>
			<g>
				<rect x="63.1" y="106.9" class="st19" width="123.9" height="4.8"/>
			</g>
			<g>
				<rect x="75.5" y="109.3" class="st19" width="5.3" height="96.8"/>
			</g>
			<g>
				<rect x="168.4" y="109.3" class="st19" width="4.7" height="96.8"/>
			</g>
			<g>
				<path class="st9" d="M100,94.9c0.5-4.6,0.3-9.4-0.5-14c5.9-0.8,11.8-1.4,17.8-1.8c1-0.1,2.1-0.1,2.9,0.5
					c0.9,0.6,1.2,1.8,1.4,2.8c1.1,5.6,1,11.6,0.8,17.4c0,0.3,0,0.6-0.2,0.9c-0.3,0.5-1,0.6-1.5,0.6c-6.5,0.1-13.1-0.4-19.1-2.9
					c-0.4-0.2-0.8-0.3-1.1-0.6C99.8,97,99.9,95.9,100,94.9"/>
			</g>
			<g>
				<path class="st20" d="M114.1,62.1c2.8,5,3,16.7,3.1,17c0.1,0.2,2.2,2.4,2.7,3.2c0.4-0.6,1.2-0.9,1.5-1.6
					c0.1-0.3,0.3-11.3-0.9-16.3c-0.1-0.3-0.2-0.6-0.4-0.8c-0.2-0.1-0.4-0.2-0.6-0.3c-1.6-0.7-3.4-1.3-5.1-1.1"/>
			</g>
			<g>
				<path class="st13" d="M107.9,186.6c3.5,0.7,7.6,1.5,11.1,2.2c0.2,0,0.7,0,0.8,0.1c0,0-0.3,0.4-0.3,0.6
					c-1.2,4.6-2.6,9.2-4.1,13.7c2.4,1.4,6.4,2.4,6.7,4.7c-1.2,0.3-2.5,0.1-3.8-0.1c-4.7-0.8-9.3-1.5-14-2.3c0.1-1.8,0.5-3.6,1-5.4
					C106.2,195.6,106.8,191,107.9,186.6"/>
			</g>
			<g>
				<g>
					<path class="st21" d="M108.6,207.5c0.2-0.3,0.7-0.3,1,0c0.1,0.1,0.2,0.3,0.3,0.4c0.1,0.1,0.3,0.2,0.4,0.2
						c0.2,0,0.2-0.2,0.4-0.3c0.2-0.2,0.7-0.2,0.9,0.1c0.1,0.2,0.1,0.4,0.3,0.5c0.3,0.1,0.6-0.3,0.9-0.4c0.3-0.1,0.6,0,0.7,0.3
						c0,0.1,0.1,0.2,0.1,0.2c0.2,0.2,0.5,0.1,0.7-0.1c0.2-0.1,0.5-0.3,0.7-0.2c0.2,0.1,0.2,0.5,0.4,0.6c0.4,0.2,0.7-0.5,1.2-0.4
						c0.4,0.1,0.5,0.7,0.9,0.7c0.4,0,0.6-0.6,1-0.5c0.1,0,0.2,0.1,0.2,0.2c0.2,0.2,0.4,0.5,0.7,0.3c0.3-0.1,0.3-0.5,0.6-0.6
						c0.2,0,0.3,0.1,0.5,0.2c0.3,0.2,0.5,0.4,0.8,0.5c0.3,0.1,0.7,0,0.9-0.2c0.2-0.3,0.2-0.6,0.1-0.9c0-0.1,0-0.2-0.1-0.2
						c0,0-0.1,0-0.2,0c-4.1-0.3-14.9-2.1-15.6-2.6c0.4,0.8,1.6,1.6,2.2,2.3"/>
				</g>
			</g>
			<g>
				<path class="st13" d="M93.7,186.6c3.7-0.1,8.6-0.2,12.3-0.3c-0.4,5.1-0.8,10.2-0.9,15.4c0,0.6,0,1.2,0.2,1.7
					c0.2,0.5,0.7,1,1.1,1.4c1,0.9,1.9,1.9,2.8,3c0.2,0.3,0.5,0.8,0.2,1.1c-0.2,0.2-0.4,0.2-0.7,0.2c-4.7-0.3-9.4-1.1-13.9-2.4
					C94.7,200,93.8,193.1,93.7,186.6"/>
			</g>
			<g>
				<g>
					<path class="st21" d="M95,206.6c-0.1,0.3-0.2,0.6-0.1,1c0.1,0.3,0.5,0.6,0.7,0.4c0.1-0.1,0.2-0.2,0.3-0.2
						c0.1,0,0.2,0.2,0.3,0.3c0.2,0.2,0.6,0.1,0.9,0.1c0.3,0,0.7,0.2,0.6,0.5c0.4-0.3,1-0.3,1.4,0.1c0.1,0.1,0.2,0.2,0.3,0.3
						c0.4,0.2,0.9-0.4,1.3-0.1c0.2,0.1,0.2,0.4,0.3,0.6c0.4,0.4,1.2-0.3,1.5,0.1c0.1,0.1,0.1,0.3,0.2,0.4c0.4,0.4,0.9-0.6,1.4-0.4
						c0.2,0.1,0.2,0.5,0.5,0.6c0.5,0.4,1.2-0.7,1.6-0.2c0.1,0.1,0.1,0.2,0.2,0.3c0.4,0.3,0.8-0.6,1.3-0.4c0.2,0.1,0.3,0.3,0.4,0.4
						c0.3,0.2,0.8,0,1-0.3c0.2-0.3,0.3-0.7,0.3-1.1c-4.8-0.3-9.6-1.1-14.3-2.3"/>
				</g>
			</g>
			<g>
				<g>
					<path class="st14" d="M119.7,76.4c-1.1-0.2-2.1,0.6-2,1.7c0.1,1.1,1.1,1.8,2.1,1.6c0.9-0.2,1.7-1.3,1.3-2.2
						c-0.3-0.6-1.2-1.1-1.9-1.1c-0.2,0-0.2,0.3,0,0.3c0.4,0,0.8,0.2,1.1,0.4c0.8,0.5,0.7,1.5,0,2c-0.7,0.6-1.9,0.4-2.2-0.5
						c-0.4-1,0.5-2,1.6-1.9C119.8,76.7,119.9,76.5,119.7,76.4L119.7,76.4z"/>
				</g>
			</g>
			<g>
				<g>
					<path class="st14" d="M119,78.2C119,78.1,119,78.1,119,78.2c0.1-0.2-0.2-0.3-0.3-0.1c0,0,0,0,0,0
						C118.6,78.3,118.9,78.3,119,78.2L119,78.2z"/>
				</g>
			</g>
			<g>
				<g>
					<path class="st14" d="M119.9,78.2C119.9,78.2,119.9,78.1,119.9,78.2c0.1-0.2-0.2-0.3-0.3-0.1c0,0,0,0,0,0
						C119.6,78.3,119.9,78.4,119.9,78.2L119.9,78.2z"/>
				</g>
			</g>
			<g>
				<g>
					<path class="st14" d="M101.3,95.2c0.1-0.4,0.2-0.8,0.2-1.2c0-0.2-0.3-0.2-0.3,0c0,0.4-0.1,0.7-0.2,1.1
						C101,95.3,101.3,95.4,101.3,95.2L101.3,95.2z"/>
				</g>
			</g>
			<g>
				<g>
					<path class="st14" d="M101.6,93.4c0-0.4,0-0.8,0-1.3c0-0.2-0.3-0.2-0.3,0c0,0.4,0,0.8,0,1.3C101.3,93.6,101.6,93.6,101.6,93.4
						L101.6,93.4z"/>
				</g>
			</g>
			<g>
				<g>
					<path class="st14" d="M101.6,91.3c0-0.5,0-0.9-0.1-1.4c0-0.2-0.3-0.2-0.3,0c0,0.5,0,0.9,0.1,1.4
						C101.3,91.5,101.6,91.5,101.6,91.3L101.6,91.3z"/>
				</g>
			</g>
			<g>
				<g>
					<path class="st14" d="M101.4,88.9c0-0.4,0-0.7-0.2-1.1c-0.1-0.2-0.3-0.1-0.3,0.1c0.1,0.3,0.2,0.6,0.1,1
						C101.1,89.1,101.4,89.1,101.4,88.9L101.4,88.9z"/>
				</g>
			</g>
			<g>
				<g>
					<path class="st14" d="M101.2,86.9c0-0.4-0.1-0.8-0.1-1.2c0-0.2-0.3-0.2-0.3,0c0,0.4,0.1,0.8,0.1,1.2
						C101,87.1,101.3,87.1,101.2,86.9L101.2,86.9z"/>
				</g>
			</g>
			<g>
				<g>
					<path class="st14" d="M101,84.6c0-0.3,0-0.7-0.1-1c-0.1-0.2-0.3-0.1-0.3,0.1c0.1,0.3,0.1,0.6,0.1,0.9
						C100.7,84.7,101,84.7,101,84.6L101,84.6z"/>
				</g>
			</g>
			<g>
				<g>
					<path class="st14" d="M100.9,82.7c0-0.2-0.1-0.4-0.1-0.6c-0.1-0.2-0.3-0.1-0.3,0.1c0.1,0.2,0.1,0.4,0.1,0.6
						C100.6,82.9,100.9,82.9,100.9,82.7L100.9,82.7z"/>
				</g>
			</g>
			<g>
				<g>
					<path class="st14" d="M103.7,81.7c0.3-0.1,0.6-0.2,0.9-0.2c0.2,0,0.2-0.3,0-0.3c-0.4,0-0.7,0.1-1,0.2
						C103.3,81.5,103.5,81.8,103.7,81.7L103.7,81.7z"/>
				</g>
			</g>
			<g>
				<g>
					<path class="st14" d="M105.2,81.5c0.3,0,0.7,0,1-0.1c0.2,0,0.1-0.3-0.1-0.3c-0.3,0.1-0.6,0.1-0.9,0.1
						C105.1,81.2,105.1,81.5,105.2,81.5L105.2,81.5z"/>
				</g>
			</g>
			<g>
				<g>
					<path class="st14" d="M107.1,81.2c0.4,0,0.8,0,1.3-0.2c0.2,0,0.1-0.3-0.1-0.3c-0.4,0.1-0.8,0.1-1.2,0.1
						C106.9,80.9,106.9,81.2,107.1,81.2L107.1,81.2z"/>
				</g>
			</g>
			<g>
				<g>
					<path class="st14" d="M109.3,81.1c0.3,0,0.6-0.1,0.8-0.1c0.2,0,0.2-0.3,0-0.3c-0.3,0-0.6,0-0.8,0.1
						C109.1,80.8,109.1,81.1,109.3,81.1L109.3,81.1z"/>
				</g>
			</g>
			<g>
				<g>
					<path class="st14" d="M111.4,81c0.4,0,0.7-0.1,1.1-0.1c0.2,0,0.2-0.3,0-0.3c-0.4,0-0.7,0.1-1.1,0.1
						C111.2,80.7,111.2,81,111.4,81L111.4,81z"/>
				</g>
			</g>
			<g>
				<g>
					<path class="st14" d="M113.5,80.7c0.4,0,0.8-0.1,1.2-0.1c0.2,0,0.2-0.3,0-0.3c-0.4,0-0.8,0.1-1.2,0.1
						C113.3,80.4,113.3,80.7,113.5,80.7L113.5,80.7z"/>
				</g>
			</g>
			<g>
				<g>
					<path class="st14" d="M115.9,80.6c0.3,0,0.6,0,0.9,0c0.2,0,0.2-0.3,0-0.3c-0.3,0-0.6,0-0.9,0C115.7,80.4,115.7,80.6,115.9,80.6
						L115.9,80.6z"/>
				</g>
			</g>
			<g>
				<g>
					<path class="st14" d="M117.5,80.6c0.2,0,0.5,0,0.7,0c0.2,0,0.1-0.3-0.1-0.3c-0.2,0-0.4,0.1-0.6,0
						C117.3,80.3,117.3,80.6,117.5,80.6L117.5,80.6z"/>
				</g>
			</g>
			<g>
				<g>
					<path class="st14" d="M120.2,81.9c0,0.3,0.1,0.7,0.2,1c0,0.2,0.3,0.1,0.3-0.1c-0.1-0.3-0.1-0.6-0.2-0.9
						C120.5,81.7,120.2,81.7,120.2,81.9L120.2,81.9z"/>
				</g>
			</g>
			<g>
				<g>
					<path class="st14" d="M120.5,83.8c0.1,0.3,0.2,0.7,0.3,1c0.1,0.2,0.3,0.1,0.3-0.1c-0.1-0.3-0.2-0.7-0.3-1
						C120.8,83.6,120.5,83.6,120.5,83.8L120.5,83.8z"/>
				</g>
			</g>
			<g>
				<g>
					<path class="st14" d="M120.8,85.6c0,0.3,0,0.7,0.1,1c0,0.2,0.3,0.2,0.3,0c0-0.3,0-0.7-0.1-1C121.1,85.4,120.8,85.4,120.8,85.6
						L120.8,85.6z"/>
				</g>
			</g>
			<g>
				<g>
					<path class="st14" d="M120.9,87.6c0.1,0.3,0.1,0.6,0.1,0.9c0,0.2,0.3,0.2,0.3,0c0-0.3,0-0.7-0.1-1
						C121.2,87.4,120.9,87.5,120.9,87.6L120.9,87.6z"/>
				</g>
			</g>
			<g>
				<g>
					<path class="st14" d="M121,89.9c0.1,0.3,0.1,0.7,0.2,1c0,0.2,0.3,0.1,0.3-0.1c-0.1-0.3-0.1-0.7-0.2-1
						C121.3,89.6,121,89.7,121,89.9L121,89.9z"/>
				</g>
			</g>
			<g>
				<g>
					<path class="st14" d="M121.2,91.9c0,0.4,0.1,0.7,0,1.1c0,0.2,0.3,0.2,0.3,0c0-0.4,0-0.8,0-1.1
						C121.5,91.7,121.2,91.7,121.2,91.9L121.2,91.9z"/>
				</g>
			</g>
			<g>
				<g>
					<path class="st14" d="M121.2,94.3c0,0.3,0,0.7-0.1,1c0,0.2,0.3,0.3,0.3,0.1c0.1-0.4,0.1-0.7,0.1-1.1
						C121.5,94.1,121.2,94.1,121.2,94.3L121.2,94.3z"/>
				</g>
			</g>
			<g>
				<g>
					<path class="st14" d="M121.1,96.5c0,0.3,0,0.6-0.1,0.9c0,0.2,0.3,0.2,0.3,0c0-0.3,0-0.6,0.1-0.9
						C121.4,96.3,121.1,96.3,121.1,96.5L121.1,96.5z"/>
				</g>
			</g>
			<g>
				<g>
					<path class="st14" d="M121,98.3c0,0.2,0,0.4-0.1,0.5c0,0.2,0.3,0.2,0.3,0c0-0.2,0-0.4,0.1-0.5C121.3,98.1,121,98.1,121,98.3
						L121,98.3z"/>
				</g>
			</g>
			<g>
				<g>
					<path class="st14" d="M121.3,81.3c0.8,4.5,1.2,9.1,1.2,13.7c0,1.3,0,2.6-0.1,3.9c0,0.2,0.3,0.2,0.3,0c0.2-4.6,0-9.3-0.6-13.9
						c-0.2-1.3-0.4-2.5-0.6-3.8C121.6,81.1,121.3,81.2,121.3,81.3L121.3,81.3z"/>
				</g>
			</g>
			<g>
				<polygon class="st18" points="134.5,104.9 127,104.9 125.8,93.2 136,93.2 				"/>
			</g>
			<g>
				<path class="st20" d="M99.3,80.9c-1.2-3.1-2.3-6.3-3.6-9.3c-1-2.3-2-4.6-3.7-6.5c1.4-0.9,3-1.7,4.6-2.2
					c2.2,4.9,4.4,9.8,6.2,14.8c0.3,0.7,0.5,1.5,0.6,2.2c0.2,1.3-0.1,2.7-0.7,3.8c-0.9-1-2-2-3.1-2.8"/>
			</g>
			<g>
				<g>
					<path class="st14" d="M101,77.5c-1,0.1-1.8,1.1-1.5,2.1c0.3,1,1.4,1.5,2.4,1.1c0.8-0.4,1.4-1.8,0.7-2.5
						c-0.5-0.5-1.4-0.7-2.1-0.5c-0.2,0.1-0.1,0.3,0.1,0.3c0.4-0.1,0.8-0.1,1.1,0.1c0.9,0.3,1.1,1.2,0.6,2c-0.6,0.9-1.9,0.8-2.4-0.1
						c-0.5-0.9,0.1-2,1.1-2.1C101.2,77.8,101.2,77.5,101,77.5L101,77.5z"/>
				</g>
			</g>
			<g>
				<g>
					<path class="st14" d="M100.7,79.4C100.7,79.4,100.7,79.3,100.7,79.4c0-0.2-0.3-0.2-0.3,0c0,0,0,0,0,0
						C100.5,79.6,100.7,79.6,100.7,79.4L100.7,79.4z"/>
				</g>
			</g>
			<g>
				<g>
					<path class="st14" d="M101.7,79.1C101.7,79.1,101.7,79.1,101.7,79.1c0-0.2-0.3-0.2-0.3,0c0,0,0,0,0,0
						C101.4,79.3,101.7,79.3,101.7,79.1L101.7,79.1z"/>
				</g>
			</g>
			<g>
				<path class="st12" d="M84.7,87.8c-0.1,3.2-0.2,6.3-0.2,9.5c0,1.7-0.1,3.3,0.1,4.9c0.1,1,0.4,2,1,2.7c1.3,1.5,3.6,1.7,5.7,1.8
					c6.8,0.2,13.5,0.3,20.3,0.4c8.9,0.1,24.5,0.1,33.5,0.2c0.3-1.2-2.2-4.7-6.1-5.2c-5.9-0.8-34.1-6.3-41.2-7.2
					c0-2.9-0.1-4.1-0.1-7.1"/>
			</g>
			<g>
				<path class="st13" d="M88.3,69.8c-2,4.6-3.8,15-4,19.2c5.3,0.3,9.8,0.5,15.1,0.4c0.3,0-0.2-7.9-0.2-11.1"/>
			</g>
			<g>
				<g>
					<path class="st14" d="M84.6,87.3c1.8,0.1,3.6,0.1,5.3,0.2c1.7,0,3.3,0.1,5,0.1c0.2,0,0.4,0,0.6,0c0.8,0,1.5-0.1,2.3,0
						c0.2,0,0.2-0.3,0-0.3c-0.8-0.1-1.5,0-2.3,0c-0.1,0-0.3,0-0.4,0c-0.6,0-1.3,0-1.9,0c-1.9,0-3.9-0.1-5.8-0.2
						c-0.9,0-1.8-0.1-2.7-0.1C84.4,87,84.4,87.3,84.6,87.3L84.6,87.3z"/>
				</g>
			</g>
			<g>
				<g>
					<path class="st14" d="M97.7,86.4c-3.4,0-6.8,0-10.3-0.1c-1,0-1.9-0.1-2.9-0.1c-0.2,0-0.2,0.3,0,0.3c3.4,0.1,6.8,0.2,10.3,0.2
						c1,0,1.9,0,2.9,0C97.9,86.7,97.9,86.4,97.7,86.4L97.7,86.4z"/>
				</g>
			</g>
			<g>
				<g>
					<path class="st14" d="M95.5,94.3c5.5,1.1,11,2,16.6,3.1c7.5,1.4,14.9,3.1,22.5,4c4,0.5,8.7,1.7,10.5,5.8
						c0.1,0.2,0.4,0.1,0.3-0.1c-1.1-2.6-3.5-4.3-6.1-5.1c-3.7-1.2-7.8-1.2-11.7-1.9c-7.7-1.5-15.4-3.1-23.1-4.5
						c-2.9-0.5-5.9-1-8.8-1.6C95.4,94,95.3,94.3,95.5,94.3L95.5,94.3z"/>
				</g>
			</g>
			<g>
				<g>
					<path class="st14" d="M138.9,103.7c1.8,0.4,3.3,1.6,3.9,3.4c0.1,0.2,0.4,0.1,0.3-0.1c-0.7-1.8-2.2-3.1-4.1-3.6
						C138.8,103.4,138.7,103.7,138.9,103.7L138.9,103.7z"/>
				</g>
			</g>
			<g>
				<g>
					<path class="st14" d="M139.1,105.4c0.8,0.4,1.5,1.1,2.1,1.8c0.1,0.2,0.4,0,0.3-0.1c-0.6-0.8-1.3-1.5-2.2-1.9
						C139,105.1,138.9,105.3,139.1,105.4L139.1,105.4z"/>
				</g>
			</g>
			<g>
				<g>
					<path class="st14" d="M97.6,85.9c0,2.9,0,5.7,0,8.6c0,0.2,0.3,0.2,0.3,0c0-2.9,0-5.7,0-8.6C97.9,85.7,97.6,85.7,97.6,85.9
						L97.6,85.9z"/>
				</g>
			</g>
			<g>
				<path class="st22" d="M129.8,93.1c-0.4-1.5-1.2-2.9-2.5-3.9c-1.1-0.9-2.8-1.4-4-0.7c-1.2,0.7-1.6,2.3-1.5,3.7
					c0,0.7,0.2,1.5,0.8,1.8c0.2,0.1,0.4,0.1,0.6,0.1c0.4-0.1,0.5-0.5,0.6-0.8c0.1-0.6,0.1-1.1,0.1-1.7c0.1-0.6,0.2-1.2,0.7-1.5
					c0.8-0.6,1.9-0.3,2.8,0.2c0.9,0.7,1.7,1.6,2,2.7"/>
			</g>
			<g>
				<path class="st22" d="M130.3,93c0.2-2.3-0.1-4.9-1.6-6.7c-1.7-2.1-4.8-2.8-7.2-1.8c-0.3,0.1-0.7,0.3-0.9,0.6
					c-0.3,0.4-0.5,0.9-0.6,1.4c-0.1,0.4-0.2,0.9-0.3,1.3c0,0.2-0.1,0.5,0,0.7c0.3,0.6,1.1,0.5,1.6,0.2c1.3-0.6,2.3-1.9,3.8-2.1
					c1.5-0.3,3.1,0.7,4,2c0.9,1.3,0.9,2.8,0.8,4.4"/>
			</g>
			<g>
				<path class="st22" d="M130.9,93.1c-0.1-1.8,0-3.6,0.1-5.4c0.1-1.6,0.3-3.2,1.3-4.5c0.8-1,2-1.7,3.2-1.8c1.3,0,2.6,0.6,3.3,1.6
					c0.3,0.4,0.5,1,0.3,1.5c-0.2,0.5-0.8,0.8-1.4,0.9c-0.6,0.1-1.1,0-1.7,0.1c-1.6,0.2-2.9,1.5-3.6,2.9c-0.6,1.5-0.7,3.2-0.7,4.8"/>
			</g>
			<g>
				<path class="st22" d="M131.8,93.2c0.2-1.2,0.8-2.4,1.7-3.3c0.9-0.9,2.1-1.4,3.4-1.4c0.6,0,1.2,0,1.6,0.4
					c0.4,0.4,0.5,1.1,0.1,1.5c-0.2,0.1-0.4,0.2-0.7,0.2c-0.6,0.1-1.3,0-1.9,0.1c-1.3,0.3-2.4,1.3-2.7,2.7"/>
			</g>
			<g>
				<rect x="125.2" y="92.7" class="st17" width="11.3" height="1.9"/>
			</g>
			<g>
				<g>
					<polygon class="st23" points="177.7,106.9 166.7,106.9 165.1,95.9 179.3,95.9 					"/>
				</g>
				<g>
					<g>
						<path class="st24" d="M172.8,95.9c-0.3-3.1,0.7-6.2,2.9-8.4c2.1-2.2,5.8-3.4,8.2-1c0.3,0.3,0.9-0.2,0.5-0.5
							c-2.4-2.4-6-1.8-8.5,0.2c-2.8,2.3-4.2,6.1-3.9,9.7C172.2,96.4,172.9,96.4,172.8,95.9L172.8,95.9z"/>
					</g>
				</g>
				<g>
					<path class="st22" d="M183.8,86.4c-1-0.9-2.7-0.4-3.6,0.7c-0.7,0.8-1.1,1.9-0.7,2.9c0.3,0.8,1.2,1.3,2,1.6
						c0.8,0.2,1.7,0.2,2.6,0.4c3.2,0.5,6,3.1,6.8,6.3c-0.7-1.4-0.8-3-0.6-4.6c0.2-1.5,0.5-3.1,0.6-4.6c0.1-1.5,0-3.2-0.8-4.5
						c-0.8-1.3-2.3-2.3-3.9-2.1c-1.5,0.2-2.8,1.9-2.3,3.4"/>
				</g>
				<g>
					<g>
						<path class="st24" d="M171.3,96.1c-1.2-6.1-1.4-14.5,5.4-17.5c0.4-0.2,0.1-0.8-0.4-0.6c-7.1,3.1-7,11.9-5.8,18.3
							C170.7,96.8,171.4,96.6,171.3,96.1L171.3,96.1z"/>
					</g>
				</g>
				<g>
					<path class="st22" d="M177.1,78.5c-1,0.2-2.1,0.2-3.2,0c-0.6-0.2-1.3-0.4-1.8-0.8c-1.6-1.3-1.5-4.1-0.1-5.6
						c1.4-1.6,3.7-2.1,5.8-1.9c2.1,0.1,4.1,0.9,6.1,1.4c2,0.6,4.2,1,6.2,0.5c-1.5,1.6-2.2,3.9-3.3,5.8c-0.9,1.6-2.1,3-3.5,4.1
						c-1.2,0.9-2.6,1.7-4.1,1.7c-1.5,0-3.1-1.1-3.2-2.6c-0.1-0.8,0.2-1.6,0.6-2.4"/>
				</g>
				<g>
					<g>
						<path class="st24" d="M171.1,95.5c-0.7-2.2-1.7-4.3-3.6-5.6c-1.7-1.2-3.8-1.6-5.8-1.2c-4.2,0.8-6.7,5.1-5.9,9.2
							c0.1,0.5,0.8,0.3,0.7-0.2c-0.8-3.7,1.6-7.6,5.3-8.3c1.7-0.3,3.6,0.1,5.1,1c1.8,1.2,2.8,3.3,3.4,5.3
							C170.5,96.2,171.2,96,171.1,95.5L171.1,95.5z"/>
					</g>
				</g>
				<g>
					<path class="st22" d="M155.9,97.6c-0.4-1.3-1.9-2.1-3.3-1.8c-1.3,0.3-2.4,1.6-2.5,3c-0.2,1.4,0.4,2.8,1.4,3.7
						c1.6,1.6,4.1,2.1,5.7,3.8c0-2.5,3-4,3.4-6.5c0.2-1.1-0.2-2.3-1-3.1c-0.8-0.8-2-1.1-3.1-0.9c-0.1,0-0.3,0.1-0.3,0.2
						c-0.1,0.1-0.3,1.5,0.1,0.3"/>
				</g>
				<g>
					<g>
						<path class="st24" d="M170.6,95.6c-0.5-3.9-1.2-8-3.7-11.2c-1.1-1.4-2.5-2.6-4.2-3.3c-0.7-0.3-1.5-0.5-2.3-0.7
							c-0.4-0.1-0.8-0.1-1.2-0.1c-0.3,0-1.1,0.2-1.4,0.1c0.1,0.1,0.1,0.3,0.2,0.4c0,0,0,0-0.1,0.1c-0.1,0-0.3,0-0.4-0.1
							c0,0,0,0,0.1,0.1c0.3,0.3,0.9-0.2,0.5-0.5c0,0,0,0-0.1-0.1c-0.1-0.1-0.3-0.1-0.4-0.1c-0.2,0.1-0.3,0.2-0.3,0.4
							c0,0.2,0,0.3,0.2,0.4c0.5,0.3,1,0,1.6,0c0.9,0,1.8,0.1,2.6,0.4c1.7,0.6,3.2,1.7,4.4,3c2.6,3,3.3,7.2,3.8,11.1
							C169.9,96.1,170.6,96.1,170.6,95.6L170.6,95.6z"/>
					</g>
				</g>
				<g>
					<path class="st22" d="M157.7,81.1c1.1-0.1,2.3-0.2,3.2-0.8c1-0.6,1.7-1.7,1.4-2.8c-0.1-0.5-0.5-0.9-0.9-1.3
						c-1.6-1.6-3.9-2.3-6.2-2.1c-2.2,0.3-4.3,1.6-5.5,3.5c-0.8,1.3-1.2,2.9-2.1,4.3c-0.8,1.4-2.3,2.5-3.8,2.3c2,2,4.2,4,6.9,4.9
						c3.3,1.1,7.2,0.2,9.8-2.2c0.4-0.4,0.8-0.9,1-1.4c0.3-1-0.2-2.1-0.9-2.8c-0.7-0.7-1.7-1.1-2.7-1.6"/>
				</g>
				<g>
					<rect x="163.9" y="94.8" class="st23" width="15.9" height="3.3"/>
				</g>
			</g>
		</g>
	</g>
</g>
</svg>
