<?xml version="1.0" encoding="utf-8"?>
<!-- Generator: $$$/GeneralStr/196=Adobe Illustrator 27.6.0, SVG Export Plug-In . SVG Version: 6.00 Build 0)  -->
<svg version="1.1" id="圖層_1" xmlns="http://www.w3.org/2000/svg" xmlns:xlink="http://www.w3.org/1999/xlink" x="0px" y="0px"
	 viewBox="0 0 240 240" style="enable-background:new 0 0 240 240;" xml:space="preserve">
<style type="text/css">
	.st0{fill:#FFFFFF;}
	.st1{fill:#36754A;}
	.st2{fill:#1E272E;}
	.st3{fill:#102920;}
	.st4{fill:#56AB6E;}
	.st5{fill:#F28E61;}
	.st6{fill:#FCEAE1;}
	.st7{fill:#F9BE33;}
	.st8{fill:#236EA2;}
	.st9{fill:#9FC6FF;}
	.st10{fill:#FB9F9F;}
</style>
<g>
	<path class="st0" d="M217.2,135.7c-1-3.2-3.5-5.6-7-6.6c-1.2-0.3-2.4-0.5-3.7-0.6c0.2-0.1,0.4-0.3,0.6-0.4c1.2-0.9,2.4-1.9,3.7-3
		c1.6-1.4,2-2.9,2.1-3.9c0.2-2.2-1-4.1-3-4.9c1.3-1.3,2.4-2.9,2.9-4.3c1-2.8,0.5-5.5-1.4-7.3c-1.8-1.8-3.7-2.1-4.9-2.1
		c-2.6,0-5.1,1.6-6.8,4.3c-0.8,1.3-1.5,3.1-1.8,4.9c0,0,0,0,0,0c-0.2-1.2-0.5-2.2-1-3.1c-0.3-0.5-1.1-2.2-2.9-3.2
		c-0.7-0.4-1.6-0.6-2.4-0.6c-1.8,0-3.5,1-4.3,2.7c-0.1,0.2-0.2,0.3-0.2,0.5c-1.7-1.8-4.1-2.7-6.8-2.7c-0.4,0-0.9,0-1.4,0.1
		c-2.9,0.3-5.4,1.6-7,2.6c-2.2,1.3-4.3,2.8-6.2,4.6c-2.9,2.7-5.6,5.9-7.9,9.6c-0.2-0.7-0.4-1.5-0.7-2.2c-0.8-2.5-1.7-5.1-3.7-7.3
		c-0.9-1-1.9-1.8-3-2.5c0.2-0.6,0.4-1.2,0.5-1.8l0.3-0.9c0.7-2.5,1.5-5.1,1.9-7.8c0.6-3.8,0.3-6.9-0.9-9.6c-1.4-3.2-4-5.7-7.3-7
		c-1.4-0.6-2.8-0.8-4.2-0.8c-0.4,0-0.9,0-1.3,0.1c1.2-0.9,2.3-1.7,3.3-2.4c2.7-1.8,5.6-3.2,8.7-4.3c1.3-0.5,2.7-0.8,4.1-1.2
		c2-0.5,4.1-1.1,6.2-2c1.9-0.8,3.7-1.8,5.2-3.1c1.4-1.1,2.8-2.5,4.4-4.3c1.2-1.4,2.4-2.9,3.5-4.3l0.2-0.2l0.3-0.4
		c1.1-1.4,2.2-2.8,3.3-4.2c2.8-3.7,5-6.5,7-9.2c1.2-1.7,2.5-3.4,3.7-5.1c0.7-1,0.9-2.3,0.6-3.5c-1.5-5-6.2-12.5-14.7-18.1
		c-2.8-1.9-6-3.4-9.3-4.5c-0.4-0.1-0.8-0.2-1.2-0.2c-1.1,0-2.2,0.5-2.9,1.3c-1,1-1.9,2.1-2.9,3.1c-1.2,1.4-2.5,2.8-4,4.4l-11.6-2
		c-1-0.2-1.9-0.3-2.9-0.5c-5-0.9-10.2-1.8-15.4-2c-0.7,0-1.4,0-2.1,0c-6.1,0-11.6,1.2-16.2,3.6c-5.4,2.9-10.1,7.4-13.6,13.1
		c-1.8,3-3,5.7-3.7,8.4c-0.6,2.4-0.8,4.8-0.4,6.9c-0.3,2.1-0.3,4.3,0.1,6.3c0.5,2.7,1.7,5.1,3.3,6.8c-1,0.9-1.9,2-2.9,3.5
		c-0.9,1.5-1.7,3.1-2.3,4.9c-1.2,3.8-1.5,7.6-1.7,10.9l0,0.3c-0.1,3.3-0.3,6.7-0.6,10.1c-0.2,2-0.4,4-0.6,5.9
		c-0.2,1.7-0.8,3.4-1.5,5.2c-0.2,0.4-0.4,0.8-0.5,1.2c-0.4,1-0.7,2-1,3.1c-0.9,3.2-1.5,6.4-1.6,9.3c-0.1,1.3-0.1,2.7,0,4.1
		c-0.1,0.1-0.1,0.3-0.2,0.4c-0.8-1.4-1.7-2.7-2.6-3.8c-1.3-1.5-2.9-3.1-5.2-3.7c0.5-2.2,0.9-4.5,0.8-7c0-1-0.2-1.9-0.3-2.7
		c-0.2-1-0.5-2-1-2.8c-1.6-3.1-3.7-3.7-5.1-3.7c0,0,0,0,0,0c-1.2,0-2.4,0.4-3.3,1.3c-1.1-3-4.2-5.9-7.6-5.9c-2.3,0-5,1.4-6,5.2
		c-0.7,2.6-0.1,5.7,1.6,7.8c0.8,1,1.7,1.7,2.8,2.2c-0.6,0.3-1.1,0.7-1.6,1.3c-2.1-1.6-5-3-8.1-3c-1.1,0-2.1,0.2-3.1,0.5
		c-3.9,1.3-6.3,5-6.9,10.9c-0.5,4.8,0,9.8,1.6,15c-1.3-0.6-2.7-1-4.2-1.1c-0.2,0-0.3,0-0.5,0c-3,0-5.6,1.4-7.1,3.6
		c-1.9,2.9-1.5,6.3-1.2,8.2c1,7.7,3.7,15.3,8,22.6c4,6.8,9.4,13.1,16,18.8c3.1,2.6,6.4,5.2,10,7.6c1.8,1.2,3.5,2.3,5.3,3.3
		c0,0,0,0,0,0c0.3,2.1,1.1,3.9,2.6,5.2c1.3,1.2,2.7,1.9,3.9,2.5l0.5,0.3l0.5,0.3l0.2,0.1c2.4,1.5,4.9,3,8.1,4.6
		c2.2,1.1,4.5,2.3,6.7,3.3c0.2,0.1,0.4,0.2,0.6,0.3l0.5,0.2l0.5,0.2l8.8,4.3c0.5,0.2,1,0.5,1.5,0.7c1,0.5,1.9,0.9,2.9,1.4
		c1.9,1.1,4.3,1.9,5.5,2.2c0.3,0.1,0.6,0.2,0.9,0.2c1.4,0.3,2.5,0.5,3.4,0.5c0.2,0,0.5,0,0.7,0c4.6-0.5,7.3-1,11.7-2.2
		c3.9-1.1,7.9-2.4,12.7-4.2c3.7-1.4,7.3-2.8,10.9-4.3l1.6-0.6l4.5-1.8l8.4-3.3l5-2l1.4-0.6l0.3-0.1c1.9-0.8,3.9-1.6,5.8-2.4
		c1.9-0.4,3.6-1.5,4.8-3.2c0.7-1,1.2-2.1,1.6-3.4c1.7-1.2,3.3-2.3,4.8-3.5c7.3-5.8,14.2-13.2,20.5-22c3-4.3,5.7-8.5,8-12.6
		c2.8-5.1,4.5-9.4,5.5-13.7C217.7,141.7,218.1,138.7,217.2,135.7z M129,88.9c0-0.1,0-0.2,0-0.4c0.2-0.1,0.3-0.1,0.5-0.2
		C129.3,88.6,129.2,88.7,129,88.9z"/>
	<g>
		<g>
			<path class="st1" d="M90.7,149.8c0.2-2.9,0-5.8-0.8-8.5c-0.4-1.3-0.8-2.7-1.7-3.7c-0.7-0.9-1.9-1.4-2.9-0.8
				c-1.1,0.6-1.7,1.9-2.2,2.9c-0.6,1.3-1.1,2.6-1.5,4c-0.2,0.7-0.3,1.5-0.5,2.2c-0.4-5.4-1.2-10.7-3-15.8c-0.9-2.7-2.2-5.4-4.1-7.5
				c-0.9-1-1.9-2.1-3.3-2.5c-1.2-0.3-2.5,0.1-3.5,0.9c-2.2,1.7-3.5,4.6-4.2,7.2c-0.4,1.6-0.6,3.3-0.7,5c-1.4-2.8-2.9-5.7-4.6-8.4
				c-1.9-3.1-4.1-6.2-6.8-8.7c-2.3-2-5.6-4-8.7-2.9c-3.1,1-3.9,4.7-4.2,7.5c-0.8,7.2,1.3,14.4,4.5,20.8c0.9,1.8,1.9,3.5,3,5.2
				c-1.3-1.1-2.6-2.1-3.9-3.1c-1.5-1.1-3.1-2.2-4.7-3.2c-1.7-1-3.6-2.2-5.7-2.3c-1.6-0.1-3.2,0.5-4.1,1.8c-1,1.6-0.8,3.7-0.6,5.4
				c1,7.5,3.7,14.6,7.5,21.1c4,6.7,9.3,12.7,15.2,17.8c3.1,2.6,6.3,5,9.6,7.3c1.7,1.1,3.4,2.2,5.1,3.2c1.8,1.1,3.7,2.1,5.7,2.7
				c1,0.3,2.1,0.5,3.1,0.6c0.2,0,0.2-0.1,0.2-0.2c0.1,0,0.2,0.1,0.3,0.1c1.2,0.2,2.3-0.6,2.9-1.6c0.4-0.6,0.6-1.3,0.8-2
				c0.3-0.8,0.5-1.6,0.8-2.3c0.5-1.6,1.1-3.1,1.6-4.7c2.2-6.3,4.3-12.5,6.5-18.8C88,162.4,90.3,156.2,90.7,149.8z"/>
			<g>
				<path class="st2" d="M80.9,145.5c0.1,2.2,0.2,4.4,0.2,6.6c0,2.2-0.1,4.4-0.2,6.6c-0.1,2.2-0.3,4.4-0.5,6.6
					c-0.2,2.2-0.5,4.4-0.8,6.6c-0.3,2.2-0.7,4.4-1.2,6.5c-0.1,0.3-0.1,0.5-0.2,0.8c0,0.2,0.3,0.3,0.4,0.1c0.5-2.2,0.9-4.3,1.2-6.5
					c0.3-2.2,0.6-4.4,0.9-6.6c0.2-2.2,0.4-4.4,0.5-6.6c0.1-2.2,0.2-4.4,0.2-6.6c0-2.2,0-4.4-0.1-6.6c0-0.3,0-0.6,0-0.8
					C81.2,145.2,80.9,145.2,80.9,145.5L80.9,145.5z"/>
			</g>
			<g>
				<path class="st2" d="M45.3,146.9c2.8,3,5.6,6.1,8.2,9.3c2.6,3.2,5.1,6.5,7.5,9.8c2.4,3.4,4.6,6.8,6.8,10.4
					c2.1,3.5,4.1,7.1,6,10.8c1.9,3.7,3.6,7.4,5.2,11.2c0.2,0.5,0.4,0.9,0.6,1.4c0.1,0.2,0.4,0.1,0.4-0.1c-1.5-3.8-3.2-7.6-5.1-11.3
					c-1.8-3.7-3.8-7.4-5.9-10.9c-2.1-3.6-4.3-7.1-6.7-10.5c-2.3-3.4-4.8-6.7-7.4-9.9c-2.6-3.2-5.3-6.4-8.1-9.4
					c-0.3-0.4-0.7-0.7-1-1.1C45.4,146.5,45.1,146.7,45.3,146.9L45.3,146.9z"/>
			</g>
			<g>
				<path class="st2" d="M62.1,133.1c0.4,2.7,0.8,5.4,1.4,8c0.6,2.7,1.4,5.3,2.2,8c0.9,2.6,1.9,5.2,3,7.8c1.1,2.5,2.3,5,3.7,7.4
					c1.3,2.4,2.8,4.7,4.4,6.9c0.2,0.3,0.4,0.5,0.6,0.8c0.1,0.2,0.5,0,0.3-0.2c-1.6-2.2-3.1-4.5-4.4-6.8c-1.4-2.4-2.6-4.8-3.8-7.3
					c-1.1-2.5-2.2-5.1-3.1-7.7c-0.9-2.6-1.7-5.3-2.3-7.9c-0.6-2.6-1.2-5.3-1.5-8c0-0.3-0.1-0.7-0.1-1
					C62.4,132.9,62.1,132.9,62.1,133.1L62.1,133.1z"/>
			</g>
		</g>
		<g>
			<path class="st3" d="M68.4,107.3c-0.1-0.6-0.3-1.3-0.6-1.8c-2.1-4.1-3.6,1-4,2.8c-0.4,2.3-0.6,4.6-0.8,7c-0.1,2.7,0,5.3,0.4,8
				c-0.5-1.4-1.1-2.8-1.8-4.1c-0.5-1-1.1-1.9-1.8-2.7c-0.7-0.8-1.5-1.6-2.5-2c-0.7-0.3-2-0.7-2.4,0.3c-0.2,0.5-0.2,1.1-0.1,1.6
				c0.1,0.5,0.2,1,0.3,1.5c0.3,1,0.9,2,1.5,2.9c0.6,0.9,1.2,1.8,1.9,2.5c1.4,1.5,3.1,2.8,5.1,3.2c1.3,0.3,1.8-1.6,2.1-2.6
				c0.7-2.8,1.5-5.6,2.1-8.4c0.4-2,0.9-4,0.8-6.1C68.6,108.7,68.6,108,68.4,107.3z"/>
			<path class="st3" d="M75,142.7c0-0.5,0.1-1.1-0.1-1.7c-0.7-2.1-2.7,1.6-2.9,2.2c-0.4,1.1-0.7,2.3-0.9,3.5
				c-0.2,1.2-0.4,2.4-0.6,3.6c-0.1,0.6-0.1,1.1-0.1,1.7c-0.1-0.5-0.3-1-0.5-1.4c-0.4-1.1-0.9-2.1-1.7-3c-0.7-0.8-1.5-1.5-2.5-2
				c-0.9-0.4-2-0.7-3-0.5c-0.5,0.1-1.1,0.2-1.5,0.5c-0.2,0.1-0.4,0.3-0.5,0.6c-0.1,0.3-0.1,0.6-0.1,0.9c0.2,2.3,1.6,4.2,3.4,5.6
				c1,0.8,2.1,1.4,3.2,2c1.8,0.9,3.8,2.2,4.7-0.4C73.3,150.1,74.3,146.9,75,142.7z"/>
			<g>
				<path class="st2" d="M55.5,102.5c1.8,4.1,3.3,8.4,4.8,12.6c1.7,5,3.3,10.1,4.7,15.2c1.5,5.4,2.9,10.8,4.2,16.2
					c1.2,5.2,2.3,10.5,3.2,15.8c0.7,4.6,1.3,9.2,1.6,13.9c0,0.5,0,1,0.1,1.5c0,0.2,0.4,0.2,0.4,0c-0.1-4.5-0.7-9-1.3-13.5
					c-0.8-5.3-1.8-10.5-3-15.8c-1.2-5.5-2.6-11-4.1-16.4c-1.5-5.2-3-10.4-4.7-15.5c-1.5-4.4-3-8.7-4.8-12.9
					c-0.2-0.4-0.4-0.9-0.6-1.3C55.7,102.1,55.4,102.3,55.5,102.5L55.5,102.5z"/>
			</g>
			<path class="st4" d="M59.3,103c-0.6-2.6-5-5.9-6.1-1.4c-0.6,2.4,0.7,5.9,3.8,5.7C59,107.1,59.6,104.7,59.3,103z"/>
		</g>
		<g>
			<path class="st1" d="M209.1,132.9c-2.1-0.6-4.3-0.5-6.4-0.2c-2.3,0.3-4.6,1-6.8,1.8c-7.6,3.1-13.5,8.7-18.7,14.9
				c0.6-1.2,1.1-2.5,1.6-3.7c1.8-4.4,3.4-9,4.6-13.6c1.3-4.7,2.4-9.6,2.4-14.5c0-2.3,0-5.1-1.7-6.9c-1.2-1.3-3.1-1.6-4.8-1.4
				c-2,0.2-3.8,1.1-5.5,2c-2,1.1-3.8,2.5-5.5,4.1c-3.4,3.1-6.2,6.9-8.5,10.9c-1.3,2.4-2.5,4.8-3.4,7.4c0-0.1,0-0.2-0.1-0.4
				c-0.7-4.2-1.8-8.3-3.1-12.3c-0.7-2.1-1.4-4.2-2.9-5.9c-1.1-1.3-2.7-2.3-4.4-2.4c-2-0.2-3.9,0.9-5.3,2.3c-1.3,1.3-2.3,2.9-2.9,4.5
				c-0.7,1.7-1.2,3.6-1.5,5.4c-0.4,2.1-0.6,4.2-0.7,6.3c-0.2,4.3,0,8.6,0.6,12.8c0.6,4.4,1.4,8.8,2.6,13.1c0.8,3,1.9,6,3.3,8.8
				c0.1,1.1,0.2,2.1,0.3,3.2c0.4,3.1,0.9,6.1,1.7,9.1c0.7,3,1.6,6,2.6,8.9c1,2.9,2.2,5.8,3.6,8.5c1.4,2.8,2.9,5.5,4.5,8.1
				c0.2,0.3,0.4,0.7,0.6,1c0,0,0,0,0,0c-0.7,0.3-1.3,0.7-2,1c-0.2,0.1-0.1,0.5,0.2,0.4c9.3-4.9,18.7-9.8,27-16.3
				c7.6-6,14.1-13.3,19.7-21.2c2.8-3.9,5.4-8,7.8-12.3c2.2-4,4.1-8.2,5.1-12.6c0.5-2.2,0.9-4.6,0.2-6.8
				C212.7,134.8,211.1,133.5,209.1,132.9z"/>
			<g>
				<path class="st2" d="M156.2,133.9c0.2,3.2,0.3,6.5,0.3,9.7c0,3.2,0,6.4-0.1,9.7c-0.1,3.2-0.2,6.4-0.5,9.6
					c-0.2,3.2-0.5,6.4-0.9,9.6c-0.4,3.2-0.8,6.4-1.3,9.6c-0.1,0.4-0.1,0.8-0.2,1.2c0,0.3,0.4,0.3,0.4,0c0.5-3.2,0.9-6.4,1.3-9.6
					c0.4-3.2,0.7-6.4,0.9-9.6c0.2-3.2,0.4-6.5,0.5-9.7c0.1-3.2,0.1-6.4,0.1-9.7c0-3.2-0.1-6.4-0.3-9.6c0-0.4,0-0.8-0.1-1.2
					C156.6,133.6,156.2,133.6,156.2,133.9L156.2,133.9z"/>
			</g>
		</g>
		<g>
			<path class="st3" d="M207.9,119.8c-1.3-0.2-2.6,0.2-3.7,0.6c-1.3,0.6-2.6,1.2-3.8,2c-2.5,1.5-4.8,3.3-7.1,5.2
				c-0.1,0.1-0.2,0.1-0.3,0.2c0.5-2.4,0.8-4.8,1-7.2c0.1-1.4,0.1-2.8,0.1-4.2c0-1.4,0-2.8-0.2-4.2c-0.1-0.7-0.3-1.4-0.6-2
				c-0.3-0.5-0.6-1.1-1.1-1.4c-0.5-0.3-1-0.1-1.3,0.4c-0.1,0.3-0.2,0.6-0.3,0.9c-0.1,0.3-0.1,0.6-0.2,0.9c-0.4,2.6,0,5.3,0.4,7.9
				c0.4,3,0.8,6,1.3,9c0.1,0.4,0.1,0.7,0.2,1.1c0,0.1,0.2,0.2,0.3,0.2c0,0.1,0,0.1,0,0.2c0.1,0.2,0.2,0.2,0.3,0.3
				c0.6,0.1,1.2,0.2,1.8,0.1c1.2,0,2.4-0.3,3.4-0.8c2.4-1,4.5-2.6,6.6-4.1c1.2-0.9,2.3-1.8,3.4-2.8c0.4-0.3,0.7-0.8,0.8-1.3
				C208.9,120.3,208.4,119.9,207.9,119.8z"/>
			<g>
				<path class="st2" d="M166.4,199.5c0.9-6,2.2-11.9,3.7-17.8c1.5-5.9,3.3-11.6,5.4-17.3c2.1-5.7,4.4-11.3,7.1-16.8
					c2.6-5.6,5.6-11,8.7-16.3c3.2-5.3,6.6-10.5,10.3-15.5c0.5-0.6,0.9-1.2,1.4-1.9c0.2-0.2-0.2-0.4-0.3-0.2
					c-3.7,5-7.3,10.2-10.5,15.5c-3.2,5.3-6.2,10.7-8.9,16.2c-2.7,5.5-5.1,11.1-7.3,16.8c-2.1,5.7-4,11.5-5.6,17.3
					c-1.6,5.8-2.9,11.8-3.9,17.7c-0.1,0.7-0.2,1.5-0.4,2.2C166,199.7,166.4,199.8,166.4,199.5L166.4,199.5z"/>
			</g>
			<path class="st4" d="M208.5,107.5c-4.8-4.6-9.7,8.6-4.8,7.8c2.1-0.3,4.5-2.8,5.2-4.7C209.5,109.2,209.2,108.1,208.5,107.5z"/>
		</g>
		<g>
			<path class="st3" d="M136.4,121.7c-0.7-0.3-1.5,0-2.1,0.4c-0.7,0.5-1,1.3-1.3,2.1c-0.3,0.9-0.4,1.8-0.6,2.7
				c-0.2,0.9-0.3,1.9-0.4,2.9c-0.2,1.9-0.3,3.8-0.3,5.7c0,1.9,0.1,3.9,0.3,5.8c0,0.3,0.1,0.6,0.1,0.9c-1.4-2.5-2.9-4.9-4.7-7.2
				c-2-2.5-4.3-4.7-7-6.3c-0.6-0.4-1.3-0.8-2-0.9c-0.6-0.2-1.3-0.2-1.9,0.2c-0.6,0.4-0.5,1.2-0.3,1.8c0.2,0.8,0.6,1.6,1,2.4
				c1.5,3.1,4,5.6,6.7,7.7c1.4,1.1,2.8,2,4.2,3c0.7,0.5,1.4,0.9,2.2,1.4c0.6,0.4,1.3,0.8,2,1.1c0.1,0,1.7,0.7,2.6-1.1
				c0.4-0.8,0.6-1.7,0.8-2.6c0.2-1,0.4-2,0.6-3c0.4-2.1,0.8-4.1,1.1-6.2c0.3-1.9,0.6-3.9,0.6-5.8c0-1,0-1.9-0.2-2.9
				C137.6,122.8,137.2,122,136.4,121.7z"/>
			<g>
				<path class="st2" d="M125.2,120.4c1,4.4,2.3,8.7,3.6,13c1.4,4.3,2.9,8.6,4.6,12.7c1.7,4.2,3.5,8.3,5.5,12.3c2,4,4.1,8,6.4,11.9
					c2.3,3.9,4.7,7.7,7.3,11.3c0.3,0.5,0.7,0.9,1,1.4c0.2,0.2,0.5,0,0.3-0.3c-2.6-3.7-5.1-7.4-7.4-11.3c-2.3-3.9-4.5-7.8-6.5-11.8
					c-2-4-3.9-8.1-5.6-12.3c-1.7-4.2-3.3-8.4-4.7-12.6c-1.4-4.2-2.6-8.6-3.7-12.9c-0.1-0.6-0.3-1.1-0.4-1.7
					C125.6,119.9,125.2,120.1,125.2,120.4L125.2,120.4z"/>
			</g>
			<path class="st4" d="M126.1,115.3c-0.6-0.4-1.3-0.6-2-0.5c-2.3,0.3-2.9,2.6-2.3,4.6c0.4,1.1,1.4,2.7,2.6,3c1.8,0.5,2.6-1.8,3-3.1
				c0.2-0.7,0.3-1.6,0-2.3C127.2,116.3,126.7,115.7,126.1,115.3z"/>
		</g>
		<g>
			<path class="st5" d="M65.6,149.6c0,0-7.9,10.5-9.2,12.6c-1.1,1.8-0.5,2.5,1.1,3.2c1.5,0.7,10,3.9,10.1,3.7
				C67.7,168.8,65.6,149.6,65.6,149.6z"/>
			<path class="st5" d="M175.6,153.5c-0.1-2-0.8-4.2-2.7-5.2c-0.4-0.2-0.9-0.4-1.3-0.6c-0.1-0.1-0.2-0.2-0.3-0.3
				c-1.3-1.1-2.9-1.9-4.5-2.6c-4-1.8-8.1-3.5-12.2-5.3l-12.4-5.4c-2-0.9-4-1.7-6-2.6c-0.1,0-0.1,0-0.2-0.1
				c-4.1-1.9-7.3-1.1-12.7,0.3c-0.4,0.1-42,12.1-52.8,15.5c-1.7,0.5-3.7,1-5,2.4c-0.1,0.2-0.2,0.4-0.3,0.6c-0.3,0.7-0.4,1.4-0.5,2.1
				c0,0.7,0,1.4,0,2.1c0,0.6-0.1,1.2,0.2,1.8c0.2,0.3,0,0.6-0.2,0.8c0.1,4.7,0.2,9.5,0.3,14.2l0.5,20.6c0,1.7,0,3.4,0.1,5.1
				c0.1,1.4,0.4,2.7,1.4,3.6c1,0.9,2.3,1.6,3.5,2.2c0.2,0.1,0.5,0.2,0.7,0.4c0.1,0.1,0.2,0.1,0.3,0.2c2.5,1.6,5.1,3.1,7.8,4.4
				c2.7,1.4,5.5,2.7,8.2,4l8.8,4.3c1.5,0.7,3,1.5,4.5,2.2c2.2,1.4,6.7,2.7,8.1,2.5c4.3-0.5,6.8-0.9,11-2.1c4.2-1.2,8.3-2.6,12.4-4.1
				c4.2-1.6,8.3-3.2,12.4-4.9c4.3-1.7,8.6-3.4,12.8-5.1c2.1-0.9,4.3-1.7,6.4-2.6c2-0.8,4.1-1.6,6.1-2.5c0.1-0.1,0.3-0.1,0.4-0.2
				c0,0,0.1,0,0.1,0c1.1-0.1,2-0.8,2.6-1.7c0.7-1,1-2.2,1.2-3.4c0.2-1.4,0.1-2.8,0.2-4.2l0.1-4.4c0.1-2.9,0.2-5.9,0.3-8.8
				c0.1-2.9,0.2-5.9,0.3-8.8C175.5,167.7,175.7,154.7,175.6,153.5z"/>
			<g>
				<path class="st2" d="M106.3,178.3c-0.5,5.4-0.9,10.9-1,16.3c-0.1,5.4-0.1,10.8,0.1,16.2c0.1,3.1,0.3,6.2,0.6,9.2
					c0,0.2,0.4,0.2,0.4,0c-0.5-5.4-0.7-10.9-0.8-16.3c-0.1-5.4,0-10.8,0.4-16.2c0.2-3.1,0.4-6.2,0.7-9.2
					C106.7,178.1,106.4,178.1,106.3,178.3L106.3,178.3z"/>
			</g>
			<g>
				<g>
					<path class="st3" d="M144.4,204.9c0.6,0,1.3-0.2,1.9-0.4c2.6-1,5.2-2.1,7.8-3.7c0.3-0.2,0.6-0.4,0.9-0.6
						c0.3-0.2,0.6-0.4,0.8-0.6c0.5-0.6,0.6-1.3,0.6-1.9c-0.1-0.7-0.3-1.3-0.5-1.9c-0.2-0.5-0.5-1.2-0.9-1.4
						c-0.1-0.1-0.2-0.1-0.3-0.1c-4.2,2.1-8.3,4.2-12.4,6.7c-0.2,0.2-0.3,0.4-0.4,0.7c-0.2,0.3-0.4,0.7-0.5,1
						c-0.1,0.3-0.3,0.7-0.2,0.9c0.1,0.3,0.4,0.4,0.6,0.6c0.3,0.2,0.5,0.3,0.8,0.4C143.2,204.6,143.8,204.9,144.4,204.9z"/>
					<g>
						<path class="st3" d="M145,196.5c-0.6,0.9-1.1,1.8-1.7,2.6c-0.5,0.9-1.1,1.7-1.6,2.6c-0.4,0.7-0.7,1.6-0.2,2.3
							c0.2,0.3,0.5,0.4,0.8,0.5c0.4,0.2,0.9,0.3,1.3,0.5c1.1,0.4,2.2,0.8,3.3,1.2c0.2,0.1,0.3-0.3,0.1-0.4c-0.9-0.3-1.9-0.7-2.8-1
							c-0.5-0.2-0.9-0.3-1.4-0.5c-0.3-0.1-0.6-0.2-0.9-0.4c-0.7-0.5-0.4-1.4,0-2c0.5-0.8,1-1.6,1.5-2.5c0.6-1,1.2-1.9,1.8-2.9
							C145.5,196.5,145.2,196.3,145,196.5L145,196.5z"/>
					</g>
					<g>
						<path class="st3" d="M151.4,189c1.4,1.7,2.5,3.6,3.4,5.6c0.3,0.6,0.5,1.2,0.8,1.8c0.1,0.2,0.4,0.1,0.4-0.1
							c-0.8-2.1-1.9-4.1-3.2-6c-0.4-0.5-0.7-1-1.1-1.5C151.5,188.6,151.3,188.8,151.4,189L151.4,189z"/>
					</g>
				</g>
				<g>
					<path class="st3" d="M134.2,194.1c-0.5,0.6-0.9,1.4-1.2,2.1c-1.4,3-2.7,6-3.6,9.1c-0.1,0.4-0.2,0.8-0.3,1.2
						c-0.1,0.3-0.2,0.7-0.2,1.1c0,0.7,0.4,1.1,0.9,1.2c0.5,0.1,1.2,0.1,1.8,0.1c0.6-0.1,1.2-0.1,1.8-0.5c0.1-0.1,0.2-0.2,0.3-0.2
						c1.8-5,3.7-9.9,5.2-14.9c0-0.2-0.1-0.5-0.1-0.7c-0.1-0.3-0.2-0.6-0.3-0.8c-0.1-0.2-0.3-0.5-0.5-0.5c-0.3,0-0.6,0.3-0.9,0.5
						c-0.3,0.2-0.7,0.5-1,0.7C135.4,192.9,134.7,193.5,134.2,194.1z"/>
					<g>
						<path class="st3" d="M139.8,197.4c-0.2-1-0.5-2.1-0.7-3.1c-0.1-0.5-0.2-1-0.3-1.6c-0.1-0.4-0.2-0.8-0.4-1.1
							c-0.6-0.7-1.5-0.1-2.1,0.3c-0.4,0.3-0.8,0.6-1.2,1c-0.4,0.3-0.8,0.7-1.2,1c-0.9,0.8-1.8,1.6-2.8,2.4c-0.2,0.2,0.1,0.4,0.3,0.3
							c1.5-1.3,3.1-2.6,4.6-3.9c0.3-0.3,0.7-0.6,1-0.8c0.3-0.2,0.7-0.3,1-0.1c0.3,0.2,0.4,0.6,0.4,0.9c0.1,0.5,0.2,0.9,0.3,1.4
							c0.2,1.1,0.5,2.2,0.7,3.3C139.5,197.7,139.8,197.6,139.8,197.4L139.8,197.4z"/>
					</g>
					<g>
						<path class="st3" d="M140,206.2c-2.2,0.8-4.5,1.5-6.9,1.9c-0.6,0.1-1.3,0.2-1.9,0.3c-0.2,0-0.2,0.4,0,0.4
							c2.4-0.2,4.7-0.7,6.9-1.5c0.7-0.2,1.3-0.4,2-0.7C140.3,206.4,140.2,206.1,140,206.2L140,206.2z"/>
					</g>
				</g>
				<g>
					<path class="st3" d="M149.2,186.1c-0.1-0.7-0.5-1.2-0.8-1.7c-1.4-2-2.9-4-4.7-5.5c-0.2-0.2-0.5-0.4-0.7-0.5
						c-0.2-0.2-0.4-0.3-0.7-0.4c-0.5-0.1-1.1,0.3-1.6,0.9c-0.5,0.6-0.9,1.3-1.3,2c-0.4,0.6-0.8,1.4-0.9,2.1c0,0.1,0,0.3,0,0.4
						c2.6,2.8,5.2,5.7,8.1,8.2c0.2,0,0.4,0,0.6-0.1c0.3-0.1,0.6-0.1,0.9-0.2c0.3-0.1,0.6-0.2,0.8-0.5c0.2-0.3,0.2-0.7,0.3-1.1
						c0.1-0.4,0.1-0.8,0.1-1.2C149.3,187.7,149.4,186.9,149.2,186.1z"/>
					<g>
						<path class="st3" d="M142.8,191.9c1-0.1,2.1-0.2,3.1-0.3c0.5,0,1-0.1,1.5-0.1c0.4-0.1,0.8-0.2,1.1-0.4c0.7-0.5,0.9-1.3,1-2.1
							c0-0.4,0-0.9,0.1-1.3c0-0.5,0-1.1,0-1.6c0-1.2,0.1-2.4,0.1-3.6c0-0.2-0.4-0.2-0.4,0c0,2-0.1,4-0.1,6c0,0.7-0.1,1.6-0.6,2.1
							c-0.3,0.3-0.6,0.5-1,0.5c-0.4,0.1-0.9,0.1-1.3,0.1c-1.1,0.1-2.3,0.2-3.4,0.3C142.5,191.6,142.5,191.9,142.8,191.9L142.8,191.9
							z"/>
					</g>
					<g>
						<path class="st3" d="M135.6,190.9c1-2.8,2.1-5.4,3.4-8c0.4-0.7,0.8-1.5,1.2-2.2c0.1-0.2-0.2-0.4-0.3-0.2
							c-1.4,2.6-2.7,5.2-3.7,8c-0.3,0.8-0.6,1.6-0.9,2.3C135.1,191,135.5,191.1,135.6,190.9L135.6,190.9z"/>
					</g>
				</g>
			</g>
			<g>
				<path class="st4" d="M168.9,155.4c0-0.7-0.2-1.4-0.6-1.9c-1.2-1.9-4.4-2.9-6.3-3.8c-5.3-2.6-10.8-4.9-16.2-7.3
					c-3.3-1.5-6.6-3-10.1-3.7c-3.6-0.7-7.3-0.5-10.9,0.2c-3.7,0.7-7.4,1.7-11.1,2.7c-7.3,1.9-14.6,4.1-21.8,6.6
					c-2.9,1-5.8,1.9-8.7,3.1c-2.6,1.1-6,2.3-6.5,5.4c-0.5,2.8,0.4,4.6,2.3,6.5c2.5,2.4,5.1,4.5,7.9,6.4c2.8,2,5.8,3.7,8.8,5.2
					c3.2,1.6,7.8-0.2,11.3,0.7c7.1,1.8,13.1,3.7,19.9,1.4c3.5-1.2,7-2.7,10.4-4.1c3.6-1.5,7.2-3,10.7-4.5c3.6-1.5,7.2-3,10.8-4.5
					c1.8-0.8,3.6-1.5,5.5-2.3c1.2-0.5,2.7-1,3.5-2.1c0.3-0.4,0.5-1,0.5-1.5C168.6,157.1,168.9,156.3,168.9,155.4z"/>
				<g>
					<path class="st2" d="M116.6,170.3c-0.8-0.5-1.5-1-2.3-1.6c-0.3-0.2-0.6-0.5-0.7-0.8c-0.1-0.3,0.1-0.6,0.3-0.9
						c0.5-0.6,1.2-1,1.8-1.4c0.3-0.2,0.6-0.4,1-0.6c0.9-0.5,1.7-1,2.6-1.5c1.1-0.6,2.2-1.2,3.4-1.8c1.1-0.6,2.3-1.2,3.4-1.8
						c0.9-0.5,1.8-0.9,2.8-1.3c0.3-0.1,0.6-0.2,1-0.3c0.1,0,0.1,0,0.2,0c0,0,0,0,0,0c0,0,0,0,0,0c0,0,0.1,0,0.1,0c0.1,0,0.3,0,0.4,0
						c1.1,0.2,2.1,0.5,3.1,0.8c1.4,0.5,2.8,1,4.1,1.5c1.2,0.5,2.4,0.9,3.7,1.4c0.2,0.1,0.4,0.2,0.7,0.3c0.2,0.1,0.3-0.3,0.1-0.4
						c-1.1-0.5-2.3-0.9-3.4-1.4c-1.4-0.5-2.8-1.1-4.2-1.6c-1.1-0.4-2.3-0.8-3.5-1c-0.3-0.1-0.7-0.1-1-0.1c-0.3,0-0.6,0.1-0.8,0.2
						c-0.9,0.3-1.8,0.7-2.7,1.2c-1.2,0.6-2.3,1.1-3.4,1.7c-1.2,0.6-2.3,1.3-3.5,1.9c-0.9,0.5-1.9,1.1-2.8,1.6
						c-0.3,0.2-0.6,0.4-0.9,0.6c-0.6,0.4-1.2,0.7-1.8,1.2c-0.5,0.4-1.1,1.1-0.7,1.9c0.2,0.3,0.5,0.6,0.8,0.8c0.3,0.3,0.7,0.5,1,0.8
						c0.4,0.3,0.8,0.5,1.2,0.8C116.6,170.7,116.8,170.4,116.6,170.3L116.6,170.3z"/>
				</g>
				<g>
					<path class="st2" d="M116.1,170.1c2.4-1.5,4.9-2.9,7.3-4.2c2.5-1.4,5.1-2.7,7.6-4.1c1.4-0.7,2.8-1.4,4.2-2.1
						c0.2-0.1,0-0.4-0.2-0.3c-2.5,1.3-5,2.6-7.5,3.9c-2.6,1.3-5.1,2.7-7.6,4.2c-1.4,0.8-2.7,1.6-4,2.4
						C115.7,169.9,115.9,170.2,116.1,170.1L116.1,170.1z"/>
				</g>
				<path class="st6" d="M152.2,147.2c-0.5-0.6-1.4-0.9-2.3-1c0,0,0.1,0,0.1,0c0.2-0.1-0.4-0.7-0.6-0.6c-2.1,0.6-26.2,9.8-27.2,10.2
					c-0.4,0.2-0.9,0.3-1.1,0.6c-0.2,0.3,0.1,0.6,0.4,0.8c0.4,0.2,0.8,0.3,1.3,0.5c0.5,0.1,1.1,0.3,1.6,0.4c0.5,0.1,1.1,0.2,1.6,0.1
					c0.5-0.1,1-0.3,1.5-0.5c1.9-0.8,21.1-8.8,23.1-9.5c0.5-0.2,1-0.7,1.5-0.9C152.2,147.4,152.2,147.3,152.2,147.2z"/>
				<path class="st6" d="M161.3,149.3l-3.4,3.5c-0.7,0.7-1.3,1.3-2,2c-0.5,0.5-1.1,1.1-1.8,1.5c-0.6,0.4-1.4,0.6-2.1,0.5
					c-0.7-0.1-1.3-0.5-1.8-1.1c-0.4-0.7-0.7-1.4-0.9-2.2c-0.2-0.8-0.4-1.6-0.6-2.5c-0.2-1.2-0.3-2.5-0.3-3.7
					c-2.1,0.1-4.2,0.1-6.3,0.1c-1.8,0-3.6,0-5.4-0.3c-0.8-0.1-1.7-0.3-2.5-0.6c-0.4-0.2-0.8-0.3-1.1-0.5c-0.3-0.2-0.6-0.5-0.5-0.9
					c0-0.4,0.3-0.6,0.6-0.8c0.4-0.2,0.8-0.4,1.2-0.6c0.8-0.4,1.6-0.8,2.5-1.2c1.4-0.7,2.9-1.3,4.4-1.8c1.5,0.6,3,1.3,4.5,2
					C151,144.6,156.2,146.8,161.3,149.3z"/>
				<g>
					<path class="st2" d="M141.7,140.8c1.3,2.3,3.2,4.3,5.4,5.7c2.4,1.6,5.2,2.5,8,2.7c1.7,0.1,3.3,0,5-0.4c0.2-0.1,0.1-0.4-0.1-0.4
						c-2.8,0.7-5.9,0.5-8.6-0.3c-2.5-0.8-4.8-2.2-6.7-4c-1-1-1.9-2.2-2.7-3.4C141.9,140.4,141.6,140.6,141.7,140.8L141.7,140.8z"/>
				</g>
				<g>
					<path class="st2" d="M148.3,147.3c0,0.6,0.1,1.2,0.1,1.8c0,0.1,0.1,0.2,0.2,0.2c0.1,0,0.2-0.1,0.2-0.2c0-0.6-0.1-1.2-0.1-1.8
						c0-0.1-0.1-0.2-0.2-0.2C148.4,147.1,148.3,147.2,148.3,147.3L148.3,147.3z"/>
				</g>
				<g>
					<path class="st2" d="M145,147.4c1.2,0,2.4,0.1,3.6,0.1c0.2,0,0.2-0.4,0-0.4c-1.2,0-2.4-0.1-3.6-0.1
						C144.8,147,144.8,147.4,145,147.4L145,147.4z"/>
				</g>
			</g>
			<path class="st5" d="M108.3,173.4c-2.5-1.8-31.6-17.1-34.6-18.6c-1.5-0.8-3.1-1.6-4.7-2.2c-0.7-0.1-1.4-0.3-2.1-0.4
				c-0.1,0-0.1,0-0.2-0.1c-0.9,0.2-1.6,0.9-2.2,1.6c-0.2,0.3-0.5,0.6-0.7,1l0,0c-1,3.1-1.9,6.1-2.8,9.2c-0.5,1.6-0.9,3.2-1.3,4.8
				c-0.2,0.8-0.4,1.6-0.6,2.4c-0.2,0.7-0.4,1.4-0.1,2c0.3,0.6,0.8,0.9,1.3,1.2c0.7,0.4,1.4,0.7,2,1c1.4,0.7,2.8,1.4,4.2,2
				c2.8,1.3,5.7,2.5,8.6,3.7c2.9,1.2,5.8,2.4,8.7,3.6c2.9,1.2,5.8,2.5,8.6,3.8c1.4,0.7,2.8,1.3,4.2,2.1c0.7,0.4,1.4,0.7,2.1,1.1
				c0.6,0.3,1.2,0.8,1.9,0.6c0.7-0.1,1-0.8,1.3-1.3c0.4-0.7,0.7-1.4,1-2.1c0.6-1.4,1.3-2.8,1.8-4.3c1.2-2.9,2.2-5.9,3-9
				c0.2-0.7,0.5-1.3,0.7-2C108.4,173.5,108.3,173.4,108.3,173.4z"/>
			<path class="st5" d="M186.8,167.5c-0.1-0.7-0.6-1.4-1-2c-0.4-0.7-7-10.1-8.8-12.8c-0.4-0.6-1.8-2.2-2.4-2.8
				c-0.5-0.4-2.1,0.4-2.7,0.7c-1.5,0.6-2.9,1.3-4.3,2c-5.9,2.6-11.9,4.9-18,7c-6.1,2.2-12.2,4.2-18.2,6.4c-6,2.1-18,5.1-23.9,7.6
				c-1.4,0.6,0.7,5.8,1.3,7.1c1.4,3.2,2.7,6.4,4.1,9.5c0.3,0.8,0.7,1.6,1,2.4c0.2,0.5,0.5,1.1,1.1,1.3c0.6,0.2,1.4,0,2-0.1
				c0.8-0.1,1.6-0.3,2.3-0.6c3.1-0.9,6-2.2,9-3.4c5.8-2.3,40-14.2,47.1-16.3c1.4-0.4,8.8-2.7,10-3.5
				C186.2,169.5,187,168.6,186.8,167.5z"/>
			<path class="st5" d="M188.5,149.3c-0.2-0.4-0.6-0.6-0.9-0.7c-0.5-0.2-0.9-0.4-1.4-0.7c-0.9-0.4-1.9-0.9-2.8-1.3
				c-1.9-0.9-3.8-1.7-5.7-2.6c-3.8-1.7-7.6-3.3-11.5-4.8c-3.8-1.6-7.6-3.1-11.5-4.6c-1.9-0.8-3.8-1.5-5.7-2.2
				c-1.3-0.5-2.7-0.8-4.1-1.1c-0.8-0.3-1.6-0.5-2.5-0.6c-1.5-0.2-3-0.4-4.5-0.4c-1.5-0.1-3,0-4.6,0c-0.7,0-1.4,0-2,0.3c0,0,0,0,0,0
				c0,0,0,0.1,0,0.1c0.3,0.5,1.1,1,1.5,1.3c1,0.7,2,1.4,3,2.1c0.4,0.2,0.8,0.4,1.2,0.6c1.7,0.9,3.5,1.7,5.3,2.6
				c3.7,1.8,7.5,3.6,11.3,5.3c3.9,1.7,7.8,3.2,11.7,4.7c1,0.4,1.9,0.8,2.9,1.1c1,0.4,1.9,0.8,2.9,1.1c1,0.3,2,0.4,3,0.5
				c1,0.1,2.1,0.1,3.1,0.1c2.1,0.1,4.2,0.1,6.3,0.1c1,0,2.1,0,3.1-0.1C187.2,150.2,188.9,150.3,188.5,149.3z"/>
			<g>
				<g>
					<path class="st2" d="M66.1,177c3.8,1.7,7.5,3.5,11.3,5.2c3.8,1.7,7.5,3.5,11.3,5.2c1.9,0.9,3.8,1.7,5.7,2.6
						c0.9,0.4,1.9,0.9,2.8,1.3c0.8,0.4,1.7,0.9,2.6,1c0.8,0.1,1.5-0.4,1.8-1.1c0.3-0.7,0.6-1.4,0.8-2.2c0.6-1.6,1.2-3.2,1.9-4.8
						c1.3-3.2,2.5-6.4,3.8-9.7c0.1-0.3,0.3-0.7,0.4-1c0.1-0.2-0.3-0.3-0.4-0.1c-1.2,3.1-2.4,6.2-3.6,9.3c-0.6,1.6-1.2,3.2-1.9,4.8
						c-0.3,0.7-0.6,1.5-0.9,2.2c-0.1,0.4-0.3,0.7-0.4,1.1c-0.1,0.4-0.3,0.7-0.7,0.9c-0.8,0.5-1.8,0-2.5-0.4
						c-0.9-0.4-1.8-0.8-2.7-1.3c-1.9-0.9-3.7-1.7-5.6-2.6c-3.7-1.7-7.4-3.4-11.1-5.1c-3.7-1.7-7.4-3.4-11.1-5.1
						c-0.5-0.2-0.9-0.4-1.4-0.6C66.1,176.6,65.9,176.9,66.1,177L66.1,177z"/>
				</g>
			</g>
			<g>
				<g>
					<path class="st2" d="M108.1,173.6c1.6,5.5,3,11.1,4.6,16.6c0.3,1.1,0.6,2.4,1.3,3.3c0.3,0.4,0.7,0.7,1.3,0.8
						c0.5,0.1,1-0.2,1.6-0.4c2.8-0.9,5.5-1.9,8.3-2.8c5.4-1.9,10.8-3.7,16.2-5.6c5.4-1.9,10.8-3.7,16.2-5.6
						c5.4-1.9,10.8-3.7,16.3-5.6c0.7-0.2,1.3-0.5,2-0.7c0.2-0.1,0.1-0.4-0.1-0.4c-5.3,1.8-10.7,3.6-16,5.5
						c-5.3,1.8-10.6,3.6-15.9,5.4c-5.3,1.8-10.6,3.7-16,5.5c-2.7,0.9-5.4,1.8-8.1,2.8c-1.3,0.5-2.7,0.9-4,1.4
						c-1.3,0.5-2-1.3-2.3-2.3c-0.8-2.6-1.5-5.3-2.2-8c-0.7-2.7-1.5-5.4-2.2-8.1c-0.2-0.7-0.4-1.3-0.6-2
						C108.4,173.2,108,173.3,108.1,173.6L108.1,173.6z"/>
				</g>
			</g>
			<g>
				<path class="st7" d="M124.6,128.7c-0.3-0.3-0.6-0.5-1-0.7c-0.7-0.4-1.6-0.6-2.4-0.6c-1.9-0.1-3.7,0.5-5.5,1.1
					c-1.7,0.7-3.4,1.5-5.1,2.3c0,0,0,0,0,0c-2.4-2.4-6.2-0.6-8.9,0.4c-3.3,1.2-6.7,2.4-10,3.7c-3.4,1.2-6.7,2.5-10.1,3.7
					c-1.6,0.6-3.2,1.1-4.7,1.7c-1.5,0.6-2.9,1.2-4.3,2.1c-2,1.3-3.7,3.3-4.2,5.6c0.7-0.3,1.5-0.5,2.2-0.7c2.2-0.7,5.6-1.7,9.8-2.9
					l0.1,5c0,1.1,0,2.3,0,3.4l0,1.8c0,0.5,0,1,0.1,1.5c0.1,0.5,0.3,0.8,0.7,1.1c0.4,0.3,0.8,0.5,1.3,0.7c0.9,0.5,1.8,1,2.8,1.5
					c1.8,1,3.7,1.9,5.6,2.6c1.9,0.7,3.9,1.3,5.9,1.6c0.5,0.1,1,0.1,1.5,0.2c0.5,0,1,0.1,1.4-0.1c0.4-0.2,0.7-0.6,1-0.9
					c0.3-0.4,0.7-0.8,1-1.3c1.8-2.2,3.6-4.4,5.3-6.7c0.1-1,0.3-2,0.6-3c1.5-4.9,5.2-9.8,10.1-11.7c1.1-1.6,2.2-3.2,3.2-4.8
					c1.2-1.8,2.4-3.6,3.5-5.5C124.9,129.4,124.9,129,124.6,128.7z"/>
				<g>
					<path class="st2" d="M80.7,155.2c2.6,0.8,5.3,1.6,7.9,2.5c2.6,0.8,5.3,1.6,7.9,2.5c1.5,0.5,3,0.9,4.4,1.4
						c0.2,0.1,0.3-0.3,0.1-0.4c-2.6-0.8-5.3-1.6-7.9-2.5c-2.6-0.8-5.3-1.6-7.9-2.5c-1.5-0.5-3-0.9-4.4-1.4
						C80.6,154.8,80.5,155.1,80.7,155.2L80.7,155.2z"/>
				</g>
				<g>
					<path class="st2" d="M106.2,155.1c-0.6-1.6-0.8-3.2-0.6-4.9c0.2-1.7,0.7-3.3,1.5-4.7c0.8-1.5,1.9-2.8,3.2-3.9
						c1.3-1.1,2.8-2,4.4-2.7c1.6-0.7,3.3-1.2,5-1.5c0.2,0,0.4-0.1,0.6-0.1c0.2,0,0.1-0.4-0.1-0.4c-1.7,0.3-3.5,0.7-5.1,1.4
						c-1.6,0.7-3.2,1.5-4.5,2.6c-1.3,1.1-2.5,2.4-3.4,3.9c-0.9,1.5-1.5,3.1-1.7,4.8c-0.2,1.7-0.2,3.4,0.3,5c0.1,0.2,0.1,0.4,0.2,0.6
						C106,155.4,106.3,155.3,106.2,155.1L106.2,155.1z"/>
				</g>
			</g>
		</g>
		<path class="st4" d="M88,126.9c0-0.9-0.2-2-0.6-2.8c-0.9-1.8-2.5-1.2-3.5,0.2c-1.4,1.9-2.3,5.4-0.5,7.4c0.3,0.3,0.7,0.6,1.2,0.7
			c0.4,0.1,0.9,0,1.2-0.3c0.8-0.5,1.2-1.4,1.6-2.2C87.8,128.9,88,127.9,88,126.9z"/>
		<g>
			<g>
				<path class="st2" d="M112,97.8c1.5-4.8,3-9.6,4.6-14.4c0.8-2.4,1.6-4.8,2.4-7.2c0.2-0.6,0.4-1.2,0.6-1.8
					c0.1-0.4,0.3-0.8,0.6-1.2c0.2-0.3,0.6-0.7,1-0.9c0.4-0.2,0.9-0.1,1.4,0c0.9,0.4,1.4,1.2,1.6,2c0.1,0.4,0.1,0.9,0.1,1.3
					c0,0.4,0,0.9,0.1,1.3c0.1,1.9,0.1,3.7,0.2,5.6c0.1,4,0,8.1-0.1,12.1c-0.1,4.6-0.3,9.2-0.6,13.8c0,0.6-0.1,1.2-0.1,1.8
					c0,0.2,0.4,0.2,0.4,0c0.1-2.5,0.3-4.9,0.4-7.4c0.1-2.3,0.2-4.6,0.3-6.9c0.1-2.1,0.1-4.3,0.1-6.4c0-2,0-4,0-6.1
					c0-1.9-0.1-3.8-0.2-5.7c0-0.9-0.1-1.9-0.1-2.8c-0.1-0.9-0.3-1.7-1-2.4c-0.6-0.6-1.7-0.9-2.6-0.6c-0.9,0.3-1.4,1.2-1.7,1.9
					c-0.2,0.5-0.4,1.1-0.6,1.6c-0.2,0.6-0.4,1.2-0.6,1.8c-0.4,1.2-0.8,2.4-1.2,3.7c-0.8,2.5-1.6,4.9-2.4,7.4
					c-0.8,2.4-1.6,4.9-2.3,7.4c-0.2,0.6-0.4,1.2-0.6,1.8C111.5,97.9,111.9,98,112,97.8L112,97.8z"/>
			</g>
			<g>
				<path class="st8" d="M116.5,126.9c0-0.5-0.7-1.4-0.9-1.8c-0.2-0.4-0.5-0.8-0.8-1.2c-0.3-0.4-0.5-0.9-0.8-1.4
					c-0.4-0.9-0.8-1.8-1.1-2.8c-0.6-2.1-1-4.2-1.1-6.4c-0.2-2.2-0.1-4.4-0.2-6.6c0-1,0-2.1-0.2-3.1c0.1-0.2,0.1-0.3,0.2-0.5
					c1-2.5,1.9-5.3,0.9-7.9c-0.9-2.3-2.8-4-4-6.2c-1.2-2.3-1.5-4.9-1.6-7.4c-0.2-2.6-0.1-5.1-0.5-7.7c-0.2-1.2-0.5-2.1-1-3.2
					c-0.4-1.1-1.7-2.7-3-2.8c-0.9-0.1-0.8-0.5-1.6-0.2c-1.9,0-3.6,1-4.7,2.6c-0.7,1.1-1.2,2.4-1.6,3.6c-0.5,1.4-0.9,2.8-1.2,4.2
					c-1.4,5.6-1.7,11.4-1.8,17.2c0,2.9,0.1,5.9,0.1,8.8c0.1,2.6,0.1,5.2,0.4,7.8c0.4,5,1.4,10,3.8,14.4c1.2,2.1,2.8,4.2,4.9,5.6
					c2.1,1.4,4.7,1.8,7.1,1.2c2.6-0.5,5-1.9,7.1-3.4c0.3-0.2,0.5-0.4,0.8-0.5c0.2-0.2,0.5-0.3,0.6-0.6
					C116.7,127.9,116.7,127.4,116.5,126.9z"/>
				<g>
					<path class="st2" d="M109.5,102.4c-0.5,1.6-1,3.3-1.3,4.9c-0.3,1.7-0.6,3.5-0.7,5.3c-0.1,1.7,0,3.5,0.3,5.2
						c0.3,1.8,0.9,3.5,2.1,4.9c1.2,1.4,2.9,2.4,4.7,2.5c0.3,0,0.3-0.4,0-0.4c-1.6,0-3.1-0.9-4.1-2c-1.2-1.3-1.8-3-2.2-4.7
						c-0.7-3.3-0.4-6.8,0.2-10.1c0.3-1.8,0.8-3.6,1.4-5.4C110,102.3,109.6,102.2,109.5,102.4L109.5,102.4z"/>
				</g>
				<g>
					<path class="st2" d="M94.1,93c2.9-1.2,4.5-4.3,5.3-7.2c1-3.4,1.1-7.1,3-10.2c0.9-1.5,2.1-2.7,3.7-3.4c0.1,0,0.1-0.2,0.1-0.3
						c-0.1-0.1-0.2-0.1-0.3-0.1c-2.9,1.2-4.5,4.3-5.3,7.2c-1,3.4-1.1,7.1-3,10.2c-0.9,1.5-2.1,2.7-3.7,3.4
						C93.6,92.7,93.8,93.1,94.1,93L94.1,93z"/>
				</g>
				<path class="st9" d="M103.1,132.4c-2.1-2-3.2-4.8-4.4-7.4c-1.2-2.5-2.4-5-3.4-7.5c-2.8-7.7-1.6-13.2-1.3-21.4
					c0.1-3.5,0.3-7,0.5-10.5c0.1-1.7,0.3-3.5,0.7-5.2c0.3-1.7,0.8-3.3,1.4-4.9c0.5-1.4,1.1-2.8,1.9-4.1c0.7-1.1,1.9-2.7,3.1-3.3
					c0.5-0.2,1-0.2,0.9-0.7c-0.1-0.4-0.4-0.5-0.8-0.6c-1.2-0.2-2.4-0.3-3.6-0.4c-0.8,0-1.5,0.1-2.2,0.6c-1.2,0.8-2.1,2-2.9,3.2
					c-0.8,1.2-1.4,2.6-1.9,4c-1,3.2-1.3,6.5-1.5,9.8c-0.2,3.5-0.3,7.1-0.6,10.6c-0.2,2-0.4,4-0.7,6.1c-0.5,3.6-2.1,6.7-3.1,10.2
					c-0.8,2.7-1.3,5.6-1.5,8.4c-0.1,2.8,0.1,5.6,0.8,8.3c0.3,1.3,0.8,2.6,1.4,3.9c0.5,1.2,1.2,2.3,2,3.3c1.9,2,4.8,2.3,7.3,2
					c2.6-0.3,5.1-1.3,7.1-2.9c0.2-0.2,0.5-0.4,0.6-0.6C103.2,133.1,103.4,132.6,103.1,132.4z"/>
				<path class="st9" d="M121.2,98.1c-0.4-0.8-1.2-1.1-2.1-1.3c-0.4-0.1-0.9-0.1-1.3-0.2c-0.4-0.1-0.8-0.1-1.2-0.3
					c-2.9-0.9-5.6-3.6-7.2-6.5c-0.2-0.4-0.6-0.9-0.8-1.2c-0.2-0.4-0.4-0.8-0.7-1.1c-0.6-0.5-1.4,0-1.7,0.5c-0.3,0.4-0.4,0.8-0.6,1.2
					c-0.1,0.4-0.3,0.9-0.3,1.4c-0.1,0.9-0.1,1.9,0,2.8c0.3,1.9,0.9,3.8,1.8,5.5c0.7,1.5,1.5,3,2.8,4.1c0.6,0.5,1.2,0.9,2,1.2
					c0.9,0.3,1.8,0.3,2.8,0.1c1-0.2,2-0.6,2.9-1c0.8-0.3,1.6-0.7,2.4-1.2c0.7-0.5,1.2-1.1,1.4-1.9C121.6,99.6,121.5,98.8,121.2,98.1
					z"/>
				<g>
					<path class="st2" d="M86.6,107.7c3.3,1,5.4,3.9,7,6.8c0.5,0.9,0.9,1.8,1.4,2.8c0.1,0.3,0.5,0,0.4-0.2c-1.5-3.2-3.1-6.5-6.1-8.5
						c-0.8-0.5-1.6-0.9-2.5-1.2C86.4,107.2,86.3,107.7,86.6,107.7L86.6,107.7z"/>
				</g>
				<g>
					<path class="st2" d="M109,89.4c-1.2,1.4-2.3,3-3.1,4.7c-0.2,0.4-0.4,0.8-0.6,1.3c-0.2,0.4-0.3,0.8-0.5,1.2
						c-0.2,0.6-0.2,1.5,0.6,1.8c0.9,0.3,1.7-0.7,2.3-1.2c0.8-0.7,1.5-1.4,2.3-2.1c0.4-0.3,0.7-0.7,1.1-1c0.3-0.2,0.7-0.4,1-0.1
						c0.3,0.3,0.1,0.8,0,1.1c-0.2,0.5-0.4,0.9-0.5,1.4c-0.8,2-1.6,3.9-2.4,5.9c-0.1,0.3,0.3,0.4,0.4,0.1c0.7-1.8,1.4-3.5,2.1-5.2
						c0.2-0.5,0.4-0.9,0.5-1.4c0.2-0.4,0.4-0.8,0.4-1.3c0.1-0.4,0-0.8-0.3-1c-0.3-0.3-0.7-0.2-1-0.1c-0.4,0.2-0.7,0.5-1,0.7
						c-0.4,0.4-0.8,0.7-1.2,1.1c-0.8,0.7-1.5,1.4-2.3,2.1c-0.3,0.3-0.7,0.6-1.1,0.5c-0.4,0-0.5-0.4-0.5-0.7c0-0.4,0.1-0.7,0.2-1.1
						c0.2-0.4,0.3-0.9,0.5-1.3c0.8-1.9,2-3.7,3.3-5.2C109.4,89.5,109.1,89.2,109,89.4L109,89.4z"/>
				</g>
				<g>
					<path class="st2" d="M107.5,132.4c-1.6-0.4-2.7-2.1-2.8-3.7c-0.2-1.9,0.8-3.8,2.2-5.1c0.8-0.7,1.7-1.3,2.7-1.7
						c0.3-0.1,0-0.5-0.2-0.4c-1.8,0.8-3.5,2.1-4.4,4c-0.9,1.8-1,4,0.2,5.6c0.6,0.8,1.4,1.5,2.3,1.7
						C107.7,132.9,107.8,132.5,107.5,132.4L107.5,132.4z"/>
				</g>
			</g>
			<g>
				<path class="st8" d="M142.4,89.7c-0.2-0.9-0.9-1.8-1.8-2.2c-0.2-0.1-0.4-0.1-0.7-0.1c-1.8,0-3.6,0.7-5.1,1.7
					c-1.6,1.1-2.9,2.5-4,4.1c-2.3,3.4-3.5,7.4-5.6,10.9c-0.4,0.7-0.8,1.3-1.3,1.9c-1.4,1.4-2.9,2.7-4.5,3.9c-1,0.7-2.1,1.4-3.2,2.2
					c-0.9,0.7-1.7,1.6-2.3,2.6c-1.1,1.9-1.5,4.2-1.9,6.3c-0.4,2.2-0.8,4.5-1.9,6.6c-1.2,2.3-3.2,4.1-4.3,6.5
					c-1.1,2.1-1.6,4.7-0.2,6.8c1,1.6,2.7,2.6,4.4,3.3c0.9,0.8,2,1.4,3.1,1.7c2.2,0.5,4.2-0.5,5.7-2.1c1.7-1.8,2.6-4.2,3.4-6.5
					c0.9-2.6,1.8-5.2,2.6-7.9c1.7-5.3,3.4-10.5,5.6-15.6c2.1-4.9,4.4-9.6,7.1-14.2c0.7-1.1,1.4-2.3,2.1-3.4c0.7-1.1,1.5-2.2,2.1-3.3
					C142.2,92,142.6,90.8,142.4,89.7z"/>
				<path class="st9" d="M123.6,106.2c-0.3-0.5-0.9-0.4-1.4-0.2c-0.6,0.2-1.1,0.6-1.6,0.9c-0.6,0.3-1.1,0.6-1.7,0.8
					c-0.6,0.2-1.1,0.4-1.7,0.6c-0.6,0.1-1.3,0.2-1.9,0.2c-1.1,0.1-2.3,0.2-3.2,1c-0.4,0.3-0.6,0.8-0.7,1.3c-0.1,0.5,0.1,1.1,0.5,1.5
					c0.7,0.9,1.9,1.2,2.9,1.3c1.3,0.1,2.6-0.2,3.8-0.9c1.3-0.7,2.5-1.7,3.6-2.7c0.4-0.4,0.7-0.8,1-1.2c0.3-0.4,0.5-0.9,0.7-1.4
					C123.8,107,123.8,106.5,123.6,106.2z"/>
				<g>
					<path class="st2" d="M108.9,129.8c1.4,1.5,2.3,3.6,2.3,5.7c0,0.3,0.4,0.3,0.4,0c-0.1-2.2-1-4.4-2.5-6
						C109,129.3,108.7,129.6,108.9,129.8L108.9,129.8z"/>
				</g>
				<g>
					<path class="st2" d="M125.7,103.5c-1.3,2.1-1.5,4.9-0.7,7.2c0.2,0.7,0.6,1.3,1,1.9c0.2,0.2,0.5,0,0.4-0.2
						c-1.4-2-1.8-4.5-1.1-6.8c0.2-0.7,0.5-1.3,0.8-1.9C126.2,103.5,125.8,103.3,125.7,103.5L125.7,103.5z"/>
				</g>
				<path class="st9" d="M148.6,91.4c-0.9-2.2-2.8-4-5-4.8c-1.2-0.5-2.6-0.8-3.8-0.4c-1.2,0.3-2.3,1.3-3.2,2.1
					c-1.9,1.7-3.3,3.9-4.5,6.1c-2.7,5.2-3.7,11-5.5,16.5c-1.8,5.4-4.3,11.8-7.8,16.2c-3.6,4.6-9.1,7.1-9,13.5c0,2.5,1.1,4.7,2.9,6.4
					c1.7,1.6,3.8,2.7,6,3.5c2.5,1,5.5,2,8.2,0.9c1.2-0.5,2.3-1.3,3.2-2.1c0.9-0.8,1.8-1.7,2.5-2.7c3.2-3.9,5.1-8.7,6.7-13.4
					c0.9-2.7,1.7-5.4,2.5-8c0.9-3,1.8-6,2.7-9c0.9-3,1.8-6.1,2.7-9.1c0.8-2.7,1.6-5.4,2-8.2C149.6,96.4,149.6,93.8,148.6,91.4z"/>
				<g>
					<path class="st2" d="M106.6,133.2c1.4-1.6,2.5-3.4,3.4-5.3c1-1.9,1.7-4,2.2-6.1c0.3-1.2,0.5-2.4,0.6-3.6c0-0.3-0.4-0.3-0.4,0
						c-0.2,2.1-0.7,4.2-1.4,6.2c-0.7,2-1.6,3.9-2.7,5.7c-0.6,1-1.3,1.9-2,2.8C106.1,133.1,106.5,133.4,106.6,133.2L106.6,133.2z"/>
				</g>
				<g>
					<path class="st2" d="M116,130.6c2.3-2.1,5.2-3.6,8.3-4.1c0.9-0.1,1.7-0.2,2.6-0.2c0.3,0,0.3-0.4,0-0.4c-3.2,0-6.4,1-9,2.7
						c-0.8,0.5-1.5,1.1-2.2,1.7C115.5,130.5,115.8,130.8,116,130.6L116,130.6z"/>
				</g>
				<g>
					<path class="st2" d="M120.4,150.7c-1.6-1.3-2.6-3.3-2.9-5.4c-0.3-2.3,0.2-4.6,1.2-6.7c1-2.2,2.3-4.1,3.8-6
						c1.5-1.9,3-3.7,4.3-5.8c1.2-1.9,2.2-4,2.6-6.2c0.1-0.3,0.1-0.6,0.1-0.8c0-0.3-0.4-0.3-0.4,0c-0.3,2.3-1.2,4.5-2.4,6.4
						c-1.2,2.1-2.8,3.9-4.2,5.8c-1.5,1.9-2.9,3.8-3.9,6c-1,2.1-1.6,4.4-1.4,6.7c0.2,2.1,1,4.2,2.5,5.7c0.2,0.2,0.4,0.4,0.6,0.5
						C120.4,151.2,120.7,150.9,120.4,150.7L120.4,150.7z"/>
				</g>
				<g>
					<path class="st2" d="M131.2,112.8c0.3-2.3,0.7-4.6,1.2-6.9c0.5-2.3,1.2-4.6,2-6.9c0.8-2.1,1.7-4.2,3-6.1
						c0.9-1.4,2.1-2.8,3.5-3.8c1.1-0.8,2.5-1.2,3.8-1.2c0.2,0,0.3,0,0.5,0c0.3,0,0.3-0.4,0-0.4c-1.4-0.2-2.8,0.2-4,0.9
						c-1.5,0.8-2.7,2.1-3.7,3.5c-1.3,1.9-2.3,3.9-3.2,6.1c-0.9,2.2-1.6,4.6-2.2,6.9c-0.6,2.3-1,4.7-1.4,7.1c0,0.3-0.1,0.6-0.1,0.8
						C130.7,113.1,131.1,113.1,131.2,112.8L131.2,112.8z"/>
				</g>
				<g>
					<path class="st2" d="M135.1,110c0.5-4.2,1-8.5,3-12.3c0.5-0.8,1-1.6,1.6-2.4c0.6-0.7,1.3-1.4,2.1-1.9c0.4-0.2,0.9-0.4,1.3-0.4
						c0.4,0,0.9,0.2,1.2,0.4c0.8,0.5,1.3,1.4,1.5,2.3c0.3,1,0.4,2.1,0.5,3.1c0.1,1.1,0,2.1-0.1,3.2c-0.2,2.1-0.7,4.3-1.4,6.3
						c-0.5,1.7-1.2,3.3-1.9,4.9c-0.7,1.6-1.4,3.2-2.4,4.7c-0.5,0.7-1,1.4-1.5,2c-0.5,0.6-1.2,1.4-2.1,1.5c-1,0.1-1.5-1.1-1.7-1.8
						c-0.4-1-0.6-2-0.7-3c0-0.5,0-1,0-1.6c0-0.3-0.4-0.3-0.4,0c-0.1,1.1,0,2.2,0.2,3.3c0.1,0.5,0.3,1,0.5,1.6c0.2,0.5,0.4,1,0.7,1.4
						c0.3,0.4,0.6,0.7,1.1,0.7c0.5,0.1,1-0.1,1.4-0.4c0.7-0.5,1.3-1.1,1.9-1.8c1.2-1.4,2-3.1,2.8-4.7c0.8-1.6,1.4-3.3,2-5
						c0.8-2.1,1.4-4.2,1.7-6.4c0.4-2.2,0.4-4.5,0.1-6.7c-0.2-1-0.4-2.1-1-3c-0.5-0.7-1.3-1.3-2.3-1.4c-1-0.1-1.9,0.5-2.6,1.1
						c-0.8,0.7-1.4,1.4-2,2.2c-1.2,1.6-2,3.5-2.6,5.5c-0.7,2.2-1,4.6-1.3,6.9c-0.1,0.6-0.1,1.1-0.2,1.7
						C134.7,110.2,135.1,110.2,135.1,110L135.1,110z"/>
				</g>
				<g>
					<path class="st2" d="M122.2,142.4c-0.2,2.3,1.1,5,3.6,5.3c1.3,0.2,2.6-0.2,3.7-0.9c1.1-0.7,1.9-1.7,2.6-2.8
						c0.6-1,1-2.1,1.4-3.2c0.4-1.2,0.7-2.4,0.8-3.7c0.1-1.1,0.1-2.4-0.4-3.5c-0.5-1.1-1.5-1.8-2.7-1.9c-1.3-0.2-2.6,0.2-3.6,0.9
						c-1.2,0.8-2.1,2-2.9,3.3c-0.2,0.3-0.4,0.6-0.6,0.9c-0.1,0.2,0.2,0.5,0.4,0.2c1.3-2.2,3-4.8,5.8-4.9c1.1-0.1,2.3,0.3,3,1.2
						c0.6,0.9,0.7,2,0.7,3c0,1.2-0.3,2.4-0.6,3.5c-0.3,1-0.6,2-1.1,3c-1,2.1-2.8,4.2-5.3,4.5c-0.6,0.1-1.2,0-1.8-0.2
						c-0.5-0.2-0.9-0.5-1.3-0.9c-0.7-0.8-1.1-1.9-1.2-3c0-0.3,0-0.6,0-0.8C122.7,142.1,122.3,142.1,122.2,142.4L122.2,142.4z"/>
				</g>
			</g>
			<g>
				<path class="st10" d="M176.4,42c-0.2-2.5-1.6-4.7-3.2-6.6c-1.9-2.2-4.2-4.2-6.9-5.2c-0.9-0.3-1.9-0.5-2.9-0.5c0,0-0.1,0-0.1-0.1
					c-6.9-1.2-13.8-2.4-20.7-3.5c-5.9-1-11.8-2.2-17.8-2.5c-5.6-0.2-11.2,0.5-16.2,3.1c-5,2.6-9.1,6.8-12,11.6
					c-1.4,2.3-2.6,4.7-3.2,7.3c-0.5,1.9-0.7,3.9-0.2,5.9c0,0.2-0.1,0.3-0.1,0.5c-0.3,1.7-0.3,3.4,0.1,5.1c0.4,1.8,1.1,3.7,2.4,5
					c0.8,0.9,2,1.5,3.2,1.7c0,0.3,0,0.7,0,1c0.1,1.9,0.9,3.5,2.1,4.9c0.7,0.7,1.4,1.4,2.2,2c0.9,0.7,1.9,1.3,2.8,2
					c1.9,1.3,4,2.4,6.1,3.4c1.7,0.8,3.6,1.5,5.5,1.3c0.9-0.1,1.9-0.4,2.6-1c0.7-0.6,1-1.5,0.9-2.4c-0.1-0.9-0.4-1.8-0.7-2.6
					c-0.5-1-1-2-1.5-3c-0.7-1.4-1.5-2.8-2.2-4.2c0.8-0.5,1.7-1,2.5-1.5c3.1-2,6-4.5,8.2-7.6c0.1-0.2,0.2-0.3,0.3-0.5
					c1.1,1.5,2.5,2.7,4.1,3.5c1.6,0.8,3.3,1.3,5,1.5c0.2,0.3,0.4,0.5,0.7,0.7c1,1,2.3,1.5,3.7,1.9c1.4,0.4,2.9,0.7,4.4,0.9
					c1.4,0.3,2.8,0.5,4.3,0.6c2.6,0.2,5.3,0,7.8-0.9c2.3-0.8,4.4-2,6.3-3.4c2-1.5,3.8-3.2,5.4-5c0.8-0.9,1.6-1.9,2.4-2.8
					c0.8-1,1.7-2.1,2.4-3.2C175.4,47.4,176.7,44.8,176.4,42z"/>
				<g>
					<path class="st2" d="M109.5,66.7c2.3-0.3,4.6-0.9,6.7-1.8c0.3-0.1,0-0.5-0.2-0.4c-2.1,0.9-4.3,1.5-6.5,1.7
						C109.2,66.3,109.2,66.8,109.5,66.7L109.5,66.7z"/>
				</g>
				<g>
					<path class="st2" d="M98.7,63.3c0.6-2.1,1.3-4.1,2.3-6c1-1.9,2.1-3.7,3.4-5.4c1.3-1.7,2.7-3.3,4.3-4.7c1.6-1.4,3.3-2.7,5.1-3.9
						c1.8-1.1,3.8-2.1,5.8-2.8c0.3-0.1,0.5-0.2,0.8-0.3c0.3-0.1,0.2-0.5-0.1-0.4c-2.1,0.7-4,1.6-5.9,2.7c-1.9,1.1-3.6,2.4-5.3,3.8
						c-1.6,1.4-3.1,3-4.5,4.7c-1.4,1.7-2.5,3.5-3.6,5.4c-1,1.9-1.8,3.9-2.5,6c-0.1,0.3-0.1,0.5-0.2,0.8
						C98.2,63.5,98.6,63.6,98.7,63.3L98.7,63.3z"/>
				</g>
				<g>
					<path class="st2" d="M93.9,51.4c0.7-1.7,1.6-3.4,2.5-5c1-1.6,2.1-3.2,3.3-4.6c1.2-1.4,2.5-2.8,4-4c1.4-1.2,2.9-2.4,4.5-3.4
						c1.6-1,3.3-1.9,5-2.6c0.2-0.1,0.4-0.2,0.7-0.3c0.3-0.1,0.1-0.5-0.1-0.4c-1.8,0.7-3.5,1.6-5.1,2.6c-1.6,1-3.2,2.1-4.7,3.3
						c-1.5,1.2-2.8,2.6-4.1,4c-1.3,1.4-2.4,3-3.4,4.6c-1,1.6-1.9,3.3-2.7,5.1c-0.1,0.2-0.2,0.4-0.3,0.7
						C93.4,51.6,93.8,51.7,93.9,51.4L93.9,51.4z"/>
				</g>
			</g>
			<g>
				<path class="st10" d="M173,23.3c-2.5-1.6-5.3-3-8.3-4c-1,1-1.9,2.1-2.9,3.1c-2,2.2-4,4.4-5.9,6.6c-0.4,1.4-0.9,2.8-1.5,4.2
					c-0.9,2.8-2,5.6-3.3,8.2c-1.8,3.8-4.1,7.3-6,11c-0.5,1-1,2-1.5,3.1c-1.9,1-3.7,2.1-5.6,3.2c-2.5,1.5-4.9,3.1-7.2,4.9
					c-2.3,1.7-4.5,3.5-6.4,5.7c-1.9,2.1-3.5,4.6-4.4,7.3c-0.4,1.3-0.8,2.7-0.7,4.1c0.1,1.1,0.5,2.2,1.3,3c0.7,0.8,1.7,1.5,2.7,1.7
					c1.1,0.3,2.4,0.1,3.5-0.2c5.2-1.7,9.5-5.8,14-8.8c3-2,6.2-3.5,9.5-4.7c3.3-1.2,6.9-1.8,10.1-3.1c1.5-0.6,3-1.5,4.3-2.5
					c1.4-1.1,2.7-2.4,3.8-3.8c1.2-1.4,2.4-2.9,3.5-4.4c1.2-1.5,2.4-3,3.5-4.6c2.3-3,4.7-6,6.9-9.1c1.2-1.7,2.5-3.3,3.7-5
					C185,35.4,181.1,28.7,173,23.3z"/>
				<g>
					<path class="st2" d="M135.2,60.6c2-1.4,4.3-2.5,6.7-3c0.7-0.1,1.4-0.2,2.1-0.3c0.3,0,0.3-0.5,0-0.4c-2.5,0.2-5,1-7.2,2.2
						c-0.6,0.3-1.3,0.7-1.8,1.2C134.8,60.4,135,60.8,135.2,60.6L135.2,60.6z"/>
				</g>
				<g>
					<path class="st2" d="M120.7,74.4c-0.7,0.9-1.1,2-1.2,3.1c0,0.3,0.4,0.3,0.4,0c0.1-1.1,0.5-2.1,1.1-2.9c0.1-0.1,0-0.2-0.1-0.3
						C120.9,74.2,120.8,74.3,120.7,74.4L120.7,74.4z"/>
				</g>
				<g>
					<path class="st2" d="M125.2,85.1c-0.5-1.6,1.3-2.9,2.5-3.6c1.3-0.7,2.8-1.1,4.3-1.1c0.8,0,1.7,0.1,2.5,0.3
						c0.3,0.1,0.4-0.3,0.1-0.4c-1.6-0.4-3.2-0.4-4.8-0.1c-0.8,0.2-1.5,0.5-2.3,0.9c-0.7,0.4-1.4,0.9-2,1.5c-0.7,0.7-1.1,1.7-0.8,2.6
						C124.8,85.4,125.2,85.3,125.2,85.1L125.2,85.1z"/>
				</g>
			</g>
		</g>
	</g>
</g>
</svg>
