<?xml version="1.0" encoding="utf-8"?>
<!-- Generator: $$$/GeneralStr/196=Adobe Illustrator 27.6.0, SVG Export Plug-In . SVG Version: 6.00 Build 0)  -->
<svg version="1.1" id="圖層_1" xmlns="http://www.w3.org/2000/svg" xmlns:xlink="http://www.w3.org/1999/xlink" x="0px" y="0px"
	 viewBox="0 0 240 240" style="enable-background:new 0 0 240 240;" xml:space="preserve">
<style type="text/css">
	.st0{fill:#FFFFFF;}
	.st1{fill:#5140B5;}
	.st2{fill:#36855F;}
	.st3{fill:#48A47E;}
	.st4{fill:#48BE7E;}
	.st5{fill:#A6CF57;}
	.st6{fill:#37B999;}
	.st7{fill:#FB9F9F;}
	.st8{fill:#4095D1;}
	.st9{fill:#FFCC00;}
	.st10{fill:#D7AF28;}
	.st11{fill:#142547;}
	.st12{fill:#3789B9;}
	.st13{fill:#1E3356;}
	.st14{fill:#14253E;}
	.st15{fill:#6B8BBF;}
	.st16{fill:#D3E9F4;}
	.st17{fill:#FFFBF0;}
	.st18{fill:#366832;}
	.st19{fill:#2A2A44;}
	.st20{fill:#FCC14B;}
	.st21{fill:#369F5F;}
	.st22{fill:#56AB6E;}
	.st23{fill:#1E272E;}
</style>
<g>
	<path class="st0" d="M218.7,124.8c-0.6-2.7-2.9-4.6-5.6-4.6c-0.8,0-1.6,0.2-2.4,0.5c-1.6,0.7-3.2,1.6-4.7,2.6
		c-0.6-1.4-1.7-2.5-3.3-3.1c-0.6-0.2-1.3-0.3-1.9-0.3c-1.5,0-3,0.6-4,1.7c-0.1-0.1-0.2-0.1-0.3-0.2c0-0.1,0-0.2,0.1-0.3
		c0-0.2,0.1-0.4,0.1-0.5c0.8-0.1,1.7-0.3,2.4-0.6c2.1-1.1,3.3-3.2,3.3-5.5c0-2-1-4-2.7-5.3c-0.8-0.7-1.8-1.1-2.8-1.3
		c1.2-0.4,2.3-1.2,3-2.3c1.3-1.9,1.5-4.4,0.5-6.6c-0.9-1.8-2.5-3.2-4.4-3.7c-0.5-0.1-1.1-0.2-1.7-0.2c-1.5,0-2.9,0.5-4,1.5
		c-0.9,0.7-1.5,1.6-1.9,2.7c0.1-1.3-0.2-2.6-0.9-3.7c-1.2-2-3.2-3.2-5.5-3.3c-0.1,0-0.2,0-0.2,0c-2.2,0-4.3,1.1-5.5,3
		c-0.7,1-1,2.2-1.1,3.4c0,0,0,0,0,0c-0.5,0-1.1,0.1-1.6,0.2c0,0,0,0-0.1,0c-0.5,0.1-1,0.4-1.5,0.6c-1,0.6-1.8,1.4-2.4,2.4
		c-0.6,1-0.9,2.2-0.9,3.3c-2.3,0.2-4.2,1.5-5.3,3.5c0,0,0,0,0,0.1c-0.5,1.1-0.8,2.3-0.7,3.4c0,0,0,0,0,0c-2.3,0.3-4.2,1.7-5.2,3.9
		c-0.5,1.1-0.6,2.3-0.5,3.4c-2.2,0.4-4,2-4.9,4.1c-0.2,0.4-0.3,0.8-0.3,1.3c-1.7-0.5-3.5-0.9-5.3-1.3c0-0.4,0-0.8,0-1.1
		c0.6-0.7,1-1.6,1-2.6l0-0.7l0-1.2c3.7-4.2,4.4-9.9,4.4-14.4c5.7-0.4,12.3-3.2,15.1-9.1c2.9-6,2.2-13.5-2-21.1
		c-4.7-8.6-10.7-15.2-16-20.7c-0.6-3.2-1.5-6-2.7-8.5c-0.8-1.5-2-3.8-4.3-5.2c-0.2-0.1-0.5-0.3-0.7-0.4c-0.5-2.3-1.6-4.1-3.3-5.4
		c-2.4-1.8-5.2-1.8-6.8-1.8c-0.3,0-0.6,0-0.9,0c-0.1-0.3-0.2-0.5-0.3-0.8c-0.1-0.2-0.3-0.4-0.4-0.7c0,0,0,0,0-0.1
		c0.3-0.1,0.5-0.2,0.8-0.4c1.2-0.8,2.1-2,2.4-3.5c0.3-1.5,0-3.1-0.8-4.3C130.8,20,129,19,127,19c-0.1,0-0.2,0-0.3,0
		c-0.3-0.3-0.7-0.6-1.2-0.8c-0.7-0.3-1.4-0.5-2.1-0.5c0,0,0,0,0,0c-1,0-1.8,0.3-2.5,0.6c-0.7-0.3-1.5-0.5-2.3-0.5
		c-2,0-4.1,1.1-5.3,2.8c-1.2,1.7-1.5,3.6-1.6,5.2c-0.1,1.2-0.1,2.5-0.1,3.7c-0.1,0.2-0.3,0.4-0.4,0.6c-0.3,0.6-0.5,1.1-0.6,1.8
		c-2.3,0.2-4.6,0.4-6.8,0.6c-0.6,0.1-1.6,0.2-2.6,0.6c-2.3,0.9-4.1,3.2-4.6,5.9c0,0.1,0,0.1,0,0.2c-6.8,3.4-6.8,8.9-6.8,10.8l0,1.3
		c-0.1,2.2-0.1,4.3-0.2,6.4c-1.8,3.9-3.1,7.4-4.1,11.1c-4.6,16.8-6.6,38.9-5.3,59.1c0,0.1,0,0.1,0,0.2c-0.5,0.7-1,1.5-1.4,2.3
		c-0.4,0.4-0.8,0.8-1.1,1.2c-2.7,1.4-5.3,2.9-7.7,4.6c-3.2-4.4-8.2-7.1-13.8-7.1c-0.6,0-1.2,0-1.8,0.1c-0.9,0.1-1.7,0.3-2.5,0.5
		c-4.4,1.2-8,4-10.3,8c-0.4,0.6-0.7,1.3-1,2c-1.2-0.4-1.9-0.4-2.1-0.4c-1.2,0-2.3,0.4-3.1,1.2c-1.7,1.7-2.2,4.1-1.3,6.2
		c0.2,0.4,0.4,0.8,0.6,1.1c0.1,0.2,0.2,0.4,0.2,0.4c1,2.5,2.1,5.1,3.1,7.6l1.7,4.1c0.8,2.1,1.9,4.1,3,6.1c0.5,1.2,1.2,2.2,2.1,3.2
		c0.4,0.5,0.7,1,1.1,1.6c0,0.1,0.1,0.1,0.1,0.2c-0.9-0.1-1.8-0.1-2.7-0.1c-1.1,0-2.2,0-3.4,0.1c-5.8,0.5-11.4,2-16.8,4.4
		c-2,0.9-3.9,1.9-5.7,2.9c-0.4,0.2-0.8,0.4-1.2,0.6c-0.9,0.5-1.8,1.3-2.5,2.3c-0.9,1.3-1.1,3-0.5,4.4c0.6,1.5,2,2.5,3.8,2.8
		c0.9,0.1,1.8,0.3,2.6,0.4c1.6,0.2,3.4,1,5.2,1.7l0.3,0.2c4.3,1.9,8.3,3.5,12.1,5c1.6,0.6,3.2,1,4.8,1.4c0.4,3.2,1.6,6.2,3.7,8.8
		c-0.5,0.5-1.1,0.9-1.7,1.1c-1.6,0.7-2.5,2.2-2.4,3.9c0.1,1.7,1.3,3.1,2.9,3.6c4,1.1,8,1.7,12.2,1.7c0.7,0,1.4,0,2.1-0.1
		c-0.2,0.4-0.4,0.8-0.5,1.2c-0.4,1.7,0.4,3.4,1.8,4.3c5,3.1,10.8,4.8,16.5,4.8c2.1,0,4.1-0.2,6-0.7c3.3-0.8,6.9-1.9,10.9-3.3
		c1.8-0.6,3.5-1.4,5.1-2.4c2.7,1.5,5.9,2.2,9.6,2.2c4.8,0,9.7-1.2,13.6-2.1c0.6-0.2,1.2-0.3,1.8-0.4c2.6-0.6,5.4-1.4,8.2-2.3
		c0.1,0,0.3,0,0.4,0c0.4,0.1,0.8,0.2,1.2,0.2c0.2,0,0.3,0,0.5,0c1.4,0.3,2.8,0.5,4.3,0.6c0.8,0.6,1.8,1,3,1.4
		c1.4,0.4,2.9,0.6,4.1,0.7c2.3,0.2,4.7,0.4,7.3,0.4c11.6,0,24.5-2.6,34-4.5c0.5-0.1,1.1-0.2,1.7-0.3c0.2,0,0.4-0.1,0.5-0.1
		c2,0.5,3.8,0.7,5.6,0.7c1.1,0,2.1-0.1,3.1-0.3c3.9-0.7,7.4-3,9.3-6.1c0.3-0.5,0.6-1.1,0.9-1.7c1-1,1.8-2.2,2.3-3.4
		c0.6-1.5,0.7-3.3,0.3-4.8c-0.2-1.1-0.6-2.1-1.1-3.1c-1.1-2-2.9-3.7-5-4.7c5.4-2.5,13-6.8,11.6-13.6c-0.6-2.9-3-7.8-12.4-7.8
		c-1.2,0-2.3,0.1-3.4,0.2c-0.1-0.8-0.2-1.6-0.3-2.4c1.3-2.2,2.6-4.5,3.7-6.8c0.7-1.5,1.4-3,2-4.6c0.6-1.5,1.2-3.2,1.4-5
		c0.3-2.1,0-4-0.8-5.5c0.3-0.2,0.6-0.4,0.9-0.7c1.1-1,1.7-2.4,1.8-3.9c0-0.5,0-0.9,0-1.4c1.8-0.7,3.1-2.3,3.4-4.3
		c0.2-1.2-0.1-2.4-0.6-3.4c1.3-0.5,2.6-1.1,4-1.8C218.1,130,219.3,127.5,218.7,124.8z M187.9,101.1c0,0,0,0.1,0,0.1l-0.1,0.1
		C187.8,101.3,187.9,101.2,187.9,101.1z"/>
	<g>
		<path class="st1" d="M196.5,175.6c0,27.9-32.7,27.6-73.1,27.6s-73.1,0.3-73.1-27.6s32.7-50.6,73.1-50.6S196.5,147.7,196.5,175.6z"
			/>
		<path class="st2" d="M165.8,201c0.3,0.7,1,1,1.6,1.4c3,1.8,6.2,3.4,9.4,4.8c3.2,1.4,6.5,2.7,9.8,3.7c3.4,1.1,6.9,1.9,10.4,1.3
			c2.6-0.5,5.2-2,6.6-4.3c1.6-2.5,1.2-5.7-0.4-8.1c-1.8-2.7-4.7-4.2-7.7-5.1c-2.4-0.7-4.8-1.2-7.3-1.3c3.9-0.7,7.7-1.8,11.3-3.4
			c3.4-1.5,13.6-5.4,12.5-10.5c-1.5-7.2-15.7-4.1-19.9-2.4c-2.3,0.9-4.5,2.1-6.5,3.5c3.6-3.7,6.8-7.7,9.6-12.1
			c1.7-2.7,3.2-5.4,4.6-8.3c0.7-1.4,1.3-2.9,1.9-4.4c0.5-1.3,1-2.7,1.2-4.1c0.2-1.2,0.1-2.6-0.7-3.7c-5-7-16,7.3-18.3,11
			c-3.5,5.6-6,11.8-9.4,17.5c-3.1,0.8-4.2,3.7-5.1,6.4c-0.5,1.6-4.7,2.1-5.1,3.7c-0.5,1.8-4.2,3.7-4.6,5.5c-0.4,1.8,1.2,4.6,0.9,6.4
			C160.6,199.4,165.5,200.2,165.8,201z"/>
		<g>
			<path class="st3" d="M73.3,208.5c4.4-2.4,8.9-5.4,12.9-8.2c7.8-5.5,12.4-13.6,14.8-22.3c1.2-4.4,2-8.9,2.6-13.4
				c0.3-2.3,0.5-4.6,0.8-6.9c0.1-1.1-0.2-5.8,0.6-6.3c-3.1,2.1-6.1,4.4-8.6,7.1c-1.1,1.2-1.9,2.5-2.8,3.7c0,0.1-0.1,0.1-0.2,0.2
				c0-0.7,0-1.4,0-2.1c0-2.4,0.1-4.8,0-7.2c-0.2-4.6-0.8-9.1-2.4-13.6c-1-2.6-2.2-5.2-4.1-7.6c-0.5-0.6-1.3-1-2.1-1.4
				c-0.2-0.1-0.7,0-0.8,0.2c-3.7,3.7-6.9,7.6-8.7,12.4c-0.5,1.3-0.9,2.7-1.2,4c-0.4,1.7-0.7,3.5-0.8,5.3c-0.1,1.8-0.1,3.7-0.1,5.6
				c0,1.2,0,2.5,0,3.7c0,0.6,0.1,1.3,0,1.9c-0.3-0.4-0.5-0.7-0.8-1.1c-4.9-5.9-11.3-10.2-18.7-13.3c-3.8-1.6-7.6-3-11.4-4.5
				c-0.9-0.4-1.8-0.8-2.7-1.1c-0.5-0.2-1.3-0.4-1.5-0.2c-0.4,0.4-0.7,1.1-0.4,1.8c0.2,0.5,0.6,1.1,0.8,1.6c1.6,3.9,3.2,7.8,4.8,11.7
				c1.4,3.5,3.3,6.8,5.7,9.9c2.3,2.9,4.9,5.6,7.7,8.2c0.4,0.4,0.8,0.7,1.2,1.2c-0.8-0.2-1.5-0.5-2.3-0.7c-1-0.3-2.1-0.7-3.1-0.9
				c-4.1-1.1-8.2-1.4-12.3-1.1c-5.6,0.5-10.7,1.9-15.5,4c-2.3,1-4.4,2.3-6.6,3.4c-0.5,0.3-0.8,0.7-1.1,1.1c-0.3,0.5,0,0.9,0.6,1
				c0.8,0.1,1.7,0.2,2.5,0.4c2.3,0.3,4.4,1.3,6.6,2.2c4,1.7,8,3.4,12,5c1.6,0.6,3.3,1,5,1.5c2,0.5,3.9,1,5.9,1.4
				c3.8,0.6,8,0,11.2-1.3c-3.2,3.4-6.2,7-8.8,10.7c-1.7,2.5-3.4,5.2-6.5,6.5C55.4,213.6,65.6,212.7,73.3,208.5z"/>
			<g>
				<g>
					<path class="st4" d="M85.3,176.5c-0.1-1.2-0.1-2.5-0.2-3.7c0-0.4,0.1-0.7,0.4-1c2.6-2,4.4-4.5,6.3-6.9c0.4-0.5,0.8-1.1,1.2-1.7
						c-0.1-0.1-0.2-0.1-0.2-0.2c-0.2,0.2-0.4,0.4-0.6,0.6c-1.4,1.6-2.8,3.1-4.2,4.7c-0.7,0.8-1.6,1.4-2.5,2.1
						c-0.1,0-0.1-0.1-0.2-0.1c0-0.5,0-0.9,0-1.4c0-3.9-0.1-7.8-0.1-11.8c0-0.3,0.1-0.8,0.3-0.9c1.5-1.1,2.5-2.5,3.7-3.9
						c1.3-1.5,2.2-3.2,3.2-4.8c0.1-0.2,0.5-1.1-0.2-1c-0.3,0.1-0.6,0.7-0.8,0.9c-0.4,0.5-0.8,1-1.2,1.5c-1.5,1.8-3.2,3.5-4.7,5.2
						c-0.1,0-0.3,0-0.4,0c0-0.1,0.1-0.3,0-0.4c0-4.7-0.1-9.3-0.1-14c0-1.8,0-3.6,0-5.3c0-0.6-0.2-1.2-0.3-1.8c-0.1,0-0.2,0-0.2,0
						c-0.1,1.7-0.1,3.5-0.2,5.2c-0.1,1.8-0.3,3.6-0.3,5.4c-0.1,1.8-0.1,3.5-0.2,5.3c-2.1-3.1-3.6-6.3-5.4-9.4
						c-0.4,0.2-0.2,0.6-0.1,0.8c0.2,0.6,0.5,1.2,0.7,1.8c0.7,1.6,1.4,3.3,2.2,4.9c0.7,1.3,1.5,2.6,2.2,3.8c0.2,0.3,0.4,0.7,0.4,1
						c-0.1,3.2-0.2,6.3-0.4,9.5c0,0.1-0.1,0.2-0.2,0.4c-1.4-2.9-3.1-5.6-4.2-8.4c-1.1-2.8-1.9-5.6-3-8.5c0,0.2-0.1,0.3-0.1,0.5
						c0.9,4.1,1.7,8.3,3.8,12.3c1.1,2.2,2.2,4.4,3.3,6.6c0.2,0.3,0.1,0.7,0.1,1c0,6.3,0,12.6,0,18.9c0,1.3,0.2,2.5,0.4,3.8
						c0,0.5,0.1,0.9,0.1,1.5c-0.3-0.3-0.6-0.5-0.8-0.6c-3.1-3.2-6.2-6.5-9.3-9.7c-0.6-0.6-0.5-1.2-0.5-1.8c-0.1-4-0.1-8-0.2-12.1
						c0-0.5-0.1-1-0.2-1.5c-0.6,4.2-0.5,8.5-1.1,12.9c-0.3-0.3-0.5-0.4-0.7-0.6c-1.2-1.4-2.4-2.7-3.7-4.1c-0.9-1-1.5-2.1-2-3.2
						c-1-2.6-2-5.1-3-7.7c-1.2-2.8-2.5-5.6-3.7-8.4c-0.2-0.3-0.2-0.3-0.8-0.7c0.5,1.8,1.3,3.4,1.9,5c0.6,1.7,1.2,3.4,1.8,5.1
						c0.6,1.6,1.3,3.3,1.6,5c-0.2-0.2-0.4-0.4-0.6-0.7c-1.2-1.4-2.4-2.8-3.5-4.2c-0.3-0.4-0.6-0.8-0.8-1.2c-1.1-3-2.2-6-3.3-9
						c-0.3-0.7-0.4-1.4-1-2.1c-0.2,0.9,0.2,1.6,0.4,2.3c0.2,0.7,0.4,1.5,0.6,2.2c0.2,0.7,0.4,1.5,0.6,2.2c0.2,0.7,0.4,1.5,0.5,2.2
						c-0.9-0.9-1.8-1.9-2.8-2.8c-3.7-3.6-7.7-7.1-12-10.3c-0.5-0.4-1-0.7-1.5-1c-0.2-0.1-0.2-0.1-0.8,0c2.4,1.5,4.4,3.3,6.4,5.1
						c4.8,4.2,9.1,8.7,13,13.5c0.1,0.1,0.2,0.3,0.4,0.6c-5.1-2.4-9.9-4.7-15.1-7.2c0.2,0.4,0.3,0.6,0.5,0.7c0.8,0.5,1.7,1,2.6,1.5
						c0.7,0.4,1.4,0.7,2.1,1.1c2,1,3.9,2,5.9,3c1.8,1,3.7,2,5.5,3c0.4,0.2,0.7,0.5,1,0.8c2.1,2.5,4.2,4.9,6.3,7.4
						c0.1,0.1,0.1,0.2,0.1,0.3c-6.2-2.4-12.2-5.1-18.3-7.7c0.2,0.6,0.8,0.7,1.3,1c3.4,1.7,6.9,3.4,10.4,5.1c1.8,0.9,3.6,1.7,5.4,2.6
						c0.9,0.4,1.8,0.7,2.8,1.1c0.3,0.1,0.7,0.3,0.9,0.5c4.2,4.4,8.3,8.8,12.5,13.2c0.1,0.2,0.3,0.3,0.5,0.6c-0.3,0-0.5,0-0.8-0.1
						c-6.8-1.3-13.5-2.6-20.3-3.9c-0.8-0.2-1.4-0.5-2-1c-1.3-1.1-2.8-2.2-4.2-3.2c-3.5-2.5-7.2-4.8-11.1-6.7
						c-0.6-0.3-1.3-0.7-2.1-0.5c2.9,1.3,5.5,3.1,8.1,4.8c2.7,1.7,5.1,3.7,7.7,5.9c-0.7-0.1-1.2-0.2-1.7-0.3
						c-0.6-0.1-1.1-0.2-1.7-0.3c-0.8,0-1.4-0.4-1.8-0.9c-0.8-1.1-2-1.8-3.1-2.5c-3.4-2.4-7-4.5-10.9-6.2c-0.2-0.1-0.4-0.2-0.6-0.2
						c-0.1,0-0.2,0-0.6,0c1.7,1,3.3,1.9,4.8,2.8c1.5,1,3,2,4.4,3c1.5,1.1,2.9,2.2,4.2,3.5c-3-0.5-6.1-0.9-9.1-1.4
						c-3.6-0.5-7.2-1.3-10.8-1.4c-3.4-0.1-6.4,0.6-9.6,1.2c3.1-0.6,6.4-0.6,9.7-0.3c3.1,0.3,6.2,0.5,9.3,1
						c10.3,1.7,20.6,4.2,30.8,6.2c3.8,0.8,7.6,1.5,11.5,2.2c0.3,0.1,0.6,0.2,1,0.3c0.6-1.2,1.2-2.4,1.8-3.6c0.4-0.8-0.6-3.1-0.5-4.1
						c0.1-1,0.4-1.8,0.3-2.8C85.5,180.3,85.4,178.4,85.3,176.5z"/>
				</g>
				<g>
					<path class="st4" d="M83.7,191.5c-10.2,3.7-17.4,11.1-26.9,15.8c-2.6,1.3-5.3,2.3-8.4,2.8c-0.1,0-0.2-0.1-0.1-0.2
						c5-1.8,9.6-4.3,13.9-7.1c4.4-2.8,8.5-5.9,13.1-8.4c2.5-1.4,5.2-2.6,8.1-3.4C83.8,190.8,84.1,191.3,83.7,191.5L83.7,191.5z"/>
				</g>
				<g>
					<path class="st4" d="M67.7,200.2c-0.5,2.5-1.2,4.8-2.5,7c-0.9,1.7-2.4,3.9-4.6,4.6c-0.3,0.1-0.6-0.3-0.4-0.5
						c0.6-0.8,1.5-1.3,2.2-2.1c0.8-0.8,1.4-1.7,2-2.6c1.2-2.1,1.9-4.3,2.7-6.6C67.2,199.7,67.8,199.8,67.7,200.2L67.7,200.2z"/>
				</g>
				<g>
					<path class="st4" d="M56.3,201.8c1-0.2,2.1,0,3.2,0.1c1.2,0.1,2.4,0.1,3.6,0.2c0.6,0,0.7,0.9,0.1,0.9c-1.2,0-2.4-0.1-3.6-0.2
						c-1.1-0.1-2.2-0.2-3.2-0.5C56.1,202.1,56.1,201.9,56.3,201.8L56.3,201.8z"/>
				</g>
			</g>
			<g>
				<path class="st4" d="M56.5,186.8c-2.8,1.1-5.6,2.3-8.6,3.1c-2.7,0.7-6.1,1.6-9.1,0.9c-0.3-0.1-0.3-0.5,0-0.6
					c1.4-0.3,2.9-0.3,4.4-0.5c1.5-0.2,2.9-0.5,4.3-0.9c2.9-0.7,5.8-1.6,8.6-2.6C56.5,186.1,56.9,186.7,56.5,186.8L56.5,186.8z"/>
			</g>
		</g>
		<path class="st5" d="M182.4,178.7c-6.1-12.2-14.6-24.3-48.8-28.8c-43.7-5.9-50.1,23.1-74.7,26.4c0,0-11,2.8-12.6,17.2
			c-1.6,14.3,16.9,19,22.4,19l117.8-2.2C186.4,210.3,204.4,196.7,182.4,178.7z"/>
		<g>
			<path class="st6" d="M100.7,43.7c-0.2-1.3-0.3-2.6-0.1-3.9c0.2-1.3,1-2.5,2.2-3c0.5-0.2,1-0.2,1.5-0.3c8.9-1,17.9-1.4,26.9-1.2
				c1.6,0,3.2,0.1,4.5,1c2,1.5,2.1,4.4,2,6.9c-7.7,0.7-15.4,0.3-23-0.2c-5-0.3-10-0.6-15.1-0.9"/>
			<path class="st6" d="M93.8,50.1c-0.6,21.3-1.2,38.1,0.5,59.3c0.2,2.3,0.4,4.7,1.9,6.5c1.1,1.3,2.7,2,4.2,2.6
				c10.4,3.8,21.7,2.6,32.7,1.2c3.7-0.5,7.6-1.1,10.4-3.6c4.4-3.9,4.5-10.7,4.2-16.7c-0.5-11.7-1.1-23.3-1.6-35
				c-0.3-6.4-0.6-13-3.4-18.7c-0.7-1.4-1.5-2.8-2.8-3.6c-1-0.7-2.2-1-3.4-1.1C96.1,36.9,93.8,45,93.8,50.1"/>
			<path class="st7" d="M99.9,107.8c3.5,29.1,6,58.4,7.3,87.8c3,0.1,6,0.3,9,0.4c0.4-27.4,1.2-55.1,2.5-82.5c1,0.2,1,0.2,5.9,0.1
				c3.1,11.9,6.8,66.5,7.5,81.3c0,0.3,0,0.7,0.3,0.9c0.3,0.3,0.7,0.3,1.1,0.3c2.8,0,5.7,0,8.5-0.1c-1.4-25.3-1.6-50.7-0.7-76.1
				c0.2-4.6,0.9-11.3,0.3-15.9c-7.1-1.9-15-0.6-22.3,0.1c-3.8,0.4-7.5,1.1-11.2,1.8c-2.6,0.5-5.1,1-7.7,1.5"/>
			<path class="st8" d="M99.9,109.9c0.2,2.7-0.1,4.3,0,7c0.4,11.9,0,30.7,1.2,44.8c5.7-0.1,14.7,0.5,19.9-0.3
				c-0.1-12.3-0.2-24.6-0.3-36.9c0-1.8,0,1.9,0.3,0.1c2.8,13.2,3.5,22.6,5.6,36.6c5.8,0.3,11.6-0.1,17.3-1.3
				c0.2-10.3-1.7-25.8-1.5-38.7c0.1-5.1,0.6-10.2-0.4-15.1c-0.1-0.4-0.2-0.8-0.5-1c-0.2-0.1-0.5-0.2-0.7-0.2
				c-9.1-0.4-18.2-0.9-27.3-0.8c-3.4,0-6.9,0.1-10.3,0.7c-0.9,0.2-1.9,0.4-2.6,0.9c-1.3,1-1.6,3.2-0.6,4.6"/>
			<path class="st7" d="M94.4,126.4c0,4.8-0.8,9.7-2.4,14.2c-0.4,1.2-1,2.5-1.9,3.4c-0.9,0.9-2.4,1.4-3.6,0.8
				c-1.5-0.7-1.9-2.7-2-4.5c-0.1-2.4,0.2-4.9,0.7-7.3c-0.2,1.5-1.8,2.7-3.3,2.2c-1.2-3.9,4.8-6.9,4.3-10.9c2.5,1.4,5.3,2.3,8.2,2.6"
				/>
			<path class="st7" d="M120.7,23.7c-1.4-0.4-2.8,0.5-3.6,1.7c-0.7,1.2-0.9,2.7-1,4.2c-0.1,1.2-0.2,2.4,0,3.6
				c0.2,1.2,0.8,2.4,1.7,3.1c1.2,0.9,2.9,0.9,4.4,0.5c0.5-0.1,1-0.3,1.3-0.7c0.3-0.3,0.5-0.6,0.6-1c0.8-1.7,1-3.7,1.1-5.6
				c0-1.1,0-2.2-0.4-3.3c-0.7-1.8-2.8-2.9-4.6-2.6"/>
			<path class="st7" d="M116.6,31.7c-0.6-0.4-1.5-0.1-1.9,0.5c-0.4,0.6-0.2,1.6,0.4,2c0.6,0.4,1.5,0.2,1.9-0.4"/>
			<path class="st7" d="M124.6,32.1c0.5-0.5,1.5-0.4,1.8,0.3c0.3,0.6,0,1.5-0.6,1.9c-0.6,0.4-1.4,0.2-2-0.2"/>
			<path class="st7" d="M118,35.9c0.2,1.5,0.1,3.5,0,5c-2.4,0.1-3.6,0.8-5.3,2.6c5.9,4.6,9.7,0.2,14.6,0.4c-2-1.3-2.7-2.1-5.1-2.8
				c0-1.8,0.2-3.7,0.1-5.4"/>
			<path class="st9" d="M114.2,41.8c0.9,2.2,2.7,3.3,5,3.3c2.3,0,4.6-1.6,5.5-3.8c4.2,1,8.4,2.4,12.4,4.2c1.2,0.6,2.4,1.2,3.2,2.3
				c0.9,1.2,1.1,2.7,1.3,4.2c2.5,18.8,1.4,47.2,0.8,66.2c-8.8,1.8-15.5,2.1-24.4,1.5c-5.9-0.4-11.8-2.3-18.1-2.8
				c-0.8-17.1-4.1-35.4-2.9-52.5c0.2-2.9,0.2-12.5,1.6-15C101,44.8,109.2,42.5,114.2,41.8"/>
			<path class="st9" d="M98.3,49.5c-3.8,6.9-6.9,12.8-9,20.4c-4.8,17.5-6.4,39.5-5.2,57.7c2.7,0.3,9.3-0.2,11.9-0.7
				c0.1-15.4-1.8-32,3.7-46.3C100.3,79.4,99.2,57.6,98.3,49.5"/>
			<path class="st10" d="M111.2,41.8c-0.2,1.3,0.5,2.9,1.3,4c2.1,2.7,5.5,3.2,8.7,2.6c3.3-0.6,6.8-2.8,6.9-6.2
				c-1-0.2-2.5-0.5-3.4-0.9c-1,1.8-2.6,4.2-7.2,3.5c-1.4-0.2-2.9-1.9-3.1-3.3C113.6,41.6,112,41.6,111.2,41.8"/>
			<path class="st10" d="M98.3,115.2c0,1.4,0,3.3,0.2,4.7c4.8,1,9.7,1.3,14.5,1.5c10.1,0.6,20.5,1.2,30.3-1.7c0-1.4,0.1-2.8,0.1-4.2
				c-8.9,2.8-18.4,2.6-27.7,2C109.9,117.2,104,116.7,98.3,115.2"/>
			<path class="st11" d="M115.7,31.3c-0.1-1.7-0.1-3.4,0-5.1c0.1-1.1,0.2-2.3,0.9-3.2c0.6-0.9,1.9-1.4,2.9-0.9
				c0.4,0.2,0.7,0.6,1.1,0.7c1.1,0.3,2.2-1.5,3.3-0.9c0.7,0.3,0.9,1.4,1.6,1.5c0.3,0.1,0.7-0.1,1-0.2c0.8-0.2,1.7,0,2.2,0.7
				c0.5,0.7,0.3,1.7-0.4,2.2c-0.6,0.4-1.5,0.3-1.9,0.9c-0.2,0.3-0.2,0.7-0.3,1c-0.1,0.3-0.3,0.7-0.6,0.5c-0.1,1.3-0.4,3.5-0.4,4.9
				c0,0-0.2,0.1-0.6,0.1c-0.1-1.7-0.2-3.4-0.3-5.1c-0.3,0.3-0.8,0.1-1.1-0.1c-0.3-0.3-0.6-0.7-1-0.7c-0.6-0.1-1,0.5-1.6,0.5
				c-0.8,0-1.3-0.8-2.1-0.9c-0.5,0-1,0.4-1.3,0.9c-0.2,0.5-0.3,1.1-0.3,1.6c-0.1,1.4-0.2,2.8-0.2,4.1c-0.2,0-0.6,0-0.7,0
				C115.9,32.7,115.8,32.3,115.7,31.3"/>
			<path class="st12" d="M99.4,156.9c0.3,1.9,0.3,4.9,0.7,6.8c1.6,0,16.7,0.6,21.8-0.3c0.1-2.1-0.3-4.2-0.4-6.4
				C114.1,157,106.8,157,99.4,156.9"/>
			<path class="st12" d="M124.6,156.7c0.5,2.3,0.5,4.6,1.2,6.8c6.4,0.6,12.9,0.1,19.3-0.6c0.2,0,0.4-0.1,0.5-0.2
				c0.1-0.1,0.1-0.2,0-0.4c-0.2-2-0.3-4-0.5-6c0-0.2,0-0.3-0.2-0.4c-0.1-0.1-0.2-0.1-0.3-0.1c-5.1,0.1-9.9,0.6-15,0.7
				C128,156.6,126.3,156.9,124.6,156.7"/>
			<path class="st6" d="M99.1,46.9c3.8,14.4,4.1,29.7,0.8,44.3c-0.5,2.4-1.2,4.8-2.4,6.9c-0.3,0.5-0.7,1.1-0.8,1.7
				c-0.1,0.5,0,1,0.1,1.5c0.3,1.7,0.6,3.5,0.9,5.2c3.4-3,5.5-7.3,6.7-11.7c1.2-4.4,6.3-31.8-2-50.7C101.1,45.2,100.2,45.8,99.1,46.9
				"/>
			<path class="st6" d="M141.5,47.6c-3.8,14.4-4.1,29.7-0.8,44.3c0.5,2.4,1.2,4.8,2.4,6.9c0.3,0.5,0.7,1.1,0.8,1.7
				c0.1,0.5,0,1-0.1,1.5c-0.3,1.7-0.6,3.5-0.9,5.2c-3.4-3-5.5-7.3-6.7-11.7c-1.2-4.4-6.3-31.8,2-50.7
				C139.4,45.8,140.3,46.4,141.5,47.6"/>
			<g>
				<path class="st13" d="M110.6,42.2c1.1,11.9,1.6,23.9,5.3,35.3c0.1,0.4,0.8,0.2,0.7-0.2c-3.7-11.3-4.2-23.3-5.3-35.1
					C111.3,41.8,110.6,41.8,110.6,42.2L110.6,42.2z"/>
			</g>
			<g>
				<path class="st13" d="M128.7,42.5c-0.4,11.4-1.3,22.8-2.8,34.2c-0.1,0.4,0.6,0.6,0.7,0.2c1.5-11.4,2.4-22.9,2.8-34.4
					C129.4,42,128.7,42,128.7,42.5L128.7,42.5z"/>
			</g>
			<path class="st13" d="M113.6,77.7c4.3-0.3,9.5-0.8,13.8-1.1c0.2,0,0.4,0,0.5,0.1c0.3,0.1,0.4,0.5,0.4,0.8
				c0.4,3.1,0.7,6.2,0.6,9.3c-4.9,0.3-9.8,0.5-14.7,0.6C113.9,84.2,113.7,80.9,113.6,77.7"/>
			<path class="st13" d="M120.7,77.8c-0.3-0.6,0-1.5,0.5-1.9c0.5-0.4,1.2-0.4,1.8-0.4c0.5,0,0.9,0,1.4,0c0.4,0,0.9,0,1.2,0.4
				c0.3,0.3,0.4,1.1,0,1.3c-0.1,0.1-0.2,0.1-0.3,0.1c-1.4,0.1-2.7,0.3-4.1,0.4"/>
			<ellipse class="st14" cx="122.4" cy="82" rx="3.9" ry="4"/>
			<path class="st15" d="M125.3,82c0,1.6-1.3,2.9-2.8,2.9c-1.6,0-2.8-1.3-2.8-2.9c0-1.6,1.3-2.9,2.8-2.9
				C124,79.1,125.3,80.4,125.3,82z"/>
			<path class="st14" d="M115.9,78.5c-0.5,0-1.1,0-1.6,0.1c-0.4,0-0.9,0.1-1.1,0.4c-0.2,0.3-0.2,0.6-0.2,1c0.1,2.1,0.3,4.2,0.6,6.3
				c0,0.2,0.1,0.5,0.3,0.6c0.2,0.1,0.4,0.1,0.6,0.1c0.6,0,1.2,0,1.7,0c0.4,0,0.9,0,1.1-0.4c0.1-0.2,0.2-0.4,0.2-0.7
				c0.1-2.2-0.1-4.3-0.6-6.5c-0.1-0.3-0.1-0.7-0.4-0.9c-0.2-0.3-0.6-0.4-0.9-0.2"/>
			<path class="st7" d="M84.2,129.5c-1.4,1.4-2.6,4.7-4.1,6.1c-0.2,0.2-0.3,0.3-0.4,0.5c-0.1,0.2,0,0.5,0.1,0.6
				c0.1,0.1,0.2,0.1,0.3,0.1c1.6,0.1,3.1-0.9,4.4-2c0.9-0.7,1.7-1.6,2.2-2.6c-0.8-0.2-1.5-0.5-2.2-0.8"/>
			<g>
				<path class="st16" d="M131.6,193.2c0.1,1.5,0.3,3,0.5,4.4c0,0.1,0,0.2,0.1,0.3c0.1,0.1,0.2,0.1,0.3,0.1c1.1,0.2,2.2,0.4,3.4,0.4
					c0.6,0,1.2,0,1.9-0.1c1.6-0.1,2.6,0.2,4.1,0.1c-0.1-1.8,0.1-3.8-0.1-5.6C138.4,192.8,134.8,193.2,131.6,193.2"/>
				<g>
					<path class="st0" d="M132.9,196.5c-0.2-1.1-0.2-2.2-0.1-3.3c0-0.2-0.3-0.2-0.3,0c-0.1,1.1-0.1,2.3,0.1,3.4
						C132.6,196.8,133,196.7,132.9,196.5L132.9,196.5z"/>
				</g>
				<g>
					<path class="st0" d="M133.6,193.1c0,1.2,0.1,2.4,0.4,3.6c0.1,0.2,0.4,0.1,0.3-0.1c-0.3-1.2-0.5-2.3-0.4-3.5
						C133.9,192.9,133.6,192.9,133.6,193.1L133.6,193.1z"/>
				</g>
				<g>
					<path class="st0" d="M135.2,196.5c0-1.1,0.1-2.2,0.1-3.2c0-0.2-0.3-0.2-0.3,0c0,1.1-0.1,2.2-0.1,3.2
						C134.9,196.7,135.2,196.7,135.2,196.5L135.2,196.5z"/>
				</g>
				<g>
					<path class="st0" d="M135.7,193.4c0.1,1,0.3,2.1,0.4,3.1c0,0.2,0.3,0.1,0.3-0.1c-0.1-1-0.3-2.1-0.4-3.1
						C136,193.1,135.7,193.2,135.7,193.4L135.7,193.4z"/>
				</g>
				<g>
					<path class="st0" d="M137.1,196.5c0-1.1,0-2.2,0.1-3.3c0-0.2-0.3-0.2-0.3,0c0,1.1,0,2.2-0.1,3.3
						C136.8,196.7,137.1,196.7,137.1,196.5L137.1,196.5z"/>
				</g>
				<g>
					<path class="st0" d="M138,193.2c0.1,1.1,0.2,2.2,0.2,3.2c0,0.2,0.3,0.2,0.3,0c-0.1-1.1-0.2-2.2-0.2-3.2
						C138.3,193,137.9,193,138,193.2L138,193.2z"/>
				</g>
				<g>
					<path class="st0" d="M139.3,196.7c0.1-1.2,0.1-2.4,0.2-3.6c0-0.2-0.3-0.2-0.3,0c-0.1,1.2-0.1,2.4-0.2,3.6
						C139,196.9,139.3,196.9,139.3,196.7L139.3,196.7z"/>
				</g>
				<g>
					<path class="st0" d="M140.1,193.1c0.1,1.1,0.3,2.2,0.4,3.2c0,0.2,0.3,0.2,0.3,0c-0.1-1.1-0.3-2.2-0.4-3.2
						C140.4,192.9,140.1,192.9,140.1,193.1L140.1,193.1z"/>
				</g>
				<g>
					<path class="st14" d="M131.8,210.2c-0.3,1.1-0.2,2.3,0.1,3.4c0.2-0.4,0.6-0.7,1-0.7c0.4,0,0.8,0.4,0.8,0.8
						c0.5-0.1,0.7-0.9,1.2-0.8c0.1,0,0.2,0.1,0.3,0.2c0.3,0.3,0.7,0.6,1,0.9c0.2-0.3,0.4-0.6,0.6-0.8c0.2,0.4,0.5,0.7,0.9,0.9
						c0.1,0.1,0.2,0.1,0.3,0.1c0.4,0,0.4-0.6,0.7-0.7c0.5-0.2,0.8,0.6,1.2,0.7c0.5,0,0.8-0.7,1.3-0.7c0.5,0,0.6,0.8,1.1,0.9
						c0.2-0.3,0.4-0.5,0.6-0.7c0.3-0.2,0.6-0.2,0.9,0.1c0.2,0.2,0.2,0.4,0.4,0.5c0.3,0.2,0.7-0.2,0.9-0.5c0.2-0.3,0.6-0.6,0.9-0.4
						c0.2,0.2,0.2,0.6,0.5,0.7c0.4,0.1,0.6-0.4,0.9-0.6c0.6-0.3,1.1,0.8,1.8,0.7c0.3,0,0.6-0.3,0.8-0.5c0.3-0.2,0.8-0.1,0.8,0.3
						c0.4-0.7,1.5-0.8,2-0.1c0.3-0.9,0.3-1.9,0.1-2.9c-2.3-0.2-4.6-0.3-7-0.1c-0.8,0.1-1.7,0.1-2.5,0.2c-3.1,0.1-6.3-0.7-9.4-0.6
						C133.3,210.3,132.6,210.3,131.8,210.2"/>
					<path class="st13" d="M131.5,196.7c-0.1,1.4,0.7,4.6,0.5,8.6c0,0.6-1,3.1-0.5,5.5c0.2,1,1.8,1.1,2.9,1.1c5.6-0.1,13,0.6,18.6,0
						c0.8-1.5-0.3-4.2-1.7-5.2c-1.3-1-5.6-1.4-7.2-1.4c-1.2,0-2.2-6.8-1.8-8.9c-3.6,0.3-7.3,0.4-10.9,0.3"/>
					<g>
						<path class="st0" d="M148.7,205.7c-0.9,1.6-0.7,4.2-0.4,6c0,0.2,0.4,0.1,0.3-0.1c-0.3-1.7-0.5-4.2,0.3-5.8
							C149.1,205.7,148.8,205.5,148.7,205.7L148.7,205.7z"/>
					</g>
					<g>
						<path class="st0" d="M139.8,196.9c0.2,1.7,0.4,3.4,0.7,5c0.1,1,0.1,2.8,0.7,3.5c0.5,0.6,1.3,0.7,2,0.9
							c1.7,0.3,3.5,0.4,5.3,0.5c0.2,0,0.2-0.3,0-0.3c-2.1-0.2-6.4,0.2-7.2-2.2c-0.8-2.2-0.8-5.2-1.1-7.4
							C140.1,196.7,139.7,196.7,139.8,196.9L139.8,196.9z"/>
					</g>
					<g>
						<path class="st0" d="M140.2,198.8c0.5,0.4,1,0.8,1.6,1c0.2,0.1,0.4-0.2,0.2-0.3c-0.6-0.3-1.1-0.6-1.6-1
							C140.3,198.4,140.1,198.7,140.2,198.8L140.2,198.8z"/>
					</g>
					<g>
						<path class="st0" d="M142,198.5c-0.4,0.9-0.9,1.7-1.5,2.5c-0.1,0.2,0.1,0.4,0.2,0.2c0.6-0.8,1.1-1.6,1.6-2.5
							C142.3,198.4,142.1,198.3,142,198.5L142,198.5z"/>
					</g>
					<g>
						<path class="st0" d="M140.5,201.1c0.6,0.5,1.3,0.9,2.1,1.2c0.2,0.1,0.3-0.3,0.1-0.3c-0.7-0.2-1.4-0.6-1.9-1.1
							C140.6,200.7,140.4,201,140.5,201.1L140.5,201.1z"/>
					</g>
					<g>
						<path class="st0" d="M142.4,201.2c-0.3,0.9-0.9,1.6-1.5,2.2c-0.2,0.1,0.1,0.4,0.2,0.2c0.7-0.7,1.2-1.4,1.6-2.4
							C142.8,201.1,142.4,201,142.4,201.2L142.4,201.2z"/>
					</g>
					<g>
						<path class="st0" d="M141,203.6c0.6,0.5,1.4,0.8,2.2,0.7c0.2,0,0.2-0.4,0-0.3c-0.7,0-1.4-0.2-2-0.6
							C141.1,203.3,140.8,203.5,141,203.6L141,203.6z"/>
					</g>
					<g>
						<path class="st0" d="M142.9,203.8c-0.2,0.3-0.3,0.5-0.5,0.8c-0.1,0.1-0.3,0.8-0.5,0.8c-0.2,0-0.2,0.3,0,0.3
							c0.3,0,0.4-0.3,0.5-0.6c0.2-0.4,0.5-0.8,0.7-1.2C143.3,203.8,143.1,203.6,142.9,203.8L142.9,203.8z"/>
					</g>
					<g>
						<path class="st0" d="M142.2,206c0.8,0.1,1.6,0,2.4-0.5c0.2-0.1,0-0.4-0.2-0.3c-0.7,0.4-1.4,0.5-2.2,0.4
							C142,205.6,142,206,142.2,206L142.2,206z"/>
					</g>
					<g>
						<path class="st0" d="M144,205.3c0.2,0.4,0.4,0.8,0.7,1.1c0.2,0.1,0.4-0.1,0.2-0.2c-0.3-0.3-0.5-0.6-0.6-0.9
							C144.2,205,143.9,205.1,144,205.3L144,205.3z"/>
					</g>
					<g>
						<path class="st0" d="M145.2,206.5c0.5-0.2,1-0.5,1.5-0.7c0.2-0.1,0-0.4-0.2-0.3c-0.5,0.2-1,0.5-1.5,0.7
							C144.8,206.3,145,206.6,145.2,206.5L145.2,206.5z"/>
					</g>
					<g>
						<path class="st0" d="M145.8,205.5c0.1,0.5,0.3,0.9,0.6,1.3c0.1,0.2,0.4,0,0.3-0.2c-0.3-0.4-0.4-0.8-0.6-1.2
							C146.1,205.2,145.8,205.3,145.8,205.5L145.8,205.5z"/>
					</g>
					<g>
						<path class="st0" d="M131.8,199.5c2.8,0.1,5.5,0,8.3-0.2c0.2,0,0.2-0.4,0-0.3c-2.8,0.2-5.5,0.2-8.3,0.2
							C131.6,199.1,131.6,199.5,131.8,199.5L131.8,199.5z"/>
					</g>
					<g>
						<path class="st0" d="M131.7,210.2c2.7,0.5,5.5,0.8,8.2,0.7c2.7,0,5.7,0.5,8.4-0.1c0.2,0,0.1-0.4-0.1-0.3
							c-2.6,0.6-5.6,0.1-8.3,0.1c-2.7,0-5.5-0.2-8.2-0.7C131.6,209.8,131.5,210.2,131.7,210.2L131.7,210.2z"/>
					</g>
				</g>
			</g>
			<g>
				<path class="st16" d="M116.7,193.2c-0.1,1.5-0.3,3-0.5,4.4c0,0.1,0,0.2-0.1,0.3c-0.1,0.1-0.2,0.1-0.3,0.1
					c-1.1,0.2-2.2,0.4-3.4,0.4c-0.6,0-1.2,0-1.9-0.1c-1.6-0.1-2.6,0.2-4.1,0.1c0.1-1.8-0.1-3.8,0.1-5.6
					C109.9,192.8,113.5,193.2,116.7,193.2"/>
				<g>
					<path class="st0" d="M115.7,196.6c0.2-1.1,0.2-2.3,0.1-3.4c0-0.2-0.3-0.2-0.3,0c0.1,1.1,0.1,2.2-0.1,3.3
						C115.3,196.7,115.7,196.8,115.7,196.6L115.7,196.6z"/>
				</g>
				<g>
					<path class="st0" d="M114.4,193.1c0,1.2-0.1,2.4-0.4,3.5c-0.1,0.2,0.2,0.3,0.3,0.1c0.3-1.2,0.5-2.4,0.4-3.6
						C114.7,192.9,114.4,192.9,114.4,193.1L114.4,193.1z"/>
				</g>
				<g>
					<path class="st0" d="M113.4,196.5c0-1.1-0.1-2.2-0.1-3.2c0-0.2-0.3-0.2-0.3,0c0,1.1,0.1,2.2,0.1,3.2
						C113.1,196.7,113.4,196.7,113.4,196.5L113.4,196.5z"/>
				</g>
				<g>
					<path class="st0" d="M112.3,193.3c-0.1,1-0.3,2.1-0.4,3.1c0,0.2,0.3,0.3,0.3,0.1c0.1-1,0.3-2.1,0.4-3.1
						C112.6,193.2,112.3,193.1,112.3,193.3L112.3,193.3z"/>
				</g>
				<g>
					<path class="st0" d="M111.5,196.5c0-1.1,0-2.2-0.1-3.3c0-0.2-0.3-0.2-0.3,0c0,1.1,0,2.2,0.1,3.3
						C111.2,196.7,111.5,196.8,111.5,196.5L111.5,196.5z"/>
				</g>
				<g>
					<path class="st0" d="M110,193.2c-0.1,1.1-0.2,2.2-0.2,3.2c0,0.2,0.3,0.2,0.3,0c0.1-1.1,0.2-2.2,0.2-3.2
						C110.4,193,110,193,110,193.2L110,193.2z"/>
				</g>
				<g>
					<path class="st0" d="M109.3,196.7c-0.1-1.2-0.1-2.4-0.2-3.6c0-0.2-0.3-0.2-0.3,0c0.1,1.2,0.1,2.4,0.2,3.6
						C109,196.9,109.3,196.9,109.3,196.7L109.3,196.7z"/>
				</g>
				<g>
					<path class="st0" d="M107.9,193.1c-0.1,1.1-0.3,2.2-0.4,3.2c0,0.2,0.3,0.2,0.3,0c0.1-1.1,0.3-2.2,0.4-3.2
						C108.2,192.9,107.9,192.9,107.9,193.1L107.9,193.1z"/>
				</g>
				<g>
					<path class="st14" d="M116.5,210.2c0.3,1.1,0.2,2.3-0.1,3.4c-0.2-0.4-0.6-0.7-1-0.7c-0.4,0-0.8,0.4-0.8,0.8
						c-0.5-0.1-0.7-0.9-1.2-0.8c-0.1,0-0.2,0.1-0.3,0.2c-0.3,0.3-0.7,0.6-1,0.9c-0.2-0.3-0.4-0.6-0.6-0.8c-0.2,0.4-0.5,0.7-0.9,0.9
						c-0.1,0.1-0.2,0.1-0.3,0.1c-0.4,0-0.4-0.6-0.7-0.7c-0.5-0.2-0.8,0.6-1.2,0.7c-0.5,0-0.8-0.7-1.3-0.7c-0.5,0-0.6,0.8-1.1,0.9
						c-0.2-0.3-0.4-0.5-0.6-0.7c-0.3-0.2-0.6-0.2-0.9,0.1c-0.2,0.2-0.2,0.4-0.4,0.5c-0.3,0.2-0.7-0.2-0.9-0.5
						c-0.2-0.3-0.6-0.6-0.9-0.4c-0.2,0.2-0.2,0.6-0.5,0.7c-0.4,0.1-0.6-0.4-0.9-0.6c-0.6-0.3-1.1,0.8-1.8,0.7
						c-0.3,0-0.6-0.3-0.8-0.5c-0.3-0.2-0.8-0.1-0.8,0.3c-0.4-0.7-1.5-0.8-2-0.1c-0.3-0.9-0.3-1.9-0.1-2.9c2.3-0.2,4.6-0.3,7-0.1
						c0.8,0.1,1.7,0.1,2.5,0.2c3.1,0.1,6.3-0.7,9.4-0.6C115,210.3,115.7,210.3,116.5,210.2"/>
					<path class="st13" d="M116.8,196.7c0.1,1.4-0.7,4.6-0.5,8.6c0,0.6,1,3.1,0.5,5.5c-0.2,1-1.8,1.1-2.9,1.1
						c-5.6-0.1-13,0.6-18.6,0c-0.8-1.5,0.3-4.2,1.7-5.2c1.3-1,5.6-1.4,7.2-1.4c1.2,0,2.2-6.8,1.8-8.9c3.6,0.3,7.3,0.4,10.9,0.3"/>
					<g>
						<path class="st0" d="M99.3,205.9c0.8,1.5,0.7,4.1,0.3,5.8c0,0.2,0.3,0.3,0.3,0.1c0.4-1.8,0.5-4.4-0.4-6
							C99.5,205.5,99.2,205.7,99.3,205.9L99.3,205.9z"/>
					</g>
					<g>
						<path class="st0" d="M108.2,196.9c-0.2,1.3-0.3,2.6-0.5,3.9c-0.2,1.1-0.2,2.6-0.5,3.6c-0.9,2.4-5.1,2-7.2,2.2
							c-0.2,0-0.2,0.4,0,0.3c1.7-0.2,3.6-0.2,5.3-0.5c0.7-0.1,1.5-0.3,2-0.9c0.5-0.7,0.5-2.7,0.7-3.5c0.3-1.7,0.5-3.4,0.7-5
							C108.6,196.7,108.2,196.7,108.2,196.9L108.2,196.9z"/>
					</g>
					<g>
						<path class="st0" d="M107.8,198.6c-0.5,0.4-1,0.7-1.6,1c-0.2,0.1,0,0.4,0.2,0.3c0.6-0.3,1.1-0.6,1.6-1
							C108.2,198.7,108,198.4,107.8,198.6L107.8,198.6z"/>
					</g>
					<g>
						<path class="st0" d="M106,198.6c0.4,0.9,0.9,1.8,1.6,2.5c0.1,0.2,0.4-0.1,0.2-0.2c-0.6-0.7-1.1-1.6-1.5-2.5
							C106.2,198.3,105.9,198.4,106,198.6L106,198.6z"/>
					</g>
					<g>
						<path class="st0" d="M107.5,200.9c-0.6,0.5-1.2,0.8-1.9,1.1c-0.2,0.1-0.1,0.4,0.1,0.3c0.8-0.2,1.5-0.6,2.1-1.2
							C107.9,201,107.7,200.7,107.5,200.9L107.5,200.9z"/>
					</g>
					<g>
						<path class="st0" d="M105.6,201.3c0.4,0.9,0.9,1.7,1.6,2.4c0.2,0.1,0.4-0.1,0.2-0.2c-0.7-0.6-1.2-1.4-1.5-2.2
							C105.9,201,105.5,201.1,105.6,201.3L105.6,201.3z"/>
					</g>
					<g>
						<path class="st0" d="M107.1,203.4c-0.6,0.5-1.3,0.7-2,0.6c-0.2,0-0.2,0.3,0,0.3c0.8,0.1,1.6-0.2,2.2-0.7
							C107.4,203.5,107.2,203.3,107.1,203.4L107.1,203.4z"/>
					</g>
					<g>
						<path class="st0" d="M105.1,204c0.2,0.4,0.5,0.8,0.7,1.2c0.1,0.2,0.3,0.5,0.5,0.6c0.2,0,0.2-0.3,0-0.3c-0.1,0-0.4-0.6-0.5-0.8
							c-0.2-0.3-0.3-0.5-0.5-0.8C105.2,203.6,105,203.8,105.1,204L105.1,204z"/>
					</g>
					<g>
						<path class="st0" d="M106.1,205.7c-0.8,0.1-1.5,0-2.2-0.4c-0.2-0.1-0.3,0.2-0.2,0.3c0.7,0.4,1.5,0.6,2.4,0.5
							C106.3,206,106.3,205.6,106.1,205.7L106.1,205.7z"/>
					</g>
					<g>
						<path class="st0" d="M104,205.2c-0.1,0.4-0.3,0.7-0.6,0.9c-0.2,0.1,0.1,0.4,0.2,0.2c0.3-0.3,0.6-0.7,0.7-1.1
							C104.4,205.1,104,205,104,205.2L104,205.2z"/>
					</g>
					<g>
						<path class="st0" d="M103.3,206.2c-0.5-0.2-1-0.5-1.5-0.7c-0.2-0.1-0.4,0.2-0.2,0.3c0.5,0.2,1,0.5,1.5,0.7
							C103.3,206.6,103.5,206.3,103.3,206.2L103.3,206.2z"/>
					</g>
					<g>
						<path class="st0" d="M102.1,205.4c-0.1,0.4-0.3,0.9-0.6,1.2c-0.1,0.2,0.2,0.3,0.3,0.2c0.3-0.4,0.5-0.8,0.6-1.3
							C102.5,205.3,102.2,205.2,102.1,205.4L102.1,205.4z"/>
					</g>
					<g>
						<path class="st0" d="M116.5,199.1c-2.8,0.1-5.5,0-8.3-0.2c-0.2,0-0.2,0.3,0,0.3c2.8,0.2,5.5,0.2,8.3,0.2
							C116.7,199.5,116.7,199.1,116.5,199.1L116.5,199.1z"/>
					</g>
					<g>
						<path class="st0" d="M116.5,209.9c-2.7,0.5-5.4,0.8-8.2,0.7c-2.7-0.1-5.7,0.5-8.3-0.1c-0.2,0-0.3,0.3-0.1,0.3
							c2.6,0.6,5.6,0.1,8.4,0.1c2.8,0,5.5-0.2,8.2-0.7C116.8,210.2,116.7,209.8,116.5,209.9L116.5,209.9z"/>
					</g>
				</g>
			</g>
			<g>
				<path class="st0" d="M99.9,158.7c0.8,0.1,1.5,0.2,2.2,0.4c0.2,0.1,0.3-0.3,0.1-0.3c-0.8-0.2-1.5-0.4-2.3-0.4
					C99.7,158.3,99.7,158.6,99.9,158.7L99.9,158.7z"/>
			</g>
			<g>
				<path class="st0" d="M103.3,158.9c0.8,0,1.7,0,2.5,0c0.2,0,0.2-0.3,0-0.3c-0.8,0-1.7,0-2.5,0
					C103.1,158.6,103.1,158.9,103.3,158.9L103.3,158.9z"/>
			</g>
			<g>
				<path class="st0" d="M107.2,158.9c0.8-0.1,1.7-0.2,2.5-0.2c0.2,0,0.2-0.4,0-0.3c-0.8,0.1-1.7,0.2-2.5,0.2
					C107,158.6,107,158.9,107.2,158.9L107.2,158.9z"/>
			</g>
			<g>
				<path class="st0" d="M111.5,158.8c0.7,0.1,1.5,0.1,2.2,0.1c0.2,0,0.2-0.4,0-0.3c-0.7,0.1-1.5,0-2.2-0.1
					C111.3,158.5,111.3,158.8,111.5,158.8L111.5,158.8z"/>
			</g>
			<g>
				<path class="st0" d="M115.3,158.9c0.8,0.1,1.6,0.1,2.4,0.2c0.2,0,0.2-0.3,0-0.3c-0.8-0.1-1.6-0.1-2.4-0.2
					C115.1,158.5,115.1,158.9,115.3,158.9L115.3,158.9z"/>
			</g>
			<g>
				<path class="st0" d="M119.6,159.1c0.7,0,1.5,0,2.2-0.1c0.2,0,0.1-0.4-0.1-0.3c-0.7,0.1-1.4,0.2-2.1,0.1
					C119.4,158.8,119.4,159.1,119.6,159.1L119.6,159.1z"/>
			</g>
			<g>
				<path class="st0" d="M125,158.7c0.7,0,1.3,0,2,0.1c0.2,0,0.3-0.3,0.1-0.3c-0.7-0.1-1.4-0.2-2.1-0.1
					C124.8,158.3,124.8,158.7,125,158.7L125,158.7z"/>
			</g>
			<g>
				<path class="st0" d="M128.7,158.5c0.8-0.1,1.7-0.3,2.5-0.4c0.2,0,0.1-0.4-0.1-0.3c-0.8,0.1-1.7,0.3-2.5,0.4
					C128.4,158.2,128.5,158.6,128.7,158.5L128.7,158.5z"/>
			</g>
			<g>
				<path class="st0" d="M132.7,158c0.8,0.1,1.6,0,2.3-0.2c0.2-0.1,0.1-0.4-0.1-0.3c-0.7,0.2-1.5,0.2-2.3,0.2
					C132.5,157.7,132.5,158,132.7,158L132.7,158z"/>
			</g>
			<g>
				<path class="st0" d="M136.7,158c0.7,0,1.4-0.1,2.1-0.1c0.2,0,0.2-0.4,0-0.3c-0.7,0-1.4,0.1-2.1,0.1
					C136.5,157.7,136.5,158,136.7,158L136.7,158z"/>
			</g>
			<g>
				<path class="st0" d="M140.1,157.9c0.9,0,1.7-0.1,2.6-0.2c0.2,0,0.1-0.4-0.1-0.3c-0.8,0.1-1.6,0.2-2.5,0.2
					C139.9,157.5,139.9,157.9,140.1,157.9L140.1,157.9z"/>
			</g>
			<g>
				<path class="st0" d="M144.1,157.8c0.4,0,0.8-0.1,1.3-0.1c0.2,0,0.2-0.4,0-0.3c-0.4,0-0.8,0.1-1.3,0.1
					C143.8,157.4,143.8,157.8,144.1,157.8L144.1,157.8z"/>
			</g>
			<rect x="109.8" y="39.6" class="st13" width="9.4" height="16.7"/>
			<path class="st7" d="M121.9,56.5c-2-3.5-4.1-7.1-6.6-10.3c-0.5-0.6-1-1.2-1.6-1.6c-0.7-0.4-1.5-0.5-2.1,0c-0.6,0.4-0.8,1.2-1,1.9
				c-0.4,1.5-0.9,3.1-0.5,4.6c0.2,0.8,0.5,1.6,0.9,2.3c1.1,2.1,2.1,4.2,3.2,6.3c2.7-0.6,5.4-1.4,8.1-2.4c-0.1,0-0.2,0-0.3,0"/>
			<path class="st9" d="M141.5,50.9c7.8,7.5,14.8,14.9,20,24.4c3,5.4,4.6,11.9,1.9,17.5c-2.4,5-9.3,7.4-14.7,6.7
				c-5.4-0.7-8.6-1.7-12.8-5.3c-10.1-8.6-21.8-21.7-23.8-35c3-0.8,8.7-2.8,11.5-4c0.2,4.2,11,19.9,15.2,24.3
				c1.6,1.6,4.6,3.4,6.8,3.9c7.1,1.7-2.4-7-2.4-7c-0.6-1.9-0.9-21.1-2-26.8"/>
		</g>
		<g>
			<circle class="st17" cx="55.8" cy="139.8" r="2.8"/>
			<circle class="st17" cx="53.9" cy="160" r="2.8"/>
			<circle class="st17" cx="72.3" cy="148" r="4.6"/>
			<path class="st9" d="M65.6,155.6c1.6,3,4.5,5.1,7.7,5.5c0.4-0.9,1.8-0.9,1.9,0.1c0.6,0,1.3-0.1,1.9-0.3c0.5-0.1,0.9-0.3,1.4-0.5
				c0.7-0.3,1.3-0.6,1.8-1.1c0.4-0.3,0.7-0.5,1-0.9c0.1-0.1,0.1-0.1,0.2-0.2c0.4-0.4,0.7-0.8,1-1.2c1.8-2.4,2.5-5.7,1.6-8.8
				c-0.4-1.6-1.2-3-2.2-4.1c-0.4-0.5-0.9-0.9-1.4-1.3c-0.4-0.3-0.8-0.6-1.2-0.8c-0.6-0.4-1.3-0.7-2-0.9c-1.4-0.4-2.9-0.6-4.3-0.4
				c-0.4,0.1-0.8,0.1-1.2,0.2c-0.4,0.1-0.8,0.2-1.2,0.4c-1.1,0.4-2.1,1.1-2.9,1.8c0.1,0.2,0.1,0.5,0.2,0.7
				C69.1,148.1,68.1,152.4,65.6,155.6z M71.5,144.6c2-0.5,4.1,0.7,4.6,2.7c0.6,2-0.6,4.1-2.6,4.7c-2,0.5-4.1-0.7-4.6-2.7
				C68.4,147.2,69.6,145.1,71.5,144.6z"/>
			<path class="st18" d="M76.3,190.9c-0.4-6.3-0.6-12.5-0.6-18.7c0-1.1,0-2.1,0-3.2c0-2.6,0.1-5.1,0.1-7.6c0-0.1,0-0.3,0-0.4
				c-0.2-1.3-1.7-1.6-2-0.3c0,0.1,0,0.2,0,0.4c-0.1,1.9-0.1,3.9-0.1,5.8c0,1,0,2.1,0,3.1c0,6.4,0.1,12.9,0.5,19.4
				c0.1,1.7,0.2,3.3,0.3,5c-0.5-2-1.1-3.9-1.6-5.9c-2.5-9.3-5.2-18.5-8.1-27.7c-0.2-0.7-0.4-1.3-0.6-2c-0.3-1.1-0.7-2.2-1-3.2
				c0-0.1-0.1-0.2-0.1-0.3c-0.5,0.5-1.1,0.9-1.6,1.3c3.1,9.9,6.1,19.8,8.9,29.8c1.1,4.1,2.3,8.3,3.3,12.4l3.2-0.8
				C76.6,195.6,76.5,193.3,76.3,190.9z"/>
			<path class="st18" d="M66.4,180.8c-1.1-2.5-2.2-5.1-3.3-7.5c-2.1-4.4-4.3-8.5-6.7-12.1c-0.5,0.7-1.1,1.2-1.8,1.5
				c4.1,5.8,7.6,13.2,10.8,20.9c2.1,5.2,4.2,10.4,6.2,15.7l2-0.5C71.2,192.7,68.9,186.7,66.4,180.8z"/>
			<path class="st9" d="M45.1,139.7c-1.6,2.9-2.2,6.5-1.2,10c0.3,0.9,0.6,1.8,1,2.7c1,2,2.5,3.6,4.2,4.8c0.9-0.8,2-1.5,3.3-1.8
				c3.3-0.9,6.8,0.6,8.6,3.4c0.5-0.2,0.9-0.4,1.3-0.6c0.6-0.3,1.2-0.7,1.7-1.1c1-0.7,1.8-1.5,2.5-2.4c2.5-3.2,3.5-7.5,2.4-11.7
				c-0.1-0.2-0.1-0.5-0.2-0.7c-2-6-7.8-9.7-13.8-9.1c-0.6,0.1-1.3,0.2-1.9,0.4C49.5,134.5,46.7,136.7,45.1,139.7z M58.1,139.1
				c0.3,1.2-0.4,2.4-1.5,2.7c-1.2,0.3-2.4-0.4-2.7-1.6c-0.3-1.2,0.4-2.4,1.5-2.7C56.6,137.2,57.8,137.9,58.1,139.1z"/>
			<path class="st9" d="M61.1,159.2c-0.2-0.8-0.6-1.6-1-2.3c-1.8-2.8-5.2-4.3-8.6-3.4c-1.3,0.3-2.4,1-3.3,1.8c-2.1,1.9-3,5-2.2,7.9
				c1.1,4.3,5.5,6.8,9.6,5.7c0.1,0,0.3-0.1,0.4-0.1c0.7-0.2,1.4-0.6,2-1C60.6,166,62,162.6,61.1,159.2z M52.4,160.9
				c-0.3-1,0.3-2,1.3-2.2c1-0.3,1.9,0.3,2.2,1.3c0.3,1-0.3,2-1.3,2.2C53.7,162.5,52.7,161.9,52.4,160.9z"/>
		</g>
		<g>
			<path class="st19" d="M178,118.7c0.8,0.1,1.7,0.1,2.5,0.2l1.2,0.1l1.2,0.1c1.6,0.2,3.3,0.4,4.9,0.6c0.2,0.7,0.6,1.5,1.5,2
				c0.8,0.4,1.7,0.5,2.4,0.1c0.4-0.2,0.6-0.5,0.8-0.8c0.1-0.2,0.1-0.4,0.2-0.5c0-0.2,0-0.4,0-0.6c-0.1-0.8-0.5-1.6-1.3-2.2
				c-0.4-0.3-0.8-0.4-1.2-0.5c-0.4-0.1-0.8,0-1.2,0.2c-0.7,0.3-1,0.8-1.2,1.4c-0.7-0.1-1.4-0.2-2-0.3c-0.7-0.1-1.4-0.2-2-0.3
				s-1.4-0.2-2.1-0.2c-0.7-0.1-1.4-0.1-2.1-0.2c-0.4,0-0.6-0.5-0.4-0.8l2-2.2c0.3-0.4,0.7-0.7,1-1.1l1-1.1c0.1-0.1,0.2-0.1,0.3-0.1
				c0.8,0.1,1.6,0.2,2.5,0.4c0.8,0.1,1.6,0.3,2.5,0.4c1.6,0.3,3.3,0.6,4.9,0.9c0.1,0.8,0.6,1.5,1.4,2c0.8,0.5,1.7,0.6,2.4,0.2
				c0.7-0.4,1.1-1.1,1.1-1.9c0-0.8-0.4-1.6-1.2-2.3c-0.7-0.6-1.6-0.7-2.4-0.5c-0.3,0.1-0.6,0.3-0.8,0.5c-0.2,0.2-0.3,0.5-0.4,0.8
				c-1.4-0.3-2.7-0.5-4.1-0.8c-1.4-0.2-2.8-0.5-4.1-0.7c-0.4-0.1-0.5-0.5-0.3-0.7l1-1l0.5-0.5l0.5-0.5l2-1.9l2-1.8l0.5-0.5l0.5-0.4
				l1-0.9c0.6,0.5,1.2,0.7,1.9,0.6c0.6-0.1,1.3-0.3,1.7-0.9c0.5-0.7,0.5-1.7,0.1-2.5c-0.4-0.8-1.1-1.3-1.8-1.5
				c-0.7-0.2-1.5-0.1-2.1,0.4c-0.9,0.7-1.1,2.1-0.5,3.1l-1,0.9l-0.5,0.5l-0.5,0.5l-2,1.9l-2,1.9l-0.5,0.5l-0.5,0.5l-1,1
				c-0.2,0.2-0.7,0.1-0.7-0.3c-0.2-1.4-0.4-2.9-0.6-4.3c-0.2-1.4-0.3-2.9-0.4-4.4c0.3-0.1,0.6-0.2,0.9-0.4c0.3-0.2,0.5-0.5,0.7-0.8
				c0.4-0.8,0.4-1.8-0.1-2.6c-0.5-0.8-1.3-1.3-2.2-1.3c-0.9,0-1.7,0.4-2.3,1.2c-0.5,0.8-0.5,1.8-0.1,2.6c0.4,0.9,1.2,1.3,2,1.4
				c0.2,1.7,0.3,3.4,0.6,5.2c0.1,0.9,0.2,1.7,0.3,2.5l0.2,1.3l0.2,1.3c0,0.1,0,0.3-0.1,0.3l-1,1.1l-0.5,0.5
				c-0.2,0.2-0.3,0.4-0.5,0.6c-0.7,0.7-1.4,1.5-2,2.2c-0.3,0.3-0.8,0.1-0.9-0.3l-0.2-1.1l-0.2-1c-0.1-0.7-0.3-1.4-0.4-2.1
				c-0.1-0.7-0.2-1.4-0.4-2.1c-0.1-0.7-0.2-1.4-0.3-2.1c0.6-0.2,1.2-0.6,1.5-1.4c0.2-0.4,0.2-0.8,0.2-1.3c0-0.4-0.2-0.9-0.4-1.3
				c-0.5-0.8-1.4-1.2-2.3-1.2c-0.2,0-0.4,0-0.6,0.1c-0.2,0.1-0.4,0.1-0.6,0.3c-0.4,0.2-0.7,0.5-1,1c-0.5,0.8-0.5,1.8,0,2.6
				c0.5,0.8,1.3,1.2,2.1,1.3c0.3,1.7,0.5,3.4,0.8,5.1l0.2,1.3l0.2,1.3c0.2,0.8,0.3,1.7,0.5,2.5c0,0.1,0,0.3-0.1,0.4l-0.5,0.6
				l-0.5,0.6l-1,1.2c-0.7,0.8-1.3,1.6-1.9,2.4c-0.2,0.2-0.6,0.1-0.7-0.2c-0.2-0.7-0.4-1.4-0.5-2.1c-0.2-0.7-0.4-1.4-0.5-2.1
				c-0.3-1.4-0.6-2.9-0.9-4.3c0.2-0.1,0.3-0.1,0.4-0.2c0.1-0.1,0.3-0.2,0.4-0.3c0.3-0.2,0.5-0.5,0.6-0.9c0.3-0.8,0.2-1.8-0.4-2.5
				c-0.6-0.8-1.5-1.1-2.3-1.1c-0.8,0.1-1.7,0.5-2.1,1.4c-0.4,0.8-0.3,1.8,0.2,2.6c0.5,0.8,1.4,1.2,2.1,1.2c0.7,3.4,1.5,6.8,2.4,10
				c0,0.1,0,0.2-0.1,0.3l-1,1.2c-0.3,0.4-0.6,0.8-0.9,1.2l-1.8,2.5c-0.2,0.3-0.6,0.2-0.7-0.1c-0.2-0.7-0.4-1.4-0.6-2.1
				c-0.2-0.7-0.4-1.4-0.6-2.1c-0.2-0.7-0.4-1.4-0.6-2.1c-0.2-0.7-0.4-1.4-0.6-2.1c0.6-0.3,1.1-0.7,1.4-1.5c0.3-0.8,0.1-1.8-0.5-2.5
				c-0.6-0.7-1.5-1.1-2.4-0.9c-0.9,0.1-1.6,0.6-2,1.5c-0.4,0.8-0.2,1.8,0.3,2.6c0.6,0.8,1.4,1.1,2.2,1.1c0.2,0.8,0.4,1.7,0.7,2.5
				c0.2,0.8,0.5,1.7,0.7,2.5c0.5,1.6,1,3.3,1.5,4.9c0,0.1,0,0.2,0,0.3c-0.6,0.8-1.2,1.7-1.7,2.5l-0.8,1.3l-0.8,1.3
				c-0.2,0.3-0.6,0.2-0.7-0.1c-0.3-0.7-0.5-1.4-0.8-2.1l-0.4-1l-0.4-1c-0.5-1.4-0.9-2.8-1.4-4.2c0.6-0.3,1.1-0.8,1.3-1.6
				c0.2-0.8,0-1.8-0.7-2.5c-0.7-0.7-1.6-1-2.4-0.8c-0.8,0.2-1.6,0.7-2,1.6c-0.2,0.4-0.2,0.9-0.1,1.3c0.1,0.4,0.3,0.9,0.6,1.2
				c0.6,0.7,1.5,1,2.3,1c0.3,0.8,0.5,1.7,0.8,2.5c0.3,0.8,0.6,1.6,0.8,2.4c0.6,1.6,1.2,3.2,1.8,4.8c0,0.1,0,0.2,0,0.3l-1.6,2.7
				l-1.6,2.7c-0.2,0.3-0.6,0.2-0.7-0.1c-0.6-1.3-1.2-2.7-1.7-4c-0.6-1.4-1.1-2.7-1.6-4.1c0.6-0.3,1-0.9,1.2-1.7
				c0.2-0.9-0.1-1.8-0.8-2.4c-0.7-0.7-1.6-0.9-2.5-0.7c-0.4,0.1-0.8,0.3-1.1,0.6c-0.3,0.3-0.6,0.7-0.7,1.2c-0.3,0.9,0,1.9,0.6,2.5
				c0.7,0.7,1.5,0.9,2.3,0.8l0.5,1.2c0.2,0.4,0.3,0.8,0.5,1.2c0.3,0.8,0.7,1.6,1,2.4c0.3,0.8,0.7,1.6,1,2.4c0.3,0.8,0.7,1.6,1.1,2.3
				c0,0.1,0,0.2,0,0.3c-0.2,0.5-0.5,0.9-0.7,1.4l-0.7,1.4l-0.7,1.4c-0.2,0.5-0.5,0.9-0.7,1.4c-0.1,0.3-0.5,0.3-0.7,0
				c-1.3-2.6-2.6-5.3-3.8-8c0.6-0.4,1-0.9,1.1-1.7c0.1-0.9-0.2-1.8-0.9-2.4c-0.7-0.6-1.7-0.8-2.5-0.5c-0.8,0.2-1.5,0.9-1.8,1.8
				c-0.2,0.9,0.1,1.9,0.7,2.5c0.7,0.7,1.6,0.8,2.4,0.7c0.7,1.6,1.4,3.2,2.2,4.7c0.8,1.6,1.5,3.1,2.3,4.6c0.1,0.1,0.1,0.2,0,0.3
				l-1.3,2.9l-1.3,2.9c-0.1,0.3-0.5,0.3-0.7,0c-0.7-1.3-1.4-2.5-2.2-3.8l-0.5-1l-0.5-1c-0.3-0.7-0.7-1.3-1-2
				c0.3-0.2,0.5-0.4,0.7-0.7c0.2-0.3,0.3-0.6,0.3-1c0.1-0.9-0.3-1.8-1-2.3c-0.8-0.6-1.7-0.7-2.5-0.4c-0.8,0.3-1.5,1-1.7,1.9
				c-0.2,0.9,0.2,1.9,0.9,2.4c0.7,0.6,1.6,0.8,2.4,0.6c0.4,0.8,0.8,1.5,1.2,2.3c0.4,0.8,0.8,1.5,1.2,2.3c0.4,0.8,0.8,1.5,1.3,2.2
				c0.4,0.7,0.9,1.5,1.3,2.2c0.1,0.1,0.1,0.2,0,0.3l-0.6,1.4l-0.6,1.4c-0.4,1-0.7,1.9-1.1,2.9c-0.1,0.3-0.5,0.3-0.7,0
				c-0.4-0.6-0.8-1.2-1.2-1.9c-0.4-0.6-0.8-1.2-1.2-1.9c-0.4-0.6-0.8-1.3-1.2-1.9c-0.4-0.6-0.8-1.3-1.1-1.9c0.5-0.4,0.9-1,0.9-1.8
				c0-0.4-0.1-0.9-0.3-1.3c-0.2-0.4-0.5-0.7-0.9-1c-0.8-0.5-1.8-0.6-2.5-0.3c-0.8,0.3-1.4,1.1-1.5,2c-0.1,0.5,0,0.9,0.2,1.3
				c0.2,0.4,0.5,0.8,0.8,1.1c0.8,0.6,1.7,0.7,2.4,0.4c0.9,1.5,1.8,3,2.7,4.4c0.9,1.5,1.9,2.9,2.8,4.3c0.1,0.1,0.1,0.2,0,0.3l-1,3
				l-0.1,0.4l-0.1,0.4l-0.2,0.8l-0.5,1.5c-0.1,0.3-0.5,0.3-0.7,0.1c-0.9-1.2-1.7-2.4-2.6-3.6c-0.4-0.6-0.8-1.2-1.3-1.8
				c-0.4-0.6-0.8-1.2-1.2-1.9c0.5-0.5,0.8-1.1,0.8-1.9c0-0.9-0.5-1.7-1.3-2.2c-0.8-0.5-1.8-0.5-2.6-0.1c-0.4,0.2-0.7,0.5-1,0.8
				c-0.1,0.2-0.2,0.4-0.3,0.6c-0.1,0.2-0.1,0.4-0.1,0.7c-0.1,0.9,0.4,1.8,1.1,2.3c0.8,0.5,1.7,0.6,2.4,0.3c0.5,0.7,1,1.4,1.4,2.2
				c0.5,0.7,1,1.4,1.5,2.1c0.5,0.7,1,1.4,1.5,2.1c0.5,0.7,1,1.4,1.5,2.1c0.1,0.1,0.1,0.2,0.1,0.3c-1.4,5-2.6,10.1-3.5,15.2l1.1,0.2
				c0.9-5.1,2.1-10.2,3.5-15.2c0-0.1,0.1-0.2,0.2-0.2l1.2-0.4c0.4-0.1,0.8-0.3,1.2-0.4c0.8-0.3,1.6-0.5,2.4-0.8
				c0.8-0.3,1.6-0.5,2.3-0.8c0.8-0.3,1.6-0.5,2.4-0.7c0.5,0.6,1.2,1.1,2.2,1.1c0.9,0.1,1.8-0.3,2.2-0.9c0.1-0.2,0.2-0.4,0.3-0.5
				c0.1-0.2,0.1-0.4,0.1-0.6c0-0.4-0.1-0.7-0.3-1.1c-0.4-0.7-1.1-1.3-2.1-1.4c-0.9-0.2-1.8,0.1-2.3,0.7c-0.5,0.5-0.6,1.2-0.4,1.8
				c-1.3,0.4-2.7,0.8-4,1.3c-1.3,0.4-2.7,0.9-4,1.4c-0.3,0.1-0.6-0.2-0.5-0.4l0.5-1.5c0.2-0.5,0.3-1,0.5-1.5c0.3-1,0.7-2,1-3
				c0-0.1,0.1-0.2,0.2-0.2c1.6-0.5,3.2-1,4.8-1.4c1.6-0.4,3.2-0.9,4.8-1.2c0.4,0.6,1.2,1.1,2.1,1.3c0.5,0.1,0.9,0,1.3-0.1
				c0.4-0.1,0.7-0.4,1-0.7c0.5-0.7,0.5-1.5,0.2-2.2c-0.4-0.7-1.1-1.3-2-1.5c-0.4-0.1-0.9-0.1-1.3,0c-0.4,0.1-0.8,0.3-1.1,0.6
				c-0.5,0.5-0.6,1.2-0.6,1.8c-0.7,0.2-1.4,0.3-2,0.5c-0.7,0.2-1.4,0.4-2.1,0.5c-0.7,0.2-1.4,0.4-2.1,0.6c-0.7,0.2-1.4,0.4-2,0.6
				c-0.3,0.1-0.6-0.2-0.5-0.5c0.3-1,0.7-1.9,1.1-2.9c0.2-0.5,0.4-1,0.6-1.4l0.6-1.4c0-0.1,0.1-0.2,0.2-0.2c0.8-0.2,1.6-0.4,2.4-0.6
				c0.8-0.2,1.6-0.4,2.4-0.6c0.8-0.2,1.6-0.3,2.4-0.5c0.8-0.2,1.6-0.3,2.4-0.5c0.4,0.7,1.1,1.2,2,1.4c0.9,0.2,1.8-0.1,2.3-0.7
				c0.5-0.6,0.6-1.4,0.3-2.2c-0.3-0.7-1-1.4-1.9-1.7c-0.9-0.3-1.8-0.1-2.4,0.5c-0.3,0.2-0.5,0.5-0.6,0.8c-0.1,0.3-0.1,0.6-0.1,0.9
				c-0.7,0.1-1.4,0.3-2.1,0.4l-1,0.2l-1,0.2c-1.4,0.3-2.8,0.6-4.2,0.9c-0.3,0.1-0.6-0.2-0.5-0.5c0.4-1,0.8-1.9,1.3-2.9l1.3-2.8
				c0-0.1,0.1-0.2,0.2-0.2c1.7-0.3,3.3-0.6,4.9-0.9c1.6-0.3,3.3-0.5,4.9-0.7c0.4,0.7,1,1.3,1.9,1.5c0.9,0.2,1.8,0,2.3-0.6
				c0.6-0.6,0.7-1.4,0.4-2.2c-0.3-0.7-0.9-1.4-1.8-1.8c-0.9-0.3-1.8-0.2-2.4,0.3c-0.6,0.5-0.8,1.1-0.7,1.7c-1.4,0.2-2.8,0.4-4.2,0.6
				c-0.7,0.1-1.4,0.2-2.1,0.3c-0.7,0.1-1.4,0.2-2.1,0.4c-0.3,0.1-0.6-0.3-0.4-0.5c0.2-0.5,0.4-0.9,0.7-1.4l0.7-1.4l0.7-1.4l0.7-1.4
				c0.1-0.1,0.2-0.2,0.3-0.2c0.8-0.1,1.7-0.2,2.5-0.3c0.8-0.1,1.7-0.2,2.5-0.3c1.7-0.2,3.3-0.3,4.9-0.5c0.3,0.7,0.9,1.3,1.9,1.6
				c0.9,0.3,1.8,0.1,2.4-0.4c0.3-0.3,0.5-0.6,0.6-1c0.1-0.4,0.1-0.8,0-1.1c-0.2-0.8-0.8-1.5-1.7-1.8c-0.8-0.3-1.8-0.3-2.4,0.2
				c-0.6,0.4-0.8,1-0.8,1.7c-2.8,0.2-5.6,0.5-8.4,0.8c-0.3,0-0.6-0.3-0.4-0.6l1.5-2.7l1.6-2.7c0.1-0.1,0.2-0.2,0.3-0.2
				c1.7-0.1,3.3-0.2,5-0.3c0.8,0,1.7-0.1,2.5-0.1c0.8,0,1.6-0.1,2.5-0.1c0.3,0.7,0.9,1.4,1.8,1.7c0.4,0.2,0.9,0.2,1.3,0.1
				c0.4-0.1,0.8-0.2,1.1-0.5c0.7-0.5,0.8-1.3,0.6-2.1c-0.2-0.8-0.8-1.5-1.6-1.9c-0.8-0.4-1.8-0.4-2.4,0.1c-0.6,0.4-0.9,1-0.9,1.6
				c-1.4,0-2.8,0.1-4.2,0.1l-1.1,0l-1.1,0.1c-0.7,0-1.4,0.1-2.1,0.1c-0.3,0-0.6-0.3-0.4-0.6l0.8-1.3l0.8-1.3l0.8-1.3
				c0.1-0.2,0.3-0.4,0.4-0.6l0.4-0.6c0.1-0.1,0.2-0.1,0.3-0.2c1.7,0,3.3-0.1,5-0.1c0.8,0,1.7,0,2.5,0c0.8,0,1.6,0,2.5,0.1
				c0.2,0.7,0.8,1.4,1.7,1.8c0.8,0.4,1.8,0.3,2.4-0.2c0.7-0.5,0.9-1.3,0.8-2.1c-0.1-0.8-0.7-1.6-1.5-2c-0.8-0.4-1.7-0.5-2.4-0.1
				c-0.6,0.4-0.9,0.9-1,1.6c-0.7,0-1.4,0-2.1-0.1c-0.7,0-1.4,0-2.1,0c-1.4,0-2.8,0-4.2,0c-0.3,0-0.6-0.4-0.4-0.6l1.8-2.5
				c0.6-0.8,1.3-1.6,1.9-2.5c0.1-0.1,0.2-0.1,0.3-0.1c3.4,0.1,6.6,0.3,9.9,0.6c0.2,0.7,0.7,1.4,1.6,1.9c0.8,0.4,1.8,0.4,2.4,0
				c0.7-0.5,1-1.2,0.9-2c-0.1-0.8-0.6-1.6-1.4-2.1c-0.8-0.5-1.7-0.5-2.4-0.2c-0.3,0.2-0.6,0.4-0.8,0.6c-0.1,0.1-0.2,0.3-0.2,0.4
				c-0.1,0.1-0.1,0.3-0.1,0.4c-1.4-0.1-2.8-0.2-4.2-0.3c-0.7,0-1.4-0.1-2.1-0.1c-0.7,0-1.4-0.1-2.1-0.1c-0.3,0-0.5-0.4-0.3-0.6
				l0.9-1.2c0.3-0.4,0.6-0.8,1-1.2l1-1.2l0.5-0.6l0.5-0.6C177.7,118.8,177.9,118.7,178,118.7z"/>
		</g>
		<g>
			<g>
				<g>
					<g>
						<path class="st20" d="M204.6,129.7c-3.9,2.2-7.4,4.5-10.6,6.7c-3.2,2.2-6.1,4.5-8.9,6.7c-0.7,0.6-1.4,1.1-2,1.7
							c-0.7,0.6-1.3,1.1-1.9,1.7c-1.3,1.1-2.5,2.2-3.7,3.3c-2.4,2.2-4.7,4.5-6.9,6.8c-0.6,0.6-1.1,1.2-1.6,1.7
							c-0.5,0.6-1.1,1.2-1.6,1.8c-0.5,0.6-1.1,1.2-1.6,1.8c-0.5,0.6-1.1,1.2-1.6,1.8c-2.1,2.5-4.2,5.1-6.3,7.9
							c-2.1,2.8-4.2,5.8-6.4,9.1c-2.1,3.3-4.3,6.8-6.5,10.7c-0.3,0.6,0.6,1.1,0.9,0.5c2.1-3.9,4.3-7.4,6.4-10.6
							c2.1-3.2,4.2-6.2,6.3-9c2.1-2.8,4.2-5.4,6.3-7.9c0.5-0.6,1.1-1.2,1.6-1.8c0.5-0.6,1.1-1.2,1.6-1.8c0.5-0.6,1.1-1.2,1.6-1.8
							c0.5-0.6,1.1-1.2,1.6-1.7c2.2-2.3,4.4-4.5,6.8-6.7c1.2-1.1,2.4-2.2,3.7-3.3c0.6-0.5,1.3-1.1,1.9-1.6c0.7-0.6,1.3-1.1,2-1.6
							c2.7-2.2,5.6-4.4,8.8-6.6c3.2-2.2,6.7-4.5,10.5-6.7C205.6,130.2,205.1,129.4,204.6,129.7z"/>
						<path class="st20" d="M157.1,173.6c1.1-0.3,2.3-0.6,3.4-0.8c1.2-0.2,2.3-0.3,3.5-0.3c1.2,0,2.4,0,3.5,0.1
							c0.6,0.1,1.2,0.1,1.8,0.2c0.6,0.1,1.2,0.2,1.7,0.3c1.9,0.4,2.7,2,2.6,3.4c-0.1,1.4-1.2,2.6-3.1,2.3c-1.2-0.2-2.3-0.5-3.5-0.8
							c-1.2-0.3-2.3-0.7-3.5-1.1C161.4,176,159.2,174.9,157.1,173.6z"/>
						<path class="st20" d="M161.6,166.3c0,0,0.2,0,0.6-0.1c0.4,0,0.9-0.1,1.6-0.1c0.7,0,1.4-0.1,2.3-0.1c0.9,0,1.8-0.1,2.8-0.1
							c0.5,0,1,0,1.5,0c0.5,0,1.1,0,1.6,0.1c1.1,0.1,2.1,0.1,3.2,0.2c2.1,0.2,4.1,0.6,5.7,1.1c0.9,0.3,1.4,0.8,1.8,1.4
							c0.4,0.6,0.5,1.3,0.4,1.9c-0.1,1.3-1.1,2.3-2.8,1.9c-1.6-0.3-3.5-0.9-5.5-1.6c-1-0.3-2.1-0.7-3.1-1c-1.1-0.4-2.1-0.7-3-1.1
							c-2-0.7-3.8-1.3-5-1.8C162.3,166.5,161.6,166.3,161.6,166.3z"/>
						<g>
							<path class="st20" d="M186.2,163.9c-0.7-0.1-1.3-0.3-2-0.5c-0.7-0.2-1.3-0.4-2-0.6c-1.4-0.4-2.7-0.9-4.1-1.4
								c-2.8-1-5.7-2.2-8.6-3.4c6.4-0.7,12.1-0.5,17.4,0.9c1.6,0.4,2.3,1.9,2.1,3.1c-0.1,0.6-0.3,1.2-0.8,1.5
								C187.6,164,187,164.1,186.2,163.9z"/>
						</g>
						<g>
							<path class="st20" d="M194.5,158.1c-5.8-1.5-11.7-4.1-18.2-7c0.4,0,0.9-0.1,1.3-0.1c0.4,0,0.9,0,1.3-0.1
								c0.9,0,1.7-0.1,2.5-0.1c1.7,0,3.3,0,4.9,0.2c0.8,0.1,1.6,0.1,2.3,0.2c0.8,0.1,1.5,0.2,2.3,0.4c0.7,0.1,1.5,0.3,2.2,0.5
								c0.7,0.2,1.5,0.4,2.2,0.6c1.7,0.5,2.3,2.1,2.1,3.5c-0.1,0.3-0.2,0.6-0.3,0.9c-0.2,0.3-0.4,0.5-0.6,0.7
								C196.1,158.2,195.4,158.4,194.5,158.1z"/>
						</g>
						<g>
							<path class="st20" d="M198.9,149.8c-1.1-0.3-2.2-0.6-3.4-1c-0.6-0.2-1.1-0.4-1.7-0.6c-0.6-0.2-1.2-0.5-1.8-0.7
								c-1.2-0.5-2.4-1-3.6-1.6c-1.3-0.6-2.6-1.1-3.9-1.7c0.7-0.1,1.5-0.1,2.2-0.2c0.7,0,1.4-0.1,2.1-0.1c0.7,0,1.3,0,2,0
								c0.6,0,1.3,0,1.9,0.1c0.6,0,1.2,0.1,1.8,0.2c0.6,0.1,1.2,0.2,1.8,0.3c1.2,0.2,2.3,0.5,3.4,0.8c1.5,0.4,2,1.8,1.8,2.9
								c-0.1,0.6-0.4,1.1-0.8,1.4C200.3,149.8,199.7,150,198.9,149.8z"/>
						</g>
						<path class="st20" d="M213.9,127.7c-3.6,1.8-7.4,3.2-11.3,3.9c2.7-3,6-5.5,9.7-7.2C214.4,123.4,215.9,126.7,213.9,127.7z"/>
						<path class="st20" d="M190.9,139.1c4.3-0.1,8.4-0.4,12.3,0.4c1.3,0.3,1.8,1.4,1.8,2.4c0,0.5-0.2,1-0.6,1.3
							c-0.3,0.3-0.8,0.5-1.5,0.4c-0.6-0.1-1.2-0.2-1.8-0.4c-0.6-0.2-1.3-0.4-2-0.6c-1.3-0.5-2.7-1-3.9-1.5c-1.2-0.5-2.3-1-3-1.4
							C191.4,139.3,190.9,139.1,190.9,139.1z"/>
						<path class="st20" d="M198.3,133.5c3.1,0.1,6,0,8.8,0.7c0.9,0.2,1.3,1,1.2,1.8c-0.1,0.7-0.7,1.4-1.6,1.2
							c-0.8-0.1-1.8-0.4-2.7-0.8c-0.9-0.4-1.9-0.8-2.7-1.2C199.6,134.3,198.3,133.5,198.3,133.5z"/>
						<path class="st20" d="M155.9,172.7c0-1.2,0-2.4-0.1-3.6c-0.1-1.2-0.2-2.4-0.4-3.6c-0.2-1.2-0.4-2.4-0.7-3.6
							c-0.1-0.6-0.3-1.2-0.5-1.8c-0.2-0.6-0.3-1.2-0.5-1.8c-0.6-1.9-2.4-2.4-3.9-1.8c-1.5,0.6-2.7,2.1-2.1,4.1
							c0.4,1.2,0.9,2.3,1.4,3.4c0.6,1.1,1.2,2.2,1.9,3.2C152.4,169.2,154,171.1,155.9,172.7z"/>
						<path class="st20" d="M162,166.6c0,0-0.1-0.8-0.2-2.1c-0.1-1.4-0.3-3.2-0.4-5.2c-0.1-1.1-0.2-2.1-0.3-3.2
							c-0.1-1.1-0.2-2.2-0.4-3.3c-0.2-2.2-0.6-4.3-1-6.1c-0.2-0.9-0.7-1.5-1.4-1.8c-0.6-0.3-1.4-0.4-2.1-0.2
							c-1.4,0.4-2.7,1.7-2.3,3.6c0.3,1.7,1,3.7,1.8,5.7c0.4,1,0.8,2.1,1.3,3.1c0.5,1,0.9,2,1.4,3c0.9,1.9,1.8,3.5,2.5,4.7
							c0.3,0.6,0.6,1.1,0.8,1.4C161.9,166.4,162,166.6,162,166.6z"/>
						<g>
							<path class="st20" d="M164.1,140.5c0.1,0.7,0.1,1.5,0.2,2.2c0.1,0.7,0.2,1.5,0.4,2.2c0.3,1.5,0.7,2.9,1.1,4.3
								c0.9,2.9,2.1,5.8,3.5,8.7c0.4-6.5,0.8-12.3,0.3-18.1c-0.1-1.8-1.6-2.5-2.9-2.4c-0.7,0.1-1.4,0.4-1.9,0.9
								C164.3,138.9,164,139.6,164.1,140.5z"/>
						</g>
						<g>
							<path class="st20" d="M172.6,131.5c-0.1,1.6,0,3.2,0.1,4.9c0.2,1.6,0.4,3.3,0.7,4.9c0.3,1.6,0.8,3.3,1.2,4.9
								c0.2,0.8,0.5,1.7,0.8,2.5c0.3,0.8,0.6,1.7,0.9,2.5c0.1-0.4,0.1-0.9,0.2-1.3c0.1-0.4,0.1-0.9,0.2-1.3c0.1-0.9,0.3-1.7,0.4-2.6
								c0.3-1.7,0.5-3.4,0.7-5c0.1-0.8,0.2-1.6,0.3-2.4c0.1-0.8,0.2-1.6,0.2-2.4c0.1-0.8,0.1-1.6,0.2-2.4c0-0.8,0.1-1.6,0.1-2.4
								c0.1-1.9-1.4-2.9-2.9-2.9c-0.4,0-0.8,0.1-1.1,0.2c-0.4,0.1-0.7,0.3-1,0.6C173.1,129.8,172.6,130.5,172.6,131.5z"/>
						</g>
						<g>
							<path class="st20" d="M183.2,128.2c-0.2,1.2-0.2,2.5-0.3,3.7c0,0.6,0,1.3,0,1.9c0,0.6,0.1,1.3,0.1,1.9c0.1,1.3,0.3,2.6,0.5,4
								c0.2,1.4,0.5,2.8,0.8,4.2c0.2-0.7,0.4-1.4,0.6-2.1c0.2-0.7,0.4-1.3,0.6-2c0.2-0.7,0.4-1.3,0.6-2c0.2-0.6,0.4-1.3,0.5-1.9
								s0.3-1.2,0.5-1.9c0.1-0.6,0.3-1.2,0.4-1.8c0.2-1.2,0.4-2.4,0.6-3.6c0.2-1.6-0.9-2.6-2.2-2.7c-0.6-0.1-1.3,0.1-1.8,0.4
								C183.7,126.8,183.3,127.4,183.2,128.2z"/>
						</g>
						<path class="st20" d="M190.9,139.1c1.4-4.1,3.3-7.8,4.5-11.8c0.4-1.3-0.4-2.3-1.4-2.6c-0.5-0.2-1.1-0.1-1.6,0.1
							c-0.5,0.2-0.9,0.7-1.2,1.3c-0.2,0.6-0.4,1.2-0.5,1.9c-0.1,0.7-0.2,1.4-0.3,2.1c-0.1,1.5-0.1,2.9,0,4.3
							c0.1,1.3,0.2,2.5,0.3,3.4C190.9,138.6,190.9,139.1,190.9,139.1z"/>
						<path class="st20" d="M198.8,134.2c1.1-2.8,2.6-5.5,3.6-8.3c0.3-0.9-0.2-1.7-1-1.9c-0.7-0.3-1.6,0-2,0.9
							c-0.3,0.8-0.5,1.8-0.6,2.9c-0.1,1-0.2,2.1-0.2,3C198.6,132.8,198.8,134.2,198.8,134.2z"/>
					</g>
				</g>
			</g>
		</g>
		<g>
			<path class="st2" d="M81.9,222c3.5-0.8,7.2-2,10.5-3.2c6.5-2.3,11.1-7,14.5-12.5c1.7-2.8,3.1-5.8,4.4-8.8
				c0.6-1.5,1.3-3.1,1.9-4.6c0.3-0.7,1-4,1.6-4.2c-2.6,0.9-5,1.9-7.3,3.3c-0.9,0.6-1.8,1.3-2.7,2c0,0-0.1,0-0.2,0.1
				c0.1-0.5,0.3-1,0.4-1.4c0.5-1.7,1-3.3,1.4-5c0.8-3.2,1.2-6.4,0.9-9.9c-0.2-2-0.5-4-1.4-6c-0.2-0.5-0.7-1-1.2-1.4
				c-0.1-0.1-0.5-0.1-0.6,0c-3.3,1.8-6.2,4-8.4,6.9c-0.6,0.8-1.1,1.7-1.6,2.6c-0.6,1.1-1.1,2.3-1.6,3.5c-0.5,1.2-0.7,2.5-1.1,3.8
				c-0.2,0.9-0.5,1.7-0.7,2.6c-0.1,0.4-0.2,0.9-0.4,1.3c-0.1-0.3-0.2-0.6-0.4-0.9c-2.3-5-5.8-9.2-10.4-12.8c-2.3-1.8-4.7-3.5-7-5.3
				c-0.6-0.4-1.1-0.9-1.7-1.3c-0.3-0.2-0.8-0.5-1-0.4c-0.4,0.2-0.7,0.6-0.6,1.2c0.1,0.4,0.2,0.8,0.2,1.3c0.4,3,0.7,6,1,9
				c0.3,2.7,1,5.3,2,7.9c1,2.5,2.3,4.8,3.7,7.1c0.2,0.3,0.4,0.6,0.6,1.1c-0.5-0.3-1-0.6-1.4-0.9c-0.7-0.4-1.3-0.9-2-1.2
				c-2.6-1.5-5.4-2.5-8.3-3.1c-3.9-0.7-7.8-0.8-11.5-0.2c-1.8,0.3-3.5,0.7-5.2,1.1c-0.4,0.1-0.7,0.3-1,0.5c-0.3,0.3-0.2,0.6,0.2,0.8
				c0.5,0.3,1.1,0.5,1.7,0.7c1.6,0.7,2.8,1.7,4.1,2.8c2.4,1.9,4.9,3.9,7.3,5.7c1,0.7,2.1,1.3,3.2,2c1.3,0.7,2.5,1.5,3.8,2.1
				c2.5,1.2,5.5,1.5,8,1.2c-2.9,1.7-5.6,3.6-8.1,5.7c-1.7,1.4-3.4,2.9-5.7,3.2C68.5,222.1,75.8,223.5,81.9,222z"/>
			<g>
				<g>
					<path class="st21" d="M96.3,202.3c0.2-0.9,0.4-1.7,0.6-2.6c0.1-0.3,0.2-0.5,0.5-0.6c2.2-0.9,3.9-2.3,5.7-3.6
						c0.4-0.3,0.8-0.6,1.1-1c0-0.1-0.1-0.1-0.1-0.2c-0.2,0.1-0.4,0.2-0.5,0.3c-1.3,0.8-2.5,1.6-3.8,2.4c-0.7,0.4-1.4,0.6-2.1,1
						c0,0-0.1-0.1-0.1-0.1c0.1-0.3,0.2-0.7,0.2-1c0.7-2.7,1.4-5.4,2.2-8.1c0.1-0.2,0.2-0.5,0.4-0.6c1.2-0.5,2.2-1.3,3.3-2
						c1.2-0.8,2.1-1.8,3.2-2.7c0.1-0.1,0.6-0.7,0.1-0.7c-0.2,0-0.5,0.3-0.7,0.5c-0.4,0.3-0.7,0.6-1.1,0.8c-1.4,0.9-2.8,1.8-4.3,2.7
						c-0.1,0-0.2-0.1-0.3-0.1c0-0.1,0.1-0.2,0.1-0.3c0.9-3.2,1.7-6.5,2.6-9.7c0.3-1.2,0.7-2.5,1-3.7c0.1-0.4,0.1-0.9,0.1-1.3
						c-0.1,0-0.1,0-0.2,0c-0.4,1.2-0.7,2.4-1.1,3.6c-0.4,1.2-0.9,2.4-1.3,3.7c-0.4,1.2-0.7,2.4-1.2,3.6c-0.8-2.5-1.3-5-1.9-7.5
						c-0.3,0.1-0.2,0.3-0.2,0.5c0,0.5,0.1,0.9,0.1,1.4c0.2,1.3,0.3,2.6,0.6,3.8c0.2,1,0.5,2.1,0.8,3.1c0.1,0.3,0.1,0.5,0.1,0.8
						c-0.7,2.2-1.4,4.3-2.1,6.5c0,0.1-0.1,0.1-0.2,0.2c-0.4-2.3-1.1-4.4-1.3-6.6c-0.2-2.1-0.2-4.3-0.5-6.4c0,0.1-0.1,0.2-0.1,0.3
						c-0.2,3-0.4,6.1,0.3,9.2c0.4,1.7,0.7,3.5,1,5.2c0,0.3,0,0.5-0.1,0.8c-1.2,4.4-2.4,8.7-3.6,13.1c-0.2,0.9-0.3,1.8-0.5,2.7
						c-0.1,0.3-0.1,0.6-0.2,1.1c-0.2-0.3-0.3-0.4-0.4-0.6c-1.5-2.8-3-5.7-4.6-8.5c-0.3-0.5-0.1-0.9,0-1.3c0.7-2.8,1.4-5.6,2.2-8.4
						c0.1-0.3,0.1-0.7,0.1-1c-1.3,2.8-2,5.8-3.2,8.7c-0.2-0.3-0.3-0.4-0.4-0.6c-0.6-1.2-1.2-2.4-1.8-3.5c-0.5-0.9-0.7-1.7-0.7-2.6
						c-0.2-2-0.4-3.9-0.6-5.9c-0.3-2.2-0.6-4.4-1-6.5c0-0.3-0.1-0.3-0.4-0.7c0,1.3,0.3,2.6,0.4,3.9c0.1,1.3,0.2,2.6,0.3,3.9
						c0.1,1.3,0.3,2.5,0.1,3.8c-0.1-0.2-0.2-0.4-0.3-0.6c-0.6-1.2-1.1-2.4-1.6-3.6c-0.1-0.3-0.3-0.7-0.3-1c-0.2-2.3-0.4-4.6-0.6-6.9
						c0-0.5,0-1-0.3-1.7c-0.3,0.6-0.1,1.2-0.2,1.7c0,0.5,0,1.1,0,1.7c0,0.6,0,1.1,0,1.7c0,0.5,0,1.1-0.1,1.6
						c-0.5-0.8-0.9-1.7-1.4-2.5c-1.9-3.2-3.9-6.4-6.3-9.4c-0.3-0.3-0.6-0.7-0.8-1c-0.1-0.1-0.1-0.1-0.6-0.1c1.4,1.5,2.4,3.1,3.4,4.8
						c2.5,3.8,4.6,7.8,6.4,11.8c0,0.1,0.1,0.2,0.2,0.5c-3-2.6-6-5.2-9-7.9c0.1,0.3,0.1,0.5,0.2,0.6c0.5,0.5,1,1,1.5,1.5
						c0.4,0.4,0.8,0.8,1.3,1.2c1.2,1.1,2.3,2.1,3.5,3.2c1.1,1,2.1,2.1,3.2,3.2c0.2,0.2,0.4,0.5,0.5,0.7c1,2.1,2,4.2,2.9,6.3
						c0,0.1,0.1,0.1,0,0.2c-3.8-2.8-7.5-5.9-11.2-8.8c0,0.4,0.4,0.7,0.7,0.9c2.1,1.9,4.1,3.7,6.2,5.5c1.1,0.9,2.1,1.9,3.2,2.8
						c0.5,0.5,1.1,0.9,1.7,1.3c0.2,0.2,0.4,0.3,0.5,0.6c2,3.8,4,7.7,6.1,11.5c0.1,0.1,0.1,0.3,0.2,0.5c-0.2-0.1-0.4-0.1-0.5-0.2
						c-4.4-2.2-8.9-4.4-13.3-6.6c-0.5-0.3-0.9-0.6-1.2-1.1c-0.7-1-1.5-2-2.3-3c-1.9-2.4-4-4.7-6.4-6.7c-0.4-0.3-0.8-0.7-1.3-0.8
						c1.8,1.5,3.2,3.2,4.7,4.8c1.5,1.7,2.8,3.6,4.2,5.6c-0.5-0.2-0.8-0.4-1.1-0.5c-0.4-0.2-0.7-0.4-1.1-0.5c-0.5-0.2-0.9-0.6-1.1-1
						c-0.4-0.9-1-1.6-1.7-2.3c-1.9-2.3-4-4.4-6.3-6.4c-0.1-0.1-0.3-0.2-0.4-0.3c-0.1,0-0.1,0-0.4-0.1c1,1,1.9,1.9,2.7,2.9
						c0.9,0.9,1.7,1.9,2.5,2.9c0.8,1,1.6,2.1,2.3,3.2c-2-0.9-4-1.8-6-2.7c-2.4-1.1-4.7-2.3-7.2-3c-2.3-0.7-4.6-0.9-6.9-1.1
						c2.3,0.2,4.5,0.8,6.8,1.7c2.1,0.8,4.2,1.5,6.2,2.5c6.8,3.2,13.4,6.8,20.1,10.2c2.5,1.3,5,2.5,7.5,3.7c0.2,0.1,0.4,0.3,0.6,0.4
						c0.7-0.7,1.3-1.4,2-2.1c0.4-0.5,0.2-2.2,0.5-2.9c0.2-0.6,0.6-1.2,0.8-1.9C95.8,204.9,96,203.6,96.3,202.3z"/>
				</g>
				<g>
					<path class="st21" d="M92.4,212.3c-7.8,0.6-14.2,4.3-21.6,5.7c-2.1,0.4-4.1,0.6-6.3,0.4c-0.1,0-0.1-0.1,0-0.2
						c3.8-0.3,7.4-1.2,11-2.2c3.6-1.1,7-2.4,10.7-3.3c2-0.5,4.1-0.8,6.3-0.8C92.5,211.8,92.6,212.3,92.4,212.3L92.4,212.3z"/>
				</g>
				<g>
					<path class="st21" d="M79.7,215.2c-0.8,1.6-1.8,3.1-3.1,4.4c-1,1-2.4,2.3-4,2.3c-0.2,0-0.4-0.3-0.2-0.4c0.6-0.4,1.3-0.6,1.9-1
						c0.7-0.4,1.3-0.9,1.9-1.4c1.2-1.2,2.2-2.6,3.1-4C79.4,214.8,79.8,215,79.7,215.2L79.7,215.2z"/>
				</g>
				<g>
					<path class="st21" d="M71.4,214.2c0.7,0.1,1.5,0.4,2.2,0.7c0.8,0.3,1.6,0.5,2.4,0.8c0.4,0.1,0.3,0.7-0.1,0.6
						c-0.8-0.2-1.6-0.5-2.4-0.8c-0.7-0.3-1.5-0.5-2.1-1C71.3,214.3,71.3,214.2,71.4,214.2L71.4,214.2z"/>
				</g>
			</g>
			<g>
				<path class="st21" d="M74.5,203.9c-2.2,0.2-4.3,0.5-6.5,0.5c-2,0-4.5-0.1-6.5-1.1c-0.2-0.1-0.1-0.4,0.1-0.4
					c1,0.1,2.1,0.3,3.1,0.5c1.1,0.1,2.1,0.2,3.2,0.2c2.2,0,4.3,0,6.5-0.1C74.6,203.4,74.8,203.8,74.5,203.9L74.5,203.9z"/>
			</g>
		</g>
		<g>
			<path class="st22" d="M206.6,201c-0.1-0.7-0.3-1.4-0.7-2c-1.2-2.1-3.5-3.5-5.9-3.8c-2.4-0.3-4.9,0.5-7,1.7
				c1.4-1.5,2.4-3.3,2.4-5.3c0-3-2.3-5.3-5-6.1c-3.4-1.1-7.2-0.2-10.5,0.8c-3.2,0.9-6.2,2.2-9.1,3.9c-1.6,0.9-3.1,1.9-4.5,3
				c0.2-0.5,0.4-1,0.5-1.6c0.2-1.1,0.2-2.2-0.3-3.3c-0.4-0.9-1-1.7-1.8-2.4c-1.6-1.4-3.7-2.1-5.8-2c-2.7,0.1-5.2,1.2-7.5,2.4
				c-0.4,0.2-0.7,0.4-1,0.6c0,0,0-0.1,0-0.1c0.4-1.8,0.4-4.2-0.9-5.6c-0.8-0.8-1.8-1-2.8-0.8c-1.1,0.2-2.2,0.6-3.1,1.1
				c-1.9,0.9-3.7,2-5.3,3.4c-0.8,0.7-1.6,1.5-2.3,2.3c1-2.1,1.8-4.3,2.5-6.5c0.5-1.7,0.9-3.5,1.2-5.3c0.3-1.6,0.4-3.5-0.6-4.9
				c-0.4-0.6-1-1.1-1.6-1.3c-0.7-0.3-1.5-0.2-2.2,0.1c-0.8,0.3-1.4,0.8-2.1,1.3c-0.6,0.5-1.2,1-1.8,1.6c-2.1,2-3.8,4.4-5.1,7
				c-0.2-0.6-0.5-1.1-0.9-1.6c-0.7-0.9-1.7-1.4-2.9-1.1c-1.1,0.3-2,1.3-2.7,2.2c-1.5,2-2.7,4.4-3.4,6.8c-0.5,1.6-0.7,3.3-0.8,5
				c-2.9,1-5.6,2.6-7.8,4.7c-1.3,0.5-2.5,1.2-3.6,2c-1.9,1.3-3.7,3-5.1,4.8c-1.5,2-2.9,4.5-3.1,7.1c-0.1,2.3,0.9,4.5,2.6,6
				c6.2,5.8,17.1,2.5,24.3,0.8c3.3-0.8,6.5-1.7,9.7-2.8c2.4,0.8,4.9,1.1,7.4,1.1c0,0,0,0,0.1,0.1c0.6,0.7,1.5,1.1,2.4,1.4
				c1.1,0.3,2.3,0.5,3.5,0.6c12.6,1.4,27.6-1.6,40-4.1c5.4-1.1,18.1-2.9,20.5-8.9C206.8,202.6,206.9,201.7,206.6,201z"/>
			<g>
				<path class="st23" d="M113.3,201.1c2.5-2.9,5.5-5.3,8.9-7.1c0.8-0.4,1.7-0.8,2.6-1.2c0.9-0.4,1.9-0.7,2.9-0.9
					c0.9-0.1,1.9,0,2.7,0.6c0.6,0.5,1.1,1.3,1.3,2c0.6,2.2-0.5,4.5-1.5,6.4c-0.1,0.2,0.2,0.5,0.4,0.2c0.9-1.2,2-2.2,3.1-3.1
					c1.1-0.8,2.4-1.6,3.8-1.8c0.6-0.1,1.3-0.1,1.8,0.1c0.6,0.2,1.1,0.8,1.3,1.4c0.2,0.7,0.3,1.4,0.3,2.1c0,0.8,0,1.7-0.1,2.5
					c-0.2,1.9-0.6,3.7-1.3,5.5c-0.1,0.2,0.2,0.4,0.4,0.2c2.4-2.2,5-4.6,8.4-4.9c1.5-0.1,3,0.2,4.2,1c1.3,0.9,2,2.4,2.2,4
					c0.3,2.1-0.2,4.2-0.7,6.2c-0.1,0.3,0.3,0.4,0.4,0.1c0.5-1.9,1-3.9,0.8-5.9c-0.1-1.6-0.7-3.3-1.9-4.4c-1.1-1.1-2.7-1.6-4.3-1.6
					c-1.6,0-3.2,0.5-4.6,1.3c-1.8,1-3.3,2.3-4.7,3.7c0.1,0.1,0.2,0.2,0.4,0.2c0.6-1.7,1.1-3.4,1.3-5.1c0.1-0.9,0.2-1.8,0.2-2.7
					c0-0.8,0-1.6-0.2-2.3c-0.2-0.7-0.6-1.3-1.2-1.7c-0.5-0.3-1.2-0.5-1.9-0.4c-1.5,0.1-2.8,0.8-4,1.5c-1.5,1-2.8,2.2-3.8,3.6
					c0.1,0.1,0.2,0.2,0.4,0.2c0.9-1.9,2-3.9,1.7-6.1c-0.3-1.7-1.4-3.3-3.2-3.6c-1.1-0.2-2.2,0.1-3.3,0.5c-1,0.3-1.9,0.7-2.8,1.1
					c-1.8,0.8-3.5,1.9-5.2,3.1c-1.8,1.4-3.5,2.9-4.9,4.6C112.8,201.1,113.1,201.3,113.3,201.1L113.3,201.1z"/>
			</g>
		</g>
	</g>
</g>
</svg>
