<?xml version="1.0" encoding="utf-8"?>
<!-- Generator: $$$/GeneralStr/196=Adobe Illustrator 27.6.0, SVG Export Plug-In . SVG Version: 6.00 Build 0)  -->
<svg version="1.1" id="圖層_1" xmlns="http://www.w3.org/2000/svg" xmlns:xlink="http://www.w3.org/1999/xlink" x="0px" y="0px"
	 viewBox="0 0 240 240" style="enable-background:new 0 0 240 240;" xml:space="preserve">
<style type="text/css">
	.st0{fill:#FFFFFF;}
	.st1{fill:#36754A;}
	.st2{fill:#56AB6E;}
	.st3{fill:#F9BE33;}
	.st4{fill:#D1ECF2;}
	.st5{fill:#194E60;}
	.st6{fill:#DD7C7C;}
	.st7{fill:#FB9F9F;}
	.st8{fill:#1A2042;}
	.st9{fill:#FFCC00;}
	.st10{fill:#EC6060;}
	.st11{fill:#3F96D2;}
</style>
<g>
	<g>
		<path class="st0" d="M228.5,153.1c-0.8-1.2-2.1-1.8-3.6-1.8c-1.5,0-3,0.7-4.2,1.9c-1,0.9-2,1.9-2.9,2.9c0.1-1.1,0.2-2.7-0.8-4.1
			c-0.9-1.3-2.4-2.1-4.1-2.1c0,0,0,0,0,0c-0.6,0-1.1,0.1-1.7,0.3c0.6-2.4,1.1-4.8,1.6-7.1c1.6-8.7,2-17.1,1.1-25
			c-0.1-1-0.2-2.1-0.4-3.3c-0.2-1.2-0.6-2.9-2.1-4.3c-1.3-1.3-3-2-5-2c-1.2,0-2.5,0.3-3.6,0.8c-1.9,0.9-3.4,2.3-4.5,3.5
			c-0.2,0.2-0.4,0.4-0.6,0.6c-1.4,1.3-2.7,2.6-4.1,4c-5,5.2-9.8,11.1-14.1,17.4c-0.3,0.5-0.7,1-1,1.5c0,0,0,0,0,0
			c-0.2-0.1-0.3-0.3-0.5-0.5c0,0,0-0.1,0-0.1c0-0.1-0.6-12.4-3.4-15.1c-1.1-1.1-2.5-1.6-4-1.6c-1.4,0-2.7,0.5-3.8,1.2
			c-0.4-1.4-0.7-3.1-1.1-5c-1.5-7.8-3.6-18.5-12.5-27.2c-2-2-3.3-4.3-4-7.2c0.6-6.2-0.3-12.5-2.4-18.2c1,0.2,2,0.3,2.8,0.3
			c0.3,0,0.6,0,0.9,0l0.1,0c0.7,0,1.5,0.3,2,0.9c0.1,0.1,0.3,0.3,0.5,0.5c0.5,0.6,1.1,1.3,1.9,1.9c1.5,1.1,3.3,1.7,5.3,1.7
			c1.2,0,2.4-0.2,3.9-0.6c0.2-0.1,0.5-0.1,0.7-0.2c1-0.3,1.9-0.5,2.6-0.5c0.2,0,0.3,0,0.4,0c0.3,0.1,0.8,0.4,1.3,0.7
			c0.7,0.5,1.6,1,2.7,1.5c0.9,0.3,1.8,0.5,2.7,0.6c-0.2,0.1-0.4,0.3-0.5,0.4c-3.6,2.7-5.5,5.3-6.4,7.7c-0.1,0-0.2,0-0.2,0
			c-2.2,0-4.3,0.7-6.1,1.9c-3.4,2.5-5.1,7.1-4.2,11.3c0.4,1.8,1.9,3,3.7,3.1c14.4,0.7,29,1.1,43.5,1.1c3.8,0,7.7,0,11.5-0.1
			c1.7,0,3.2-1.1,3.8-2.8l0,0c0.1-0.3,0.2-0.6,0.2-1c0.2-3.5-1.1-7.1-3.7-9.9c-2.2-2.4-5.1-3.8-8-4.1c-1.8-2.6-4.8-4.4-8.2-4.5
			c-0.4-1-0.9-2-1.5-2.9c-2.2-3.1-5.7-5.1-9.3-5.4c-0.4,0-0.9-0.1-1.3-0.1c0,0,0,0,0,0c-1.4,0-2.8,0.2-4.1,0.5
			c2.2-3.3,2.4-7.9,0.6-11.6c-1.5-3-4-4.8-6.8-4.9c0,0,0,0-0.1,0c-2.2,0-3.9,1.1-5,1.9c-0.1,0.1-0.2,0.1-0.2,0.2c-0.4-0.8-1-2-2.2-3
			c-1.1-0.9-2.6-1.4-4.1-1.4c-1.1,0-2.4,0.3-3.6,0.8c-0.2,0.1-0.3,0.1-0.5,0.2c-0.3,0.1-0.6,0.3-0.9,0.3c-0.2-0.2-0.6-0.6-0.8-0.9
			l-0.2-0.2c-0.7-0.9-2.9-3.5-6.3-3.5c-0.2,0-0.4,0-0.6,0c-1.3,0.1-2.4,0.7-3.1,1.1c-0.2-0.6-0.5-1.4-1.1-2.1
			c-1.5-2.2-3.9-3.5-6.8-3.7c-0.2,0-0.4,0-0.6,0c0,0,0,0,0,0c-2.6,0-5.2,1-7,2.7c-2.1,2-3.1,4.8-2.8,7.6c0,1.1,0.2,2.3,0.6,3.5
			c0.2,3.2,1.2,5.8,3.1,7.5c0,0.2,0,0.4,0,0.6c-0.7,0.7-1.3,1.3-1.9,1.9c-0.2,0.2-0.4,0.4-0.6,0.7c-0.1,0.2-0.2,0.3-0.3,0.4
			c-0.3,0.5-0.6,1.1-0.9,1.7c-0.1,0.1-0.1,0.3-0.2,0.4c-10.2,11.7-21.8,20.9-34.5,27.5c0,0,0,0-0.1,0c-2.7,0-5.3,1.3-7,3.4
			c-1,1.2-1.6,2.8-1.8,4.4c-2.7,1.9-3.1,4.4-3.1,5.9c0,1.6,0.6,3,1.5,4c-0.8,3.6-1.7,7.1-2.4,10.6c-5,0-9.6-0.2-14-0.6
			c-0.2,0-0.3,0-0.5,0c-2.6,0-4.7,2.1-4.7,4.7l0,0.5c0,0.3,0,0.6,0,0.9c-3.4-5.5-6.7-10.1-10.2-14c-2.8-3.1-5.7-5.9-8.6-8.3
			c-0.8-0.6-1.6-1.3-2.5-1.9l-0.4-0.3c-0.7-0.5-1.5-1.1-2.4-1.6c-1-0.5-2-0.8-3-0.8c-1.4,0-2.6,0.5-3.7,1.4
			c-1.5,1.3-2.1,2.9-2.4,3.8c-1.5,4.2-2,8.9-1.6,14.9c0.3,4,0.8,8.1,1.7,12.7c0.3,1.5,0.6,3,1,4.5c-0.4-0.1-0.8-0.1-1.3-0.1
			c-0.3,0-0.6,0-0.9,0.1c-1.5,0.2-4.2,1.3-5.1,5.6c-0.3,1.4-0.4,2.9-0.5,4.5c0,1,0,2,0,3c-0.7-0.4-1.4-0.8-2.1-1.1
			c-0.9-0.5-1.7-0.9-2.5-1.2l-0.2-0.1c-0.7-0.3-1.7-0.8-3-0.9c-0.2,0-0.4,0-0.6,0c-1.6,0-3,0.6-4.1,1.7c-1.1,1.2-1.8,2.9-1.7,4.6
			c0.1,2.5,1.3,4.4,2.1,5.8c0.8,1.3,1.7,2.7,2.6,4c1.7,2.6,3.6,5.1,5.6,7.6c4,4.9,8.3,9.6,13.1,13.8c1.8,1.6,3.7,3.2,5.9,4.9
			c-3,1.3-5.7,2.6-8.1,4.1c-5.3,3.3-5.6,7.2-5.3,9.2c0.7,4.9,5.8,8.9,14.8,11.6l0.3,0.1c11.7,3.4,25,5.4,38.6,5.9
			c1.6,0.1,3.1,0.1,4.5,0.1c5.5,0,8.9-0.4,12.4-0.8c3.9-0.5,7.9-0.9,15.6-0.9l0.3,0c10.9,0,17,0.9,23.4,1.9c6.2,1,12.7,2,23.6,2
			l0.6,0c14.7,0,27.9-1.6,38.3-4.5c3.4-0.9,6.4-2,9.1-3.2c6.7-2.9,8.2-6.7,8.3-9.4c0.1-2.6-0.9-6.3-6.8-9.6
			c-0.2-0.1-0.5-0.3-0.7-0.4c-1.4-0.8-3-1.5-4.8-2.1c3.3-2.7,6.4-5.7,9.2-8.8c3.5-3.9,6.7-8.2,9.3-12.8c1.4-2.3,2.6-4.7,3.7-7.1
			l0.2-0.4c0.6-1.3,1.7-3.7,2.5-5.9C229.5,155.8,229.3,154.3,228.5,153.1z"/>
		<path class="st0" d="M28.5,77.2c0.7,1.1,2,1.8,3.3,1.8c0,0,0.1,0,0.1,0c5.6-0.2,13.2-0.3,22.7-0.3c17.7,0,36.1,0.3,36.3,0.3
			c0,0,0,0,0.1,0c1.5,0,2.9-0.9,3.6-2.3c1.7-3.5,0-7.4-2.3-9.4c-0.4-0.4-0.9-0.7-1.4-1c0.2-5.7-1.5-11.6-4.9-15.9
			c-3.6-4.6-9.1-7.4-14.6-7.4c-1.4,0-2.7,0.2-4,0.5c-1,0.2-2,0.6-2.9,1c-1.6-1.5-3.6-2.4-5.7-2.4c-0.2,0-0.4,0-0.5,0
			c-1.7,0.1-3.2,0.8-4.5,1.9c-2.4-1.8-5.4-2.9-8.5-2.9c0,0,0,0,0,0c-2.7,0-5.3,0.8-7.5,2.4c-5,3.6-7.5,10.8-6.4,17.2
			c-1.8,1.1-3.2,2.7-4.1,4.8c-1.6,3.6-1.2,8,0.8,11.2L28.5,77.2z"/>
	</g>
	<g>
		<g>
			<path class="st1" d="M213.6,154.1c-1-1.5-5.8,2.4-6.9,3.6c-5.9,5.9-11.4,12.3-16.2,19.1c-2.2,3-4.2,6.1-6.2,9.3
				c-1,1.7-2,3.3-2.9,5c-1,1.1-1.8,2.4-2.1,3.9c-0.1,0.3-0.3,0.6-0.4,0.8c-0.2,0.4-0.4,0.8-0.6,1.2c-0.2,0.3,0.4,0.5,0.5,0.2
				c0.2-0.3,0.3-0.7,0.5-1c0.1,0.9,0.5,1.8,1.2,2.5c0.6,0.6,1.4,0.9,2.3,1c1.8,0.2,3.7-0.3,5.3-1.2c2-1.1,3.9-2.4,5.6-4
				c3.5-3.1,6.3-6.9,8.8-10.9c5.2-8.5,9-17.9,11.2-27.7C213.9,155.1,213.9,154.5,213.6,154.1z"/>
			<path class="st1" d="M69,188.8c-0.3-1.2-0.8-2.3-1.4-3.3c-0.6-1.1-1.3-2.2-2-3.3c-4.4-7.3-9.3-14.7-14.3-21.8
				c-4.7-6.8-9.6-14.7-17-18.9c-0.6-0.3-1.1-0.6-1.7-0.8c-0.5-0.2-1.1-0.4-1.7-0.3c-1.2,0.2-1.6,1.4-1.8,2.4
				c-0.2,1.3-0.4,2.5-0.4,3.8c-0.4,16.5,10.6,33.9,20.5,46.3c2.4,3,7.1,5.1,11.1,4.9c2.2-0.1,4.4-1,6.1-2.5c0.9-0.8,1.8-1.8,2.2-2.9
				C69.2,191.2,69.3,190,69,188.8z"/>
			<path class="st2" d="M171.7,123.3c-1.7-1.7-4.3,1.2-5.7,2.6c-1,1-2.5,3.4-3.2,4.6c-0.8,1.3-1.5,2.7-2.2,4.1
				c-2.8,5.5-5.2,11.2-7.2,17.1c-2,5.9-3.6,11.8-5,17.9c-1.4,6.1-2.4,12.2-3.4,18.3c-0.5,3.1-0.9,6.2-1.3,9.3
				c-0.4,3.3-0.9,6.6-0.7,9.8c0.1,1.5,0.3,3.1,0.8,4.5c-0.1,0.2-0.2,0.5-0.3,0.7c-0.1,0.2,0.1,0.5,0.3,0.4c5.4-2.2,9-7.5,11.9-12.4
				c3.2-5.4,5.6-11.3,7.7-17.2c2.2-6.1,4.2-12.2,6-18.5c1.8-6.3,3.2-12.8,3.9-19.3c0.3-3.2,0.5-6.4,0.5-9.6
				C173.8,132.8,172.5,124.1,171.7,123.3z"/>
			<path class="st2" d="M209.8,118.4c-0.1-1-0.2-2-0.4-3.1c-0.1-0.8-0.4-1.6-0.9-2.2c-1.1-1-2.8-1-4.1-0.4c-1.6,0.8-2.9,2.1-4.1,3.3
				c-1.3,1.3-2.6,2.6-3.9,3.9c-5,5.2-9.6,10.9-13.7,16.9c-4.1,6-7.7,12.3-10.9,18.8c-3.1,6.4-5.8,13-8.2,19.8c0.1,0.2,0.2,0.5,0,0.8
				c-0.4,0.7-0.7,1.4-1,2.1c-2,6-3.8,12.1-5.3,18.2c-0.4,3.1-0.6,6.2-0.4,9.3c3-1,6.1-1.9,9.2-3c3.5-1.2,7-2.7,10.2-4.6
				c6-3.6,11.2-8.6,15.4-14.2c4.5-6,7.9-12.7,10.7-19.7c2.8-7.2,5.1-14.7,6.5-22.3C210.2,134.4,210.7,126.3,209.8,118.4z"/>
			<path class="st2" d="M225.2,156c-0.8,2.3-2,4.8-2.5,5.9c-1.1,2.3-2.2,4.5-3.5,6.7c-2.6,4.3-5.5,8.4-8.9,12.1
				c-3.3,3.7-7,7.2-11,10.2c-4,3-8.3,5.7-12.8,7.8c-5.3,2.6-11.1,4.8-17.1,4.7c-0.3,0-0.7,0-1,0c0.2-0.4,0.4-0.7,0.6-1
				c0.6-0.9,1.3-1.8,2.1-2.5c1.6-1.6,3.5-2.8,5.3-4c2-1.2,4.1-2.4,6.1-3.6c2.2-1.4,4.3-2.8,6.4-4.3c4.2-3.1,8.2-6.4,12-9.8
				c3.9-3.5,7.6-7.1,11.3-10.8c1.8-1.9,3.7-3.7,5.5-5.6c1.9-1.9,3.8-3.8,5.7-5.7C224.4,155.1,225.6,155,225.2,156z"/>
			<path class="st2" d="M97,204.4c-1.8-8.3-5.4-16-8.9-23.6c-3.9-8.4-8-16.8-12.2-25.1c-3.7-7.4-7.4-14.8-11.4-22
				c-3.8-6.7-8-13.2-13.1-19c-2.5-2.8-5.2-5.5-8.1-7.8c-0.8-0.6-1.5-1.2-2.3-1.7c-0.8-0.6-1.6-1.1-2.4-1.6c-0.7-0.4-1.5-0.5-2.2,0.1
				c-0.6,0.5-0.9,1.3-1.2,2.1c-1.5,4.2-1.7,8.8-1.4,13.3c0.3,4.1,0.9,8.2,1.7,12.2c1.5,7.8,3.8,15.3,6.9,22.6
				c3.1,7.3,7,14.3,11.6,20.8c4.7,6.6,10.1,12.8,16.4,17.8c1.5,1.2,3.1,2.4,4.7,3.5c3.3,2.4,6.8,4.5,10.5,6.2
				c3.1,1.4,6.2,2.5,9.5,3.4C95.8,205.1,96.4,204.8,97,204.4z"/>
			<path class="st2" d="M91.5,208.1c-4.9-4.5-9.9-9-14.8-13.5c-5.1-4.7-10.3-9.4-15.4-14.1c-4.9-4.5-9.8-9.1-15.2-13.1
				c-5.3-3.9-10.9-7.3-16.6-10.6c-2.8-1.7-5.7-3.4-8.6-4.9c-0.8-0.4-1.5-0.8-2.3-1.1c-0.6-0.3-1.2-0.6-1.9-0.6c-1.3-0.1-2,1-1.9,2.2
				c0.1,1.4,0.8,2.7,1.5,3.9c0.8,1.3,1.6,2.6,2.5,3.9c1.7,2.5,3.5,5,5.4,7.3c3.8,4.8,8,9.2,12.6,13.3c5,4.4,10.3,8.3,15.7,12.2
				c5.4,3.9,10.9,7.8,16.9,10.7c5.8,2.9,12.1,5.1,18.7,5.6c1.2,0.1,2.3,0.1,3.5-0.1C91.5,208.7,91.5,208.4,91.5,208.1z"/>
		</g>
		<path class="st3" d="M160.5,217.5c-22,0.1-25.1-3.9-47.8-3.9c-16.7,0-16.9,2.2-32.4,1.7c-19.8-0.6-33.8-4.6-37.6-5.7
			c-0.1,0-0.2,0-0.3-0.1C30.6,206.1,27,200.3,34,196c5.3-3.3,13.7-6.9,26.8-9.3c2.9-0.5,7.2-1.2,12.5-1.6c20.7-1.8,40.3,1,52.3,3.3
			c5.9,1.2,12.6,1.6,19,1.4c27.1-1,51.2,2.1,62.4,8.1c0.2,0.1,0.4,0.2,0.6,0.3c6.8,3.9,6.2,8.6-1.2,11.9c-2.3,1-5.1,2-8.6,3
			C182.7,217.4,165.4,217.5,160.5,217.5z"/>
		<path class="st4" d="M215.6,90.7L215.6,90.7c0.4-5.6-5-10.7-10.2-9.7c-1-4-6.1-6-9.3-3.6c1.1-4.5-3.2-9-7.6-9.4
			c-4.4-0.4-8.6,2-12.2,4.8c-3.1,2.3-6.3,5.8-5.4,9.7c-2.2-1.5-5.2-1.5-7.4,0c-2.1,1.6-3.2,4.6-2.6,7.2
			C179.1,90.6,197.3,90.9,215.6,90.7z"/>
		<g>
			<path class="st5" d="M135.4,48c-0.3-1.7,0.4-3.5,1.6-4.7c1.2-1.2,2.9-1.7,4.5-1.6c1.4,0.1,2.9,0.7,3.7,1.9c0.7,1,0.9,2.4,1.6,3.3
				c0.7,0.8,1.9,1.2,2.9,1c1.2-0.3,2.1-1.4,3.3-1.5c1.4-0.1,2.5,1,3.4,2c0.9,1.1,1.8,2.3,3.2,2.6c1.3,0.3,2.6-0.4,3.8-0.9
				c1.2-0.5,2.7-0.8,3.8,0c0.9,0.7,1.1,2,1.8,3c0.7,0.9,1.9,1.4,3,1.2c1.9-0.3,3.2-2.4,5.1-2.4c1.4,0,2.6,1.3,3.3,2.6
				c1.2,2.4,1.1,5.6-0.4,7.8c-1.5,2.2-4.4,3.3-6.9,2.4c-1.5-0.6-2.8-1.8-4.3-2.3c-1.9-0.6-3.9,0.1-5.8,0.6c-1.9,0.5-4.1,0.8-5.7-0.4
				c-0.7-0.6-1.2-1.3-1.9-2c-1.3-1.4-3.2-2.2-5-2.1c-1.4,0-3.4,0.1-5-1.2c-2-1.7-7.2-3.8-8.3-4.9C135.9,51.5,135.3,49.5,135.4,48"/>
			<path class="st6" d="M142.7,70.5c-1.3,9.2-9,16-16.4,20.9c-7.1,4.7-17.2,7.8-25.8,9.8c-1.2-3.1-1.5-2.1-3.1-5
				c16.5-8.3,30.8-20.8,42.3-35.8C139.7,60.6,143.6,64.4,142.7,70.5z"/>
			<path class="st6" d="M97.4,96.3c-1.7-0.3-3.6,0.4-4.7,1.8c-1.1,1.4-1.4,3.5-0.6,5.2c0.5,1.1,2,2,2.9,1.1c0.5-0.5,0.5-1.4,0.9-2
				c1-1.4,3.1-0.3,4.6-1c-0.8-1.6-1.6-3.3-2.3-4.9"/>
			<path class="st7" d="M110.1,120.1c-2.3-0.3-5.2,3.2-6.8,5c-1.7,1.7-3.4,5.9-3.1,8.3c0.1,1.6,1.4,5.4,1.9,7
				c3.6,9.4,8.6,16.4,12.3,25.7c-0.6,0.6-2.5,2.5-2.9,3.3c2.7-0.7,6.7,0.5,9.3-0.6c-1.9-7.2-4.4-14.5-5.8-20.5
				c-0.8-3.7-1.7-7.4-2.5-11.1c-0.2-0.8-0.3-1.6,0-2.3c0.3-0.6,0.8-0.9,1.4-1.3c2.2-1.3,4.5-2.3,6.9-3c-1.1-2.4-2.4-4.7-3.7-7
				c-0.4-0.6-0.8-1.3-1.5-1.6c-0.6-0.2-1.2-0.1-1.8,0c-1.8,0.5-3.4,1.3-4.8,2.6"/>
			<g>
				<path class="st8" d="M83.9,145c9,0.6,18.1,0.3,27.1,0.3c11.9,0,23.9-0.1,35.8,0.2c3.9,0.1,8,0.1,11.9,0.7
					c0.9,0.1,1.1-1.2,0.2-1.4c-3.3-0.5-6.6-0.5-9.9-0.6c-5.4-0.2-10.8-0.2-16.1-0.2c-12-0.1-24.1,0-36.1-0.1c-4.2,0-8.4,0-12.6-0.3
					C83.3,143.6,83,145,83.9,145L83.9,145z"/>
			</g>
			<g>
				<path class="st8" d="M120.1,169.9c0.9,1.8,1.8,3.7,2.7,5.5c0.2,0.3,0.5,0.5,0.9,0.4c0.3-0.1,0.6-0.5,0.4-0.9
					c-0.9-1.8-1.8-3.7-2.7-5.5c-0.2-0.3-0.5-0.5-0.9-0.4C120.2,169.1,120,169.5,120.1,169.9L120.1,169.9z"/>
			</g>
			<path class="st7" d="M131.3,145.3c-2.8,13.3-7,26.3-12.4,38.6c1.7,0.4,3.4,0.8,5.1,1.3c0.4,0.1,0.8,0.2,1.1,0.1
				c0.5-0.1,0.8-0.6,1.1-1c8.6-11.7,15.2-25.1,19.4-39.3c-4.9,0-9.8,0-14.6,0"/>
			<g>
				<path class="st7" d="M143.8,46.8c0.3-1.7-1.7-2.5-3.3-2.6c-1.6-0.1-2.7,0.2-3.5,1.6c-0.8,1.5-1,3.3-1,5c0,2.2,0.6,4.6,2.4,5.7
					c2.1,1.3,5.1-0.2,6.2-2.5C145.5,51.6,144.8,49.2,143.8,46.8"/>
			</g>
			<path class="st7" d="M139.1,56c-0.1,1.1-0.1,3.4-0.3,4.5c0,0.4-0.1,0.7-0.3,1c-0.2,0.3-0.4,0.5-0.6,0.7c-2.1,1.9-3,3-3.8,5.9
				c4.3,0.2,5.3,0.1,9.6-0.3c-0.6-2.3-1.4-5-2.3-7.2c-0.6-1.6-1-4.3-1-4.3c-0.1-0.2-0.2-0.3-0.4-0.3c-0.2,0,0,0.4,0.1,0.2"/>
			<path class="st9" d="M135.8,64.5c-0.3,0.6-0.6,2.1,0.7,2.1c2.7,0,4.7-1.5,6-4c2.5,6.1,3.4,13.1,2.4,19.7
				c-3.9,0.6-7.8,0.5-11.7-0.3C132.7,76.1,132.5,69.4,135.8,64.5"/>
			<path class="st9" d="M144.8,79.6c0.4,2,1.1,6.8,5.5,11.1c10.6,10.4,10.5,24.2,12.8,31.5c2.2,6.9,7.3,12.3,12.6,16.9
				c-2.3,4.8-7.9,6.5-12.8,7.7c-5.7,1.4-11.5,2.6-17.4,2.5c-5.9-0.1-11.9-1.7-16.5-5.6c-2.6-2.2-4.7-5-6.9-7.7
				c-2.4-2.9-4.9-5.5-7.6-8c-2-1.8-4.2-3.6-6.8-4c-2.6-0.4-5.6,1-6.3,3.7c-0.9-2.5-0.1-5.4,1.3-7.7c1.4-2.3,3.4-4,5.3-5.8
				c9.1-8.5,17-17.3,23.2-28.3c0.5-0.9,1.6-3.2,1.9-4.5c0.2-1.1,1.8-0.5,2.9-0.8C138.9,79.8,141.8,79.4,144.8,79.6"/>
			<g>
				<path class="st8" d="M65.4,153.2c-10.5,6.1-15.9,19.1-13.3,30.9c2.8,12.3,13.3,21.7,26.2,21.3c6.2-0.2,12.4-2.9,17.1-7
					c3.6-3.2,6.3-8.2,7.6-12.8c1.7-6.1,1.4-13.5-1.1-19.3c-2.2-5.2-6.7-9.3-11.4-12.2C82.9,149.6,73.1,148.9,65.4,153.2
					c-0.8,0.4,0,1.5,0.8,1.1c6-3.3,13.6-3.4,19.8-0.9c4.8,1.9,9.1,5.3,12.3,9.3c3.7,4.8,4.6,11.5,4.2,17.4c-0.4,5.6-2.6,10.6-6,15
					c-3.1,4.1-8.4,7-13.3,8.2c-5.6,1.4-11.8,0.6-16.9-2.1c-5.2-2.8-9.2-7.6-11.4-13.1c-5-12.3-0.2-27.1,11.4-33.8
					C66.9,153.9,66.1,152.7,65.4,153.2L65.4,153.2z"/>
			</g>
			<path class="st5" d="M80.4,177.8c0,1.6-1.2,2.9-2.8,2.9c-1.5,0-2.8-1.3-2.8-2.9c0-1.6,1.2-2.9,2.8-2.9
				C79.2,174.9,80.4,176.2,80.4,177.8z"/>
			<g>
				<path class="st8" d="M156,152.7c-10.5,6.1-15.9,19.1-13.3,30.9c2.8,12.3,13.3,21.7,26.2,21.3c6.2-0.2,12.4-2.9,17.1-7
					c3.6-3.2,6.3-8.2,7.6-12.8c1.7-6.1,1.4-13.5-1.1-19.3c-2.2-5.2-6.7-9.3-11.4-12.2C173.6,149.1,163.8,148.4,156,152.7
					c-0.8,0.4,0,1.5,0.8,1.1c6-3.3,13.6-3.4,19.8-0.9c4.8,1.9,9.1,5.3,12.3,9.3c3.7,4.8,4.6,11.5,4.2,17.4c-0.4,5.6-2.6,10.6-6,15
					c-3.1,4.1-8.4,7-13.3,8.2c-5.6,1.4-11.8,0.6-16.9-2.1c-5.2-2.8-9.2-7.6-11.4-13.1c-5-12.3-0.2-27.1,11.4-33.8
					C157.6,153.4,156.8,152.2,156,152.7L156,152.7z"/>
			</g>
			<path class="st5" d="M171,177.4c0,1.6-1.2,2.9-2.8,2.9c-1.5,0-2.8-1.3-2.8-2.9s1.2-2.9,2.8-2.9C169.8,174.4,171,175.7,171,177.4z
				"/>
			<g>
				<path class="st8" d="M78.4,178.1c3.7-23.7,8.4-47.3,14-70.7c0.2-0.9-1.1-1.1-1.4-0.2c-5.6,23.4-10.3,46.9-14,70.7
					C76.9,178.7,78.2,179,78.4,178.1L78.4,178.1z"/>
			</g>
			<g>
				<path class="st8" d="M104.7,99.8c-3.3,0.6-6.5,1.1-9.8,1.9c-2.2,0.5-6.3,1-6.2,4.1c0.1,3.1,4.4,2.2,6.3,2
					c3.4-0.3,6.8-0.7,10.1-1.3c0.9-0.1,0.8-1.5-0.1-1.4c-0.1,0-0.2,0-0.3,0c-0.9,0.1-0.8,1.5,0.1,1.4c0.1,0,0.2,0,0.3,0
					c0-0.5-0.1-0.9-0.1-1.4c-2.7,0.4-5.5,0.8-8.2,1.1c-1.4,0.1-2.7,0.3-4.1,0.4c-0.8,0.1-2.6,0.4-2.6-1c0-1.3,1.5-1.7,2.6-2
					c1.4-0.4,2.7-0.7,4.1-1c2.7-0.6,5.4-1,8.1-1.5C105.7,101,105.6,99.6,104.7,99.8L104.7,99.8z"/>
			</g>
			<g>
				<path class="st8" d="M87,124.5c-5.8,0.1-11.7-0.1-17.5-0.6c-0.5,0-0.8,0.3-0.8,0.7c-0.1,5.8-0.2,11.7,1.3,17.3
					c0.7,2.5,1.7,5.1,3.9,6.6c2.4,1.7,6,1.4,8.8,1c0.3,0,0.6-0.2,0.6-0.6c1-4.4,1.9-8.8,2.9-13.2c0.4-2.1,0.9-4.1,1.3-6.2
					c0.2-1,0.3-2,0.4-3c0.1-0.6,0.3-1.3-0.2-1.8c-0.2-0.2-0.5-0.3-0.8-0.2c0,0-0.1,0-0.1,0c-0.8,0.3-0.4,1.6,0.5,1.3
					c0,0,0.1,0,0.1,0c-0.3-0.1-0.5-0.2-0.8-0.2c0.1,0.1-0.1,1.2-0.1,1.3c-0.1,0.5-0.1,1-0.2,1.5c-0.1,0.9-0.3,1.8-0.5,2.7
					c-0.4,1.9-0.8,3.8-1.2,5.8c-0.9,4-1.7,7.9-2.6,11.9c0.2-0.2,0.4-0.4,0.6-0.6c-2.6,0.4-6.2,0.7-8.3-1.2c-1.9-1.7-2.7-4.5-3.3-7
					c-1.1-5.1-1-10.4-0.9-15.6c-0.3,0.2-0.5,0.5-0.8,0.7c5.9,0.6,11.9,0.7,17.9,0.6C88,125.9,87.9,124.5,87,124.5L87,124.5z"/>
			</g>
			<g>
				<path class="st8" d="M69.2,132.2c5.5,0.7,11.1,1.1,16.7,1.2c0.9,0,0.8-1.3-0.1-1.4c-5.5-0.1-10.9-0.5-16.3-1.2
					C68.6,130.8,68.4,132.1,69.2,132.2L69.2,132.2z"/>
			</g>
			<g>
				<path class="st8" d="M84,139.5c-1.1,0.3-2.4,0.3-3.5,0.3c-0.9,0-1.8,0.1-2.8,0.1c-2.3,0-4.7-0.1-7-0.3c-0.9-0.1-1.1,1.3-0.2,1.4
					c2.4,0.2,4.9,0.4,7.3,0.3c1,0,1.9,0,2.9-0.1c1.3-0.1,2.6-0.1,3.8-0.4C85.3,140.6,84.8,139.3,84,139.5L84,139.5z"/>
			</g>
			<g>
				<path class="st8" d="M73.2,125.1c-0.6,7.9,0.3,15.9,2.4,23.6c0.2,0.9,1.5,0.4,1.3-0.5c-2-7.4-2.9-15.2-2.3-22.9
					C74.6,124.5,73.3,124.3,73.2,125.1L73.2,125.1z"/>
			</g>
			<g>
				<path class="st8" d="M81.5,149.1c0-3.4-0.7-6.8-0.8-10.2c-0.2-4.4-0.4-8.9-0.1-13.3c0.1-0.9-1.3-1.1-1.4-0.2
					c-0.3,4.4-0.1,8.9,0.1,13.3c0.1,3.6,0.8,7.1,0.8,10.6C80.1,150.1,81.5,150,81.5,149.1L81.5,149.1z"/>
			</g>
			<g>
				<path class="st8" d="M169.1,177.4c-3.1-10-6.2-20.1-9.2-30.1c-0.3-0.8-1.6-0.4-1.3,0.5c3.1,10,6.2,20.1,9.2,30.1
					C168.1,178.8,169.4,178.3,169.1,177.4L169.1,177.4z"/>
			</g>
			<path class="st10" d="M119.4,183.5c-0.8,0.7-0.9,1.9-1.6,2.7c-0.8,0.8-2.1,0.9-3,1.7c-0.1,0.1-0.2,0.2-0.2,0.3
				c0,0.2,0.2,0.3,0.4,0.4c2.6,0.8,5.3,1.2,8,1c0.4,0,0.9-0.1,1.2-0.4c0.2-0.2,0-0.6,0.1-0.8c0.5-1.3,1.3-2.8,2-3.8
				c-2.1,0.2-4.6,0.3-6.7-0.3c-0.2-0.1-0.5-0.2-0.4-0.5"/>
			<g>
				<path class="st8" d="M110.2,170.7c3.6-0.2,7.1-0.5,10.7-0.7c-0.2-0.2-0.5-0.4-0.7-0.6c0.1-0.1,0.1-0.2,0.2-0.4
					c-0.8,0.4,0,1.5,0.8,1.1c0.3-0.2,0.5-0.5,0.4-0.9c-0.1-0.4-0.3-0.7-0.7-0.6c-3.6,0.2-7.1,0.5-10.7,0.7
					C109.2,169.4,109.3,170.8,110.2,170.7L110.2,170.7z"/>
			</g>
			<g>
				<path class="st8" d="M113.1,190.4c2.5,0.2,5,0.2,7.5,0.2c1.1,0,2.1,0,3.2,0c0.5,0,1.2,0.1,1.6-0.2c0.7-0.5-0.1-1.6-0.8-1.1
					c0.4-0.3,0.4-0.1,0.2-0.1c-0.1,0-0.2,0-0.3,0c-0.3,0-0.7,0-1,0c-1.1,0-2.1,0-3.2,0c-2.3,0-4.7,0-7-0.2
					C112.5,189,112.3,190.4,113.1,190.4L113.1,190.4z"/>
			</g>
			<path class="st11" d="M112.8,167.5c-0.7,0.6-2.1,1.5-2.8,2.2c3.3-0.1,7.9-0.5,11.2-0.8c-0.2-0.7-0.3-1.4-0.6-2.1
				C118.2,167.7,115.2,167.6,112.8,167.5"/>
			<path class="st11" d="M115.3,187.3c2.5,1.5,6.8,1.6,9.4,0.3c0,0.5,0.1,1.3,0.2,1.9c-2.9,0.4-6.9,0.2-9.8,0.1
				c-0.9,0-1.8-0.1-2.7-0.1C113.1,188.5,114.2,187.9,115.3,187.3"/>
			<path class="st7" d="M143.9,77.9c-1.3,9.2-9,16-16.4,20.9c-7.1,4.7-17.2,7.8-25.8,9.8c-1.2-3.1-1.5-2.1-3.1-5
				c16.5-8.3,30.8-20.8,42.3-35.8C140.9,67.9,144.7,71.8,143.9,77.9z"/>
			<path class="st7" d="M98.6,103.7c-1.7-0.3-3.6,0.4-4.7,1.8c-1.1,1.4-1.4,3.5-0.6,5.2c0.5,1.1,2,2,2.9,1.1c0.5-0.5,0.5-1.4,0.9-2
				c1-1.4,3.1-0.3,4.6-1c-0.8-1.6-1.6-3.3-2.3-4.9"/>
			<path class="st5" d="M136.8,44.9c-0.6,0.2-0.9,1.1-0.7,1.7c0.2,0.6,0.9,1.1,1.5,1.3c0.6,0.2,1.3,0.3,2,0.3c3.7,0.3,4.6,3.7,5,6.8
				c0.5-2.2,2.4-4.9,1-7.5c-1.1-1.9-2.3-4-4.4-4.4c-2.1-0.4-4.5,1-4.9,3.2c0,0.3-0.2,0.6-0.4,0.6"/>
		</g>
		<path class="st4" d="M31.6,74.6c-1.3-2.1-1.6-5.1-0.5-7.4c1-2.3,3.2-3.8,5.5-3.8c-2.7-5.5-0.9-13.3,3.7-16.6
			c4.6-3.3,11.3-1.5,14.2,3.9c0.3-2.4,2.2-4.3,4.2-4.5c2.1-0.1,4.1,1.5,4.7,3.9c1.5-1.3,3.3-2.1,5.2-2.6c5.2-1.3,10.9,0.9,14.5,5.5
			c3.6,4.6,4.9,11.5,3.4,17.4c0.6-1.3,2.3-0.9,3.3,0c1.2,1.1,2.1,3.1,1.4,4.7c0,0-39.4-0.7-59.2,0"/>
	</g>
</g>
</svg>
