<?xml version="1.0" encoding="utf-8"?>
<!-- Generator: $$$/GeneralStr/196=Adobe Illustrator 27.6.0, SVG Export Plug-In . SVG Version: 6.00 Build 0)  -->
<svg version="1.1" id="圖層_1" xmlns="http://www.w3.org/2000/svg" xmlns:xlink="http://www.w3.org/1999/xlink" x="0px" y="0px"
	 viewBox="0 0 240 240" style="enable-background:new 0 0 240 240;" xml:space="preserve">
<style type="text/css">
	.st0{fill:#FFFFFF;}
	.st1{fill:#FBB89F;}
	.st2{fill:#1E272E;}
	.st3{fill:#36754A;}
	.st4{fill:#56AB6E;}
	.st5{fill:#C6900D;}
	.st6{fill:#D1ECF2;}
	.st7{fill:#86C440;}
	.st8{fill:#F9BE33;}
	.st9{fill:#FFFBF0;}
</style>
<g>
	<path class="st0" d="M217.8,133.9c-1.7-2.3-4.3-3.6-7.1-3.6l-0.1,0c-2.5,0-4.9,1-7.4,3c-0.3,0.2-0.6,0.5-0.9,0.7
		c0.4-2.2,0.8-4.4,1.1-6.7c0.5-4,0.9-8.2,1-12.6c0.1-1.7,0.1-3.9,0.1-6.2c0-2.1-0.2-4.6-1.2-7.1c-1-2.3-2.5-4.2-4.4-5.4
		c-1.5-1-3.3-1.5-5-1.5c-0.4,0-0.8,0-1.3,0.1c-1.2-3.8-3.9-6.6-7.2-7.4c-0.6-0.1-1.2-0.2-1.9-0.2c-1.1,0-2.3,0.2-3.4,0.7
		c0.1-0.1,0.2-0.2,0.3-0.4c2.1-2.7,2.4-5.2,0.9-7.4c-1.1-1.6-3.1-2.6-5.4-2.6c-0.1,0-0.2,0-0.3,0c-1.5,0-3,0.4-4.5,0.9
		c-0.5,0.2-1,0.4-1.4,0.6c0-0.1,0.1-0.1,0.1-0.2c1.2-1.6,2.2-3.4,3-5.2l0.2-0.4c2.3-4.8,3.1-7.1,2.3-9.2c-0.7-1.7-2.1-3-4.1-3.8
		c-0.3-0.1-0.6-0.2-0.9-0.3c0.1-0.3,0.2-0.6,0.2-0.9c0.3-1.2,0.7-2.6,1-4c0.2-0.7,0.4-2-0.1-3.5c-0.7-2-2.6-3.3-4.6-3.3
		c0,0-0.1,0-0.1,0c-0.9,0-2.6,0.4-4.1,2.3c-0.3,0.4-0.6,0.9-0.8,1.3c-0.8-1.9-2.6-3.1-4.5-3.1c0,0-0.1,0-0.1,0
		c-0.9,0-2.6,0.4-4.1,2.3c-0.6,0.8-0.9,1.5-1.1,2.1c-0.1,0.4-0.3,0.7-0.4,1.1c-0.4,1-0.6,2.1-0.9,3c-0.1,0.4-0.2,0.8-0.3,1.2
		c-0.2,0.6-0.3,1.2-0.5,1.7c-1.2,0.3-2.4,0.6-3.6,1.1c-0.7,0.3-2,1.1-2.7,3c0,0,0,0.1,0,0.1c-0.2,0.7-0.4,1.5-0.7,2.4
		c-0.4,1.4-0.6,2.7-0.7,3.9c-0.2,1.5-0.2,2.9-0.1,4.3c0.1,1.2,0.4,2.3,0.8,3.5c0.1,0.4,0.3,0.9,0.5,1.3c-1.5-1.5-3-2.8-4.7-3.7
		c-1.5-0.9-2.9-1.4-4.3-1.6c-0.3,0-0.6-0.1-0.9-0.1c-1.5,0-2.9,0.6-3.8,1.7c-1,1.2-1.4,2.7-1.1,4.4c0.1,0.6,0.3,1.3,0.5,1.8
		c-1-0.2-1.9-0.4-2.9-0.5c0.3-1.7,0.6-3.5,0.9-5.4c1.3-0.4,2.6-0.9,3.7-1.4c5.3-2.5,8.3-6.9,10.1-9.9c0.6-1,1.2-2.1,2-3.6
		c1.5-2.9,2.8-5.9,3.8-9l0.2-0.6c0.6-1.7,1.6-4.9,2.2-7.6c0.1-0.2,0.1-0.4,0.1-0.6c0.5-2.7,0.4-4.3-0.3-5.7c-1.1-2-3.1-3.4-6-4.1
		c-1.4-0.4-2.8-0.5-4.1-0.6c0.2-1.4,0.4-2.9,0.6-4.4c0.3-2,0.6-4.4,0.8-6.7c0.1-1.1,0.2-2.7-0.7-4.4c-1-1.9-2.9-3.1-5-3.1
		c0,0,0,0,0,0c-0.3,0-0.5,0-0.8,0.1c-1.3,0.2-3,0.9-4.4,3.4c-0.6,1.1-0.9,2.2-1.1,3.1c-0.1,0.6-0.3,1.2-0.4,1.8
		c-0.3,1.7-0.6,3.5-0.8,5.1c-0.1,0.7-0.2,1.5-0.3,2.2c-0.2,1.3-0.4,2.5-0.5,3.7c-0.6,0.1-1.2,0.2-1.7,0.3c-0.4,0.1-0.9,0.2-1.4,0.3
		c0.1-0.9,0.3-1.8,0.4-2.6c0.3-2,0.6-4.4,0.8-6.7c0.1-1.1,0.2-2.7-0.7-4.4c-1-1.9-2.9-3.1-5-3.1c-0.3,0-0.5,0-0.8,0.1
		c-1.3,0.2-3,0.9-4.4,3.4c-0.6,1.1-0.9,2.2-1.1,3.1c-0.1,0.6-0.3,1.2-0.4,1.8c-0.3,1.7-0.6,3.5-0.8,5.1c-0.1,0.7-0.2,1.4-0.3,2.2
		c-0.3,1.7-0.5,3.3-0.7,4.7c-2.3,0.7-4.7,1.6-7,3c-0.9,0.6-2.1,1.7-2.5,3.8c0,0,0,0.1,0,0.1c0,0.3-0.1,0.6-0.1,0.9
		c-0.8-0.5-1.7-0.8-2.6-0.8c-0.2,0-0.5,0-0.7,0.1c-0.9,0.1-2.6,0.7-3.8,2.9c-0.5,0.9-0.7,1.7-0.9,2.3c0,0,0,0,0,0
		c-0.1-0.2-0.2-0.4-0.3-0.6c-0.9-1.7-2.6-2.8-4.5-2.8c-0.2,0-0.5,0-0.7,0.1c-0.9,0.1-2.6,0.7-3.8,2.9c-0.5,0.9-0.7,1.7-0.9,2.3
		c-0.1,0.4-0.2,0.8-0.3,1.2c-0.2,1.2-0.4,2.3-0.5,3.4c-0.1,0.5-0.1,0.9-0.2,1.4c-0.1,0.8-0.2,1.5-0.3,2.1c-1.3,0.4-2.6,1-3.9,1.8
		c-0.7,0.4-1.9,1.4-2.3,3.4c0,0,0,0.1,0,0.1C75,66,74.8,67,74.7,68c-0.2,1.6-0.3,3-0.2,4.3c0,1.6,0.2,3.1,0.5,4.5
		c0.3,1.2,0.7,2.4,1.3,3.6c0.6,1.2,1.3,2.2,2.1,3.2c0.5,0.6,1,1.1,1.6,1.5c-0.7,1.1-1.1,2.4-1,3.7c-3.8-4.3-8.1-8.4-14.2-11.1
		c-2-0.9-3.9-1.3-5.6-1.3l-0.2,0c-1.8,0-3.5,0.8-4.5,2.2c-1.1,1.4-1.3,3.3-0.8,5.2c0.4,1.2,0.9,2.3,1.5,3.3c-0.2,0-0.5,0.1-0.7,0.1
		c-3.3,0.8-6,3.5-7.2,7.4c-0.4-0.1-0.8-0.1-1.3-0.1c-1.7,0-3.5,0.5-5,1.5c-1.9,1.2-3.4,3.1-4.4,5.4c-1,2.5-1.2,5-1.2,7.1
		c0,2.3,0,4.5,0.1,6.2c0.2,4.3,0.5,8.5,1,12.6c0.3,2.3,0.7,4.5,1.1,6.7c-0.3-0.2-0.6-0.5-0.9-0.7c-2.5-2-4.9-3-7.4-3l-0.1,0
		c-2.7,0-5.3,1.3-7.1,3.6c-1.4,1.9-2.2,4.3-2.2,6.8c0,2.5,0.7,4.7,1.4,6.4c0.2,0.6,0.4,1.2,0.6,1.8c1.6,4.7,3.5,9.2,5.3,13.4
		c1.7,4,3.7,8.5,6.2,12.7c2.4,4.1,5.5,7.8,9.1,10.8c3.1,2.7,6.8,5.1,11.2,7.6c4.3,2.4,8.6,4.2,12.8,5.5c0.2,0.1,0.5,0.1,0.7,0.2
		c-0.6,1.4-1.2,2.8-1.8,4.2c-1.1,2.7-2.3,5.3-3.4,8c-0.6,1.5-0.3,3.2,0.8,4.3c1.4,1.4,2.8,2.7,4.4,3.9c6.4,4.8,14.5,7.3,23.5,7.3
		c3,0,6.1-0.3,9.2-0.9c3.4-0.7,6.8-1.6,10.3-3c0.9-0.3,1.6-0.9,2-1.7l0.1-0.1l4.8-8.2l2.4-4.1l0.1-0.1c0.2-0.3,0.3-0.5,0.5-0.8
		c0.2,0.3,0.3,0.5,0.5,0.8l0.1,0.1l2.4,4.1l4.8,8.2l0.1,0.1c0.5,0.8,1.2,1.4,2,1.7c3.6,1.3,6.9,2.3,10.3,3c3.1,0.6,6.1,0.9,9.2,0.9
		c8.9,0,17-2.5,23.5-7.3c1.6-1.2,3.1-2.5,4.4-3.9c1.1-1.2,1.4-2.8,0.8-4.3c-1.1-2.7-2.2-5.3-3.4-8c-0.6-1.4-1.2-2.8-1.8-4.2
		c0.2-0.1,0.5-0.1,0.7-0.2c4.2-1.2,8.5-3.1,12.8-5.5c4.4-2.5,8.1-4.9,11.2-7.6c3.6-3.1,6.6-6.7,9.1-10.8c2.5-4.2,4.4-8.7,6.2-12.7
		c1.8-4.2,3.7-8.7,5.3-13.4c0.2-0.7,0.4-1.3,0.6-1.8c0.7-1.7,1.4-3.9,1.4-6.4C220,138.2,219.2,135.7,217.8,133.9z"/>
	<g>
		<g>
			<g>
				<path class="st1" d="M119.9,194.4c-0.1-2.7,0.7-8.3,0-10.9c0,0-1.6-3.5-2.1-6.6c-0.6-3.1-1.5-6.1-2.8-9
					c-1.3-2.8-3.1-5.4-5.2-7.7c-2.1-2.3-4.5-4.3-7-6.1c-1.3-0.9-2.5-1.8-3.8-2.7c-0.6-0.4-1.3-0.9-1.9-1.3c-0.7-0.4-1.3-0.9-2-1.2
					c-0.3-0.1-0.5-0.2-0.8-0.2c-0.6-0.9-1.2-1.9-1.7-2.8c-1.8-3-3.7-5.9-5.4-9c-1.7-3-3.3-6-4.6-9.2c-1.2-2.8-2.1-5.7-2.8-8.7
					c-0.2-0.1-0.3-0.2-0.4-0.4c-1.4-3.4-1.8-7-1.9-10.6c0,0,0,0,0-0.1c-0.5-2.8-1.1-5.7-1.7-8.5c-0.6-2.4-1.1-5.1-3-6.9
					c-0.8-0.8-1.9-1.3-3-1.4c-1.2-0.1-2.3,0.4-3.2,1.1c-1.8,1.4-2.9,3.5-3.3,5.7c-0.1-0.3-0.2-0.6-0.3-0.9c-0.4-1.2-0.9-2.3-1.6-3.3
					c-0.7-1-1.5-1.8-2.6-2.3c-1-0.5-2.2-0.7-3.3-0.5c-2.3,0.5-3.7,2.6-4.3,4.8c-0.4,1.2-0.5,2.5-0.6,3.8c0,0.5-0.1,1.1-0.1,1.6
					c-0.6-1-1.3-1.8-2.3-2.4c-1.5-0.8-3.4-0.5-4.8,0.4c-1.3,0.8-2.3,2.2-2.9,3.6c-0.7,1.8-0.9,3.7-0.9,5.6c0,2,0,4,0.1,6
					c0.1,4.1,0.5,8.1,1,12.2c0.5,3.8,1.2,7.6,2.2,11.4c0,0,0,0.1,0,0.1c0.4,3.3,1,6.5,1.8,9.7c0.3,1.3,0.6,2.6,1,3.9
					c-1.3-2.3-2.7-4.5-4-6.7c-2-3.2-4.2-6.3-7.1-8.7c-1.4-1.1-3.1-2.1-4.9-2.2c-1.6,0-3,0.8-3.9,2c-0.9,1.2-1.4,2.8-1.4,4.4
					c0,1.8,0.5,3.5,1.2,5.2c0.2,0.6,0.4,1.2,0.6,1.8c1.5,4.4,3.4,8.8,5.2,13.1c1.8,4.2,3.6,8.4,5.9,12.3c2.2,3.7,4.9,7,8.2,9.8
					c3.2,2.8,6.9,5.1,10.6,7.2c3.8,2.1,7.8,3.9,12,5.2c1.7,0.5,3.4,0.9,5.1,1.2c-0.1,0.2-0.1,0.3-0.2,0.5c-1.2,2.7-2.4,5.4-3.5,8.1
					c-1.1,2.6-2.3,5.3-3.4,7.9c1.2,1.3,2.5,2.4,3.9,3.5C78,222.6,89,224,99.1,222c3.3-0.6,6.5-1.6,9.7-2.8c0,0,0-0.1,0.1-0.1
					c1.6-2.7,3.2-5.5,4.8-8.2c0.8-1.4,1.6-2.8,2.4-4.1c0.7-1.3,1.5-2.5,2.1-3.9c0.6-1.3,1.1-2.7,1.4-4.1
					C119.8,197.4,119.9,195.9,119.9,194.4z"/>
				<g>
					<path class="st2" d="M50,101.4c0.5,2.4,1,4.8,1.6,7.2c0.6,2.4,1.2,4.8,2,7.1c0.7,2.4,1.5,4.7,2.3,7c0.8,2.3,1.7,4.6,2.7,6.9
						c0.9,2.3,1.9,4.5,3,6.7c0.1,0.3,0.3,0.6,0.4,0.8c0.1,0.2,0.4,0,0.3-0.2c-1.1-2.2-2.1-4.4-3-6.7c-1-2.3-1.9-4.6-2.7-6.9
						c-0.8-2.3-1.6-4.6-2.3-7c-0.7-2.3-1.4-4.7-2-7.1c-0.6-2.4-1.2-4.8-1.6-7.2c-0.1-0.3-0.1-0.6-0.2-0.9
						C50.3,101,50,101.1,50,101.4L50,101.4z"/>
				</g>
				<g>
					<path class="st2" d="M62.9,98.1c0.5,2.2,1,4.4,1.6,6.5c0.6,2.2,1.2,4.3,1.8,6.4c0.6,2.1,1.3,4.3,2,6.4c0.7,2.1,1.5,4.2,2.3,6.3
						c0.8,2.1,1.6,4.2,2.5,6.2c0.1,0.3,0.2,0.5,0.3,0.8c0,0.1,0.1,0.2,0.2,0.1c0.1,0,0.2-0.1,0.1-0.2c-0.9-2.1-1.7-4.1-2.5-6.2
						c-0.8-2.1-1.6-4.2-2.3-6.3c-0.7-2.1-1.4-4.2-2.1-6.4c-0.7-2.1-1.3-4.3-1.8-6.5c-0.6-2.2-1.1-4.3-1.6-6.5
						c-0.1-0.3-0.1-0.5-0.2-0.8C63.2,97.7,62.8,97.8,62.9,98.1L62.9,98.1z"/>
				</g>
				<g>
					<path class="st2" d="M45,151.5c0.7,1.4,1.4,2.9,2.2,4.3c0.4,0.7,0.7,1.4,1.1,2.2c0.2,0.4,0.3,0.7,0.5,1.1
						c0.1,0.2,0.2,0.2,0.4,0.2c0.2,0,0.3,0.1,0.5,0.1c2.5,0.5,4.9,1.2,7.2,2.1c2.3,0.9,4.6,2.1,6.7,3.4c2.1,1.4,4.1,2.9,5.9,4.6
						c1.8,1.7,3.5,3.6,5,5.7c0.2,0.3,0.4,0.5,0.5,0.8c0.1,0.2,0.5,0,0.3-0.2c-1.2-1.7-2.5-3.4-3.9-4.9c-1.4-1.5-3-2.9-4.7-4.2
						c-1.7-1.3-3.4-2.4-5.2-3.4c-1.8-1-3.7-1.9-5.7-2.6c-2-0.7-4-1.3-6-1.7c-0.3,0-0.5-0.1-0.8-0.1c0,0,0.1,0.1,0.1,0.1
						c-1-2-2-4-3-5.9c-0.3-0.6-0.6-1.1-0.8-1.7C45.3,151.1,44.9,151.3,45,151.5L45,151.5z"/>
				</g>
				<g>
					<path class="st2" d="M54.4,152c1.2-1.4,2.5-2.6,3.9-3.8c1.4-1.2,2.8-2.2,4.4-3.2c1.5-0.9,3.2-1.8,4.8-2.5
						c1.7-0.7,3.4-1.3,5.1-1.7c1.8-0.4,3.5-0.7,5.3-0.9c0.2,0,0.4,0,0.7-0.1c0.2,0,0.2-0.4,0-0.4c-1.8,0.1-3.6,0.4-5.4,0.8
						c-1.8,0.4-3.5,1-5.2,1.6c-1.7,0.7-3.3,1.5-4.9,2.4c-1.6,0.9-3.1,2-4.5,3.1c-1.4,1.1-2.8,2.4-4,3.8c-0.2,0.2-0.3,0.3-0.5,0.5
						C54,152,54.2,152.2,54.4,152L54.4,152z"/>
				</g>
				<g>
					<path class="st2" d="M73.6,196.8c3.4,0.1,6.7-0.2,10.1-0.7c0.9-0.2,1.9-0.3,2.8-0.5c0.2-0.1,0.1-0.4-0.1-0.4
						c-3.3,0.7-6.6,1.1-9.9,1.3c-1,0-1.9,0-2.9,0C73.4,196.4,73.4,196.8,73.6,196.8L73.6,196.8z"/>
				</g>
			</g>
			<g>
				<path class="st1" d="M214.6,136.3c-0.9-1.2-2.4-2.1-3.9-2c-1.8,0-3.5,1-4.9,2.2c-2.9,2.4-5.1,5.5-7.1,8.7
					c-1.4,2.2-2.7,4.4-4,6.7c0.4-1.3,0.7-2.6,1-3.9c0.8-3.2,1.4-6.4,1.8-9.7c0,0,0-0.1,0-0.1c0.9-3.7,1.7-7.6,2.2-11.4
					c0.5-4,0.9-8.1,1-12.2c0.1-2,0.1-4,0.1-6c0-1.9-0.2-3.9-0.9-5.6c-0.6-1.4-1.5-2.7-2.9-3.6c-1.4-0.9-3.3-1.2-4.8-0.4
					c-1,0.5-1.7,1.4-2.3,2.4c0-0.5-0.1-1.1-0.1-1.6c-0.1-1.3-0.3-2.6-0.6-3.8c-0.6-2.1-2.1-4.2-4.3-4.8c-1.1-0.3-2.3,0-3.3,0.5
					c-1.1,0.5-1.9,1.4-2.6,2.3c-0.7,1-1.2,2.1-1.6,3.3c-0.1,0.3-0.2,0.6-0.3,0.9c-0.4-2.2-1.5-4.3-3.3-5.7c-0.9-0.7-2-1.2-3.2-1.1
					c-1.1,0.1-2.2,0.6-3,1.4c-1.9,1.8-2.4,4.5-3,6.9c-0.6,2.4-1.1,4.9-1.5,7.4c0,0.5-0.1,1.1-0.1,1.6c-0.3,3-1.1,5.9-2,8.7
					c-0.1,0.3-0.1,0.7-0.2,1c-0.7,3.2-1.8,6.4-3,9.4c-1.3,3.2-2.9,6.2-4.6,9.2c-1.7,3-3.6,6-5.4,9c-0.6,0.9-1.2,1.9-1.7,2.8
					c-0.3,0-0.5,0.1-0.8,0.2c-0.7,0.3-1.4,0.8-2,1.2c-0.6,0.4-1.3,0.9-1.9,1.3c-1.3,0.9-2.6,1.8-3.8,2.7c-2.5,1.8-4.9,3.8-7,6.1
					c-2.1,2.3-3.9,4.9-5.2,7.7c-1.3,2.8-2.2,5.9-2.8,9c-0.6,3.1-1.5,6.6-1.5,6.6c-0.7,2.7-1,5.9-1.1,8.7c0,1.5,0.5,5.2,0.8,6.6
					c0.3,1.4,0.8,2.8,1.4,4.1c0.6,1.3,1.4,2.6,2.1,3.9c0.8,1.4,1.6,2.8,2.4,4.1c1.6,2.7,3.2,5.5,4.8,8.2c0,0,0,0.1,0.1,0.1
					c3.1,1.2,6.4,2.1,9.7,2.8c10.1,1.9,21.1,0.5,29.5-5.7c1.4-1,2.7-2.2,3.9-3.5c-1.1-2.7-2.2-5.3-3.4-7.9c-1.2-2.7-2.3-5.4-3.5-8.1
					c-0.1-0.2-0.1-0.3-0.2-0.5c1.7-0.3,3.4-0.7,5.1-1.2c4.2-1.2,8.2-3,12-5.2c3.7-2.1,7.3-4.4,10.6-7.2c3.3-2.8,6-6.1,8.2-9.8
					c2.3-3.9,4.1-8.1,5.9-12.3c1.9-4.3,3.7-8.7,5.2-13.1c0.2-0.6,0.4-1.2,0.6-1.8c0.6-1.7,1.2-3.4,1.2-5.2
					C216,139.1,215.5,137.5,214.6,136.3z"/>
				<g>
					<path class="st2" d="M189.6,101.3c-0.5,2.4-1,4.8-1.6,7.2c-0.6,2.4-1.2,4.8-2,7.1c-0.7,2.3-1.5,4.7-2.3,7
						c-0.8,2.3-1.7,4.6-2.6,6.9c-0.9,2.3-1.9,4.5-3,6.7c-0.1,0.3-0.3,0.6-0.4,0.8c-0.1,0.2,0.2,0.4,0.3,0.2c1.1-2.2,2.1-4.5,3-6.7
						c1-2.3,1.9-4.5,2.7-6.8c0.8-2.3,1.6-4.6,2.4-7c0.7-2.3,1.4-4.7,2-7.1c0.6-2.4,1.2-4.8,1.6-7.2c0.1-0.3,0.1-0.6,0.2-0.9
						C190,101.1,189.7,101,189.6,101.3L189.6,101.3z"/>
				</g>
				<g>
					<path class="st2" d="M176.7,98c-0.5,2.2-1,4.4-1.6,6.5c-0.6,2.2-1.2,4.3-1.8,6.4c-0.6,2.1-1.3,4.3-2,6.4
						c-0.7,2.1-1.5,4.2-2.3,6.3c-0.8,2.1-1.6,4.2-2.5,6.2c-0.1,0.3-0.2,0.5-0.3,0.8c-0.1,0.2,0.3,0.3,0.4,0.1
						c0.9-2.1,1.7-4.1,2.5-6.2c0.8-2.1,1.6-4.2,2.3-6.3c0.7-2.1,1.4-4.2,2.1-6.4c0.7-2.1,1.3-4.3,1.8-6.5c0.6-2.2,1.1-4.3,1.6-6.5
						c0.1-0.3,0.1-0.5,0.2-0.8C177.2,97.8,176.8,97.7,176.7,98L176.7,98z"/>
				</g>
				<g>
					<path class="st2" d="M194.6,151.3c-1,2-2,4-3,5.9c-0.3,0.6-0.6,1.1-0.8,1.7c0,0,0.1-0.1,0.1-0.1c-2.1,0.4-4.1,0.9-6.1,1.6
						c-2,0.7-3.9,1.5-5.8,2.5c-1.9,1-3.6,2.1-5.3,3.3c-1.7,1.2-3.3,2.6-4.7,4.1c-1.5,1.5-2.8,3.1-4,4.8c-0.1,0.2-0.3,0.4-0.4,0.6
						c-0.1,0.2,0.2,0.4,0.3,0.2c1.4-2.1,3-4,4.8-5.8c1.8-1.8,3.7-3.4,5.8-4.8c2.1-1.4,4.3-2.6,6.6-3.6c2.3-1,4.7-1.8,7.2-2.3
						c0.3-0.1,0.6-0.1,0.9-0.2c0.2,0,0.3-0.1,0.5-0.1c0.2,0,0.3,0,0.4-0.2c0.2-0.3,0.4-0.7,0.5-1.1c0.2-0.4,0.4-0.7,0.5-1.1
						c0.7-1.4,1.4-2.9,2.2-4.3c0.2-0.4,0.4-0.7,0.5-1.1C195.1,151.3,194.7,151.1,194.6,151.3L194.6,151.3z"/>
				</g>
				<g>
					<path class="st2" d="M185.9,151.8c-1.2-1.4-2.5-2.7-3.9-3.8c-1.4-1.2-2.9-2.2-4.4-3.2c-1.6-1-3.2-1.8-4.9-2.5
						c-1.7-0.7-3.4-1.3-5.2-1.7c-1.8-0.4-3.6-0.7-5.4-0.9c-0.2,0-0.5,0-0.7-0.1c-0.2,0-0.2,0.4,0,0.4c1.8,0.1,3.6,0.4,5.4,0.8
						c1.8,0.4,3.5,0.9,5.2,1.6c1.7,0.7,3.3,1.5,4.9,2.4c1.6,0.9,3.1,1.9,4.5,3.1c1.4,1.1,2.7,2.4,3.9,3.7c0.1,0.2,0.3,0.3,0.4,0.5
						C185.8,152.2,186,152,185.9,151.8L185.9,151.8z"/>
				</g>
				<g>
					<path class="st2" d="M166.4,196.4c-3.3,0.1-6.7-0.2-10-0.7c-0.9-0.2-1.9-0.3-2.8-0.5c-0.2-0.1-0.3,0.3-0.1,0.4
						c3.3,0.7,6.6,1.2,10,1.3c1,0,1.9,0,2.9,0C166.6,196.8,166.6,196.4,166.4,196.4L166.4,196.4z"/>
				</g>
				<g>
					<path class="st2" d="M120.3,196.9c-0.4-2.9-0.5-5.9-0.2-8.9c0.1-0.8,0.2-1.7,0.3-2.5c0-0.2-0.3-0.3-0.4-0.1
						c-0.5,3-0.6,6-0.4,9.1c0.1,0.9,0.2,1.7,0.3,2.6C119.9,197.2,120.3,197.1,120.3,196.9L120.3,196.9z"/>
				</g>
			</g>
			<g>
				<path class="st3" d="M175.1,87.3c0.8-0.7,1.6-1.5,2.3-2.4c0.6-0.7,1.4-1.8,0.8-2.7c-0.5-0.7-1.4-0.9-2.2-0.8
					c-1.1,0-2.2,0.3-3.2,0.7c-1.1,0.4-2.1,0.9-3,1.5c-1,0.6-2,1.2-2.9,1.8c-1.9,1.3-3.8,2.7-5.6,4.1c-1.8,1.5-3.5,3-5.2,4.7
					c-1.6,1.6-3.2,3.3-4.4,5.3c-0.1,0.2-0.2,0.3-0.3,0.5c0.1,0.1,0.1,0.2,0.2,0.3c2-0.7,3.9-1.4,5.9-2.3c2.1-0.9,4.3-1.9,6.3-3
					c2.1-1.1,4.1-2.3,6-3.5"/>
				<g>
					<path class="st4" d="M151.3,99.9C151.3,99.9,151.3,99.9,151.3,99.9C151.3,99.9,151.3,99.9,151.3,99.9
						C151.3,99.9,151.3,99.9,151.3,99.9z"/>
					<path class="st3" d="M151.6,100c-0.6-2.3-1.8-4.3-3.1-6.3c-3.2-5-6.4-11.2-11.7-14.4c-0.9-0.5-1.8-1-2.8-1.1
						c-0.9-0.1-1.4,0.5-1.3,1.4c0.3,1.5,1.1,2.9,1.9,4.1c0.9,1.3,1.8,2.6,2.8,3.8c2.5,3.1,5.3,6,8.4,8.5c1.6,1.3,3.2,2.4,4.9,3.5
						c0.2,0.1,0.4,0.3,0.6,0.4c0,0,0,0,0.1,0c0,0,0,0,0,0c0,0,0.1,0,0.1,0.1c0,0,0,0,0.1,0C151.5,100.1,151.5,100.1,151.6,100
						C151.5,100,151.6,100,151.6,100z"/>
				</g>
				<path class="st4" d="M151.1,118.8c-0.1-1.9-0.1-3.8,0-5.6c0.1-2.7,0.2-5.4,0.5-8.1c0.3-2.7,0.7-5.4,1.2-8c0.5-2.7,1.1-5.3,1.8-8
					c0.6-2.3,1.3-4.6,2.1-6.8c-0.3,0-0.5,0.1-0.8,0.2c-0.9,2.3-1.7,4.6-2.4,7c-0.8,2.4-1.5,4.9-2.2,7.4c-0.7,2.5-1.2,4.9-1.8,7.4
					c-0.5,2.5-1,5-1.4,7.6c-0.4,2.5-0.7,4.9-1,7.4C148.5,119.6,149.8,119.4,151.1,118.8z"/>
				<path class="st5" d="M171.7,65.3c-0.3-0.8-1.1-1.2-1.9-1.5c-1-0.4-2.1-0.6-3.1-0.7c-0.4-0.1-0.9-0.1-1.3-0.2
					c0.5-1.7,0.9-3.4,1.4-5.1c0.3-1.2,0.7-2.4,0.9-3.7c0.1-0.4,0.2-0.9,0-1.4c-0.1-0.4-0.5-0.7-0.9-0.7c-0.4,0-0.8,0.4-1,0.7
					c-0.3,0.3-0.4,0.7-0.6,1.1c-0.1,0.3-0.2,0.6-0.3,1c-0.5,1.3-0.8,2.7-1.2,4.1c-0.4,1.3-0.7,2.6-1.1,3.9c-0.9,0-1.8,0-2.7,0
					c-1.4,0.1-2.7,0.2-4.1,0.4c0.4-1.6,0.9-3.2,1.3-4.8c0.3-1.2,0.7-2.4,0.9-3.7c0.1-0.4,0.2-0.9,0-1.4c-0.1-0.4-0.5-0.7-0.9-0.7
					c-0.4,0-0.8,0.4-1,0.7c-0.3,0.3-0.4,0.7-0.6,1.1c-0.1,0.3-0.2,0.6-0.3,1c-0.5,1.3-0.8,2.7-1.2,4.1c-0.4,1.4-0.8,2.7-1.1,4.1
					c-1.8,0.3-3.6,0.6-5.3,1.3c-0.2,0.1-0.4,0.3-0.4,0.6c-0.2,0.8-0.4,1.5-0.6,2.3c-0.3,1.1-0.5,2.3-0.7,3.4
					c-0.1,1.1-0.2,2.3-0.1,3.4c0.1,0.9,0.3,1.7,0.6,2.6c0.3,0.8,0.7,1.6,1.1,2.3c1.2,1.9,3,3,5.2,3.4c2.2,0.4,4.5,0.4,6.7-0.3
					c2.3-0.8,4.1-2.3,5.6-4.2c0.5-0.6,0.9-1.2,1.4-1.8c1-1.5,1.9-3,2.7-4.6C169.9,70.7,172.1,66.3,171.7,65.3z"/>
				<g>
					<path class="st2" d="M152.5,97.9c-0.1,0.6-0.2,1.2-0.3,1.8c0,0.1,0.2,0.1,0.2,0c0.1-0.6,0.2-1.2,0.3-1.8
						C152.7,97.8,152.5,97.8,152.5,97.9L152.5,97.9z"/>
				</g>
				<g>
					<path class="st2" d="M150.7,99.6c0.1-0.4,0.2-0.8,0.3-1.2c0-0.1-0.1-0.2-0.2-0.1c-0.2,0.4-0.3,0.8-0.4,1.3
						C150.5,99.7,150.6,99.7,150.7,99.6L150.7,99.6z"/>
				</g>
			</g>
			<g>
				<path class="st5" d="M88.9,51.3c-0.2-0.4-0.6-0.7-1-0.6c-0.4,0.1-0.8,0.5-1,0.9c-0.2,0.4-0.4,0.8-0.5,1.3
					c-0.1,0.4-0.2,0.7-0.2,1.1c-0.3,1.5-0.5,3-0.7,4.5c-0.2,1.6-0.5,3.2-0.7,4.7c0,0.1,0,0.1,0,0.2c-0.2,1.2-0.3,2.4-0.4,3.6
					c0,0,0.1,0,0.2-0.1c0,0,0-0.1,0-0.1c0.9,0,1.7,0,2.6-0.3c0-0.1,0-0.1,0-0.2c0.4-3.1,0.9-6.3,1.3-9.4c0.2-1.4,0.4-2.7,0.5-4.1
					C89.1,52.3,89.2,51.8,88.9,51.3z"/>
				<path class="st5" d="M99.1,49.4c-0.2-0.4-0.6-0.7-1-0.6c-0.4,0.1-0.8,0.5-1,0.9c-0.2,0.4-0.4,0.8-0.5,1.3
					c-0.1,0.4-0.2,0.7-0.2,1.1c-0.3,1.5-0.5,3-0.7,4.5c-0.2,1.6-0.5,3.2-0.7,4.7c0,0.1,0,0.1,0,0.2c-0.2,1.2-0.3,2.4-0.4,3.6
					c0,0,0.1,0,0.2-0.1c0,0,0-0.1,0-0.1c0.9,0,1.7,0,2.6-0.3c0-0.1,0-0.1,0-0.2c0.4-3.1,0.9-6.3,1.3-9.4c0.2-1.4,0.4-2.7,0.5-4.1
					C99.3,50.4,99.3,49.9,99.1,49.4z"/>
				<g>
					<path class="st4" d="M87.3,107.5C87.3,107.5,87.3,107.5,87.3,107.5C87.3,107.5,87.3,107.5,87.3,107.5
						C87.3,107.5,87.3,107.5,87.3,107.5z"/>
					<path class="st3" d="M87.7,107.6c-1.3-3-4.5-7.6-6.6-10.1c-5.4-6.4-9.8-12.6-17.8-16c-1.3-0.5-2.7-1-4.2-1
						c-1.3,0-1.9,1-1.5,2.2c0.6,2.1,2,3.8,3.4,5.4c1.5,1.7,3,3.3,4.6,4.8c4,3.9,8.5,7.4,13.3,10.4c2.4,1.5,4.9,2.8,7.4,4.1
						c0.3,0.1,0.6,0.3,0.9,0.4c0,0,0.1,0,0.1,0c0,0,0,0,0,0c0.1,0,0.1,0,0.2,0c0,0,0.1,0,0.1,0c0,0,0,0,0,0
						C87.6,107.7,87.7,107.7,87.7,107.6z"/>
				</g>
				<path class="st4" d="M88.3,99.3c0.2-3,0.4-5.9,0.9-8.9c0.4-2.6,0.8-5.1,1.3-7.6C90.3,82.9,90.2,83,90,83c0-0.1,0-0.1,0-0.2
					c-0.3,0.1-0.6,0.2-0.9,0.3c-0.6,2.6-1.1,5.2-1.6,7.9c-0.5,2.7-0.9,5.5-1.2,8.3c-0.3,2.7-0.6,5.5-0.8,8.3
					c-0.2,2.8-0.3,5.6-0.3,8.3c0,2.7,0,5.4,0.1,8.1c0.8,0.1,1.5,0.1,2.3-0.1c0.7-0.2,1.3-0.5,1.9-0.9c-0.3-2-0.6-4-0.8-6.1
					c-0.3-2.9-0.5-5.9-0.6-8.8C88.1,105.2,88.2,102.3,88.3,99.3z"/>
				<g>
					<path class="st5" d="M103.3,61.2c-0.1,0-0.3-0.1-0.4-0.1c-1.1-0.3-2.3-0.3-3.5-0.4c-2.4,0-4.8,0.2-7.2,0.6
						c-2.4,0.4-4.7,1-7,1.7c-1.9,0.6-4,1.2-5.7,2.2c-0.2,0.1-0.3,0.4-0.4,0.7c-0.1,0.8-0.3,1.7-0.4,2.5c-0.1,1.3-0.2,2.5-0.2,3.8
						c0,1.2,0.1,2.5,0.4,3.7c0.2,0.9,0.5,1.8,1,2.7c0.4,0.8,0.9,1.6,1.6,2.4c1.6,1.8,3.7,2.8,6.1,2.9c2.4,0.1,4.9-0.3,7.1-1.3
						c2.4-1.2,4.1-3.1,5.4-5.4c0.4-0.7,0.8-1.4,1.2-2.2c0.9-1.7,1.7-3.5,2.2-5.4c0.2-0.7,0.8-2.5,1.2-4.1c-0.6-1.2-1-2.5-1.3-3.8
						C103.4,61.6,103.3,61.4,103.3,61.2z"/>
				</g>
				<g>
					<path class="st2" d="M88.1,101.7c0,1.1,0,2.1,0,3.2c0,0.2,0.3,0.2,0.3,0c0-1.1,0-2.1,0-3.2C88.3,101.5,88.1,101.5,88.1,101.7
						L88.1,101.7z"/>
				</g>
				<g>
					<path class="st2" d="M86.1,107c0-0.7,0-1.4,0.1-2.2c0-0.2-0.2-0.2-0.3-0.1c-0.1,0.7-0.1,1.5-0.1,2.2
						C85.9,107.2,86.1,107.2,86.1,107L86.1,107z"/>
				</g>
				<g>
					<path class="st3" d="M109.6,74.1c-1.3,0.9-2.5,2-3.6,3.1c-1.1,1.1-2.2,2.3-3.3,3.4c-2.2,2.4-4.2,4.9-6.1,7.4
						c-1.9,2.6-3.7,5.3-5.4,8c-1.6,2.7-3.2,5.5-4.2,8.6c-0.1,0.2-0.2,0.5-0.2,0.7c0.1,0.1,0.2,0.2,0.3,0.4c2.4-1.6,4.8-3.3,7.1-5
						c2.6-2,5.1-4,7.5-6.2c2.4-2.2,4.7-4.4,6.9-6.8c2.1-2.3,4.3-4.6,6-7.3c0.9-1.3,1.6-2.6,2.2-4c0.2-0.4,0.4-0.9,0.5-1.4
						c-2.3-0.1-4.4-0.7-6.2-1.8C110.7,73.5,110.1,73.8,109.6,74.1z"/>
				</g>
			</g>
			<g>
				<g>
					<g>
						<path class="st6" d="M168.1,134.4c0,27.2-22,49.2-49.2,49.2c-27.2,0-49.2-22-49.2-49.2c0-27.2,22-49.2,49.2-49.2
							C146,85.1,168.1,107.2,168.1,134.4z"/>
					</g>
					<g>
						<path class="st7" d="M112.9,85.8c-1.1,3.3,4.4,0.8,5.5,1.1c1.6,0.5,1.9,2.4,3.5,2.7c2.2,0.5,2.2-1.3,3.6,0.9
							c0.5,0.6,1.3,3.1,1.6,4.1c0.6,2.2,0.5,1.9-1.7,2.8c-1.1,0.5-3.3,0.6-4.4,1.6c-0.9,0.8-0.5,3.5-2.8,1.7
							c-1.7,1.7-1.1,7.2-4.4,4.2c-0.6-0.8-2.2-3.1-2.5-3.9c-0.8-2.2,0.8-2.2,0.9-4.1c0-0.6-0.8-1.1-0.9-1.7c0-0.2,0.3-2.5,0.5-2.2
							c-0.6-1.4-3.3-1.3-3.6-2.5c-0.2-0.5,1.3-3.6,1.6-3.9c0.8-0.6,2.5-0.5,3.1-0.3"/>
					</g>
					<g>
						<path class="st7" d="M71,123.9c-0.5,1.8-0.6,4.5-0.6,6.5c-0.2,2.5-0.8,6.5,0.9,6.8c1.9,0.3,1.3-1.6,1.6-2.5
							c1.7,0.9,0.6,1.9,0.9,3.1c0.3,1.3,0.9,2,1.9,3c2,2.4,3.5,2,6.3,2.8c2.5,0.6,3,2.7,5.2,3.8c2.8,1.3,3.8,1.1,3.3,4.4
							c-0.8,3.6,0.3,7.1,3.1,9.7c1.6,1.4,3.5,0.8,4.7,1.7c1.7,1.1,1.1,2.7,1.6,4.4c1.1,3.3,3.8,6.4,5.3,9.4c1.4,3,4.7,5.5,8,6.1l0,0
							c-1.3-0.9-2.7-2.4-3.5-3.6c-0.9-1.4-1.6-3.1-0.3-4.6c0.8-0.6,2.2-0.3,2.8-1.1c0.5-0.6,0-1.6,0.3-2.4c0.8-2,2-2.5,3.5-3.6
							c2.2-1.6,1.4-1.6,1.7-3.9c0.6-3.8,6.3-5,1.3-8.3c-2.7-1.7-6.6-2.7-9.7-2.7c-0.3-4.9-4.9-3.9-8.5-5.3c-1.7-0.8-3.5-1.4-5.2-2.2
							c-2.5-0.9-3.8-2.2-4.9,0.9c-1.4-0.5-3.3,1.1-4.2-0.6c-0.8-1.3,1.1-2.8,0-4.1c-1.4-1.6-2.2,0.6-3-1.9c-0.5-1.3,0.9-3.8-1.4-3.6
							c-0.3,5.3-4.2,0.8-4.4-2c-0.2-2.5,1.4-2,3-2.7c0.8-0.3,2.5-1.9,3.3-1.6c0.3,0.2,3.3,9.1,3.5,3c0-1.4-1.6-3.1-0.8-4.6
							c0.8-1.4,2.5-0.6,3.5-1.4c1.3-1.1,1.7-3.3,3-4.4c1.4-1.3,3.1-2.8,4.7-3.8c1.4-1.1,3.3-0.5,4.7-1.4c1.9-1.4,0.6-2.8,3.3-2.8
							c1.9,0.2,2.7,1.7,2.8-1.3c0-1.1-0.6-2.7-1.3-3.5c-1.3-1.4-2.4-2.8-3.5-4.2c-1.7-2-2.2-0.2-3.5-1.3c-0.5-0.3-2.5-3.9-0.8-3.8
							c0.9,0.2,1.1,1.9,2,1.9c0.8,0,0.8-1.1,1.1-1.3c0.8-0.3,3-1.3,3.3-2c0.5-1.7-1.9-2.2-2.5-3.1c-0.8-0.9-0.5-0.9-0.8-1.9
							c-0.3-0.6,0.2-0.9-0.3-1.6c-0.5-0.6-2.4,0.5-2.2-0.8c0.2-0.6,1.7-0.6,2-0.8c4.6-2.2-1.3-3.8-2.4-1.9
							C100,89.1,78.4,95.3,71,123.9z"/>
					</g>
					<g>
						<path class="st7" d="M151.3,98.2c0-3.1-11.4-4.4-7.9,1.9c1.3,2,1.3,1.1,0.9,3c-0.2,0.8-1.3,0.2-0.9,1.4c0,0.6,1.4,1.6,1.9,1.7
							c2.7,1.4,3.9,0.2,5.7,3.3l0,0l0.2-0.2v0.2c-2.7,0.3-5.2,1.4-5.8,4.2c-2.7,0.5-1.6-2.2-2.2-3.6c-0.8-2-3.5-3-4.7-0.8
							c-2,4.1,6.1,6,5.2,9c-2-0.6-3.5-0.3-3.5,1.9c0.2,0.3,0.9,1.3,1.1,1.9c0.2,0.9-0.6,1.6-0.3,2.7c2.2,5.7,6-3.5,7.5-4.2
							c2.8-1.4,9.4,3.5,4.7,4.7c-2,0.5-2.5-1.6-4.4-1.6c-2.2,0-1.9,2.7-3.5,3.6c-1.7,0.9-3-0.2-4.4,1.9c-0.9,1.4-1.1,3.1-2.2,4.6
							c-1.1,1.6-2.8,2.7-3,4.7c-0.2,1.9,1.1,3.1,1.4,4.9c0.3,2-0.8,2.7,0.9,4.4c1.1,0.9,3.3,2.2,4.6,2c1.6-0.2,2.8-1.3,4.6-1.3
							c1.1,0,4.1-0.9,4.6-0.6c1.6,0.6,0.9,2.2,0.6,3.3c-0.5,1.7-0.9,3-1.1,4.9c-0.3,2.4,0.9,3.2-2.2,8.6c-0.8,1.5-6.8,6.4-4.9,8.5
							c1.6,1.7,7.7-2.8,9-3.9c2.5-2.7,6.1-6.1,8.1-10c1.7-3.2,3.6-6.8,4.4-10.2c1.4-6,3.1-12.8,2-20c-0.9-5.8-2.6-12.8-5.7-17.8
							c-2-3.3-2.8-5-5.5-8C154.5,101,154,99.1,151.3,98.2"/>
					</g>
				</g>
			</g>
			<g>
				<path class="st8" d="M120.3,22.5c-0.3-0.6-0.9-1-1.6-0.9c-0.7,0.1-1.2,0.8-1.5,1.4c-0.3,0.6-0.6,1.3-0.7,2
					c-0.1,0.6-0.3,1.1-0.4,1.7c-0.5,2.3-0.7,4.7-1.1,7.1c-0.4,2.5-0.7,4.9-1,7.4c0,0.1,0,0.2,0,0.3c-0.2,1.9-0.4,3.7-0.6,5.6
					c0.1,0.1,0.2,0,0.2-0.1c0-0.1,0-0.1,0-0.2c1.3,0,2.7,0,4-0.5c0-0.1,0-0.2,0-0.3c0.7-4.9,1.3-9.8,2.1-14.7
					c0.3-2.1,0.6-4.3,0.8-6.4C120.6,24,120.7,23.2,120.3,22.5z"/>
				<path class="st8" d="M136.2,19.5c-0.3-0.6-0.9-1-1.6-0.9c-0.7,0.1-1.2,0.8-1.5,1.4c-0.3,0.6-0.6,1.3-0.7,2
					c-0.1,0.6-0.3,1.1-0.4,1.7c-0.5,2.3-0.7,4.7-1.1,7.1c-0.4,2.5-0.7,4.9-1,7.4c0,0.1,0,0.2,0,0.3c-0.2,1.9-0.4,3.7-0.6,5.6
					c0.1,0.1,0.2,0,0.2-0.1c0-0.1,0-0.1,0-0.2c1.3,0,2.7,0,4-0.5c0-0.1,0-0.2,0-0.3c0.7-4.9,1.3-9.8,2.1-14.7
					c0.3-2.1,0.6-4.3,0.8-6.4C136.5,21.1,136.5,20.2,136.2,19.5z"/>
				<path class="st4" d="M160,79.9c-0.9-1-2.6-1.1-3.9-0.9c-1.8,0.3-3.6,1-5.3,1.9c-1.7,0.9-3.3,2-4.8,3.2c-1.5,1.2-3,2.4-4.5,3.7
					c-3,2.6-5.8,5.3-8.5,8.2c-2.7,2.9-5.2,5.9-7.6,9c-2.4,3.1-4.7,6.3-6.3,9.8c-0.1,0.3-0.3,0.6-0.4,0.9c0.1,0.2,0.2,0.3,0.3,0.5
					c3.2-1.6,6.3-3.3,9.4-5.1c3.4-2,6.7-4.2,9.9-6.5c3.2-2.3,6.3-4.7,9.3-7.3c2.9-2.5,5.8-5,8.3-8c1.2-1.4,2.3-2.9,3.3-4.6
					C160.1,83.3,161.3,81.3,160,79.9z"/>
				<g>
					<path class="st4" d="M118.9,119.3C118.9,119.3,118.9,119.3,118.9,119.3C118.9,119.3,118.9,119.3,118.9,119.3
						C118.9,119.3,118.9,119.3,118.9,119.3z"/>
					<path class="st4" d="M119.3,119.4c-1.6-3.6-4-6.8-6.5-9.8c-6.5-7.7-13.2-17.5-22.9-21.6c-1.5-0.7-3.3-1.2-5-1.2
						c-1.6,0-2.3,1.2-1.8,2.7c0.8,2.5,2.4,4.6,4.1,6.5c1.8,2,3.6,3.9,5.5,5.8c4.8,4.7,10.2,8.9,16,12.5c2.9,1.8,5.9,3.4,8.9,4.9
						c0.4,0.2,0.7,0.3,1.1,0.5c0,0,0.1,0,0.1,0c0,0,0,0,0.1,0c0.1,0,0.2,0,0.2,0.1c0,0,0.1,0,0.1,0c0,0,0,0,0,0
						C119.3,119.5,119.3,119.5,119.3,119.4z"/>
				</g>
				<path class="st4" d="M122.6,134.3c-0.5-3.2-0.9-6.3-1.3-9.5c-0.5-4.6-0.8-9.2-0.9-13.8c-0.1-4.6,0-9.1,0.2-13.7
					c0.3-4.6,0.7-9.2,1.3-13.8c0.6-4,1.2-8,2.1-11.9c-0.4,0.1-0.9,0.3-1.3,0.5c-1,4.1-1.8,8.2-2.6,12.3c-0.8,4.3-1.5,8.6-2,12.9
					c-0.6,4.3-1,8.6-1.3,12.9c-0.3,4.3-0.6,8.7-0.7,13c-0.1,4.2-0.1,8.4,0,12.7C118.4,136.3,120.7,135.6,122.6,134.3z"/>
				<path class="st8" d="M145.6,39.9c-0.7-1.3-2.2-1.8-3.5-2.2c-1.8-0.4-3.6-0.5-5.4-0.6c-3.8,0-7.5,0.3-11.2,1
					c-3.7,0.7-7.4,1.6-11,2.7c-3,0.9-6.2,1.8-8.9,3.5c-0.4,0.2-0.5,0.6-0.6,1.1c-0.2,1.3-0.4,2.6-0.5,3.9c-0.2,2-0.4,3.9-0.3,5.9
					c0,1.9,0.2,3.9,0.7,5.8c0.3,1.4,0.8,2.9,1.5,4.2c0.7,1.3,1.5,2.6,2.4,3.7c2.5,2.9,5.8,4.4,9.6,4.5c3.8,0.2,7.7-0.4,11.1-2
					c3.8-1.8,6.3-4.8,8.4-8.4c0.7-1.1,1.3-2.2,1.9-3.4c1.4-2.7,2.6-5.5,3.5-8.4C143.7,49.3,146.4,41.4,145.6,39.9z"/>
				<g>
					<path class="st2" d="M118.6,73.3c1.1-0.1,2.1-0.3,3.2-0.6c1.1-0.3,2.2-0.7,3.2-1.3c1-0.6,1.9-1.4,2.6-2.3c0.9-1,1.7-2,2.4-3.1
						c1.5-2.2,2.7-4.6,3.8-7c1.2-2.7,2.3-5.5,3.2-8.3c1-2.9,1.8-5.8,2.7-8.7c0.1-0.4,0.2-0.7,0.3-1.1c0.1-0.2-0.2-0.3-0.3-0.1
						c-0.9,2.9-1.8,5.8-2.7,8.6c-0.9,2.8-1.9,5.6-3.1,8.3c-1.1,2.4-2.3,4.8-3.7,7.1c-0.7,1.1-1.5,2.2-2.3,3.2
						c-0.4,0.5-0.9,1-1.3,1.4c-0.4,0.4-0.8,0.8-1.3,1.2c-0.9,0.6-1.9,1.1-2.9,1.4c-1.1,0.4-2.1,0.7-3.2,0.8c-0.2,0-0.5,0.1-0.7,0.1
						C118.4,73,118.4,73.3,118.6,73.3L118.6,73.3z"/>
				</g>
				<g>
					<path class="st2" d="M104.8,48.2c2.6-0.9,5.3-1.7,7.9-2.5c2.7-0.8,5.4-1.5,8.1-2.2c2.7-0.6,5.4-1.2,8.1-1.7
						c1.4-0.2,2.7-0.5,4.1-0.6c1.4-0.2,2.8-0.3,4.1-0.3c2.6,0,5.1,0.8,7.3,2c0.2,0.1,0.5,0.3,0.7,0.4c0.2,0.1,0.3-0.2,0.2-0.3
						c-2.1-1.3-4.5-2.2-6.9-2.4c-1.4-0.1-2.8,0-4.2,0.1c-1.4,0.2-2.8,0.4-4.1,0.6c-2.7,0.5-5.5,1-8.2,1.6c-2.8,0.6-5.5,1.4-8.2,2.1
						c-2.7,0.8-5.4,1.6-8,2.5c-0.3,0.1-0.7,0.2-1,0.3C104.5,48,104.6,48.3,104.8,48.2L104.8,48.2z"/>
				</g>
				<path class="st9" d="M129.4,49.6C129.3,49.6,129.3,49.6,129.4,49.6c-0.2-0.1-0.3-0.2-0.4-0.1c-1.7,0.3-3.3,1-4.9,1.7
					c-1.7,0.7-3.3,1.4-5,2c0,0-0.1,0-0.1,0c0,0,0,0,0,0c0,0,0,0,0,0c0-0.1,0.1-0.2,0.1-0.3c0.1-0.2,4-4.8,4.4-5.5
					c0.2-0.3,0.5-0.8,0.1-1c-0.4-0.2-0.8-0.2-1.2-0.1c-0.4,0.1-0.9,0.2-1.3,0.4c-0.4,0.1-0.9,0.3-1.3,0.5c-0.6,0.2-1.1,0.5-1.7,0.7
					c-0.5,0.2-1,0.5-1.5,0.9c-0.5,0.4-0.8,1-1.1,1.6c-0.3,0.6-0.6,1.2-1,1.8c-0.6,1.3-1.2,2.6-1.6,3.9c-0.1,0.3-0.2,0.6-0.3,1
					c-0.1,0.3,0,0.6,0.2,0.9c0.3,0.4,1,0.3,1.4,0.2c0.9-0.2,5.4-2.4,6.9-3.1c0.5-0.2,1-0.5,1.6-0.6c0.6-0.2-0.6,1.3-1,1.9
					c-0.4,0.7-0.9,1.3-1.3,2c-0.9,1.3-1.9,2.5-2.8,3.8c-0.5,0.7-0.9,1.5-1.3,2.3c-0.1,0.1,0,0.2,0.1,0.2c0.3,0,0.5-0.2,0.7-0.4
					c0.2-0.3,0.5-0.5,0.7-0.8c0.5-0.5,1-1,1.4-1.6c0.9-1,1.9-2.1,2.8-3.1c1.3-1.4,2.6-2.9,3.9-4.3c0.7-0.8,1.5-1.5,2.1-2.3
					C128.7,51.7,129.8,50.3,129.4,49.6z"/>
				<g>
					<path class="st2" d="M120.5,112c0,1-0.1,2.1-0.1,3.1c0,0.2,0.3,0.2,0.3,0c0-1,0.1-2.1,0.1-3.1
						C120.8,111.8,120.5,111.8,120.5,112L120.5,112z"/>
				</g>
				<g>
					<path class="st2" d="M116.8,117.9c0-1.1,0.1-2.2,0.3-3.2c0.1-0.3-0.3-0.4-0.4-0.1c-0.2,1.1-0.3,2.2-0.4,3.4
						C116.4,118.2,116.8,118.2,116.8,117.9L116.8,117.9z"/>
				</g>
				<g>
					<path class="st2" d="M125.7,109.9c1.6-1.9,3.3-3.8,5-5.6s3.5-3.6,5.3-5.3c1.8-1.7,3.6-3.4,5.5-5c1.9-1.6,3.8-3.2,5.8-4.7
						c2-1.5,4-3,6-4.4c0.3-0.2,0.5-0.4,0.8-0.5c0.2-0.1,0-0.4-0.2-0.3c-2.1,1.4-4.1,2.9-6.1,4.4c-2,1.5-3.9,3.1-5.8,4.7
						c-1.9,1.6-3.8,3.3-5.6,5c-1.8,1.7-3.6,3.5-5.3,5.3c-1.7,1.8-3.4,3.7-5,5.5c-0.2,0.2-0.4,0.5-0.6,0.7
						C125.3,109.8,125.5,110.1,125.7,109.9L125.7,109.9z"/>
				</g>
				<g>
					<path class="st2" d="M89.8,92.3c1.6,1.2,3.1,2.4,4.6,3.6c1.5,1.2,3,2.5,4.4,3.8c1.4,1.3,2.9,2.6,4.2,4c1.4,1.4,2.7,2.8,4.1,4.2
						c1.3,1.4,2.6,2.9,3.9,4.4c0.2,0.2,0.3,0.4,0.5,0.6c0.1,0.1,0.2,0,0.2,0c0.1-0.1,0-0.2,0-0.2c-1.2-1.5-2.5-3-3.8-4.4
						c-1.3-1.4-2.7-2.8-4-4.2c-1.4-1.4-2.8-2.7-4.2-4c-1.4-1.3-2.9-2.6-4.4-3.8c-1.5-1.2-3-2.5-4.6-3.6c-0.2-0.1-0.4-0.3-0.6-0.4
						C89.8,91.9,89.6,92.2,89.8,92.3L89.8,92.3z"/>
				</g>
			</g>
		</g>
	</g>
</g>
</svg>
