<?xml version="1.0" encoding="utf-8"?>
<!-- Generator: $$$/GeneralStr/196=Adobe Illustrator 27.6.0, SVG Export Plug-In . SVG Version: 6.00 Build 0)  -->
<svg version="1.1" id="圖層_1" xmlns="http://www.w3.org/2000/svg" xmlns:xlink="http://www.w3.org/1999/xlink" x="0px" y="0px"
	 viewBox="0 0 240 240" style="enable-background:new 0 0 240 240;" xml:space="preserve">
<style type="text/css">
	.st0{fill:#FFFFFF;}
	.st1{fill:#45B248;}
	.st2{fill:#0F3A44;}
	.st3{fill:#366934;}
	.st4{fill:#6EBD46;}
	.st5{fill:#96C866;}
	.st6{fill:#A9DDE9;}
	.st7{fill:#84C342;}
	.st8{fill:#FFCC02;}
	.st9{fill:#E7282A;}
	.st10{fill:#C99564;}
	.st11{fill:#966731;}
	.st12{fill:#FB9F9F;}
	.st13{fill:#CC6928;}
	.st14{fill:#F79721;}
	.st15{fill:#D34646;}
	.st16{fill:#F9EF6B;}
	.st17{fill:#FCCB98;}
	.st18{fill:#069595;}
	.st19{fill:#F16666;}
	.st20{fill:#50B663;}
	.st21{fill:#79C484;}
</style>
<g>
	<path class="st0" d="M219.5,140c-0.3-1.3-1.2-2.3-2.4-2.8c-3.5-1.4-6.6-3.8-9.9-6.4c-1.2-0.9-2.4-1.9-3.7-2.9
		c-1.2-0.9-2.3-1.6-3.5-2.3c1-1.3,2-2.6,2.9-3.9c6.2-9.4,8.8-18.4,8.1-28.4c-0.1-0.9,0.5-3.4,1-4.7c0.1-0.2,0.3-0.5,0.4-0.8
		c0.2-0.5,0.3-1,0.3-1.6c0-2.1-1.6-3.8-3.6-4c-0.1,0-0.2,0-0.4,0c-0.1,0-0.3,0-0.4,0c-0.6,0.1-1.2,0.3-1.7,0.6
		c-0.4,0.3-0.8,0.6-1.1,1c-0.1,0.1-0.2,0.3-0.3,0.5c-0.1,0.2-0.2,0.4-0.3,0.6c-0.2,0.2-0.9,0.8-3.8,1.5c-3.3,0.8-6.4,1.7-9.3,2.8
		c0.5-1.9,1.1-4.1,1.8-7c1-3.9-0.7-11.4-2.8-20c-0.4-1.5-0.8-3.3-0.9-4.1c0-0.5,0-1-0.2-1.5c-0.4-1.3-1.5-2.3-2.9-2.6
		c-0.3-0.1-0.6-0.1-0.9-0.1c-1.2,0-2.4,0.6-3.1,1.5c-1.9,2.3-4.1,4.4-6.5,6.6c-1.3,1.2-2.6,2.5-3.9,3.8c-0.5-0.9-1.1-1.8-2-2.5
		c-1.2-0.9-2.6-1.5-4.2-1.7c-2.1-2.9-5.7-4.7-9.5-4.7c-0.6,0-1.3,0.1-1.9,0.2c-1.6,0.3-3.2,0.9-4.5,1.9c-9-4.2-19-6.4-29.1-6.4
		c-0.3,0-0.6,0-0.9,0c-1-4.6-4-8.9-8.3-11.4c-1.2-0.7-2.5-1.3-4-1.8c-0.8-0.7-1.9-1.1-3-1.1c-0.4,0-0.8,0.1-1.2,0.2
		c-0.8-0.1-1.5-0.2-2.3-0.2c-0.6-0.3-1.4-0.5-2.1-0.5c0,0,0,0,0,0c-1,0-1.9,0.3-2.6,0.9c-1.3,0.2-2.6,0.6-3.8,1
		c-0.2,0-0.5-0.1-0.7-0.1c-1.6,0-3,0.8-3.9,2.2c0,0.1-0.1,0.1-0.1,0.2c-3,1.9-5.2,4.5-6.4,7.4c-1.8,4.4-1.3,9.4,1.4,14.6
		c-1.3,0.8-2.5,1.7-3.7,2.7c-0.6,0.4-1.1,0.9-1.6,1.3c-0.4-0.5-0.7-1-1.1-1.5c-1.9-2.6-3.8-5.3-5.6-7.9c-1.1-1.6-2.1-3.1-2.5-4.6
		c-0.4-1.5-1.7-2.7-3.3-2.9c-0.2,0-0.4,0-0.5,0c-1.4,0-2.7,0.7-3.4,1.9c-3.2,5.4-6.5,11.3-8.4,17.8c-1.2,4-1.7,8.1-1.7,12.3
		c-1.6-0.9-3.3-1.7-4.9-2.5c-1.4-0.7-2.9-1.3-4.3-1.9c-3.5-1.5-6.7-2.9-9.7-4.8c-0.7-0.5-1.2-1.3-2.1-2.7c-0.1-0.2-0.2-0.3-0.3-0.5
		c-1-2-2.5-2.5-3.5-2.6c-0.1,0-0.3,0-0.4,0c-1.4,0-2.7,0.7-3.4,1.9c-0.8,1.3-0.8,2.9,0,4.2c0,0.7,0,1.3,0.3,2
		c0.1,0.2,0.2,0.5,0.3,0.7c0.3,1.8,0.7,4.1,1.1,6.6c1,6.4,2.2,13.6,3.6,18.1c1.9,6.3,4.9,12.4,8.7,18c0,0,0,0,0,0
		c-1.9,0-3.6,1-4.5,2.7c-0.5,1-0.9,2-1.2,3.2c-0.2,0-0.3-0.1-0.5-0.1c-0.2,0-0.5-0.1-0.7-0.1c-2.8,0-4.9,2.4-4.9,5.5
		c-0.1,8.6,0.1,17.4,0.7,26c0.1,1.7,0.5,4.6,2.1,6.6c0.1,0.5,0.2,1.4,0.2,3c-0.3,0.5-0.5,1-0.6,1.6l-0.4,2.6
		c-0.2,0.6-0.3,1.1-0.3,1.7c0,0,0,0,0,0.1l-0.2,1.3c-0.2,1.1,0.1,2.3,0.9,3.1c0.1,0.1,0.3,0.3,0.4,0.4l-2,37.9
		c-0.1,1.1,0.3,2.2,1.1,3c0.8,0.8,1.8,1.2,2.9,1.2h20.1H51c2.2,0,4-1.8,4-4c0-0.2,0-0.4,0-0.5c-0.1-2-0.7-19.8-1.2-37.5
		c0.3-0.5,0.6-1.1,0.7-1.7c0-0.2,0.1-0.3,0.1-0.5c0.1-0.7,0-1.3-0.2-2c0-0.1,0-0.2-0.1-0.2l-0.5-4.8c-0.1-0.6-0.3-1.2-0.6-1.7
		c0.1-1.1,0.2-1.8,0.2-2.2c1.5-1.5,2.8-4,4.3-7.6l0.1-0.4c0.6-1.3,0.8-2.6,1-3.7c0.1-0.7,0.3-1.3,0.4-1.9c0.1-0.4,0.3-0.7,0.4-1.1
		c0.6-0.3,1.1-0.6,1.7-0.8c-0.4,0.7-0.6,1.5-0.5,2.4c0.3,2.5,1.2,4.7,2,6.7c0.3,0.8,0.7,1.6,0.9,2.4c0.2,0.5,0.3,1.1,0.4,1.7
		c0.2,1.1,0.5,2.3,1,3.6l0.1,0.3c1.4,3.4,2.6,5.8,4.1,7.2c0.2,0.8,0.4,2.6,0.5,6.8c-0.8,0.1-1.6,0.6-2.2,1.2
		c-0.8,0.8-1.2,1.8-1.1,2.9c1.1,31,1.2,31.7,1.3,32c0.3,1.9,2,3.4,3.9,3.4c0,0,0,0,0,0l5.1,0c0.2,0,0.3,0.1,0.5,0.1
		c0.2,0,0.4,0,0.6,0c0.4,0,0.8,0,1.1-0.1l13,0c2.2,0,4-1.8,4-4v-31.5c0-1.9-1.3-3.5-3-3.9c0-4,0.1-6.1,0.3-7.2
		c3.4,1.5,6.9,2.7,10.6,3.6l0.3,39c0,2.2,1.8,4,4,4l24,0c0,0,0,0,0,0c1.1,0,2.1-0.5,2.9-1.2c0.8-0.8,1.2-1.9,1.1-3l-2-37.9
		c2.7-0.5,5.4-1.2,8-2.1c0,0.3,0,0.7,0,1.1c-0.7,0.7-1.2,1.6-1.2,2.7l-0.1,1.3c-0.3,0.6-0.4,1.2-0.4,1.9c0,0.5,0.1,0.9,0.2,1.4
		l-1.9,31.6c-0.1,1.1,0.3,2.2,1.1,3c0.8,0.8,1.8,1.3,2.9,1.3c0,0,0,0,0,0l21.7-0.1c1.1,0,2.1-0.4,2.8-1.2c0.7-0.8,1.2-1.8,1.1-2.9
		l-0.5-36.1c0-1-0.4-1.9-1-2.6c0.2-5.2,0.5-7.3,0.6-8.1c1.6-1.5,2.9-4.2,4.5-8l0.2-0.4c0.6-1.4,0.8-2.7,1.1-3.9
		c0.1-0.3,0.1-0.7,0.2-1c0.4,1,0.8,1.9,1.2,2.8c0.4,0.8,0.8,1.6,1.1,2.4c0.2,0.5,0.3,1,0.5,1.7c0.2,1,0.5,2.3,1.2,3.6l0.2,0.3
		c1.7,3.4,3.1,5.8,4.8,7.3c0.9,3.7,0.8,18.2,0.7,25.7c-0.4,0.6-0.6,1.2-0.6,2l0,0.4c-0.4,0.7-0.6,1.5-0.5,2.4c0,0.6,0.2,1.2,0.4,1.7
		l-0.4,9.8c0,1.1,0.4,2.1,1.1,2.9c0.8,0.8,1.8,1.2,2.9,1.2h20.7c2.2,0,4-1.8,4-4v-10.2c0.2-0.5,0.3-1.1,0.2-1.7
		c0-0.4-0.1-0.9-0.2-1.3v-1c0-1.1-0.5-2.2-1.2-2.9c-0.9-16.5-0.7-23.7-0.3-25.8c1.8-2.1,2.3-5.1,2.4-6.5c0.4-5.3,0.6-10.7,0.7-16.1
		c2.3-1.7,4.3-3.8,6.2-6C219.5,142.6,219.8,141.3,219.5,140z M180,144.1c0.3,0.2,0.6,0.3,0.8,0.5c0.1,0.9,0.1,1.7,0.2,2.6
		c-0.7-0.4-1.5-0.7-2.3-0.9C179.2,145.5,179.6,144.8,180,144.1z"/>
	<g>
		<g>
			<path class="st1" d="M165.7,116.7c-1.8-9.6-1.9-19.5-0.5-29.1c0.4-2.6,0.9-5.2,1.9-7.7c3.5-9,12.4-14.7,18.8-22.1
				c-0.7-0.2,5.1,18.5,3.9,23.5c-1.9,7.8-2.5,9.9-4.9,14.5c-4.6,8.8-11.3,16.7-20.2,21.5"/>
			<g>
				<path class="st2" d="M183.9,63.3c-0.9,6.4-1.9,13-4.6,19c-1.2,2.7-3,5.2-4.1,8c-1.2,2.9-1.7,6-1.9,9c0.3,0,0.6,0,0.9,0
					c0-0.2,0-0.3,0-0.5c0-0.6-0.9-0.6-0.9,0c0,0.2,0,0.3,0,0.5c0,0.6,0.8,0.6,0.9,0c0.2-3.4,0.8-6.7,2.2-9.8c1.3-2.7,2.9-5.2,4.1-8
					c2.4-5.7,3.3-11.9,4.2-18.1C184.8,63,184,62.7,183.9,63.3L183.9,63.3z"/>
			</g>
			<g>
				<path class="st2" d="M177.9,86.7c-1.5-3.7-1.5-7.7-0.2-11.4c0.2-0.5-0.7-0.8-0.8-0.2c-1.3,3.8-1.3,8.1,0.2,11.9
					C177.2,87.5,178.1,87.2,177.9,86.7L177.9,86.7z"/>
			</g>
			<g>
				<path class="st2" d="M181.2,80.1c2.7-1,5-3.1,6.2-5.8c0.1-0.2,0.1-0.5-0.2-0.6c-0.2-0.1-0.5-0.1-0.6,0.2
					c-1.1,2.5-3.1,4.5-5.6,5.4C180.4,79.4,180.6,80.3,181.2,80.1L181.2,80.1z"/>
			</g>
		</g>
		<path class="st3" d="M173.9,136.9c0.7-5.4,5.3-10.2,10.9-11.1c5.8-0.9,11.6,2,16.3,5.4c4.7,3.4,9,7.6,14.5,9.7
			c-2.6,3-5.4,6.1-9.2,7.5c-5.7,2.1-12.1-0.4-17.3-3.5c-5.2-3.1-10.2-7-16.3-8"/>
		<path class="st4" d="M160.6,138.8c-0.3-16.6,9.1-33,23.8-41.6c5.4-3.2,11.5-5.3,17.6-6.8c2.7-0.7,5.8-1.6,6.7-4.1
			c-0.8,1.3-1.8,5.3-1.7,7.4c0.7,9.7-2.1,17.7-7.4,25.9c-5.4,8.2-13.5,14.6-22.9,18.2c-2.2,0.8-4.6,1.5-7,1.8
			c-3.4,0.4-6.8,0-10.2,0.5c-0.5,0.1-0.9,0.8-0.5,0.8"/>
		<g>
			<path class="st2" d="M174.5,122.9c6.2-1.9,11.3-5.6,15.3-10.7c2.1-2.7,4.1-5.4,5.7-8.4c1.7-3.2,3.3-6.2,6.1-8.5
				c0.4-0.3-0.2-1-0.6-0.6c-2.5,2-4.1,4.5-5.5,7.3c-1.6,3-3.4,5.8-5.4,8.5c-4.1,5.5-9.2,9.7-15.8,11.7
				C173.7,122.2,173.9,123,174.5,122.9L174.5,122.9z"/>
		</g>
		<g>
			<path class="st2" d="M185.6,116.5c0-2.6,0.1-5.2,0.5-7.8c0.3-2.3,0.7-4.8,2.2-6.7c0.3-0.4-0.3-1.1-0.6-0.6
				c-1.5,1.9-2,4.2-2.3,6.5c-0.4,2.8-0.6,5.7-0.6,8.5C184.8,117,185.6,117,185.6,116.5L185.6,116.5z"/>
		</g>
		<g>
			<path class="st2" d="M185.2,117c4.7,0.5,9.6-0.9,13.2-3.9c0.4-0.4-0.2-1-0.6-0.6c-3.5,2.9-8.1,4.2-12.6,3.7
				C184.6,116.1,184.6,117,185.2,117L185.2,117z"/>
		</g>
		<g>
			<path class="st2" d="M193.1,107.3c-0.2-1.7-0.3-3.4-0.3-5.1c0-1.5,0-3.1,0.7-4.5c0.3-0.5-0.5-0.9-0.7-0.4
				c-0.7,1.5-0.8,3.1-0.8,4.7c0,1.8,0,3.7,0.3,5.5C192.4,108.1,193.2,107.8,193.1,107.3L193.1,107.3z"/>
		</g>
		<g>
			<path class="st2" d="M193,107.7c0.1-0.1,0.4,0,0.5,0.1c0.2,0,0.4,0,0.6,0c0.4,0,0.8-0.1,1.1-0.3c0.7-0.2,1.4-0.6,2.1-0.9
				c1.4-0.7,2.7-1.5,3.9-2.4c0.4-0.3,0.2-1-0.3-0.8c-0.1,0.1-0.3,0.1-0.4,0.2c-0.5,0.2-0.3,1,0.2,0.8c0.1-0.1,0.3-0.1,0.4-0.2
				c-0.1-0.3-0.2-0.5-0.3-0.8c-1.2,0.9-2.5,1.7-3.9,2.4c-0.7,0.3-1.4,0.7-2.2,0.9c-0.4,0.1-0.8,0.2-1.2,0.1c-0.3,0-0.6-0.1-0.9,0.1
				C192.1,107.2,192.5,107.9,193,107.7L193,107.7z"/>
		</g>
		<g>
			<path class="st2" d="M180.3,131.8c2.6-1.4,5.6-0.6,8.3,0.2c2.7,0.8,4.7,2,6.7,3.9c1.5,1.4,3,3,4.7,4.1c2,1.3,4.4,1.9,6.8,1.9
				c0.6,0,0.6-0.9,0-0.9c-3,0-5.7-1.1-8-3c-1.7-1.5-3.2-3.2-5.1-4.6c-2.1-1.5-4.6-2.2-7-2.8c-2.3-0.6-4.7-0.7-6.9,0.5
				C179.4,131.4,179.8,132.1,180.3,131.8L180.3,131.8z"/>
		</g>
		<g>
			<path class="st2" d="M190.4,132.5c0,3,1.9,5.5,4,7.5c0.4,0.4,1-0.2,0.6-0.6c-1.9-1.8-3.8-4.1-3.8-6.9
				C191.3,131.9,190.4,131.9,190.4,132.5L190.4,132.5z"/>
		</g>
		<g>
			<path class="st2" d="M191,132.9c2.9-0.7,5.9-0.1,8.4,1.4c0.5,0.3,0.9-0.5,0.4-0.7c-2.7-1.7-6-2.2-9.1-1.5
				C190.2,132.1,190.4,133,191,132.9L191,132.9z"/>
		</g>
		<g>
			<path class="st1" d="M75.9,137.2c-4.8-3.5-10.1-6.4-16-7.8c-5.8-1.4-12.1-1.4-17.7,0.7c-2.6,1-5.1,2.5-6.6,4.8
				c-0.8,1.3-1.3,2.8-1.7,4.2c-1.3,4.9-1.7,10-1.3,15c0.1,1.8,0.2,3.9-1.2,5.1c3.4,2.3,8.1,1.2,11.5-1c3.4-2.2,5.9-5.5,8.9-8.2
				c6.7-5.9,16.3-8.7,25.3-7.4C76.7,140.7,76.3,139,75.9,137.2"/>
			<g>
				<path class="st2" d="M37.3,154.2c2-1.4,2.9-3.7,3.3-6.1c0.6-3.2,1.1-6.2,3.8-8.3c5.3-4.2,12.8-2.6,19-1.9c0.6,0.1,0.6-0.8,0-0.9
					c-6.1-0.7-13.2-2.1-18.7,1.5c-2.2,1.4-3.6,3.5-4.3,6c-0.8,3.1-0.7,6.8-3.6,8.9C36.4,153.8,36.8,154.5,37.3,154.2L37.3,154.2z"/>
			</g>
			<g>
				<path class="st2" d="M51.7,136.5c-1,0-1.7,0.8-2.3,1.6c-0.6,0.8-1.2,1.7-1.6,2.6c-0.4,0.9-0.7,1.9-0.8,2.9
					c-0.1,0.5-0.1,1-0.1,1.5c0,0.4-0.1,1,0.2,1.3c0.1,0.1,0.4,0.2,0.5,0.1c0.2-0.1,0.3-0.2,0.2-0.4c0-0.3-0.2-0.4-0.4-0.4
					c0,0,0,0,0,0c-0.6-0.1-0.5,0.8,0,0.9c0,0,0,0,0,0c-0.1-0.1-0.3-0.3-0.4-0.4c0,0,0,0,0,0c0.1-0.1,0.1-0.2,0.2-0.4c0,0,0,0,0,0
					c0.2,0,0.4,0,0.5,0.1c0.1,0.1,0-0.3,0-0.4c0-0.2,0-0.4,0-0.7c0-0.4,0.1-0.8,0.1-1.2c0.1-0.8,0.4-1.7,0.7-2.4
					c0.3-0.8,0.7-1.5,1.2-2.2c0.4-0.6,1.1-1.6,1.9-1.6C52.2,137.3,52.2,136.4,51.7,136.5L51.7,136.5z"/>
			</g>
			<g>
				<path class="st2" d="M45.1,138.5c-3.2-1.2-6.9,0-8.8,2.8c-0.3,0.5,0.4,0.9,0.7,0.4c1.7-2.5,5-3.5,7.9-2.5
					C45.4,139.6,45.7,138.7,45.1,138.5L45.1,138.5z"/>
			</g>
		</g>
		<path class="st3" d="M91.1,122.6c-2.9-1.2-5.8-2.4-8.7-3.6c-3.1-1.3-6.2-2.6-9.1-4.2c-7.3-4.3-12.8-11.1-15.6-18.9
			c-2.8-7.8-2.9-16.4-0.7-24.3c1.7-6,4.7-11.5,8-16.9c0.6,2.1,1.8,3.9,3,5.7c5.1,7.4,10.7,14.5,15.3,22.2c4.6,7.7,8.3,16.2,9,25
			c0.4,5.6-0.3,11.2-1.7,16.7c0,0.2-0.1,0.4-0.3,0.4c-0.2,0-0.2-0.3,0-0.3"/>
		<g>
			<path class="st5" d="M86.5,144.5c-2.1,0.2-4.3-0.1-6.4-0.6c-11.2-2.5-21.7-8-30-15.6c-8.4-7.6-14.6-17.4-17.9-28.1
				c-2.6-8.3-4.6-28.2-5.8-28.3c1.3,2,2.1,3.9,4.1,5.1c4.5,2.9,9.6,4.7,14.4,6.9c12.3,5.6,23.3,14.4,29.7,26
				c2.9,5.3,4.8,11.1,6.6,16.8c1.8,5.7,3.6,11.3,5.5,17c0.1,0.2,0.1,0.5,0,0.7c-0.2,0.2-0.6,0-0.4-0.2"/>
			<g>
				<path class="st2" d="M62,126.6c-2-7.9-5.2-15.5-9.6-22.5c-2.2-3.5-4.7-6.8-7.4-9.9c-2.7-3.1-5.7-5.8-8.7-8.7
					c-3.4-3.3-6.6-6.8-8.4-11.2c-0.2-0.5-1-0.3-0.8,0.2c3,7.4,9.6,12.2,14.9,17.7c5.9,6.1,10.8,13.2,14.4,21c2,4.4,3.6,8.9,4.8,13.6
					C61.3,127.4,62.1,127.2,62,126.6L62,126.6z"/>
			</g>
			<g>
				<path class="st2" d="M33.5,99c5.9,2.8,12.2,4.8,18.6,5.9c0.3,0,0.6-0.1,0.5-0.4C52.5,98.6,50.5,92.8,47,88
					c-0.3-0.4-1.1,0-0.7,0.4c3.5,4.6,5.4,10.2,5.5,16c0.2-0.1,0.4-0.3,0.5-0.4c-6.4-1.2-12.5-3.1-18.4-5.9C33.4,98,33,98.7,33.5,99
					L33.5,99z"/>
			</g>
			<g>
				<path class="st2" d="M42.8,114.1c2.1,1.7,4.7,2.7,7.4,3.4c0.9,0.2,8.9,2.3,9,1.7c0.1-0.1,0.1-0.2,0.2-0.4c0,0-0.1,0-0.1,0.1
					c-0.4,0.3,0,1.1,0.4,0.7c0.3-0.2,0.5-0.6,0.2-0.9c-0.3-0.4-1.1-0.3-1.6-0.4c-2-0.2-3.9-0.6-5.8-1.1c-3.2-0.8-6.5-1.6-9.1-3.7
					C43,113.1,42.4,113.7,42.8,114.1L42.8,114.1z"/>
			</g>
			<g>
				<path class="st2" d="M59.8,119.1c1.4-6.2,1.3-12.6-0.3-18.8c-0.1-0.5-1-0.3-0.8,0.2c1.6,6,1.7,12.3,0.3,18.3
					C58.8,119.4,59.7,119.6,59.8,119.1L59.8,119.1z"/>
			</g>
		</g>
		<g>
			<path class="st6" d="M183.3,115.4c0,32.5-27.8,58.9-62.1,58.9c-34.3,0-62.1-26.4-62.1-58.9c0-32.5,27.8-58.9,62.1-58.9
				C155.5,56.4,183.3,82.8,183.3,115.4z"/>
			<path class="st7" d="M113.7,57.2c-1.4,4,5.5,0.9,6.9,1.3c2,0.6,2.4,2.8,4.4,3.2c2.8,0.6,2.8-1.5,4.6,1.1c0.6,0.8,1.6,3.8,2,4.9
				c0.8,2.6,0.6,2.3-2.2,3.4c-1.4,0.6-4.2,0.8-5.6,1.9c-1.2,0.9-0.6,4.1-3.6,2.1c-2.2,2.1-1.4,8.7-5.6,5.1c-0.8-0.9-2.8-3.8-3.2-4.7
				c-1-2.6,1-2.6,1.2-4.9c0-0.8-1-1.3-1.2-2.1c0-0.2,0.4-3,0.6-2.6c-0.8-1.7-4.2-1.5-4.6-3c-0.2-0.6,1.6-4.3,2-4.7
				c1-0.8,3.2-0.6,4-0.4"/>
			<path class="st7" d="M60.8,102.9c-0.6,2.1-0.8,5.3-0.8,7.8c-0.2,3-1.1,7.8,1.2,8.1c2.4,0.4,1.6-1.9,2-3c2.2,1.1,0.8,2.3,1.2,3.8
				c0.4,1.5,1.2,2.4,2.4,3.6c2.6,2.8,4.4,2.4,7.9,3.4c3.2,0.8,3.8,3.2,6.5,4.5c3.6,1.5,4.8,1.3,4.2,5.3c-1,4.3,0.4,8.5,4,11.7
				c2,1.7,4.4,0.9,6,2.1c2.2,1.3,1.4,3.2,2,5.3c1.4,3.9,4.8,7.7,6.7,11.3c1.8,3.6,5.9,6.6,10.1,7.3l0,0c-1.6-1.1-3.4-2.8-4.4-4.3
				c-1.2-1.7-2-3.8-0.4-5.5c1-0.8,2.8-0.4,3.6-1.3c0.6-0.8,0-1.9,0.4-2.8c1-2.4,2.6-3,4.4-4.3c2.8-1.9,1.8-1.9,2.2-4.7
				c0.8-4.5,7.9-6,1.6-10c-3.4-2.1-8.3-3.2-12.3-3.2c-0.4-5.8-6.1-4.7-10.7-6.4c-2.2-0.9-4.4-1.7-6.5-2.6c-3.2-1.1-4.8-2.6-6.1,1.1
				c-1.8-0.6-4.2,1.3-5.4-0.8c-1-1.5,1.4-3.4,0-4.9c-1.8-1.9-2.8,0.8-3.8-2.3c-0.6-1.5,1.2-4.5-1.8-4.3c-0.4,6.4-5.4,0.9-5.6-2.4
				c-0.2-3,1.8-2.4,3.8-3.2c1-0.4,3.2-2.3,4.2-1.9c0.4,0.2,4.2,10.9,4.4,3.6c0-1.7-2-3.8-1-5.5c1-1.7,3.2-0.8,4.4-1.7
				c1.6-1.3,2.2-4,3.8-5.3c1.8-1.5,4-3.4,5.9-4.5c1.8-1.3,4.2-0.6,5.9-1.7c2.4-1.7,0.8-3.4,4.2-3.4c2.4,0.2,3.4,2.1,3.6-1.5
				c0-1.3-0.8-3.2-1.6-4.1c-1.6-1.7-3-3.4-4.4-5.1c-2.2-2.4-2.8-0.2-4.4-1.5c-0.6-0.4-3.2-4.7-1-4.5c1.2,0.2,1.4,2.3,2.6,2.3
				c1,0,1-1.3,1.4-1.5c1-0.4,3.8-1.5,4.2-2.4c0.6-2.1-2.4-2.6-3.2-3.8c-1-1.1-0.6-1.1-1-2.3c-0.4-0.8,0.2-1.1-0.4-1.9
				c-0.6-0.8-3,0.6-2.8-0.9c0.2-0.8,2.2-0.8,2.6-0.9c5.8-2.6-1.6-4.5-3-2.3C97.4,61.2,70.1,68.6,60.8,102.9z"/>
			<path class="st7" d="M162.1,72c0-3.8-14.3-5.2-10,2.3c1.6,2.4,1.6,1.3,1.2,3.6c-0.2,0.9-1.6,0.2-1.2,1.7c0,0.8,1.8,1.9,2.4,2.1
				c3.4,1.7,5,0.2,7.1,3.9l0,0l0.2-0.2v0.2c-3.4,0.4-6.5,1.7-7.3,5.1c-3.4,0.6-2-2.6-2.8-4.3c-1-2.4-4.4-3.6-5.9-0.9
				c-2.6,4.9,7.7,7.2,6.5,10.7c-2.6-0.8-4.4-0.4-4.4,2.3c0.2,0.4,1.2,1.5,1.4,2.3c0.2,1.1-0.8,1.9-0.4,3.2c2.8,6.8,7.5-4.1,9.5-5.1
				c3.6-1.7,11.9,4.1,5.9,5.6c-2.6,0.6-3.2-1.9-5.6-1.9c-2.8,0-2.4,3.2-4.4,4.3c-2.2,1.1-3.8-0.2-5.6,2.3c-1.2,1.7-1.4,3.8-2.8,5.5
				c-1.4,1.9-3.6,3.2-3.8,5.6c-0.2,2.3,1.4,3.8,1.8,5.8c0.4,2.4-1,3.2,1.2,5.3c1.4,1.1,4.2,2.6,5.7,2.4c2-0.2,3.6-1.5,5.7-1.5
				c1.4,0,5.2-1.1,5.8-0.8c2,0.8,1.2,2.6,0.8,4c-0.6,2.1-1.2,3.6-1.4,5.8c-0.4,2.8,1.2,3.9-2.8,10.3c-1.1,1.8-8.5,7.7-6.1,10.2
				c2,2.1,9.8-3.4,11.3-4.7c3.2-3.2,7.7-7.3,10.2-12c2.1-3.8,4.5-8.1,5.5-12.3c1.8-7.1,4-15.3,2.5-23.9c-1.1-6.9-3.3-15.3-7.2-21.3
				c-2.6-4-3.6-6-6.9-9.6C166.1,75.5,165.5,73.2,162.1,72"/>
		</g>
		<path class="st0" d="M137.3,76c-0.5-1.7-0.1-2.9,1.2-4.1c1.4-1.2,3.9-1.4,5.7-0.9c-0.2-1.2,0.5-2.5,1.6-3.1
			c1.2-0.6,2.8-0.4,3.8,0.4c-0.4-3.3,2.3-6.8,5.9-7.4c3.6-0.6,7.5,1.6,8.5,4.9c1.3-0.6,2.9-0.3,3.9,0.5c1,0.8,1.5,2.3,1,3.5
			c1.5,0.2,2.9,1.1,3.5,2.3c0.7,1.2,0.6,2.8-0.1,4C162.1,76.1,138.5,76.1,137.3,76"/>
		<g>
			<path class="st8" d="M94.2,74.1c-0.3-3.3-2.9-5.8-5-8.5c-3.3-4.4-5.7-10-3.7-14.9c1.3-3.3,4.5-5.8,8-7.2c5.2-2.1,11.5-1.9,16.3,1
				c4.8,2.8,7.6,8.3,6.4,13.4c-1.4,6-7.8,10-7.5,16.2C104,74.8,99,75.3,94.2,74.1"/>
			<g>
				<path class="st9" d="M91.8,43.7c-3.1,4.9-2.2,11-0.1,16.1c1,2.3,2.3,4.4,3.4,6.6c1.4,2.7,2.4,5.5,2.8,8.5
					c0.1,0.8,1.3,0.4,1.2-0.3c-0.7-5.1-3.3-9.1-5.5-13.6c-2.5-5.1-4-11.6-0.8-16.7C93.3,43.6,92.2,43,91.8,43.7L91.8,43.7z"/>
			</g>
			<g>
				<path class="st9" d="M105,74.7c0-3,1.1-5.6,2-8.4c0.9-2.8,1.6-5.6,1.8-8.5c0.3-2.9,0.1-5.9-0.4-8.7c-0.5-2.5-1.1-5-3-6.8
					c-0.6-0.5-1.4,0.3-0.9,0.9c2.2,2,2.7,5.5,3,8.3c0.3,2.8,0.2,5.6-0.2,8.4c-0.8,5-3.6,9.6-3.6,14.8C103.8,75.5,105,75.5,105,74.7
					L105,74.7z"/>
			</g>
			<g>
				<path class="st9" d="M98.9,42.1c-1.9,10.9,1.1,21.8,2,32.6c0.1,0.8,1.3,0.8,1.2,0c-0.9-10.7-3.9-21.5-2-32.3
					C100.2,41.6,99,41.3,98.9,42.1L98.9,42.1z"/>
			</g>
			<path class="st10" d="M95.6,83.2c0.4,3.1,0.8,6.2,1.3,9.2c3.1,0.6,9.9,0.1,10,0c0.1-0.1,1-6.4,1.1-9.3
				C104.1,84,98.5,84,95.6,83.2"/>
			<g>
				<path class="st11" d="M97.6,84.2c0.2,2.7,0.6,5.4,1.2,8.1c0.2,0.7,1.2,0.4,1.1-0.3c-0.6-2.6-1-5.2-1.2-7.8
					C98.6,83.5,97.5,83.5,97.6,84.2L97.6,84.2z"/>
			</g>
			<g>
				<path class="st11" d="M99.8,84.3c0.1,2.7,0.4,5.5,0.8,8.2c0,0.3,0.2,0.5,0.5,0.5c0.3,0,0.6-0.3,0.5-0.5
					c-0.3-2.7-0.7-5.4-0.8-8.2C100.8,83.6,99.7,83.6,99.8,84.3L99.8,84.3z"/>
			</g>
			<g>
				<path class="st11" d="M105.2,84.1c-0.2,2.7-0.3,5.4-0.9,8.1c-0.2,0.7,0.9,1,1.1,0.3c0.6-2.7,0.7-5.6,0.9-8.4
					C106.3,83.4,105.2,83.4,105.2,84.1L105.2,84.1z"/>
			</g>
			<g>
				<path class="st11" d="M102.9,84.2c0,1.6-0.1,3.1-0.1,4.7c0,1.2-0.1,2.3-0.2,3.5c-0.1,0.7,1,0.7,1.1,0c0.1-1.2,0.1-2.3,0.2-3.5
					c0.1-1.6,0.1-3.1,0.1-4.7C104,83.5,102.9,83.5,102.9,84.2L102.9,84.2z"/>
			</g>
			<g>
				<path class="st11" d="M96.2,86.5c3.7,0.6,7.5,0.9,11.2-0.2c0.7-0.2,0.4-1.3-0.3-1.1c-3.4,1.1-7.1,0.8-10.6,0.2
					C95.8,85.4,95.5,86.4,96.2,86.5L96.2,86.5z"/>
			</g>
			<g>
				<path class="st11" d="M96.3,88.4c0.8,0.4,1.6,0.5,2.5,0.6c0.9,0.1,1.8,0.2,2.7,0.2c1.9,0,3.7-0.2,5.6-0.6
					c0.7-0.2,0.4-1.2-0.3-1.1c-1.7,0.4-3.4,0.6-5.1,0.6c-0.8,0-1.7,0-2.5-0.1c-0.8-0.1-1.6-0.1-2.3-0.5C96.2,87.1,95.6,88,96.3,88.4
					L96.3,88.4z"/>
			</g>
			<g>
				<path class="st11" d="M96.8,90.7c3.3,0.9,6.8,0.9,10-0.1c0.7-0.2,0.4-1.3-0.3-1.1c-3.1,0.9-6.3,0.9-9.4,0.1
					C96.4,89.5,96.1,90.6,96.8,90.7L96.8,90.7z"/>
			</g>
			<g>
				<path class="st8" d="M94.1,74.3c0.9,2.9,1.4,6,1.6,9.1c0,0.8,1.3,0.8,1.2,0c-0.1-3.2-0.7-6.3-1.6-9.4
					C95,73.2,93.8,73.6,94.1,74.3L94.1,74.3z"/>
			</g>
			<g>
				<path class="st8" d="M107.9,73.8c-0.7,3.1-1.1,6.2-1.1,9.4c0,0.8,1.2,0.8,1.2,0c0-3.1,0.3-6.1,1.1-9.1
					C109.2,73.4,108.1,73,107.9,73.8L107.9,73.8z"/>
			</g>
			<path class="st8" d="M96.6,83.9c0.1-0.1,0.2-0.3,0.2-0.5c0-0.1-0.1-0.2-0.1-0.3c0-0.2,0-0.5-0.1-0.7c-0.1-0.5-0.5-1.2-1.1-1.2
				c-0.2,0-0.4,0.1-0.6,0.2c-0.2,0.2-0.2,0.4-0.2,0.6c0,0.1,0,0.2,0,0.3c-0.2-0.1-0.5-0.2-0.7-0.2c-0.4,0-0.7,0.2-0.8,0.6
				c-0.1,0.3,0,0.6,0.3,0.9c0.3,0.3,0.8,0.4,1.2,0.4c0.1,0,0.1,0,0.2,0c-0.1,0.2-0.2,0.4-0.3,0.6c0,0,0,0,0,0
				c-0.1,0.1-0.2,0.3-0.2,0.4c0,0.1,0.1,0.3,0.2,0.4c0.1,0.1,0.3,0.2,0.4,0.2c0.2,0,0.3-0.1,0.4-0.2c0.1-0.1,0.1-0.2,0.2-0.3
				c0,0,0,0.1,0.1,0.1c0.1,0.1,0.3,0.2,0.4,0.2c0.2,0,0.3-0.1,0.4-0.2c0.1-0.1,0.2-0.3,0.2-0.4c0-0.2,0-0.5-0.1-0.7
				C96.7,84.1,96.7,84,96.6,83.9z"/>
			<path class="st8" d="M109.8,84.5c0-0.1-0.1-0.3-0.3-0.4c-0.3-0.1-0.6-0.3-0.8-0.5c-0.1-0.1-0.2-0.2-0.3-0.3
				c0.1-0.1,0.2-0.2,0.3-0.3c0.4-0.4,0.9-1,0.5-1.6c-0.2-0.3-0.5-0.4-0.8-0.4c-0.3,0-0.6,0.1-0.8,0.3c-0.2,0.1-0.3,0.3-0.4,0.5
				c-0.1-0.1-0.2-0.3-0.4-0.4c-0.5-0.3-1.2-0.3-1.5,0.2c-0.3,0.5,0.1,1.1,0.6,1.4c0.3,0.1,0.5,0.2,0.8,0.4c0.1,0.4,0.2,0.8,0.5,1.1
				c0.3,0.4,0.7,0.8,1.2,1.1c0.3,0.1,0.7,0.1,0.8-0.2c0-0.1,0-0.1,0-0.2c0,0,0.1,0,0.1,0c0.1,0,0.3-0.1,0.4-0.3
				C109.8,84.9,109.8,84.7,109.8,84.5z M108.4,82.3C108.4,82.3,108.4,82.3,108.4,82.3C108.4,82.3,108.4,82.3,108.4,82.3
				C108.4,82.3,108.4,82.3,108.4,82.3z M106.4,82C106.4,82,106.4,82,106.4,82C106.4,82,106.3,82,106.4,82z"/>
		</g>
		<path class="st0" d="M53.7,91.2c-0.7-0.9-0.8-2.1-0.3-3.1c0.5-1,1.7-1.6,2.9-1.6c-1.4-2.3-0.5-5.6,2-7c2.5-1.4,6.1-0.6,7.6,1.6
			c0.2-1,1.2-1.8,2.3-1.9c1.1-0.1,2.2,0.6,2.5,1.6c0.8-0.5,1.8-0.9,2.8-1.1c2.8-0.5,5.9,0.4,7.8,2.3c1.9,1.9,2.7,4.8,1.8,7.3
			c0.3-0.5,1.2-0.4,1.8,0c0.7,0.5,1.2,1.3,0.7,2c0,0-21.2-0.3-31.8,0"/>
		<g>
			<g>
				<path class="st12" d="M144.7,215c0.4-2.8,3.1-47.9,0.7-50c-1.1-1-1.5-3.5-1.6-4.9c-0.6-8.9-0.8-17.7-0.7-26.6
					c0-0.7,0.3-1.7,1.1-1.6c0.2,0,0.3,0.1,0.4,0.2c2.7,2.2,1,10,3.3,10.1c1.1,0,1.2-6.6,1.1-9.3c0-2.1,0.2-4.4,1.1-6.3
					c0.4-0.8,1.7-0.7,2,0.1c1.5,4.2,0.2,15.6,1.7,15.7c1.2,0,1.1-11.5,2-15.7c0.2-0.9,1.1-2.8,2.1-2.5c1.4,0.2,1.3,1.9,1.3,3.1
					c0,2.4,0.1,4.7,0.1,7.1c0,1.6,0,8.1,0.8,8c1.4,0.5,1.7-6.5,1.7-8.3c0-1.8,0.2-4,1.1-5.6c0.3-0.4,0.7-0.9,1.2-0.7
					c0.4,0.1,1,1.1,1.1,1.5c0.6,5,0.1,9.7-0.4,14.7c-0.2,2.1-0.5,4.2-0.1,6.2c0.1,0.4,0.2,0.9,0.8,1c0.3,0.1,0.6,0,0.9-0.2
					c0.6-0.4,0.8-1,1-1.5c1.1-2.6,3.4-7.3,5.9-5.9c-0.4,3.1-1.9,6-3,9.1c-0.6,1.8-0.7,3.7-1.4,5.5c-0.7,1.6-2.6,6.3-4.2,7.3
					c-3,1.9-0.7,44.9-1.4,49.3L144.7,215z"/>
				<polygon class="st13" points="145.2,178.9 164.2,178.9 164.8,215 143,215.1 				"/>
				<g>
					<path class="st14" d="M146.1,182.4c0.3-0.3,0.6-0.6,0.9-0.8c-0.1,0-0.1,0.1-0.2,0.1c0.1-0.1,0.3-0.2,0.4-0.3
						c0.2-0.1,0.3-0.3,0.4-0.5c0.1-0.2,0-0.4-0.1-0.6c-0.1-0.2-0.3-0.3-0.5-0.4c-0.2,0-0.4,0-0.6,0.1c-0.5,0.3-1,0.8-1.4,1.2
						c-0.1,0.2-0.2,0.4-0.2,0.6c0,0.2,0.1,0.4,0.2,0.6c0.2,0.1,0.4,0.2,0.6,0.2C145.7,182.7,145.9,182.6,146.1,182.4L146.1,182.4z"
						/>
				</g>
				<g>
					<path class="st14" d="M148.4,182.9c0.6-0.5,1.2-1.1,1.8-1.6c0.1-0.1,0.2-0.4,0.2-0.6c0-0.2-0.1-0.4-0.2-0.6
						c-0.2-0.1-0.4-0.2-0.6-0.2c-0.2,0-0.4,0.1-0.6,0.2c-0.6,0.5-1.2,1.1-1.8,1.6c-0.1,0.1-0.2,0.4-0.2,0.6c0,0.2,0.1,0.4,0.2,0.6
						c0.2,0.1,0.4,0.2,0.6,0.2C148,183.2,148.2,183.1,148.4,182.9L148.4,182.9z"/>
				</g>
				<g>
					<path class="st14" d="M146.7,186.8c0.5-0.4,1.1-0.9,1.5-1.5c0.1-0.2,0.2-0.3,0.2-0.6c0-0.2-0.1-0.4-0.2-0.6
						c-0.2-0.1-0.4-0.2-0.6-0.2c-0.2,0-0.4,0.1-0.6,0.2c-0.5,0.5-1,1-1.5,1.5c-0.1,0.1-0.2,0.4-0.2,0.6c0,0.2,0.1,0.4,0.2,0.6
						c0.2,0.1,0.4,0.2,0.6,0.2c0.1,0,0.1,0,0.2,0C146.5,187,146.6,186.9,146.7,186.8L146.7,186.8z"/>
				</g>
				<g>
					<path class="st14" d="M148.9,187.2c0.4-0.4,0.8-0.8,1.2-1.2c0.1-0.2,0.2-0.4,0.2-0.6c0-0.2-0.1-0.4-0.2-0.6
						c-0.2-0.1-0.4-0.2-0.6-0.2c-0.2,0-0.4,0.1-0.6,0.2c-0.4,0.4-0.8,0.8-1.2,1.2c-0.1,0.2-0.2,0.4-0.2,0.6c0,0.2,0.1,0.4,0.2,0.6
						c0.2,0.1,0.4,0.2,0.6,0.2C148.5,187.4,148.7,187.3,148.9,187.2L148.9,187.2z"/>
				</g>
				<g>
					<path class="st14" d="M151.2,184.3c0.4-0.4,0.7-0.8,1.1-1.2c0.1-0.2,0.2-0.3,0.2-0.6c0-0.2-0.1-0.4-0.2-0.6
						c-0.2-0.1-0.4-0.2-0.6-0.2c-0.2,0-0.4,0.1-0.6,0.2c-0.4,0.4-0.7,0.8-1.1,1.2c-0.1,0.2-0.2,0.3-0.2,0.6c0,0.2,0.1,0.4,0.2,0.6
						c0.2,0.1,0.4,0.2,0.6,0.2C150.8,184.5,151.1,184.4,151.2,184.3L151.2,184.3z"/>
				</g>
				<g>
					<path class="st14" d="M152.1,181.8c0.2-0.2,0.4-0.3,0.6-0.5c0.1-0.1,0.2-0.1,0.2-0.2c0.1-0.1,0.1-0.2,0.1-0.3
						c0-0.1,0-0.2,0-0.3c0-0.1,0-0.2-0.1-0.3c0-0.1-0.1-0.1-0.1-0.2c-0.1-0.1-0.2-0.2-0.4-0.2c-0.1,0-0.1,0-0.2,0
						c-0.1,0-0.3,0-0.4,0.1c-0.2,0.2-0.4,0.3-0.6,0.5c-0.1,0.1-0.2,0.1-0.2,0.2c-0.1,0.1-0.1,0.2-0.1,0.3c0,0.1,0,0.2,0,0.3
						c0,0.1,0,0.2,0.1,0.3c0,0.1,0.1,0.1,0.1,0.2c0.1,0.1,0.2,0.2,0.4,0.2c0.1,0,0.1,0,0.2,0C151.8,182,152,181.9,152.1,181.8
						L152.1,181.8z"/>
				</g>
				<g>
					<path class="st14" d="M154.1,184.2c0.6-0.6,1.1-1.3,1.7-1.9c0.1-0.2,0.2-0.3,0.2-0.6c0-0.2-0.1-0.4-0.2-0.6
						c-0.2-0.1-0.4-0.2-0.6-0.2c-0.2,0-0.4,0.1-0.6,0.2c-0.6,0.6-1.1,1.3-1.7,1.9c-0.1,0.2-0.2,0.3-0.2,0.6c0,0.2,0.1,0.4,0.2,0.6
						c0.2,0.1,0.4,0.2,0.6,0.2C153.7,184.4,153.9,184.3,154.1,184.2L154.1,184.2z"/>
				</g>
				<g>
					<path class="st14" d="M156.8,181.5c0.4-0.3,0.8-0.6,1.1-0.9c0.1-0.1,0.2-0.1,0.2-0.2c0.1-0.1,0.1-0.2,0.1-0.3
						c0-0.1,0-0.2,0-0.3c0-0.1,0-0.2-0.1-0.3c-0.1-0.2-0.3-0.3-0.5-0.4c-0.1,0-0.1,0-0.2,0c-0.1,0-0.3,0-0.4,0.1
						c-0.4,0.3-0.8,0.6-1.1,0.9c-0.1,0.1-0.2,0.1-0.2,0.2c-0.1,0.1-0.1,0.2-0.1,0.3c0,0.1,0,0.2,0,0.3c0,0.1,0,0.2,0.1,0.3
						c0.1,0.2,0.3,0.3,0.5,0.4c0.1,0,0.1,0,0.2,0C156.5,181.6,156.6,181.6,156.8,181.5L156.8,181.5z"/>
				</g>
				<g>
					<path class="st14" d="M153,188c0.1-0.1,0.2-0.3,0.3-0.4c0,0.1-0.1,0.1-0.1,0.2c0.2-0.3,0.4-0.5,0.7-0.7c-0.1,0-0.1,0.1-0.2,0.1
						c0,0,0,0,0,0c0.1-0.1,0.2-0.1,0.2-0.2c0.1-0.1,0.1-0.2,0.1-0.3c0-0.1,0-0.2,0-0.3c0-0.1,0-0.2-0.1-0.3
						c-0.1-0.2-0.3-0.3-0.5-0.4c-0.1,0-0.1,0-0.2,0c-0.1,0-0.3,0-0.4,0.1c-0.3,0.2-0.5,0.4-0.7,0.6c-0.2,0.2-0.4,0.5-0.6,0.8
						c-0.1,0.2-0.1,0.4-0.1,0.6c0.1,0.2,0.2,0.4,0.4,0.5c0.2,0.1,0.4,0.1,0.6,0.1C152.8,188.3,152.9,188.2,153,188L153,188z"/>
				</g>
				<g>
					<path class="st14" d="M148.7,191.5c0.4-0.5,0.8-1,1.2-1.4c0.1-0.1,0.1-0.2,0.2-0.3c0.1-0.1,0.1-0.2,0.1-0.3
						c0-0.2-0.1-0.4-0.2-0.6c-0.2-0.1-0.4-0.2-0.6-0.2c-0.2,0-0.4,0.1-0.6,0.2c-0.4,0.5-0.8,1-1.2,1.4c-0.1,0.1-0.1,0.2-0.2,0.3
						c-0.1,0.1-0.1,0.2-0.1,0.3c0,0.2,0.1,0.4,0.2,0.6c0.2,0.1,0.4,0.2,0.6,0.2C148.3,191.8,148.5,191.7,148.7,191.5L148.7,191.5z"
						/>
				</g>
				<g>
					<path class="st14" d="M147.2,190.7c0-0.1,0.1-0.1,0.1-0.2C147.3,190.6,147.2,190.7,147.2,190.7c0.1-0.2,0.3-0.3,0.4-0.4
						c-0.1,0-0.1,0.1-0.2,0.1c0.2-0.1,0.4-0.2,0.5-0.3c0.1-0.1,0.2-0.1,0.2-0.2c0.1-0.1,0.1-0.2,0.1-0.3c0-0.1,0-0.2,0-0.3
						c0-0.1,0-0.2-0.1-0.3c-0.1-0.2-0.3-0.3-0.5-0.4c-0.1,0-0.1,0-0.2,0c-0.1,0-0.3,0-0.4,0.1c-0.3,0.1-0.5,0.3-0.8,0.5
						c-0.1,0.1-0.2,0.2-0.3,0.3c-0.1,0.1-0.2,0.3-0.3,0.4c-0.1,0.1-0.1,0.2-0.1,0.3c0,0.1,0,0.2,0,0.3c0,0.1,0.1,0.2,0.1,0.3
						c0.1,0.1,0.1,0.2,0.2,0.2c0.2,0.1,0.4,0.1,0.6,0.1C146.9,191,147.1,190.9,147.2,190.7L147.2,190.7z"/>
				</g>
				<g>
					<path class="st14" d="M147.6,194.7c0.6-0.6,1.1-1.2,1.7-1.8c0.1-0.2,0.2-0.4,0.2-0.6c0-0.2-0.1-0.4-0.2-0.6
						c-0.2-0.1-0.4-0.2-0.6-0.2c-0.2,0-0.4,0.1-0.6,0.2c-0.6,0.6-1.1,1.2-1.7,1.8c-0.1,0.2-0.2,0.4-0.2,0.6c0,0.2,0.1,0.4,0.2,0.6
						c0.2,0.1,0.4,0.2,0.6,0.2C147.2,194.9,147.4,194.8,147.6,194.7L147.6,194.7z"/>
				</g>
				<g>
					<path class="st14" d="M152,192.5c0.4-0.4,0.9-0.8,1.3-1.2c0.1-0.1,0.2-0.4,0.2-0.6c0-0.2-0.1-0.4-0.2-0.6
						c-0.2-0.1-0.4-0.2-0.6-0.2c-0.2,0-0.4,0.1-0.6,0.2c-0.4,0.4-0.9,0.8-1.3,1.2c-0.1,0.1-0.2,0.4-0.2,0.6c0,0.2,0.1,0.4,0.2,0.6
						c0.2,0.1,0.4,0.2,0.6,0.2C151.7,192.7,151.8,192.7,152,192.5L152,192.5z"/>
				</g>
				<g>
					<path class="st14" d="M155.1,189.1c0.1-0.1,0.2-0.1,0.3-0.2c0.2-0.1,0.3-0.2,0.4-0.4c0.1-0.1,0.3-0.3,0.4-0.4
						c0.1-0.1,0.1-0.2,0.2-0.3c0.1-0.2,0.1-0.4,0.1-0.6c0-0.1-0.1-0.2-0.1-0.3c-0.1-0.1-0.1-0.2-0.2-0.2c-0.2-0.1-0.4-0.1-0.6-0.1
						c-0.2,0.1-0.4,0.2-0.5,0.4c-0.1,0.1-0.1,0.2-0.2,0.3c0-0.1,0.1-0.1,0.1-0.2c-0.1,0.2-0.3,0.4-0.5,0.5c0.1,0,0.1-0.1,0.2-0.1
						c-0.1,0.1-0.2,0.2-0.3,0.2c-0.2,0.1-0.3,0.3-0.4,0.5c0,0.1,0,0.2,0,0.3c0,0.1,0,0.2,0.1,0.3c0.1,0.2,0.3,0.3,0.5,0.4
						C154.7,189.2,154.9,189.2,155.1,189.1L155.1,189.1z"/>
				</g>
				<g>
					<path class="st14" d="M157.2,185.2c0.4-0.5,0.9-1,1.3-1.5c0.1-0.2,0.2-0.3,0.2-0.6c0-0.2-0.1-0.4-0.2-0.6
						c-0.2-0.1-0.4-0.2-0.6-0.2c-0.2,0-0.4,0.1-0.6,0.2c-0.4,0.5-0.9,1-1.3,1.5c-0.1,0.2-0.2,0.3-0.2,0.6c0,0.2,0.1,0.4,0.2,0.6
						c0.2,0.1,0.4,0.2,0.6,0.2C156.8,185.5,157,185.4,157.2,185.2L157.2,185.2z"/>
				</g>
				<g>
					<path class="st14" d="M159.4,185.2c0.3-0.4,0.7-0.9,1-1.3c0.1-0.1,0.1-0.2,0.1-0.3c0-0.1,0-0.2,0-0.3c-0.1-0.2-0.2-0.4-0.4-0.5
						c-0.2-0.1-0.4-0.1-0.6-0.1c-0.1,0-0.1,0.1-0.2,0.1c-0.1,0.1-0.2,0.2-0.3,0.3c-0.3,0.4-0.7,0.9-1,1.3c-0.1,0.1-0.1,0.2-0.1,0.3
						c0,0.1,0,0.2,0,0.3c0.1,0.2,0.2,0.4,0.4,0.5c0.2,0.1,0.4,0.1,0.6,0.1c0.1,0,0.1-0.1,0.2-0.1
						C159.2,185.4,159.3,185.3,159.4,185.2L159.4,185.2z"/>
				</g>
				<g>
					<path class="st14" d="M161.2,182c0.5-0.4,0.9-0.9,1.4-1.3c0.1-0.1,0.2-0.4,0.2-0.6c0-0.2-0.1-0.4-0.2-0.6
						c-0.2-0.1-0.4-0.2-0.6-0.2c-0.2,0-0.4,0.1-0.6,0.2c-0.5,0.4-0.9,0.9-1.4,1.3c-0.1,0.1-0.2,0.4-0.2,0.6c0,0.2,0.1,0.4,0.2,0.6
						c0.2,0.1,0.4,0.2,0.6,0.2C160.8,182.2,161,182.1,161.2,182L161.2,182z"/>
				</g>
				<g>
					<path class="st14" d="M161.4,187.3c0.3-0.2,0.5-0.4,0.8-0.6c0.2-0.2,0.4-0.5,0.6-0.7c0.1-0.1,0.1-0.2,0.1-0.3
						c0-0.1,0-0.2,0-0.3c0-0.1-0.1-0.2-0.1-0.3c-0.1-0.1-0.1-0.2-0.2-0.2c-0.2-0.1-0.4-0.1-0.6-0.1c-0.1,0-0.1,0.1-0.2,0.1
						c-0.1,0.1-0.2,0.2-0.3,0.3c0,0-0.1,0.1-0.1,0.1c0-0.1,0.1-0.1,0.1-0.2c-0.2,0.3-0.5,0.5-0.7,0.7c0.1,0,0.1-0.1,0.2-0.1
						c-0.1,0.1-0.2,0.1-0.3,0.2c-0.2,0.1-0.3,0.3-0.4,0.5c0,0.1,0,0.2,0,0.3c0,0.1,0,0.2,0.1,0.3c0.1,0.2,0.3,0.3,0.5,0.4
						C161,187.4,161.2,187.4,161.4,187.3L161.4,187.3z"/>
				</g>
				<g>
					<path class="st14" d="M158.1,189.4c0.4-0.4,0.9-0.9,1.3-1.3c0.1-0.1,0.2-0.4,0.2-0.6c0-0.2-0.1-0.4-0.2-0.6
						c-0.2-0.1-0.4-0.2-0.6-0.2c-0.2,0-0.4,0.1-0.6,0.2c-0.4,0.4-0.9,0.9-1.3,1.3c-0.1,0.1-0.2,0.4-0.2,0.6c0,0.2,0.1,0.4,0.2,0.6
						c0.2,0.1,0.4,0.2,0.6,0.2C157.7,189.6,157.9,189.5,158.1,189.4L158.1,189.4z"/>
				</g>
				<g>
					<path class="st14" d="M155.8,193.4c0.5-0.4,1-0.8,1.4-1.2c0.1-0.1,0.2-0.4,0.2-0.6c0-0.2-0.1-0.4-0.2-0.6
						c-0.2-0.1-0.4-0.2-0.6-0.2c-0.1,0-0.1,0-0.2,0c-0.1,0-0.3,0.1-0.4,0.2c-0.5,0.4-1,0.8-1.4,1.2c-0.1,0.1-0.2,0.4-0.2,0.6
						c0,0.2,0.1,0.4,0.2,0.6c0.2,0.1,0.4,0.2,0.6,0.2c0.1,0,0.1,0,0.2,0C155.5,193.5,155.7,193.5,155.8,193.4L155.8,193.4z"/>
				</g>
				<g>
					<path class="st14" d="M157.7,194.3c0.6-0.7,1.3-1.3,1.9-2c0.1-0.1,0.2-0.4,0.2-0.6c0-0.2-0.1-0.4-0.2-0.6
						c-0.3-0.3-0.8-0.3-1.1,0c-0.6,0.7-1.3,1.3-1.9,2c-0.1,0.1-0.2,0.4-0.2,0.6c0,0.2,0.1,0.4,0.2,0.6
						C156.9,194.6,157.4,194.7,157.7,194.3L157.7,194.3z"/>
				</g>
				<g>
					<path class="st14" d="M160.6,191c0.3-0.2,0.6-0.4,0.9-0.6c0.1-0.1,0.2-0.1,0.2-0.2c0.1-0.1,0.1-0.2,0.1-0.3c0-0.1,0-0.2,0-0.3
						c0-0.1,0-0.2-0.1-0.3c-0.1-0.2-0.3-0.3-0.5-0.4c-0.1,0-0.1,0-0.2,0c-0.1,0-0.3,0-0.4,0.1c-0.3,0.2-0.6,0.4-0.9,0.6
						c-0.1,0.1-0.2,0.1-0.2,0.2c-0.1,0.1-0.1,0.2-0.1,0.3c0,0.1,0,0.2,0,0.3c0,0.1,0,0.2,0.1,0.3c0.1,0.2,0.3,0.3,0.5,0.4
						c0.1,0,0.1,0,0.2,0C160.4,191.1,160.5,191.1,160.6,191L160.6,191z"/>
				</g>
				<g>
					<path class="st14" d="M160.4,194.1c0.5-0.4,1-0.7,1.4-1.1c0.1-0.1,0.2-0.1,0.2-0.2c0.1-0.1,0.1-0.2,0.1-0.3
						c0.1-0.2,0-0.4-0.1-0.6c-0.1-0.2-0.3-0.3-0.5-0.4c-0.2,0-0.4,0-0.6,0.1c-0.5,0.4-1,0.7-1.4,1.1c-0.1,0.1-0.2,0.1-0.2,0.2
						c-0.1,0.1-0.1,0.2-0.1,0.3c-0.1,0.2,0,0.4,0.1,0.6c0.1,0.2,0.3,0.3,0.5,0.4C160,194.2,160.2,194.2,160.4,194.1L160.4,194.1z"/>
				</g>
				<g>
					<path class="st14" d="M161.8,195.6c0.5-0.4,1-0.9,1.4-1.5c0.1-0.1,0.1-0.2,0.2-0.3c0.1-0.1,0.1-0.2,0.1-0.3
						c0-0.2-0.1-0.4-0.2-0.6c-0.2-0.1-0.4-0.2-0.6-0.2c-0.2,0-0.4,0.1-0.6,0.2c-0.4,0.5-0.9,1-1.4,1.5c-0.1,0.1-0.2,0.4-0.2,0.6
						c0,0.2,0.1,0.4,0.2,0.6c0.2,0.1,0.4,0.2,0.6,0.2c0.1,0,0.1,0,0.2,0C161.6,195.7,161.7,195.7,161.8,195.6L161.8,195.6z"/>
				</g>
				<g>
					<path class="st14" d="M152.3,197c0.4-0.3,0.8-0.6,1.2-1c0.1-0.1,0.1-0.2,0.2-0.3c0.1-0.1,0.1-0.2,0.1-0.3
						c0-0.2-0.1-0.4-0.2-0.6c-0.2-0.1-0.4-0.2-0.6-0.2c-0.1,0-0.1,0-0.2,0c-0.1,0-0.3,0.1-0.4,0.2c-0.4,0.3-0.8,0.6-1.2,1
						c-0.1,0.1-0.1,0.2-0.2,0.3c-0.1,0.1-0.1,0.2-0.1,0.3c0,0.2,0.1,0.4,0.2,0.6c0.2,0.1,0.4,0.2,0.6,0.2c0.1,0,0.1,0,0.2,0
						C152,197.2,152.2,197.1,152.3,197L152.3,197z"/>
				</g>
				<g>
					<path class="st14" d="M150.9,195.8c0.1,0,0.2-0.1,0.3-0.2c0.1-0.1,0.3-0.2,0.4-0.3c0.2-0.3,0.4-0.5,0.5-0.9c0-0.1,0-0.2,0-0.3
						c0-0.1,0-0.2-0.1-0.3c-0.1-0.1-0.1-0.2-0.2-0.2c-0.1-0.1-0.2-0.1-0.3-0.1c-0.1,0-0.1,0-0.2,0c-0.1,0-0.3,0-0.4,0.1
						c-0.1,0-0.1,0.1-0.2,0.1c-0.1,0.1-0.2,0.2-0.2,0.4c0,0,0,0.1,0,0.1c0-0.1,0.1-0.1,0.1-0.2c0,0.1-0.1,0.2-0.2,0.3
						c0-0.1,0.1-0.1,0.1-0.2c-0.1,0.1-0.2,0.2-0.3,0.3c0.1,0,0.1-0.1,0.2-0.1c-0.1,0.1-0.2,0.1-0.3,0.2c-0.1,0.1-0.2,0.1-0.2,0.2
						c-0.1,0.1-0.1,0.2-0.1,0.3c0,0.1,0,0.2,0,0.3c0,0.1,0,0.2,0.1,0.3c0.1,0.2,0.3,0.3,0.5,0.4c0.1,0,0.1,0,0.2,0
						C150.7,195.9,150.8,195.9,150.9,195.8L150.9,195.8z"/>
				</g>
				<g>
					<path class="st14" d="M147.7,199.2c0.4-0.4,0.9-0.8,1.3-1.2c0.1-0.1,0.2-0.4,0.2-0.6c0-0.2-0.1-0.4-0.2-0.6
						c-0.2-0.1-0.4-0.2-0.6-0.2c-0.2,0-0.4,0.1-0.6,0.2c-0.4,0.4-0.9,0.8-1.3,1.2c-0.1,0.1-0.2,0.4-0.2,0.6c0,0.2,0.1,0.4,0.2,0.6
						c0.2,0.1,0.4,0.2,0.6,0.2C147.4,199.4,147.6,199.3,147.7,199.2L147.7,199.2z"/>
				</g>
				<g>
					<path class="st14" d="M147.5,202.2c0.5-0.5,0.9-1,1.4-1.5c0.1-0.2,0.2-0.4,0.2-0.6c0-0.2-0.1-0.4-0.2-0.6
						c-0.2-0.1-0.4-0.2-0.6-0.2c-0.2,0-0.4,0.1-0.6,0.2c-0.5,0.5-0.9,1-1.4,1.5c-0.1,0.2-0.2,0.4-0.2,0.6c0,0.2,0.1,0.4,0.2,0.6
						c0.2,0.1,0.4,0.2,0.6,0.2C147.1,202.4,147.3,202.4,147.5,202.2L147.5,202.2z"/>
				</g>
				<g>
					<path class="st14" d="M150.8,202.7c0.5-0.5,1-1,1.5-1.5c0.1-0.2,0.2-0.4,0.2-0.6c0-0.2-0.1-0.4-0.2-0.6
						c-0.2-0.1-0.4-0.2-0.6-0.2c-0.2,0-0.4,0.1-0.6,0.2c-0.5,0.5-1,1-1.5,1.5c-0.1,0.2-0.2,0.4-0.2,0.6c0,0.2,0.1,0.4,0.2,0.6
						c0.2,0.1,0.4,0.2,0.6,0.2C150.5,202.9,150.7,202.8,150.8,202.7L150.8,202.7z"/>
				</g>
				<g>
					<path class="st14" d="M154.3,198.8c0.4-0.5,0.8-1,1.2-1.4c0.1-0.1,0.1-0.2,0.2-0.3c0.1-0.1,0.1-0.2,0.1-0.3
						c0-0.2-0.1-0.4-0.2-0.6c-0.2-0.1-0.4-0.2-0.6-0.2c-0.2,0-0.4,0.1-0.6,0.2c-0.4,0.5-0.8,1-1.2,1.4c-0.1,0.1-0.1,0.2-0.2,0.3
						c-0.1,0.1-0.1,0.2-0.1,0.3c0,0.2,0.1,0.4,0.2,0.6c0.2,0.1,0.4,0.2,0.6,0.2C154,199,154.2,199,154.3,198.8L154.3,198.8z"/>
				</g>
				<g>
					<path class="st14" d="M155.7,196.3c0.3-0.2,0.6-0.4,0.9-0.6c0.1-0.1,0.2-0.1,0.2-0.2c0.1-0.1,0.1-0.2,0.1-0.3
						c0-0.1,0-0.2,0-0.3c0-0.1,0-0.2-0.1-0.3c-0.1-0.2-0.3-0.3-0.5-0.4c-0.1,0-0.1,0-0.2,0c-0.1,0-0.3,0-0.4,0.1
						c-0.3,0.2-0.6,0.4-0.9,0.6c-0.1,0.1-0.2,0.1-0.2,0.2c-0.1,0.1-0.1,0.2-0.1,0.3c0,0.1,0,0.2,0,0.3c0,0.1,0,0.2,0.1,0.3
						c0.1,0.2,0.3,0.3,0.5,0.4c0.1,0,0.1,0,0.2,0C155.5,196.4,155.6,196.3,155.7,196.3L155.7,196.3z"/>
				</g>
				<g>
					<path class="st14" d="M156.2,201.1c0.7-0.5,1.3-1.1,1.8-1.7c0.1-0.1,0.1-0.2,0.2-0.3c0.1-0.1,0.1-0.2,0.1-0.3
						c0-0.2-0.1-0.4-0.2-0.6c-0.2-0.1-0.4-0.2-0.6-0.2c-0.2,0-0.4,0.1-0.6,0.2c-0.4,0.5-0.9,1-1.5,1.4c0.1,0,0.1-0.1,0.2-0.1
						c-0.1,0.1-0.1,0.1-0.2,0.2c-0.2,0.1-0.3,0.3-0.4,0.5c-0.1,0.2,0,0.4,0.1,0.6c0.1,0.2,0.3,0.3,0.5,0.4
						C155.8,201.2,156.1,201.2,156.2,201.1L156.2,201.1z"/>
				</g>
				<g>
					<path class="st14" d="M157.9,204.3c0.5-0.6,1-1.3,1.5-1.9c0.1-0.2,0.1-0.4,0.1-0.6c-0.1-0.2-0.2-0.4-0.4-0.5
						c-0.2-0.1-0.4-0.1-0.6-0.1c-0.1,0-0.1,0.1-0.2,0.1c-0.1,0.1-0.2,0.2-0.3,0.3c-0.5,0.6-1,1.3-1.5,1.9c-0.1,0.2-0.1,0.4-0.1,0.6
						c0.1,0.2,0.2,0.4,0.4,0.5c0.2,0.1,0.4,0.1,0.6,0.1c0.1,0,0.1-0.1,0.2-0.1C157.7,204.5,157.8,204.4,157.9,204.3L157.9,204.3z"/>
				</g>
				<g>
					<path class="st14" d="M160.6,199.9c0.1-0.1,0.3-0.2,0.4-0.3c0.1-0.1,0.2-0.1,0.2-0.2c0.1-0.1,0.2-0.3,0.3-0.4
						c0.1-0.1,0.2-0.3,0.2-0.5c0-0.1,0-0.2,0-0.3c0-0.1,0-0.2-0.1-0.3c-0.1-0.1-0.1-0.2-0.2-0.2c-0.1-0.1-0.2-0.1-0.3-0.1
						c-0.2,0-0.4,0-0.6,0.1c-0.1,0-0.1,0.1-0.2,0.1c-0.1,0.1-0.2,0.2-0.2,0.4c0,0,0,0,0,0c0-0.1,0.1-0.1,0.1-0.2
						c-0.1,0.1-0.1,0.3-0.2,0.4c0-0.1,0.1-0.1,0.1-0.2c-0.1,0.1-0.2,0.3-0.4,0.4c0.1,0,0.1-0.1,0.2-0.1c-0.1,0.1-0.1,0.1-0.2,0.1
						c-0.1,0.1-0.2,0.1-0.2,0.2c-0.1,0.1-0.1,0.2-0.1,0.3c0,0.1,0,0.2,0,0.3c0,0.1,0,0.2,0.1,0.3c0.1,0.2,0.3,0.3,0.5,0.4
						C160.2,200,160.4,200,160.6,199.9L160.6,199.9z"/>
				</g>
				<g>
					<path class="st14" d="M148.7,205.2c0.4-0.1,0.7-0.3,1-0.5c0.3-0.2,0.6-0.4,0.9-0.7c0.1-0.1,0.2-0.4,0.2-0.6
						c0-0.2-0.1-0.4-0.2-0.6c-0.2-0.1-0.4-0.2-0.6-0.2c-0.2,0-0.4,0.1-0.6,0.2c-0.1,0.1-0.2,0.1-0.2,0.2c0.1,0,0.1-0.1,0.2-0.1
						c-0.4,0.3-0.8,0.5-1.2,0.7c0.1,0,0.1-0.1,0.2-0.1c0,0-0.1,0-0.1,0.1c-0.1,0-0.2,0.1-0.3,0.1c-0.1,0.1-0.2,0.1-0.2,0.2
						c-0.1,0.2-0.1,0.4-0.1,0.6c0.1,0.2,0.2,0.4,0.4,0.5C148.2,205.2,148.5,205.3,148.7,205.2L148.7,205.2z"/>
				</g>
				<g>
					<path class="st14" d="M149.8,208.3c0.5-0.6,1-1.1,1.5-1.6c0.1-0.1,0.2-0.4,0.2-0.6c0-0.2-0.1-0.4-0.2-0.6
						c-0.2-0.1-0.4-0.2-0.6-0.2c-0.2,0-0.4,0.1-0.6,0.2c-0.5,0.5-1,1-1.5,1.6c-0.1,0.1-0.1,0.2-0.2,0.3c-0.1,0.1-0.1,0.2-0.1,0.3
						c0,0.2,0.1,0.4,0.2,0.6c0.2,0.1,0.4,0.2,0.6,0.2C149.4,208.5,149.7,208.4,149.8,208.3L149.8,208.3z"/>
				</g>
				<g>
					<path class="st14" d="M153.2,204.4c0.4-0.4,0.9-0.9,1.3-1.3c0.1-0.2,0.2-0.4,0.2-0.6c0-0.2-0.1-0.4-0.2-0.6
						c-0.2-0.1-0.4-0.2-0.6-0.2c-0.2,0-0.4,0.1-0.6,0.2c-0.4,0.4-0.9,0.9-1.3,1.3c-0.1,0.2-0.2,0.4-0.2,0.6c0,0.2,0.1,0.4,0.2,0.6
						c0.2,0.1,0.4,0.2,0.6,0.2C152.8,204.6,153,204.5,153.2,204.4L153.2,204.4z"/>
				</g>
				<g>
					<path class="st14" d="M147.1,208.5c0.3-0.2,0.6-0.5,0.9-0.7c0.1-0.1,0.1-0.2,0.2-0.3c0.1-0.1,0.1-0.2,0.1-0.3
						c0-0.1,0-0.2-0.1-0.3c0-0.1-0.1-0.2-0.2-0.3c-0.2-0.1-0.4-0.2-0.6-0.2c-0.1,0-0.1,0-0.2,0c-0.1,0-0.3,0.1-0.4,0.2
						c-0.3,0.2-0.6,0.5-0.9,0.7c-0.1,0.1-0.1,0.2-0.2,0.3c-0.1,0.1-0.1,0.2-0.1,0.3c0,0.1,0,0.2,0.1,0.3c0,0.1,0.1,0.2,0.2,0.3
						c0.2,0.1,0.4,0.2,0.6,0.2c0.1,0,0.1,0,0.2,0C146.9,208.7,147,208.6,147.1,208.5L147.1,208.5z"/>
				</g>
				<g>
					<path class="st14" d="M147.6,213.8c0.5-0.6,1-1.2,1.5-1.8c0.1-0.2,0.2-0.3,0.2-0.6c0-0.2-0.1-0.4-0.2-0.6
						c-0.2-0.1-0.4-0.2-0.6-0.2c-0.2,0-0.4,0.1-0.6,0.2c-0.5,0.6-1,1.2-1.5,1.8c-0.1,0.2-0.2,0.3-0.2,0.6c0,0.2,0.1,0.4,0.2,0.6
						c0.2,0.1,0.4,0.2,0.6,0.2C147.2,214.1,147.5,214,147.6,213.8L147.6,213.8z"/>
				</g>
				<g>
					<path class="st14" d="M151.7,212.6c0.4-0.5,0.8-1,1.2-1.4c0.1-0.2,0.2-0.3,0.2-0.6c0-0.2-0.1-0.4-0.2-0.6
						c-0.2-0.1-0.4-0.2-0.6-0.2c-0.2,0-0.4,0.1-0.6,0.2c-0.4,0.5-0.8,1-1.2,1.4c-0.1,0.2-0.2,0.3-0.2,0.6c0,0.2,0.1,0.4,0.2,0.6
						c0.2,0.1,0.4,0.2,0.6,0.2C151.4,212.8,151.6,212.8,151.7,212.6L151.7,212.6z"/>
				</g>
				<g>
					<path class="st14" d="M152.9,209.6c0.3-0.4,0.6-0.7,0.9-1.1c0.1-0.1,0.1-0.2,0.2-0.3c0.1-0.1,0.1-0.2,0.1-0.3
						c0-0.1,0-0.2-0.1-0.3c0-0.1-0.1-0.2-0.2-0.3c-0.2-0.1-0.4-0.2-0.6-0.2c-0.2,0-0.4,0.1-0.6,0.2c-0.3,0.4-0.6,0.7-0.9,1.1
						c-0.1,0.1-0.1,0.2-0.2,0.3c-0.1,0.1-0.1,0.2-0.1,0.3c0,0.1,0,0.2,0.1,0.3c0,0.1,0.1,0.2,0.2,0.3c0.2,0.1,0.4,0.2,0.6,0.2
						C152.5,209.8,152.8,209.8,152.9,209.6L152.9,209.6z"/>
				</g>
				<g>
					<path class="st14" d="M156.9,210.3c0.4-0.4,0.8-0.7,1.2-1.1c0.1-0.1,0.2-0.4,0.2-0.6c0-0.2-0.1-0.4-0.2-0.6
						c-0.2-0.1-0.4-0.2-0.6-0.2c-0.2,0-0.4,0.1-0.6,0.2c-0.4,0.4-0.8,0.7-1.2,1.1c-0.1,0.1-0.2,0.4-0.2,0.6c0,0.2,0.1,0.4,0.2,0.6
						c0.2,0.1,0.4,0.2,0.6,0.2C156.6,210.5,156.8,210.5,156.9,210.3L156.9,210.3z"/>
				</g>
				<g>
					<path class="st14" d="M159.3,207.3c0.6-0.4,1.1-1,1.5-1.6c0.1-0.2,0.1-0.4,0.1-0.6c-0.1-0.2-0.2-0.4-0.4-0.5
						c-0.2-0.1-0.4-0.1-0.6-0.1c-0.2,0.1-0.4,0.2-0.5,0.4c-0.1,0.2-0.2,0.4-0.4,0.6c0-0.1,0.1-0.1,0.1-0.2c-0.2,0.2-0.4,0.5-0.6,0.6
						c0.1,0,0.1-0.1,0.2-0.1c-0.1,0-0.1,0.1-0.2,0.1c-0.2,0.1-0.3,0.3-0.4,0.5c-0.1,0.2,0,0.4,0.1,0.6c0.1,0.2,0.3,0.3,0.5,0.4
						C158.9,207.4,159.2,207.4,159.3,207.3L159.3,207.3z"/>
				</g>
				<g>
					<path class="st14" d="M161,203.5c0.2-0.4,0.5-0.7,0.7-1.1c0.1-0.1,0.1-0.2,0.1-0.3c0-0.1,0-0.2,0-0.3c0-0.1-0.1-0.2-0.1-0.3
						c-0.1-0.1-0.1-0.2-0.2-0.2c-0.2-0.1-0.4-0.1-0.6-0.1c-0.2,0.1-0.4,0.2-0.5,0.4c-0.2,0.4-0.5,0.7-0.7,1.1
						c-0.1,0.1-0.1,0.2-0.1,0.3c0,0.1,0,0.2,0,0.3c0,0.1,0.1,0.2,0.1,0.3c0.1,0.1,0.1,0.2,0.2,0.2c0.2,0.1,0.4,0.1,0.6,0.1
						C160.8,203.8,160.9,203.7,161,203.5L161,203.5z"/>
				</g>
				<g>
					<path class="st14" d="M155.6,208.1c0.4-0.4,0.8-0.8,1.2-1.2c0.1-0.1,0.2-0.4,0.2-0.6c0-0.2-0.1-0.4-0.2-0.6
						c-0.2-0.1-0.4-0.2-0.6-0.2c-0.2,0-0.4,0.1-0.6,0.2c-0.4,0.4-0.8,0.8-1.2,1.2c-0.1,0.1-0.2,0.4-0.2,0.6c0,0.2,0.1,0.4,0.2,0.6
						c0.2,0.1,0.4,0.2,0.6,0.2C155.3,208.4,155.5,208.3,155.6,208.1L155.6,208.1z"/>
				</g>
				<g>
					<path class="st14" d="M160.8,210c0.3-0.2,0.6-0.5,0.8-0.7c0.2-0.3,0.5-0.6,0.6-0.9c0.1-0.2,0.1-0.4,0.1-0.6
						c-0.1-0.2-0.2-0.4-0.4-0.5c-0.2-0.1-0.4-0.1-0.6-0.1c-0.2,0.1-0.4,0.2-0.5,0.4c-0.1,0.2-0.2,0.4-0.3,0.5c0-0.1,0.1-0.1,0.1-0.2
						c-0.2,0.3-0.5,0.6-0.8,0.8c0.1,0,0.1-0.1,0.2-0.1c0,0,0,0,0,0c-0.1,0.1-0.2,0.1-0.2,0.2c-0.1,0.1-0.1,0.2-0.1,0.3
						c-0.1,0.2,0,0.4,0.1,0.6c0.1,0.2,0.3,0.3,0.5,0.4C160.3,210.1,160.6,210.1,160.8,210L160.8,210z"/>
				</g>
				<g>
					<path class="st14" d="M162.6,206.7c0.2-0.2,0.4-0.3,0.6-0.5c0.1-0.1,0.2-0.1,0.2-0.2c0.1-0.1,0.1-0.2,0.1-0.3
						c0-0.1,0-0.2,0-0.3c0-0.1,0-0.2-0.1-0.3c0-0.1-0.1-0.1-0.1-0.2c-0.1-0.1-0.2-0.2-0.4-0.2c-0.1,0-0.1,0-0.2,0
						c-0.1,0-0.3,0-0.4,0.1c-0.2,0.2-0.4,0.3-0.6,0.5c-0.1,0.1-0.2,0.1-0.2,0.2c-0.1,0.1-0.1,0.2-0.1,0.3c0,0.1,0,0.2,0,0.3
						c0,0.1,0,0.2,0.1,0.3c0,0.1,0.1,0.1,0.1,0.2c0.1,0.1,0.2,0.2,0.4,0.2c0.1,0,0.1,0,0.2,0C162.3,206.8,162.4,206.8,162.6,206.7
						L162.6,206.7z"/>
				</g>
				<g>
					<path class="st14" d="M157.9,213.8c0.5-0.4,0.9-0.9,1.3-1.4c0.1-0.1,0.1-0.2,0.1-0.3c0-0.1,0-0.2,0-0.3
						c-0.1-0.2-0.2-0.4-0.4-0.5c-0.2-0.1-0.4-0.1-0.6-0.1c-0.1,0-0.1,0.1-0.2,0.1c-0.1,0.1-0.2,0.2-0.3,0.3c0,0,0,0-0.1,0.1
						c0-0.1,0.1-0.1,0.1-0.2c-0.3,0.4-0.7,0.8-1.1,1.1c-0.1,0.1-0.1,0.2-0.2,0.3c-0.1,0.1-0.1,0.2-0.1,0.3c0,0.2,0.1,0.4,0.2,0.6
						c0.2,0.1,0.4,0.2,0.6,0.2c0.1,0,0.1,0,0.2,0C157.7,214,157.8,213.9,157.9,213.8L157.9,213.8z"/>
				</g>
				<g>
					<path class="st14" d="M155.1,214.2c0.4-0.4,0.8-0.8,1.2-1.2c0.1-0.2,0.2-0.4,0.2-0.6c0-0.2-0.1-0.4-0.2-0.6
						c-0.2-0.1-0.4-0.2-0.6-0.2c-0.2,0-0.4,0.1-0.6,0.2c-0.4,0.4-0.8,0.8-1.2,1.2c-0.1,0.2-0.2,0.4-0.2,0.6c0,0.2,0.1,0.4,0.2,0.6
						c0.2,0.1,0.4,0.2,0.6,0.2C154.7,214.4,155,214.4,155.1,214.2L155.1,214.2z"/>
				</g>
				<g>
					<path class="st14" d="M161.6,214.6c0.3-0.3,0.6-0.6,0.9-1c0.1-0.2,0.2-0.4,0.2-0.6c0-0.1,0-0.2-0.1-0.3c0-0.1-0.1-0.2-0.2-0.3
						c-0.2-0.1-0.4-0.2-0.6-0.2c-0.2,0-0.4,0.1-0.6,0.2c-0.3,0.3-0.6,0.6-0.9,1c-0.1,0.2-0.2,0.4-0.2,0.6c0,0.1,0,0.2,0.1,0.3
						c0,0.1,0.1,0.2,0.2,0.3c0.2,0.1,0.4,0.2,0.6,0.2C161.2,214.8,161.4,214.7,161.6,214.6L161.6,214.6z"/>
				</g>
				<g>
					<path class="st14" d="M159.2,197.6c0-0.1,0.1-0.1,0.1-0.2C159.3,197.4,159.3,197.5,159.2,197.6c0.1-0.2,0.3-0.3,0.4-0.4
						c-0.1,0-0.1,0.1-0.2,0.1c0.1-0.1,0.3-0.2,0.5-0.3c0.1-0.1,0.2-0.1,0.2-0.2c0.1-0.1,0.1-0.2,0.1-0.3c0-0.1,0-0.2,0-0.3
						c0-0.1,0-0.2-0.1-0.3c-0.1-0.2-0.3-0.3-0.5-0.4c-0.1,0-0.1,0-0.2,0c-0.1,0-0.3,0-0.4,0.1c-0.3,0.1-0.5,0.3-0.7,0.5
						c-0.1,0.1-0.2,0.2-0.2,0.2c-0.1,0.1-0.2,0.3-0.3,0.4c-0.1,0.1-0.1,0.2-0.1,0.3c0,0.1,0,0.2,0,0.3c0,0.1,0.1,0.2,0.1,0.3
						c0.1,0.1,0.1,0.2,0.2,0.2c0.2,0.1,0.4,0.1,0.6,0.1C159,197.9,159.1,197.7,159.2,197.6L159.2,197.6z"/>
				</g>
				<g>
					<path class="st14" d="M163.1,200c0.1,0,0.2-0.1,0.3-0.2c0.1-0.1,0.3-0.2,0.4-0.3c0,0,0.1-0.1,0.1-0.1c0.1-0.1,0.1-0.2,0.2-0.3
						c0.1-0.1,0.2-0.3,0.2-0.4c0-0.1,0-0.2,0-0.3c0-0.1,0-0.2-0.1-0.3c-0.1-0.1-0.1-0.2-0.2-0.2c-0.1-0.1-0.2-0.1-0.3-0.1
						c-0.1,0-0.1,0-0.2,0c-0.1,0-0.3,0-0.4,0.1c-0.1,0-0.1,0.1-0.2,0.1c-0.1,0.1-0.2,0.2-0.2,0.4c0,0,0,0,0,0c0-0.1,0.1-0.1,0.1-0.2
						c-0.1,0.1-0.1,0.2-0.2,0.4c0-0.1,0.1-0.1,0.1-0.2c-0.1,0.1-0.2,0.2-0.3,0.3c0.1,0,0.1-0.1,0.2-0.1c-0.1,0.1-0.2,0.1-0.3,0.2
						c-0.1,0.1-0.2,0.1-0.2,0.2c-0.1,0.1-0.1,0.2-0.1,0.3c0,0.1,0,0.2,0,0.3c0,0.1,0,0.2,0.1,0.3c0.1,0.2,0.3,0.3,0.5,0.4
						c0.1,0,0.1,0,0.2,0C162.8,200.1,163,200.1,163.1,200L163.1,200z"/>
				</g>
				<g>
					<path class="st14" d="M146.7,197.7C146.7,197.6,146.7,197.6,146.7,197.7c0,0-0.1,0.1-0.1,0.1c0.2-0.2,0.3-0.4,0.5-0.5
						c-0.1,0-0.1,0.1-0.2,0.1c0.2-0.2,0.4-0.3,0.6-0.4c0.1-0.1,0.2-0.1,0.2-0.2c0.1-0.1,0.1-0.2,0.1-0.3c0-0.1,0-0.2,0-0.3
						c0-0.1,0-0.2-0.1-0.3c-0.1-0.2-0.3-0.3-0.5-0.4c-0.1,0-0.1,0-0.2,0c-0.1,0-0.3,0-0.4,0.1c-0.3,0.1-0.6,0.3-0.8,0.5
						c-0.3,0.2-0.5,0.4-0.7,0.7c-0.1,0.1-0.1,0.2-0.1,0.3c0,0.1,0,0.2,0,0.3c0.1,0.2,0.2,0.4,0.4,0.5c0.2,0.1,0.4,0.1,0.6,0.1
						c0.1,0,0.1-0.1,0.2-0.1C146.5,197.9,146.6,197.8,146.7,197.7L146.7,197.7z"/>
				</g>
				<path class="st15" d="M155.4,150.8c-1.2-1.4-3-2.5-4.9-2.5c-1.9,0-3.9,1.1-4.4,2.9c-0.3,1-0.1,2.1,0.3,3.1
					c1.4,3.5,4.7,5.6,8.1,7.6c1.7-1.1,3.7-2.1,5.2-3.5c1.3-1.1,2.5-2.4,3.1-4c0.6-1.6,0.5-3.5-0.8-4.7c-0.9-0.9-2.2-1.2-3.5-1.2
					c-1.3,0.1-2.8,0.6-3.9,1.5"/>
			</g>
			<g>
				<path class="st16" d="M206.9,215.1c-0.4-2.6-3.5-43.4-0.9-45.2c1.2-0.9,1.6-3.1,1.7-4.4c0.6-8,0.8-16.1,0.7-24.1
					c0-0.6-0.3-1.5-1.1-1.4c-0.2,0-0.3,0.1-0.5,0.2c-2.8,1.9-1,9-3.5,9.1c-1.1,0-1.2-6-1.2-8.5c0-1.9-0.2-4-1.2-5.7
					c-0.5-0.7-1.8-0.7-2.1,0.1c-1.5,3.8-0.2,14.1-1.7,14.2c-1.2,0-1.2-10.5-2.1-14.2c-0.2-0.9-1.1-2.5-2.2-2.3
					c-1.5,0.2-1.3,1.7-1.3,2.8c0,2.1,0,4.3-0.1,6.4c0,1.4,0.1,7.3-0.8,7.3c-1.4,0.4-1.8-5.9-1.8-7.5c0-1.7-0.2-3.6-1.2-5
					c-0.3-0.4-0.8-0.8-1.3-0.6c-0.5,0.1-1.1,0.9-1.1,1.3c-0.6,4.5-0.1,8.7,0.5,13.3c0.2,1.9,0.6,3.8,0.1,5.7
					c-0.1,0.4-0.2,0.8-0.8,0.9c-0.3,0.1-0.6,0-0.9-0.1c-0.6-0.3-0.8-0.9-1-1.4c-1.1-2.3-3.6-6.6-6.2-5.3c0.4,2.8,2.1,5.5,3.2,8.2
					c0.7,1.7,0.7,3.4,1.5,5c0.7,1.5,2.7,5.7,4.4,6.6c3.1,1.7,0.9,40.8,1.6,44.8L206.9,215.1z"/>
				<polygon class="st8" points="186.7,200.9 206.9,200.9 206.9,215.1 186.2,215.1 				"/>
				<g>
					<path class="st0" d="M188.6,203.8c0.3,0,0.6,0,0.8,0c-0.1,0-0.1,0-0.2,0c0.1,0,0.2,0,0.4,0.1c0.2,0,0.3,0,0.5-0.1
						c0.1-0.1,0.3-0.2,0.3-0.4c0-0.2,0-0.3-0.1-0.5c-0.1-0.1-0.2-0.2-0.4-0.3c-0.4-0.1-0.9-0.1-1.4-0.1c-0.1,0-0.2,0-0.2,0.1
						c-0.1,0-0.1,0.1-0.2,0.1c-0.1,0.1-0.2,0.3-0.2,0.4c0,0.2,0.1,0.3,0.2,0.4C188.2,203.8,188.4,203.9,188.6,203.8L188.6,203.8z"/>
				</g>
				<g>
					<path class="st0" d="M186.8,203.9c0.2,0,0.4,0,0.6,0c-0.1,0-0.1,0-0.2,0c0.1,0,0.2,0,0.4,0.1c0.2,0,0.3,0,0.5-0.1
						c0.1-0.1,0.3-0.2,0.3-0.4c0-0.2,0-0.3-0.1-0.5c-0.1-0.1-0.2-0.2-0.4-0.3c-0.2-0.1-0.4-0.1-0.6-0.1c-0.2,0-0.3,0-0.5,0
						c-0.1,0-0.2,0-0.2,0.1c-0.1,0-0.1,0.1-0.2,0.1c-0.1,0.1-0.2,0.3-0.2,0.4c0,0.2,0.1,0.3,0.2,0.4c0,0,0.1,0.1,0.1,0.1
						C186.6,203.9,186.7,203.9,186.8,203.9L186.8,203.9z"/>
				</g>
				<g>
					<path class="st0" d="M190.8,203.8c0.4,0,0.7,0,1.1,0c0.2,0,0.3-0.1,0.4-0.2c0.1-0.1,0.2-0.3,0.2-0.4c0-0.2-0.1-0.3-0.2-0.4
						c-0.1-0.1-0.3-0.2-0.4-0.2c-0.4,0-0.7,0-1.1,0c-0.2,0-0.3,0.1-0.4,0.2c-0.1,0.1-0.2,0.3-0.2,0.4c0,0.2,0.1,0.3,0.2,0.4
						C190.4,203.8,190.6,203.8,190.8,203.8L190.8,203.8z"/>
				</g>
				<g>
					<path class="st0" d="M193.2,203.8c0.4,0,0.9-0.1,1.3-0.1c0.2,0,0.3-0.1,0.4-0.2c0.1-0.1,0.2-0.3,0.2-0.4c0-0.2-0.1-0.3-0.2-0.4
						c-0.1-0.1-0.3-0.2-0.4-0.2c-0.4,0-0.9,0.1-1.3,0.1c-0.2,0-0.3,0.1-0.4,0.2c-0.1,0.1-0.2,0.3-0.2,0.4c0,0.2,0.1,0.3,0.2,0.4
						C192.8,203.8,193,203.9,193.2,203.8L193.2,203.8z"/>
				</g>
				<g>
					<path class="st0" d="M195.8,203.7c0.4,0,0.7,0,1.1,0c0.2,0,0.3-0.1,0.4-0.2c0.1-0.1,0.2-0.3,0.2-0.4c0-0.2-0.1-0.3-0.2-0.4
						c-0.1-0.1-0.3-0.2-0.4-0.2c-0.4,0-0.7,0-1.1,0c-0.2,0-0.3,0.1-0.4,0.2c-0.1,0.1-0.2,0.3-0.2,0.4c0,0.2,0.1,0.3,0.2,0.4
						C195.4,203.7,195.6,203.7,195.8,203.7L195.8,203.7z"/>
				</g>
				<g>
					<path class="st0" d="M197.8,203.6c0.4,0,0.8,0,1.2,0c0.2,0,0.3-0.1,0.4-0.2c0.1-0.1,0.2-0.3,0.2-0.4c0-0.2-0.1-0.3-0.2-0.4
						c-0.1-0.1-0.3-0.2-0.4-0.2c-0.4,0-0.8,0-1.2,0c-0.2,0-0.3,0.1-0.4,0.2c-0.1,0.1-0.2,0.3-0.2,0.4c0,0.2,0.1,0.3,0.2,0.4
						C197.4,203.6,197.6,203.6,197.8,203.6L197.8,203.6z"/>
				</g>
				<g>
					<path class="st0" d="M199.7,203.8c0.3,0,0.7,0,1,0c0.2,0,0.3-0.1,0.4-0.2c0.1-0.1,0.2-0.3,0.2-0.4c0-0.2-0.1-0.3-0.2-0.4
						c-0.1-0.1-0.3-0.2-0.4-0.2c-0.3,0-0.7,0-1,0c-0.2,0-0.3,0.1-0.4,0.2c-0.1,0.1-0.2,0.3-0.2,0.4c0,0.2,0.1,0.3,0.2,0.4
						C199.3,203.8,199.5,203.8,199.7,203.8L199.7,203.8z"/>
				</g>
				<g>
					<path class="st0" d="M201.5,203.9c0.3,0,0.7,0,1,0c0.2,0,0.3-0.1,0.4-0.2c0.1-0.1,0.2-0.3,0.2-0.4c0-0.2-0.1-0.3-0.2-0.4
						c-0.1-0.1-0.3-0.2-0.4-0.2c-0.3,0-0.7,0-1,0c-0.2,0-0.3,0.1-0.4,0.2c-0.1,0.1-0.2,0.3-0.2,0.4c0,0.2,0.1,0.3,0.2,0.4
						C201.2,203.8,201.3,203.9,201.5,203.9L201.5,203.9z"/>
				</g>
				<g>
					<path class="st0" d="M203.4,204c0.4,0,0.8,0,1.2,0c0.2,0,0.3-0.1,0.4-0.2c0.1-0.1,0.2-0.3,0.2-0.4c0-0.2-0.1-0.3-0.2-0.4
						c-0.1-0.1-0.3-0.2-0.4-0.2c-0.4,0-0.8,0-1.2,0c-0.2,0-0.3,0.1-0.4,0.2c-0.1,0.1-0.2,0.3-0.2,0.4c0,0.2,0.1,0.3,0.2,0.4
						C203,203.9,203.2,204,203.4,204L203.4,204z"/>
				</g>
				<g>
					<path class="st0" d="M205.5,204c0.3,0,0.7,0,1,0c0.2,0,0.3-0.1,0.4-0.2c0.1-0.1,0.2-0.3,0.2-0.4c0-0.2-0.1-0.3-0.2-0.4
						c-0.1-0.1-0.3-0.2-0.4-0.2c-0.3,0-0.7,0-1,0c-0.2,0-0.3,0.1-0.4,0.2c-0.1,0.1-0.2,0.3-0.2,0.4c0,0.2,0.1,0.3,0.2,0.4
						C205.2,203.9,205.4,204,205.5,204L205.5,204z"/>
				</g>
				<path class="st15" d="M196.6,157.6c-1.2-1.4-3-2.5-4.9-2.5c-1.9,0-3.9,1.1-4.4,2.9c-0.3,1-0.1,2.1,0.3,3.1
					c1.4,3.5,4.7,5.6,8.1,7.6c1.7-1.1,3.7-2.1,5.2-3.5c1.3-1.1,2.5-2.4,3.1-4c0.6-1.6,0.5-3.5-0.8-4.7c-0.9-0.9-2.2-1.2-3.5-1.2
					c-1.3,0.1-2.8,0.6-3.9,1.5"/>
			</g>
			<g>
				<path class="st17" d="M131.2,215c-0.3-2.7-5.5-60-3.1-62c1.1-0.9,1.5-3.3,1.6-4.7c0.5-8.5,0.8-17,0.7-25.6c0-0.7-0.3-1.6-1-1.5
					c-0.2,0-0.3,0.1-0.4,0.2c-2.6,2.1-0.9,9.6-3.2,9.7c-1,0-1.1-6.3-1.1-9c0-2-0.1-4.2-1.1-6c-0.4-0.8-1.6-0.7-1.9,0.1
					c-1.4,4.1-0.2,15-1.6,15c-1.1,0-1.1-11.1-1.9-15.1c-0.2-0.9-1-2.7-2-2.4c-1.4,0.2-1.2,1.8-1.2,3c0,2.3-0.1,4.5-0.1,6.8
					c0,1.5,0,7.7-0.8,7.7c-1.3,0.5-1.6-6.2-1.7-8c0-1.8-0.2-3.8-1.1-5.4c-0.2-0.4-0.7-0.8-1.2-0.7c-0.4,0.1-1,1-1,1.4
					c-0.5,4.8-0.1,9.3,0.4,14.1c0.2,2,0.5,4,0.1,6c-0.1,0.4-0.2,0.8-0.7,1c-0.3,0.1-0.6,0-0.8-0.1c-0.5-0.3-0.7-0.9-0.9-1.5
					c-1-2.5-3.3-7-5.7-5.6c0.3,3,1.9,5.8,2.9,8.7c0.6,1.8,0.7,3.6,1.4,5.3c0.6,1.5,2.3,6.1,4,7c1.3,0.7-1.8,57-0.9,61.5L131.2,215z"
					/>
				<path class="st18" d="M107.9,156.2c0,0,5.4-0.1,11-0.3c5.6-0.3,10.3-0.5,10.3-0.5l3.2,59.7l-24,0L107.9,156.2z"/>
				<g>
					<path class="st0" d="M108.4,161.9c0.7-0.8,1.3-1.7,2-2.6c-0.3,0-0.6-0.1-1-0.1c0.6,0.8,1.1,1.6,1.7,2.5c0.3,0.4,0.8,0.4,1.1,0
						c0.6-0.8,1.2-1.6,1.8-2.3c-0.3,0-0.6,0.1-1,0.1c0.7,0.8,1.4,1.5,2.1,2.3c0.3,0.3,0.8,0.2,1-0.1c0.6-0.9,1.3-1.7,1.9-2.6
						c-0.4,0-0.7,0-1.1,0c0.4,0.9,1,1.7,1.6,2.5c0.3,0.3,0.8,0.2,1-0.1c0.5-0.7,1-1.4,1.5-2.1c-0.4,0-0.7,0-1.1,0
						c0.5,0.9,1.1,1.7,1.8,2.4c0.3,0.3,0.7,0.2,1-0.1c0.6-0.8,1.2-1.6,1.7-2.4c-0.3,0-0.6,0.1-1,0.1c0.9,0.9,1.7,1.7,2.6,2.6
						c0.4,0.4,0.9,0.1,1-0.3c0.4-0.9,0.8-1.7,1.3-2.5c-0.4,0-0.7,0-1.1,0c0.6,0.9,1.2,1.8,1.7,2.7c0.4,0.7,1.5,0,1.1-0.6
						c-0.6-0.9-1.2-1.8-1.7-2.7c-0.2-0.4-0.8-0.4-1.1,0c-0.5,0.9-1,1.8-1.4,2.8c0.3-0.1,0.7-0.2,1-0.3c-0.9-0.9-1.7-1.7-2.6-2.6
						c-0.3-0.3-0.7-0.2-1,0.1c-0.6,0.8-1.2,1.6-1.7,2.4c0.3,0,0.6-0.1,1-0.1c-0.7-0.7-1.2-1.4-1.6-2.2c-0.2-0.4-0.8-0.4-1.1,0
						c-0.5,0.7-1,1.4-1.5,2.1c0.3,0,0.6-0.1,1-0.1c-0.6-0.7-1-1.5-1.4-2.3c-0.2-0.5-0.8-0.3-1.1,0c-0.6,0.9-1.3,1.7-1.9,2.6
						c0.3,0,0.6-0.1,1-0.1c-0.7-0.8-1.4-1.5-2.1-2.3c-0.3-0.3-0.7-0.2-1,0.1c-0.6,0.8-1.2,1.6-1.8,2.3c0.4,0,0.7,0,1.1,0
						c-0.6-0.8-1.1-1.6-1.7-2.5c-0.2-0.3-0.7-0.5-1-0.1c-0.7,0.8-1.3,1.7-2,2.6C107.1,161.7,107.9,162.6,108.4,161.9L108.4,161.9z"
						/>
				</g>
				<path class="st15" d="M119.8,139.4c-1.2-1.4-3-2.5-4.9-2.5c-1.9,0-3.9,1.1-4.4,2.9c-0.3,1-0.1,2.1,0.3,3.1
					c1.4,3.5,4.7,5.6,8.1,7.6c1.7-1.1,3.7-2.1,5.2-3.5c1.3-1.1,2.5-2.4,3.1-4c0.6-1.6,0.5-3.5-0.8-4.7c-0.9-0.9-2.2-1.2-3.5-1.2
					c-1.3,0.1-2.8,0.6-3.9,1.5"/>
			</g>
			<g>
				<path class="st8" d="M90.8,215c-0.3-2.6-2.8-43.3-0.6-45.2c1-0.9,1.4-3.1,1.5-4.4c0.5-8,0.7-16.1,0.6-24.1c0-0.6-0.3-1.5-1-1.4
					c-0.2,0-0.3,0.1-0.4,0.2c-2.5,2-0.9,9-3,9.1c-1,0-1.1-6-1-8.5c0-1.9-0.1-4-1-5.7c-0.4-0.7-1.5-0.7-1.8,0.1
					c-1.3,3.8-0.2,14.1-1.5,14.2c-1.1,0-1-10.4-1.8-14.2c-0.2-0.9-1-2.5-1.9-2.3c-1.3,0.2-1.2,1.7-1.2,2.8c0,2.1-0.1,4.3-0.1,6.4
					c0,1.4,0,7.3-0.7,7.3c-1.2,0.5-1.5-5.9-1.6-7.5c0-1.7-0.2-3.6-1-5c-0.2-0.4-0.7-0.8-1.1-0.6c-0.4,0.1-0.9,1-1,1.3
					c-0.5,4.5-0.1,8.7,0.4,13.3c0.2,1.9,0.5,3.8,0.1,5.6c-0.1,0.4-0.2,0.8-0.7,0.9c-0.3,0.1-0.5,0-0.8-0.1c-0.5-0.3-0.7-0.9-0.9-1.4
					c-1-2.3-3.1-6.6-5.3-5.3c0.3,2.8,1.8,5.5,2.7,8.2c0.6,1.7,0.6,3.4,1.3,5c0.6,1.5,2.3,5.7,3.8,6.6c2.7,1.7,0.7,40.6,1.2,44.6
					L90.8,215z"/>
				<path class="st19" d="M70.7,183.6h21.6V215l-20.4,0.1C71.8,214.3,70.7,183.6,70.7,183.6z"/>
				<g>
					<path class="st0" d="M71.8,185.7c0.1,0.5,0.2,0.9,0.3,1.4c0,0.1,0.2,0.3,0.3,0.4c0.1,0.1,0.3,0.1,0.5,0.1
						c0.3-0.1,0.5-0.4,0.4-0.8c-0.1-0.5-0.2-0.9-0.3-1.4c0-0.1-0.2-0.3-0.3-0.4c-0.1-0.1-0.3-0.1-0.5-0.1
						C71.9,185.1,71.7,185.4,71.8,185.7L71.8,185.7z"/>
				</g>
				<g>
					<path class="st0" d="M73.6,186c0.1,0.3,0.2,0.7,0.2,1c0-0.1,0-0.1,0-0.2c0,0.3,0,0.5,0,0.8c0,0.3,0.3,0.6,0.6,0.6
						c0.3,0,0.6-0.3,0.6-0.6c0-0.6-0.1-1.3-0.3-1.9c-0.1-0.2-0.1-0.3-0.3-0.4c-0.1-0.1-0.3-0.1-0.5-0.1
						C73.7,185.3,73.5,185.7,73.6,186L73.6,186z"/>
				</g>
				<g>
					<path class="st0" d="M73.4,189.4c0,0.6,0,1.3,0,1.9c0,0.3,0.3,0.6,0.6,0.6c0.3,0,0.6-0.3,0.6-0.6c0-0.6,0-1.3,0-1.9
						c0-0.3-0.3-0.6-0.6-0.6C73.7,188.8,73.4,189.1,73.4,189.4L73.4,189.4z"/>
				</g>
				<g>
					<path class="st0" d="M72.3,188.6c-0.1,0.2-0.2,0.5-0.2,0.8c0,0.1,0,0.3,0,0.4c0,0.1,0.1,0.3,0.2,0.4c0.1,0.1,0.2,0.2,0.4,0.3
						c0.1,0,0.3,0,0.5-0.1c0.1-0.1,0.2-0.2,0.3-0.4c0-0.2,0-0.3-0.1-0.5c0,0,0,0,0-0.1c0,0,0,0.1,0.1,0.1c0-0.1-0.1-0.2-0.1-0.3
						c0,0.1,0,0.1,0,0.2c0-0.1,0-0.2,0-0.3c0,0.1,0,0.1,0,0.2c0-0.1,0-0.2,0.1-0.3c0,0,0,0.1-0.1,0.1c0,0,0-0.1,0.1-0.1
						c0.1-0.1,0.1-0.3,0.1-0.5c0-0.1-0.2-0.3-0.3-0.4c-0.1-0.1-0.3-0.1-0.5-0.1C72.6,188.4,72.4,188.5,72.3,188.6L72.3,188.6z"/>
				</g>
				<g>
					<path class="st0" d="M75.3,190.4c0.2,0.6,0.4,1.2,0.5,1.7c0,0.2,0.1,0.3,0.3,0.4c0.1,0.1,0.3,0.1,0.5,0.1
						c0.3-0.1,0.5-0.4,0.4-0.8c-0.2-0.6-0.4-1.2-0.5-1.7c0-0.2-0.1-0.3-0.3-0.4c-0.1-0.1-0.3-0.1-0.5-0.1
						C75.5,189.7,75.2,190,75.3,190.4L75.3,190.4z"/>
				</g>
				<g>
					<path class="st0" d="M76.4,186.4c0.1,0.5,0.3,1,0.4,1.5c0,0.2,0.1,0.3,0.3,0.4c0.1,0.1,0.3,0.1,0.5,0.1
						c0.3-0.1,0.5-0.4,0.4-0.8c-0.1-0.5-0.3-1-0.4-1.5c0-0.2-0.1-0.3-0.3-0.4c-0.1-0.1-0.3-0.1-0.5-0.1
						C76.5,185.7,76.3,186,76.4,186.4L76.4,186.4z"/>
				</g>
				<g>
					<path class="st0" d="M75.9,193.9c0.1,0.5,0.2,1.1,0.3,1.6c0,0.1,0.2,0.3,0.3,0.4c0.1,0.1,0.3,0.1,0.5,0.1
						c0.1,0,0.3-0.1,0.4-0.3c0.1-0.2,0.1-0.3,0.1-0.5c-0.1-0.5-0.2-1.1-0.3-1.6c0-0.1-0.2-0.3-0.3-0.4c-0.1-0.1-0.3-0.1-0.5-0.1
						c-0.1,0-0.3,0.1-0.4,0.3C75.9,193.5,75.8,193.7,75.9,193.9L75.9,193.9z"/>
				</g>
				<g>
					<path class="st0" d="M72.7,193.7c0.1,0.5,0.2,1.1,0.4,1.6c0.1,0.3,0.5,0.5,0.8,0.4c0.3-0.1,0.5-0.4,0.4-0.8
						c-0.1-0.5-0.2-1.1-0.4-1.6c-0.1-0.3-0.5-0.5-0.8-0.4C72.8,193.1,72.6,193.4,72.7,193.7L72.7,193.7z"/>
				</g>
				<g>
					<path class="st0" d="M73.5,197.6c0.2,0.5,0.3,1.1,0.4,1.6c0-0.1,0-0.1,0-0.2c0,0.1,0,0.2,0,0.2c0,0.2,0.1,0.3,0.2,0.4
						c0.1,0.1,0.3,0.2,0.4,0.2c0.2,0,0.3-0.1,0.4-0.2c0.1-0.1,0.2-0.3,0.2-0.4c-0.1-0.7-0.2-1.4-0.4-2c-0.1-0.2-0.1-0.3-0.3-0.4
						c-0.1-0.1-0.3-0.1-0.5-0.1C73.6,197,73.3,197.3,73.5,197.6L73.5,197.6z"/>
				</g>
				<g>
					<path class="st0" d="M74.4,195.2c0.1,0.7,0.3,1.3,0.4,2c0.1,0.3,0.5,0.5,0.8,0.4c0.3-0.1,0.5-0.4,0.4-0.8
						c-0.1-0.7-0.3-1.3-0.4-2c-0.1-0.3-0.5-0.5-0.8-0.4C74.5,194.6,74.3,194.9,74.4,195.2L74.4,195.2z"/>
				</g>
				<g>
					<path class="st0" d="M75.4,200.6c0,0.4,0.1,0.8,0.1,1.3c0,0.1,0,0.2,0.1,0.2c0,0.1,0.1,0.1,0.1,0.2c0.1,0.1,0.3,0.2,0.4,0.2
						c0.2,0,0.3-0.1,0.4-0.2c0.1-0.1,0.2-0.3,0.2-0.4c0-0.4-0.1-0.8-0.1-1.3c0-0.1,0-0.2-0.1-0.2c0-0.1-0.1-0.1-0.1-0.2
						c-0.1-0.1-0.3-0.2-0.4-0.2c-0.2,0-0.3,0.1-0.4,0.2C75.5,200.3,75.4,200.4,75.4,200.6L75.4,200.6z"/>
				</g>
				<g>
					<path class="st0" d="M73,200.7c0.1,0.5,0.3,1,0.4,1.5c0,0.2,0.1,0.3,0.3,0.4c0.1,0.1,0.3,0.1,0.5,0.1c0.3-0.1,0.5-0.4,0.4-0.8
						c-0.1-0.5-0.3-1-0.4-1.5c0-0.2-0.1-0.3-0.3-0.4c-0.1-0.1-0.3-0.1-0.5-0.1C73.2,200.1,72.9,200.4,73,200.7L73,200.7z"/>
				</g>
				<g>
					<path class="st0" d="M77.1,197.7c0.1,0.3,0.2,0.6,0.2,0.9c0-0.1,0-0.1,0-0.2c0,0.2,0,0.4,0,0.6c0,0.2,0.1,0.3,0.2,0.4
						c0.1,0.1,0.3,0.2,0.4,0.2c0.3,0,0.6-0.3,0.6-0.6c0-0.6-0.1-1.1-0.3-1.7c-0.1-0.2-0.1-0.3-0.3-0.4c-0.1-0.1-0.3-0.1-0.5-0.1
						c-0.1,0-0.3,0.1-0.4,0.3C77,197.4,77,197.6,77.1,197.7L77.1,197.7z"/>
				</g>
				<g>
					<path class="st0" d="M78.5,194.7c0,0.3,0.1,0.6,0.2,0.9c0.1,0.3,0.2,0.6,0.4,0.8c0.1,0.1,0.2,0.2,0.4,0.3c0.1,0,0.3,0,0.5-0.1
						c0.1-0.1,0.2-0.2,0.3-0.4c0-0.2,0-0.3-0.1-0.5c-0.1-0.2-0.2-0.3-0.3-0.5c0,0,0,0.1,0.1,0.1c-0.1-0.3-0.2-0.5-0.2-0.8
						c0,0.1,0,0.1,0,0.2c0,0,0-0.1,0-0.1c0-0.2-0.1-0.3-0.2-0.4c-0.1-0.1-0.3-0.2-0.4-0.2c-0.2,0-0.3,0.1-0.4,0.2
						C78.6,194.4,78.5,194.5,78.5,194.7L78.5,194.7z"/>
				</g>
				<g>
					<path class="st0" d="M79.1,190.6c0,0.1,0.1,0.2,0.1,0.3c0,0,0-0.1-0.1-0.1c0.2,0.5,0.4,1,0.4,1.6c0-0.1,0-0.1,0-0.2
						c0,0,0,0,0,0c0,0.2,0.1,0.3,0.2,0.4c0.1,0.1,0.3,0.2,0.4,0.2c0.2,0,0.3-0.1,0.4-0.2c0.1-0.1,0.2-0.3,0.2-0.4
						c0-0.4-0.1-0.8-0.2-1.1c-0.1-0.4-0.3-0.7-0.4-1.1c-0.1-0.1-0.2-0.2-0.4-0.3c-0.1,0-0.3,0-0.5,0.1c-0.1,0.1-0.2,0.2-0.3,0.4
						C79,190.3,79,190.5,79.1,190.6L79.1,190.6z"/>
				</g>
				<g>
					<path class="st0" d="M80.3,186.7c0.2,0.6,0.3,1.2,0.5,1.8c0.1,0.3,0.4,0.5,0.8,0.4c0.3-0.1,0.5-0.4,0.4-0.8
						c-0.2-0.6-0.3-1.2-0.5-1.8c-0.1-0.3-0.4-0.5-0.8-0.4C80.4,186.1,80.2,186.4,80.3,186.7L80.3,186.7z"/>
				</g>
				<g>
					<path class="st0" d="M83.3,186.1c0.1,0.2,0.1,0.4,0.2,0.6c0,0.1,0,0.2,0,0.2c0,0,0,0.1,0,0.1c0-0.1,0-0.1,0,0c0,0,0,0.1,0,0.1
						c0,0.2,0,0.4,0,0.5c0,0.1,0,0.2,0,0.3c0,0.1,0-0.1,0,0c0,0.1,0,0.1,0,0.2c0,0.2,0,0.3,0.1,0.5c0.1,0.1,0.2,0.3,0.4,0.3
						c0.3,0.1,0.7-0.1,0.8-0.4c0.2-0.9,0.1-1.8-0.2-2.6c-0.1-0.3-0.4-0.5-0.8-0.4C83.4,185.4,83.1,185.8,83.3,186.1L83.3,186.1z"/>
				</g>
				<g>
					<path class="st0" d="M83.1,191.5c0.1,0.3,0.2,0.7,0.2,1c0-0.1,0-0.1,0-0.2c0,0.4,0.1,0.7,0.1,1.1c0,0.3,0.3,0.6,0.6,0.6
						c0.3,0,0.6-0.3,0.6-0.6c0-0.8-0.1-1.5-0.3-2.3c-0.1-0.3-0.4-0.5-0.8-0.4C83.2,190.8,83,191.2,83.1,191.5L83.1,191.5z"/>
				</g>
				<g>
					<path class="st0" d="M81.7,193.5c0,0.2,0.1,0.4,0.1,0.5c0,0.1,0,0.2,0,0.3c0,0,0,0.1,0,0.1c0,0,0-0.1,0-0.1c0,0,0,0.1,0,0.1
						c0,0.4,0.1,0.7,0,1.1c0,0.3,0.3,0.6,0.6,0.6c0.3,0,0.6-0.3,0.6-0.6c0-0.8-0.1-1.6-0.3-2.4c-0.1-0.3-0.4-0.5-0.8-0.4
						C81.8,192.8,81.6,193.2,81.7,193.5L81.7,193.5z"/>
				</g>
				<g>
					<path class="st0" d="M80.7,199.8c0.1,0.7,0.2,1.4,0.3,2.1c0,0.2,0.1,0.3,0.2,0.4c0.1,0.1,0.3,0.2,0.4,0.2
						c0.2,0,0.3-0.1,0.4-0.2c0.1-0.1,0.2-0.3,0.2-0.4c-0.1-0.7-0.2-1.4-0.3-2.1c0-0.2-0.1-0.3-0.2-0.4c-0.1-0.1-0.3-0.2-0.4-0.2
						c-0.2,0-0.3,0.1-0.4,0.2C80.7,199.5,80.6,199.7,80.7,199.8L80.7,199.8z"/>
				</g>
				<g>
					<path class="st0" d="M79.7,203.1c0.1,0.7,0.2,1.4,0.3,2.1c0,0.1,0.2,0.3,0.3,0.4c0.1,0.1,0.3,0.1,0.5,0.1
						c0.1,0,0.3-0.1,0.4-0.3c0.1-0.2,0.1-0.3,0.1-0.5c-0.1-0.7-0.2-1.4-0.3-2.1c0-0.1-0.2-0.3-0.3-0.4c-0.1-0.1-0.3-0.1-0.5-0.1
						c-0.1,0-0.3,0.1-0.4,0.3C79.7,202.8,79.7,202.9,79.7,203.1L79.7,203.1z"/>
				</g>
				<g>
					<path class="st0" d="M77.3,204.6c0.2,0.4,0.3,0.8,0.3,1.2c0,0.2,0-0.1,0,0c0,0,0,0.1,0,0.1c0,0.1,0,0.2,0,0.3
						c0,0.2,0,0.4,0,0.6c0,0.3,0.3,0.6,0.6,0.6c0.4,0,0.6-0.3,0.6-0.6c0.1-0.9-0.1-1.8-0.4-2.7c-0.1-0.2-0.1-0.3-0.3-0.4
						c-0.1-0.1-0.3-0.1-0.5-0.1C77.4,204,77.2,204.3,77.3,204.6L77.3,204.6z"/>
				</g>
				<g>
					<path class="st0" d="M74,205.5c0.1,0.6,0.3,1.3,0.4,1.9c0.1,0.3,0.5,0.5,0.8,0.4c0.3-0.1,0.5-0.4,0.4-0.8
						c-0.1-0.6-0.3-1.3-0.4-1.9c-0.1-0.3-0.5-0.5-0.8-0.4C74.1,204.8,73.9,205.2,74,205.5L74,205.5z"/>
				</g>
				<g>
					<path class="st0" d="M76,204.2c0,0.4,0.1,0.8,0.1,1.3c0,0.1,0,0.2,0.1,0.2c0,0.1,0.1,0.1,0.1,0.2c0.1,0.1,0.3,0.2,0.4,0.2
						c0.2,0,0.3-0.1,0.4-0.2c0.1-0.1,0.2-0.3,0.2-0.4c0-0.4-0.1-0.8-0.1-1.3c0-0.1,0-0.2-0.1-0.2c0-0.1-0.1-0.1-0.1-0.2
						c-0.1-0.1-0.3-0.2-0.4-0.2c-0.2,0-0.3,0.1-0.4,0.2C76.1,203.9,76,204,76,204.2L76,204.2z"/>
				</g>
				<g>
					<path class="st0" d="M76.2,209.4c0,0,0,0.1,0,0.1C76.2,209.5,76.2,209.4,76.2,209.4c0.1,0.2,0.2,0.5,0.2,0.7c0-0.1,0-0.1,0-0.2
						c0,0.1,0,0.3,0,0.4c0,0.2,0.1,0.3,0.2,0.4c0.1,0.1,0.3,0.2,0.4,0.2c0.2,0,0.3-0.1,0.4-0.2c0.1-0.1,0.2-0.3,0.2-0.4
						c0-0.3,0-0.5-0.1-0.8c-0.1-0.3-0.2-0.5-0.3-0.8c-0.1-0.1-0.2-0.2-0.4-0.3c-0.1,0-0.3,0-0.5,0.1c-0.1,0.1-0.2,0.2-0.3,0.4
						c0,0.1,0,0.1,0,0.2C76.1,209.2,76.1,209.3,76.2,209.4L76.2,209.4z"/>
				</g>
				<g>
					<path class="st0" d="M73.7,209.2c0.1,0.6,0.2,1.3,0.6,1.8c0.1,0.1,0.2,0.2,0.4,0.3c0.1,0,0.3,0,0.5-0.1
						c0.3-0.2,0.4-0.6,0.2-0.8c-0.1-0.2-0.2-0.3-0.2-0.5c0,0,0,0.1,0.1,0.1c-0.1-0.3-0.2-0.6-0.2-0.9c0,0.1,0,0.1,0,0.2
						c0-0.1,0-0.1,0-0.2c0-0.2-0.1-0.3-0.2-0.4c-0.1-0.1-0.3-0.2-0.4-0.2c-0.2,0-0.3,0.1-0.4,0.2C73.8,208.9,73.7,209,73.7,209.2
						L73.7,209.2z"/>
				</g>
				<g>
					<path class="st0" d="M78.4,211c0.1,0.3,0.2,0.7,0.3,1c0,0.1,0.2,0.3,0.3,0.4c0.1,0.1,0.3,0.1,0.5,0.1c0.1,0,0.3-0.1,0.4-0.3
						c0.1-0.1,0.1-0.3,0.1-0.5c-0.1-0.3-0.2-0.7-0.3-1c0-0.1-0.2-0.3-0.3-0.4c-0.1-0.1-0.3-0.1-0.5-0.1c-0.1,0-0.3,0.1-0.4,0.3
						C78.4,210.7,78.4,210.8,78.4,211L78.4,211z"/>
				</g>
				<g>
					<path class="st0" d="M77.9,201.6c0.1,0.4,0.2,0.8,0.3,1.1c0,0.1,0.2,0.3,0.3,0.4c0.1,0.1,0.3,0.1,0.5,0.1
						c0.1,0,0.3-0.1,0.4-0.3c0.1-0.2,0.1-0.3,0.1-0.5c-0.1-0.4-0.2-0.8-0.3-1.1c0-0.1-0.2-0.3-0.3-0.4c-0.1-0.1-0.3-0.1-0.5-0.1
						c-0.1,0-0.3,0.1-0.4,0.3C77.8,201.3,77.8,201.5,77.9,201.6L77.9,201.6z"/>
				</g>
				<g>
					<path class="st0" d="M74.7,213.3c0.3,0.5,0.5,0.9,0.8,1.4c0.1,0.1,0.2,0.2,0.4,0.3c0.1,0,0.3,0,0.5-0.1
						c0.3-0.2,0.4-0.5,0.2-0.8c-0.3-0.5-0.5-0.9-0.8-1.4c-0.1-0.1-0.2-0.2-0.4-0.3c-0.1,0-0.3,0-0.5,0.1
						C74.7,212.6,74.6,213,74.7,213.3L74.7,213.3z"/>
				</g>
				<g>
					<path class="st0" d="M78.7,209c0.2,0.4,0.4,0.8,0.5,1.3c0.1,0.1,0.2,0.2,0.4,0.3c0.1,0,0.3,0,0.5-0.1c0.1-0.1,0.2-0.2,0.3-0.4
						c0-0.1,0-0.1,0-0.2c0-0.1,0-0.2-0.1-0.3c-0.2-0.4-0.4-0.8-0.5-1.3c-0.1-0.1-0.2-0.2-0.4-0.3c-0.1,0-0.3,0-0.5,0.1
						c-0.1,0.1-0.2,0.2-0.3,0.4c0,0.1,0,0.1,0,0.2C78.6,208.8,78.7,208.9,78.7,209L78.7,209z"/>
				</g>
				<g>
					<path class="st0" d="M80.6,213.6C80.6,213.7,80.6,213.7,80.6,213.6C80.5,213.6,80.5,213.6,80.6,213.6c0.1,0.1,0.2,0.3,0.3,0.5
						c0,0,0-0.1-0.1-0.1c0.1,0.2,0.1,0.3,0.2,0.5c0,0.1,0.2,0.3,0.3,0.4c0.1,0.1,0.3,0.1,0.5,0.1c0.1,0,0.3-0.1,0.4-0.3
						c0.1-0.2,0.1-0.3,0.1-0.5c-0.1-0.3-0.1-0.5-0.3-0.7c-0.1-0.2-0.3-0.5-0.4-0.7c-0.1-0.1-0.3-0.2-0.4-0.2c-0.2,0-0.3,0.1-0.4,0.2
						c-0.1,0.1-0.2,0.3-0.2,0.4c0,0.1,0,0.1,0,0.2C80.4,213.5,80.5,213.6,80.6,213.6L80.6,213.6z"/>
				</g>
				<g>
					<path class="st0" d="M82.1,210.1c0,0,0,0.1,0,0.1C82.1,210.2,82.1,210.2,82.1,210.1c0.1,0.2,0.2,0.5,0.2,0.7c0-0.1,0-0.1,0-0.2
						c0,0.1,0,0.3,0,0.4c0,0.2,0.1,0.3,0.2,0.4c0.1,0.1,0.3,0.2,0.4,0.2c0.2,0,0.3-0.1,0.4-0.2c0.1-0.1,0.2-0.3,0.2-0.4
						c0-0.3,0-0.5-0.1-0.8c-0.1-0.3-0.2-0.5-0.3-0.8c-0.1-0.1-0.2-0.2-0.4-0.3c-0.1,0-0.3,0-0.5,0.1c-0.1,0.1-0.2,0.2-0.3,0.4
						c0,0.1,0,0.1,0,0.2C82,209.9,82,210.1,82.1,210.1L82.1,210.1z"/>
				</g>
				<g>
					<path class="st0" d="M81.5,205.5c0.1,0.5,0.3,0.9,0.4,1.4c0,0.2,0.1,0.3,0.3,0.4c0.1,0.1,0.3,0.1,0.5,0.1
						c0.1,0,0.3-0.1,0.4-0.3c0.1-0.1,0.1-0.3,0.1-0.5c-0.1-0.5-0.3-0.9-0.4-1.4c0-0.2-0.1-0.3-0.3-0.4c-0.1-0.1-0.3-0.1-0.5-0.1
						c-0.1,0-0.3,0.1-0.4,0.3C81.5,205.2,81.4,205.3,81.5,205.5L81.5,205.5z"/>
				</g>
				<g>
					<path class="st0" d="M83.4,200.1c0.1,0.6,0.3,1.3,0.4,1.9c0.1,0.3,0.5,0.5,0.8,0.4c0.3-0.1,0.5-0.4,0.4-0.8
						c-0.1-0.6-0.3-1.3-0.4-1.9c-0.1-0.3-0.5-0.5-0.8-0.4C83.5,199.5,83.3,199.8,83.4,200.1L83.4,200.1z"/>
				</g>
				<g>
					<path class="st0" d="M78.4,184.7C78.4,184.7,78.4,184.7,78.4,184.7c0,0.2,0,0.3,0,0.4c0,0.1,0,0.2,0,0.4c0,0.1,0,0.1,0.1,0.2
						c0,0.1,0.1,0.2,0.2,0.3c0.1,0.1,0.2,0.2,0.4,0.3c0.1,0,0.2,0,0.2,0c0.1,0,0.2,0,0.2-0.1c0.1-0.1,0.2-0.2,0.3-0.4
						c0-0.2,0-0.3-0.1-0.5c0,0-0.1-0.1-0.1-0.1c0,0,0,0.1,0.1,0.1c0-0.1-0.1-0.2-0.1-0.3c0,0.1,0,0.1,0,0.2c0-0.1,0-0.2,0-0.3
						c0,0.1,0,0.1,0,0.2c0,0,0-0.1,0-0.1c0-0.2,0-0.3-0.1-0.5c0-0.1-0.1-0.1-0.2-0.2c-0.1-0.1-0.1-0.1-0.2-0.1c-0.2,0-0.3,0-0.5,0.1
						C78.5,184.4,78.4,184.5,78.4,184.7L78.4,184.7z"/>
				</g>
				<g>
					<path class="st0" d="M84.5,185.3c0.1,0.1,0.2,0.3,0.2,0.4c0,0,0-0.1-0.1-0.1c0.1,0.2,0.1,0.4,0.2,0.7c0-0.1,0-0.1,0-0.2
						c0,0.2,0,0.4,0,0.6c0-0.1,0-0.1,0-0.2c0,0,0,0,0,0c0,0.2,0,0.3,0.1,0.5c0.1,0.1,0.2,0.3,0.4,0.3c0.2,0,0.3,0,0.5-0.1
						c0.1-0.1,0.3-0.2,0.3-0.4c0-0.2,0.1-0.4,0-0.6c0-0.2,0-0.4-0.1-0.6c-0.1-0.4-0.2-0.7-0.4-1c-0.1-0.1-0.2-0.2-0.4-0.3
						c-0.1,0-0.3,0-0.5,0.1C84.4,184.6,84.3,185,84.5,185.3L84.5,185.3z"/>
				</g>
				<g>
					<path class="st0" d="M85.5,189.7c0.1,0.5,0.2,1,0.4,1.5c0.1,0.3,0.4,0.5,0.8,0.4c0.3-0.1,0.5-0.4,0.4-0.8
						c-0.1-0.5-0.2-1-0.4-1.5c-0.1-0.3-0.4-0.5-0.8-0.4C85.6,189.1,85.4,189.4,85.5,189.7L85.5,189.7z"/>
				</g>
				<g>
					<path class="st0" d="M87.4,186.4c0.1,0.3,0.2,0.6,0.2,0.9c0-0.1,0-0.1,0-0.2c0,0.3,0,0.7,0,1c0-0.1,0-0.1,0-0.2
						c0,0.1,0,0.1,0,0.2c0,0.2,0,0.3,0.1,0.5c0.1,0.1,0.2,0.3,0.4,0.3c0.3,0.1,0.7-0.1,0.8-0.4c0.1-0.8,0.1-1.7-0.2-2.5
						c-0.1-0.2-0.1-0.3-0.3-0.4c-0.1-0.1-0.3-0.1-0.5-0.1C87.6,185.7,87.3,186,87.4,186.4L87.4,186.4z"/>
				</g>
				<g>
					<path class="st0" d="M78.3,188.4c0.1,0.5,0.2,1,0.3,1.5c0,0.1,0.2,0.3,0.3,0.4c0.1,0.1,0.3,0.1,0.5,0.1c0.1,0,0.3-0.1,0.4-0.3
						c0.1-0.2,0.1-0.3,0.1-0.5c-0.1-0.5-0.2-1-0.3-1.5c0-0.1-0.2-0.3-0.3-0.4c-0.1-0.1-0.3-0.1-0.5-0.1c-0.1,0-0.3,0.1-0.4,0.3
						C78.2,188,78.2,188.2,78.3,188.4L78.3,188.4z"/>
				</g>
				<g>
					<path class="st0" d="M84.9,194.2c0.1,0.5,0.1,1,0.2,1.5c0,0.2,0.1,0.3,0.2,0.4c0.1,0.1,0.3,0.2,0.4,0.2c0.2,0,0.3-0.1,0.4-0.2
						c0.1-0.1,0.2-0.3,0.2-0.4c-0.1-0.5-0.1-1-0.2-1.5c0-0.2-0.1-0.3-0.2-0.4c-0.1-0.1-0.3-0.2-0.4-0.2c-0.2,0-0.3,0.1-0.4,0.2
						C85,193.9,84.9,194,84.9,194.2L84.9,194.2z"/>
				</g>
				<g>
					<path class="st0" d="M83,197.4c0.1,0.4,0.2,0.7,0.3,1.1c0,0.1,0.2,0.3,0.3,0.4c0.1,0.1,0.3,0.1,0.5,0.1c0.1,0,0.3-0.1,0.4-0.3
						c0.1-0.1,0.1-0.3,0.1-0.5c-0.1-0.4-0.2-0.7-0.3-1.1c0-0.1-0.2-0.3-0.3-0.4c-0.1-0.1-0.3-0.1-0.5-0.1c-0.1,0-0.3,0.1-0.4,0.3
						C83,197,83,197.2,83,197.4L83,197.4z"/>
				</g>
				<g>
					<path class="st0" d="M86.1,198.5c0.1,0.5,0.1,1,0.2,1.5c0,0.2,0.1,0.3,0.2,0.4c0.1,0.1,0.3,0.2,0.4,0.2c0.2,0,0.3-0.1,0.4-0.2
						c0.1-0.1,0.2-0.3,0.2-0.4c-0.1-0.5-0.1-1-0.2-1.5c0-0.2-0.1-0.3-0.2-0.4c-0.1-0.1-0.3-0.2-0.4-0.2c-0.2,0-0.3,0.1-0.4,0.2
						C86.2,198.1,86.1,198.3,86.1,198.5L86.1,198.5z"/>
				</g>
				<g>
					<path class="st0" d="M80.1,196.7c-0.1,0.3-0.1,0.5,0,0.8c0.1,0.3,0.2,0.5,0.4,0.7c0.1,0.1,0.3,0.2,0.4,0.2c0.1,0,0.2,0,0.2-0.1
						c0.1,0,0.1-0.1,0.2-0.1c0.1-0.1,0.2-0.3,0.2-0.4c0-0.2-0.1-0.3-0.2-0.4c0,0,0-0.1-0.1-0.1c0,0,0.1,0.1,0.1,0.1
						c-0.1-0.1-0.1-0.1-0.1-0.2c0,0,0,0.1,0.1,0.1c0-0.1-0.1-0.2-0.1-0.3c0,0.1,0,0.1,0,0.2c0-0.1,0-0.2,0-0.2c0,0.1,0,0.1,0,0.2
						c0,0,0,0,0-0.1c0-0.1,0-0.2,0-0.2c0-0.1,0-0.2-0.1-0.2c0-0.1-0.1-0.1-0.2-0.2c-0.1-0.1-0.1-0.1-0.2-0.1c-0.2,0-0.3,0-0.5,0.1
						C80.3,196.4,80.2,196.5,80.1,196.7L80.1,196.7z"/>
				</g>
				<g>
					<path class="st0" d="M88,195.2c0.1,0.5,0.2,1.1,0.3,1.6c0,0.1,0.2,0.3,0.3,0.4c0.1,0.1,0.3,0.1,0.5,0.1c0.1,0,0.3-0.1,0.4-0.3
						c0.1-0.2,0.1-0.3,0.1-0.5c-0.1-0.5-0.2-1.1-0.3-1.6c0-0.1-0.2-0.3-0.3-0.4c-0.1-0.1-0.3-0.1-0.5-0.1c-0.1,0-0.3,0.1-0.4,0.3
						C88,194.9,88,195.1,88,195.2L88,195.2z"/>
				</g>
				<g>
					<path class="st0" d="M88.3,191.9c0.1,0.4,0.2,0.8,0.3,1.2c0,0.1,0.2,0.3,0.3,0.4c0.1,0.1,0.3,0.1,0.5,0.1
						c0.3-0.1,0.5-0.4,0.4-0.8c-0.1-0.4-0.2-0.8-0.3-1.2c0-0.1-0.2-0.3-0.3-0.4c-0.1-0.1-0.3-0.1-0.5-0.1
						C88.4,191.2,88.2,191.5,88.3,191.9L88.3,191.9z"/>
				</g>
				<g>
					<path class="st0" d="M89.5,187.7c0.1,0.5,0.2,1.1,0.2,1.6c0,0.1,0.2,0.3,0.3,0.4c0.1,0.1,0.3,0.1,0.5,0.1
						c0.1,0,0.3-0.1,0.4-0.3c0,0,0-0.1,0.1-0.1c0-0.1,0-0.2,0-0.3c-0.1-0.5-0.2-1.1-0.2-1.6c0-0.1-0.2-0.3-0.3-0.4
						c-0.1-0.1-0.3-0.1-0.5-0.1c-0.1,0-0.3,0.1-0.4,0.3c0,0,0,0.1-0.1,0.1C89.5,187.5,89.5,187.6,89.5,187.7L89.5,187.7z"/>
				</g>
				<g>
					<path class="st0" d="M88.4,202.1c0.1,0.5,0.2,1,0.3,1.5c0,0.1,0.2,0.3,0.3,0.4c0.1,0.1,0.3,0.1,0.5,0.1c0.1,0,0.3-0.1,0.4-0.3
						c0.1-0.2,0.1-0.3,0.1-0.5c-0.1-0.5-0.2-1-0.3-1.5c0-0.1-0.2-0.3-0.3-0.4c-0.1-0.1-0.3-0.1-0.5-0.1c-0.1,0-0.3,0.1-0.4,0.3
						C88.4,201.8,88.3,202,88.4,202.1L88.4,202.1z"/>
				</g>
				<g>
					<path class="st0" d="M88.3,199.3c0,0.5,0.1,1,0.1,1.5c0,0.2,0.1,0.3,0.2,0.4c0.1,0.1,0.3,0.2,0.4,0.2c0.2,0,0.3-0.1,0.4-0.2
						c0.1-0.1,0.2-0.3,0.2-0.4c0-0.5-0.1-1-0.1-1.5c0-0.2-0.1-0.3-0.2-0.4c-0.1-0.1-0.3-0.2-0.4-0.2c-0.2,0-0.3,0.1-0.4,0.2
						C88.3,199,88.2,199.2,88.3,199.3L88.3,199.3z"/>
				</g>
				<g>
					<path class="st0" d="M84.8,204.4c0.1,0.7,0.2,1.3,0.3,2c0,0.1,0.2,0.3,0.3,0.4c0.1,0.1,0.3,0.1,0.5,0.1c0.1,0,0.3-0.1,0.4-0.3
						c0.1-0.2,0.1-0.3,0.1-0.5c-0.1-0.7-0.2-1.3-0.3-2c0-0.1-0.2-0.3-0.3-0.4c-0.1-0.1-0.3-0.1-0.5-0.1c-0.1,0-0.3,0.1-0.4,0.3
						C84.7,204.1,84.7,204.2,84.8,204.4L84.8,204.4z"/>
				</g>
				<g>
					<path class="st0" d="M84.7,209c0.1,0.4,0.2,0.8,0.3,1.3c0,0,0,0.1,0,0.1c0,0.1,0-0.1,0,0c0,0.1,0,0.2,0,0.3c0,0.2,0,0.4,0,0.7
						c0,0.3,0.3,0.6,0.6,0.6c0.3,0,0.6-0.3,0.6-0.6c0-0.9-0.2-1.9-0.4-2.8c-0.1-0.3-0.4-0.5-0.8-0.4C84.8,208.3,84.6,208.7,84.7,209
						L84.7,209z"/>
				</g>
				<g>
					<path class="st0" d="M85.4,213.1c0,0.2,0,0.4,0,0.7c0,0.2,0.1,0.4,0.2,0.6c0,0.1,0.1,0.1,0.2,0.2c0.1,0.1,0.1,0.1,0.2,0.1
						c0.1,0,0.3,0,0.5-0.1c0.1-0.1,0.2-0.2,0.3-0.4c0-0.1,0-0.1,0-0.2c0-0.1,0-0.2-0.1-0.3c0,0,0,0,0,0c0,0,0,0.1,0.1,0.1
						c-0.1-0.2-0.1-0.3-0.1-0.5c0,0.1,0,0.1,0,0.2c0-0.2,0-0.3,0-0.5c0-0.1,0-0.2-0.1-0.2c0-0.1-0.1-0.1-0.1-0.2
						c-0.1-0.1-0.3-0.2-0.4-0.2c-0.2,0-0.3,0.1-0.4,0.2c0,0-0.1,0.1-0.1,0.1C85.5,212.9,85.4,213,85.4,213.1L85.4,213.1z"/>
				</g>
				<g>
					<path class="st0" d="M87.9,210.1c0.1,0.5,0.3,1,0.4,1.5c0.1,0.3,0.4,0.5,0.8,0.4c0.3-0.1,0.5-0.4,0.4-0.8
						c-0.1-0.5-0.3-1-0.4-1.5c-0.1-0.3-0.4-0.5-0.8-0.4C88,209.5,87.8,209.8,87.9,210.1L87.9,210.1z"/>
				</g>
				<g>
					<path class="st0" d="M88.8,206.1c0.1,0.5,0.2,0.9,0.2,1.4c0,0.1,0.2,0.3,0.3,0.4c0.1,0.1,0.3,0.1,0.5,0.1
						c0.1,0,0.3-0.1,0.4-0.3c0.1-0.2,0.1-0.3,0.1-0.5c-0.1-0.5-0.2-0.9-0.2-1.4c0-0.1-0.2-0.3-0.3-0.4c-0.1-0.1-0.3-0.1-0.5-0.1
						c-0.1,0-0.3,0.1-0.4,0.3C88.8,205.8,88.8,205.9,88.8,206.1L88.8,206.1z"/>
				</g>
				<g>
					<path class="st0" d="M89.2,212.3c0.1,0.5,0.2,1,0.3,1.5c0,0.1,0.2,0.3,0.3,0.4c0.1,0.1,0.3,0.1,0.5,0.1c0.1,0,0.3-0.1,0.4-0.3
						c0.1-0.2,0.1-0.3,0.1-0.5c-0.1-0.5-0.2-1-0.3-1.5c0-0.1-0.2-0.3-0.3-0.4c-0.1-0.1-0.3-0.1-0.5-0.1c-0.1,0-0.3,0.1-0.4,0.3
						C89.2,211.9,89.2,212.1,89.2,212.3L89.2,212.3z"/>
				</g>
				<g>
					<path class="st0" d="M86.5,207.3c0,0.2,0,0.3,0,0.5c0,0.1,0,0.2,0.1,0.2c0,0.1,0.1,0.1,0.1,0.2c0.1,0.1,0.1,0.1,0.2,0.1
						c0.1,0,0.2,0.1,0.2,0.1c0.1,0,0.1,0,0.2,0c0.1,0,0.2-0.1,0.3-0.2c0,0,0.1-0.1,0.1-0.1c0.1-0.1,0.1-0.2,0.1-0.3
						c0-0.2,0-0.3,0-0.5c0-0.1,0-0.2-0.1-0.2c0-0.1-0.1-0.1-0.1-0.2c-0.1-0.1-0.1-0.1-0.2-0.1c-0.1,0-0.2-0.1-0.2-0.1
						c-0.1,0-0.1,0-0.2,0c-0.1,0-0.2,0.1-0.3,0.2c0,0-0.1,0.1-0.1,0.1C86.5,207.1,86.5,207.2,86.5,207.3L86.5,207.3z"/>
				</g>
				<g>
					<path class="st0" d="M77.5,214c0,0.3,0.1,0.5,0.1,0.8c0,0.1,0.1,0.2,0.1,0.2c0,0.1,0.1,0.1,0.2,0.2c0.1,0,0.1,0.1,0.2,0.1
						c0.1,0,0.2,0,0.2,0c0.1,0,0.3-0.1,0.4-0.3c0,0,0-0.1,0.1-0.1c0-0.1,0-0.2,0-0.3c0-0.3-0.1-0.5-0.1-0.8c0-0.1-0.1-0.2-0.1-0.2
						c0-0.1-0.1-0.1-0.2-0.2c-0.1,0-0.1-0.1-0.2-0.1c-0.1,0-0.2,0-0.2,0c-0.1,0-0.3,0.1-0.4,0.3c0,0,0,0.1-0.1,0.1
						C77.4,213.8,77.4,213.9,77.5,214L77.5,214z"/>
				</g>
				<path class="st15" d="M82.6,156.8c-1-1.2-2.6-2.2-4.2-2.2c-1.7,0-3.4,1-3.8,2.5c-0.2,0.9-0.1,1.8,0.3,2.6c1.2,3,4,4.8,6.9,6.5
					c1.5-0.9,3.2-1.8,4.5-3c1.1-1,2.2-2.1,2.7-3.4c0.5-1.3,0.4-3-0.7-4c-0.8-0.7-1.9-1.1-3-1c-1.1,0.1-2.4,0.5-3.4,1.3"/>
			</g>
			<g>
				<g>
					<path class="st11" d="M30.1,215.1c0.3-2.7,3.8-52.1,1.4-54.1c-1.1-0.9-1.5-3.3-1.6-4.7c-0.6-8.5-0.8-17.1-0.7-25.7
						c0-0.7,0.3-1.6,1-1.5c0.2,0,0.3,0.1,0.4,0.2c2.6,2.1,1,9.6,3.2,9.7c1,0,1.1-6.4,1.1-9c0-2.1,0.1-4.2,1.1-6
						c0.4-0.8,1.7-0.7,1.9,0.1c1.4,4.1,0.2,15.1,1.6,15.1c1.1,0,1.1-11.1,1.9-15.1c0.2-0.9,1-2.7,2-2.4c1.4,0.2,1.2,1.9,1.2,3
						c0,2.3,0.1,4.5,0.1,6.8c0,1.5,0,7.8,0.8,7.8c1.3,0.5,1.7-6.3,1.7-8c0-1.8,0.2-3.8,1.1-5.4c0.2-0.4,0.7-0.8,1.2-0.7
						c0.4,0.1,1,1,1,1.4c0.5,4.8,0.1,9.3-0.4,14.1c-0.2,2-0.5,4-0.1,6c0.1,0.4,0.2,0.9,0.7,1c0.3,0.1,0.6,0,0.8-0.1
						c0.5-0.3,0.7-0.9,1-1.5c1-2.5,3.3-7,5.7-5.6c-0.3,3-1.9,5.8-2.9,8.8c-0.6,1.8-0.6,3.6-1.4,5.3c-0.7,1.6-2.5,6.1-4,7.1
						c-2.9,1.8,0.6,49.3,0,53.5H30.1z"/>
					<path class="st20" d="M51,215.1c-0.1,0-1.3-41.1-1.3-41.1l-17.3-0.7l-2.2,41.8H51z"/>
					<polygon class="st21" points="31.6,168.3 49.8,168.3 50.5,174.8 30.8,174 					"/>
					<g>
						<path class="st0" d="M33,173.4c0.3,0,0.5,0,0.8,0c-0.1,0-0.1,0-0.2,0c0.3,0,0.6,0.1,0.8,0.2c0.1,0.1,0.4,0,0.5-0.1
							c0.1-0.1,0.3-0.2,0.3-0.4c0-0.2,0-0.3-0.1-0.5c0,0-0.1-0.1-0.1-0.1c-0.1-0.1-0.2-0.1-0.3-0.2c-0.6-0.2-1.2-0.3-1.8-0.3
							c-0.2,0-0.3,0.1-0.4,0.2c-0.1,0.1-0.2,0.3-0.2,0.4c0,0.2,0.1,0.3,0.2,0.4C32.7,173.3,32.8,173.4,33,173.4L33,173.4z"/>
					</g>
					<g>
						<path class="st0" d="M33.1,171.2c0.5,0,1,0.1,1.5,0.1c0.1,0,0.3-0.1,0.4-0.2c0.1-0.1,0.2-0.3,0.2-0.4c0-0.2-0.1-0.3-0.2-0.4
							c-0.1-0.1-0.3-0.2-0.4-0.2c-0.5,0-1-0.1-1.5-0.1c-0.1,0-0.3,0.1-0.4,0.2c-0.1,0.1-0.2,0.3-0.2,0.4c0,0.2,0.1,0.3,0.2,0.4
							C32.8,171.2,32.9,171.2,33.1,171.2L33.1,171.2z"/>
					</g>
					<g>
						<path class="st0" d="M35.6,170.1c0.2,0,0.3,0,0.5,0c-0.1,0-0.1,0-0.2,0c0.4,0.1,0.7,0.1,1.1,0.2c0.3,0.1,0.7-0.1,0.8-0.4
							c0.1-0.3-0.1-0.7-0.4-0.8c-0.6-0.2-1.2-0.3-1.8-0.3c-0.2,0-0.3,0.1-0.4,0.2c-0.1,0.1-0.2,0.3-0.2,0.4
							C35,169.8,35.3,170.1,35.6,170.1L35.6,170.1z"/>
					</g>
					<g>
						<path class="st0" d="M31.6,172.5c0.4,0,0.9,0,1.3,0c0.2,0,0.3-0.1,0.4-0.2c0.1-0.1,0.2-0.3,0.2-0.4c0-0.2-0.1-0.3-0.2-0.4
							c-0.1-0.1-0.3-0.2-0.4-0.2c-0.4,0-0.9,0-1.3,0c-0.2,0-0.3,0.1-0.4,0.2c-0.1,0.1-0.2,0.3-0.2,0.4c0,0.2,0.1,0.3,0.2,0.4
							C31.3,172.4,31.5,172.5,31.6,172.5L31.6,172.5z"/>
					</g>
					<g>
						<path class="st0" d="M32.6,169.8c0.1,0,0.2,0,0.3-0.1C32.8,169.7,32.7,169.8,32.6,169.8c0.3-0.1,0.4-0.1,0.6,0
							c-0.1,0-0.1,0-0.2,0c0.2,0,0.3,0.1,0.4,0.1c0,0-0.1,0-0.1-0.1c0,0,0,0,0,0c0.1,0,0.1,0.1,0.2,0.1c0.1,0,0.2,0,0.2,0
							c0.1,0,0.3-0.2,0.4-0.3c0.1-0.1,0.1-0.3,0.1-0.5c0-0.1-0.1-0.3-0.3-0.4c-0.1-0.1-0.3-0.1-0.4-0.2c-0.1,0-0.3-0.1-0.5-0.1
							c-0.3,0-0.5,0-0.8,0.1c-0.2,0-0.3,0.1-0.4,0.3c-0.1,0.1-0.1,0.3-0.1,0.5c0,0.1,0.1,0.3,0.3,0.4
							C32.3,169.8,32.4,169.8,32.6,169.8L32.6,169.8z"/>
					</g>
					<g>
						<path class="st0" d="M36.3,172.6C36.3,172.6,36.4,172.6,36.3,172.6c0,0-0.1,0-0.1,0c0.2,0,0.4,0,0.6,0c-0.1,0-0.1,0-0.2,0
							c0.2,0,0.4,0.1,0.5,0.1c0,0-0.1,0-0.1-0.1c0.1,0,0.1,0.1,0.2,0.1c0.1,0.1,0.3,0.1,0.5,0.1c0.1,0,0.3-0.2,0.4-0.3
							c0.1-0.1,0.1-0.3,0.1-0.5c0-0.2-0.1-0.3-0.3-0.4c-0.2-0.1-0.5-0.2-0.8-0.3c-0.2,0-0.3-0.1-0.5-0.1c-0.2,0-0.3,0-0.5,0
							c-0.1,0-0.3,0.2-0.4,0.3c-0.1,0.1-0.1,0.3-0.1,0.5c0,0.1,0.1,0.3,0.3,0.4c0,0,0.1,0,0.1,0.1C36.1,172.6,36.2,172.6,36.3,172.6
							L36.3,172.6z"/>
					</g>
					<g>
						<path class="st0" d="M36.9,174.1c0.3,0,0.6,0.1,0.9,0.1c0.3,0,0.6-0.1,0.9-0.1c0.1,0,0.3-0.2,0.4-0.3c0.1-0.1,0.1-0.3,0.1-0.5
							c-0.1-0.3-0.4-0.5-0.8-0.4c-0.2,0-0.3,0.1-0.5,0.1c0.1,0,0.1,0,0.2,0c-0.3,0-0.7,0-1,0c0.1,0,0.1,0,0.2,0c0,0,0,0,0,0
							c-0.1,0-0.2,0-0.2,0c-0.1,0-0.2,0-0.2,0.1c-0.1,0.1-0.3,0.2-0.3,0.4c0,0.2,0,0.3,0.1,0.5C36.7,173.9,36.8,174.1,36.9,174.1
							L36.9,174.1z"/>
					</g>
					<g>
						<path class="st0" d="M39,172c0.4,0,0.9,0,1.3,0c0.2,0,0.3-0.1,0.4-0.2c0.1-0.1,0.2-0.3,0.2-0.4c0-0.2-0.1-0.3-0.2-0.4
							c-0.1-0.1-0.3-0.2-0.4-0.2c-0.4,0-0.9,0-1.3,0c-0.2,0-0.3,0.1-0.4,0.2c-0.1,0.1-0.2,0.3-0.2,0.4c0,0.2,0.1,0.3,0.2,0.4
							C38.7,171.9,38.8,172,39,172L39,172z"/>
					</g>
					<g>
						<path class="st0" d="M38.9,170.2c0.2,0,0.4,0.1,0.6,0.1c0.2,0,0.4,0,0.6,0c0.3,0,0.6-0.2,0.9-0.3c0.1-0.1,0.2-0.2,0.3-0.4
							c0-0.1,0-0.3-0.1-0.5c-0.2-0.3-0.5-0.4-0.8-0.2c0,0-0.1,0-0.2,0.1c0,0,0.1,0,0.1-0.1c-0.2,0.1-0.4,0.1-0.7,0.2
							c0.1,0,0.1,0,0.2,0c-0.2,0-0.5,0-0.7,0c0.1,0,0.1,0,0.2,0c0,0-0.1,0-0.1,0c-0.2,0-0.3,0-0.5,0.1c-0.1,0.1-0.3,0.2-0.3,0.4
							c0,0.2,0,0.3,0.1,0.5C38.7,170.1,38.8,170.2,38.9,170.2L38.9,170.2z"/>
					</g>
					<g>
						<path class="st0" d="M41.4,173c0,0,0.1,0,0.1,0C41.5,173,41.4,173,41.4,173c0.2,0,0.4,0,0.6,0c-0.1,0-0.1,0-0.2,0
							c0.1,0,0.3,0,0.4,0.1c0.2,0,0.3,0,0.5-0.1c0.1-0.1,0.3-0.2,0.3-0.4c0-0.2,0-0.3-0.1-0.5c-0.1-0.1-0.2-0.2-0.4-0.3
							c-0.2-0.1-0.5-0.1-0.8-0.1c-0.3,0-0.5,0-0.8,0.1c-0.1,0-0.3,0.2-0.4,0.3c-0.1,0.1-0.1,0.3-0.1,0.5c0,0.1,0.1,0.3,0.3,0.4
							c0,0,0.1,0,0.1,0.1C41.2,173,41.3,173,41.4,173L41.4,173z"/>
					</g>
					<g>
						<path class="st0" d="M42.6,174.2c0.6,0,1.2,0,1.9,0c0.3,0,0.6-0.3,0.6-0.6c0-0.3-0.3-0.6-0.6-0.6c-0.6,0-1.2,0-1.9,0
							c-0.3,0-0.6,0.3-0.6,0.6C42,174,42.2,174.2,42.6,174.2L42.6,174.2z"/>
					</g>
					<g>
						<path class="st0" d="M42.4,171.7c0.4,0.1,0.7,0.1,1.1,0.2c0.1,0,0.2,0,0.2,0c0.1,0,0.2,0,0.2-0.1c0.1-0.1,0.3-0.2,0.3-0.4
							c0-0.2,0-0.3-0.1-0.5c-0.1-0.1-0.2-0.3-0.4-0.3c-0.4-0.1-0.7-0.1-1.1-0.2c-0.1,0-0.2,0-0.2,0c-0.1,0-0.2,0-0.2,0.1
							c-0.1,0.1-0.3,0.2-0.3,0.4c0,0.2,0,0.3,0.1,0.5C42.1,171.5,42.3,171.7,42.4,171.7L42.4,171.7z"/>
					</g>
					<g>
						<path class="st0" d="M43.4,170.1c0.4,0,0.8,0,1.2,0c0.2,0,0.3-0.1,0.4-0.2c0.1-0.1,0.2-0.3,0.2-0.4c0-0.2-0.1-0.3-0.2-0.4
							c-0.1-0.1-0.3-0.2-0.4-0.2c-0.4,0-0.8,0-1.2,0c-0.2,0-0.3,0.1-0.4,0.2c-0.1,0.1-0.2,0.3-0.2,0.4c0,0.2,0.1,0.3,0.2,0.4
							C43.1,170,43.2,170.1,43.4,170.1L43.4,170.1z"/>
					</g>
					<g>
						<path class="st0" d="M45.9,170.9c0.2,0,0.4,0,0.5,0c-0.1,0-0.1,0-0.2,0c0.2,0,0.4,0.1,0.7,0.2c0,0-0.1,0-0.1-0.1
							c0,0,0.1,0,0.1,0.1c0.2,0.1,0.3,0.1,0.5,0.1c0.1,0,0.3-0.2,0.4-0.3c0.1-0.1,0.1-0.3,0.1-0.5c0-0.1-0.1-0.3-0.3-0.4
							c-0.5-0.2-1.1-0.4-1.6-0.3c-0.2,0-0.3,0.1-0.4,0.2c-0.1,0.1-0.2,0.3-0.2,0.4c0,0.2,0.1,0.3,0.2,0.4
							C45.6,170.8,45.8,170.9,45.9,170.9L45.9,170.9z"/>
					</g>
					<g>
						<path class="st0" d="M45.5,172.5c0.5-0.1,1.1-0.1,1.6-0.1c0.3,0,0.6-0.3,0.6-0.6c0-0.3-0.3-0.6-0.6-0.6c-0.5,0-1.1,0-1.6,0.1
							c-0.2,0-0.3,0.1-0.4,0.2c-0.1,0.1-0.2,0.3-0.2,0.4c0,0.2,0.1,0.3,0.2,0.4C45.2,172.4,45.4,172.5,45.5,172.5L45.5,172.5z"/>
					</g>
					<g>
						<path class="st0" d="M46.9,174c0.3,0,0.7,0,1,0c-0.1,0-0.1,0-0.2,0c0.1,0,0.2,0,0.3,0.1c0.2,0,0.3,0,0.5-0.1
							c0.1-0.1,0.3-0.2,0.3-0.4c0-0.2,0-0.3-0.1-0.5c-0.1-0.1-0.2-0.3-0.4-0.3c-0.5-0.1-1-0.1-1.5-0.1c-0.1,0-0.2,0-0.2,0.1
							c-0.1,0-0.1,0.1-0.2,0.1c-0.1,0.1-0.2,0.3-0.2,0.4c0,0.2,0.1,0.3,0.2,0.4C46.5,173.9,46.7,174,46.9,174L46.9,174z"/>
					</g>
					<g>
						<path class="st0" d="M48.7,172.5c0.2,0,0.4-0.1,0.7-0.1c0.1,0,0.2-0.1,0.2-0.1c0.1,0,0.1-0.1,0.2-0.2c0-0.1,0.1-0.1,0.1-0.2
							c0-0.1,0-0.2,0-0.2c0-0.1-0.1-0.3-0.3-0.4c0,0-0.1,0-0.1-0.1c-0.1,0-0.2,0-0.3,0c-0.2,0-0.4,0.1-0.7,0.1
							c-0.1,0-0.2,0.1-0.2,0.1c-0.1,0-0.1,0.1-0.2,0.2c0,0.1-0.1,0.1-0.1,0.2c0,0.1,0,0.2,0,0.2c0,0.1,0.1,0.3,0.3,0.4
							c0,0,0.1,0,0.1,0.1C48.5,172.5,48.6,172.5,48.7,172.5L48.7,172.5z"/>
					</g>
					<g>
						<path class="st0" d="M48.9,170C48.9,169.9,48.9,169.9,48.9,170C48.9,169.9,48.9,170,48.9,170C48.9,170,48.9,170,48.9,170
							c0,0-0.1,0-0.1,0.1C48.8,170,48.9,170,48.9,170c-0.1,0-0.1,0-0.2,0C48.8,170,48.9,170,48.9,170c-0.1,0-0.1,0-0.2,0
							C48.8,170,48.8,170,48.9,170c-0.1,0-0.1,0-0.2,0c0,0,0.1,0,0.1,0.1c0,0-0.1-0.1-0.1-0.1c0,0,0,0,0,0
							C48.8,170,48.8,170,48.9,170c0.1,0.1,0.1,0.1,0.2,0.1c0.1,0,0.2,0,0.2-0.1c0.1,0,0.1-0.1,0.2-0.1c0.1-0.1,0.2-0.3,0.2-0.4
							c0-0.1,0-0.1,0-0.2c0-0.1-0.1-0.2-0.2-0.3c-0.1-0.1-0.1-0.1-0.2-0.1c-0.1,0-0.1-0.1-0.2-0.1c-0.1,0-0.2,0-0.3,0
							c0,0-0.1,0-0.1,0c-0.1,0-0.2,0-0.3,0c-0.1,0-0.2,0.1-0.2,0.1c0,0-0.1,0-0.1,0c-0.1,0-0.1,0.1-0.2,0.2
							c-0.1,0.1-0.1,0.1-0.1,0.2c0,0.1-0.1,0.2-0.1,0.2c0,0.1,0,0.2,0.1,0.2c0,0.1,0.1,0.1,0.1,0.2c0.1,0.1,0.3,0.2,0.4,0.2
							c0.1,0,0.1,0,0.2,0C48.7,170.1,48.8,170,48.9,170L48.9,170z"/>
					</g>
					<g>
						<path class="st0" d="M49.6,175c0.2,0,0.4-0.1,0.5-0.1c0.1,0,0.2-0.1,0.2-0.1c0.1,0,0.1-0.1,0.2-0.2c0-0.1,0.1-0.1,0.1-0.2
							c0-0.1,0-0.2,0-0.2c0,0,0-0.1-0.1-0.1c-0.1-0.1-0.1-0.2-0.2-0.2c0,0-0.1,0-0.1-0.1c-0.1,0-0.2,0-0.3,0c-0.2,0-0.4,0.1-0.5,0.1
							c-0.1,0-0.2,0.1-0.2,0.1c-0.1,0-0.1,0.1-0.2,0.2c0,0.1-0.1,0.1-0.1,0.2c0,0.1,0,0.2,0,0.2c0,0,0,0.1,0.1,0.1
							c0.1,0.1,0.1,0.2,0.2,0.2c0,0,0.1,0,0.1,0.1C49.3,175,49.4,175,49.6,175L49.6,175z"/>
					</g>
				</g>
				<path class="st15" d="M41.1,146.9c-1.2-1.4-3.1-2.4-5-2.4c-1.9,0-3.9,1.3-4.3,3.1c-0.2,1,0,2.1,0.4,3.1c1.6,3.5,4.9,5.5,8.4,7.3
					c1.7-1.2,3.6-2.3,5.1-3.7c1.2-1.2,2.4-2.5,2.9-4.1c0.5-1.6,0.3-3.5-1-4.6c-0.9-0.8-2.3-1.2-3.5-1c-1.3,0.1-2.8,0.7-3.9,1.6"/>
			</g>
		</g>
	</g>
</g>
</svg>
