<?xml version="1.0" encoding="utf-8"?>
<!-- Generator: $$$/GeneralStr/196=Adobe Illustrator 27.6.0, SVG Export Plug-In . SVG Version: 6.00 Build 0)  -->
<svg version="1.1" id="圖層_1" xmlns="http://www.w3.org/2000/svg" xmlns:xlink="http://www.w3.org/1999/xlink" x="0px" y="0px"
	 viewBox="0 0 240 240" style="enable-background:new 0 0 240 240;" xml:space="preserve">
<style type="text/css">
	.st0{fill:#FFFFFF;}
	.st1{fill:#F9BE33;}
	.st2{fill:#1E272E;}
	.st3{fill:#FF7E19;}
	.st4{fill:#FCEAE1;}
	.st5{fill:#56AB6E;}
	.st6{fill:#204D3D;}
	.st7{fill:#88BA4B;}
	.st8{fill:#6A687D;}
	.st9{fill:#102920;}
	.st10{fill:#474463;}
	.st11{opacity:0.5;fill:#FFFFFF;}
	.st12{fill:#F9BF00;}
	.st13{fill:#FB9F9F;}
</style>
<g>
	<path class="st0" d="M227.4,144.6c-0.2-3-0.8-5.6-1.7-7.9c-1.1-2.7-2.6-5-4.5-6.7c-2.2-2-4.6-3.1-7-4.2l-0.4-0.2
		c-1.3-0.6-2.6-1.1-4-1.6c-0.1-0.1-0.3-0.3-0.5-0.4c-0.3-0.2-0.5-0.4-0.8-0.6c-0.4-0.5-0.9-0.9-1.3-1.3c-3.1-3-6.6-5.5-10.3-7.5
		c-1.9-1-3.9-1.9-5.8-2.6c-2.6-0.9-5.2-1.5-7.4-2c-0.3-0.1-0.6-0.1-0.9-0.2c-1.3-1.8-2.8-3.1-4-4c-2.6-1.8-5.9-3-9.6-3.4
		c-0.1-0.5-0.2-1-0.4-1.5c0.3-0.2,0.5-0.5,0.8-0.7l0.1-0.1c1.2-1.1,2.6-2.4,3.7-4c1.6-2.1,2.4-4.3,2.5-6.4c0.1-2.3-0.8-4.6-2.3-6.3
		c-2.3-2.6-6-4.1-10.5-4.3c-0.3,0-0.7,0-1,0c-1.7,0-3.6,0.2-5.5,0.5c1-2.5,0.8-5.2-0.7-7.2c-1.2-1.5-3-2.4-5-2.4c-0.3,0-0.5,0-0.8,0
		c-0.5,0.1-1,0.2-1.4,0.3c0.5-3.5,0.1-6.6-1.1-9.3c-1-2.3-2.6-4.1-4.6-5.2c-1.5-0.9-3.3-1.3-5.2-1.3c0,0,0,0,0,0c-1,0-2,0.1-3.1,0.4
		c-2.1,0.5-4.2,1.4-6.6,2.9c-1.7,1.1-3.4,2.4-5.1,3.9c-3.3,3-6,6.4-8.2,9.2c-0.4,0.5-0.7,0.9-1.1,1.4c-0.1,0-0.1,0-0.2,0
		c-1,0-2,0.2-3,0.6c-1.7,0.7-2.8,1.8-3.7,3.1c-0.4-0.6-0.8-1.3-1.4-1.9c-1.5-1.6-3.5-2.5-5.5-2.5c-0.3,0-0.5,0-0.8,0
		c-2.6,0.3-4.3,2-5.2,3c-1.8,1.9-3.5,3.9-5,6.1c-0.8,1.2-1.5,2.4-2.2,3.6c-2.8-2.2-7.7-3.8-14.6-4.8c-1.1-4.8-9.1-5.5-14-5.5
		c-4.9,0-13,0.8-14,5.5c-8.7,1.3-17.5,4.1-17.5,10.2v25.8v10.2v30.3c-1,0.7-1.9,1.4-2.7,2.1c0,0-0.1,0.1-0.1,0.1
		c0,0-0.1,0.1-0.1,0.1c-0.3,0.3-0.7,0.6-1,0.9l-0.1,0c-0.1,0.1-0.2,0.2-0.2,0.2c-0.4,0.4-0.8,0.8-1.2,1.3c-0.1,0.1-0.2,0.2-0.3,0.3
		l-0.1,0.1c-0.3,0.3-0.6,0.6-0.8,0.9c-0.1,0.1-0.2,0.3-0.3,0.4l-0.1,0.1c-0.2,0.3-0.4,0.6-0.6,0.9c-0.1,0.1-0.1,0.1-0.1,0.2
		c-0.1,0.1-0.1,0.2-0.2,0.2c-0.9,1.3-1.7,2.7-2.3,4.1c-4.6,10.5-5.1,20.9-1.6,30c2,5.2,6.6,7.4,10.8,8.9c1.6,0.6,3.3,1.1,4.9,1.7
		c6.5,2.1,13.3,4,20,5.6c6.7,1.6,13.6,2.8,20.4,3.8c7.8,1.1,14.3,1.7,20.5,1.9c1.2,0,2.3,0.1,3.4,0.1c2.8,0,5.4-0.1,7.9-0.4
		c2.4-0.1,4.5-0.3,6.6-0.5c0.7-0.1,1.5-0.2,2.2-0.3c1.9,1.2,3.9,1.8,6.1,1.8c0,0,0,0,0.1,0l11.7,0.2c0,0,0,0,0.1,0c0,0,0,0,0,0
		c0,0,0.1,0,0.1,0l0.1,0c7.1-0.1,13.5-6.7,16.4-16.5c4.9-2.5,12.2-6.2,19.8-10c6.3-3.2,12.8-6.4,18.4-9.3c1.5,0.9,3.2,1.4,5,1.5
		c0,0,0,0,0.1,0l9.7,0.2c0,0,0.1,0,0.1,0c0,0,0,0,0,0c0,0,0.1,0,0.1,0l0.1,0c6.8-0.1,12.8-7.2,14.8-17.1c2.9-1.6,5.8-3.7,7.6-5.3
		C228.3,157.9,227.8,150.5,227.4,144.6z"/>
	<g>
		<g>
			<g>
				<path class="st1" d="M176.5,108.7c-2.7-1.8-6.1-2.7-9.3-2.9c-3.4-0.2-6.9,0.3-10.2,1.2c-1.4,0.4-2.8,0.8-4.2,1.3
					c0.6-0.5,1.3-0.9,1.9-1.4c2.8-2.1,5.5-4.3,8.1-6.6c1.3-1.2,2.6-2.3,3.9-3.5c1.2-1.1,2.4-2.2,3.4-3.6c0.9-1.2,1.6-2.6,1.7-4.1
					c0-1.3-0.5-2.6-1.3-3.6c-1.9-2.1-4.9-2.9-7.6-3c-3.6-0.1-7.3,0.6-10.7,1.7c-3.2,1-6.3,2.2-9.2,3.7c-3,1.5-5.9,3.3-8.6,5.2
					c-0.8,0.5-1.6,1.1-2.3,1.7c0,0,0,0,0-0.1c2.4-3.5,4.7-7.1,6.8-10.9c2.1-3.7,4.1-7.5,5.2-11.5c0.9-3.3,1.3-7.1-0.1-10.3
					c-0.6-1.4-1.6-2.6-2.9-3.4c-1.6-0.9-3.6-1-5.4-0.5c-1.9,0.5-3.7,1.4-5.4,2.4c-1.6,1-3.1,2.2-4.6,3.5c-2.9,2.6-5.3,5.6-7.7,8.7
					c-2.5,3.2-4.9,6.5-7.1,9.9c-2.2,3.4-4.3,6.9-6.1,10.6c-0.2,0.3-0.3,0.7-0.5,1c0.2-0.9,0.3-1.8,0.5-2.7c0.4-2.7,0.5-5.4,0.2-8.1
					c-0.1-1.3-0.4-2.6-0.7-3.9c-0.3-1.1-0.8-2.3-1.6-3.2c-0.8-0.8-1.9-1.3-3-1.2c-1.2,0.1-2,1-2.8,1.8c-1.7,1.7-3.2,3.6-4.6,5.6
					c-2.7,4-4.8,8.4-6.1,13.1c-0.6,2.3-1.1,4.7-1.3,7.1c-0.1,0.8-0.1,1.7-0.2,2.5c-0.8,1.4-1.5,2.9-2.2,4.3c-2,4.3-3.6,8.8-4.7,13.3
					c-1.2,4.6-1.9,9.2-2.1,13.9c-0.2,4.3-0.2,8.7,1.2,12.7c0.6,1.9,1.6,3.8,2.9,5.3c1.3,1.6,3,2.8,4.8,3.8c3.8,1.9,8.3,2.4,12.5,2.1
					c5-0.3,9.9-1.4,14.6-3.1c4.7-1.6,9.3-3.7,13.8-5.8c4.2-2,8.4-4.1,12.4-6.5c3.4-2.1,6.7-4.5,9.7-7.2c0.2-0.1,0.4-0.1,0.6-0.2
					c3.3-1.2,6.6-2.5,9.8-4c3.2-1.5,6.3-3.2,9.4-5c3-1.8,6-3.8,8.8-5.9c2.4-1.8,4.9-4,5-7.2C181,112.9,178.9,110.3,176.5,108.7z"/>
				<g>
					<path class="st2" d="M92.4,141.4c2-3.5,4.1-6.9,6.3-10.2c2.2-3.3,4.6-6.6,7.1-9.7c2.5-3.1,5.1-6.2,7.8-9.2
						c2.7-3,5.5-5.8,8.4-8.6c2.9-2.7,5.9-5.4,9-7.9c0.4-0.3,0.8-0.6,1.2-0.9c0.2-0.1-0.1-0.3-0.2-0.2c-3.2,2.5-6.2,5.1-9.2,7.9
						c-2.9,2.7-5.8,5.6-8.5,8.5c-2.7,2.9-5.4,6-7.9,9.1c-2.5,3.1-4.9,6.3-7.2,9.6c-2.3,3.3-4.4,6.7-6.4,10.1
						c-0.3,0.4-0.5,0.9-0.8,1.3C92,141.4,92.3,141.5,92.4,141.4L92.4,141.4z"/>
				</g>
				<g>
					<path class="st2" d="M92.4,124.7c0.6-1.9,1.2-3.7,1.8-5.5c0.7-2.1,1.5-4.2,2.2-6.2c0.8-2.1,1.6-4.3,2.5-6.4
						c0.8-2.1,1.7-4.1,2.6-6.1c0.8-1.8,1.7-3.6,2.6-5.3c0.1-0.2,0.2-0.4,0.3-0.6c0.1-0.2-0.2-0.3-0.3-0.2c-0.9,1.7-1.8,3.5-2.6,5.2
						c-0.9,2-1.8,4-2.6,6c-0.9,2.1-1.7,4.3-2.5,6.4c-0.8,2.1-1.5,4.2-2.3,6.3c-0.6,1.9-1.3,3.8-1.9,5.7c-0.1,0.2-0.1,0.4-0.2,0.6
						C92.1,124.8,92.4,124.9,92.4,124.7L92.4,124.7z"/>
				</g>
				<g>
					<path class="st2" d="M122.2,122.6c1.9-1,3.9-2.1,5.8-3.1c1.9-1,3.9-2,5.9-2.9c2-0.9,4-1.9,6-2.8c2-0.9,4-1.8,6-2.6
						c2-0.8,4.1-1.7,6.1-2.4c0.3-0.1,0.5-0.2,0.8-0.3c0.2-0.1,0.1-0.4-0.1-0.3c-2,0.8-4.1,1.6-6.1,2.4c-2,0.8-4.1,1.7-6.1,2.6
						c-2,0.9-4,1.8-6,2.7c-2,0.9-4,1.9-5.9,2.9c-2,1-3.9,2-5.8,3.1c-0.2,0.1-0.5,0.3-0.7,0.4C121.9,122.4,122,122.7,122.2,122.6
						L122.2,122.6z"/>
				</g>
				<path class="st3" d="M124.4,92.6c-0.9-0.4-2-0.3-2.9,0c-1,0.3-1.9,0.8-2.7,1.3c-3.5,1.9-6.5,4.6-9,7.6c-2.7,3.2-5,6.7-6.9,10.3
					c-2.1,3.8-3.8,7.9-5,12.1c-0.7,2.5-1.2,5-1.4,7.5c0,1.4,0,2.8,0.1,4.2c0.1,1,0.4,2,0.8,2.8c0.2-0.1,0.3-0.3,0.5-0.4
					c3.2-2.7,6.2-5.6,9.1-8.6c2.8-3.1,5.5-6.3,7.9-9.7c2.4-3.4,4.6-7,6.6-10.7c1-1.9,2-3.8,2.8-5.8c0.9-2,1.7-4.2,1.9-6.3
					C126.3,95.3,126,93.3,124.4,92.6z"/>
				<path class="st3" d="M164.7,101.2c-0.7-1-1.9-1.4-3-1.6c-1.2-0.2-2.4-0.3-3.6-0.3c-4.7-0.1-9.4,1-13.8,2.6
					c-4.6,1.7-9.1,4-13.2,6.6c-4.4,2.8-8.6,6-12.3,9.7c-2.2,2.2-4.1,4.5-5.9,7c-0.8,1.5-1.7,2.9-2.4,4.4c-0.5,1.1-0.8,2.3-0.8,3.5
					c0.3,0,0.5-0.1,0.8-0.1c4.9-0.9,9.7-2.1,14.5-3.6c4.7-1.5,9.4-3.4,13.9-5.5c4.5-2.1,8.9-4.5,13.1-7.2c2.2-1.4,4.3-2.8,6.3-4.4
					c2.1-1.6,4.2-3.3,5.7-5.5C165,105.2,166,102.9,164.7,101.2z"/>
				<path class="st3" d="M152.7,74.3c-0.5-0.7-1.3-1-2.2-0.9c-2,0.2-3.1,2.2-4,3.8c-0.7,1.2-1,3.3,0.6,3.8c0.5,0.2,1,0.1,1.4,0
					c0.4-0.1,0.8-0.2,1.2-0.4c0.8-0.3,1.5-0.9,2-1.5C153,77.9,153.8,75.8,152.7,74.3z"/>
				<path class="st3" d="M115.4,76.4c-0.9-0.7-2.1-0.7-3.2-0.3c-2.5,1.1-3.2,4.1-3.7,6.5c-0.4,1.8,0,4.7,2.3,4.8
					c0.7,0,1.3-0.2,1.9-0.5c0.5-0.3,1-0.6,1.4-1c0.9-0.8,1.6-1.7,2.1-2.7C117.2,81.1,117.5,78,115.4,76.4z"/>
			</g>
			<g>
				<rect x="30.6" y="89.4" class="st4" width="55.1" height="35.9"/>
				<ellipse class="st4" cx="58.2" cy="89.4" rx="27.6" ry="7.2"/>
				<g>
					<path class="st2" d="M85.5,90c-0.3,0.9-1.1,1.5-1.9,2c-1.2,0.8-2.6,1.3-3.9,1.7c-4,1.3-8.2,1.9-12.4,2.3
						c-5.3,0.5-10.6,0.5-15.9,0.2c-4.4-0.3-8.9-0.8-13.2-2c-1.5-0.4-3.1-0.9-4.5-1.6c-0.9-0.5-1.9-1.1-2.6-1.9
						c-0.1-0.2-0.2-0.3-0.3-0.5c-0.1-0.2-0.3,0-0.3,0.2c0.4,0.9,1.3,1.5,2.1,2c1.3,0.8,2.6,1.3,4,1.7c4.1,1.3,8.5,1.9,12.8,2.3
						c5.4,0.5,10.8,0.5,16.2,0.1c4.4-0.3,8.9-0.9,13.1-2.2c1.5-0.4,3-1,4.3-1.7c0.9-0.5,1.8-1.1,2.4-2c0.1-0.2,0.2-0.3,0.3-0.5
						C85.8,89.9,85.5,89.8,85.5,90L85.5,90z"/>
				</g>
				<g>
					<rect x="48" y="80.2" class="st4" width="20.3" height="7.9"/>
					<ellipse class="st4" cx="58.2" cy="80.2" rx="10.1" ry="2.6"/>
					<g>
						<path class="st2" d="M68.1,80.5c-0.2,0.3-0.4,0.5-0.7,0.7c-0.4,0.3-0.9,0.4-1.4,0.6c-1.4,0.4-2.9,0.7-4.4,0.8
							c-1.9,0.2-3.7,0.2-5.6,0.1c-1.6-0.1-3.2-0.3-4.8-0.7c-0.6-0.1-1.1-0.3-1.7-0.5c-0.4-0.2-0.8-0.4-1.1-0.6
							c-0.1-0.1-0.1-0.1-0.1-0.2c-0.1-0.2-0.4,0-0.3,0.2c0.2,0.3,0.6,0.5,0.9,0.7c0.5,0.3,1,0.4,1.6,0.6c1.5,0.4,3.1,0.7,4.6,0.8
							c1.9,0.2,3.8,0.2,5.7,0c1.6-0.1,3.2-0.3,4.7-0.8c0.5-0.2,1.1-0.3,1.6-0.6c0.4-0.2,0.7-0.4,1-0.7c0.1-0.1,0.1-0.1,0.1-0.2
							C68.4,80.5,68.2,80.4,68.1,80.5L68.1,80.5z"/>
					</g>
				</g>
				<path class="st5" d="M85.7,162.3v-47.1c0,4-12.3,8.6-27.6,8.6c-15.2,0-27.6-4.6-27.6-8.6v47.2l0,0c0,0,0,0,0,0
					c0,4,12.3,7.2,27.6,7.2C73.4,169.5,85.7,166.3,85.7,162.3C85.7,162.3,85.7,162.3,85.7,162.3z"/>
				<g>
					<path class="st2" d="M47.9,82.8c0,0.7,0,1.3,0,2c0,1,0,1.9,0,2.9c0,0.2,0,0.4,0,0.6c0.1,0.4,0.3,0.6,0.6,0.8
						c0.4,0.3,0.9,0.5,1.4,0.7c0.7,0.2,1.4,0.4,2,0.6c1.8,0.4,3.7,0.5,5.5,0.6c2,0,3.9-0.1,5.8-0.4c0.8-0.1,1.5-0.3,2.3-0.5
						c0.6-0.2,1.2-0.4,1.7-0.6c0.4-0.2,0.7-0.4,1-0.8c0.1-0.2,0.2-0.4,0.2-0.7c0-0.8,0-1.7,0-2.5c0-0.9,0-1.7,0-2.6c0,0,0-0.1,0-0.1
						c0-0.2-0.3-0.2-0.3,0c0,0.6,0,1.3,0,1.9c0,1,0,1.9,0,2.9c0,0.2,0,0.4,0,0.6c0,0.1,0,0,0,0.1c0,0,0,0.1,0,0.1c0,0,0,0,0,0.1
						c0,0,0,0.1-0.1,0.1c-0.1,0.1-0.2,0.3-0.3,0.4c-0.4,0.3-0.9,0.5-1.3,0.7c-0.6,0.2-1.3,0.4-2,0.5c-1.8,0.4-3.6,0.5-5.4,0.6
						c-1.9,0-3.9,0-5.8-0.3c-0.8-0.1-1.5-0.3-2.3-0.5c-0.6-0.2-1.1-0.3-1.7-0.6c-0.2-0.1-0.4-0.2-0.6-0.4c-0.1-0.1-0.3-0.2-0.3-0.3
						c0,0,0-0.1-0.1-0.1c0,0,0-0.1,0-0.1c0,0,0-0.1,0-0.1c0,0,0,0,0,0c0,0,0,0,0,0c0-0.1,0-0.1,0-0.2c0-0.8,0-1.7,0-2.5
						c0-0.8,0-1.7,0-2.5c0,0,0-0.1,0-0.1C48.2,82.7,47.9,82.6,47.9,82.8L47.9,82.8z"/>
				</g>
				<g>
					<circle class="st5" cx="58.7" cy="125.8" r="16.7"/>
					<path class="st6" d="M68.4,121.6c-0.5,0-5,1.4-6,1.8c0,0,3.6-7.2,4-8c0.1-0.2,0.2-0.4,0.2-0.6c0.1-0.2,0.1-0.4,0.1-0.5
						c0-0.4-0.3-0.6-0.6-0.6c-0.2,0-0.3,0-0.5,0.1c-0.2,0-0.4,0.1-0.7,0.2c-0.4,0.1-0.9,0.2-1.3,0.3c-0.9,0.2-1.8,0.4-2.7,0.6
						c-1.8,0.4-3.6,0.8-5.4,1.2c-0.4,0.1-0.8,0.2-1.1,0.3c-0.3,0.2-0.6,0.4-0.8,0.8c-0.2,0.3-6.3,11.1-6.4,11.5
						c-0.2,0.7-0.4,1.4,0.2,1.8c0.7,0.4,1.5,0.3,2.3,0.1c1.5-0.3,9.2-3.6,9.2-3.6c-0.8,1.5-1.5,2.9-2.1,4.4
						c-0.8,1.8-1.5,3.5-2.2,5.3c-0.2,0.5-0.4,1-0.6,1.5c-0.1,0.2-0.2,0.5-0.3,0.7c-0.1,0.2-0.1,0.5,0,0.7c0,0.1,0.1,0.1,0.2,0.1
						c0.4-0.2,0.8-0.5,1.1-0.8c0.4-0.4,0.7-0.7,1.1-1.1c0.7-0.8,1.5-1.5,2.2-2.3c1.4-1.6,2.8-3.1,4.2-4.8c1.4-1.6,2.7-3.3,4.1-4.9
						c0.7-0.8,1.3-1.6,1.9-2.4c0.1-0.2,0.3-0.4,0.4-0.6c0.1-0.2,0.3-0.4,0.3-0.6C69.2,121.7,68.8,121.6,68.4,121.6z"/>
					<g>
						<path class="st6" d="M74.7,122c0.5,2.2,0.6,4.5,0.2,6.8c-0.3,1.8-1,3.6-1.9,5.2c-0.9,1.6-2.1,3-3.4,4.2
							c-1.4,1.2-3,2.2-4.6,2.9c-1.8,0.7-3.6,1.1-5.5,1.2c-1.9,0.1-3.8-0.2-5.7-0.7c-1.8-0.5-3.4-1.4-4.9-2.5
							c-1.5-1.1-2.8-2.4-3.8-3.9c-1.1-1.5-1.8-3.2-2.3-5c-0.6-2-0.7-4.1-0.5-6.2c0.1-0.6,0.2-1.3,0.3-1.9c0-0.2-0.3-0.3-0.3-0.1
							c-0.5,2.3-0.5,4.6-0.1,6.9c0.3,1.9,1,3.6,2,5.3c0.9,1.6,2.1,3.1,3.5,4.3c1.4,1.2,3,2.2,4.8,2.9c1.8,0.7,3.7,1.1,5.6,1.2
							c1.9,0.1,3.9-0.2,5.8-0.8c1.8-0.6,3.5-1.4,5-2.6c1.5-1.1,2.8-2.5,3.8-4c1.1-1.5,1.8-3.3,2.3-5.1c0.6-2.1,0.7-4.3,0.4-6.4
							c-0.1-0.6-0.2-1.3-0.3-1.9C75,121.7,74.7,121.8,74.7,122L74.7,122z"/>
					</g>
				</g>
			</g>
		</g>
		<g>
			<g>
				<g>
					<path class="st7" d="M223.4,144.9c-0.2-2.3-0.6-4.6-1.4-6.7c-0.8-2-1.9-3.8-3.5-5.2c-1.7-1.6-3.8-2.6-5.9-3.5
						c-1.6-0.7-3.2-1.4-4.8-1.9c-0.3-0.3-0.7-0.6-1-0.9c-0.3-0.3-0.6-0.5-0.9-0.7c-0.4-0.5-0.9-1-1.4-1.4c-2.8-2.7-6-5-9.4-6.9
						c-1.7-0.9-3.5-1.7-5.3-2.3c-2.3-0.8-4.6-1.4-6.9-1.9c-4.8-1.1-9.6-2.1-14.5-2.9c-4.7-0.8-9.5-1.4-14.3-1.6
						c-1.8-0.1-7.8,0-11.6,0.2c-3.8,0.2-7.6,0.6-11.3,1c-3.8,0.5-6.8,0.9-10.5,1.6c-3.7,0.7-8.2,1.4-11.9,2.3
						c-1.2,0.3-3.7,1.1-3.9,1.1c-1,0.3-2.1,0.7-3.1,1.1c-1.1,0.4-2.2,0.8-3.3,1.3c0,0-0.1,0-0.1,0.1c-0.7,0.3-1.5,0.7-2.2,1
						c-2.8,1.4-5.5,3-8,4.8c-2.6,1.8-5.1,3.7-7.5,5.7c-2.4,2-4.8,4.1-7.1,6.3c-1.2,1.1-2.3,2.1-3.4,3.2c-0.7-0.4-1.4-0.7-2.1-0.9
						c-1.5-0.5-3.8-0.7-5.2,1c-1.2,1.5-0.9,3-0.1,4.3c-1.3,0.5-2.7,1.1-4,1.6c-3.5,1.5-7,3-10.5,4.5c-3.5,1.5-7,3.1-10.5,4.7
						c-7.1,3.3-14.4,7.9-17.7,15.4c-3.7,8.6-5,18-1.5,27c1.5,3.7,4.8,5.3,8.4,6.6c1.6,0.6,3.2,1.1,4.8,1.6c6.5,2.1,13,3.9,19.7,5.5
						c6.6,1.5,13.3,2.8,20.1,3.7c6.6,0.9,13.3,1.6,20,1.8c3.6,0.1,7.3,0.1,10.9-0.3c2.1-0.1,4.2-0.2,6.3-0.5c3.8-0.5,7.5-1.3,11-2.8
						c1.8-0.8,3.6-1.7,5.3-2.8c1.8-1,3.6-2,5.5-2.9c1.9-0.9,3.8-1.6,5.7-2.5c0.6-0.3,1.2-0.6,1.8-0.8c-0.2,0.1,0,0.5,0.2,0.4
						c5.1-2.8,55.1-27.8,59.8-30.5c3.9-2.2,7.8-4.4,11.8-6.4c0,0.1,0.2,0.2,0.3,0.1c2.8-1.2,6.6-3.8,8.9-5.8
						C223.9,156.4,223.9,151.2,223.4,144.9z"/>
					<g>
						<path class="st2" d="M17.1,191.7c1.3,1.4,3,2.5,4.8,3.1c0.3,0.1,0.4-0.3,0.1-0.4c-1.8-0.6-3.4-1.6-4.6-3
							C17.2,191.2,17,191.5,17.1,191.7L17.1,191.7z"/>
					</g>
					<g>
						<path class="st2" d="M210.5,164.8c-0.8,9.5-5.9,17.2-11.5,17.3c-0.1,0-0.1,0-0.2,0v0l-9.7-0.2v0c-1.8,0-3.3-0.8-4.7-2.2
							c0.9-0.5,2.8-1.4,4-2c0,0-1.9-10.7,1.7-20.8c1.9-5.4,4.8-8,7.4-9.1h4.4C207.5,147.7,211.3,155.3,210.5,164.8z"/>
						
							<ellipse transform="matrix(0.1358 -0.9907 0.9907 0.1358 9.8188 341.2144)" class="st0" cx="200.5" cy="165" rx="14.6" ry="7.6"/>
						<g>
							<path class="st2" d="M203.9,153.9c-0.8-0.5-1.8-0.4-2.6,0c-0.8,0.4-1.5,1.1-2,1.9c-1.1,1.6-1.9,3.5-2.5,5.3
								c-0.6,1.9-0.9,3.9-1,5.9c-0.1,1.9,0.1,3.8,0.6,5.7c0.5,1.8,1.4,3.6,2.9,4.8c0.2,0.2,0.4-0.2,0.2-0.4c-1.3-1-2.1-2.5-2.6-4
								c-0.5-1.7-0.7-3.5-0.7-5.3c0-3.8,0.9-7.6,2.8-10.9c0.5-0.9,1.1-1.8,1.9-2.4c0.8-0.6,1.9-0.8,2.8-0.3
								C203.9,154.4,204.2,154,203.9,153.9L203.9,153.9z"/>
						</g>
						<g>
							<path class="st8" d="M197.3,181.7c-2-0.6-3.5-2.3-4.5-4c-1.3-2.3-1.9-5.1-2.2-7.7c-0.3-3.2,0-6.4,0.8-9.5
								c0.7-2.7,1.8-5.4,3.4-7.8c1.3-1.8,2.9-3.5,5-4.3c0.2-0.1,0.5-0.2,0.7-0.2c0.3-0.1,0.1-0.5-0.1-0.4c-2.2,0.5-4,2.1-5.4,3.9
								c-1.8,2.2-3,4.9-3.8,7.6c-0.9,3.1-1.3,6.4-1.2,9.7c0.1,2.8,0.7,5.7,1.9,8.3c0.9,1.9,2.4,3.8,4.4,4.7c0.2,0.1,0.5,0.2,0.7,0.3
								C197.5,182.2,197.6,181.8,197.3,181.7L197.3,181.7z"/>
						</g>
					</g>
					<g>
						<path class="st2" d="M143.2,196.4c-1,10.9-7.2,19.8-13.8,19.9c-0.1,0-0.1,0-0.2,0v0l-11.7-0.2v0c-1.9,0-3.7-0.7-5.2-2.1
							c1.2-0.2,3.7-0.7,5-1.2c0,0-3.3-13.9,0.8-25.6c2.2-6.4,5.7-9.4,8.7-10.5l6.3,0.1c0,0,0.1,0,0.1,0l0,0
							C139.7,177.1,144.1,185.7,143.2,196.4z"/>
						
							<ellipse transform="matrix(0.1481 -0.989 0.989 0.1481 -82.7581 297.1183)" class="st0" cx="131.1" cy="196.6" rx="16.8" ry="9.1"/>
						<g>
							<path class="st2" d="M135.4,184.2c-0.9-0.5-2-0.4-3-0.1c-1,0.4-1.8,1.1-2.5,1.9c-0.7,0.8-1.3,1.8-1.8,2.7c-0.5,1-1,2-1.3,3
								c-0.7,2.1-1.2,4.2-1.3,6.4c-0.1,2,0.1,4.1,0.7,6.1c0.5,1.8,1.5,3.5,3,4.7c0.2,0.1,0.4,0.3,0.6,0.4c0.2,0.1,0.4-0.2,0.2-0.4
								c-1.5-1-2.6-2.6-3.2-4.2c-0.7-1.8-0.9-3.8-0.9-5.7c0-2.1,0.3-4.2,1-6.2c0.6-2,1.5-3.9,2.7-5.6c1.1-1.6,2.8-3.3,4.9-2.8
								c0.2,0,0.5,0.1,0.7,0.2C135.4,184.7,135.6,184.3,135.4,184.2L135.4,184.2z"/>
						</g>
						<g>
							<path class="st8" d="M127.2,215.8c-2.4-0.7-4.2-2.5-5.4-4.6c-1.6-2.7-2.4-5.8-2.6-8.9c-0.3-3.7,0-7.4,1-10.9
								c0.8-3.2,2.2-6.3,4.1-8.9c1.5-2.1,3.6-4,6.1-4.9c0.3-0.1,0.6-0.2,0.8-0.2c0.3-0.1,0.2-0.5-0.1-0.4c-2.6,0.6-4.8,2.4-6.5,4.4
								c-2.1,2.5-3.6,5.6-4.5,8.7c-1.1,3.6-1.6,7.4-1.4,11.1c0.2,3.3,0.8,6.6,2.3,9.5c1.2,2.3,2.9,4.3,5.3,5.3
								c0.3,0.1,0.5,0.2,0.8,0.3C127.4,216.3,127.5,215.9,127.2,215.8L127.2,215.8z"/>
						</g>
					</g>
					<path class="st9" d="M149.1,125C149.1,125,149.1,125,149.1,125c-0.4-1.1-1.4-1.9-2.4-2.1c-7.4-1.7-13.3-2.7-19.1-3.1
						c-7.9-0.6-15.9-1.3-23.8-0.2c-2.9,0.4-5.7,1.4-8.2,2.8c-2.7,1.5-5.2,3.3-7.6,5.1c-2.5,1.8-5,3.7-7.5,5.7
						c-2.8,2.2-5.9,4.3-8.1,7.2c-2.4,3,4.4,3.5,6.2,3.9c5.2,1.1,38.1,4.7,46.7,5.6c7.2,0.7,10.1,1.7,14.4-5.2
						c0.8-1.3,1.6-2.5,2.4-3.8c1.6-2.6,3.1-5.2,4.4-7.9C147.4,130.9,149.8,127.2,149.1,125z"/>
					<path class="st9" d="M201.9,130.3c-0.1-0.8-0.7-1.7-1.2-2.3c-1-1.3-3.1-3.3-4.1-4.2c-2.9-2.5-5.3-4.3-9-5.3
						c-4.1-1.1-9.1,0.1-13.1,1.2c-4.2,1.1-8.3,2.2-12.4,3.6c-1,0.4-2.1,0.7-3.1,1.1c-0.9,0.3-1.8,0.7-2.6,1.1
						c-1.7,1-2.5,2.6-3.3,4.3c-1,2.1-6,11.8-7.4,14.5c-0.7,1.3-1.6,3.3-1,4.7c1.2,2.9,7.3,0,9.3-0.6c3.7-1.2,7.4-2.5,11.1-3.7
						c4.2-1.4,8.3-2.8,12.5-4.2c4.2-1.4,8.3-2.9,12.5-4.3c3.6-1.3,7.3-2.5,10.8-3.9C201.8,132,202,131.2,201.9,130.3z"/>
					<path class="st10" d="M147.7,126.9c-4.2,1.2-8.4,2.5-12.6,3.7c-2,0.6-4.1,1.2-6.1,1.8c-1.1-0.1-2.1-0.2-3.2-0.3
						c-1.1-0.1-2.7-0.2-4.3-0.1c0.7-3.1,1.4-6.3,2-9.4c0.2-1,0.4-2.1,0.7-3.1c-0.9-0.1-1.9-0.1-2.8-0.2c-0.8,2.2-1.6,4.4-2.4,6.6
						c-0.8,2.3-1.6,4.6-2.4,6.8c-2.2,0.9-3.7,2.7-4.9,4.9c-0.6,0.2-1.2,0.4-1.8,0.6c-2.8,0.9-5.7,1.7-8.5,2.6
						c-0.7,0-1.4-0.1-2.1-0.1c-4.9-0.3-9.7-0.6-14.6-0.7c-4.1-0.1-8.4,0-12.1,1.8c-0.1,0.1-0.4,0.2-0.7,0.3c0.9,1.5,5.2,1.8,6.5,2.1
						c3.6,0.7,20.4,2.7,33.2,4.2c0.1,0,0.2,0,0.3,0c0,0,0,0,0,0c5.7,0.6,10.5,1.2,13.2,1.4c0.2,0,0.3,0,0.5,0.1c0,0,0.1,0,0.1,0
						c0.1,0,0.3,0,0.4,0c1.6,0.2,3,0.3,4.3,0.4c0,0,0,0,0,0c0.3,0,0.5,0,0.8,0c0,0,0,0,0,0c0.1,0,0.2,0,0.4,0c0,0,0,0,0,0
						c0.2,0,0.5,0,0.7,0c0,0,0,0,0,0c0.1,0,0.2,0,0.3,0c0,0,0,0,0,0c0.2,0,0.4-0.1,0.6-0.1c0,0,0,0,0,0c0.1,0,0.2,0,0.3-0.1
						c0,0,0,0,0.1,0c0.1,0,0.2-0.1,0.3-0.1c0,0,0,0,0,0c0.1,0,0.2-0.1,0.3-0.1c0,0,0,0,0,0c0.1,0,0.2-0.1,0.3-0.1c0,0,0,0,0.1,0
						c0.1,0,0.2-0.1,0.3-0.1c0,0,0,0,0,0c0.1,0,0.2-0.1,0.3-0.1c0,0,0,0,0.1,0c0.1-0.1,0.2-0.1,0.3-0.2c0,0,0,0,0.1,0
						c0.1-0.1,0.2-0.1,0.3-0.2c0,0,0,0,0,0c0.1-0.1,0.2-0.1,0.2-0.2c0,0,0,0,0.1,0c0.1-0.1,0.2-0.1,0.3-0.2c0,0,0,0,0.1-0.1
						c0.1-0.1,0.2-0.2,0.3-0.2c0,0,0,0,0,0c0.1-0.1,0.2-0.2,0.2-0.2c0,0,0,0,0.1-0.1c0.1-0.1,0.2-0.2,0.3-0.3c0,0,0,0,0,0
						c0,0,0,0,0,0c0.7-0.8,1.3-1.7,2.1-2.8c0.8-1.3,1.6-2.5,2.4-3.8c1.6-2.6,3.1-5.2,4.4-7.9c0.8-1.6,2.5-4.2,2.8-6.4
						C148.7,126.6,148.2,126.8,147.7,126.9z"/>
					<path class="st10" d="M200.9,132.4c-3.6,1.4-7.2,2.7-10.8,3.9c-1,0.4-2.1,0.7-3.1,1.1c-3.1,1.1-6.2,2.2-9.4,3.2
						c-3.1,1.1-6.2,2.1-9.4,3.1c-1,0.3-2.1,0.7-3.1,1c-0.5,0.2-0.9,0.3-1.4,0.5c-1.9,0.6-3.7,1.2-5.6,1.9c-0.3,0.1-0.7,0.2-1,0.3
						c-0.2,0.1-0.4,0.1-0.6,0.2c-0.4,0.1-0.8,0.3-1.2,0.4c-0.5,0.2-0.9,0.3-1.4,0.4c-0.1,0-0.2,0.1-0.3,0.1
						c-0.1,0.1-0.3,0.1-0.5,0.2c-0.2,0.1-0.5,0.2-0.8,0.3c-0.1,0-0.1,0.1-0.2,0.1c-0.1,0.1-0.3,0.1-0.4,0.2
						c-0.3,0.1-0.6,0.2-0.9,0.3c-0.2,0.1-0.3,0.1-0.5,0.2c-1.2,0.4-2.5,0.7-3.5,0.6c-0.1,0-0.1,0-0.2,0c-0.1,0-0.3,0-0.4,0
						c-0.1,0-0.2,0-0.3-0.1c0,0-0.1,0-0.1,0c-0.1,0-0.2-0.1-0.2-0.1c0,0-0.1,0-0.1,0c-0.2-0.1-0.4-0.2-0.6-0.4
						c-0.2-0.2-0.3-0.4-0.4-0.6c-0.3-0.6-0.2-1.4,0-2.1c0-0.2,0.1-0.3,0.1-0.5c0-0.1,0.1-0.2,0.1-0.4c0-0.1,0.1-0.2,0.1-0.2
						c0,0,0,0,0,0c0.1-0.2,0.1-0.3,0.2-0.5c0.1-0.2,0.2-0.4,0.3-0.5c0,0,0,0,0,0c0.1-0.2,0.2-0.3,0.2-0.5c0,0,0-0.1,0.1-0.1
						c0-0.1,0.1-0.2,0.1-0.2c0,0,0,0,0-0.1c0.1-0.3,0.3-0.6,0.5-0.9c0.3-0.5,0.5-1,0.8-1.6c0.1-0.1,0.1-0.2,0.2-0.3
						c0.4-0.7,0.8-1.5,1.1-2.2c0.2-0.5,0.5-0.9,0.7-1.4c0.1-0.2,0.2-0.4,0.3-0.6c0.1-0.1,0.1-0.2,0.2-0.4c0-0.1,0.1-0.2,0.1-0.3
						c0.1-0.2,0.2-0.3,0.3-0.5c0,0,0,0,0,0c0.2-0.4,0.4-0.9,0.7-1.3h0c0.1-0.1,0.1-0.3,0.2-0.4c0.1-0.1,0.1-0.3,0.2-0.4
						c0-0.1,0.1-0.1,0.1-0.2c0.2-0.3,0.3-0.6,0.4-0.9c0.2-0.4,0.4-0.8,0.6-1.1c0.2-0.4,0.4-0.8,0.6-1.1c0,0,0,0,0,0
						c0.1-0.2,0.2-0.3,0.2-0.5c0.4-0.8,0.8-1.7,1.3-2.4c0.1-0.2,0.3-0.4,0.4-0.5c0.1-0.1,0.1-0.2,0.2-0.3c0,0,0,0,0,0
						c0,0,0.1-0.1,0.1-0.1c0.2-0.2,0.4-0.4,0.6-0.6c0.2-0.1,0.4-0.3,0.6-0.4c0.2-0.1,0.4-0.2,0.6-0.3c0.3-0.2,0.7-0.3,1-0.4
						c0.3-0.1,0.7-0.3,1-0.4c0.1,0,0.1-0.1,0.2-0.1c0.9-0.3,1.8-0.7,2.7-1c0.1,0,0.1,0,0.2-0.1c0.3-0.1,0.5-0.2,0.8-0.3
						c0.3-0.1,0.5-0.2,0.8-0.3c0.3-0.1,0.6-0.2,0.8-0.3h0l34.8,3.8c0,0,0,0,0,0c0.6,0.6,1.1,1.2,1.5,1.7c0.5,0.7,1.1,1.5,1.2,2.3
						C202,131.2,201.8,132,200.9,132.4z"/>
					<path class="st0" d="M196,128.8c-0.8-2.5-1.7-5-2.8-7.4c-0.1-0.2-0.1-0.3-0.2-0.5c-0.7-0.5-1.5-0.9-2.3-1.3c0,0,2.2,4.7,2.9,7
						c1.1,3.6,2.2,7.6,2.2,7.6c0.5-0.2,1.1-0.4,1.6-0.6C197,132.1,196.5,130.4,196,128.8z"/>
					<path class="st0" d="M172.7,120.1l-1.2,22.5c0,0,3.1-1,3.2-1.1c0.1,0-0.1-21.9-0.1-21.9L172.7,120.1z"/>
					<g>
						<path class="st2" d="M101.8,141.1c2.5,0.2,4.9,0.4,7.4,0.6c2.5,0.2,4.9,0.4,7.4,0.6c2.5,0.2,4.9,0.4,7.4,0.6
							c2.4,0.2,4.8,0.3,7.1,0.8c2,0.4,3.9,1.3,5.4,2.7c0.2,0.2,0.3,0.4,0.5,0.5c0.2,0.2,0.5-0.1,0.3-0.3c-1.3-1.5-3.1-2.5-5.1-3.1
							c-2.3-0.7-4.7-0.8-7.1-1c-2.5-0.2-5-0.4-7.5-0.6c-2.5-0.2-5-0.4-7.5-0.6c-2.5-0.2-5-0.4-7.5-0.6c-0.3,0-0.6,0-0.9-0.1
							C101.5,140.6,101.5,141,101.8,141.1L101.8,141.1z"/>
					</g>
					<g>
						<path class="st2" d="M121.7,142.4c1.3-1.9,3.4-3.2,5.7-3.4c2.4-0.2,4.8,0.8,6.4,2.7c0.8,1,1.4,2.3,1.6,3.5
							c0,0.3,0.4,0.2,0.4-0.1c-0.4-2.5-2.1-4.7-4.3-5.8c-2.3-1.1-5-1.1-7.2,0.1c-1.2,0.6-2.2,1.6-3,2.7
							C121.1,142.4,121.5,142.6,121.7,142.4L121.7,142.4z"/>
					</g>
					<g>
						<path class="st2" d="M124.3,142.7c0.9-1,2.2-1.6,3.6-1.7c1.3-0.1,2.5,0.3,3.5,1.1c0.6,0.5,1,1.1,1.3,1.8
							c0.1,0.2,0.5,0,0.4-0.2c-0.6-1.3-1.7-2.4-3-2.9c-1.3-0.5-2.8-0.4-4,0.1c-0.8,0.3-1.5,0.8-2.1,1.5
							C123.8,142.6,124.1,142.9,124.3,142.7L124.3,142.7z"/>
					</g>
					<g>
						<path class="st2" d="M191.8,120.4c1.5,2.9,2.6,6,3.6,9.1c1,3.2,1.7,6.5,2.2,9.8c0.4,2,0.7,4,0.9,6.1c0,0.3,0.4,0.2,0.4-0.1
							c-0.5-3.5-1.1-7.1-1.8-10.6c-0.7-3.2-1.6-6.4-2.8-9.5c-0.7-1.7-1.4-3.4-2.2-5.1C192,120,191.7,120.2,191.8,120.4L191.8,120.4z
							"/>
					</g>
					<g>
						<path class="st2" d="M143.2,158.4c0.5-1.6,0.9-3.2,1.3-4.8c0.1-0.3-0.3-0.4-0.4-0.1c-0.7,2.9-1.6,5.7-2.5,8.5
							c-0.9,2.8-1.8,5.6-2.8,8.3c-0.5,1.4-1,2.9-1.5,4.3c-0.1,0.3,0.3,0.4,0.4,0.1l0,0c0.9-2.6,1.8-5.3,2.7-7.9"/>
					</g>
					<g>
						<path class="st2" d="M141.2,197.1c3.1-1.5,6.2-2.9,9.3-4.4c3.3-1.6,6.5-3.2,9.8-4.8c3.3-1.6,6.6-3.3,9.9-5
							c3.2-1.6,6.5-3.3,9.7-5c3.1-1.6,6.1-3.2,9.2-4.9c0.4-0.2,0.7-0.4,1.1-0.6c0.2-0.1,0-0.5-0.2-0.4c-3,1.6-6.1,3.2-9.1,4.8
							c-3.2,1.7-6.4,3.3-9.7,5c-3.3,1.7-6.6,3.3-9.9,5c-3.3,1.6-6.5,3.2-9.8,4.8c-3.1,1.5-6.3,3-9.4,4.5c-0.4,0.2-0.7,0.4-1.1,0.5
							C140.7,196.9,140.9,197.2,141.2,197.1L141.2,197.1z"/>
					</g>
					<g>
						<path class="st2" d="M173,142c-0.2,5.2-0.4,10.5-0.6,15.7c-0.2,5.2-0.5,10.4-0.8,15.6c-0.2,2.9-0.3,5.8-0.5,8.8
							c0,0.3,0.4,0.3,0.4,0c0.3-5.2,0.6-10.5,0.9-15.7c0.3-5.2,0.5-10.4,0.7-15.6c0.1-2.9,0.2-5.9,0.3-8.8
							C173.4,141.7,173,141.7,173,142L173,142z"/>
					</g>
					<g>
						<path class="st2" d="M173.5,120.1c0,2.9-0.1,5.7-0.2,8.6c-0.1,2.8-0.1,5.7-0.2,8.5c0,1.6-0.1,3.2-0.1,4.8c0,0.3,0.4,0.3,0.4,0
							c0.1-2.8,0.2-5.7,0.2-8.6c0.1-2.8,0.1-5.7,0.2-8.5c0-1.6,0.1-3.2,0.1-4.8C174,119.8,173.5,119.8,173.5,120.1L173.5,120.1z"/>
					</g>
					<g>
						<path class="st2" d="M209.3,161.9c1.8-0.9,3.6-1.9,5.3-3c2-1.2,3.9-2.4,5.8-3.6c0.9-0.6,1.8-1.2,2.6-1.8
							c0.2-0.2,0-0.5-0.2-0.4c-1.7,1.2-3.4,2.3-5.1,3.4c-1.9,1.2-3.9,2.4-5.9,3.5c-0.9,0.5-1.9,1-2.8,1.5
							C208.9,161.7,209.1,162.1,209.3,161.9L209.3,161.9z"/>
					</g>
					<g>
						<path class="st2" d="M114.2,175.9c2.8-1.5,5.5-3.1,8.2-4.8c2.7-1.7,5.3-3.4,7.8-5.2c1.4-1,2.9-2.1,4.3-3.2
							c0.1-0.1,0.1-0.2,0.1-0.3c-0.1-0.1-0.2-0.1-0.3-0.1c-2.5,1.9-5.1,3.8-7.7,5.5c-2.6,1.8-5.2,3.4-7.9,5
							c-1.5,0.9-3.1,1.8-4.6,2.6C113.7,175.6,114,176,114.2,175.9L114.2,175.9z"/>
					</g>
					<g>
						<path class="st2" d="M33.5,172.5c3.1,1.4,6.2,2.6,9.4,3.6c3.2,1.1,6.4,2,9.7,2.7c3.3,0.8,6.6,1.4,10,1.9
							c3.3,0.5,6.7,0.8,10,0.9c3.4,0.2,6.8,0.2,10.2,0c0.4,0,0.8,0,1.3-0.1c0.3,0,0.3-0.4,0-0.4c-3.3,0.2-6.7,0.2-10.1,0.1
							c-3.4-0.1-6.7-0.4-10-0.8c-3.3-0.4-6.7-1-9.9-1.7c-3.3-0.7-6.5-1.6-9.7-2.6c-3.2-1-6.4-2.2-9.5-3.5c-0.4-0.2-0.8-0.3-1.1-0.5
							C33.4,172.1,33.2,172.4,33.5,172.5L33.5,172.5z"/>
					</g>
					<path class="st2" d="M78.8,212.1c1.1,0.1,1.9-1,1.3-2c-1.7-3.1-4.9-5.3-8.3-6.6c-4.1-1.6-26.3-6.2-33-7.4
						c-2.3-0.4-4.7-0.7-7-0.1c-1.7,0.4-3.4,1.5-4.3,3c-0.5,0.7-0.1,1.7,0.7,2C44.8,206,61.5,209.8,78.8,212.1z"/>
					<path class="st0" d="M109.4,174.1c-0.2-0.5-0.7-1-1.6-1.4c-0.8-0.4-1.7-0.4-2.6-0.4c-5.8,0.1-11.3,1.5-16.5,4.1
						c-3.6,1.8-7.4,3.7-10.6,6.2c-0.6,0.4-1.1,0.9-1.6,1.5c-0.8,1-1.3,2.5-0.3,3.5c0.9,1,2.6,1,3.8,0.9c6-0.4,12.1-2.8,17.6-5.3
						C99.3,182.4,110.8,177.3,109.4,174.1z"/>
					<path class="st0" d="M35.8,175.8c-0.2-0.9-0.6-1.8-1-2.7c-0.4-0.8-0.8-1.7-1.3-2.5c-1-1.8-4.2-6.9-7.2-9.8
						c-1.6,1.4-3.1,3-4.4,4.8c1,2.2,2.2,4.2,2.7,5c1.8,2.8,4.9,6.5,8.2,7.6c0.4,0.1,0.9,0.2,1.3,0.2c0.4,0,0.9,0,1.2-0.3
						c0.3-0.3,0.4-0.7,0.5-1C35.9,176.7,35.9,176.3,35.8,175.8z"/>
					<g>
						<path class="st2" d="M112.5,208.9c-0.3-2.6-0.4-5.2-0.3-7.8c0.1-2.6,0.3-5.2,0.7-7.7c0.4-2.2,0.9-4.4,1.7-6.5
							c0.9-2.3,2.1-4.4,3.6-6.4c1.5-1.9,3.2-3.6,5.2-4.8c2-1.2,4.2-2,6.6-2.2c2.3-0.2,4.6,0.1,6.7,1.1c2.2,1,4,2.8,5.3,4.8
							c1.3,2.1,2.1,4.4,2.5,6.8c0.4,2.3,0.6,4.7,0.6,7.1c0,0.5,0,1-0.1,1.5c0,0.3,0.4,0.3,0.4,0c0.2-2.3,0-4.7-0.3-7
							c-0.1-1.1-0.3-2.2-0.6-3.3c-0.3-1.2-0.8-2.4-1.3-3.6c-1.1-2.3-2.7-4.4-4.8-5.8c-2-1.3-4.3-1.9-6.6-2c-2.4-0.1-4.7,0.4-6.9,1.4
							c-2.2,1-4.1,2.5-5.7,4.3c-1.7,1.8-3.1,3.9-4.1,6.2c-1,2.1-1.8,4.3-2.2,6.5c-0.5,2.5-0.8,5-1,7.6c-0.2,2.7-0.2,5.4,0,8
							c0,0.6,0.1,1.2,0.2,1.9C112.1,209.2,112.5,209.2,112.5,208.9L112.5,208.9z"/>
					</g>
					<g>
						<path class="st2" d="M186.1,174.6c-0.2-1.9-0.2-3.8-0.2-5.7c0.1-2,0.2-3.9,0.5-5.8c0.2-1.7,0.6-3.4,1.1-5.1
							c0.5-1.7,1.2-3.4,2.1-4.9c0.9-1.6,2.1-3.1,3.5-4.4c1.3-1.2,2.9-2.2,4.6-2.7c1.7-0.5,3.5-0.7,5.2-0.3c1.7,0.3,3.4,1.1,4.6,2.4
							c1.4,1.4,2.4,3.2,3,5.1c0.6,1.9,0.9,3.8,1,5.8c0,0.5,0.1,1,0.1,1.5c0,0.3,0.4,0.3,0.4,0c-0.1-2.1-0.2-4.2-0.7-6.1
							c-0.5-1.9-1.3-3.8-2.5-5.4c-1.1-1.5-2.7-2.6-4.4-3.2c-1.7-0.6-3.5-0.7-5.3-0.4c-1.8,0.3-3.5,1.1-5,2.1c-1.5,1.1-2.8,2.5-3.9,4
							c-1.1,1.6-2,3.3-2.7,5.2c-0.6,1.6-1,3.2-1.3,4.9c-0.3,1.9-0.6,3.9-0.7,5.9c-0.1,2-0.1,4,0,6c0,0.5,0.1,0.9,0.1,1.4
							C185.7,174.8,186.1,174.8,186.1,174.6L186.1,174.6z"/>
					</g>
					<g>
						<path class="st2" d="M91.2,210.4c1.5,0,3,0.1,4.5,0c1.7,0,3.5-0.1,5.2-0.1c1.8-0.1,3.6-0.2,5.4-0.4c1.7-0.2,3.4-0.4,5.2-0.7
							c1.5-0.3,3-0.6,4.4-1c0.2-0.1,0.3-0.1,0.5-0.2c0.3-0.1,0.1-0.5-0.1-0.4c-1.4,0.5-2.8,0.8-4.3,1.1c-1.7,0.3-3.3,0.5-5,0.7
							c-1.8,0.2-3.6,0.3-5.4,0.4c-1.7,0.1-3.5,0.1-5.2,0.2c-1.5,0-3.1,0-4.6,0c-0.2,0-0.3,0-0.5,0C90.9,210,90.9,210.4,91.2,210.4
							L91.2,210.4z"/>
					</g>
				</g>
				<g>
					<path class="st2" d="M62.9,143.1c2.1-0.7,4-1.6,5.8-3c0.5-0.4,1-0.8,1.5-1.3c0.2-0.2-0.1-0.5-0.3-0.3c-0.8,0.7-1.6,1.4-2.6,2
						c-0.9,0.6-1.8,1-2.7,1.4c-0.6,0.2-1.2,0.5-1.8,0.7C62.6,142.8,62.7,143.2,62.9,143.1L62.9,143.1z"/>
				</g>
				<g>
					<path class="st11" d="M168.1,167.8c0.1,5.6-4.1,11.8-9.5,13.8c-5.5,2-10-1.2-10-7c0-5.8,4.4-11.9,9.8-13.7
						C163.7,159.1,168,162.2,168.1,167.8z"/>
					<path class="st6" d="M164.1,166.5c-0.3,0.1-2.9,1.9-3.4,2.3c0,0,2-5.1,2.2-5.7c0-0.1,0.1-0.3,0.1-0.4c0-0.1,0.1-0.2,0.1-0.3
						c0-0.2-0.2-0.3-0.4-0.2c-0.1,0-0.2,0.1-0.3,0.1c-0.1,0.1-0.3,0.1-0.4,0.2c-0.3,0.1-0.5,0.3-0.8,0.4c-0.5,0.3-1,0.6-1.5,0.9
						c-1,0.6-2.1,1.2-3.1,1.8c-0.2,0.1-0.5,0.3-0.7,0.4c-0.2,0.2-0.4,0.4-0.5,0.6c-0.1,0.3-3.7,8.2-3.8,8.5c-0.1,0.5-0.2,1,0.1,1.1
						c0.4,0.1,0.9-0.1,1.4-0.4c0.9-0.5,5.4-4.1,5.4-4.1c-0.4,1.1-0.8,2.1-1.2,3.2c-0.5,1.3-0.9,2.5-1.3,3.8
						c-0.1,0.4-0.2,0.7-0.3,1.1c-0.1,0.2-0.1,0.4-0.2,0.5c0,0.2-0.1,0.3,0,0.4c0,0,0.1,0,0.1,0c0.3-0.2,0.5-0.5,0.7-0.7
						c0.2-0.3,0.4-0.6,0.6-0.9c0.4-0.6,0.9-1.3,1.3-1.9c0.8-1.3,1.6-2.6,2.4-3.8c0.8-1.3,1.6-2.6,2.3-3.8c0.4-0.6,0.7-1.2,1.1-1.9
						c0.1-0.2,0.2-0.3,0.2-0.5c0.1-0.1,0.1-0.3,0.1-0.4C164.6,166.5,164.3,166.4,164.1,166.5z"/>
					<g>
						<path class="st6" d="M167.7,165.6c0.3,1.2,0.4,2.6,0.2,4.1c-0.2,1.2-0.5,2.4-1,3.6c-0.5,1.2-1.2,2.3-1.9,3.3
							c-0.8,1-1.7,2-2.7,2.8c-1,0.8-2.1,1.5-3.2,1.9c-1.1,0.5-2.3,0.7-3.4,0.8c-1.1,0-2.1-0.1-3-0.5c-0.9-0.4-1.7-0.9-2.3-1.7
							c-0.6-0.7-1.1-1.7-1.4-2.7c-0.3-1.2-0.4-2.5-0.3-3.8c0-0.4,0.1-0.8,0.2-1.3c0-0.1-0.2-0.1-0.2,0c-0.3,1.5-0.3,3-0.1,4.4
							c0.2,1.1,0.6,2.1,1.2,3c0.6,0.8,1.3,1.5,2.2,2c0.9,0.5,1.8,0.8,2.9,0.8c1.1,0.1,2.2-0.1,3.4-0.5c1.2-0.4,2.3-1,3.4-1.7
							c1-0.7,2-1.6,2.9-2.7c0.8-1,1.6-2.1,2.2-3.3c0.6-1.2,1-2.4,1.3-3.6c0.3-1.4,0.4-2.7,0.2-4c-0.1-0.4-0.1-0.7-0.2-1.1
							C167.8,165.4,167.7,165.5,167.7,165.6L167.7,165.6z"/>
					</g>
				</g>
			</g>
			<g>
				<path class="st12" d="M182.8,137.8c-0.2-0.6-0.4-1.1-0.7-1.6c-0.7-1.3-1.6-2.5-2.7-3.5c-1.2-1-2.7-1.7-4.2-2
					c-1.7-0.3-3.6-0.3-5.3-0.3c-1.9,0-3.8,0.2-5.7,0.4c-2.7,0.3-5.9,0.3-8.4,1.6c-2.1,1.2-4,2.6-5.7,4.2c-2.4,2.1-4.5,4.4-6.5,6.9
					c0,0,0,0.1,0,0.1c-0.7,1.3-1.7,3.4-1.1,4.9c0.2,0.5,0.5,0.8,0.9,1c0.3,0.1,0.6,0,0.9,0c0.7-0.1,1.3-0.5,1.9-0.7
					c0.7-0.3,1.4-0.5,2.1-0.7c1.4-0.4,2.8-0.8,4.2-1.2c2.6-0.6,5.3-1.2,7.9-1.7c0.2,0,0.5-0.1,0.7-0.1c1.5-0.3,3-0.7,4.5-0.8
					c1.5-0.2,3.1,0,4.6,0.2c0.4,0.1,0.8,0.1,1.1,0.2c1.2,0.5,2.5,1,3.7,1.4c1.3,0.5,2.5,0.9,3.8,1.3c0.6,0.2,1.3,0.4,1.9,0.6
					c0.6,0.2,1.4,0.3,1.4,0.3c0,0,1.7,0.8,2,0.3C184.4,148.3,183.8,140.5,182.8,137.8z"/>
				<path class="st13" d="M166.3,126.7l0.6,4c0,0-2.5,1.4-4.2,0.4l-0.4-2.7C162.4,128.3,164.2,125.6,166.3,126.7z"/>
				<path class="st13" d="M159.5,129.7c0.5,0.2,1.2,0.3,1.8,0.2c2.7-0.3,4.2-2.9,5.7-4.8c0.8-1,0.9-1.9,1.1-2.4c0.2-0.9,0-2.4-1-3
					c-2.8-1.6-4.7-0.9-5.8,0.5c-0.9,1-1.3,2.2-1.8,3.5c-0.5,1.3-0.8,1.9-1.1,3.5C158.1,128.4,158.6,129.3,159.5,129.7z"/>
				<path class="st13" d="M176.2,145.7c-2.3-1.4-4.8-2.5-7.5-3.1c-2.6-0.6-5.3-0.5-7.8,0.3c-1.3,0.5-2.7,1.2-3.5,2.3
					c-0.9,1.2,0.3,1.7,0.4,1.7c0.8,0.1,1.7,0.2,2.5,0.3c0.4,0.1,1.4,0.2,1.5,0.3c0.8,0.9,3.6,3,5.5,4.8c1.7,1.6,3.5,3.1,5.6,4.3
					c1.9,1,4.4,2.2,6.5,1.2c2-0.9,2.7-3.4,2.8-5.3c0.1-1.5,0-3.1-0.1-4.1C182.2,148.3,176.4,145.7,176.2,145.7z"/>
				<g>
					<path class="st2" d="M176,145.9c1.2,0.8,2.1,1.9,2.7,3.1c0.1,0.3,0.5,0,0.4-0.2c-0.7-1.3-1.7-2.5-2.9-3.3
						C176,145.4,175.8,145.8,176,145.9L176,145.9z"/>
				</g>
				<path class="st2" d="M168.5,122.1c0-0.1,0-0.2,0-0.2c0.2-1.8-0.9-3-2.7-3.4c-1.5-0.3-3.1,0.2-4.2,1c-0.8,0.6-1.4,1.5-1.7,2.5
					c0,0.1,0.1,0.2,0.2,0.3c0,0,0.1,0.1,0.2,0.1c1.2,0,2.1-0.8,2.9-1.6c0.1,0.6,0.3,1.2,0.6,1.8c0.5,1,1.5,1.6,2.5,2
					c0.5,0.2,1.1,0.4,1.7,0.6C168.1,125.3,168.4,122.9,168.5,122.1z"/>
				<path class="st13" d="M165.9,124.1c-0.7-0.2-1.3,0.3-1.6,0.9c-0.1,0.3-0.3,0.7-0.3,1.1c-0.1,0-0.1,0.1-0.1,0.2
					c0,0.8,0.8,1.2,1.6,1c0.7-0.2,1.2-0.9,1.3-1.6C166.9,125.1,166.6,124.3,165.9,124.1z"/>
			</g>
			<g>
				<path class="st0" d="M160.4,148c-0.8-2.1-3.5-2.8-5.4-3c-3.3-0.2-7.3,0.3-8.9,2.8c-0.6,1-0.9,2.3,0,3.6c0.8,1,2.1,1.7,3.3,2
					c1.5,0.4,3,0.3,4.3,0C156.3,153,161.7,151.7,160.4,148z"/>
				<g>
					<path class="st2" d="M145.3,148.7c0.1,1.4,0.4,3,1.5,4c0.8,0.7,1.7,0.9,2.7,1.1c0.7,0.1,1.4,0.2,2.1,0.1c1.2,0,2.4-0.3,3.6-0.6
						c1.5-0.4,3.1-0.9,4.3-2c0.5-0.4,0.8-1,1-1.6c0.2-0.8,0-1.6-0.3-2.3c-0.1-0.2-0.3-0.5-0.4-0.7c-0.1-0.2-0.5,0-0.4,0.2
						c0.5,0.7,0.8,1.5,0.7,2.3c-0.1,0.6-0.3,1.1-0.7,1.6c-0.9,1.1-2.4,1.6-3.7,1.9c-1.1,0.3-2.2,0.5-3.3,0.7c-0.9,0.1-1.7,0-2.5-0.1
						c-0.8-0.1-1.7-0.3-2.5-0.8c-1.1-0.7-1.5-2-1.6-3.2c0-0.2,0-0.5-0.1-0.7C145.7,148.5,145.2,148.5,145.3,148.7L145.3,148.7z"/>
				</g>
				<g>
					<path class="st2" d="M145.2,149.5c-0.7,0.1-1.5,0.2-2.1,0.6c-0.5,0.3-1,0.9-1.1,1.5c-0.1,0.6,0.2,1.3,0.7,1.7
						c0.5,0.4,1.3,0.6,1.9,0.4c0.8-0.2,1.4-0.7,1.9-1.3c0.2-0.2-0.2-0.4-0.4-0.2c-0.7,0.9-2,1.5-3,0.8c-0.4-0.3-0.7-0.8-0.7-1.4
						c0.1-0.5,0.5-1,0.9-1.3c0.6-0.4,1.4-0.5,2.1-0.6C145.5,149.8,145.4,149.4,145.2,149.5L145.2,149.5z"/>
				</g>
			</g>
		</g>
	</g>
</g>
</svg>
