<?xml version="1.0" encoding="utf-8"?>
<!-- Generator: $$$/GeneralStr/196=Adobe Illustrator 27.6.0, SVG Export Plug-In . SVG Version: 6.00 Build 0)  -->
<svg version="1.1" id="圖層_1" xmlns="http://www.w3.org/2000/svg" xmlns:xlink="http://www.w3.org/1999/xlink" x="0px" y="0px"
	 viewBox="0 0 240 240" style="enable-background:new 0 0 240 240;" xml:space="preserve">
<style type="text/css">
	.st0{fill:#FFFFFF;}
	.st1{fill:#36855F;}
	.st2{fill:#F9BE33;}
	.st3{fill:#56AB6E;}
	.st4{fill:#1E272E;}
	.st5{fill:#4194D0;}
	.st6{fill:#C8CCDE;}
	.st7{fill:#B35F37;}
	.st8{fill:#FCEAE1;}
	.st9{fill:#73A9FF;}
	.st10{fill:#FB9F9F;}
	.st11{fill:#FF7E19;}
	.st12{fill:#D34646;}
</style>
<g>
	<path class="st0" d="M227.6,165.9c-0.2-0.9-0.6-1.7-1-2.5c-1.6-2.6-4.5-4.3-7.7-4.5c0,0,0,0,0,0c-0.3-1.5-1-2.8-2-4
		c0.3,0,0.5-0.1,0.7-0.2c0.3,0.1,0.6,0.1,0.9,0.1c1.8,0,3.3-0.9,4.1-2.4c0.8-0.3,1.5-0.8,2-1.5c0.9-1.2,1.2-2.7,0.8-4.1
		c0,0-1.6-4.9-3-7c-2-2.8-4.9-3.8-7-4.5c-0.7-0.2-1.4-0.5-1.9-0.7c-0.5-0.3-1.1-0.6-1.6-1c-1-0.8-2-1.9-2.9-3.3
		c-0.2-0.3-0.4-0.6-0.5-0.9c0-0.3-0.1-0.7-0.2-1c0,0-1.8-5-2.9-7.8c-1.1-2.8-2.9-6.9-6.4-10c-0.5-0.5-1.1-0.9-1.6-1.2
		c0.6-1.5,0.7-3.5,0.2-5.9c0-0.1,0-0.2-0.1-0.3c0.6-1.3,0.7-2.8,0.2-4.2c0,0,0-0.1,0-0.1c-0.3-1-0.8-1.9-1.5-2.7
		c-0.9-1-2.1-1.7-3.4-1.8c-1.1-0.6-2.2-0.9-3.4-1c-0.8,0-1.5,0.2-2.2,0.5c-1.3,0-2.4,0.4-3.5,1.2c-1.5,1.1-2.5,2.8-2.6,4.5
		c-0.5,1.3-0.6,2.8-0.2,4.2c-3-0.9-6.2-1.9-7.6-2.6c-0.2-0.2-0.5-0.4-0.7-0.6c-0.9-0.8-1.7-1.9-2.5-3.3c-0.5-0.8-0.9-1.6-1.4-2.4
		c-1-1.8-2-3.6-3.3-5.4c-1.3-2.1-3.7-4.5-4.7-5.4l-0.2-0.2c-1.1-1-2.3-2-3.7-2.4c-0.5-0.2-1.1-0.2-1.6-0.2c-0.8,0-1.6,0.2-2.3,0.5
		c-0.1,0-0.3-0.1-0.4-0.1c0,0,0,0,0,0c0.7-1.1,1.5-2.2,2.3-3.3c1.7-2.4,3.4-4.9,5-7.5c1.7-3,2.8-5.8,3.5-8.6c0.8-3.2,1-6.5,0.6-9.8
		c-0.7-7-3.9-13.6-8.6-18c-4.8-4.5-11.3-6.9-18.2-6.9c-6.9,0-13.4,2.5-18.2,6.9c-4.8,4.4-7.9,11-8.6,18c-0.3,3.3-0.1,6.6,0.6,9.8
		c0.7,2.8,1.8,5.6,3.5,8.6c1.3,2.3,2.8,4.5,4.3,6.6l-7-0.2L85,76.5l-3.1-0.1c-0.1,0-0.1,0-0.2,0c-2.3,0-4.5,1.1-5.9,2.9l-35.4,46.3
		c-0.9,1.1-1.3,2.5-1.1,3.9c-3-2.9-6.7-5.4-10.4-5.4c-2.6,0-4.9,1.2-6.5,3.5c-1.2,1.7-1.7,3.9-1.3,6.3c0.2,1.8,0.8,3.4,1.4,4.9
		c0.6,1.5,1.2,3,1.9,4.4c1.4,2.9,2.9,5.7,4.6,8.4c0.1,0.1,0.1,0.2,0.2,0.3c-1.5-0.2-3.2-0.4-4.8-0.4c-9.4,0-11.6,5.3-12,7.5
		c-1.5,7.5,8,11.8,13.1,14c-1.7,1.1-3,2.4-4.1,4c-2.5,3.8-2.7,8.4-0.4,12c1.9,3,5.3,5.2,9,5.9c1,0.2,2,0.3,3,0.3c0.5,0,1,0,1.5-0.1
		c0.3,1.8,0.8,3.5,1.8,5.1c2,3.5,5,5.5,7.1,6.8c16.1,9.6,35.4,11.3,52.5,12.8l0.8,0.1c7.1,0.6,14.4,1,21.7,1
		c9.8,0,19.7-0.6,29.6-1.7c2.9,0.4,5.9,0.6,9.6,0.6c0.9,0,1.7,0,2.6,0c0.2,0,0.3,0,0.5,0c9.7-1.3,19.6-3.7,29.2-7
		c0.8-0.3,1.7-0.6,2.5-0.9c2.5-0.8,5.1-1.7,7.7-2.9c1.3,0.6,2.5,0.9,3.7,1c0.2,0,0.4,0,0.5,0c1.8,0,3.5-0.6,4.6-1.8
		c0.3-0.3,2.3-2.5,0.9-5.5c1.2-0.9,2.8-2.3,4-4.4c1.1-2,1.6-4.1,1.6-6.2c1.7-0.5,3.2-1.3,4.6-2.3c1.8-1.3,3-2.8,3.8-4.5
		c1.1-2.6,1-5.2-0.5-7.2c-0.5-0.7-1-1.2-1.7-1.7c2.8-1.4,5.2-3.4,6.2-6.2C228,168.8,228,167.3,227.6,165.9z"/>
	<g>
		<g>
			<path class="st1" d="M223.7,167c-0.1-0.5-0.3-1.1-0.6-1.5c-0.9-1.5-2.7-2.5-4.5-2.7c-1.8-0.1-3.6,0.5-5.2,1.5
				c1-1.2,1.7-2.6,1.6-4.1c-0.1-2.2-1.9-3.9-4-4.4c-2.6-0.7-5.4,0.1-7.9,0.9c-2.3,0.8-4.6,1.9-6.7,3.2c-1.1,0.7-2.2,1.5-3.3,2.4
				c0.2-0.4,0.3-0.8,0.3-1.2c0.1-0.8,0-1.7-0.3-2.5c-0.3-0.7-0.8-1.3-1.4-1.7c-1.2-1-2.9-1.4-4.4-1.3c-2,0.2-3.8,1-5.5,2.1
				c-0.3,0.2-0.5,0.3-0.8,0.5c0,0,0-0.1,0-0.1c0.3-1.4,0.2-3.1-0.9-4.2c-0.6-0.6-1.4-0.7-2.2-0.5c-0.8,0.2-1.6,0.5-2.3,0.9
				c-1.4,0.7-2.7,1.7-3.9,2.8c-0.6,0.6-1.1,1.2-1.6,1.8c0.7-1.6,1.2-3.3,1.6-4.9c0.3-1.3,0.6-2.7,0.7-4c0.1-1.2,0.2-2.6-0.6-3.7
				c-0.3-0.4-0.7-0.8-1.3-0.9c-0.6-0.2-1.1-0.1-1.7,0.2c-0.6,0.3-1.1,0.7-1.5,1.1c-0.4,0.4-0.9,0.8-1.3,1.2
				c-1.5,1.6-2.7,3.4-3.6,5.4c-0.2-0.4-0.4-0.8-0.7-1.2c-0.5-0.6-1.4-1-2.2-0.7c-0.8,0.3-1.4,1-1.9,1.7c-1.1,1.6-1.9,3.4-2.3,5.2
				c-0.3,1.2-0.4,2.5-0.4,3.8c-2.1,0.9-4.1,2.2-5.7,3.8c-0.9,0.5-1.8,1-2.7,1.6c-1.4,1.1-2.7,2.3-3.7,3.8c-1.1,1.6-2,3.5-2.1,5.4
				c0,1.7,0.8,3.3,2.1,4.4c4.8,4.2,12.9,1.3,18.3-0.2c2.4-0.7,4.8-1.5,7.2-2.4c1.8,0.5,3.7,0.7,5.6,0.6c0,0,0,0,0,0.1
				c0.5,0.5,1.2,0.8,1.8,0.9c0.9,0.2,1.8,0.3,2.7,0.3c9.5,0.6,20.6-2.1,29.9-4.4c4-1,13.5-2.8,15.1-7.3
				C223.9,168.2,223.9,167.6,223.7,167z"/>
			<path class="st2" d="M159.8,52.8c-0.6-5.7-3-11.4-7.4-15.5c-8.4-7.8-22.6-7.8-31,0c-4.4,4-6.8,9.8-7.4,15.5
				c-0.3,2.8-0.1,5.7,0.5,8.5c0.6,2.6,1.7,5.2,3.1,7.6c2.7,4.7,6.2,8.9,9,13.6c1.4,2.3,2.5,4.7,3.2,7.2c0.2,0.6,0.3,1.3,0.7,1.7
				c0.4,0.5,1.1,0.7,1.7,0.8c1.5,0.2,3,0.3,4.5,0.3c1.5,0,3-0.1,4.5-0.3c0.6-0.1,1.3-0.3,1.7-0.8c0.4-0.5,0.6-1.1,0.7-1.7
				c0.7-2.5,1.9-4.9,3.2-7.2c2.8-4.7,6.3-8.9,9-13.6c1.4-2.4,2.4-4.9,3.1-7.6C159.9,58.5,160.1,55.7,159.8,52.8z"/>
			<g>
				<path class="st3" d="M149.6,51.4c0-0.2,0-0.4,0-0.7c0-0.1-0.2-0.2-0.3-0.1c-1.5,0.8-2.8,1.9-4,3.1c-1.2,1.2-2.2,2.6-3.1,4.1
					c-0.9,1.5-1.6,3.2-2.2,4.8c-0.6,1.9-1,3.9-1.3,5.8c-0.2,1.9-0.3,3.7-0.4,5.6c0.2,0.1,0.5,0.2,0.8,0.3c1.2-0.9,2.3-2,3.4-3.1
					c1.2-1.3,2.3-2.8,3.2-4.3c0.9-1.5,1.7-3.2,2.3-4.9c0.6-1.7,1.1-3.4,1.3-5.2C149.6,55,149.7,53.2,149.6,51.4z"/>
				<path class="st3" d="M124,47.3c0-0.3,0-0.5,0-0.8c0-0.2,0.2-0.3,0.3-0.2c1.9,0.9,3.6,2.1,5.1,3.4c1.5,1.4,2.9,3,4.1,4.7
					c1.2,1.8,2.2,3.7,3.1,5.7c0.9,2.3,1.6,4.6,2.1,7c0.5,2.3,0.7,4.5,0.9,6.8c-0.3,0.2-0.3,0.7-0.9,0.4c-1.6-1-3-2.2-4.4-3.5
					c-1.6-1.5-3-3.2-4.2-5c-1.3-1.8-2.3-3.7-3.2-5.7c-0.9-2-1.6-4.1-2.1-6.2C124.3,51.7,124,49.5,124,47.3z"/>
				<g>
					<path class="st3" d="M138.4,67.5c0.2,1.9,0.4,3.7,0.5,5.6c0.1,1.9,0.1,3.8,0.1,5.6c0,1.9-0.1,3.7-0.3,5.6
						c-0.2,1.9-0.4,3.7-0.6,5.6c-0.3,1.9-0.6,3.7-1,5.6c0,0.2-0.1,0.5-0.1,0.7c0,0.2,1.5,0.3,1.6,0.1c0.4-1.8,0.8-3.7,1.1-5.5
						c0.3-1.9,0.5-3.7,0.7-5.6c0.2-1.9,0.3-3.8,0.3-5.6c0-1.9,0-3.8,0-5.6c-0.1-1.9-0.2-3.8-0.4-5.6c0-0.2-0.1-0.5-0.1-0.7
						C139.9,67.3,138.4,67.3,138.4,67.5L138.4,67.5z"/>
				</g>
			</g>
			<path class="st4" d="M133.4,91c0,0,10.4-0.2,10.9,0.5c0.2,0.4,0.5,14.2,0.6,16.1C144.9,109.1,133.4,91,133.4,91z"/>
			<path class="st5" d="M210.8,190.4c-1.2-4.6-6.5-8.1-9.6-9.6c-11.4-5.6-23.5-8.4-35.6-10.6c-26.3-4.8-54.1-9-80.7-5.5
				c-14.3,1.9-39.7,3.2-46.1,24c-1,3.2-0.9,6.6,0.7,9.4c1.4,2.5,3.6,4.1,5.7,5.4c15.6,9.3,34.7,10.9,51.6,12.4
				c28.2,2.5,56.8,0,84.6-7.1c8.2-2.1,16.9-3.7,24.5-8.7c1.5-1,3-2.1,4-3.9C211.1,194.1,211.2,192.2,210.8,190.4z"/>
			<path class="st3" d="M219.7,180.3c-1.5-2.1-4.5-0.8-6.5-0.5c-0.6,0.1-1.1,0.1-1.7,0.1c0.6-2.7,2-5.2,2.6-7.9
				c0.5-2.3,0.4-5-1.2-6.9c-1.5-1.7-3.8-2.5-6-2.5c-2.9,0-5.7,1.1-8.4,2.1c-2.9,1.1-5.8,2.1-8.7,3.2c-0.3,0.1-0.6,0.2-0.9,0.1
				c-0.2-0.1-0.2-0.3-0.3-0.5c-0.1-0.5,0-1,0.1-1.5c0.1-0.5,0.2-1,0.1-1.5c-0.1-0.5-0.3-1-0.5-1.5c-0.5-0.9-1.4-1.7-2.4-2.2
				c-1.2-0.6-2.5-0.6-3.8-0.5c-1.4,0.2-2.8,0.6-4.1,1.2c-1.1,0.4-2.2,0.9-3.3,1.5c-3.1,1.6-6.1,3.7-8.3,6.4c-1.1,0.1-2.1,0.5-3,1
				c-0.9,0.6-1.6,1.5-1.9,2.5c-0.4,1.2-0.1,2.5,0.4,3.7c1.3,2.6,4,3.9,6.7,4.6c1.6,0.4,3.2,0.7,4.9,1.1c1.7,0.4,3.5,0.8,5.2,1.1
				c7,1.5,13.9,3.1,20.9,4.5c5.8,1.2,12.6,2.2,17.7-1.4c1-0.7,1.9-1.7,2.5-2.8C220.2,182.5,220.4,181.3,219.7,180.3z"/>
			<path class="st6" d="M194.3,193.2c-4.6-1.1-9.3-0.8-13.9,0.2c-4.7,1-9.3,2.6-14,3.7c-4.8,1.1-9.5,1.6-14.3,0.9
				c-2.5-0.3-4.9-0.9-7.3-1.6c-1.9-0.5-4-1-5.6-3c-0.1-0.1-0.2-0.3-0.3-0.4c0.5-0.2,1-0.6,1.5-1.1c0.1-0.1,0-0.4-0.1-0.3
				c-0.5,0.6-1,0.9-1.6,1.1c-0.2-0.3-0.4-0.7-0.6-1.1c-0.1-0.2-0.2,0.1-0.1,0.3c0.2,0.3,0.3,0.6,0.5,0.9c-0.1,0-0.3,0.1-0.4,0.1
				c-0.9,0.2-1.7,0.4-2.6,0.5c-1.8,0.4-3.6,0.7-5.4,1.1c-0.9,0.2-1.8,0.4-2.7,0.5c0-0.1,0-0.1-0.1-0.2c-0.1-0.2-0.2,0-0.2,0.2
				c0,0,0,0,0,0.1c-0.1,0-0.1,0-0.2,0c-0.1,0-0.1,0.4,0,0.4c0.1,0,0.2,0,0.3-0.1c1.7,6,4.5,10.6,7.6,13.7c3.7,3.6,7.9,5.1,12,5.8
				c4.3,0.7,8.6,0.8,13,0.7c9.5-1.3,19-3.6,28.4-6.9c6-2.1,12.4-3.7,17.9-8.7c0.2-0.2,0.4-0.3,0.6-0.5
				C202.7,196.4,198.6,194.3,194.3,193.2z"/>
			<path class="st1" d="M60.3,178c-0.3-1.8-0.6-3.5-1-5.3c-0.4-1.7-0.8-3.4-1.2-5.1c-0.4-1.5-0.8-3-1.3-4.5
				c-0.9-2.6-1.9-5.4-4.9-6.1c-3.3-5.4-5.6-11.3-9-16.7c-2.2-3.5-12.7-17.2-17.5-10.5c-0.7,1-0.8,2.3-0.6,3.5
				c0.2,1.4,0.6,2.6,1.1,3.9c0.6,1.4,1.2,2.8,1.8,4.2c1.3,2.7,2.8,5.4,4.4,7.9c2.6,4.1,5.7,8,9.2,11.5c-1.9-1.3-4-2.5-6.2-3.4
				c-4-1.6-17.6-4.6-19,2.3c-1,4.9,8.7,8.6,12,10c3.4,1.5,7.1,2.6,10.7,3.2c-2.3,0.2-4.7,0.6-6.9,1.3c-2.8,0.9-5.7,2.3-7.3,4.9
				c-1.5,2.3-1.9,5.3-0.4,7.7c1.4,2.2,3.8,3.6,6.3,4.1c3.4,0.6,6.8-0.2,10-1.3c3.2-1,6.3-2.2,9.4-3.5c3.1-1.4,6.1-2.9,8.9-4.6
				c0.6-0.3,1.2-0.7,1.5-1.3C60.6,179.5,60.4,178.7,60.3,178z"/>
			<g>
				<path class="st4" d="M152.8,170.2c1.7-2.3,4-4.2,6.4-5.6c0.6-0.4,1.3-0.7,1.9-1c0.7-0.3,1.4-0.6,2.2-0.8c0.7-0.1,1.4-0.1,2,0.4
					c0.5,0.4,0.8,0.9,1,1.5c0.5,1.7-0.2,3.4-0.9,4.9c-0.1,0.2,0.2,0.3,0.3,0.2c0.6-0.9,1.4-1.7,2.3-2.4c0.8-0.6,1.8-1.2,2.8-1.5
					c0.5-0.1,0.9-0.1,1.4,0c0.5,0.2,0.8,0.5,1,1c0.2,0.5,0.3,1.1,0.3,1.6c0,0.6,0,1.3,0,1.9c-0.1,1.4-0.4,2.8-0.8,4.1
					c-0.1,0.2,0.2,0.3,0.3,0.2c1.7-1.7,3.6-3.6,6.1-3.9c1.1-0.1,2.3,0,3.2,0.6c1,0.7,1.6,1.8,1.8,2.9c0.3,1.6,0,3.2-0.3,4.7
					c0,0.2,0.3,0.3,0.3,0.1c0.3-1.5,0.6-3,0.4-4.5c-0.2-1.2-0.7-2.4-1.6-3.2c-0.9-0.8-2.1-1.1-3.3-1c-1.2,0-2.4,0.5-3.4,1.1
					c-1.3,0.8-2.4,1.9-3.4,2.9c0.1,0.1,0.2,0.1,0.3,0.2c0.4-1.3,0.7-2.6,0.8-3.9c0.1-0.7,0.1-1.3,0-2c0-0.6-0.1-1.2-0.2-1.7
					c-0.2-0.5-0.5-1-0.9-1.2c-0.4-0.2-0.9-0.3-1.4-0.3c-1.1,0.1-2.1,0.7-3,1.3c-1.1,0.8-2,1.7-2.8,2.8c0.1,0.1,0.2,0.1,0.3,0.2
					c0.6-1.4,1.4-3,1-4.6c-0.2-1.3-1.2-2.5-2.5-2.6c-0.8-0.1-1.7,0.2-2.4,0.5c-0.7,0.3-1.4,0.6-2.1,0.9c-1.3,0.7-2.6,1.5-3.8,2.5
					c-1.3,1.1-2.5,2.3-3.5,3.6C152.4,170.2,152.7,170.4,152.8,170.2L152.8,170.2z"/>
			</g>
			<g>
				<path class="st7" d="M131.9,83.1l33.3,54.7c0.7,1.2-0.3,2.6-1.6,2.4l-55.2-9.9c-0.8-0.2-1.6-0.7-2-1.4L82.3,84.7
					c-1-1.9,0.4-4.2,2.6-4.2l44.7,1.2C130.5,81.7,131.4,82.3,131.9,83.1z"/>
				<polygon class="st8" points="127.2,88.2 86.6,143.9 86.6,133.9 50.2,130.1 50.2,179.8 86.6,194.8 158.9,189.3 158.9,139.3 				
					"/>
				<g>
					<path class="st4" d="M87,187.1c9.3-0.7,18.6-1.4,27.9-2.1c9.4-0.7,18.7-1.4,28.1-2.1c5.2-0.4,10.5-0.8,15.7-1.2
						c0.2,0,0.2-0.3,0-0.3c-9.3,0.7-18.6,1.4-27.9,2.1c-9.4,0.7-18.7,1.4-28.1,2.1c-5.2,0.4-10.5,0.8-15.7,1.2
						C86.8,186.8,86.8,187.1,87,187.1L87,187.1z"/>
				</g>
				<g>
					<path class="st4" d="M87.1,194.2c0-6.9,0-13.8,0-20.7c0-6.9,0-13.8,0-20.6c0-3.9,0-7.8,0-11.6c0-0.2-0.3-0.2-0.3,0
						c0,6.9,0,13.8,0,20.7c0,6.9,0,13.8,0,20.6c0,3.9,0,7.8,0,11.6C86.8,194.4,87.1,194.4,87.1,194.2L87.1,194.2z"/>
				</g>
				<path class="st2" d="M126.4,139.3L126.4,139.3c5.7-0.1,10.4,4.5,10.4,10.2v30.8l-20.3,1.5v-32.3
					C116.5,143.9,120.9,139.4,126.4,139.3z"/>
				<path class="st7" d="M44.3,130.5l47,14.9c0.7,0.2,1.5-0.1,1.9-0.7l36.5-60.5c0.6-1.1-0.1-2.4-1.3-2.5l-46.6-1.3
					c-1.1,0-2.2,0.5-2.8,1.4L43.5,128C42.8,128.9,43.2,130.2,44.3,130.5z"/>
				<g>
					<path class="st4" d="M90.4,144.5c2.4-4.1,4.8-8.2,7.2-12.3c2.4-4.1,4.8-8.2,7.3-12.2c2.4-4.1,4.9-8.1,7.4-12.2
						c2.5-4.1,5-8.1,7.5-12.2c2.5-4,5-8.1,7.5-12.1c0.3-0.5,0.6-1,0.9-1.5c0.1-0.2-0.2-0.3-0.3-0.2c-2.5,4-5,8.1-7.5,12.1
						c-2.5,4-5,8.1-7.4,12.1c-2.5,4.1-4.9,8.1-7.4,12.2c-2.5,4.1-4.9,8.2-7.3,12.3c-2.4,4.1-4.8,8.2-7.2,12.3
						c-0.3,0.5-0.6,1-0.9,1.5C90,144.5,90.3,144.7,90.4,144.5L90.4,144.5z"/>
				</g>
				<path class="st0" d="M152.9,187.9c0-0.2-0.1-0.4-0.2-0.6c-0.2-0.2-0.4-0.3-0.6-0.4c0,0-2.4-0.9-2.9-1.2
					c-0.4-0.2-0.7-0.4-0.9-0.8c-0.2-0.4,0-2.3,0-2.7c0-0.5-0.1-0.8-0.3-0.9c-0.2-0.1-4.5-1.7-4.8-1.8c-0.1,0-0.2-0.1-0.4-0.1
					c-0.1,0-0.3-0.1-0.4-0.1c0,0-0.1,0-0.1,0l-31.5,2.3c-0.2,0-0.4,0.1-0.5,0.4c-0.1,0.3-0.1,0.5-0.1,0.8c-0.1,0.6-0.1,1.1-0.1,1.7
					c-0.1,2.5-0.3,5-0.2,7.5c0,0.9,0.9,1.2,1.6,1.5c0.9,0.4,1.7,0.8,2.6,1.2c2,0.9,4,1.8,6,2.5c0.3,0.1,0.8,0.3,1.1,0.3l31.3-2.7
					l0,0c0,0,0,0,0,0c0.1,0,0.2-0.1,0.2-0.2C152.8,193.5,153,188.5,152.9,187.9z"/>
				<g>
					<path class="st4" d="M110.9,182c1.1,0.4,2.1,0.8,3.2,1.1c0.5,0.2,1,0.3,1.4,0.5c0.2,0.1,0.4,0.2,0.6,0.3
						c0.1,0.1,0.3,0.2,0.4,0.3c0.1,0.1,0.1,0.3,0.1,0.5c0,0.2,0,0.4,0,0.7c0,0.4-0.1,0.7-0.1,1.1c0,0.4,0,0.8,0.1,1.2
						c0.1,0.3,0.2,0.6,0.4,0.8c0.3,0.2,0.7,0.4,1,0.6c0.4,0.1,0.8,0.3,1.2,0.4c0.7,0.2,1.4,0.3,2,0.6c0.1,0,0.2,0.1,0.3,0.2
						c0,0,0,0,0.1,0.1c0,0,0,0,0,0c0,0,0,0,0,0.1c0.1,0.2,0.1,0.4,0.1,0.6c0,0.6,0,1.2,0,1.9c-0.1,1.4-0.2,2.8-0.3,4.2
						c0,0.1,0,0.3,0,0.4c0,0.2,0.3,0.2,0.3,0c0.1-1.4,0.3-2.7,0.4-4.1c0-0.7,0.1-1.3,0.1-2c0-0.2,0-0.5-0.1-0.7
						c0-0.2-0.1-0.4-0.2-0.5c-0.2-0.2-0.5-0.3-0.7-0.4c-0.4-0.1-0.7-0.3-1.1-0.4c-0.7-0.2-1.5-0.4-2.2-0.7c-0.3-0.1-0.6-0.3-0.7-0.6
						c-0.1-0.3-0.2-0.7-0.2-1.1c0-0.4,0-0.7,0-1.1c0-0.4,0.1-0.9,0-1.3c-0.1-0.4-0.3-0.6-0.7-0.8c-0.4-0.2-0.8-0.4-1.2-0.5
						c-1.1-0.4-2.1-0.8-3.2-1.2c-0.3-0.1-0.5-0.2-0.8-0.3C110.8,181.6,110.7,181.9,110.9,182L110.9,182z"/>
				</g>
				<g>
					<path class="st4" d="M117.3,188.6c2.1-0.2,4.2-0.4,6.3-0.5c2.1-0.2,4.1-0.4,6.2-0.5c2.1-0.2,4.1-0.4,6.2-0.5
						c2-0.2,4-0.4,6.1-0.5c2-0.2,3.9-0.3,5.9-0.5c0.2,0,0.5,0,0.7-0.1c0.2,0,0.2-0.3,0-0.3c-2,0.2-3.9,0.3-5.9,0.5
						c-2,0.2-4,0.4-6,0.5c-2.1,0.2-4.1,0.4-6.2,0.5c-2.1,0.2-4.2,0.4-6.2,0.5c-2.1,0.2-4.2,0.4-6.3,0.5c-0.3,0-0.5,0-0.8,0.1
						C117.1,188.3,117.1,188.7,117.3,188.6L117.3,188.6z"/>
				</g>
				<g>
					<path class="st8" d="M124.3,102.8c0,2.2,0,4.3,0,6.5c0,2.2,0,4.3,0,6.5c0,1.2,0,2.4,0,3.7c0,0.2,0.3,0.2,0.3,0
						c0-2.2,0-4.3,0-6.5c0-2.2,0-4.3,0-6.5c0-1.2,0-2.4,0-3.7C124.6,102.6,124.3,102.6,124.3,102.8L124.3,102.8z"/>
				</g>
				<g>
					<path class="st8" d="M118.1,111.3c1.9,0,3.8,0,5.8,0s3.8,0,5.8,0c1.1,0,2.2,0,3.3,0c0.2,0,0.2-0.3,0-0.3c-1.9,0-3.8,0-5.8,0
						c-1.9,0-3.8,0-5.8,0c-1.1,0-2.2,0-3.3,0C117.9,111,117.9,111.3,118.1,111.3L118.1,111.3z"/>
				</g>
				<path class="st4" d="M98.5,145.8l6-0.2c0.3,0,0.5,0.2,0.5,0.5v20.5c0,0.3-0.2,0.5-0.5,0.5l-6,0.3c-0.3,0-0.5-0.2-0.5-0.5v-20.6
					C98,146,98.2,145.8,98.5,145.8z"/>
				<path class="st4" d="M152.2,144.4v19.8c0,0.3-0.2,0.5-0.5,0.5l-6,0.3c-0.3,0-0.5-0.2-0.5-0.5v-19.9c0-0.3,0.2-0.5,0.5-0.5l6-0.2
					C151.9,143.9,152.2,144.1,152.2,144.4z"/>
				<path class="st4" d="M77.8,152.8v20.8c0,0.3-0.3,0.6-0.6,0.4l-19.4-7.4c-0.2-0.1-0.3-0.2-0.3-0.4v-20.5c0-0.3,0.3-0.6,0.6-0.4
					l19.4,7.1C77.7,152.4,77.8,152.6,77.8,152.8z"/>
				<g>
					<path class="st8" d="M66.7,144.8c0,3.9,0,7.7,0,11.6c0,3.8,0,7.7,0,11.5c0,2.2,0,4.3,0,6.5c0,0.2,0.3,0.2,0.3,0
						c0-3.9,0-7.7,0-11.6c0-3.8,0-7.7,0-11.5c0-2.2,0-4.3,0-6.5C67.1,144.6,66.7,144.6,66.7,144.8L66.7,144.8z"/>
				</g>
				<g>
					<path class="st4" d="M127.5,88.3c1.1-2,2.2-4,3.3-5.9c0.1-0.2-0.2-0.3-0.3-0.2c-1.1,2-2.2,4-3.3,5.9
						C127.1,88.3,127.4,88.4,127.5,88.3L127.5,88.3z"/>
				</g>
				<g>
					<path class="st4" d="M87,186.8c-2.4-0.9-4.7-1.8-7.1-2.7c-2.4-0.9-4.7-1.8-7.1-2.7c-2.4-0.9-4.8-1.8-7.1-2.7
						c-2.4-0.9-4.8-1.8-7.2-2.8c-2.4-0.9-4.8-1.8-7.1-2.7c-0.3-0.1-0.6-0.2-0.9-0.3c-0.2-0.1-0.3,0.2-0.1,0.3
						c2.4,0.9,4.7,1.8,7.1,2.7c2.4,0.9,4.8,1.8,7.1,2.7c2.4,0.9,4.8,1.8,7.1,2.7c2.4,0.9,4.8,1.8,7.2,2.7c2.4,0.9,4.7,1.8,7.1,2.7
						c0.3,0.1,0.6,0.2,0.9,0.3C87.1,187.1,87.2,186.8,87,186.8L87,186.8z"/>
				</g>
				<g>
					<path class="st4" d="M116.6,181.5c2.6-0.2,5.2-0.3,7.9-0.5c2.6-0.2,5.2-0.4,7.8-0.5c1.5-0.1,2.9-0.2,4.4-0.3
						c0.2,0,0.2-0.3,0-0.3c-2.6,0.2-5.2,0.3-7.9,0.5c-2.6,0.2-5.2,0.4-7.8,0.5c-1.5,0.1-2.9,0.2-4.4,0.3
						C116.4,181.2,116.4,181.5,116.6,181.5L116.6,181.5z"/>
				</g>
				<path class="st0" d="M77.7,173.3c-0.2-0.1-20-7.2-20.2-7.2c-0.3-0.1-0.5,0.1-0.7,0.4c-0.2,0.2-0.2,0.5,0,0.7
					c0.1,0.1,0.4,0.2,0.5,0.3c0.2,0.1,18,6.8,18.3,6.9c0.4,0.1,0.9,0.4,1.3,0.4c0.6,0,0.9-0.2,1.1-0.8C78,173.8,78,173.5,77.7,173.3
					z"/>
				<path class="st0" d="M106.2,167.1c0-0.3-0.2-0.6-0.6-0.6c0,0-8,0.4-8.1,0.4c-0.3,0-0.5,0.3-0.5,0.6c-0.1,0.3,0,1,0.3,1.1
					c0.1,0.1,0.4,0.1,0.7,0.1c0,0,7.4-0.5,7.8-0.6C106.1,168.1,106.3,167.7,106.2,167.1z"/>
				<path class="st0" d="M153.6,164.4c0-0.3-0.2-0.6-0.6-0.6c0,0-8,0.4-8.1,0.4c-0.3,0-0.5,0.3-0.5,0.6c-0.1,0.3,0,1,0.3,1.1
					c0.1,0.1,0.4,0.1,0.7,0.1c0,0,7.4-0.5,7.8-0.6C153.5,165.4,153.7,165,153.6,164.4z"/>
				<g>
					<path class="st9" d="M81.6,84l36.3,2.5c1.1,0.1,1.8,1.3,1.2,2.3l-28.5,48c-0.4,0.6-1.1,0.9-1.7,0.7L51,127
						c-1-0.3-1.5-1.5-0.8-2.4l30-39.9C80.6,84.2,81.1,84,81.6,84z"/>
					<g>
						<path class="st4" d="M78.5,134.6c1.9-3.1,3.8-6.3,5.7-9.4c1.9-3.2,3.8-6.3,5.7-9.5c1.9-3.2,3.7-6.3,5.6-9.5
							c1.9-3.2,3.7-6.3,5.6-9.5c1.9-3.2,3.7-6.3,5.6-9.5c0.2-0.4,0.5-0.8,0.7-1.2c0.1-0.2-0.2-0.3-0.3-0.2c-1.9,3.2-3.7,6.3-5.5,9.5
							c-1.9,3.2-3.7,6.4-5.6,9.5c-1.9,3.2-3.7,6.3-5.6,9.5c-1.9,3.2-3.8,6.3-5.7,9.5c-1.9,3.2-3.8,6.3-5.7,9.4
							c-0.2,0.4-0.5,0.8-0.7,1.2C78.1,134.7,78.4,134.8,78.5,134.6L78.5,134.6z"/>
					</g>
					<g>
						<path class="st4" d="M62.2,130.1c2-2.9,3.9-5.8,5.8-8.8c1.9-2.9,3.9-5.9,5.8-8.8c1.9-2.9,3.8-5.9,5.7-8.8
							c1.9-2.9,3.8-5.9,5.7-8.8c1.9-3,3.8-5.9,5.7-8.9c0.2-0.4,0.5-0.7,0.7-1.1c0.1-0.2-0.2-0.3-0.3-0.2c-1.9,2.9-3.8,5.9-5.6,8.8
							c-1.9,2.9-3.8,5.9-5.7,8.8c-1.9,2.9-3.8,5.9-5.7,8.8c-1.9,2.9-3.8,5.9-5.8,8.8c-1.9,2.9-3.9,5.9-5.8,8.8
							c-0.2,0.4-0.5,0.7-0.7,1.1C61.8,130.1,62.1,130.3,62.2,130.1L62.2,130.1z"/>
					</g>
					<g>
						<path class="st4" d="M65.6,104.4c5.3,0.8,10.5,1.6,15.8,2.4c5.2,0.8,10.4,1.6,15.7,2.4c2.9,0.5,5.9,0.9,8.8,1.4
							c0.2,0,0.3-0.3,0.1-0.3c-5.3-0.8-10.5-1.6-15.8-2.4c-5.2-0.8-10.4-1.6-15.7-2.4c-2.9-0.5-5.9-0.9-8.8-1.4
							C65.5,104.1,65.4,104.4,65.6,104.4L65.6,104.4z"/>
					</g>
				</g>
			</g>
			<g>
				<path class="st10" d="M221.6,147.8c-0.1-0.3-1.5-4.4-2.5-5.7c-1.7-2.5-4.8-2.7-7.4-3.9c-0.8-0.4-1.6-0.9-2.3-1.5
					c-1.5-1.2-2.7-2.7-3.8-4.3c-0.7-1-1.3-2.1-1.8-3.2c-1.1,0.4-2.2,0.8-3.3,1.3c-1.2,0.5-2.7,1.4-3.8,2c1.2,2.8,3.1,6.1,4.4,7.7
					c2.1,2.5,4.8,4.1,7.8,5.1c1.2,0.4,2.8,0.8,3.9,1c0.5,1,1.1,2.3,1.6,3.2c0.2,0.3,0.4,0.7,0.6,1c0.4,0.4,1,0.5,1.4,0.3
					c0.3-0.1,0.4-0.5,0.4-0.8c0-0.2,0-0.4,0-0.5c0.2,0.4,0.5,0.7,0.8,1c0.2,0.2,1.1,0.5,1.4-0.1c0.2-0.4,0.1-0.9-0.1-1.4
					c-0.2-0.6-1-3-1.1-3.5c0.6,0.7,1.4,2,2,2.5c0.2,0.2,0.4,0.4,0.7,0.5C221.3,148.9,221.8,148.4,221.6,147.8z"/>
				<path class="st10" d="M171.4,109.2c0.5-1.2,1-2.4,1.5-3.6c-1.1-0.6-2.1-1.4-3-2.3c-1.3-1.2-2.3-2.6-3.2-4.1
					c-1.7-2.9-3.1-6-5.3-8.5c-0.2-0.3-0.5-0.5-0.8-0.8c-1.8,0.9-4,1.3-6.1,1.6c0.4,1.3,0.8,2.7,1.3,4c1.6,4.2,3.6,8.4,6.2,12
					c1.2,1.7,2.6,3.2,4.2,4.5c0.9,0.8,1.9,1.4,3,2C169.9,112.4,170.7,110.8,171.4,109.2z"/>
				<path class="st10" d="M155.1,93.2c0.8,0.1,0.2-0.1,1,0.1c2.1-0.3,4.2-0.7,6-1.6c-1-1.6-3.2-3.9-4-4.6c-0.6-0.5-1.6-1.5-2.4-1.7
					c-0.7-0.2-1.5,0-1.4,0.8c0,0.2,0.2,0.6,0.2,0.6c-0.2-0.1-0.4-0.2-0.6-0.3c-0.7-0.3-1.4-0.7-2.1-0.8c-0.6-0.1-1.5-0.1-1.8,0.5
					c-0.1,0.2-0.1,0.4-0.1,0.7c-0.5-0.1-1.1-0.1-1.6,0.2c-0.6,0.4-0.5,1.1-0.1,1.6c0.1,0.1,0.2,0.2,0.3,0.3c-0.4,0-0.8,0.1-1.1,0.3
					c-0.3,0.2-0.5,0.5-0.4,0.9c0,0.4,0.4,0.6,0.7,0.8c1.3,0.8,2.8,1.1,4.2,1.5C152.5,92.4,154.5,92.9,155.1,93.2z"/>
				<path class="st4" d="M180.4,197.8C180.4,197.8,180.4,197.8,180.4,197.8c0-0.1,0-0.2,0-0.3c0-0.3-0.4-0.3-0.4,0c0,0,0,0,0,0.1
					c-0.2-0.1-0.5-0.2-0.7-0.2c-0.4-0.1-0.9-0.2-1.4-0.2c-0.4-0.1-0.9-0.1-1.3-0.1c-0.4,0-0.7,0.1-1,0.3c-0.1,0.1,0,0.3,0.2,0.3
					c0,0-3.7,3.6-3.7,3.6c-0.6,0.7-1.3,1.3-1.9,2c-0.5,0.5-1.4,1.3-0.7,2c0.5,0.5,1.3,0.6,2,0.6c0.8-0.1,1.6-0.3,2.4-0.7
					c1.6-0.7,3-1.6,4.4-2.6c0.4-0.3,0.8-0.6,1.1-0.9c0.2-0.1,0.4-0.3,0.5-0.4c0.2-0.2,0.2-0.4,0.2-0.6c0.1-0.8,0.2-1.7,0.2-2.5
					C180.4,198.1,180.5,197.9,180.4,197.8z"/>
				<path class="st4" d="M194.8,198.1c0.1,0.8,0.1,1.7,0.2,2.5c0,0.2,0.1,0.4,0.2,0.6c0.2,0.2,0.4,0.3,0.5,0.4
					c0.4,0.3,0.8,0.6,1.1,0.9c1.4,1,2.9,1.9,4.4,2.6c0.8,0.3,1.6,0.6,2.4,0.7c0.7,0,1.5-0.1,2-0.6c0.7-0.7-0.2-1.5-0.7-2
					c-0.6-0.7-1.3-1.3-1.9-2c0,0-3.7-3.6-3.7-3.6c0.1,0,0.3-0.2,0.2-0.3c-0.3-0.3-0.6-0.4-1-0.3c-0.4,0-0.9,0.1-1.3,0.1
					c-0.5,0.1-0.9,0.1-1.4,0.2c-0.2,0.1-0.5,0.1-0.7,0.2c0,0,0,0,0-0.1c0-0.3-0.4-0.3-0.4,0c0,0.1,0,0.2,0,0.3c0,0,0,0,0,0
					C194.6,197.9,194.7,198.1,194.8,198.1z"/>
				<path class="st11" d="M205.1,190.7c-1.2-4.7-2.4-9.5-3.6-14.2c-1.2-4.7-2.4-9.5-3.5-14.2c-1.2-4.8-2.3-9.5-3.5-14.3
					c-1.1-4.7-2.3-9.5-3.4-14.2c-0.1-0.2-0.1-0.5-0.2-0.7c0.1,0,0.2,0,0.2-0.1c0.3-0.1,0-0.5-0.2-0.4c0,0-0.1,0-0.1,0
					c0-0.2-0.1-0.4-0.1-0.6c-0.1-0.3-0.5-0.2-0.4,0.1c0,0.2,0.1,0.3,0.1,0.5c-0.4,0-0.9-0.3-1.3-0.4c-0.1,0-0.2,0-0.2-0.1
					c0,0,0-0.1,0-0.1c-0.1,0-0.2,0-0.3,0c-0.4-0.1-0.8-0.1-1.2-0.1c-0.1,0-0.3,0-0.4,0c0,0.1,0,0.2,0,0.3c-0.4,0.1-0.8,0.1-1.2,0.1
					c-0.4,0-0.9,0-1.3-0.1c0.4-0.1,0.8-0.2,1.2-0.2c0.3,0,0.3-0.5,0-0.4c-3.9,0.3-6.9,3.3-8.6,6.6c-1,2-1.5,4.2-2,6.4
					c-0.5,2.4-0.8,4.8-1.1,7.2c-0.7,4.9-1.4,9.8-2,14.8c-0.6,5-1.2,10-1.7,15c-0.5,5-0.9,10-1.3,15c0,0.4-0.1,0.8-0.1,1.3
					c2.7,1.1,5.7,1.7,8.6,1.6c1.6,0,3.3-0.2,4.9-0.7c0.4-4.8,0.9-9.6,1.4-14.3c0.6-5.6,1.3-11.2,2-16.8c0.6,2.8,1.1,5.6,1.7,8.4
					c0.7,3.2,1.3,6.4,2,9.6c0.7,3.2,1.3,6.4,2,9.6c0.2,1.1,0.5,2.3,0.7,3.4c4.8,1,10,0.9,14.6-0.9
					C206.4,195.7,205.7,193.2,205.1,190.7z"/>
				<path class="st3" d="M201.6,122c-1.2-3.1-2.8-6.2-5.3-8.4c-2.5-2.2-5.7-3.1-8.8-3.9c-0.4-0.1-0.8-0.2-1.2-0.2c0,0,0-0.1,0-0.1
					c-0.6-0.1-11.7-3.1-15-4.8c-1,2-1.9,3.6-2.9,5.6c-0.8,1.6-2,3.8-2.8,5.4c1.2,0.7,8.5,4.2,12.1,5.2c-0.3,1.5-3.1,12.7-3.1,12.7
					c9.9,4.5,19.3,3.8,19.3,3.8l0.8-4.4l2.3,4l7.6-7.1C204.5,129.7,202.7,124.8,201.6,122z"/>
				<g>
					<path class="st4" d="M148.6,89c1.5,0.3,3,0.7,4.4,1.3c0.2,0.1,0.3-0.2,0.1-0.3c-1.4-0.6-2.9-1-4.4-1.3
						C148.5,88.7,148.4,89,148.6,89L148.6,89z"/>
				</g>
				<g>
					<path class="st4" d="M149.8,86.9c1.4,0.3,2.8,0.7,4.1,1.2c0.2,0.1,0.3-0.2,0.1-0.3c-1.3-0.5-2.7-0.9-4.1-1.2
						C149.7,86.5,149.6,86.9,149.8,86.9L149.8,86.9z"/>
				</g>
				<g>
					<path class="st4" d="M155.9,90.7c-0.5-0.8-0.5-1.9,0.1-2.7c0.1-0.2-0.2-0.3-0.3-0.2c-0.6,0.9-0.7,2.1-0.1,3.1
						C155.7,91,156,90.8,155.9,90.7L155.9,90.7z"/>
				</g>
				<g>
					<path class="st4" d="M154.5,86.9c0.4,0.4,0.8,0.7,1.2,1c0.1,0.1,0.2,0,0.2-0.1c0-0.1,0-0.2-0.1-0.2c-0.4-0.3-0.8-0.6-1.2-1
						c-0.1-0.1-0.2-0.1-0.2,0C154.4,86.8,154.4,86.9,154.5,86.9L154.5,86.9z"/>
				</g>
				<g>
					<path class="st4" d="M153.2,90.7c0.1-0.9,0.4-1.9,0.8-2.7c0.1-0.2-0.2-0.4-0.3-0.2c-0.5,0.9-0.8,1.9-0.9,2.9
						C152.8,90.9,153.2,90.9,153.2,90.7L153.2,90.7z"/>
				</g>
				<path class="st10" d="M186.2,109.3c0,0,1.4-3.9,1.7-4.8c1.3,0.1,2.3,1.6,3,2.6l-0.9,3.2C188.5,111.6,186.6,110.1,186.2,109.3z"
					/>
				<path class="st10" d="M192.9,101.5c-0.9-1.9-2.8-2.8-4.9-2.1c-2.3,0.8-1.7,3.4-1.7,3.6c0.4,2.1,4.5,7.9,7.1,5.2
					c0.9-0.9,0.4-3.2,0.2-4C193.4,103.4,193.3,102.4,192.9,101.5z"/>
				<path class="st12" d="M193.8,100.1c0-0.1,0-0.2,0-0.3c-0.1-0.4-0.3-0.8-0.6-1.1c-0.3-0.3-0.7-0.5-1.1-0.5
					c-0.2,0-0.3,0.1-0.4,0.2c-0.2-0.2-0.4-0.4-0.7-0.6c-0.5-0.3-1-0.5-1.6-0.5c-0.3,0-0.6,0.1-0.8,0.3c-0.1,0.1-0.2,0.2-0.2,0.4
					c-0.7-0.3-1.6-0.3-2.3,0.2c-0.5,0.4-0.9,1-0.9,1.6c0,0.2,0.1,0.3,0.1,0.4c-0.1,0.1-0.3,0.3-0.3,0.5c-0.5,1-0.2,2.2,0.4,3.1
					c0.3,0.5,0.6,1,1.3,1.7l0.3,2c0,0,1.7-0.6,2-2.4c0.3-1.8,0.1-1.9,0.1-1.9s0.8-0.3,1.4-1.1c0.4,0.2,0.8,0.3,1.2,0.3
					c0.4,0,0.9-0.1,1.2-0.5c0,0,0.1,0,0.1,0c0.4,0.1,0.8-0.1,1-0.4C194.1,101.1,194,100.5,193.8,100.1z"/>
				<g>
					<path class="st4" d="M190.5,108.5c-0.5-0.3-0.9-0.6-1.3-1c-0.1-0.1-0.2-0.1-0.2,0c-0.1,0.1-0.1,0.2,0,0.2
						c0.4,0.4,0.8,0.8,1.3,1.1C190.5,108.9,190.7,108.6,190.5,108.5L190.5,108.5z"/>
				</g>
				<path class="st10" d="M187.7,103.5c0.3-0.4,0.7-0.4,1.1-0.3c0.5,0.1,1,0.5,1.3,0.9c0.4,0.6,0.2,1.9-0.8,2.1
					c-0.2,0-0.5,0-0.7-0.1c-0.4-0.2-0.6-0.5-0.8-0.9c-0.2-0.3-0.3-0.7-0.3-1C187.5,103.9,187.6,103.6,187.7,103.5z"/>
				<g>
					<path class="st4" d="M215.8,146.9c0.3,0.9,0.7,1.8,1,2.7c0.1,0.2,0.4,0.1,0.3-0.1c-0.3-0.9-0.6-1.8-1-2.7
						C216.1,146.6,215.7,146.7,215.8,146.9L215.8,146.9z"/>
				</g>
				<g>
					<path class="st4" d="M216.7,143.5c-0.5,0.5-1,0.9-1.3,1.5c-0.3,0.5-0.5,1.1-0.2,1.6c0.2,0.2,0.4,0.4,0.7,0.4
						c0.3,0,0.6-0.1,0.8-0.3c0.5-0.3,1-0.7,1.4-1.2c0.5-0.5,0.9-1.1,1.3-1.7c0.1-0.2-0.2-0.3-0.3-0.2c-0.3,0.5-0.6,0.9-1,1.4
						c-0.3,0.4-0.7,0.8-1.2,1.1c-0.3,0.2-1,0.7-1.3,0.3c-0.4-0.4-0.2-0.9,0-1.3c0.3-0.6,0.9-1.1,1.3-1.5
						C217,143.6,216.8,143.3,216.7,143.5L216.7,143.5z"/>
				</g>
				<g>
					<path class="st4" d="M213.8,142.9c0.5,0.8,1.5,1.3,2.4,1.3c0.2,0,0.2-0.3,0-0.3c-0.9,0-1.7-0.5-2.2-1.2
						C214,142.6,213.7,142.7,213.8,142.9L213.8,142.9z"/>
				</g>
			</g>
			<g>
				<path class="st0" d="M143.2,45c4,2.5,6,6.8,5.7,11.5c-0.3,3.7,5.5,3.7,5.7,0c0.5-6.7-2.9-12.9-8.5-16.5
					C143,38.1,140.1,43,143.2,45L143.2,45z"/>
			</g>
		</g>
	</g>
</g>
</svg>
