<?xml version="1.0" encoding="utf-8"?>
<!-- Generator: $$$/GeneralStr/196=Adobe Illustrator 27.6.0, SVG Export Plug-In . SVG Version: 6.00 Build 0)  -->
<svg version="1.1" id="圖層_1" xmlns="http://www.w3.org/2000/svg" xmlns:xlink="http://www.w3.org/1999/xlink" x="0px" y="0px"
	 viewBox="0 0 240 240" style="enable-background:new 0 0 240 240;" xml:space="preserve">
<style type="text/css">
	.st0{fill:#FFFFFF;}
	.st1{fill:#F9B0AC;}
	.st2{fill:#F29C9C;}
	.st3{fill:#ED8E8E;}
	.st4{fill:#B2784A;}
	.st5{fill:#A06543;}
	.st6{fill:#D3985E;}
	.st7{fill:#E5B785;}
	.st8{fill:#AA6B4C;}
	.st9{fill:#ABE2EA;}
	.st10{fill:#36855F;}
	.st11{fill:#86C440;}
	.st12{fill:#56AB6E;}
	.st13{opacity:0.8;}
	.st14{fill:#4AACDD;}
	.st15{fill:#FFCC00;}
	.st16{fill:#5140B5;}
	.st17{fill:#FB9F9F;}
	.st18{fill:#3884B0;}
	.st19{fill:#39B898;}
	.st20{fill:#97C26D;}
	.st21{fill:#AA6E48;}
	.st22{fill:#339946;}
</style>
<g>
	<g>
		<path class="st0" d="M219.7,214c-3.3-6.5-6.9-12.9-10.3-19.1l-2-3.6l-7.8-14.1c-0.5-0.9-1.1-2-2.3-3c-0.5-0.4-0.9-0.7-1.8-0.9
			c2-2.8,4-6.3,5-10.2c1.6-6.3,0.2-12.9-3.6-17.2c-0.8-0.9-1.7-1.7-2.8-2.5c0.4-0.2,0.8-0.4,1.2-0.6c0.4-0.2,1-0.3,1.6-0.5
			c2.6-0.8,6.1-1.9,7.8-5c1.2-2.2,0.9-4.3,0.3-5.9c0,0,0-0.1,0.1-0.1c2.1-3.5-0.2-7.5-1.2-9.2c-0.1-0.2-0.2-0.4-0.3-0.6
			c0.4-0.6,0.8-1.2,1.2-1.8c2.3-4.1,2.5-9.4,0.3-13.1c-1.9-3.3-5.3-5.1-9.5-5.1c-0.9,0-1.9,0.1-2.9,0.3c-1.5,0.3-2.9,0.7-4.2,1.3
			c-0.1-0.1-0.1-0.2-0.2-0.3c-0.5-0.6-0.9-1.3-1.4-1.9c-0.9-1.3-1.9-2.7-3.2-4c-0.7-0.7-1.5-1.3-2.2-1.9c-0.8-0.6-1.6-1.3-2-1.8
			c-0.7-0.9-1.7-1.4-2.9-1.5c0,0-0.1,0-0.1,0c2.4-3.1,3.7-6.8,4.2-8.8c0.5-1.7,0.3-3.4-0.5-4.9c-0.6-1-1.3-1.6-2-2
			c0-0.1-0.1-0.2-0.1-0.3c-0.7-1.2-1.9-2.1-3.3-2.3c-0.8-0.9-1.9-1.4-3.1-1.4c-0.8-1.1-2.2-1.7-3.6-1.7c-3.5,0-7.9,4-9.9,7.7
			c-1.3,2.3-1.8,5-2.2,7.7c-0.8-1.7-2.1-3.4-3.8-4.4c-0.2-0.1-0.4-0.2-0.7-0.4c-2.6-1.2-7.8-3-10.2-3.6c-0.7-0.2-1.3-0.2-2-0.2
			c-2.1,0-4,0.9-5.7,1.9c-1.1,0.6-2.5,1.5-3.7,2.8c-0.5,0.5-0.9,1-1.3,1.6c-0.7-0.5-1.4-0.9-2.1-1.2c-1.6-0.7-3.4-1.1-5.2-1.1
			c-2.1,0-4.1,0.5-6,1.4c-0.3-0.9-0.7-1.7-1-2.5c-0.5-1.2-1.1-2.5-1.2-3.3c0-0.4-0.1-0.8-0.1-1.3c-0.1-1.3-0.1-2.8-0.6-4.4
			c-0.6-2-1.8-3.5-2.8-4.8c-0.6-0.8-1.1-1.5-1.4-2.2c0,0,0,0,0,0c0.8-0.5,1.7-1.4,2.3-2.6c0.8-1.6,0.6-3.2,0.5-4.2
			c-0.5-3.1-2-6-4.2-8.3l-0.1-0.1c-0.4-0.4-1.1-1.1-1.9-1.6c-0.1-0.1-0.1-0.2-0.2-0.4c-0.4-1.7-1.5-3.2-3-4.3
			c-1.7-1.1-3.5-1.5-4.8-1.7c-1-0.1-2.3-0.2-3.7-0.2c-4.3,0-9.8,0.6-13,3.5c-2.4,1.3-3.8,4.6-4.9,7.8c-0.7,2.2-1.7,6-1.8,8.1
			c0,0.7,0,1.4,0,2.2c-0.2,0.2-0.4,0.5-0.5,0.8c-2.5,0.1-7.3,0.5-9.5,2c-2.2,1.5-9.5,10.2-9.5,10.2c-8.2,9.7-8.3,11.4-7.9,13.4
			c0.2,0.8,0.6,2.7,7.4,8.9c4,3.7,6.4,5.3,7.9,6c-0.1,0-0.2,0.1-0.4,0.1c-0.5,0.1-0.9,0.3-1.4,0.4c-6.1,1.7-11.7,4.1-17.2,6.5
			l-1.7,0.7c-1.3,0.6-2.7,1.1-4.1,1.7c-4.5,1.8-9.1,3.6-12.9,6.5c-2,1.5-3.3,3.3-3.1,7.4c0,0.2,0,0.3,0,0.5c0.3,1.8,1.1,3.6,2.3,5.2
			c0.9,3.1,2,6.4,3.4,10.4c0.7,2.1,1.9,4.8,4.3,7c0.7,0.7,1.6,1.3,2.5,1.8c1.8,1.1,3.6,2,5,2.6c0.6,0.3,1.3,0.6,1.9,0.9
			c0.5,0.2,0.9,0.4,1.4,0.6c-0.2,2.3,0,4.6,0.5,6.9c0.8,3.5,2.5,6.7,4.2,9.3c-1.2,0.1-2.3,0.8-2.9,1.8c-3.6,5.7-6.6,11.9-9.5,18
			c-3.7,7.8-7.5,15.8-12.6,22.2c-0.9,1.1-1.1,2.6-0.6,3.9s1.6,2.3,3,2.5c1.1,0.2,3.4,0.4,11.1,0.4c6.4,0,14.5-0.2,21.6-0.3
			c5.2-0.1,9.8-0.2,12.4-0.2c0.5,0,0.9,0,1.2,0c24.7,0.4,50.2,0.9,75.4,0.9c26.6,0,50-0.5,71.5-1.6c1.4-0.1,2.6-0.8,3.3-2
			S220.3,215.3,219.7,214z"/>
		<path class="st0" d="M55.1,50.8C55.1,50.8,55.1,50.8,55.1,50.8L55.1,50.8c0,2.3,1.7,3.9,4,3.9c1.9,0,3.4-1.2,3.8-2.9l0.1,0
			c2.1,0,3.7-1.6,3.8-3.8c0.1-2.2-1.6-4-3.7-4.1v-0.4c0-2.2-1.7-3.9-4-3.9c-2.1,0-3.8,1.5-3.9,3.6c-1.6,0.4-2.8,1.8-3,3.6
			C51.9,48.7,53.2,50.4,55.1,50.8z"/>
		<path class="st0" d="M119.8,77.3c0.3,0.7,0.6,1.3,1.1,1.8c1.1,1.1,2.7,1.8,4.3,1.8c2.2,0,4.1-1.1,5.2-2.8c2-0.6,3.5-2.1,4.1-4.1
			c0.4-1.6,0.2-3.4-0.8-4.8c-0.7-1-1.6-1.8-2.7-2.3c-0.8-2.3-3-3.9-5.7-3.9c-1.6,0-3.2,0.6-4.3,1.8c-0.7,0.8-1.2,1.7-1.5,2.7
			c-0.5,0.4-1,0.9-1.4,1.5c-0.9,1.5-1.2,3.3-0.8,4.9C117.8,75.4,118.6,76.5,119.8,77.3z"/>
		<path class="st0" d="M151.3,63.6c1,2,3,3.4,5.5,3.4c1.6,0,3.2-0.7,4.3-1.8c0.3-0.4,0.6-0.8,0.9-1.2c2.2-0.7,3.8-2.8,3.9-5.4
			c0.1-2.7-1.6-5-3.9-5.8c-0.9-2.3-3-3.9-5.7-3.9c-1.6,0-3.2,0.7-4.3,1.8c-0.9,0.9-1.4,2.1-1.5,3.4c-1.3,1.2-2,2.9-1.9,4.8
			C148.6,60.9,149.7,62.7,151.3,63.6z"/>
	</g>
	<g>
		<g>
			<g>
				<g>
					<g>
						<path class="st1" d="M127.8,113.1c0.8,1.6,1.7,2.3,3.4,3c0.9,0.4,1.8,0.6,2.7,0.9c1.1,0.3,2.2,0.6,3.2,1
							c0.1,0,0.2,0.1,0.2,0.1c2.9,0.9,7.4,0.1,9.3-2.2c1.1-1.3,2.7-3.7,3.3-5.3c1-2.4,1.6-4.4,2.5-6.8c1.6-3.9,1.7-7.8,1.2-11.9
							c-0.1-0.7-1.1-5.8-3.5-7.2c-0.2-0.1-0.3-0.2-0.5-0.3c-2.3-1.1-7.3-2.8-9.4-3.3c-1.4-0.3-2.4-0.1-4.7,1.2c-1,0.6-2,1.3-2.8,2.1
							c-1,1.1-1.7,2.3-2.3,3.6c-1.4,2.9-2.1,5.7-2.7,8.9c-0.5,2.7-0.6,5.4-0.8,8.1C126.6,108,126.5,110.6,127.8,113.1z"/>
					</g>
					<g>
						<g>
							<path class="st2" d="M147.4,88c-2.9-0.2-5.7-2.8-8.6-1.5c-2.8,1.3-1.5,4.7-3.4,6.4c-0.2,0.2-0.6,0-0.5-0.2
								c0.2-1.3,0.7-2.8,1.2-4.1c0.5-1.2,1.2-2.2,2.5-2.8c1.3-0.5,2.6-0.5,4-0.2c1.7,0.4,3.8,1,5.1,2C147.6,87.7,147.6,88,147.4,88
								L147.4,88z"/>
						</g>
					</g>
					<g>
						<g>
							<path class="st2" d="M142.4,112.8c-0.7,1-1.8,1.2-2.9,1.2c-1.5-0.1-3.2-0.3-4.6-1c-0.2-0.1-0.1-0.5,0.1-0.4
								c2.3,0.2,5.1,1.7,7.1,0.1C142.3,112.5,142.5,112.6,142.4,112.8L142.4,112.8z"/>
						</g>
					</g>
					<g>
						<g>
							<path class="st0" d="M129.5,107.4c0.1,0.4,0.1,0.7,0.2,1.1c0,0.3,0,0.1,0.1,0.4c0.1,0.2,0.1,0.5,0.1,0.8
								c-0.1,0.8-1.2,1.1-1.6,0.4c-0.3-0.6-0.1-1.1,0-1.7c0.1-0.5,0.4-0.8,0.8-1C129.3,107.2,129.5,107.3,129.5,107.4L129.5,107.4z"
								/>
						</g>
					</g>
					<g>
						<g>
							<path class="st0" d="M129.6,111.2c0.2,0.2,0.5,0.3,0.7,0.4c0.3,0.2,0.6,0.4,0.9,0.5c0.5,0.3,1.5,0.9,1,1.6
								c-0.2,0.2-0.4,0.4-0.7,0.4c-0.7-0.1-1.3-0.4-1.8-0.9c-0.2-0.3-0.4-0.6-0.4-0.9c-0.1-0.3,0-0.6-0.1-0.9
								C129.1,111.2,129.4,111,129.6,111.2L129.6,111.2z"/>
						</g>
					</g>
					<g>
						<path class="st3" d="M133.9,117.1c1.1,0.3,2.2,0.6,3.2,1c0.1,0,0.2,0.1,0.2,0.1c2.9,0.9,7.4,0.1,9.3-2.2
							c1.1-1.3,2.7-3.7,3.3-5.3c1-2.4,1.7-4.1,2.5-6.8c1.2-4,1.7-7.8,1.2-11.9c-0.1-0.7-1.1-5.8-3.5-7.2c-0.2-0.1-0.3-0.2-0.5-0.3
							c0.6,0.8,1,1.9,1.4,2.6c0.9,1.6,1.1,3.1,1.1,5c0.1,1.9,0.1,3.5-0.1,5.5c-0.3,2.4-0.9,4.7-1.8,7c-1.4,3.6-3.3,7.9-6.2,10.6
							c-1.7,1.6-2.8,2.3-5.2,2.4C137.7,117.6,136.2,117.3,133.9,117.1z"/>
					</g>
					<g>
						<path class="st4" d="M151,112.9c-1.4,0.3-2.9-0.3-4.3-0.9c-3.6-1.6-7.2-3.1-10.9-4.5c-3.1-1.3-6.3-2.5-9.4-3.8
							c-0.4-0.1-0.8-0.3-1-0.6c-0.4-0.5-0.2-1.2-0.1-1.7c0.7-2.9,1.4-5.8,2.1-8.7c0.2-0.9,0.4-1.8,0.7-2.6c0.2-0.7,0.6-1.5,1.2-1.8
							c0.6-0.3,1.2-0.2,1.8-0.1c6.3,1.1,12.5,2.8,18.4,5c2.1,0.8,4.3,1.7,5.8,3.3c1,1.1,0,2.4-0.4,3.6c-0.5,1.5-1,2.9-1.4,4.4
							c-0.5,1.4-0.9,2.8-1.4,4.3C152.1,109.1,151.3,112.8,151,112.9z"/>
					</g>
					<g>
						<g>
							<g>
								<path class="st5" d="M147.8,92.5c0.1,0.5-0.1,1.1-0.3,1.6c-0.1,0.6-0.3,1.2-0.5,1.7c-0.1,0.2-0.5,0.3-0.5,0
									c-0.1-0.6,0-1.2,0.1-1.8c0.1-0.5,0.3-1.2,0.7-1.6C147.5,92.2,147.7,92.3,147.8,92.5L147.8,92.5z"/>
							</g>
						</g>
						<g>
							<g>
								<path class="st5" d="M145.9,92.2c-0.2,0.6-0.3,1.4-0.7,1.9c-0.1,0.2-0.4,0.1-0.4-0.1c0-0.7,0.4-1.3,0.6-1.9
									C145.5,91.7,146,91.9,145.9,92.2L145.9,92.2z"/>
							</g>
						</g>
						<g>
							<g>
								<path class="st5" d="M143.8,92.4c0.2,0.3-0.1,0.7-0.2,1c-0.1,0.4-0.2,0.7-0.4,1c-0.1,0.2-0.4,0.1-0.4-0.1
									c0-0.4,0-0.7,0.2-1.1c0.1-0.3,0.2-0.8,0.6-0.9C143.6,92.2,143.7,92.3,143.8,92.4L143.8,92.4z"/>
							</g>
						</g>
						<g>
							<g>
								<path class="st5" d="M141.4,91.1c0,0.7-0.5,1.3-0.7,1.9c-0.2,0.7-0.5,1.3-0.8,1.9c-0.1,0.3-0.6,0.1-0.5-0.2
									c0.1-0.8,0.3-1.4,0.6-2.1c0.3-0.6,0.6-1.4,1.2-1.8C141.2,90.7,141.4,90.9,141.4,91.1L141.4,91.1z"/>
							</g>
						</g>
						<g>
							<g>
								<path class="st5" d="M137.6,90.1c-0.2,0.6-0.5,1.2-0.7,1.8c-0.2,0.6-0.3,1.2-0.7,1.7c-0.1,0.2-0.5,0.2-0.5-0.1
									c-0.1-0.7,0.1-1.2,0.3-1.9c0.2-0.6,0.5-1.3,0.8-1.9C137.1,89.4,137.7,89.7,137.6,90.1L137.6,90.1z"/>
							</g>
						</g>
						<g>
							<g>
								<path class="st5" d="M135.4,90c-0.5,1.2-1,2.5-1.6,3.6c-0.1,0.2-0.5,0.1-0.5-0.2c0.4-1.2,0.9-2.4,1.4-3.6
									C134.9,89.3,135.6,89.5,135.4,90L135.4,90z"/>
							</g>
						</g>
						<g>
							<g>
								<path class="st5" d="M133.2,88.7c0,0.9-0.4,1.8-0.7,2.6c-0.3,0.9-0.5,1.7-1,2.5c-0.2,0.4-0.8,0.2-0.8-0.2
									c0-1,0.3-1.8,0.6-2.8c0.3-0.8,0.5-1.7,1.1-2.4C132.8,88,133.2,88.4,133.2,88.7L133.2,88.7z"/>
							</g>
						</g>
						<g>
							<g>
								<path class="st5" d="M154.7,95.9c-0.5,1.6-0.8,3.2-1.5,4.7c-0.1,0.3-0.5,0.2-0.5-0.1c0-1.7,0.7-3.3,1.4-4.8
									C154.2,95.3,154.8,95.5,154.7,95.9L154.7,95.9z"/>
							</g>
						</g>
						<g>
							<g>
								<path class="st5" d="M149.6,106.6c-0.2,0.9-0.5,1.8-0.7,2.7c-0.2,0.8-0.4,1.7-0.8,2.4c-0.1,0.2-0.4,0.1-0.4-0.1
									c0-0.8,0.3-1.7,0.6-2.5c0.3-0.9,0.5-1.8,0.8-2.7C149.1,106,149.7,106.2,149.6,106.6L149.6,106.6z"/>
							</g>
						</g>
						<g>
							<g>
								<path class="st5" d="M147.3,106.6c-0.3,1.4-0.7,3.2-1.7,4.3c-0.2,0.2-0.5,0-0.5-0.3c0.1-0.7,0.5-1.4,0.8-2.1
									c0.3-0.7,0.5-1.4,0.7-2.1C146.7,105.8,147.4,106.1,147.3,106.6L147.3,106.6z"/>
							</g>
						</g>
						<g>
							<g>
								<path class="st5" d="M145,106.1c0,0.4-0.2,0.8-0.4,1.2c-0.1,0.4-0.2,0.8-0.5,1.1c-0.2,0.2-0.5,0.1-0.6-0.2
									c-0.1-0.4,0.1-0.8,0.3-1.2c0.1-0.4,0.2-0.8,0.5-1.2C144.5,105.6,145,105.7,145,106.1L145,106.1z"/>
							</g>
						</g>
						<g>
							<g>
								<path class="st5" d="M143.4,104c-0.3,0.7-0.5,1.5-0.8,2.2c-0.2,0.6-0.4,1.3-0.9,1.8c-0.2,0.2-0.6,0.1-0.6-0.2
									c-0.1-0.7,0.2-1.3,0.4-1.9c0.3-0.7,0.5-1.5,0.8-2.2C142.5,103,143.6,103.3,143.4,104L143.4,104z"/>
							</g>
						</g>
						<g>
							<g>
								<path class="st5" d="M141,98.7c-0.3,1.7-0.9,3.3-1.5,4.9c-0.5,1.4-0.8,3.2-1.9,4.3c-0.2,0.3-0.6,0-0.6-0.3
									c-0.1-1.5,0.8-3.2,1.3-4.7c0.5-1.5,1-3.1,1.8-4.5C140.3,98.1,141.1,98.3,141,98.7L141,98.7z"/>
							</g>
						</g>
						<g>
							<g>
								<path class="st5" d="M136.5,101.2c-0.1,0.6-0.3,1.1-0.5,1.7c-0.2,0.5-0.3,1-0.6,1.5c-0.2,0.2-0.5,0.1-0.5-0.2
									c0-0.5,0.2-1.1,0.4-1.6c0.2-0.5,0.3-1.1,0.6-1.7C135.9,100.5,136.6,100.7,136.5,101.2L136.5,101.2z"/>
							</g>
						</g>
						<g>
							<g>
								<path class="st5" d="M134.8,100.7c0,0.7-0.3,1.5-0.5,2.2c-0.2,0.6-0.2,1.5-0.8,1.7c-0.2,0.1-0.4,0.1-0.5-0.1
									c-0.4-0.6-0.1-1.3,0.1-1.9c0.2-0.8,0.3-1.6,0.7-2.3C134.1,99.8,134.8,100.1,134.8,100.7L134.8,100.7z"/>
							</g>
						</g>
						<g>
							<g>
								<path class="st5" d="M132.9,99.8c-0.1,1.5-0.2,3.5-1.2,4.6c-0.2,0.2-0.6,0.1-0.6-0.2c-0.1-0.7,0.1-1.3,0.2-2
									c0.2-0.8,0.3-1.6,0.3-2.5C131.6,98.8,132.9,98.9,132.9,99.8L132.9,99.8z"/>
							</g>
						</g>
						<g>
							<g>
								<path class="st5" d="M131,94.7c0,1.5-0.7,3.2-1.1,4.6c-0.4,1.5-0.7,3.1-1.4,4.5c-0.2,0.4-0.8,0.1-0.8-0.3
									c-0.1-1.6,0.4-3.2,0.8-4.7c0.4-1.4,0.8-3.3,1.7-4.4C130.5,94.2,131,94.3,131,94.7L131,94.7z"/>
							</g>
						</g>
					</g>
				</g>
			</g>
			<g>
				<g>
					<path class="st4" d="M176.7,79.9c0.3,0.6,0.4,1.2,0.2,1.8c-0.5,1.7-1.8,5.7-4.5,8.6c-3.5,3.7-8.6,4.7-9.8,6.2
						c-1.2,1.5-6.8,15.9-9,20.1c-2.2,4.2-6,8.7-8,8c-2-0.7-1.1-4.9,0.9-10.7c2-5.7,10.5-16.9,11.9-20.1c1.4-3.2,1.1-10,3.2-13.8
						c2.2-3.9,6.3-6.4,6.9-5.5c0.6,0.9-2.4,5.2-2.1,6c0.4,0.8,2.5-2.1,3.6-3.4c1.1-1.2,2.3-1.8,1.6-0.1c-0.7,1.7-2.8,4.4-2.1,5.5
						c0.6,1.1,3.8-5.2,4.7-5.1c0.9,0,0.7,1.3-0.6,3.7c-1.3,2.4-1.8,4-0.8,3.5c1-0.5,3-4.8,3.5-5C176.4,79.4,176.6,79.6,176.7,79.9z"
						/>
				</g>
				<g>
					<g>
						<g>
							<path class="st5" d="M162.9,82.9c-0.6,1.1-1.2,2.1-1.5,3.3c-0.1,0.5-0.4,1.5,0.1,2c1.1,1.1,1.9-2.3,2-2.8
								c0-0.1-0.1-0.3-0.3-0.2c-0.4,0.3-0.6,0.6-0.7,1.1c0,0.2,0.2,0.2,0.3,0.1c0.2-0.3,0.4-0.6,0.6-0.9c-0.1-0.1-0.2-0.1-0.3-0.2
								c-0.1,0.6-0.2,1.2-0.4,1.7c-0.1,0.2-0.1,0.3-0.2,0.5c-0.3,0-0.7,0-1,0c-0.1-0.1,0.1-0.9,0.1-1.1c0.3-1.2,0.9-2.4,1.5-3.5
								C163.1,82.9,163,82.8,162.9,82.9L162.9,82.9z"/>
						</g>
					</g>
					<g>
						<g>
							<path class="st5" d="M163.2,89.1c-1.1,2.4-2.5,4.6-4.3,6.5c0.1,0.1,0.3,0.1,0.4,0.2c0.2-0.9,0.6-1.6,1-2.4
								c0.1-0.1-0.1-0.3-0.2-0.2c-0.8,0.6-1.1,1.5-1.3,2.5c0,0.2,0.3,0.4,0.4,0.2c1.8-2,3.1-4.3,4.1-6.8
								C163.4,89.1,163.3,89,163.2,89.1L163.2,89.1z"/>
						</g>
					</g>
					<g>
						<g>
							<path class="st5" d="M156.9,97.8c-0.6,1-1.2,2.1-1.7,3.2c-0.4,1.1-0.6,2.4-1.1,3.5c-0.4,1-1,2-1.5,2.9
								c-0.3,0.5-0.6,1.1-0.8,1.6c-0.1,0.3-0.3,0.5-0.4,0.8c-0.2,0.7-0.4,0.9-0.6,0.4c0-0.1-0.1-0.2-0.2-0.1
								c-0.3,0.5-0.2,0.3-0.2,0.9c0,0.1,0.1,0.3,0.3,0.2c0.8-0.3,1.1-1,1.5-1.7c0.7-1.2,1.3-2.4,1.9-3.6c0.5-1,0.8-2,1.1-3.1
								c0.5-1.8,1.1-3.3,2-4.9C157.2,97.8,157,97.7,156.9,97.8L156.9,97.8z"/>
						</g>
					</g>
					<g>
						<g>
							<path class="st5" d="M154.7,106.1c-0.9,1-1.2,2.7-1.7,3.9c-0.5,1.6-0.9,3.3-1.8,4.8c-0.8,1.4-1.9,2.7-2.8,4.1
								c-0.5,0.8-1.2,1.7-1,2.7c0,0.1,0.1,0.2,0.3,0.2c1.3-0.5,1.5-2.2,1.9-3.4c0-0.1-0.1-0.2-0.2-0.1c-0.4,0.3-0.7,0.6-0.9,1.1
								c0,0.1,0.1,0.2,0.2,0.1c0.7-1.5,0.3,0.4-0.1,0.8c-0.2,0.1-0.4,0.1-0.6,0.2c0.1-0.1,0.2-0.3,0.2-0.4c0.1-0.4,0.6-0.9,0.8-1.3
								c0.8-1.1,1.6-2.1,2.3-3.3c0.7-1.1,1-2.3,1.4-3.6c0.5-1.7,0.9-4.3,2.1-5.6C155,106.1,154.8,106,154.7,106.1L154.7,106.1z"/>
						</g>
					</g>
					<g>
						<g>
							<path class="st5" d="M150.5,113.4c-0.6,1.3-1.3,2.5-2.2,3.6c-0.1,0.1,0.1,0.2,0.2,0.1c0.9-1.1,1.7-2.3,2.2-3.6
								C150.7,113.4,150.5,113.3,150.5,113.4L150.5,113.4z"/>
						</g>
					</g>
					<g>
						<g>
							<path class="st5" d="M159.3,96.9c-0.7,1-1.2,2.2-1.7,3.4c-0.6,1.3-1.2,2.5-1.8,3.9c-0.1,0.1,0.1,0.2,0.2,0.1
								c0.7-1.2,1.2-2.5,1.9-3.8c0.6-1.1,1.2-2.2,1.5-3.4C159.5,96.9,159.3,96.8,159.3,96.9L159.3,96.9z"/>
						</g>
					</g>
					<g>
						<g>
							<path class="st5" d="M170.4,86.8c-0.9,0.9-1.5,2.4-2.3,3.5c-0.9,1.2-1.9,2.5-3.4,3c0.1,0.1,0.2,0.2,0.3,0.3
								c0.8-1.7,2-3,3.3-4.5c0.1-0.1-0.1-0.3-0.2-0.2c-1.4,1.2-2.7,2.7-3.5,4.4c-0.1,0.2,0.1,0.4,0.3,0.3c1.5-0.4,2.6-1.7,3.4-2.8
								c0.8-1.1,2-2.6,2.3-4C170.6,86.8,170.5,86.8,170.4,86.8L170.4,86.8z"/>
						</g>
					</g>
					<g>
						<g>
							<path class="st5" d="M166.4,87.4c-1.7,2-3.3,4.1-4.3,6.5c0,0.1,0.1,0.2,0.2,0.1c1.4-2.2,2.7-4.4,4.3-6.4
								C166.7,87.5,166.5,87.3,166.4,87.4L166.4,87.4z"/>
						</g>
					</g>
					<g>
						<g>
							<path class="st5" d="M168.2,86.7c-0.2,0.5-0.4,1-0.7,1.4c-0.1,0.1,0.1,0.2,0.2,0.1c0.3-0.5,0.5-0.9,0.7-1.4
								C168.4,86.6,168.2,86.5,168.2,86.7L168.2,86.7z"/>
						</g>
					</g>
					<g>
						<g>
							<path class="st5" d="M159.3,99.4c-1.2,1.9-2.3,3.8-3.4,5.7c-0.6,1-2,2.4-1.5,3.6c0.1,0.2,0.3,0.2,0.4,0.1
								c1.1-0.7,1.7-1.7,1.9-3c0-0.2-0.2-0.2-0.3-0.1c-0.6,1-0.9,2-2,2.6c0.1,0,0.3,0.1,0.4,0.1c-0.3-0.8,0.7-2,1.1-2.6
								c0.4-0.7,0.8-1.4,1.1-2c0.8-1.5,1.6-2.9,2.4-4.4C159.7,99.4,159.5,99.3,159.3,99.4L159.3,99.4z"/>
						</g>
					</g>
					<g>
						<g>
							<path class="st5" d="M166.1,78.1c-1,1.2-1.7,2.6-2,4.1c0,0.1,0.1,0.2,0.2,0.1c0.7-0.3,1.2-0.7,1.4-1.4
								c0.1-0.2-0.2-0.3-0.3-0.1c-0.3,0.6-0.6,1.1-1.2,1.3c0.1,0,0.1,0.1,0.2,0.1c0.3-1.5,1-2.8,2-4C166.4,78.1,166.2,78,166.1,78.1
								L166.1,78.1z"/>
						</g>
					</g>
					<g>
						<g>
							<path class="st5" d="M169.8,80.3c-0.7,0.9-1.4,1.7-2.1,2.6c-0.1,0.1,0.1,0.3,0.2,0.1c0.7-0.8,1.4-1.7,2.1-2.6
								C170.1,80.3,169.9,80.2,169.8,80.3L169.8,80.3z"/>
						</g>
					</g>
				</g>
			</g>
			<g>
				<g>
					<g>
						<g>
							<g>
								<path class="st4" d="M164.3,153.4c-2.7,0.7-5.3,1.2-7.6-0.8c-4.6-4,1.5-8.9,5.3-10.8c2.8-1.4,5.7-2.1,8.4-3.7
									c1.8-1.1,3.5-2.3,5.4-3.3l0,0c0.3-0.1,0.5-0.3,0.8-0.4c3.2-1.5,6.7-2.7,10-3.9c4.4-1.6,9-2.9,12.8-1.9
									c0,0.3,0.1,0.5,0.2,0.8c0.7,1.8,2.8,3.8,1.7,5.9c-1.3,2.3-5.2,2.9-7.4,3.8c-2.8,1.1-4.9,3.2-7.5,4.5
									c-2.5,1.2-5.1,2.2-7.5,3.4c-1.4,0.7-2.9,1.5-4.4,2.2c-2.4,1.2-5,2.4-7.5,3.3C166.1,152.9,165.2,153.2,164.3,153.4z"/>
							</g>
							<g>
								<path class="st6" d="M167,152.6C167,152.6,166.9,152.6,167,152.6c-0.9,0.1-1.3-1.1-0.5-1.6c6.9-4.1,32.1-18.2,33.3-20.3
									c1.8-3.1-27.1,6.1-23.9,4.1l0,0c0.3-0.1,0.5-0.3,0.8-0.4c3.2-1.5,6.7-2.7,10-3.9c4.4-1.6,9-2.9,12.8-1.9
									c0,0.3,0.1,0.5,0.2,0.8c0.7,1.8,2.8,3.8,1.7,5.9c-1.3,2.3-5.2,2.9-7.4,3.8c-2.8,1.1-4.9,3.2-7.5,4.5
									c-2.5,1.2-5.1,2.2-7.5,3.4c-1.4,0.7-2.9,1.5-4.4,2.2C172,150.5,169.5,151.7,167,152.6z"/>
							</g>
							<g>
								<path class="st7" d="M176.4,95.6c1.2,1.5,3.1,2.7,4.5,4.1c1.7,1.7,2.9,3.8,4.4,5.7c1.8,2.3,3.6,4.7,5.5,6.8
									c3.3,3.7,7.4,7.7,9.8,11.9c0.8,1.4,2.1,3.7,1.2,5.1c-1,1.6-3.6,2.6-5.2,3.3c-5.8,2.4-11.1,6.4-16.6,9.4
									c-3.5,2-7.2,4-10.6,5.9c-3.6,2-6.5,4.6-11,4.1c-3-0.3-3.7-1.6-5.8-3.8c-2.1-2.3-4.3-4.4-6.2-6.9c-1.6-2.2-2.7-4.9-4.2-7.2
									c-1.8-2.8-3.5-3.9-1.3-7.2c1.8-2.8,4.9-4.7,7.8-6.3c3.6-2.1,6.5-5.3,9.7-7.7c2.8-2.1,4.6-5.1,7.1-7.5
									c2.5-2.4,4.4-5.1,6.7-7.5C173.1,96.8,174.9,95.5,176.4,95.6z"/>
							</g>
							<g>
								<g>
									<g>
										<path class="st6" d="M175.6,105.6c1.5,3.5,4,6.8,6.2,10c1.1,1.7,2.3,3.3,3.4,4.9c1.1,1.5,2.1,3.3,3.5,4.6
											c0.3,0.3,0.8-0.1,0.6-0.5c-0.9-1.7-2.3-3.3-3.5-4.9c-1.2-1.6-2.3-3.3-3.5-4.9c-2.1-3.1-4-6.5-6.5-9.4
											C175.7,105.4,175.5,105.5,175.6,105.6L175.6,105.6z"/>
									</g>
								</g>
								<g>
									<g>
										<path class="st6" d="M170.3,110.9c2.6,3.7,5.2,7.5,7.7,11.3c1.2,1.9,2.4,3.7,3.6,5.6c1.1,1.8,2.1,3.7,3.4,5.4
											c0.1,0.1,0.3,0,0.3-0.2c-1.6-3.9-4.4-7.6-6.8-11.2c-2.5-3.8-5.2-7.5-7.9-11.2C170.5,110.6,170.2,110.7,170.3,110.9
											L170.3,110.9z"/>
									</g>
								</g>
								<g>
									<g>
										<path class="st6" d="M164,114.8c2,4.1,4.1,8.1,6.6,12c2.3,3.6,4.6,7.5,7.6,10.6c0.1,0.1,0.4,0,0.3-0.2
											c-2.5-3.7-5.3-7.1-7.7-10.9c-2.4-3.8-4.5-7.7-6.5-11.7C164.2,114.6,164,114.7,164,114.8L164,114.8z"/>
									</g>
								</g>
								<g>
									<g>
										<path class="st6" d="M155.5,118c1.9,3.9,3.9,7.8,6.2,11.6c2.1,3.5,4.2,7.2,6.9,10.4c0.1,0.1,0.2,0,0.2-0.1
											c-2.1-3.7-4.5-7.2-6.7-10.9c-2.1-3.7-4.2-7.4-6.2-11.2C155.8,117.5,155.4,117.8,155.5,118L155.5,118z"/>
									</g>
								</g>
								<g>
									<g>
										<path class="st6" d="M148.9,124.2c1.9,3.6,4,7.1,6.2,10.5c1.1,1.7,2.2,3.3,3.3,4.9c1.1,1.5,2,3.2,3.3,4.6
											c0.2,0.2,0.4-0.1,0.3-0.3c-0.8-1.8-2.2-3.3-3.3-5c-1.1-1.6-2.2-3.3-3.3-5c-2.1-3.3-4.3-6.7-6.4-10
											C149.1,123.9,148.8,124,148.9,124.2L148.9,124.2z"/>
									</g>
								</g>
								<g>
									<g>
										<path class="st6" d="M146.5,129.5c1.5,3.4,3.4,6.6,5.6,9.7c2,2.8,4.1,5.8,6.5,8.3c0.1,0.1,0.2,0,0.1-0.1
											c-2-3-4.4-5.7-6.5-8.7c-2-3-4-6-5.6-9.3C146.6,129.2,146.4,129.3,146.5,129.5L146.5,129.5z"/>
									</g>
								</g>
								<g>
									<g>
										<path class="st6" d="M180.1,106.9c-5.9,4.1-11.8,8.2-17.7,12.4c-5.6,4-12.2,7.2-17,12.2c-0.2,0.2,0.1,0.4,0.3,0.3
											c6.4-2.9,11.7-8.1,17.4-12.2c5.8-4.1,11.5-8.2,17.3-12.4C180.5,107.1,180.3,106.8,180.1,106.9L180.1,106.9z"/>
									</g>
								</g>
								<g>
									<g>
										<path class="st6" d="M185.5,111.4c-6.3,4.8-12.7,9.6-19.2,14.2c-3.1,2.2-6.3,4.5-9.5,6.7c-3.1,2.1-7.1,4-9.5,6.9
											c-0.3,0.3,0,0.8,0.4,0.7c3.5-1,6.7-3.8,9.7-5.9c3.4-2.3,6.7-4.7,10-7.1c6.4-4.7,12.5-9.6,18.5-14.7
											C186.4,111.8,185.9,111.2,185.5,111.4L185.5,111.4z"/>
									</g>
								</g>
								<g>
									<g>
										<path class="st6" d="M193.7,121.3c-2.6,2.2-5.5,3.8-8.5,5.4c-3.1,1.7-6.2,3.5-9.3,5.3c-3,1.7-6,3.3-9,5
											c-2.9,1.7-5.9,3.3-8.4,5.5c-0.2,0.1,0,0.4,0.2,0.4c3.3-1.1,6.3-3,9.3-4.8c3.1-1.8,6.1-3.7,9.2-5.5
											c5.7-3.4,11.9-6.5,16.9-11C194.3,121.5,193.9,121.1,193.7,121.3L193.7,121.3z"/>
									</g>
								</g>
								<g>
									<g>
										<path class="st6" d="M189.4,130.1c-8.5,5.4-17.2,10.8-25,17.2c-0.2,0.1,0.1,0.4,0.2,0.3c8.7-5.1,16.8-11.2,25.1-16.9
											C190.2,130.4,189.8,129.8,189.4,130.1L189.4,130.1z"/>
									</g>
								</g>
							</g>
						</g>
						<g>
							<g>
								<path class="st4" d="M167.9,118.6c-0.3-0.2-0.7-0.2-1,0c-0.8,0.6-2.2,2.4-5.7,6.4c-5.4,6-11.9,14.7-14.9,15.7
									c-3,1-4.1-0.9-3.6-2.8c0.8-3,32.2-36.8,33.4-37.6c1.2-0.8,2.3-0.6,1.8,3.6c-0.5,4.1-3.8,16.7-5.6,16.9
									C171,120.9,168.8,119.3,167.9,118.6z"/>
							</g>
							<g>
								<g>
									<g>
										<path class="st5" d="M172.4,115c0.8-1.8,1.7-3.5,2.4-5.4c0.5-1.2,1.3-2.5,0.9-3.7c0-0.1-0.1-0.1-0.2-0.1
											c-1.6,0.6-1.8,2.2-2.8,3.4c-0.8,1.1-2,1.8-1.6,3.3c0,0.1,0.1,0.1,0.2,0.1c0.7-0.4,1-0.8,1.4-1.6c0.1-0.2-0.2-0.4-0.3-0.2
											c-0.2,0.8-0.4,0.6-0.4-0.4c0.1-0.1,0.2-0.2,0.3-0.3c0.1-0.2,0.5-0.5,0.7-0.7c0.3-0.4,1.8-4.1,2.5-2.2
											c0.1,0.4-0.8,1.9-0.9,2.2c-0.3,0.6-0.5,1.2-0.8,1.8c-0.5,1.2-1,2.4-1.6,3.6C172,115.1,172.3,115.2,172.4,115L172.4,115z"
											/>
									</g>
								</g>
								<g>
									<g>
										<path class="st5" d="M172.9,105.5c-2.5,3-5.1,6.4-6.7,9.9c-0.1,0.2,0.1,0.3,0.2,0.1c2.3-3.2,4.4-6.6,6.7-9.9
											C173.2,105.5,173,105.3,172.9,105.5L172.9,105.5z"/>
									</g>
								</g>
								<g>
									<g>
										<path class="st5" d="M170,113.1c-0.5,0.5-0.9,1.2-1.4,1.8c-0.5,0.6-1,1.1-1.5,1.6c0.1,0.1,0.3,0.1,0.4,0.2
											c0-0.6,0.3-0.9,0.7-1.3c0.2-0.1,0-0.4-0.2-0.3c-0.7,0.2-1,0.9-1,1.6c0,0.2,0.3,0.3,0.4,0.2c0.6-0.6,1.2-1.2,1.7-1.8
											c0.4-0.5,0.9-1.1,1.1-1.8C170.2,113.1,170.1,113,170,113.1L170,113.1z"/>
									</g>
								</g>
								<g>
									<g>
										<path class="st5" d="M170.1,107.8c-3,3.9-6.1,7.6-9.2,11.3c-0.1,0.1,0,0.3,0.1,0.3c1.7-0.1,2.9-1.3,3.8-2.7
											c0.1-0.1-0.1-0.3-0.2-0.2c-0.5,0.5-0.9,1.1-1.4,1.6c-0.3,0.2-0.5,0.4-0.8,0.6c-0.9,0.3-1,0.1-0.3-0.4
											c0.7-1.2,2-2.4,2.9-3.5c1.8-2.3,3.6-4.6,5.3-6.9C170.4,107.8,170.2,107.7,170.1,107.8L170.1,107.8z"/>
									</g>
								</g>
								<g>
									<g>
										<path class="st5" d="M165.5,117.3c-1.1,1.1-2.1,2.2-3.1,3.3c-1.2,1.2-2.5,2.2-3.8,3.2c-0.1,0.1,0,0.3,0.1,0.2
											c2.9-1.1,5.1-4.3,7.1-6.5C165.8,117.4,165.6,117.2,165.5,117.3L165.5,117.3z"/>
									</g>
								</g>
								<g>
									<g>
										<path class="st5" d="M157.8,122.4c-1.5,1.7-2.9,3.5-4.3,5.4c-0.1,0.1,0.1,0.3,0.2,0.2c1.5-1.8,2.9-3.5,4.3-5.4
											C158.1,122.4,157.9,122.3,157.8,122.4L157.8,122.4z"/>
									</g>
								</g>
								<g>
									<g>
										<path class="st5" d="M160.3,119.8c-1.7,1.1-3,2.7-3.8,4.6c-0.6,1.5-1,2.8-2,4c-0.3,0.4-0.7,0.8-1.1,1.2
											c-0.4,0.3-0.8,0.6-1.2,0.9c-0.3-0.6-0.1-1.1,0.6-1.5c0.1-0.1-0.1-0.3-0.2-0.2c-0.6,0.6-1,1.3-1.4,2.1
											c0,0.1,0.1,0.2,0.2,0.2c2-0.7,3.6-2.4,4.5-4.2c0.6-1.1,0.8-2.2,1.4-3.3c0.8-1.4,1.9-2.5,3-3.6
											C160.5,119.9,160.4,119.7,160.3,119.8L160.3,119.8z"/>
									</g>
								</g>
								<g>
									<g>
										<path class="st5" d="M144.5,137.7c-0.6,0.5-0.9,1.2-0.8,2c0,0.2,0.2,0.2,0.3,0.1c1.6-1.4,3.2-2.8,4.6-4.4
											c0.1-0.2-0.1-0.4-0.2-0.2c-1.6,1.4-3.1,3-4.7,4.4c0.1,0,0.2,0.1,0.3,0.1c-0.1-0.7,0.2-1.3,0.7-1.7
											C144.9,137.8,144.7,137.5,144.5,137.7L144.5,137.7z"/>
									</g>
								</g>
								<g>
									<g>
										<path class="st5" d="M153.5,130.9c-0.6,0.4-1.1,0.9-1.7,1.4c-0.6,0.5-1.2,1-1.7,1.6c-0.1,0.1,0,0.4,0.2,0.3
											c0.7-0.4,1.2-0.9,1.8-1.4c0.5-0.5,1.1-1,1.6-1.6C153.8,131,153.6,130.8,153.5,130.9L153.5,130.9z"/>
									</g>
								</g>
							</g>
						</g>
						<g>
							<g>
								<path class="st4" d="M171.2,129.4c0,0,9.6-6.7,10.9-9.5c1.9-4.1,2-12.5,11.4-14.2c9.3-1.7,10.9,6.9,7.9,12
									c-2.9,5.1-7.2,6-9.9,6.5c-2.7,0.5-5,1.2-6,2.1c-1,0.9-17.5,17-20.4,18.5c-2.8,1.5-5.8,0.4-6.4-3.6
									C158.1,137.3,171.2,129.4,171.2,129.4z"/>
							</g>
							<g>
								<path class="st8" d="M192.9,109.4c1-1.2,3.1-1,4.2-0.3c1.4,0.8,2.8,3.4,2.6,5.1c-0.5,3.4-3.3,5.9-6.4,6.9
									c-1.2,0.4-3.6,1-4-0.9c2.1,0.3,3.7-0.3,5.1-1.9c0.7-0.9,1.4-2,1.2-3.2c-0.1-0.5-0.2-1.1-0.5-1.5c-0.4-0.5-1-0.8-1.4-1.3
									c-0.3-0.4-0.8-1-0.9-1.6C192.8,110.1,193,109.9,192.9,109.4z"/>
							</g>
							<g>
								<g>
									<g>
										<path class="st5" d="M194.8,109.5c0.8-0.2,2.5-0.7,2.2,0.8c-0.1,0.7-1.5,1.9-2,2.5c-1.1,1.4-2.1,2.6-3.6,3.6
											c-1.2,0.9-2.5,1.6-3.7,2.5c-0.5,0.4-0.9,0.8-1.3,1.2c-0.5,0.8-1,0.9-1.4,0.3c0.2-0.4,0.6-0.8,1-1.2
											c0.2-0.1-0.1-0.4-0.2-0.2c-0.8,0.6-1.1,1.3-1.3,2.3c0,0.1,0.1,0.2,0.2,0.2c2.1-0.6,3.8-2.6,5.7-3.8c2-1.2,3.5-2.4,4.9-4.3
											c0.5-0.7,3-2.8,2.3-3.9c-0.5-0.8-2.1-0.3-2.7-0.2C194.6,109.4,194.7,109.6,194.8,109.5L194.8,109.5z"/>
									</g>
								</g>
								<g>
									<g>
										<path class="st5" d="M193.2,113.3c-1.8,1.2-3.5,2.9-5.1,4.4c0.1,0.1,0.2,0.2,0.4,0.3c0.6-0.8,1.3-1.5,1.7-2.3
											c0.1-0.2-0.1-0.3-0.3-0.2c-0.7,0.6-1.2,1.5-1.8,2.2c-0.2,0.3,0.1,0.6,0.4,0.3c1.6-1.5,3.5-2.9,4.9-4.5
											C193.4,113.4,193.3,113.2,193.2,113.3L193.2,113.3z"/>
									</g>
								</g>
								<g>
									<g>
										<path class="st5" d="M183.2,120.8c-0.9,0.9-1.3,2-1.9,3.2c-0.7,1.4-1.6,2.5-2.8,3.6c-1.3,1.1-2.4,2.4-3.8,3.3
											c-0.3,0.2-0.7,0.4-1,0.6c-0.4-0.2-0.4-0.4,0-0.6c0.3-0.7,1.5-1.2,2.1-1.6c0.2-0.1,0-0.3-0.1-0.2c-1.3,0.7-2.3,1.7-3.1,3
											c-0.1,0.1,0,0.2,0.2,0.2c2.5-0.7,4.6-2.7,6.5-4.4c0.8-0.8,1.6-1.6,2.1-2.6c0.7-1.4,1-3,2-4.3
											C183.4,120.8,183.3,120.7,183.2,120.8L183.2,120.8z"/>
									</g>
								</g>
								<g>
									<g>
										<path class="st5" d="M176.3,131.1c-2.8,1.5-5.6,3-8.3,4.7c-0.1,0.1,0,0.3,0.1,0.2c2.8-1.5,5.6-2.9,8.4-4.5
											C176.7,131.3,176.5,131,176.3,131.1L176.3,131.1z"/>
									</g>
								</g>
								<g>
									<g>
										<path class="st5" d="M164.7,138.3c-0.3,0.2-0.5,0.5-0.7,0.9c0,0.1,0,0.2,0.2,0.2c0.5-0.1,1-0.2,1.5-0.4
											c0.2-0.1,0.1-0.3-0.1-0.3c-0.5,0.1-1,0.3-1.5,0.5c0.1,0.1,0.1,0.1,0.2,0.2c0.1-0.3,0.3-0.6,0.6-0.8
											C164.9,138.4,164.8,138.3,164.7,138.3L164.7,138.3z"/>
									</g>
								</g>
								<g>
									<g>
										<path class="st5" d="M169.6,136c-0.5,0.4-1,0.8-1.5,1.1c-0.5,0.3-1.1,0.5-1.7,0.8c0.1,0.1,0.2,0.2,0.3,0.3
											c0.2-0.2,0.3-0.4,0.5-0.6c0.1-0.1-0.1-0.3-0.2-0.2c-0.2,0.2-0.4,0.3-0.6,0.5c-0.2,0.2,0,0.4,0.2,0.4
											c1.2-0.3,2.5-1.1,3.3-2C169.9,136.2,169.7,135.9,169.6,136L169.6,136z"/>
									</g>
								</g>
								<g>
									<g>
										<path class="st5" d="M186.6,122.9c-1,0.6-1.9,1.2-2.8,1.8c-0.5,0.4-1.4,0.8-1.3,1.5c0,0.2,0.2,0.3,0.4,0.3
											c0.5-0.1,0.9-0.2,1.3-0.4c0.1-0.1,0.1-0.4-0.1-0.4c-0.4,0-0.9,0.2-1.3,0.3c0.1,0.1,0.2,0.2,0.3,0.3
											c-0.1-0.6,1.4-1.4,1.8-1.7c0.6-0.5,1.2-0.9,1.9-1.4C186.8,122.9,186.7,122.8,186.6,122.9L186.6,122.9z"/>
									</g>
								</g>
								<g>
									<g>
										<path class="st5" d="M195.2,116.6c-1,0.8-2.2,1.3-3.2,2.2c-0.9,0.7-1.7,1.6-2.4,2.5c-0.3,0.4-1.1,1.1-0.6,1.6
											c0.5,0.5,1.7-0.5,2.1-0.7c0.2-0.1,0-0.5-0.2-0.4c-0.1,0-1.5,0.8-1.4,0.8c0,0,1-1.4,0.9-1.3c0.5-0.6,1-1.2,1.6-1.7
											c1.1-1,2.5-1.7,3.5-2.9C195.4,116.7,195.3,116.5,195.2,116.6L195.2,116.6z"/>
									</g>
								</g>
								<g>
									<g>
										<path class="st5" d="M198.6,113.2c-1.2,2.6-3.8,3.9-5.8,5.8c-0.2,0.2,0.1,0.5,0.3,0.4c1.3-0.8,2.5-1.9,3.7-3
											c1-0.9,1.7-1.8,2.1-3.1C199,113.1,198.7,113,198.6,113.2L198.6,113.2z"/>
									</g>
								</g>
								<g>
									<g>
										<path class="st5" d="M193.4,108.6c-3.1,0.9-5.8,4.5-7.1,7.3c-0.1,0.2,0.2,0.4,0.3,0.2c1-1.3,1.8-2.8,2.8-4.1
											c1.1-1.4,2.5-2.4,4-3.3C193.6,108.7,193.5,108.6,193.4,108.6L193.4,108.6z"/>
									</g>
								</g>
								<g>
									<g>
										<path class="st5" d="M175.6,133c-0.9,1-1.9,2-2.9,2.8c-0.1,0.1,0,0.2,0.1,0.2c1.1-0.9,2-1.8,2.9-2.8
											C175.8,133.1,175.7,132.9,175.6,133L175.6,133z"/>
									</g>
								</g>
								<g>
									<g>
										<path class="st5" d="M169.6,138.2c-2.3,1.6-4.8,3.1-6.8,5c-0.1,0.1,0,0.3,0.2,0.2c2.4-1.3,4.7-3.3,6.8-5.1
											C169.8,138.3,169.7,138.1,169.6,138.2L169.6,138.2z"/>
									</g>
								</g>
								<g>
									<g>
										<path class="st5" d="M165.2,135.4c-1,0.9-1.9,1.7-2.9,2.6c-0.8,0.7-1.7,1.3-2.3,2.2c-0.4,0.5-0.8,1.7,0.2,1.7
											c0.1,0,0.2-0.2,0-0.2c-1.2-0.1,0.6-1.9,0.8-2.1c0.5-0.4,1-0.9,1.4-1.3c1-0.9,1.9-1.8,2.9-2.7
											C165.4,135.5,165.3,135.4,165.2,135.4L165.2,135.4z"/>
									</g>
								</g>
								<g>
									<g>
										<path class="st5" d="M200.2,115.3c-1.7,1.4-3.6,2.3-5.4,3.4c-1,0.6-2.3,1.3-2.6,2.5c0,0.2,0.1,0.4,0.3,0.3
											c1.3-0.4,2.6-0.7,3.5-1.8c0.1-0.1,0-0.4-0.2-0.3c-1.1,0.7-2,1.5-3.3,1.5c0.1,0.1,0.2,0.2,0.3,0.3c0.4-1.5,3-2.5,4.3-3.3
											c1.3-0.7,2.4-1.5,3.5-2.6C200.6,115.4,200.3,115.2,200.2,115.3L200.2,115.3z"/>
									</g>
								</g>
							</g>
						</g>
					</g>
				</g>
			</g>
			<g>
				<g>
					<g>
						<path class="st9" d="M104.4,65.8c1.1,2.3,3.2,4.1,4,6.5c0.5,1.6,0.4,3.2,0.5,4.9c0.2,2.2,1.7,4.7,2.5,6.8
							c1.9,5.7,8.3,46.6,7.9,53.2c-0.1,2.4-0.4,4.9-1.4,7.1c-1.5,3.2-4.7,5.4-8.1,6.4c-3.4,1.1-7.5,1.4-11,1.4
							c-4.6,0-8.3-0.2-12.6-1.6c-1.1-0.3-2.5-1.1-3.3-1.8c-0.9-0.8-1.4-2-1.8-3.2c-0.8-2.4-1.2-4.9-1.5-7.5
							c-1.5-10.7-3.1-49,0.2-56.5c0.3-0.7,0.6-1.4,0.6-2.1c0-0.7-0.2-1.3-0.5-1.9c-0.7-1.9-1.1-3.9-0.9-6c0.4-2.6,2-5,2-7.6
							c0-2.9-1.8-5.7-1-8.4c0.1-0.4,0.3-0.8,0.6-1.1c0.4-0.4,1-0.5,1.5-0.6c3-0.6,6.1-0.9,9.2-1.1c2.7-0.2,6.4-0.7,9-0.1
							C104.6,53.6,102.9,62.5,104.4,65.8z"/>
					</g>
					<g>
						<path class="st4" d="M97.2,52c1.5-0.6,3.2-1.6,3.4-3.2c0.1-1.1-0.6-2.2-1.5-2.8c-0.9-0.6-2-0.9-3.1-1.1
							c-3.3-0.5-14.6-0.3-14.7,4.9C81.3,55.9,94.2,53.1,97.2,52z"/>
					</g>
					<g>
						<path class="st5" d="M80.6,55.3c5.7,0.9,11.6,1,17.4,0.2c1.4-0.2,2.9-0.5,3.7-1.7c1-1.6,0-3.7-1-5.3c-0.2-0.3-0.4-0.6-0.7-0.8
							c-0.3-0.2-0.7-0.2-1-0.1c-2.8,0.2-5.6,0.6-8.3,1.4c-3.2,0.9-5.8,1.4-9.1,0.9C81,51.6,80.7,53.5,80.6,55.3z"/>
					</g>
					<g>
						<path class="st0" d="M82.3,79.7c0,0-0.1-3.5,2.4-2.8c2.5,0.6,3.6,3.3,4.1,1.9c0.6-1.4-0.7-3.9,2-3.4c2.7,0.5,2.3,2,2.6,2.1
							c0.3,0.1,3-0.5,1.7-3.6c-1.3-3,3.7-4.3,5.3-2.6c1.6,1.8,3.3,1.6,3.3,1.6s1.3-1.2,2,0.2c0.7,1.3,0.5,5.1,1.4,6.4
							c0.9,1.3,2.4,3.9,3.5,11.9s4.3,25.4,5,30.4c0.7,5,1.3,15,0.3,18.7c-1,3.7-7.3,6.2-10.2,6.4c-3,0.2-10.1,1-14.2,0.2
							c-4.1-0.8-7.9-1.4-8.9-3.9c-0.9-2.5-2.3-20.7-2.6-24.6c-0.3-3.9-0.7-22.8-0.3-26.9C80.1,87.6,82.3,79.7,82.3,79.7z"/>
					</g>
					<g>
						<path class="st0" d="M97.4,67.5c0.3,0.2,0.5,0.5,0.6,0.9c0.1,0.2,0,0.5-0.1,0.7c0,0.1-0.1,0.2-0.2,0.3c-0.4,0.4-1,0.5-1.6,0.5
							C94.3,69.8,95.7,66.2,97.4,67.5z"/>
					</g>
					<g>
						<path class="st0" d="M102.9,69.5c-0.9,1.3-3-0.3-2.3-1.6C101.3,66.3,103.8,68.2,102.9,69.5z"/>
					</g>
					<g>
						<path class="st0" d="M90.7,73.1c0,0.3,0.2,0.6,0.4,0.8c0.1,0.1,0.2,0.2,0.3,0.2c0.4,0.2,0.9,0,1.1-0.3
							C93.5,72.5,90.3,70.8,90.7,73.1z"/>
					</g>
					<g>
						<g>
							<path class="st9" d="M103.9,82.3c-0.1,0.4-3.2,0.6-3.6,0.7c-1.2,0.1-2.3,0.3-3.3,0.8c-0.3,0.2-0.4,0.7-0.2,0.9
								c1.3,1.6,3.4,1.7,5.3,1c1.4-0.5,3.3-1.7,3.3-3.4C105.4,81.5,104.2,81.6,103.9,82.3L103.9,82.3z"/>
						</g>
					</g>
					<g>
						<g>
							<path class="st9" d="M110.5,124.8c0.3,3.6,0.7,7.1,0.6,10.8c-0.1,2.1-0.3,3.9-1.9,5.3c-1.1,1-2.3,1.5-3.3,2.7
								c-0.6,0.7-0.1,1.7,0.8,1.7c9.8-0.5,6.9-14.8,4.6-20.6C111.1,124.2,110.4,124.3,110.5,124.8L110.5,124.8z"/>
						</g>
					</g>
					<g>
						<g>
							<path class="st9" d="M95.8,144.8c0.2,0.9,1.5,1.4,2.2,1.6c1,0.3,2.3,0.5,3.3-0.1c0.3-0.2,0.5-0.6,0.5-0.9
								c-0.1-1.2-1.6-1.1-2.4-1.1c-0.6,0-1.3-0.1-1.9-0.1c-0.6,0-0.9-0.2-1.4,0.1C95.8,144.3,95.8,144.6,95.8,144.8L95.8,144.8z"/>
						</g>
					</g>
					<g>
						<path class="st4" d="M106.9,57.9c0.1,0.6,0.1,1.3-0.1,1.8c-0.3,0.7-1,1.1-1.7,1.4c-7.4,3.7-16.2,4.7-24.2,2.7
							c0-0.4,0-0.8,0-1.2c6.6,1.4,13.5,0,20.1-1.6c1.4-0.3,3-0.8,3.8-2c0.7-1.1,0.5-2.7-0.1-3.8c-0.7-1.2-1.7-2-2.8-2.9
							c-0.6-0.5-1.7-1.6-0.5-2.1c0.8-0.4,2.1,1.1,2.5,1.6C105.4,53.5,106.5,55.6,106.9,57.9z"/>
					</g>
					<g>
						<path class="st4" d="M77.3,60.2c-0.1,2,0.1,4,0.3,6c0.2,1.5,0.4,3.3,1.7,4.2c-0.1-2.6-1.4-4.9-1.6-7.5
							c-0.2-2.4,0.7-4.8,1.6-7.1c1.1-2.7,2.3-5.3,3.2-8.1C80.1,46.7,77.2,58.2,77.3,60.2z"/>
					</g>
					<g>
						<g>
							<path class="st10" d="M117.2,120.4c0,0.1,0,0.2,0,0.3c-0.7,0.2-1.4,0.4-2.2,0.6c-4.4,1.2-8.9,1.7-13.4,3.1
								c-4.5,1.4-9.1,2.5-13.6,3.7c-2.2,0.6-5.3,2.3-7.8,2.9c-0.2-3.9-0.3-7.7-0.4-11.6c-0.1-6.5-0.4-13.4-1.1-19.8
								c2.8-1.1,5.8-3,8.3-3.9c4.3-1.5,8.6-3.3,13-4.7c4-1.3,5.4-1.5,9.4-2.8c0.8-0.3,2.2-0.8,3.1-1c0.2,2,1.5,6,1.6,7.9
								c0.2,3.1,2,6,2.3,9.1C117.3,110.5,116.6,114,117.2,120.4z"/>
						</g>
						<g>
							<g>
								<path class="st0" d="M89.9,103c-0.3,0.8-0.2,1.3,0,2.1c0.1,0.3,0.1,0.7,0.2,1c0.1,0.4,0.4,0.6,0.6,0.9
									c0.5,0.8,2,0.6,2.2-0.4c0-0.4,0.2-0.7,0.2-1.1c0-0.3-0.1-0.7-0.2-1c-0.2-0.7-0.3-1.3-0.8-1.9
									C91.3,102.1,90.1,102.2,89.9,103L89.9,103z"/>
							</g>
						</g>
						<g>
							<g>
								<path class="st0" d="M100.6,101.2c0.1,0.3,0.1,0.6,0.1,0.9c0,0,0.1,0.5,0.1,0.2c0,0.1,0,0.2,0,0.3c0.1,0.9,0.9,2,2,1.6
									c1.8-0.7,1.1-3.2-0.1-4c-0.4-0.3-0.9-0.4-1.4-0.2C100.9,100.2,100.5,100.7,100.6,101.2L100.6,101.2z"/>
							</g>
						</g>
						<g>
							<g>
								<path class="st0" d="M90.4,116.1c3.3,1.6,7.1,1.9,10.6,0.9c2.9-0.7,7.7-2.8,8.2-6.1c0.1-0.7-0.5-1.4-1.3-1.1
									c-1.4,0.4-2.2,1.5-3.3,2.4c-1.2,1-2.6,1.7-4.1,2.3c-3.2,1.1-6.5,1.2-9.7,0.4C90.1,114.7,89.7,115.7,90.4,116.1L90.4,116.1z"
									/>
							</g>
						</g>
					</g>
				</g>
				<g>
					<g>
						<g>
							<path class="st6" d="M63.1,98c1.1,1.4,15.4,6.1,16.5,4.9c1.1-1.2,6.8-21.1,6.5-23.2c-0.3-2.1-4-9.1-5.8-10.1
								c-1.8-0.9-10.5,3.9-11.6,5.8C67.6,77.3,62,96.6,63.1,98z"/>
						</g>
						<g>
							<path class="st7" d="M49.7,87.8c0.4,1.9,12.2,13,13.9,12.3c1.7-0.7,16.3-17.4,16.9-19.7c0.6-2.2,0.3-10.7-1.1-12.5
								c-1.4-1.7-12-1-13.9,0.3C63.6,69.7,49.2,86,49.7,87.8z"/>
						</g>
						<g>
							<g>
								<path class="st4" d="M74.3,72c0.1,1.4,1.9,1.8,2.8,1c0.5-0.5,0.6-1.1,0.5-1.7c-0.2-0.6-0.7-1.3-1.3-1.4
									c-0.3-0.1-0.6,0.2-0.5,0.5c0.2,0.6,1.3,0.9,0.7,1.7c-0.5,0.6-1.1,0.2-1.5-0.3C74.8,71.5,74.3,71.7,74.3,72L74.3,72z"/>
							</g>
						</g>
						<g>
							<g>
								<path class="st4" d="M75.8,71.1C74.9,68.4,76.1,66,78,64c2-2.1,4.8-2.7,7.5-1.7c4.6,1.6,5.3,10.6,0.5,12.4
									c-0.2,0.1-0.1,0.4,0.1,0.4c2.7-1,4.5-3.5,4.6-6.4c0-3.3-1.1-6.7-4.5-7.7c-2.9-0.9-6.5,0.2-8.6,2.3c-2,2-3.8,5.3-2.2,8
									C75.5,71.6,75.9,71.4,75.8,71.1L75.8,71.1z"/>
							</g>
						</g>
						<g>
							<g>
								<path class="st11" d="M72.6,72.6C71.3,74,70.7,76,70.6,78c-0.1,2,0.1,4,0,5.9c-0.1,2.2-0.7,4.5-2.6,5.8
									c-1.5,1-3.6,1.5-5.3,0.9c-4.3-1.4-4-7.1-1.4-9.9c1.2-1.3,2.7-2.3,4.2-3.3c2.4-1.5,4.7-3.1,7.1-4.6L72.6,72.6z"/>
							</g>
							<g>
								<g>
									<path class="st12" d="M72.4,72.1c-2.8,1.9-2.5,6.2-2.5,9.2c0.1,2.1,0.2,4.4-0.9,6.3c-1.3,2.3-4.8,3.4-7.1,2.1
										c-3.2-1.7-2.4-6.4-0.4-8.6c3-3.5,7.8-4.9,11.1-8c0.2-0.2-0.1-0.7-0.4-0.6c-2.8,1.1-5.3,3.2-7.8,4.9
										c-1.7,1.1-3.5,2.4-4.6,4.2c-1.5,2.6-1.8,6.5,0.7,8.6c2.9,2.5,8,1.1,9.7-2.2c1-1.9,1-4.2,1-6.3c0-1.6-0.1-3.2,0.2-4.7
										c0.3-1.6,1-2.8,1.7-4.2C73.3,72.3,72.8,71.9,72.4,72.1L72.4,72.1z"/>
								</g>
							</g>
						</g>
						<g>
							<g>
								<path class="st12" d="M62.6,93.7c-1-5.3,1.8-9.7,4-14.2c0.2-0.4-0.3-0.8-0.6-0.4C63.4,82.7,60,89.2,62,93.8
									C62.1,94.2,62.7,94.1,62.6,93.7L62.6,93.7z"/>
							</g>
						</g>
					</g>
				</g>
			</g>
			<g>
				<g>
					<g class="st13">
						<g>
							<path class="st0" d="M91.1,120.7c0.9,1.7,1.4,3.7,1.9,5.6c0.6,2.1,1,4.1,1.4,6.2c0.3,1.4,0.6,2.7,0.1,4.1
								c-0.5,1.3-1.7,2.1-2.8,2.9c-6,3.9-12.8,6.7-19.4,9.4c-3.4,1.4-6.7,2.7-10.1,4.1c-3,1.2-6,2.5-9.2,2.6c-3.2,0.1-6-1.2-8.8-2.5
								c-3.1-1.6-6.4-3-9.5-4.8c-2.7-1.6-4-3.8-5-6.8c-1.2-3.4-2.3-6.9-3.4-10.4l0,0L91.1,120.7z"/>
						</g>
					</g>
					<g>
						<g>
							<path class="st14" d="M26.5,131.2c1,3.5,2.2,6.9,3.4,10.4c1,2.9,2.3,5.1,5,6.8c3,1.8,6.3,3.2,9.5,4.8
								c2.8,1.4,5.6,2.7,8.8,2.5c3.2-0.1,6.3-1.4,9.2-2.6c3.4-1.4,6.7-2.7,10.1-4.1c6.6-2.7,13.4-5.5,19.4-9.4
								c1.1-0.7,2.4-1.5,2.8-2.9c0.5-1.4,0.1-2.7-0.1-4.1c-0.4-2.1-0.9-4.2-1.4-6.2c-0.5-1.9-1-3.9-1.9-5.6
								c-0.2-0.3-0.7-0.2-0.7,0.2c0.4,3,1.6,6,2.4,8.9c0.4,1.5,0.9,2.9,1.1,4.4c0.2,1.2,0,2.1-0.9,3c-0.6,0.5-1.5,0.9-2.2,1.3
								c-5.7,3.3-11.6,6-17.7,8.4c-3,1.2-6,2.4-9,3.5c-2.7,1-5.3,2.2-8.1,2.9c-3.3,0.8-6.1,0.5-9.2-0.9c-2.9-1.3-5.7-2.5-8.5-3.8
								c-1.6-0.7-3.3-1.4-4.6-2.5c-1.4-1.3-2-3-2.7-4.7c-1.2-3.4-2.5-6.8-3.9-10.2C26.9,130.6,26.3,130.8,26.5,131.2L26.5,131.2z"/>
						</g>
					</g>
					<g>
						<g>
							<path class="st14" d="M47.4,149.9c-0.5-0.6-1.2-1.1-1.6-1.7c-1-1.5,0.9-1.9,1.9-2.4c1.9-1,3.9-1.7,6-2.5
								c4.1-1.6,8.3-2.9,12.5-4.3c4.2-1.4,8.3-2.7,12.5-3.9c4-1.2,8.4-2.4,11.9,0.6c0-0.4,0.1-0.7,0.1-1.1
								c-6.5,3.8-13.5,6.2-20.1,9.7c-0.4,0.2-0.1,0.8,0.3,0.7c7.2-2,13.8-5.9,20.5-9.2c0.4-0.2,0.4-0.8,0.1-1.1
								c-2.9-3.4-8-2.6-11.8-1.5c-5.3,1.6-10.5,3.3-15.7,5c-5,1.6-10,3.1-14.7,5.5c-1.3,0.6-2.5,1.3-3.7,2c-0.5,0.3-1.2,0.6-1.5,1.2
								c-0.6,1.5,1.8,3,2.8,3.5C47.1,150.6,47.6,150.3,47.4,149.9L47.4,149.9z"/>
						</g>
					</g>
					<g>
						<g>
							<path class="st14" d="M30.6,136.5c0.5,4,3.2,7.9,7,9.3c0.3,0.1,0.5-0.3,0.3-0.5c-1.4-1-3-1.6-4.2-2.9c-1.6-1.7-1.8-3.9-2.6-6
								C31,136.2,30.6,136.2,30.6,136.5L30.6,136.5z"/>
						</g>
					</g>
					<g>
						<g>
							<path class="st14" d="M88.3,126c0.8,2.1,1.3,4.3,2.7,6.1c0.1,0.2,0.5,0.2,0.6-0.1c0.4-2.4-0.6-4.6-1.7-6.8
								C89.5,124.4,87.9,125.1,88.3,126L88.3,126z"/>
						</g>
					</g>
					<g>
						<g>
							<path class="st7" d="M24.4,126.7c0.8,5.1,7.2,8.1,11.8,9.9c4.9,1.9,8.7,3.2,14.1,1.9c9.5-2.2,19.2-6.4,28.1-10.2
								c2.1-0.9,4.4-1.8,6.5-2.7c1.4-0.6,4.7-1.9,5.6-3.1c2.9-3.7-3.9-6.6-6.2-8.3c-3.2-2.2-6.1-4.9-9.4-7
								c-4.2-2.6-9.9-0.5-14.4,0.7c-6.4,1.8-12.3,4.4-18.4,7c-5.3,2.3-11.7,4.2-16.2,7.6C24.9,123.4,24.2,123.8,24.4,126.7z"/>
						</g>
						<g>
							<g>
								<path class="st6" d="M39.9,119.3c5-1.7,9.9-3.4,14.8-5.2c2.4-0.9,4.9-1.8,7.3-2.7c2.5-0.9,5.1-1.7,7.8-1.3
									c2.2,0.3,4.2,1.4,5.9,2.7c1,0.8,1.9,1.7,2.7,2.6c0.9,1,2,2.1,2.6,3.2c0.4,0.7,0.5,0.9-0.2,1.5c-0.5,0.3-0.9,0.7-1.4,1
									c-1,0.6-2,1.2-3,1.7c-2.2,1.2-4.8,1.7-7,2.9c-0.6,0.3-0.4,1.4,0.4,1.4c2.7-0.2,5.6-1.8,7.9-3.2c1.2-0.7,2.3-1.4,3.4-2.3
									c0.7-0.5,1.7-1.1,1.8-2c0.1-0.7-0.3-1.3-0.8-1.9c-0.9-1.2-1.9-2.4-3-3.5c-1.7-1.8-3.7-3.4-6-4.4c-5.2-2.2-10.2,0.1-15.1,1.9
									c-6.1,2.3-12.1,4.7-18.2,7.2C39.5,119,39.6,119.4,39.9,119.3L39.9,119.3z"/>
							</g>
						</g>
						<g>
							<g>
								<path class="st6" d="M61.4,115.4c-4,1.3-8,2.5-11.9,4c-3.1,1.2-6.9,2.5-9.3,4.9c-0.6,0.6-1.2,1.5-1,2.4
									c0.3,1.3,1.8,1.9,2.8,2.6c1.3,0.8,3,2.5,4.5,2.6c1.4,0.1,3.3-1.1,4.4-1.7c0.3-0.1,0.1-0.6-0.2-0.5c-1.4,0.5-3.4,1.9-4.9,1.3
									c-1.2-0.4-2.5-1.6-3.6-2.3c-0.6-0.4-1.9-1-2.3-1.7c-0.5-1.1,0.3-1.9,1-2.5c1-0.9,2.3-1.6,3.5-2.2c5.4-2.9,11.4-4.3,17-6.5
									C61.8,115.6,61.7,115.3,61.4,115.4L61.4,115.4z"/>
							</g>
						</g>
						<g>
							<g>
								<path class="st6" d="M37.3,118.7c-2,0.2-3.7,1.3-5.3,2.3c-1.4,0.9-3.1,1.7-4.1,3.1c-1.8,2.5-0.3,4.8,1.8,6.4
									c2.3,1.7,4.9,3.2,7.5,4.5c1.2,0.6,2.4,1.2,3.6,1.8c0.8,0.4,1.8,0.9,2.7,0.8c0.5,0,0.9-0.7,0.5-1.1c-1.2-1-3.2-1.5-4.6-2.1
									c-2.3-1-4.5-2-6.6-3.3c-1.9-1.1-5.3-3-4.1-5.6c1.6-3.5,6.2-3.9,9-6C37.8,119.2,37.7,118.6,37.3,118.7L37.3,118.7z"/>
							</g>
						</g>
						<g>
							<g>
								<path class="st6" d="M76.6,110.3c1.5,1.7,3.6,2.9,5.2,4.6c1.2,1.3,2.8,3.7,4.7,4c0.6,0.1,1.2-0.4,1-1
									c-0.6-1.9-3.1-2.9-4.6-3.9c-2-1.2-3.8-3-5.9-4.1C76.6,109.8,76.4,110.1,76.6,110.3L76.6,110.3z"/>
							</g>
						</g>
						<g>
							<g>
								<path class="st6" d="M45.2,136c1.5,1.1,4,1,5.7,0.8c2.3-0.3,4.7-1,6.2-2.8c0.1-0.2,0.1-0.5-0.2-0.5c-1.8,0-3.5,0.6-5.2,1.1
									c-1.9,0.5-4.3,1.8-6.2,0.9C45.3,135.3,44.9,135.8,45.2,136L45.2,136z"/>
							</g>
						</g>
					</g>
				</g>
			</g>
			<g>
				<g>
					<g>
						<path class="st15" d="M46.2,176.1c-8.1,12.7-13,28.7-22.3,40.5c5.1,0.9,38.8-0.2,45.8-0.1c48.9,0.9,97.8,1.7,146.6-0.7
							c-3.3-6.4-6.8-12.7-10.2-19c-3.3-5.9-6.5-11.8-9.8-17.6c-0.4-0.7-0.8-1.4-1.4-1.9c-0.9-0.8-60.3-0.3-66.5-0.3
							C118.8,176.9,64.4,176.2,46.2,176.1"/>
					</g>
					<g>
						<path class="st16" d="M173.2,104.7c-0.1-1.3-0.3-2.5-0.7-3.7c-0.5-1.2-1.4-2.2-2.6-2.6c-2-0.7-4.2,0.5-6,1.5
							c-1.9,1-4.3,1.9-6.1,0.6c-1.2-0.9-1.7-2.6-3.1-3.1c-1.1-0.4-2.3,0.1-3.3,0.7c-1,0.6-1.8,1.4-2.9,1.8c-1.3,0.4-2.7,0.1-3.7-0.7
							c-1.3-1-1.9-2.9-3.4-3.5c-1.5-0.6-3.2,0.2-4.7,1c-1.5,0.8-3.3,1.4-4.7,0.5c-1.3-0.9-1.4-2.8-1.8-4.3c-0.6-3-2.7-5.6-5.5-6.8
							c-2.8-1.2-6.2-0.9-8.7,0.8c-2.5,1.7-4.2,4.5-3.8,7.5c-0.9,8.4,2.6,11.5,4.3,12.6c0.3,0.3,0.7,0.7,1.3,1.1
							c2.2,1.5,5.3,2.1,8.1,2.3c3.3,0.3,5.3-0.7,6.4-1c0.9-0.3,1.8-0.7,2.8-0.9c1.6-0.3,3.2,0.4,4.6,1.2c1.4,0.8,2.7,1.9,4.2,2.5
							c1.9,0.8,4.2,0.8,6.1,0c0.5-0.2,1-0.5,1.6-0.6c1.5-0.4,3,0.1,4.4,0.8c1.3,0.7,2.6,1.7,4,2.3c2.6,1.1,5.6,0.9,8.2-0.2
							c1.7-0.7,3.3-1.8,4.1-3.4c0.5-0.9,0.6-2.1,0.4-3.1c0.1-0.2,0.3-0.4,0.3-0.6C173.3,106.4,173.2,105.5,173.2,104.7z"/>
					</g>
					<g>
						<path class="st17" d="M170.4,195.4c8.2,1.5,16.8,1.3,25-0.6c1.5-0.3,3-0.7,4.5-0.4c1.5,0.4,2.7,1.7,2.5,3.2
							c-1.4,9.7-20.6,12.6-22.6,12.5c-1.8,0-11.9-0.9-14.9-1.9C166.7,204.1,167.7,199,170.4,195.4"/>
					</g>
					<g>
						<path class="st17" d="M72,193.1c-8.3,1.4-16.8,1.1-25-0.9c-1.5-0.4-3-0.8-4.5-0.4c-1.5,0.3-2.8,1.7-2.6,3.2
							c1.2,9.7,20.4,12.9,22.5,12.9c1.8,0,11.9-0.8,14.9-1.7C75.5,201.9,74.7,196.8,72,193.1"/>
					</g>
					<g>
						<path class="st17" d="M118.9,103.9c-4.1-0.6-5.3-5.7-4.8-9.9c0.4-3,2.1-6.3,5.1-6.8c2.1-0.3,4.2,0.9,5.4,2.7
							c1.2,1.8,1.6,3.9,1.8,6.1c0.1,1.7,0.1,3.4-0.5,4.9c-0.6,1.5-2.2,2.9-3.9,3c0,1.6-0.2,5.9-0.2,7.5c6.5,2.9,13.6,3.8,19,8.6
							c-6.3,1.1-2.8,16.9-22.2,16.7c-14.8-0.2-13.2-15.3-18.8-17.2c0.7-1.7,12.8-5.8,18.9-8.1C118.6,108.8,118.7,106.6,118.9,103.9"
							/>
					</g>
					<g>
						<path class="st18" d="M103.3,152.8c-4.3,6.8-29.7,9.9-36.2,11c9.7,3.4,43,16.6,53.3,16.8c11.4,0.2,43.9-12.3,54.7-16
							c-10.8-1.1-31-6.1-36.7-12.8c-4.3,1-11,1.4-14.2,1.3C115.6,153,111.8,152.9,103.3,152.8"/>
					</g>
					<g>
						<path class="st16" d="M93.9,160c-4.7-4.4-9-9.4-14.6-12.7c-6.6-3.9-14.6-5.2-22.1-3.5c-3.3,0.7-6.6,2.1-8.9,4.6
							c-3.2,3.5-4,8.9-2.9,13.5c1.1,4.7,3.9,8.8,6.9,12.5c10.5,12.6,25.1,21.2,40.6,26.5c15.5,5.4,31.8,7.7,48.1,9.3
							c12.3,1.2,24.6,2,37,1.6c0.5-5.9,1-11.7,1.5-17.6c-9.5,0.2-19-1.1-28.1-3.8C151.5,190.4,110.2,175.4,93.9,160z"/>
					</g>
					<g>
						<path class="st16" d="M148.3,159.5c4.8-4.3,9.2-9.2,14.7-12.5c6.6-3.8,14.7-5,22.1-3.2c3.3,0.8,6.6,2.2,8.9,4.8
							c3.2,3.6,3.9,8.9,2.7,13.6c-1.2,4.6-4,8.7-7.1,12.4c-10.7,12.4-25.4,20.8-41,26c-15.5,5.1-31.9,7.2-48.2,8.6
							c-12.3,1-24.7,1.6-37,1.1c-0.4-5.9-0.8-11.7-1.3-17.6c9.5,0.3,19-0.8,28.1-3.4C90.3,189.1,131.7,174.6,148.3,159.5z"/>
					</g>
					<g>
						<path class="st19" d="M109.6,114.5c0.4,2.4,1.2,5.8,2.2,8.1c0.6,1.4,1.4,2.8,2.6,3.8c3.1,2.8,8.3,2.1,11.4-0.7
							c3.1-2.8,4.2-7.3,3.9-11.5c0.9,0.2,3.1,0.7,4.1,0.9c-0.5,2.3-0.5,6.3-0.8,8.6c-1.2,9.5,2.1,10.7,2.2,11.4
							c0.7,7,0.9,11.2,3.1,16.8c-11.7,3.5-26,2.6-35.4,1.6c1-7.1,1.4-10.9,1.2-18.5c1.4-0.6,3.1-4.3,3.1-10c0-3-1.3-6.3-1.7-9.2
							C106.4,115.2,108.6,114.5,109.6,114.5"/>
					</g>
					<g>
						<path class="st16" d="M114.3,89.9c-0.7,0.6-0.8,1.8-0.3,2.6c0.5,0.8,1.4,1.2,2.4,1.4c0.9,0.2,1.9,0.2,2.8,0.2
							c3.8,0.3,7.7,2.5,9.2,6c0.4-4-1-8.2-3.7-11.1c-1.1-1.2-2.6-2.2-4.2-2.3c-1-0.1-2,0.2-3,0.6c-1.5,0.5-3.1,1.4-3.7,2.9"/>
					</g>
					<g>
						<path class="st17" d="M114.3,97.3c-0.5-0.1-1,0-1.4,0.3c-0.4,0.3-0.6,0.8-0.4,1.3c0.2,0.4,0.5,0.6,0.9,0.6
							c0.4,0.1,0.8,0,1.2-0.1"/>
					</g>
					<g>
						<path class="st17" d="M126.3,97.4c0.5,0,1,0,1.4,0.3c0.4,0.3,0.6,0.9,0.4,1.3c-0.2,0.4-0.5,0.6-0.9,0.6
							c-0.4,0.1-0.8,0-1.2-0.1"/>
					</g>
				</g>
				<g>
					<path class="st17" d="M104.3,117c-5.4,2.5-10.4,5.9-13.8,9.9c-1.1,1.3-2.1,2.6-3,3.9c-3,4.2-6.2,8.7-5.8,13.4
						c0.1,1.1,0.4,2.3,1.2,3.3c0.8,1,2.2,1.7,3.8,1.8c1.4,0.1,2.8-0.4,3.9-1c4.5-2.3,7.3-6,9.9-9.6c2-2.8,5-3.3,7-6.1
						c1.1-1.6-0.3-4,0-5.7C107.9,123.7,107.7,118.9,104.3,117L104.3,117z"/>
				</g>
				<g>
					<path class="st17" d="M135,116.6c2.8,1.1,5,2.4,7.2,4.2c0.7,0.6,1.3,1.3,2,2c4.6,5.2,9.3,10.5,11.7,16.7
						c0.5,1.1,0.8,2.3,0.7,3.5c-0.3,2.6-3.1,4.8-6.2,4.9c-0.5,0-1.1,0-1.6-0.2c-0.5-0.2-1-0.5-1.4-0.8c-3.9-3-7.8-6-10.2-9.9
						c-1.2-1.8-3-2.6-3.8-4.6c-1.1-2.7-0.7-5.2-0.5-8c0.2-2.2,0.8-5.7,1.5-7.9c0-0.1,0.1-0.2,0-0.3c-0.1-0.1-0.4,1.2-0.3,1.2"/>
				</g>
				<g>
					<g>
						<path class="st9" d="M156.2,172.8c-0.2,3.1-0.8,6.2-2,9c-1.2,2.6-2.9,4.9-4.7,7c-6.8,7.8-15.8,12.7-26.1,14.5
							c-10.3,1.7-22.5-2.3-29.6-10c-6.7-7.3-8.6-11.9-9.6-21.5c-0.4-4-0.7-12.2,0.5-16.2c0.1-0.3,0.2-0.6,0.3-0.9
							c1.8-4.3,5.3-8.6,8.4-11.9c3-3.3,6.5-6.2,10.3-8.4c3.1-1.8,6.5-3.2,10.1-3.9c2.6-0.5,5.2-0.7,7.8-0.6
							c4.1,0.2,8.3,1.2,12.1,2.9c4.3,1.9,8.3,4.6,11.6,8.1c0.5,0.6,1,1.1,1.5,1.7c5.7,6.8,8.9,15.7,9.4,24.6
							C156.4,169.1,156.4,170.9,156.2,172.8z"/>
					</g>
					<g>
						<path class="st20" d="M119.8,176.7c-0.2,0.6-0.3,1.3-0.3,2c0,0.8-0.8,1.8-1.2,2.5c-0.4,0.8-1.1,1.3-1.6,2
							c-0.5,0.7-1.4,1.2-1,2.2c0.3,0.6,0.7,0.6,0.5,1.2c-0.2,0.6-0.7,0.9-1,1.4c-0.5,0.7-0.8,1.6-1.2,2.3c-0.5,0.9-0.6,2-0.6,3
							c0,1.1-0.4,3.4,0.3,4.2c0.1,0.1,0.3,0.1,0.4,0.2c0.3,0.3,0.4,0.7,0.7,1c0.2,0.2,0.6,0.4,0.8,0.6c0.4,0.3,0.7,0.5,1,0.9
							c0.2,0.3,0.3,0.5,0.6,0.7c-0.6,0-1.3,0.1-1.9-0.2c-0.6-0.3-1.2-0.6-1.7-0.9c-0.7-0.4-1.3-1.1-2-1.4c-0.7-0.3-1.4-0.4-2.1-0.7
							c-1.1-0.5-0.8-1.7-1.2-2.6c-0.3-0.6-1-0.9-1.4-1.5c-0.4-0.6-0.6-1.2-0.9-1.8c-0.1-0.3-0.2-0.4-0.3-0.7
							c-0.1-0.7,0.2-0.5,0.2-0.9c0.1-0.8,0-1.5-0.4-2.2c-0.2-0.4-0.3-0.7-0.5-1.1c-0.3-0.9-0.7-1.3-1.6-1.7c-1-0.5-2.4,1.2-3.2,0.4
							c-0.2-0.2,0-2.7-0.2-2.8c-0.3-0.2-0.5-0.1-0.8-0.4c-0.5-0.4-1-0.9-1.5-1.4c-0.3-0.3-0.8-0.5-1-0.9c-0.2-0.5-0.3-1.1-0.4-1.6
							c-1-0.3-2.4-0.6-1.9-1.9c0.2-0.5,1.4-1.6,1.9-1.8c0.9-0.3,1.9,0.1,2-1.1c0-0.9,0-1.1-0.8-1.5c-0.5-0.2-1-0.4-1.4-0.8
							c-0.5-0.4-0.7-0.9-1.1-1.4c-0.4-0.4-1-0.7-1.4-1c-0.8-0.6-1.2-1-1.6-1.9c-0.5-1.1-1-2-1.3-3.1c-0.4-1.5-1.4-2.4-2.7-3.1
							c-1-0.5-1.1-1-1.5-2c-0.4-1.2-1.3-2.1-2-3.1c0.1-0.3,0.2-0.6,0.3-0.9c1.8-4.3,5.3-8.6,8.4-11.9c3-3.3,6.5-6.2,10.3-8.4
							c0.5,0.5,1.1,1,1.7,1.5c0.7,0.5,1.5,1.1,2.3,1.3c0.8,0.2,1.7,0.2,2.2,0.8c0.4,0.5,0.5,0.6,1.1,0.9c0.4,0.2,0.6,0.2,1.1,0.3
							c0.1,0,0.2,0.2,0.3,0.2c0.2,0.1,0.4,0,0.6,0.1c0.5,0.3,0.4,0.6,0.4,1.1c0,0.9-0.5,1.3-1.2,1.9c-0.3,0.2-0.5,0.3-0.8,0.5
							c-0.4,0.3-0.6,0.3-0.8,0.8c-0.2,0.3-0.3,0.8-0.6,1.1c-0.2,0.2-0.8,0.6-1.2,0.2c-0.2-0.2,0-0.9-0.1-1.2c-0.1-0.5-0.7-0.8-1-1.1
							c-1.5-1.1-3.8-0.5-5.3,0.4c-0.7,0.4-1.3,0.8-1.9,1.3c-0.2,0.2-0.4,0.4-0.6,0.6c-0.2,0.2-0.5,0.6-0.6,0.8
							c-0.1,0.3,0.1,0.6,0,0.9c-0.1,0.4-0.6,0.5-0.9,0.8c-0.3,0.3-0.6,0.8-0.7,1.3c-0.3,1.3,0.3,1.5,1.4,1.8c1,0.2,2.1-0.2,3,0.1
							c0.8,0.2,1.2,1.4,2,1.4c0.5,0,1-0.5,1.3-0.9c0.3-0.2,0.8-0.5,1-0.8c0.4-0.6,0-2-0.6-2.3c1.1-0.3,2.2-0.3,3.3-0.3
							c0.6,0,1.1-0.1,1.6,0.3c0.5,0.4,0.8,0.6,1.5,0.8c0.7,0.3,1.5,0.7,2,1.3c0.2,0.2,0.3,0.5,0.5,0.7c0.3,0.3,0.8,0.5,1.1,0.8
							c0.3,0.4,0.5,1.4,0.3,1.9c-0.2,0.7-0.9,0.9-1.5,1.3c-0.3,0.2-0.8,0.6-1.1,0.7c-0.3,0.1-0.7,0-1,0.1c-0.7,0.2-1.1,0.9-1.8,1
							c-0.6,0.1-1.3,0-2,0c-0.9,0-1.4,0.1-2.2,0.6c-0.7,0.4-0.9,0.6-1.7,0.6c-0.9,0-1.3,0.4-2.1,0.6c-0.8,0.2-1.3,0.5-2,1
							c-0.6,0.4-1.3,0.6-1.7,1.2c-0.5,0.7-1,1.7-1.1,2.5c-0.2,0.8,0.3,1.7,0.3,2.5c0,1.3-0.2,2.7,0.3,3.8c0.5,0.9,1,2.1,1.9,2.7
							c0.7,0.4,1.3,0.2,2,0c0.7-0.2,1.4-0.2,2.1-0.3c0.7-0.1,1.3-0.3,2.1-0.3c0.3,0,0.6,0,0.8,0c0.4,0,0.6,0.2,1,0.3
							c0.7,0.2,1.6,0,2.2,0h2.8c0.8,0,1.8-0.1,2.6,0c0.8,0.1,1.7,0.5,2.5,0.8c1,0.3,1.6,0.8,1.7,1.9
							C120.7,175.6,120,175.9,119.8,176.7z"/>
					</g>
					<g>
						<path class="st20" d="M133.8,132.9c0,0.2,0,0.5-0.1,0.7c-0.3,1.4-1.2,2.8-2.1,3.9c-0.6,0.8-1.4,1.3-2.1,2.1
							c-0.7,0.7-1.5,1.8-2.5,2c-1.1,0.2-2.4-0.1-3.3-0.6c-0.6-0.3-1-0.5-1.5-1c-0.5-0.6-0.5-1-0.5-1.8c0-0.6-0.1-1.3,0-1.9
							c0.1-0.9,0.3-1.6,0.3-2.5c0-0.9,0.2-2,0-2.8c-0.1-0.3-0.2-0.5-0.3-0.8C125.8,130.2,129.9,131.2,133.8,132.9z"/>
					</g>
					<g>
						<path class="st20" d="M156.3,167.3c-0.7,0.5-1.4,1-2.2,1.4c-0.7,0.4-1.4,0.7-2,1.3c-1.1,1-1.8,2.4-2.4,3.7
							c-0.3,0.7-0.7,1.5-0.9,2.2c-0.1,0.7,0,1.5,0,2.2c0,0.6-0.2,0.9-0.3,1.4c-0.1,0.4,0.1,0.7,0,1.1c-0.2,0.9-0.1,1.9-0.5,2.8
							c-0.2,0.5-0.5,0.8-0.9,1.1c-0.2,0.2-0.2,0-0.3,0.3c-0.1,0.2,0,0.7,0,0.9c0,0.6-0.2,1.9-0.6,2.4c-0.3,0.4-0.9,0.5-1.2,0.7
							c-0.2,0.1-0.4,0.3-0.6,0.5c-0.5,0.4-1.1,0.7-1.6,1c-0.7,0.4-1.5,0.5-2.3,0.3c-0.4-0.1-0.5-0.3-1.1-0.3c-0.5,0-1.1,0.1-1.6,0
							c-0.2-0.9,0.1-1.9,0.3-2.8c0.1-0.7,0.4-1.5,0.6-2.2c0.1-0.4,0.2-0.6,0.3-1c0.1-0.4,0-0.9,0-1.3c0-0.8,0-1.4-0.3-2.1
							c-0.3-0.6-0.7-1.1-1.2-1.7c-0.5-0.6-1.1-1.1-1.3-1.8c-0.2-0.8,0.5-1.7,0.6-2.5c0-0.4,0-0.9,0-1.3c-0.1-0.5-0.4-0.8-0.5-1.3
							c-0.3-1.1-0.5-2.6-1.6-3.2c-0.7-0.4-1.3-0.5-2-0.7c-0.4-0.1-0.5-0.3-0.8-0.5c-0.2-0.1-0.5-0.2-0.6-0.3
							c-1.3-0.9-1.7-2.1-1.2-3.6c0.2-0.6,0.3-1.4,0.9-1.9c0.5-0.4,1.2-0.6,1.8-0.9c1.2-0.7,2.3-1.4,3.7-1.4c1.4,0,3.1,0.3,4.5-0.1
							c1.3-0.3,2.6-1,3.8-1.3c0.8-0.2,1.4-0.2,1.5-1.1c0.1-0.7,0-1.2-0.4-1.7c-0.5-0.6-0.8-0.6-1.5-0.4c-0.6,0.2-1.1,0.1-1.7,0.4
							c-0.6,0.3-1,0.6-1.7,0.6c-0.7,0-1.3,0-2-0.3c-0.6-0.3-1-0.5-1.7-0.6c-0.3-0.1-0.6-0.3-0.8-0.4c-0.3-0.1-0.6,0-1-0.1
							c-0.5-0.1-0.4-0.3-0.4-0.9c0-0.4,0-0.6,0.1-1c0.2-0.5,0.7-0.8,1.1-1.2c0.5-0.5,1-0.9,1.6-1.3c0.8-0.5,1.3-1.2,2-1.8
							c0.6-0.5,1.2-0.6,1.9-0.9c0.6-0.2,1.2-0.6,1.8-0.9c0.8-0.4,1.2-1.2,1.7-1.8c0.5-0.5,0.8-1.3,1.2-1.9c0.2-0.3,0.3-0.5,0.4-0.8
							C152.6,149.5,155.8,158.3,156.3,167.3z"/>
					</g>
					<g>
						<g>
							<g>
								<path class="st21" d="M126.3,157c0.7,0.7,1.5,0.8,2.4,0.9c1.4,0.1,2.8,0.2,4.1-0.2c1.1-0.3,2.1-0.8,3-1.4
									c1-0.7,1.5-1.4,1.9-2.6c0.1-0.3-0.3-0.7-0.6-0.5c-1.4,1-2.6,2.2-4.2,2.8c-1.7,0.6-4.6,1.6-6.2,0.5
									C126.4,156.4,126.1,156.8,126.3,157L126.3,157z"/>
							</g>
						</g>
						<g>
							<g>
								<path class="st21" d="M114.5,157.3c-1.2,0.9-2,1.4-3.5,1.4c-1.3,0-2.6-0.2-3.9-0.6c-0.7-0.2-1.3-0.5-1.8-0.8
									c-0.5-0.3-1.1-0.8-1.8-0.9c-1.2-0.2-1.9,0.9-1.2,1.9c1.3,2.1,5.2,2.2,7.3,2.2c2.1,0,4.6-0.6,5.5-2.7
									C115.2,157.4,114.7,157.1,114.5,157.3L114.5,157.3z"/>
							</g>
						</g>
						<g>
							<g>
								<path class="st21" d="M114.2,166.4c1.4,2.7,4.7,3.8,7.6,3.5c2-0.2,4.7-1.3,5.3-3.5c0.2-0.7-0.7-1.6-1.4-1.1
									c-0.5,0.4-0.8,0.9-1.3,1.4c-0.7,0.6-1.5,1-2.4,1.2c-2.4,0.5-5.2-0.3-7.1-2C114.5,165.6,114,166,114.2,166.4L114.2,166.4z"/>
							</g>
						</g>
						<g>
							<g>
								<path class="st21" d="M127.8,158.1c-0.1,0.2-0.2,0.3-0.4,0.4c-0.1,0.2-0.2,0.4-0.3,0.6c-0.1,0.4-0.2,0.9,0.1,1.2
									c0.1,0.2,0.4,0.2,0.6,0.1c0.4-0.1,0.7-0.6,0.8-1c0-0.2,0.1-0.4,0.1-0.6c0-0.2-0.2-0.4-0.2-0.6
									C128.5,158,128,157.7,127.8,158.1L127.8,158.1z"/>
							</g>
						</g>
						<g>
							<g>
								<path class="st21" d="M130.1,158.1c0,0.4-0.1,0.9,0,1.3c0.1,0.5,0.5,1,1.1,0.8c0.5-0.1,0.7-0.7,0.7-1.1
									c0-0.5-0.2-0.9-0.4-1.4C131.2,157,130.1,157.4,130.1,158.1L130.1,158.1z"/>
							</g>
						</g>
						<g>
							<g>
								<path class="st21" d="M133.5,157.4c0.4,0.7,0.6,1.4,1.4,1.7c0.5,0.2,1-0.3,1-0.8c0.1-0.8-0.7-1.4-1.2-1.8
									C134.1,156,133.1,156.7,133.5,157.4L133.5,157.4z"/>
							</g>
						</g>
						<g>
							<g>
								<path class="st21" d="M135.6,156.4c0.6,0.4,1.3,0.9,2.1,0.8c0.9-0.1,1.2-1.2,0.5-1.7c-0.5-0.4-1.3-0.4-1.9-0.5
									C135.3,154.8,134.8,156,135.6,156.4L135.6,156.4z"/>
							</g>
						</g>
						<g>
							<g>
								<path class="st21" d="M102.6,158.5c-0.3,0.3-0.7,0.5-1,0.8c-0.2,0.2-0.3,0.4-0.4,0.6c-0.1,0.1-0.1,0.3-0.1,0.4
									c0,0.1,0,0.1,0,0.2c0-0.1,0-0.1,0,0c0,0.3,0.2,0.5,0.5,0.5c0.1,0,0.4,0,0.7-0.1c0.3-0.1,0.5-0.3,0.7-0.5
									c0.3-0.3,0.6-0.8,0.8-1.2c0.2-0.3,0.1-0.8-0.2-1C103.3,158.2,102.9,158.2,102.6,158.5L102.6,158.5z"/>
							</g>
						</g>
						<g>
							<g>
								<path class="st21" d="M104.8,159.3c-0.2,0.6-0.6,1.4-0.1,2c0.3,0.4,0.6,0.5,1.1,0.3c0.8-0.3,0.8-1.3,0.8-2
									c0-0.4-0.4-0.8-0.8-0.9C105.3,158.6,104.9,158.9,104.8,159.3L104.8,159.3z"/>
							</g>
						</g>
						<g>
							<g>
								<path class="st21" d="M107.8,160c-0.2,0.5,0,0.8,0.1,1.3c0.1,0.4,0.2,0.9,0.6,1.2c0.2,0.2,0.6,0.2,0.7-0.1
									c0.1-0.2,0.2-0.4,0.2-0.6c0-0.2-0.1-0.5-0.2-0.7c-0.1-0.4-0.2-1-0.7-1.2C108.3,159.7,107.9,159.7,107.8,160L107.8,160z"/>
							</g>
						</g>
						<g>
							<g>
								<path class="st21" d="M111.5,160.5c0.2,0.3,0.3,0.5,0.5,0.8c0.3,0.5,0.9,0.8,1.4,0.5c0.5-0.4,0.3-1.1,0-1.5
									c-0.2-0.3-0.4-0.5-0.7-0.7c-0.3-0.3-0.7-0.3-1-0.1C111.4,159.7,111.2,160.2,111.5,160.5L111.5,160.5z"/>
							</g>
						</g>
					</g>
				</g>
				<g>
					<path class="st17" d="M83.2,138.5c-1.2,3.8-2.2,6.3,0.2,11.5c0.8,1.8,1.7,3.6,2.8,5.2c3.8,5.8,7.8,9.9,13,14.2
						c0.9-0.8,0.7-1.5,1.6-2.3c-2-3.5-1.8-6.2-3-10.2c-1-3.5-1.6-7.1-2.9-10.4c-1.2-3.4-3.1-6.5-6-8.2c-1.8-1-4.3-1.3-5.8,0.4"/>
				</g>
				<g>
					<path class="st17" d="M156.4,139.3c0.9,3.5,1.7,5.8,0,10.1c-0.6,1.5-1.2,3-1.9,4.3c-2.7,4.7-5.9,8.8-9.6,12.1
						c-0.7-0.8-1.4-1.6-2-2.4c1.4-2.9,2.5-6,3.3-9.4c0.7-2.9,1.1-6,1.9-8.9c0.8-2.8,2.2-5.4,4.2-6.6c1.3-0.7,3.1-0.7,4.1,1"/>
				</g>
				<g>
					<path class="st17" d="M145,158.4c-1.8,0.6-4.6,1.9-6.4,2.5c-0.5,0.2-1.1,0.4-1.2,0.9c-0.1,0.3,0.9,0.3,1.3,0.3
						c0.5-0.1,0.9-0.2,1.4-0.1c0.1,0,0.3,0.1,0.3,0.2c0,0.1,0,0.1,0,0.2c-0.1,0.4-0.3,0.7-0.6,0.9c-1.3,1.3-2.6,2.7-3.8,4.1
						c-0.1,0.2-0.3,0.4-0.4,0.6c-0.1,0.1-0.1,0.3,0,0.4c0.1,0.1,0.2,0.1,0.3,0.1c0.2,0,0.4-0.1,0.6-0.3c0.7-0.6,3-2.5,3.1-2.3
						c0.1,0.1-2.8,2.5-3.4,3.7c-0.1,0.1,0,0.3,0.1,0.4c0.1,0.1,0.2,0.1,0.3,0c1-0.5,4-2.8,3.9-2.6c-0.4,1.1-2.6,2.1-3.1,3.3
						c-0.1,0.2-0.1,0.3,0,0.5c0.5,0.5,4.2-2.9,4.2-2.8c0,0.3-1.7,2.3-1.9,3c-0.1,0.1,0,0.3,0.1,0.4c0.1,0.1,0.3,0.1,0.4,0
						c0.2-0.1,0.3-0.2,0.4-0.3c2.9-2.3,5.5-3.9,7.5-7c0.1-0.1,0.9-1.5,0.9-1.6c0-0.1,0.1-1.4,0-1.4c-0.5-1.1-1.2-1-1.7-2.1
						C147,158.5,145.4,159.2,145,158.4"/>
				</g>
				<g>
					<path class="st17" d="M98.2,161c1.9,0.2,4.5,0.8,6.4,1c0.5,0,1.1,0.1,1.4,0.6c0.1,0.3-0.8,0.5-1.2,0.6c-0.5,0-1,0-1.4,0.2
						c-0.1,0.1-0.3,0.1-0.3,0.3c0,0.1,0,0.1,0.1,0.2c0.2,0.3,0.5,0.6,0.8,0.8c1.6,1,3.2,2,4.7,3.1c0.2,0.1,0.3,0.3,0.5,0.5
						c0.1,0.1,0.2,0.2,0.1,0.4c0,0.1-0.1,0.2-0.2,0.2c-0.2,0.1-0.4,0-0.6-0.1c-0.8-0.4-3.5-1.7-3.5-1.5c0,0.1,3.4,1.8,4.2,2.8
						c0.1,0.1,0.1,0.3,0,0.4c-0.1,0.1-0.2,0.1-0.3,0.1c-1.1-0.2-4.6-1.8-4.4-1.6c0.7,1,3,1.4,3.8,2.5c0.1,0.2,0.2,0.3,0.1,0.5
						c-0.4,0.6-4.7-1.9-4.7-1.7c0,0.3,2.2,1.9,2.6,2.4c0.1,0.1,0.1,0.3,0,0.4c-0.1,0.2-0.3,0.1-0.4,0.1c-0.2,0-0.3-0.1-0.5-0.2
						c-3.4-1.6-6.2-2.5-9-5c-0.1-0.1-1.7-1.7-1.8-1.8c-0.4-0.4,0.1-0.9,0.1-1c0.2-1.1,0.9-1.3,1.1-2.4C95.9,161.7,98,161.9,98.2,161
						"/>
				</g>
				<path class="st22" d="M62.9,45.9c-0.6,0-1.2-0.1-1.9-0.2c0-0.7,0-1.5,0-2.2c0-2.5-3.9-2.5-3.9,0c0,0.6,0,1.1,0,1.7
					c-0.2,0-0.4-0.1-0.6-0.1c-2.5-0.5-3.5,3.3-1,3.8c0.5,0.1,1.1,0.2,1.6,0.3c0,0.6,0,1.1,0,1.7c0,2.5,3.9,2.5,3.9,0
					c0-0.4,0-0.8,0-1.2c0.6,0.1,1.2,0.1,1.9,0.1C65.4,49.9,65.4,46,62.9,45.9z"/>
				<path class="st22" d="M129.2,70.5c-0.6-0.1-1.3-0.2-1.9-0.2c0-0.5,0-0.9,0-1.4c-0.1-2.5-4-2.5-3.9,0c0,0.5,0,1,0,1.5
					c-0.3,0-0.6,0.1-0.9,0.1c-1,0.2-1.6,1.5-1.4,2.4c0.3,1,1.2,1.4,2.2,1.4c0,0.3,0,0.5,0,0.8c-0.1,2.5,3.8,2.5,3.9,0
					c0-0.3,0-0.5,0-0.8c0.3,0,0.6,0.1,0.9,0.1c1,0.2,2.1-0.3,2.4-1.4C130.9,72,130.3,70.7,129.2,70.5z"/>
				<path class="st22" d="M160,56.4c-0.5,0-1.1,0-1.6,0c0-0.5-0.1-1.1-0.1-1.6c-0.1-2.5-4-2.5-3.9,0c0,0.6,0.1,1.1,0.1,1.7
					c0,0-0.1,0-0.1,0c-2.5,0.2-2.5,4.1,0,3.9c0.1,0,0.2,0,0.3,0c0,0.2,0,0.5,0,0.7c0.1,2.5,4,2.5,3.9,0c0-0.3,0-0.6,0-0.8
					c0.5,0,0.9,0,1.4,0C162.5,60.4,162.5,56.5,160,56.4z"/>
			</g>
		</g>
	</g>
</g>
</svg>
