<?xml version="1.0" encoding="utf-8"?>
<!-- Generator: $$$/GeneralStr/196=Adobe Illustrator 27.6.0, SVG Export Plug-In . SVG Version: 6.00 Build 0)  -->
<svg version="1.1" id="圖層_1" xmlns="http://www.w3.org/2000/svg" xmlns:xlink="http://www.w3.org/1999/xlink" x="0px" y="0px"
	 viewBox="0 0 240 240" style="enable-background:new 0 0 240 240;" xml:space="preserve">
<style type="text/css">
	.st0{fill:#FFFFFF;}
	.st1{fill:#56AB6E;}
	.st2{fill:#36754A;}
	.st3{fill:#FB9F9F;}
	.st4{fill:#9CC9FF;}
	.st5{fill:#1E272E;}
	.st6{fill:#F9BE33;}
	.st7{fill:#73A9FF;}
	.st8{fill:#FFB338;}
	.st9{fill:#F28E61;}
</style>
<g>
	<path class="st0" d="M232.2,160.7c-0.3-1.5-1.7-5.2-7.5-6c-0.4-0.1-0.9-0.1-1.3-0.1c0.1-0.7,0.1-1.5,0-2.2
		c-0.4-2.2-1.9-3.9-4.2-4.7c-0.1,0-0.2-0.1-0.2-0.1c0.5-0.7,0.9-1.3,1.3-2c2.1-3.2,3.7-6.5,4.7-9.6c0.3-0.9,0.6-1.8,0.8-2.7
		c0.3-1.1,0.5-2.4,0.5-3.8c-0.2-3.5-2.3-6.3-5.4-7c-0.5-0.1-1-0.2-1.6-0.2c-1.2,0-2.2,0.3-3,0.5c-1,0.3-1.9,0.7-2.9,1.1
		c-1.6,0.8-3.2,1.8-5,3.1c-0.6,0.4-1.2,0.9-1.7,1.3c0-0.1,0-0.1,0-0.2c0-0.9,0-2-0.2-3.3c-0.5-2.2-1.6-3.4-2.5-4
		c-0.9-0.6-1.9-0.9-3-0.9c-1.1,0-2.2,0.3-3.4,1c-0.2,0.1-0.4,0.2-0.6,0.4c-1.6-4.3-4-8.1-7-10.9c-6.3-5.8-15.5-7.1-22-7.6
		c-1.5-0.1-3.2-0.2-4.8-0.2c-2.3,0-4.8,0.1-7.6,0.3c-0.2-0.5-0.4-1.1-0.6-1.7c-0.5-1.5-0.9-3.1-1.2-4.7c1.1-0.9,2-1.8,2.8-2.6
		c1.2-1.2,2.3-2.5,3.4-3.8c0.5-0.6,1-1.3,1.4-1.9c0.9-0.9,1.8-1.8,2.6-2.8c1.7-2.2,2.6-4.4,2.6-6.7c0.1-2.4-0.8-4.7-2.5-6.6
		c-1.4-1.6-3.4-2.8-5.7-3.4c-0.8-0.2-1.6-0.4-2.4-0.5c-1.2-0.9-2.6-1.7-4.2-2.3c-1.7-0.7-3.6-1.2-5.8-1.6c-1.6-0.3-3.1-0.5-4.5-0.5
		c-0.8,0-1.7,0.1-2.5,0.2c-2.6,0.3-4.7,1.2-6.4,2.7c-0.6,0.5-1.2,1.1-1.6,1.7c-0.2,0-0.4,0.1-0.5,0.1c-2.6,0.5-5,2.1-6.2,4.3
		c-1,1.8-1.2,3.8-0.6,5.6c0.5,1.5,1.6,2.7,3.1,3.6c0.3,0.2,0.6,0.3,0.9,0.4c-1.2,1.8-2.2,3.7-2.9,5.6c-0.6,1.6-1,3.2-1.2,4.8
		c-0.3,1.8-0.3,3.3-0.1,4.8c0.2,1.8,0.8,3.5,1.6,4.8c0.9,1.5,2.2,2.6,3.7,3.4c-3.1,0.5-6.1,1.1-9.1,1.8c-3.8,0.9-8.4,2.2-12.8,4.1
		c-4.7,2-8.5,5-11.3,7.3c-1,0.8-2.5,2.1-4.3,3.5c-0.6,0.4-1.1,0.9-1.7,1.4c0.4-1.3,0.7-2.5,1-3.6l0.3-1.2c0.9-3.4,1.6-6.1,1.8-8.6
		c0.2-2,0.2-5,0.2-7.8c1.2,0.3,2.6,0.6,4,0.7c0.3,0,0.7,0,1,0c2.7,0,5.1-0.8,7-2.4c4.1-3.4,6.2-12.1,5.3-17.3c-1-5.5-7.3-7.7-10-8.7
		c-2.1-0.7-4.2-1.2-6.4-1.5c-0.9-0.1-1.9-0.2-2.7-0.2c-1.6,0-3.2,0.2-4.6,0.7c-0.5,0.2-1,0.3-1.4,0.5c-0.6,0.2-1.2,0.4-1.4,0.4
		c0,0-0.1,0-0.2-0.1c-0.5-0.2-1.2-0.8-1.9-1.4c-0.3-0.3-0.6-0.5-0.9-0.8c-3.4-2.7-6.6-4-9.9-4c0,0,0,0,0,0c-0.4,0-0.9,0-1.3,0.1
		c-2.1,0.2-4.1,1.1-5.7,2.5c-0.8-0.4-1.7-0.6-2.4-0.8c-1-0.3-1.8-0.4-2.4-0.4c-0.6,0-1.3,0.1-1.8,0.4c-2.4,1-3.4,3.4-3.7,4.1
		c-0.5,1.2-0.8,2.2-0.9,3.4c-0.1,0.7-0.2,1.7,0.1,2.9l0,0.1c0.3,2,1.3,3.4,2.9,4.1c0.5,0.2,1.6,0.6,3.3,1.1c0.3,0.1,0.6,0.2,0.9,0.2
		c0.5,1.6,1.3,3.1,2.4,4.2c-0.3,0.2-0.5,0.5-0.8,0.8c-1.9,2.1-2.7,4.9-2.3,8.4c0.3,2.7,1.1,5.1,1.8,6.9c0.3,0.8,0.6,1.5,0.9,2.3
		c-0.7,1.2-1.4,2.3-2,3.5c-1.2-1.1-2.6-1.7-4.1-1.7c-0.4,0-0.7,0-1.1,0.1c-1.8,0.3-3.3,1.4-4.2,3c-1.2-0.9-2.4-1.6-3.6-2.2
		c-0.4-0.2-0.9-0.4-1.3-0.5c-0.3-0.1-1-0.3-1.7-0.4c-0.2,0-0.4,0-0.5,0c-1,0-2,0.3-2.8,0.8c-0.9,0.6-1.7,1.5-2.1,2.6
		c-0.8,2.1,0,4,0.2,4.6c0.3,0.7,0.6,1.5,1,2.2c0.2,0.4,0.4,0.8,0.7,1.2c-1.9,0.2-3.7,0.9-5.1,2.1c-2.3,1.9-3.3,4.6-3.1,8.1
		c-0.4,0.2-0.9,0.5-1.2,0.9c-2.5-1-4.8-1.5-7-1.5c-0.4,0-0.7,0-1.1,0c-4.4,0.3-8,2.5-9.7,5.8c-1.6,3.1-1.5,7,0.1,11.2
		c1.1,2.7,2.7,5.3,5.1,8.1c1.8,2.1,3.8,4.1,6,5.9c-0.1,0.6-0.2,1.3-0.1,1.9c-0.6,0.4-1.1,0.9-1.5,1.4c-1.6,1.8-2.3,4.1-2.1,6.5
		c0.2,1.9,1,3.9,2.3,5.9c0.9,1.4,2,2.6,3.3,3.8c2.4,2.1,5.3,3.8,8.5,4.9c3.2,1.1,6.8,1.6,10.8,1.6l0.1,0c4,0,8.3-0.6,13.2-1.9
		c0.1,0.3,0.2,0.5,0.4,0.8c-1.7,1.8-2.3,4.2-1.6,6.4c0.6,1.9,1.9,3.4,3.8,4.2c-0.5,1.5-0.9,2.9-1.2,4.1c-1.1,4.8,1.4,7.1,2.5,7.9
		c1.3,0.9,2.8,1.4,4.4,1.4c0.8,0,1.6-0.1,2.4-0.3c0.5,1.1,1.2,2.1,2.1,2.8c1.2,0.9,2.6,1.4,4.1,1.4c0,0,0.1,0,0.1,0
		c1.8,0,3.5-0.6,5.1-1.8c0.5,0.3,1,0.4,1.6,0.5c0.3,0.1,0.6,0.1,1,0.1c1.4,0,2.6-0.5,3.4-0.9c0.8-0.4,1.6-1,2.5-1.6
		c1.3-1.1,2.4-2.3,3.5-3.4l0.2-0.2c0.7-0.8,1.4-1.5,2.2-2.4c4.2,2.9,9,5.1,14.4,6.7c5.9,1.7,12.2,2.6,18.7,2.6c2.5,0,5-0.1,7.6-0.4
		c9.5-1,18.5-3.8,26.2-8.3c3.5-2,6.8-4.4,9.8-7.2c2.6-0.5,5.4-1.3,8.7-2.3c4.7-1.5,9.2-3.1,13.6-4.7c4.8-1.9,9.1-3.7,13-5.7
		c4.5-2.3,8.6-4.8,12.3-7.4c3.3-2.4,7.4-5.6,10.6-10C230.7,167.7,233,164.5,232.2,160.7z"/>
	<g>
		<path class="st0" d="M208.3,130.2c-0.4,0-0.7,0-1.1-0.1c-1.2-0.3-2.1-1.1-2.6-2.2c-1-2.1-0.6-5.3,1.5-6.7c0.7-0.5,1.6-0.8,2.4-0.8
			c1.3,0,2.6,0.6,3.5,1.6c1.2,1.4,1.4,3.4,0.6,5.2C211.7,129,210.1,130.2,208.3,130.2L208.3,130.2z"/>
		<path class="st0" d="M208.5,122.3c0.7,0,1.5,0.4,1.9,0.9c1.4,1.6,0,4.9-2.2,4.9c-0.2,0-0.4,0-0.6-0.1c-0.6-0.1-1.1-0.5-1.3-1.1
			c-0.6-1.3-0.4-3.4,0.8-4.3C207.7,122.5,208.1,122.3,208.5,122.3 M208.5,118.3c-1.3,0-2.5,0.4-3.5,1.1c-3,2-3.5,6.4-2.2,9.2
			c0.7,1.6,2.2,2.8,3.9,3.3c0.5,0.1,1.1,0.2,1.6,0.2c2.6,0,4.9-1.6,6.1-4.1c1.2-2.6,0.8-5.4-0.9-7.4
			C212.2,119.2,210.4,118.3,208.5,118.3L208.5,118.3z"/>
	</g>
	<g>
		<path class="st0" d="M16.5,167.2c-1,0-2.1-0.2-2.9-0.4c-3.1-1-5.4-3.5-5.8-6.4c-0.3-1.6,0-3.1,0.8-4.2c1.2-1.7,3.2-2.7,5.7-2.7
			c3.6,0,8.4,2.1,9.8,5.5c0.4,0.9,0.5,1.8,0.3,2.8C23.7,165.5,19.9,167.2,16.5,167.2C16.5,167.2,16.5,167.2,16.5,167.2z"/>
		<path class="st0" d="M14.3,155.5c3.2,0,7,1.9,8,4.2c0.2,0.5,0.3,1,0.2,1.7c-0.5,2.6-3.3,3.8-5.9,3.8c-0.8,0-1.6-0.1-2.3-0.3
			c-2.2-0.7-4.1-2.5-4.5-4.8c-0.2-0.9,0-2,0.5-2.8C11.1,156,12.6,155.5,14.3,155.5 M14.3,151.5c-3.2,0-5.8,1.3-7.4,3.6
			c-1.1,1.6-1.5,3.6-1.1,5.7c0.6,3.6,3.4,6.7,7.2,7.9c1.1,0.4,2.3,0.5,3.6,0.5c5.1,0,9.1-2.9,9.9-7.1c0.2-1.3,0.1-2.7-0.4-3.9
			C24.2,154,18.6,151.5,14.3,151.5L14.3,151.5z"/>
	</g>
	<g>
		<g>
			<path class="st1" d="M69,173.6c-0.2-1-0.5-2-0.8-3c-0.3-0.9-0.7-1.9-1-2.8c-0.7-1.8-1.6-3.5-2.8-5c-0.7-0.9-1.6-1.6-2.5-2.3
				c-0.2-0.8-0.5-1.6-0.7-2.5c-0.9-3.2-2.1-6.3-3.2-9.4c-1-2.8-2.1-5.5-3.3-8.2c-1.2-2.7-2.6-5.3-4.3-7.6c-0.9-1.2-1.8-2.3-2.8-3.3
				c-1-1-2.1-1.9-3.3-2.5c-1.2-0.6-2.4-0.9-3.7-0.8c-1.2,0.1-2.4,0.5-3.3,1.2c-2.2,1.8-1.8,5-1.2,7.4c0.6,2.6,1.6,5,2.9,7.4
				c0.2,0.5,0.5,0.9,0.8,1.4c-0.4-0.3-0.8-0.6-1.2-0.8c-2.4-1.7-4.9-3.3-7.5-4.7c-2.6-1.3-5.5-2.3-8.4-2.1c-2.5,0.2-5.2,1.3-6.4,3.6
				c-1.2,2.5-0.7,5.5,0.3,8c1,2.6,2.6,4.9,4.4,7c1.8,2.1,3.7,4,5.9,5.8c2.1,1.8,4.3,3.3,6.7,4.7c0.5,0.3,1,0.6,1.5,0.8
				c-0.9,0-1.8,0.1-2.6,0.2c-1.4,0.2-2.8,0.4-4.1,1c-1.1,0.5-2.2,1.1-3,2c-0.8,1-1.2,2.2-1.1,3.5c0.1,1.5,0.8,2.8,1.7,4.1
				c0.8,1.1,1.7,2.1,2.7,3c2.1,1.8,4.5,3.2,7.1,4.1c3.1,1,6.3,1.4,9.5,1.4c4.2,0,8.4-0.7,12.5-1.8c3.2-0.8,9.1-2.5,10.6-4.9
				c0.4-0.7,0.8-1,0.9-1.8C69.2,175.6,69.2,174.6,69,173.6z"/>
			<path class="st2" d="M51.1,153c-0.3-0.6-0.6-1.1-0.9-1.7c-1.1-2-2.3-3.9-3.6-5.8c-2.7-3.8-6.3-8.3-11.1-9.6
				c-3.9-1.1-3.4,3.6-2.7,5.9c1,3.2,2.8,6.3,5,8.8c1.4,1.7,3.1,3.2,5,4.3c1.9,1.2,3.9,2,6.1,2.4c0.6,0.1,1.1,0.2,1.7,0.2
				c0.4,0,0.9,0,1.3-0.1C51.8,156,51.5,154.5,51.1,153z"/>
			<path class="st1" d="M228.3,161.5c-0.4-1.9-2.5-2.6-4.2-2.8c-4.9-0.7-9.9,0.5-14.6,1.8c-3.8,1-7.5,2.1-11.2,3.4
				c2-1.6,3.9-3.4,5.7-5.2c2.3-2.3,4.6-4.8,6.8-7.3c2.2-2.5,4.2-5.1,6-7.9c1.8-2.7,3.3-5.7,4.3-8.7c0.3-0.8,0.5-1.6,0.7-2.4
				c0.2-0.9,0.4-1.8,0.4-2.7c-0.1-1.4-0.8-3-2.3-3.3c-0.8-0.2-1.7,0-2.5,0.3c-0.8,0.2-1.6,0.6-2.3,0.9c-1.5,0.7-3,1.7-4.3,2.7
				c-2.6,1.9-5,4.1-7.2,6.5c-2.1,2.2-4,4.6-5.6,7.1c0,0,0-0.1,0.1-0.1c1.6-3.3,3.1-6.7,4-10.2c0.4-1.7,0.7-3.5,0.7-5.3
				c0-0.8,0-1.6-0.1-2.4c-0.1-0.6-0.4-1.2-0.9-1.5c-0.7-0.5-1.4-0.2-2.1,0.2c-0.7,0.4-1.3,0.8-1.9,1.3c-1.2,0.9-2.3,2-3.4,3.1
				c-2,2.3-3.6,4.9-4.7,7.8c0,0.1,0,0.1-0.1,0.2c-0.9,0.2-1.7,0.7-2.4,1.2c-2,1.3-3.9,2.8-5.7,4.4c-3.6,3.2-6.8,7-9.5,11
				c-2.7,4-5,8.4-6.9,12.9c-1,2.3-1.8,4.7-2.6,7.1c-0.9,2.8-1.6,5.6-1.8,8.5c-0.4,5,0.5,10.3,3.9,14.1c0.1,0.1,0.1,0.2,0.2,0.2
				c-0.1,0-0.3,0-0.4,0c-0.2,0-0.2,0.3,0,0.3c0.2,0,0.5,0,0.7,0c0.2,0.3,0.5,0.5,0.8,0.7c0.2,0.1,0.4-0.1,0.2-0.2
				c-0.2-0.2-0.4-0.4-0.6-0.5c4.6-0.4,9-1.6,13.4-2.9c4.5-1.4,8.9-3,13.3-4.7c4.3-1.6,8.5-3.5,12.6-5.5c4.1-2.1,8.1-4.4,11.8-7.1
				c3.6-2.6,7.1-5.5,9.7-9.1C227.2,165.7,228.7,163.6,228.3,161.5z"/>
			<path class="st2" d="M198.3,147.2c1-1.3,1.8-2.7,2.5-4.2c0.4-0.8,0.7-1.7,0.7-2.5c0-0.7-0.2-1.4-0.6-1.8
				c-1.4-1.4-3.9,0.1-5.5,1.3c-2.7,2-5.1,4.6-6.7,7.6c-0.4,0.7-0.7,1.7-0.8,2.5c0,0.7,0.2,1.4,0.7,1.8c0.5,0.4,1.1,0.6,1.7,0.6
				c1.5,0,3.2-0.9,4.5-1.9C196.2,149.7,197.4,148.5,198.3,147.2z"/>
			<path class="st2" d="M219.4,153.1c-0.2-0.9-0.8-1.4-1.6-1.7c-1-0.4-2.1-0.4-3.1-0.3c-1,0.1-2,0.3-3,0.5c-0.9,0.2-1.9,0.5-2.8,0.7
				c-1.9,0.5-3.7,1.2-5.5,2c-3.5,1.5-6.9,3.4-10,5.7c-3.3,2.3-6.3,5-9,7.9c-2.8,3-5.3,6.2-7.5,9.5c-0.3,0.5-0.7,1.1-1,1.6
				c0,0.2,0,0.3,0.1,0.5c1.1-0.3,2.1-0.7,3.1-1.1c2.1-0.7,4.2-1.5,6.2-2.4c4-1.6,7.9-3.2,11.7-5c3.7-1.7,7.3-3.5,10.7-5.7
				c1.7-1.1,3.4-2.2,4.9-3.4c1.6-1.2,3.2-2.5,4.5-4.1c0.7-0.8,1.3-1.6,1.7-2.5C219.2,154.7,219.5,153.9,219.4,153.1z"/>
			<path class="st2" d="M27.6,164.8c-0.2-0.9,0.3-1.6,0.9-2.1c0.8-0.7,1.8-1.1,2.8-1.4c1-0.3,2-0.4,3-0.6c0.9-0.1,1.9-0.3,2.9-0.3
				c1.9-0.2,3.9-0.2,5.8-0.2c3.8,0.1,7.7,0.7,11.4,1.6c3.9,1,7.6,2.4,11.2,4.1c3.7,1.7,7.1,3.8,10.5,6.1c0.5,0.4,1,0.7,1.5,1.1
				c0,0.2,0.1,0.3,0.1,0.5c-1.1,0.1-2.2,0.1-3.3,0.1c-2.2,0.1-4.4,0.1-6.7,0.1c-4.3,0-8.5-0.1-12.8-0.4c-4-0.2-8.1-0.7-12-1.4
				c-2-0.4-3.9-0.8-5.9-1.4c-1.9-0.6-3.9-1.2-5.7-2.1c-0.9-0.5-1.8-1-2.5-1.7C28.3,166.3,27.8,165.6,27.6,164.8z"/>
			<path class="st2" d="M210.5,123.3c-0.8-0.9-2.1-1.3-3.2-0.5c-1.2,0.8-1.4,3-0.8,4.3c0.2,0.5,0.7,0.9,1.3,1.1
				C210.2,128.7,212,125.1,210.5,123.3z"/>
			<path class="st2" d="M57.1,116.2c-0.5-0.8-1.3-1.5-2.3-1.4c-0.9,0.2-1.6,1-1.9,1.8c-0.3,0.9-0.4,1.9-0.4,2.9
				c0,1.3,0.2,2.7,0.6,3.9c-0.8-1.3-1.7-2.5-2.8-3.7c-0.8-0.9-1.7-1.8-2.6-2.5c-1-0.7-2-1.4-3.1-1.9c-0.3-0.1-0.6-0.2-0.9-0.3
				c-0.3-0.1-0.6-0.2-0.9-0.2c-0.3,0-0.6,0-0.8,0.2c-0.2,0.1-0.4,0.4-0.5,0.6c-0.2,0.6,0,1.2,0.2,1.7c0.2,0.6,0.5,1.2,0.8,1.7
				c1.2,2.2,3,4.2,5,5.6c1.8,1.2,7.4,4.7,9,2.2c0.5-0.8,0.9-1.6,1.2-2.5c0.6-1.7,0.7-3.6,0.4-5.4C57.9,118.1,57.6,117.1,57.1,116.2z
				"/>
			<path class="st2" d="M22.2,159.7c-1.5-3.5-9.5-6.2-12.1-2.4c-0.5,0.8-0.6,1.8-0.5,2.8c0.4,2.3,2.3,4.1,4.5,4.8
				c2.9,0.9,7.6,0,8.2-3.5C22.5,160.8,22.5,160.2,22.2,159.7z"/>
		</g>
		<g>
			<path class="st3" d="M108.2,145.2c-1.3-2.7-2.7-5.3-3.9-8c-1.9-4.1-3.7-8.2-5.7-12.2c-0.7,0.5-1.4,1-2.1,1.5
				c-2.2,1.6-4.4,3.2-6.5,4.9c-2.2,1.7-4.3,3.4-6.4,5.2c-1.2,1-2.4,2.1-3.6,3.1c3.1-7.4,5.1-14.4,6.6-20.1c2.6-10,3.8-12.8-3.7-19
				c-0.6-0.5-4.2-6.1-4.8-6.6c1.1-0.4,2.1-1,3-1.8c0.9-0.8,1.7-1.8,1.7-3.1c0-0.6-0.2-1.2-0.7-1.6c-0.5-0.4-1-0.4-1.6-0.3
				c-0.6,0.1-1.3,0.2-1.9,0.4c-0.7,0.2-1.3,0.3-2,0.5c-1.5,0.4-2.9,1-4.4,1.6c0,0,0,0,0,0c-0.3-0.2-0.5-0.3-0.8-0.3
				c-0.5-0.1-1-0.1-1.5,0.1c-0.4,0.2-0.8,0.5-1.2,0.8c-0.6,0.6-1,1.4-1.2,2.2c0,0.1-0.1,0.3-0.1,0.4c-0.4-0.1-0.9-0.1-1.3,0
				c-0.8,0.1-1.6,0.5-2.2,1.2c-1.3,1.4-1.5,3.5-1.3,5.3c0.2,2,0.8,4,1.6,5.8c0.5,1.3,1.1,2.7,1.7,4c-2.6,4.4-5.1,8.8-7.5,13.3
				c-2.6,4.8-5.1,9.7-7.6,14.6c-1.2,2.5-2.4,4.9-3.6,7.4c-1.1,2.4-2.2,4.7-3.1,7.2c-0.8,2.4-1.3,4.9-1.1,7.4
				c0.1,2.1,0.7,4.1,1.6,5.9c1.8,3.8,5,6.8,8.8,8.7c4.4,2.2,9.3,2.8,14.2,2.3c5-0.5,9.8-2.2,14.3-4.4c4.7-2.3,9.2-5.1,13.5-8.1
				c4.4-3,8.6-6.1,12.7-9.4c1.1-0.9,2.2-1.7,3.3-2.6C110.2,149.5,109.2,147.4,108.2,145.2z"/>
			<g>
				<path class="st4" d="M106.1,84.6c-0.5-3.1-4.9-4.7-7.4-5.6c-1.8-0.6-3.7-1.1-5.6-1.4c-1.9-0.3-3.7-0.2-5.6,0.3
					c-2,0.6-3.5,1.6-5.6,0.8c-1.5-0.6-2.8-1.8-3.9-2.8c-2.3-1.9-5.2-3.4-8.3-3.1c-2.2,0.2-4,1.5-5.2,3.3c-1.1-0.3-2.2-0.6-3.4-0.9
					c-0.5-0.1-1-0.2-1.5,0.2c-0.4,0.3-0.6,0.8-0.8,1.2c-0.2,0.6-0.4,1.2-0.6,1.8c-0.2,0.6-0.4,1.2-0.4,1.9c0,0.3,0,0.6,0.2,0.8
					c0.2,0.2,0.4,0.3,0.6,0.4c0.7,0.2,1.3,0.4,2,0.6c0.7,0.2,1.4,0.4,2.1,0.7c0.2,3.4,2,6.6,5.9,7.3c4.7,0.8,7.3-1.1,10,0.1
					c2.2,0.9,2.6,2.9,4.3,4.4c2.7,2.2,6,3.3,9.4,4.1c1.5,0.4,3.1,0.8,4.6,0.9c1.8,0.1,3.6-0.2,5.2-1.4
					C104.8,95.8,106.9,88.9,106.1,84.6z"/>
				<g>
					<path class="st1" d="M62.6,75.8c0-0.2,0-0.3-0.1-0.3c0-0.3-1.9-0.9-2.5-1.1c-0.5-0.1-1.4-0.3-1.6-0.2c-0.8,0.3-1.3,1.3-1.6,2
						c-0.3,0.8-0.5,1.5-0.7,2.3c-0.1,0.4-0.1,1,0,1.6c0.1,0.5,0.1,1,0.6,1.3c0.3,0.1,1.8,0.6,2.8,1c0.6,0.2,0.9,0.2,1,0
						C62.2,80.6,63,78.5,62.6,75.8z"/>
				</g>
				<g>
					<path class="st5" d="M74.6,80.9c1.4,2.8,2.6,5.8,3.5,8.8c0.1,0.3,0.6,0.2,0.5-0.1c-0.9-3.1-2.2-6.1-3.6-8.9
						C74.9,80.3,74.5,80.5,74.6,80.9L74.6,80.9z"/>
				</g>
				<g>
					<path class="st5" d="M79.4,77.9c1.7,3.3,3.2,6.7,4.5,10.2c0.1,0.3,0.7,0.2,0.5-0.1c-1.3-3.5-2.8-7-4.5-10.3
						C79.7,77.3,79.2,77.6,79.4,77.9L79.4,77.9z"/>
				</g>
				<g>
					<path class="st5" d="M63.1,83.1c1.3-1.6,2-3.6,1.9-5.6c0-0.4-0.6-0.4-0.6,0c0.1,1.9-0.6,3.7-1.7,5.2
						C62.5,82.9,62.9,83.3,63.1,83.1L63.1,83.1z"/>
				</g>
				<g>
					<path class="st5" d="M57.8,81.2c1.4-1.7,1.9-3.9,1.6-6c-0.1-0.4-0.6-0.2-0.5,0.1c0.3,1.9-0.2,3.9-1.4,5.4
						C57.2,81.1,57.6,81.5,57.8,81.2L57.8,81.2z"/>
				</g>
			</g>
			<path class="st6" d="M190.6,171.9c0.5-1.9,1-3.8,1.4-5.7c0.9-4.1,1.7-8.1,2.2-12.3c1-8.2,1.4-16.9,0.3-25.1
				c-0.8-5.7-3.2-11.5-7.5-15.5c-5.1-4.7-12.8-6-19.5-6.5c-4.4-0.3-8.8-0.1-13.1,0.3c-7.1,0.7-14.2,1.4-21.2,2.3
				c-4.3,0.5-8.6,1.3-12.8,2.3c-4.1,1-8.2,2.2-12.1,3.9c-3.8,1.7-7.1,4.1-10.3,6.7c-3,2.5-11.3,9-14.2,11.7c0,0,18.7,24.7,19.7,26.2
				c-0.4,2.2,0,0.2-0.4,2.4c-0.4,2.5-0.8,4.9-1.1,7.4c-0.3,2.5-0.6,5-0.9,7.5c-0.2,1.5-0.3,3-0.5,4.5c3.8,0.7,7.6,0.9,11.4,0.8
				c4.6-0.1,9.2-0.7,13.8-1.2c4.5-0.5,9.1-1.1,13.6-1.9c2.8-0.5,5.6-1.1,8.4-1.7c0.7-2.1,1.4-4.3,2-6.4c0.7-2.2,1.3-4.4,2-6.6
				c0.6-2,1.2-4,1.7-6c0,0,0,0,0,0C155.2,159.5,190.6,171.9,190.6,171.9z"/>
			<path class="st3" d="M136.6,102.1c0.1,0.8,0.2,1.5,0.4,2.3c0.3,1.4,0.6,3,1,4.4c0.8,0.3,1.6,0.5,2.4,0.7
				c3.6,0.6,7.2,0.2,10.6-1.2c0.6-0.2,1.2-0.6,1.7-1c-0.6-1.6-1.2-3-1.7-4.7c-0.7-2.4-1.3-4.9-1.7-7.4c0-0.2-0.1-0.3-0.1-0.5
				c0,0,0.1-0.1,0.1-0.1c1-1,1.9-2.1,2.7-3.3c0.8-1.2,1.6-2.4,2.2-3.7c1.8-3.6,3.2-8-0.2-11.2c-1.6-1.5-3.7-2.3-5.8-2.4
				c-2.6-0.2-5.2,0.5-7.6,1.4c-0.8,0.3-1.5,0.6-2.3,1.1c-0.1-0.1-0.2-0.1-0.2,0c-2.1,1.9-4,3.8-5.7,6c-1.7,2.2-3.1,4.5-4.1,7.1
				c-0.5,1.3-0.8,2.6-1,4c-0.2,1.2-0.3,2.5-0.1,3.8c0.1,1.1,0.4,2.2,1,3.2c0.6,1,1.5,1.8,2.7,2.1c1.2,0.4,2.5,0.4,3.7,0.1
				C135.3,102.6,135.9,102.4,136.6,102.1z"/>
			<path class="st5" d="M160.9,74.9c-1-1.1-2.3-1.8-3.7-2.2c-0.7-0.2-1.5-0.3-2.3-0.4c-0.2,0-0.5,0-0.7,0c-1.2-1.1-2.6-1.9-4.1-2.5
				c-1.6-0.6-3.4-1.1-5.1-1.4c-1.9-0.4-3.8-0.5-5.7-0.3c-1.6,0.2-3.1,0.7-4.3,1.8c-0.6,0.5-1.1,1.2-1.4,1.9
				c-0.1,0.2-0.1,0.5-0.1,0.8c-0.8-0.1-1.6-0.2-2.4,0c-1.4,0.3-2.8,1.1-3.5,2.4c-0.4,0.7-0.6,1.5-0.3,2.2c0.2,0.7,0.8,1.1,1.4,1.5
				c0.7,0.4,1.4,0.6,2.2,0.8c0.8,0.2,1.6,0.3,2.5,0.3c1.3,0,2.6-0.2,3.8-0.4c1.7-0.2,3.3-0.7,4.8-1.4c0.1,0,0.2-0.1,0.3-0.1
				c0,0,0,0.1,0,0.1c0.1,0.5,0.5,0.9,0.9,1.2c0.9,0.6,2,0.8,3,0.8c1.2,0,2.3-0.3,3.4-0.5c-0.6,0.5-1.2,1-1.7,1.5
				c-1.3,1.3-2.7,2.9-2.7,4.8c0,0.3,0,0.5,0.2,0.8c0.1,0.2,0.3,0.3,0.5,0.4c0.1,0,0.2,0.1,0.4,0.1c-0.1,0.3-0.2,0.7-0.3,1.1
				c-0.1,0.5-0.1,1-0.2,1.5c0,0.5,0,1,0,1.5c0,0.1,0,0.1,0,0.2c-0.4,1.1-0.3,2.3,0.4,3.2c0.4,0.6,1,0.9,1.7,0.9
				c0.8,0,1.5-0.4,2.1-0.8c1.3-0.9,2.5-2,3.6-3.1c1.1-1.1,2.1-2.3,3.1-3.5c0.5-0.7,1.1-1.4,1.6-2.1c0.9-0.8,1.7-1.7,2.4-2.6
				c1-1.3,1.8-2.8,1.8-4.4C162.4,77.3,161.9,76,160.9,74.9z"/>
			<path class="st3" d="M148.9,85.3c-0.7-0.5-1.7-0.4-2.5-0.2c-0.8,0.3-1.6,0.8-2.2,1.4c-0.2,0.1-0.3,0.3-0.4,0.5
				c-0.1,0.1,0,0.2,0,0.2c-0.1,0.1-0.1,0.2-0.2,0.3c-0.2,0.3-0.3,0.7-0.3,1.1c-0.7,0.8-1.2,1.7-1.4,2.7c-0.1,0.8,0,1.7,0.5,2.3
				c0.7,0.7,1.7,0.4,2.5,0c0.8-0.4,1.5-1,2.2-1.7c0.6-0.6,1.2-1.3,1.7-2c0.5-0.7,0.8-1.6,0.9-2.4C149.7,86.7,149.6,85.8,148.9,85.3z
				"/>
			<g>
				<path class="st5" d="M136.8,102.2c1.7-0.6,3.3-1.5,4.7-2.6c0.4-0.3,0.8-0.6,1.2-1c0.1-0.1-0.1-0.4-0.2-0.2
					c-1.3,1.2-2.8,2.2-4.3,2.9c-0.5,0.2-0.9,0.4-1.4,0.6C136.5,101.9,136.6,102.2,136.8,102.2L136.8,102.2z"/>
			</g>
			<path class="st3" d="M87.9,91.7c-0.4-1.4-1.5-3.5-3.3-2.5c-0.9,0.5-1.3,1.7-1.5,2.6c-0.9,3-1.1,6-1.4,9.1
				c-0.2,2.4-0.2,4.8,0.2,7.2c0.3,2.1,1,4.1,2,6c0.3,0.5,0.6,0.9,0.9,1.3c0.2,0.2,0.3,0.4,0.5,0.6c1.4,1.6,3-3.8,3.1-4.6
				C89,107.8,88.6,94.3,87.9,91.7z"/>
			<g>
				<path class="st5" d="M78.7,109c-0.2-1.4-0.2-2.9,0.1-4.3c0.3-1.4,0.9-2.8,1.7-4c0.5-0.7,1-1.3,1.6-1.9c0.1-0.1-0.1-0.4-0.2-0.2
					c-1.1,1-1.9,2.3-2.5,3.7c-0.6,1.4-1,2.8-1.1,4.3c0,0.8,0,1.7,0.1,2.5C78.4,109.3,78.7,109.2,78.7,109L78.7,109z"/>
			</g>
			<g>
				<path class="st5" d="M65.5,97.3c0.7,1.3,1.6,2.5,2.6,3.6c0.5,0.5,1.1,1,1.7,1.5c0.6,0.4,1.3,0.8,2,0.5c0.6-0.3,1-0.9,1.1-1.5
					c0.1-0.7,0-1.5-0.2-2.2c-0.3-1.3-0.9-2.5-1.7-3.6c-0.8-1.1-1.8-2-2.9-2.7c-0.1-0.1-0.3-0.2-0.4-0.2c-0.2-0.1-0.3,0.2-0.2,0.3
					c2.2,1.2,4,3.3,4.8,5.7c0.2,0.6,0.4,1.3,0.4,2c0,0.7-0.1,1.4-0.6,1.9c-0.2,0.2-0.6,0.3-0.9,0.3c-0.4,0-0.7-0.2-1-0.4
					c-0.6-0.4-1.1-0.9-1.7-1.4c-1.1-1.1-2.1-2.4-2.8-3.8C65.6,97,65.4,97.1,65.5,97.3L65.5,97.3z"/>
			</g>
			<g>
				<path class="st5" d="M71.9,97.4c0.9,0.9,1.9,1.7,3,2.2c0.5,0.3,1.1,0.5,1.7,0.4c0.5-0.1,0.9-0.4,1.2-0.9c0.2-0.4,0.2-1,0.2-1.4
					c-0.1-0.6-0.2-1.2-0.4-1.7c-0.4-1.2-1.1-2.2-1.9-3.2c-0.9-1.2-2.1-2.2-3.2-3.2c-0.1-0.1-0.4,0.1-0.2,0.2
					c1.8,1.6,3.7,3.4,4.7,5.6c0.2,0.5,0.4,1.1,0.6,1.7c0.1,0.5,0.2,1,0.1,1.4c-0.1,0.4-0.3,0.9-0.7,1.1c-0.5,0.3-1.2,0.1-1.7-0.1
					c-1.2-0.6-2.3-1.4-3.2-2.3C72,97,71.8,97.2,71.9,97.4L71.9,97.4z"/>
			</g>
			<g>
				<path class="st5" d="M76.9,94.7c0.4-0.2,0.8-0.3,1.1-0.5c0.1,0,0.1-0.1,0.1-0.2c0-0.1-0.1-0.1-0.2-0.1c-0.4,0.2-0.8,0.3-1.1,0.5
					c-0.1,0-0.1,0.1-0.1,0.2C76.7,94.7,76.8,94.8,76.9,94.7L76.9,94.7z"/>
			</g>
			<g>
				<path class="st5" d="M134.6,109.5c1.1,1,2.5,1.7,3.9,2.2c1.5,0.6,3.1,0.9,4.7,1.1c1.6,0.1,3.2,0.1,4.7-0.3
					c1.6-0.3,3.2-0.9,4.7-1.8c1.5-0.8,2.8-1.8,3.9-3c0.1-0.1,0.3-0.3,0.4-0.4c0.1-0.2-0.1-0.4-0.2-0.2c-1,1.3-2.3,2.3-3.7,3.1
					c-1.4,0.9-3,1.5-4.6,1.9c-1.5,0.4-3.1,0.5-4.6,0.4c-1.6-0.1-3.2-0.4-4.7-0.9c-1.4-0.5-2.8-1.1-4-2c-0.1-0.1-0.3-0.2-0.4-0.3
					C134.6,109.2,134.4,109.4,134.6,109.5L134.6,109.5z"/>
			</g>
			<g>
				<path class="st5" d="M103.6,160.3c0.2-1.3,0.5-2.6,0.7-3.9c0.3-1.5,0.6-3,1-4.4c0.4-1.5,0.7-3.1,1.1-4.6c0.4-1.5,0.7-3,1.1-4.4
					c0.3-1.3,0.7-2.6,1.1-3.9c0-0.1,0.1-0.3,0.1-0.4c0.1-0.2-0.2-0.3-0.3-0.1c-0.4,1.3-0.7,2.5-1.1,3.8c-0.4,1.5-0.8,2.9-1.1,4.4
					c-0.4,1.5-0.7,3.1-1.1,4.6c-0.3,1.5-0.7,3-1,4.5c-0.3,1.3-0.5,2.7-0.8,4c0,0.1-0.1,0.3-0.1,0.4
					C103.3,160.4,103.6,160.5,103.6,160.3L103.6,160.3z"/>
			</g>
			<g>
				<path class="st5" d="M153.5,159.4c1.1-2.7,2.3-5.4,3.4-8c1.1-2.7,2.2-5.3,3.4-8c0.6-1.5,1.3-3,1.9-4.5c0-0.1,0-0.2-0.1-0.2
					c-0.1,0-0.2,0-0.2,0.1c-1.1,2.7-2.3,5.4-3.4,8c-1.1,2.7-2.2,5.3-3.4,8c-0.6,1.5-1.3,3-1.9,4.5c0,0.1,0,0.2,0.1,0.2
					C153.3,159.5,153.4,159.5,153.5,159.4L153.5,159.4z"/>
			</g>
			<g>
				<path class="st5" d="M156.2,152.3c2.3,0.8,4.6,1.7,6.9,2.5c2.3,0.9,4.7,1.7,7,2.6c2.3,0.9,4.7,1.7,7,2.6c2.3,0.9,4.7,1.7,7,2.6
					c2.3,0.8,4.6,1.7,6.9,2.5c0.3,0.1,0.6,0.2,0.8,0.3c0.2,0.1,0.3-0.2,0.1-0.3c-2.3-0.8-4.6-1.7-6.9-2.5c-2.3-0.9-4.7-1.7-7-2.6
					c-2.3-0.9-4.7-1.7-7-2.6c-2.3-0.9-4.7-1.7-7-2.6c-2.3-0.8-4.6-1.7-6.9-2.5c-0.3-0.1-0.6-0.2-0.8-0.3
					C156.1,152,156.1,152.3,156.2,152.3L156.2,152.3z"/>
			</g>
			<g>
				<path class="st5" d="M88.9,130c1,1.4,2,2.8,3,4.3c1,1.5,2.1,3,3.1,4.4c1.1,1.5,2.1,3,3.2,4.5c1,1.5,2.1,3,3.1,4.4
					c1,1.4,2,2.9,3,4.3c0.1,0.2,0.2,0.3,0.4,0.5c0.1,0.2,0.4,0,0.3-0.2c-1-1.4-2-2.8-3-4.3c-1-1.5-2.1-3-3.1-4.4
					c-1.1-1.5-2.1-3-3.2-4.5c-1-1.5-2.1-3-3.1-4.4c-1-1.4-2-2.9-3-4.3c-0.1-0.2-0.2-0.3-0.4-0.5C89.1,129.7,88.8,129.9,88.9,130
					L88.9,130z"/>
			</g>
			<g>
				<path class="st5" d="M72.5,156.7c1-2.2,2-4.5,3-6.7c1-2.2,2-4.4,3-6.6c0.6-1.3,1.1-2.5,1.7-3.8c0.1-0.2-0.2-0.3-0.3-0.2
					c-1,2.2-2,4.5-3,6.7c-1,2.2-2,4.4-3,6.6c-0.6,1.3-1.1,2.5-1.7,3.8C72.2,156.7,72.5,156.9,72.5,156.7L72.5,156.7z"/>
			</g>
			<g>
				<g>
					<path class="st4" d="M105,164.7c1.7,0.3,3.4-1.7,4.3-2.8c0.7-0.8,1.3-1.7,1.8-2.7c0.5-0.9,0.8-1.9,0.9-3c0-1.2-0.2-2.1,0.7-3.1
						c0.6-0.7,1.5-1.1,2.2-1.5c1.4-0.9,2.8-2.1,3.2-3.7c0.3-1.2,0-2.4-0.8-3.3c0.4-0.5,0.8-1,1.1-1.6c0.2-0.2,0.3-0.5,0.2-0.8
						c-0.1-0.3-0.3-0.5-0.5-0.7c-0.3-0.2-0.6-0.4-0.8-0.7c-0.3-0.2-0.6-0.4-0.9-0.6c-0.1-0.1-0.3-0.1-0.4-0.1
						c-0.1,0-0.2,0.2-0.3,0.3c-0.2,0.3-0.5,0.6-0.7,0.9c-0.3,0.3-0.5,0.7-0.8,1c-1.8-0.6-3.8-0.2-4.9,1.7c-1.3,2.3-0.8,4-2,5.2
						c-0.9,1-2,0.8-3.1,1.4c-1.7,1-2.9,2.5-3.9,4.1c-0.5,0.7-1,1.5-1.3,2.2c-0.4,0.9-0.6,1.9-0.2,3
						C99.4,161.8,102.6,164.2,105,164.7z"/>
					<g>
						<path class="st1" d="M117.9,143.6c0.1,0,0.2,0.1,0.2,0c0.2,0.1,0.8-0.8,1-1.1c0.2-0.3,0.4-0.6,0.4-0.8c0-0.5-0.4-0.9-0.8-1.2
							c-0.4-0.3-0.7-0.6-1.1-0.8c-0.2-0.1-0.5-0.2-0.9-0.3c-0.3,0-0.6-0.1-0.8,0.1c-0.1,0.1-0.7,0.8-1,1.3c-0.2,0.3-0.3,0.5-0.2,0.5
							C115.5,142.5,116.5,143.3,117.9,143.6z"/>
					</g>
					<g>
						<path class="st5" d="M113,148.9c-1.8,0.2-3.5,0.3-5.3,0.2c-0.2,0-0.2,0.3,0,0.3c1.8,0.1,3.6,0,5.3-0.2
							C113.2,149.2,113.2,148.9,113,148.9L113,148.9z"/>
					</g>
					<g>
						<path class="st5" d="M113.6,152c-2.1,0.3-4.1,0.4-6.2,0.4c-0.2,0-0.2,0.3,0,0.3c2.1,0,4.2-0.1,6.2-0.4
							C113.8,152.3,113.8,152,113.6,152L113.6,152z"/>
					</g>
					<g>
						<path class="st5" d="M114.1,142.5c0.6,1,1.5,1.7,2.6,2.1c0.2,0.1,0.3-0.2,0.1-0.3c-1-0.3-1.8-1-2.4-1.9
							C114.2,142.2,113.9,142.3,114.1,142.5L114.1,142.5z"/>
					</g>
					<g>
						<path class="st5" d="M116,140.1c0.6,1,1.6,1.7,2.8,2c0.2,0,0.3-0.3,0.1-0.3c-1.1-0.2-2-0.9-2.6-1.8
							C116.2,139.8,115.9,139.9,116,140.1L116,140.1z"/>
					</g>
				</g>
				<g>
					<path class="st4" d="M83.4,145c-1.7,1.2-1.6,4-1.4,5.7c0.1,1.2,0.3,2.4,0.6,3.5c0.3,1.1,0.8,2.1,1.6,3c0.9,0.9,1.9,1.5,1.9,2.9
						c0,1-0.4,2-0.7,3c-0.5,1.8-0.7,3.8,0.3,5.5c0.7,1.2,2,1.8,3.3,1.9c0.1,0.7,0.2,1.4,0.3,2.1c0,0.3,0.2,0.6,0.5,0.8
						c0.3,0.1,0.6,0.1,1,0.1c0.4,0,0.8-0.1,1.3-0.2c0.4-0.1,0.8-0.1,1.2-0.3c0.2-0.1,0.4-0.1,0.4-0.3c0.1-0.1,0.1-0.3,0-0.5
						c0-0.4-0.1-0.8-0.1-1.3c-0.1-0.5-0.1-0.9-0.2-1.4c2-1.1,3.5-3,2.8-5.3c-0.7-2.9-2.5-3.7-2.5-5.6c0-1.5,1.1-2.2,1.5-3.6
						c0.6-2.1,0.4-4.3,0-6.3c-0.2-0.9-0.3-1.9-0.7-2.8c-0.4-1.1-1-2-2.2-2.5C90.5,142.5,85.8,143.3,83.4,145z"/>
					<g>
						<path class="st1" d="M89.3,171.6c-0.1,0.1-0.2,0.1-0.2,0.1c-0.2,0.1,0,1.3,0,1.7c0.1,0.3,0.1,0.8,0.3,1
							c0.4,0.3,1.1,0.4,1.6,0.3c0.6,0,1-0.1,1.6-0.3c0.3-0.1,0.6-0.2,1-0.5c0.3-0.2,0.6-0.4,0.6-0.7c0-0.2-0.1-1.2-0.2-1.8
							c0-0.4-0.2-0.6-0.2-0.6C92.3,170.5,90.8,170.7,89.3,171.6z"/>
					</g>
					<g>
						<path class="st5" d="M89.2,163.5c1-1.2,2.2-2.4,3.4-3.5c0.3-0.3,0.7-0.6,1-0.9c0.2-0.1-0.1-0.3-0.2-0.2
							c-1.2,1.1-2.4,2.2-3.5,3.4c-0.3,0.3-0.6,0.7-0.9,1C88.9,163.5,89.1,163.7,89.2,163.5L89.2,163.5z"/>
					</g>
					<g>
						<path class="st5" d="M86.2,161.7c1.2-1.5,2.5-2.9,3.8-4.2c0.4-0.4,0.8-0.8,1.2-1.1c0.1-0.1-0.1-0.4-0.2-0.2
							c-1.4,1.3-2.7,2.7-3.9,4.1c-0.4,0.4-0.7,0.8-1,1.2C85.9,161.6,86.1,161.8,86.2,161.7L86.2,161.7z"/>
					</g>
					<g>
						<path class="st5" d="M93.5,169.3c-1.3-0.3-2.7-0.1-3.8,0.5c-0.2,0.1,0,0.4,0.2,0.3c1.1-0.5,2.4-0.7,3.6-0.5
							C93.6,169.6,93.7,169.3,93.5,169.3L93.5,169.3z"/>
					</g>
					<g>
						<path class="st5" d="M93.8,172.8c-1.3-0.3-2.8,0-3.9,0.8c-0.2,0.1,0,0.4,0.2,0.3c1.1-0.7,2.4-1,3.7-0.7
							C93.9,173.1,94,172.8,93.8,172.8L93.8,172.8z"/>
					</g>
				</g>
				<g>
					<path class="st4" d="M109.7,155.1c0.3,0.3,0.6,0.6,0.9,0.8c0.8-1.3,1.6-2.6,2.5-3.9c0.9-1.4,1.9-2.7,2.9-4.1
						c-0.1,0-0.1,0-0.2-0.1c-2.6-0.8-4.1,0.1-5.5-0.7c-1.2-0.7-1.2-1.8-2.1-2.7c-1.3-1.4-3.1-2.2-4.9-2.9c-0.8-0.3-1.6-0.6-2.5-0.8
						c-1-0.2-2-0.1-2.9,0.5c-1.6,1.1-3.2,4.8-3.1,7.2c0.1,1.7,2.4,2.9,3.7,3.6c1,0.5,2,0.8,3,1.1c1,0.3,2,0.4,3.1,0.2
						c1.1-0.2,2-0.7,3.2-0.1C108.5,153.7,109.1,154.5,109.7,155.1z"/>
				</g>
				<g>
					<path class="st5" d="M108.5,145.2c-0.3,0.8-0.5,1.7-0.5,2.6c0,0.2,0.3,0.2,0.3,0c0-0.8,0.2-1.7,0.5-2.5
						C108.9,145.1,108.6,145,108.5,145.2L108.5,145.2z"/>
				</g>
				<g>
					<path class="st5" d="M94.8,146.7c0.3,0.8,0.5,1.6,0.5,2.5c0,0.2,0.3,0.2,0.3,0c0-0.9-0.2-1.7-0.5-2.6
						C95.1,146.4,94.8,146.5,94.8,146.7L94.8,146.7z"/>
				</g>
				<path class="st1" d="M101.5,153.6c-7.9,0-19,0.1-19,0.2c0.5,4.4,2.8,25.9,3,27.8c0.2,1.8,0.3,3.6,0.5,5.3c0.2,1.5,0.6,3,1.8,4
					c1.2,1.1,2.7,1.6,4.2,2.1c2.8,0.8,5.8,1,8.7,0.5c2.9,0.5,5.9,0.3,8.7-0.5c1.5-0.4,3-1,4.2-2.1c1.2-1.1,1.6-2.5,1.8-4
					c0.2-1.8,0.4-3.6,0.5-5.3c0.2-1.9,2.5-23.3,3-27.8C119,153.7,108.8,153.6,101.5,153.6z"/>
				<path class="st1" d="M120.5,149.5c0-0.4,0-0.8-0.2-1.2c-0.2-0.4-0.6-0.6-1-0.7c-1.1-0.2-35.9-0.2-37,0c-0.4,0.1-0.8,0.3-1,0.7
					c-0.2,0.3-0.2,0.8-0.2,1.2c0,1,0,2.1,0.1,3.1c0.1,0.5,0.1,1,0.2,1.6c0.1,0.4,0.1,0.8,0.4,1.1c0.1,0.2,0.3,0.3,0.4,0.4
					c0.2,0.1,0.5,0.1,0.7,0.1l1.6,0.1c0.1,0,32.5,0,32.7,0l1.6-0.1c0.2,0,0.5,0,0.7-0.1c0.2-0.1,0.3-0.2,0.4-0.4
					c0.2-0.3,0.3-0.7,0.4-1.1c0.1-0.5,0.2-1,0.2-1.6C120.5,151.6,120.5,150.5,120.5,149.5z"/>
				<path class="st1" d="M108.8,127.7c0.3-0.3,0.2-0.6,0-0.7c-0.9-0.5-1.4-0.3-2.3,0.2c-0.5,0.3-1,0.7-1.4,1
					c-0.5,0.4-23.3,17.8-23.8,18.2c-0.5,0.5-0.9,0.8-1,1.6c0,0.2,0,0.4,0.1,0.6c0.1,0.2,0.3,0.2,0.5,0.2c0.4-0.1,2.5-1.8,2.8-2
					C88.9,142.7,108.5,127.9,108.8,127.7z"/>
				<g>
					<path class="st5" d="M81,148.8c0.3-0.6,0.9-1,1.5-1.1c0.2,0,0.1-0.3-0.1-0.3c-0.7,0.2-1.4,0.6-1.7,1.3
						C80.6,148.8,80.9,149,81,148.8L81,148.8z"/>
				</g>
				<g>
					<g>
						<path class="st5" d="M102.2,177.1c0.5,0.2,1,0.2,1.5,0.1c2,0,4.1-0.2,6-0.7c0.2-0.1,0.5-0.1,0.7-0.2c0.2-0.1,0.5-0.1,0.7-0.2
							c0.4-0.3,0.5-0.7,0.5-1.2c0-0.5-0.2-1-0.4-1.4c-0.2-0.4-0.4-0.9-0.7-1.2c-0.1-0.1-0.1-0.1-0.2-0.1c-3.2,0.5-6.5,0.9-9.7,1.6
							c-0.1,0.1-0.2,0.2-0.3,0.4c-0.1,0.2-0.3,0.4-0.4,0.6c-0.1,0.2-0.2,0.4-0.1,0.6c0.1,0.2,0.3,0.4,0.5,0.5
							c0.2,0.2,0.4,0.3,0.6,0.5C101.2,176.6,101.7,176.9,102.2,177.1z"/>
						<g>
							<path class="st5" d="M102.6,171.5c-0.5,0.6-1,1.1-1.5,1.7c-0.3,0.3-0.5,0.6-0.8,0.8c-0.2,0.2-0.4,0.5-0.5,0.7
								c-0.2,0.6,0,1.1,0.5,1.4c0.2,0.2,0.5,0.4,0.7,0.5c0.3,0.2,0.6,0.4,1,0.6c0.7,0.5,1.5,0.9,2.2,1.4c0.2,0.1,0.3-0.2,0.2-0.3
								c-0.6-0.4-1.2-0.8-1.8-1.1c-0.6-0.4-1.2-0.7-1.7-1.1c-0.4-0.3-0.9-0.7-0.7-1.2c0.1-0.3,0.3-0.5,0.5-0.7
								c0.2-0.3,0.5-0.5,0.7-0.8c0.5-0.6,1.1-1.2,1.6-1.8C103,171.6,102.8,171.4,102.6,171.5L102.6,171.5z"/>
						</g>
						<g>
							<path class="st5" d="M107.6,167.9c1,1.5,1.9,3,2.7,4.6c0.2,0.5,0.4,0.9,0.6,1.4c0.1,0.2,0.4,0.1,0.3-0.1
								c-0.7-1.7-1.5-3.3-2.5-4.8c-0.3-0.4-0.6-0.9-0.9-1.3C107.7,167.6,107.5,167.8,107.6,167.9L107.6,167.9z"/>
						</g>
					</g>
					<g>
						<path class="st5" d="M94.2,167.3c-0.4,0.3-0.7,0.7-1,1.2c-1.1,1.7-2.1,3.5-2.8,5.4c-0.1,0.2-0.2,0.5-0.3,0.7
							c-0.1,0.2-0.2,0.4-0.2,0.7c0,0.5,0.3,0.8,0.7,1c0.4,0.2,0.9,0.4,1.4,0.5c0.4,0.1,1,0.2,1.4,0.1c0.1,0,0.2-0.1,0.2-0.1
							c1.4-3,2.9-5.9,4.1-8.9c0-0.2-0.1-0.3-0.1-0.5c-0.1-0.2-0.2-0.4-0.2-0.6c-0.1-0.2-0.2-0.4-0.4-0.5c-0.2-0.1-0.5,0-0.7,0.1
							c-0.3,0.1-0.5,0.2-0.8,0.3C95.1,166.8,94.6,167,94.2,167.3z"/>
						<g>
							<path class="st5" d="M98.6,170.8c-0.2-0.7-0.3-1.5-0.5-2.2c-0.1-0.4-0.2-0.7-0.3-1.1c-0.1-0.3-0.1-0.6-0.3-0.8
								c-0.1-0.2-0.4-0.4-0.6-0.5c-0.3-0.1-0.6,0-0.9,0c-0.3,0.1-0.6,0.2-0.9,0.4c-0.3,0.2-0.7,0.3-1,0.5c-0.8,0.3-1.5,0.7-2.3,1
								c-0.2,0.1,0,0.3,0.2,0.3c0.6-0.3,1.3-0.6,1.9-0.9c0.6-0.3,1.3-0.6,1.9-0.8c0.5-0.2,1.1-0.3,1.4,0.2c0.1,0.2,0.2,0.5,0.3,0.8
								c0.1,0.3,0.2,0.7,0.2,1c0.2,0.8,0.4,1.5,0.5,2.3C98.3,171.1,98.6,171,98.6,170.8L98.6,170.8z"/>
						</g>
						<g>
							<path class="st5" d="M98.8,176.9c-1.8,0-3.6-0.1-5.4-0.4c-0.5-0.1-1-0.2-1.5-0.3c-0.2,0-0.3,0.3-0.1,0.3
								c1.8,0.4,3.6,0.6,5.4,0.7c0.5,0,1,0,1.6,0C99,177.2,99,176.9,98.8,176.9L98.8,176.9z"/>
						</g>
					</g>
					<g>
						<path class="st5" d="M105.9,165.4c-0.1-0.5-0.4-0.9-0.6-1.4c-1.1-1.7-2.2-3.4-3.6-4.9c-0.2-0.2-0.4-0.4-0.5-0.5
							c-0.2-0.2-0.3-0.3-0.5-0.4c-0.4-0.2-0.9-0.1-1.3,0.2c-0.4,0.3-0.7,0.7-1,1c-0.3,0.4-0.6,0.8-0.7,1.2c0,0.1,0,0.2,0,0.2
							c2,2.6,4,5.2,6.3,7.5c0.2,0,0.3,0.1,0.5,0.1c0.2,0,0.5,0.1,0.7,0.1c0.2,0,0.4,0,0.6-0.2c0.2-0.2,0.2-0.5,0.2-0.7
							c0-0.3,0.1-0.5,0.1-0.8C106,166.5,106,165.9,105.9,165.4z"/>
						<g>
							<path class="st5" d="M100.8,167.9c0.7,0.2,1.5,0.3,2.2,0.5c0.4,0.1,0.7,0.2,1.1,0.2c0.3,0.1,0.6,0.1,0.9,0.1
								c0.6-0.1,0.9-0.6,1-1.1c0.1-0.3,0.1-0.6,0.1-0.9c0-0.4,0-0.8,0-1.1c0-0.9,0-1.7,0.1-2.6c0-0.2-0.3-0.2-0.3,0
								c0,0.7,0,1.4-0.1,2.2c0,0.7,0,1.4-0.1,2c0,0.5-0.1,1-0.6,1.2c-0.3,0.1-0.6,0-0.9-0.1c-0.3-0.1-0.7-0.2-1-0.2
								c-0.8-0.2-1.6-0.3-2.3-0.5C100.7,167.5,100.6,167.8,100.8,167.9L100.8,167.9z"/>
						</g>
						<g>
							<path class="st5" d="M95.3,165.4c0.7-1.6,1.6-3.2,2.6-4.7c0.3-0.4,0.6-0.8,0.9-1.2c0.1-0.2-0.1-0.4-0.2-0.2
								c-1.1,1.4-2.1,3-2.9,4.6c-0.2,0.5-0.5,0.9-0.7,1.4C94.9,165.4,95.2,165.6,95.3,165.4L95.3,165.4z"/>
						</g>
					</g>
				</g>
				<g>
					<path class="st5" d="M82.8,156c4.7,0.1,9.3,0.2,14,0.2c4.6,0,9.3,0,13.9-0.1c2.6,0,5.3-0.1,7.9-0.1c0.2,0,0.2-0.3,0-0.3
						c-4.7,0.1-9.3,0.2-14,0.2c-4.6,0-9.3,0-13.9,0c-2.6,0-5.3-0.1-7.9-0.2C82.6,155.7,82.6,156,82.8,156L82.8,156z"/>
				</g>
			</g>
			<g>
				<path class="st7" d="M133.3,163.1c-6.3-2-15.2-4.7-15.3-4.6c-0.7,3.7-4.2,21.4-4.5,23c-0.3,1.5-0.7,2.9-0.9,4.4
					c-0.2,1.3-0.2,2.6,0.4,3.7c0.7,1.1,1.8,2,2.9,2.7c2,1.4,4.4,2.3,6.9,2.6c2.2,1.1,4.6,1.7,7.1,1.8c1.3,0,2.7-0.1,3.9-0.6
					c1.2-0.6,1.9-1.6,2.4-2.8c0.6-1.4,1.2-2.8,1.8-4.1c0.6-1.4,7.8-18.1,9.3-21.5C147.3,167.5,139.1,164.9,133.3,163.1z"/>
				<g>
					<path class="st5" d="M117.6,160.2c-0.6,2.5-1.1,5-1.7,7.5c-0.6,2.6-1.1,5.2-1.6,7.9c-0.3,1.5-0.5,2.9-0.7,4.4
						c0,0.1,0,0.2,0.1,0.2c0.1,0,0.2,0,0.2-0.1c0.4-2.6,0.8-5.3,1.4-7.9c0.5-2.6,1.1-5.2,1.7-7.8c0.3-1.4,0.6-2.8,0.9-4.2
						C118,160.1,117.7,160,117.6,160.2L117.6,160.2z"/>
				</g>
				<path class="st7" d="M149.5,164.5c0.1-0.3,0.2-0.7,0.1-1c-0.1-0.4-0.4-0.6-0.7-0.8c-0.8-0.5-28.7-9.1-29.6-9.2
					c-0.4,0-0.7,0-1,0.3c-0.2,0.2-0.4,0.6-0.5,0.9c-0.3,0.8-0.5,1.7-0.7,2.5c-0.1,0.4-0.2,0.9-0.2,1.3c0,0.3-0.1,0.7,0,1
					c0.1,0.2,0.1,0.3,0.3,0.4c0.2,0.1,0.3,0.2,0.5,0.3l1.2,0.5c0.1,0,26,8.1,26.1,8.1l1.3,0.3c0.2,0,0.4,0.1,0.6,0.1
					c0.2,0,0.3-0.1,0.4-0.2c0.3-0.2,0.4-0.5,0.6-0.8c0.2-0.4,0.4-0.8,0.6-1.2C149,166.2,149.3,165.4,149.5,164.5z"/>
				<path class="st7" d="M148.1,162.4c0.4,0.1,0.5-0.2,0.5-0.3c-0.1-0.9-0.5-1.1-1.3-1.5c-0.4-0.2-0.9-0.3-1.4-0.5
					c-0.5-0.2-23.5-7.1-24-7.2c-0.6-0.1-1-0.2-1.6,0.1c-0.1,0.1-0.3,0.2-0.3,0.3c-0.1,0.1,0,0.3,0.1,0.4c0.2,0.3,2.4,0.8,2.8,0.9
					C128.1,156.3,147.8,162.4,148.1,162.4z"/>
				<g>
					<g>
						<path class="st5" d="M128,182.1c0.3,0.3,0.8,0.4,1.2,0.5c1.6,0.5,3.3,0.8,5,1c0.2,0,0.4,0,0.6,0c0.2,0,0.4,0,0.6,0
							c0.4-0.1,0.6-0.5,0.7-0.8c0.1-0.4,0.1-0.8,0-1.2c0-0.4-0.1-0.8-0.3-1.1c0-0.1-0.1-0.1-0.1-0.2c-2.7-0.4-5.4-0.9-8.2-1.1
							c-0.1,0.1-0.2,0.1-0.4,0.2c-0.2,0.1-0.3,0.2-0.5,0.4c-0.1,0.1-0.3,0.3-0.3,0.4c0,0.2,0.1,0.4,0.2,0.5c0.1,0.2,0.3,0.4,0.4,0.5
							C127.3,181.4,127.6,181.8,128,182.1z"/>
						<g>
							<path class="st5" d="M129.7,177.7c-0.5,0.3-1.1,0.6-1.6,0.9c-0.3,0.2-0.5,0.3-0.8,0.5c-0.2,0.1-0.4,0.2-0.6,0.4
								c-0.4,0.4-0.3,0.9-0.1,1.4c0.1,0.2,0.3,0.4,0.5,0.6c0.2,0.2,0.4,0.5,0.6,0.7c0.5,0.5,0.9,1.1,1.4,1.6
								c0.1,0.2,0.3-0.1,0.2-0.2c-0.7-0.9-1.5-1.7-2.2-2.6c-0.3-0.4-0.6-0.9-0.2-1.3c0.2-0.2,0.4-0.3,0.5-0.4
								c0.3-0.1,0.5-0.3,0.8-0.4c0.6-0.3,1.1-0.7,1.7-1C130,177.8,129.9,177.6,129.7,177.7L129.7,177.7z"/>
						</g>
						<g>
							<path class="st5" d="M134.5,176.1c0.6,1.8,1,3.7,1.1,5.7c0,0.2,0.3,0.2,0.3,0c-0.2-1.9-0.5-3.9-1.1-5.7
								C134.8,175.8,134.5,175.9,134.5,176.1L134.5,176.1z"/>
						</g>
					</g>
					<g>
						<path class="st5" d="M124,172.2c-0.4,0.1-0.7,0.4-1,0.7c-1.3,1.1-2.5,2.3-3.6,3.6c-0.1,0.2-0.3,0.3-0.4,0.5
							c-0.1,0.2-0.2,0.3-0.3,0.5c-0.1,0.4,0.1,0.7,0.3,1c0.3,0.3,0.6,0.5,1,0.7c0.3,0.2,0.7,0.4,1.1,0.4c0.1,0,0.1,0,0.2,0
							c1.9-2,3.8-4,5.5-6.1c0-0.1,0-0.3,0-0.4c0-0.2,0-0.4,0-0.6c0-0.2-0.1-0.4-0.2-0.5c-0.2-0.1-0.4-0.1-0.6-0.1
							c-0.2,0-0.5,0-0.7,0C124.9,172,124.4,172.1,124,172.2z"/>
						<g>
							<path class="st5" d="M126.7,176.1c0-0.6,0.1-1.3,0.1-1.9c0-0.3,0-0.6,0.1-0.9c0-0.2,0-0.5,0-0.7c-0.1-0.5-0.6-0.7-1.1-0.7
								c-0.3,0-0.5,0-0.7,0.1c-0.3,0-0.6,0.1-0.9,0.1c-0.7,0.1-1.4,0.2-2.2,0.3c-0.2,0-0.2,0.3,0,0.3c0.6-0.1,1.2-0.1,1.8-0.2
								c0.6-0.1,1.1-0.2,1.7-0.2c0.4,0,0.9,0,1.1,0.4c0.1,0.2,0.1,0.5,0.1,0.7c0,0.3,0,0.6-0.1,0.9c0,0.7-0.1,1.4-0.1,2
								C126.3,176.3,126.6,176.3,126.7,176.1L126.7,176.1z"/>
						</g>
						<g>
							<path class="st5" d="M125.3,181c-1.9-0.5-3.6-1.3-5.3-2.2c-0.2-0.1-0.3,0.2-0.2,0.3c1.7,1,3.5,1.7,5.4,2.2
								C125.4,181.4,125.5,181.1,125.3,181L125.3,181z"/>
						</g>
					</g>
					<g>
						<path class="st5" d="M133.9,173.6c0-0.4-0.1-0.8-0.2-1.2c-0.4-1.6-0.9-3.3-1.7-4.8c-0.1-0.2-0.2-0.4-0.3-0.6
							c-0.1-0.2-0.2-0.4-0.3-0.5c-0.3-0.3-0.7-0.3-1.1-0.1c-0.4,0.1-0.7,0.3-1.1,0.6c-0.3,0.2-0.7,0.5-0.9,0.8
							c0,0.1-0.1,0.1-0.1,0.2c1,2.6,2,5.1,3.2,7.6c0.1,0.1,0.2,0.1,0.4,0.2c0.2,0.1,0.4,0.2,0.5,0.2c0.2,0.1,0.4,0.1,0.5,0
							c0.2-0.1,0.3-0.3,0.3-0.5c0.1-0.2,0.2-0.4,0.3-0.6C133.7,174.5,133.8,174.1,133.9,173.6z"/>
						<g>
							<path class="st5" d="M129.2,174.3c0.6,0.3,1.1,0.6,1.7,0.9c0.3,0.2,0.5,0.3,0.8,0.5c0.2,0.1,0.5,0.3,0.8,0.3
								c0.5,0.1,0.8-0.3,1-0.7c0.1-0.2,0.2-0.5,0.3-0.7c0.1-0.3,0.2-0.6,0.3-0.9c0.2-0.7,0.5-1.4,0.7-2c0.1-0.2-0.2-0.3-0.3-0.1
								c-0.2,0.6-0.4,1.1-0.6,1.7c-0.2,0.5-0.3,1.1-0.5,1.6c-0.1,0.3-0.3,0.8-0.8,0.8c-0.3,0-0.5-0.1-0.7-0.3
								c-0.3-0.1-0.5-0.3-0.8-0.4c-0.6-0.3-1.2-0.7-1.7-1C129.2,174,129,174.2,129.2,174.3L129.2,174.3z"/>
						</g>
						<g>
							<path class="st5" d="M125.4,171c1.3-1.4,2.7-2.7,4.3-3.8c0.2-0.1,0-0.4-0.2-0.3c-1.6,1.1-3.1,2.4-4.4,3.9
								C125,170.9,125.2,171.1,125.4,171L125.4,171z"/>
						</g>
					</g>
				</g>
				<g>
					<path class="st5" d="M117.8,160.4c1.8,0.6,3.7,1.2,5.6,1.9c1.9,0.6,3.7,1.2,5.6,1.8c1.9,0.6,3.7,1.2,5.6,1.7
						c1.9,0.6,3.7,1.1,5.6,1.7c1.9,0.6,3.7,1.1,5.6,1.6c0.2,0.1,0.5,0.1,0.7,0.2c0.2,0.1,0.3-0.2,0.1-0.3c-1.9-0.5-3.8-1.1-5.6-1.6
						c-1.9-0.6-3.7-1.1-5.6-1.7c-1.9-0.6-3.7-1.1-5.6-1.7c-1.9-0.6-3.7-1.2-5.6-1.8c-1.9-0.6-3.7-1.2-5.6-1.8
						c-0.2-0.1-0.5-0.2-0.7-0.2C117.6,160,117.6,160.3,117.8,160.4L117.8,160.4z"/>
				</g>
				<g>
					<path class="st5" d="M120,153.9c1.8,0.6,3.6,1.2,5.4,1.8c1.8,0.6,3.6,1.2,5.4,1.8c1.8,0.6,3.6,1.1,5.5,1.7
						c1.8,0.6,3.6,1.1,5.5,1.6c1.8,0.5,3.7,1.1,5.5,1.6c0.2,0.1,0.5,0.1,0.7,0.2c0.2,0.1,0.3-0.2,0.1-0.3c-1.8-0.5-3.7-1.1-5.5-1.6
						c-1.8-0.5-3.7-1.1-5.5-1.6c-1.8-0.6-3.7-1.1-5.5-1.7c-1.8-0.6-3.6-1.1-5.4-1.7c-1.8-0.6-3.6-1.2-5.4-1.8
						c-0.2-0.1-0.5-0.2-0.7-0.2C119.9,153.5,119.8,153.8,120,153.9L120,153.9z"/>
				</g>
				<g>
					<path class="st5" d="M117.8,160.1c-0.2-0.1-0.5-0.2-0.6-0.4c-0.2-0.2-0.2-0.5-0.2-0.8c0-0.6,0.1-1.3,0.2-1.9
						c0.1-0.6,0.3-1.2,0.5-1.8c0.1-0.3,0.2-0.5,0.4-0.8c0.1-0.2,0.3-0.5,0.5-0.6c0.2-0.1,0.5-0.1,0.7-0.1c0.2,0,0.5,0.1,0.7,0.1
						c0.2,0.1,0.3-0.2,0.1-0.3c-0.4-0.1-1-0.2-1.5-0.1c-0.5,0.2-0.9,0.8-1.1,1.3c-0.6,1.3-0.9,2.6-0.9,4c0,0.3,0,0.7,0.2,1
						c0.2,0.3,0.5,0.4,0.8,0.5C117.9,160.4,118,160.1,117.8,160.1L117.8,160.1z"/>
				</g>
			</g>
			<g>
				<path class="st8" d="M69.4,164.4c-6.3,2.2-15,5.4-15,5.5c1.6,3.4,9.5,19.7,10.1,21.1c0.6,1.4,1.2,2.7,1.9,4.1
					c0.6,1.1,1.3,2.2,2.5,2.7c1.2,0.5,2.6,0.5,3.9,0.5c2.5-0.1,4.9-0.8,7-2c2.4-0.4,4.8-1.4,6.8-2.8c1-0.8,2.1-1.6,2.7-2.8
					c0.6-1.2,0.5-2.5,0.3-3.7c-0.3-1.5-0.7-2.9-1.1-4.4c-0.4-1.5-4.6-19.1-5.4-22.8C83.2,159.6,75.1,162.4,69.4,164.4z"/>
				<g>
					<path class="st5" d="M83.3,161.4c0.6,2.5,1.2,5,1.8,7.5c0.6,2.5,1.2,5,1.8,7.6c0.3,1.4,0.6,2.8,0.9,4.3c0,0.2,0.3,0.1,0.3-0.1
						c-0.5-2.5-1.1-5-1.7-7.6c-0.6-2.5-1.2-5-1.8-7.6c-0.3-1.4-0.7-2.8-1.1-4.2C83.6,161.1,83.3,161.2,83.3,161.4L83.3,161.4z"/>
				</g>
				<path class="st8" d="M83.2,155.9c-0.1-0.3-0.3-0.6-0.5-0.8c-0.3-0.2-0.6-0.3-1-0.2c-0.9,0.1-28.5,9.9-29.2,10.3
					c-0.3,0.2-0.6,0.4-0.6,0.8c-0.1,0.3,0,0.7,0.1,1c0.3,0.8,0.6,1.6,1,2.4c0.2,0.4,0.4,0.8,0.6,1.2c0.2,0.3,0.3,0.6,0.6,0.8
					c0.1,0.1,0.3,0.1,0.5,0.2c0.2,0,0.4-0.1,0.6-0.1l1.3-0.3c0.1,0,25.7-9.1,25.8-9.1l1.2-0.5c0.2-0.1,0.4-0.1,0.5-0.3
					c0.1-0.1,0.2-0.2,0.3-0.4c0.1-0.3,0-0.7,0-1c-0.1-0.4-0.2-0.9-0.3-1.3C83.7,157.5,83.5,156.7,83.2,155.9z"/>
				<g>
					<path class="st5" d="M81.6,155c0.4-0.2,0.9,0,1.2,0.4c0.3,0.4,0.5,0.9,0.7,1.4c0.2,0.5,0.3,1.1,0.5,1.7
						c0.1,0.6,0.3,1.1,0.3,1.7c0,0.3,0,0.5-0.2,0.8c-0.1,0.2-0.3,0.3-0.5,0.4c-0.2,0.1-0.1,0.4,0.1,0.3c0.2-0.1,0.4-0.2,0.6-0.4
						c0.2-0.2,0.2-0.4,0.3-0.6c0.1-0.3,0-0.6,0-0.9c0-0.3-0.1-0.6-0.2-1c-0.1-0.7-0.3-1.3-0.5-1.9c-0.2-0.5-0.4-1.1-0.7-1.6
						c-0.4-0.4-1-0.7-1.6-0.4C81.2,154.8,81.4,155.1,81.6,155L81.6,155z"/>
				</g>
				<path class="st8" d="M80.8,155c0.3-0.2,0.3-0.4,0.2-0.5c-0.6-0.7-1.1-0.6-1.9-0.4c-0.5,0.1-0.9,0.3-1.4,0.4
					c-0.5,0.2-23.1,8.4-23.6,8.6c-0.6,0.2-0.9,0.4-1.2,1c-0.1,0.1-0.1,0.3-0.1,0.5c0,0.1,0.2,0.2,0.3,0.3c0.4,0.1,2.5-0.8,2.8-0.9
					C61.2,162.1,80.5,155.2,80.8,155z"/>
				<g>
					<g>
						<path class="st5" d="M76.4,182.8c0.4,0,0.8-0.2,1.2-0.3c1.6-0.6,3.2-1.3,4.6-2.2c0.2-0.1,0.4-0.2,0.5-0.4
							c0.2-0.1,0.3-0.2,0.4-0.4c0.2-0.3,0.2-0.7,0-1.1c-0.2-0.4-0.4-0.7-0.7-1c-0.3-0.3-0.5-0.6-0.9-0.8c-0.1,0-0.1,0-0.2-0.1
							c-2.4,1.3-4.9,2.5-7.2,4c-0.1,0.1-0.1,0.3-0.2,0.4c-0.1,0.2-0.1,0.4-0.2,0.6c0,0.2-0.1,0.4,0.1,0.5c0.1,0.2,0.3,0.2,0.5,0.3
							c0.2,0.1,0.4,0.1,0.6,0.2C75.5,182.7,76,182.8,76.4,182.8z"/>
						<g>
							<path class="st5" d="M75.2,178.2c-0.3,0.6-0.5,1.2-0.8,1.8c-0.1,0.3-0.3,0.6-0.4,0.9c-0.1,0.3-0.2,0.5-0.2,0.8
								c0,0.5,0.4,0.8,0.8,1c0.2,0.1,0.5,0.1,0.7,0.2c0.3,0.1,0.6,0.1,0.9,0.2c0.7,0.2,1.4,0.3,2.1,0.5c0.2,0,0.3-0.3,0.1-0.3
								c-0.6-0.1-1.2-0.3-1.7-0.4c-0.5-0.1-1.1-0.2-1.6-0.4c-0.4-0.1-0.8-0.2-0.9-0.7c0-0.3,0.1-0.5,0.2-0.8
								c0.1-0.3,0.2-0.5,0.4-0.8c0.3-0.6,0.5-1.2,0.8-1.8C75.5,178.2,75.3,178,75.2,178.2L75.2,178.2z"/>
						</g>
						<g>
							<path class="st5" d="M78.1,174.1c1.6,1.1,3,2.4,4.3,3.9c0.1,0.2,0.4-0.1,0.2-0.2c-1.3-1.5-2.8-2.8-4.3-3.9
								C78.1,173.7,78,174,78.1,174.1L78.1,174.1z"/>
						</g>
					</g>
					<g>
						<path class="st5" d="M67.3,177.3c-0.2,0.4-0.3,0.8-0.4,1.2c-0.4,1.7-0.7,3.3-0.7,5c0,0.2,0,0.4,0,0.6c0,0.2,0,0.4,0.1,0.6
							c0.1,0.4,0.5,0.6,0.9,0.6c0.4,0.1,0.8,0,1.2,0c0.4-0.1,0.8-0.1,1.1-0.3c0.1,0,0.1-0.1,0.2-0.1c0.3-2.7,0.6-5.5,0.7-8.2
							c-0.1-0.1-0.1-0.2-0.2-0.4c-0.1-0.2-0.2-0.3-0.4-0.4c-0.1-0.1-0.3-0.3-0.5-0.2c-0.2,0-0.4,0.2-0.5,0.3
							c-0.2,0.1-0.4,0.3-0.5,0.4C67.9,176.6,67.6,176.9,67.3,177.3z"/>
						<g>
							<path class="st5" d="M71.8,178.8c-0.3-0.5-0.7-1.1-1-1.6c-0.2-0.3-0.3-0.5-0.5-0.8c-0.1-0.2-0.3-0.4-0.4-0.6
								c-0.4-0.4-0.9-0.3-1.3,0c-0.2,0.2-0.4,0.4-0.6,0.5c-0.2,0.2-0.4,0.4-0.7,0.6c-0.5,0.5-1,1-1.5,1.5c-0.1,0.1,0.1,0.4,0.2,0.2
								c0.8-0.8,1.6-1.6,2.5-2.4c0.3-0.3,0.8-0.6,1.2-0.3c0.2,0.1,0.3,0.4,0.4,0.5c0.2,0.2,0.3,0.5,0.5,0.7c0.4,0.6,0.7,1.1,1.1,1.7
								C71.7,179.1,71.9,179,71.8,178.8L71.8,178.8z"/>
						</g>
						<g>
							<path class="st5" d="M73.7,183.6c-1.8,0.7-3.7,1.2-5.6,1.4c-0.2,0-0.2,0.3,0,0.3c1.9-0.2,3.8-0.7,5.7-1.4
								C73.9,183.8,73.8,183.5,73.7,183.6L73.7,183.6z"/>
						</g>
					</g>
					<g>
						<path class="st5" d="M76.1,172.5c-0.2-0.4-0.5-0.6-0.9-0.9c-1.3-1.1-2.7-2.1-4.2-2.8c-0.2-0.1-0.4-0.2-0.6-0.3
							c-0.2-0.1-0.4-0.2-0.5-0.2c-0.4-0.1-0.7,0.2-0.9,0.5c-0.2,0.3-0.4,0.7-0.5,1.1c-0.1,0.4-0.3,0.8-0.2,1.2c0,0.1,0,0.1,0.1,0.2
							c2.3,1.4,4.6,2.9,7.1,4.2c0.1,0,0.3,0,0.4,0c0.2,0,0.4-0.1,0.6-0.1c0.2-0.1,0.3-0.1,0.4-0.3c0.1-0.2,0-0.4,0-0.6
							c0-0.2-0.1-0.4-0.2-0.7C76.5,173.3,76.3,172.9,76.1,172.5z"/>
						<g>
							<path class="st5" d="M72.8,175.9c0.6-0.1,1.3-0.2,1.9-0.2c0.3,0,0.6-0.1,0.9-0.1c0.2,0,0.5-0.1,0.7-0.2
								c0.5-0.2,0.6-0.7,0.6-1.2c0-0.3-0.1-0.5-0.2-0.8c-0.1-0.3-0.2-0.6-0.3-0.9c-0.2-0.7-0.4-1.4-0.7-2c-0.1-0.2-0.4-0.1-0.3,0.1
								c0.2,0.6,0.4,1.1,0.5,1.7c0.2,0.5,0.4,1.1,0.5,1.6c0.1,0.4,0.2,0.9-0.2,1.2c-0.2,0.1-0.4,0.1-0.7,0.2c-0.3,0-0.6,0.1-0.9,0.1
								c-0.7,0.1-1.3,0.2-2,0.2C72.6,175.6,72.6,175.9,72.8,175.9L72.8,175.9z"/>
						</g>
						<g>
							<path class="st5" d="M67.7,175.5c0.2-1.9,0.6-3.8,1.2-5.6c0.1-0.2-0.2-0.3-0.3-0.1c-0.6,1.9-1,3.8-1.2,5.7
								C67.4,175.7,67.7,175.6,67.7,175.5L67.7,175.5z"/>
						</g>
					</g>
				</g>
				<g>
					<path class="st5" d="M55.2,171.5c1.9-0.6,3.7-1.2,5.6-1.8c1.8-0.6,3.7-1.3,5.5-1.9c1.8-0.6,3.7-1.3,5.5-2
						c1.8-0.7,3.7-1.3,5.5-2c1.8-0.7,3.7-1.4,5.5-2c0.2-0.1,0.5-0.2,0.7-0.3c0.2-0.1,0.1-0.4-0.1-0.3c-1.8,0.7-3.7,1.4-5.5,2.1
						c-1.8,0.7-3.6,1.3-5.5,2c-1.8,0.7-3.7,1.3-5.5,2c-1.8,0.6-3.7,1.3-5.5,1.9c-1.9,0.6-3.7,1.2-5.6,1.9c-0.2,0.1-0.5,0.1-0.7,0.2
						C55,171.3,55.1,171.6,55.2,171.5L55.2,171.5z"/>
				</g>
				<g>
					<path class="st5" d="M53.2,165c1.8-0.6,3.6-1.2,5.5-1.8c1.8-0.6,3.6-1.2,5.4-1.9c1.8-0.6,3.6-1.3,5.4-1.9
						c1.8-0.6,3.6-1.3,5.4-2c1.8-0.7,3.6-1.3,5.4-2c0.2-0.1,0.4-0.2,0.7-0.3c0.2-0.1,0.1-0.4-0.1-0.3c-1.8,0.7-3.6,1.4-5.4,2
						c-1.8,0.7-3.6,1.3-5.4,2c-1.8,0.6-3.6,1.3-5.4,1.9c-1.8,0.6-3.6,1.2-5.4,1.9c-1.8,0.6-3.6,1.2-5.5,1.8
						c-0.2,0.1-0.4,0.1-0.7,0.2C52.9,164.8,53,165.1,53.2,165L53.2,165z"/>
				</g>
			</g>
			<path class="st9" d="M68.6,193.3c0.7-1.4,1.5-2.8,2.3-4.2c1.1-1.8,2.3-3.6,3.5-5.4c-1.2,0.7-2.4,1.5-3.5,2.2
				c-2,1.2-4.1,2.3-6.3,3.2c-1,0.4-2,0.8-2.8,1.5c-0.7,0.7-1.2,1.7-0.9,2.7c0.3,0.9,1.1,1.6,2.1,1.9c1.1,0.3,2.2,0.2,3.3,0
				c0.5-0.1,1-0.2,1.5-0.4C68.1,194.3,68.3,193.8,68.6,193.3z"/>
			<path class="st3" d="M153.6,158.8c-0.7,1.6-1.5,3.4-2.2,5c-1.2,2.7-2.4,5.4-3.6,8.2c-0.1,0.3-0.3,0.6-0.4,0.9
				c-1.5,0.6-3.1,1.2-4.6,1.8c-2.4,0.9-4.8,1.6-7.3,2.2c-13.8,3.5-27.8,1-41.8,1.1c-3.2,0-6.4,0.2-9.5,0.8c-3.1,0.6-6,1.8-8.6,3.7
				c-2.5,1.9-4.5,4.4-6.1,7c-1.8,2.9-3.3,6-4.5,9.2c-0.6,1.6-1.2,3.3-1.5,5c-0.3,1.4-0.3,2.9,0.9,3.8c1.1,0.8,2.5,0.8,3.7,0.3
				c1.5-0.6,2.7-1.8,3.8-2.8c0.3-0.3,0.6-0.6,0.9-0.9c-0.2,0.5-0.3,1-0.5,1.5c-0.4,1.4-0.5,2.9-0.1,4.3c0.2,0.6,0.5,1.2,1,1.6
				c0.5,0.4,1.1,0.6,1.7,0.6c1.4,0,2.5-0.8,3.5-1.7c0.5-0.5,1-1,1.4-1.6c0.4-0.5,0.8-1,1.2-1.5c0,0.1,0,0.1,0,0.2c0,0.7,0,1.4,0.1,2
				c0,0.3,0.1,0.6,0.4,0.9c0.2,0.2,0.5,0.4,0.8,0.4c0.6,0.1,1.3-0.1,1.8-0.4c0.6-0.3,1.2-0.7,1.8-1.2c1.2-0.9,2.2-2.1,3.2-3.2
				c1.1-1.2,2.2-2.5,3.3-3.7c0.4-0.5,0.8-0.9,1.2-1.4c4.7,3.9,10.3,6.6,16.1,8.3c8,2.3,16.5,2.9,24.7,2.1c8.6-0.9,17.1-3.4,24.6-7.7
				c6.7-3.9,12.6-9.1,17-15.5c2.3-3.3,4.1-6.9,5.6-10.7c1-2.6,1.8-4.8,2.6-7.5C173.7,165.3,158.5,160.3,153.6,158.8z"/>
			<g>
				<path class="st5" d="M147.7,173c1.6-0.9,3.2-1.7,4.8-2.6c0.5-0.2,0.9-0.5,1.4-0.7c0.2-0.1,0-0.4-0.2-0.3
					c-1.6,0.9-3.2,1.7-4.8,2.6c-0.5,0.2-0.9,0.5-1.4,0.7C147.3,172.8,147.5,173.1,147.7,173L147.7,173z"/>
			</g>
			<g>
				<path class="st5" d="M81.4,207.3c0.5-1.5,1-3,1.7-4.4c0.7-1.4,1.5-2.8,2.4-4.1c0.5-0.7,1.1-1.4,1.6-2.1c0.1-0.2-0.1-0.4-0.2-0.2
					c-1,1.2-2,2.5-2.8,3.9c-0.8,1.4-1.5,2.8-2.1,4.3c-0.3,0.8-0.6,1.7-0.9,2.6C81,207.4,81.3,207.5,81.4,207.3L81.4,207.3z"/>
			</g>
			<g>
				<path class="st5" d="M73.3,204.1c0.7-1.9,1.5-3.8,2.4-5.6c0.9-1.8,1.9-3.6,3.1-5.3c0.6-1,1.3-1.9,2-2.8c0.1-0.1,0-0.2-0.1-0.2
					c-0.1,0-0.2,0-0.2,0.1c-1.3,1.6-2.4,3.3-3.4,5.1c-1,1.8-2,3.6-2.8,5.5c-0.5,1.1-0.9,2.1-1.3,3.2
					C72.9,204.2,73.2,204.3,73.3,204.1L73.3,204.1z"/>
			</g>
			<g>
				<path class="st5" d="M66.7,195.1c0.6-1.5,1.4-3,2.2-4.4c0.8-1.4,1.7-2.8,2.8-4c0.6-0.7,1.2-1.4,1.8-2.1c0.1-0.1-0.1-0.4-0.2-0.2
					c-1.1,1.2-2.1,2.5-3.1,3.8c-0.9,1.3-1.8,2.7-2.5,4.2c-0.4,0.8-0.8,1.7-1.2,2.5c0,0.1,0,0.2,0.1,0.2
					C66.6,195.2,66.7,195.2,66.7,195.1L66.7,195.1z"/>
			</g>
		</g>
	</g>
</g>
</svg>
