<?xml version="1.0" encoding="utf-8"?>
<!-- Generator: $$$/GeneralStr/196=Adobe Illustrator 27.6.0, SVG Export Plug-In . SVG Version: 6.00 Build 0)  -->
<svg version="1.1" id="圖層_1" xmlns="http://www.w3.org/2000/svg" xmlns:xlink="http://www.w3.org/1999/xlink" x="0px" y="0px"
	 viewBox="0 0 300 42" style="enable-background:new 0 0 300 42;" xml:space="preserve">
<style type="text/css">
	.st0{fill:#407140;}
</style>
<g>
	<path class="st0" d="M293.4,14.8c-5.6-1.3-13-2.7-18.7-2.8c-6.4-0.1-13.3-0.6-19.8-0.5c-12.8,0.4-23.8,3.2-36.6,4
		c-12.8,0.8-25.6,1.6-38.4,1.9c-11,0.2-21.9,0.1-32.9-0.8c-1.1-2.3-4-3.5-6.5-3.7c-2.2-0.2-4.6-0.1-6.8-0.1c-2.3,0-4.6,0-7,0
		c-9.3-0.1-18.6-0.2-27.9-0.5c-9.3-0.3-18.7-0.7-28-1.3c-9.3-0.6-18.5-1.4-27.8-2.5C38.4,7.9,33.7,7.3,29,6.7
		c-3.3-0.5-7.7-0.9-9.6,2.5c-0.1,0.1-0.1,0.3-0.2,0.4c-6.7-0.1-13.4,1.5-19.1,5c0,0,0,0-0.1,0v7.6c2.3,1.4,4.9,2.2,7.5,2.7
		c3.5,0.7,7.1,0.7,10.7,0.7c4.1,0,8.2-0.1,12.3,0c4.4,0.1,8.9,0.3,13.3,0.7c0.5,0,1.1,0.1,1.6,0.2c1,0.2,1.2,1.3,0.5,2
		c-0.7,0.7-1.7,1.1-2.7,1.4c-1.5,0.4-3.1,0.5-4.6,1.1c-2.4,1.1-4.1,3.6-1.9,5.8c2.4,2.3,6,3.3,9.2,3.8c3.7,0.6,7.4,0.5,11.1,0.6
		c4.5,0,8.9,0.1,13.4,0.1c15.2,0,30.5-0.2,45.7-0.6c10,1.5,20.2,1.2,30.3,0.7c6.4-0.3,12.8-0.7,19.2-0.7c6.5,0,13,0.1,19.6,0.4
		c13.1,0.5,26.1,1.2,39.2,0.9c12.8-0.3,25.5-1.6,38.1-3.6c3.2-0.5,6.3-1.1,9.5-1.7c3-0.6,6.1-1.2,9.1-2c1.8-0.5,3.7-1.3,4.1-3.3
		c0.1-0.8,0-1.6,0.5-2.3c0.5-0.7,1.3-1.1,2.1-1.4c1.4-0.5,3-0.6,4.5-0.5c2.4,0.1,4.9,0.3,7.2-0.6c0.2-0.1,0.4-0.2,0.7-0.3v-8.6
		C298,16.2,295.7,15.4,293.4,14.8z"/>
</g>
</svg>
