<?xml version="1.0" encoding="utf-8"?>
<!-- Generator: $$$/GeneralStr/196=Adobe Illustrator 27.6.0, SVG Export Plug-In . SVG Version: 6.00 Build 0)  -->
<svg version="1.1" id="圖層_1" xmlns="http://www.w3.org/2000/svg" xmlns:xlink="http://www.w3.org/1999/xlink" x="0px" y="0px"
	 viewBox="0 0 110 50" style="enable-background:new 0 0 110 50;" xml:space="preserve">
<style type="text/css">
	.st0{fill:#4F8700;}
	.st1{fill:#FFA300;}
	.st2{fill:#0094A8;}
	.st3{fill:#9AAF00;}
	.st4{display:none;fill:#9AAF00;}
</style>
<g>
	<g>
		<path class="st0" d="M0.63,33.64h10.01c0,0,2.78,0.13,3.9-2.05c0,0,1.42-2.84,1.72-3.37H6.25c0,0-2.68,0.07-3.63,2.48
			C2.64,30.7,1.59,32.95,0.63,33.64z"/>
		<path class="st1" d="M38.16,20.09l-4.3,3.8c-1.52-2.11-3.04-3.17-4.63-3.17c-0.76,0-1.39,0.2-1.88,0.63
			c-0.5,0.4-0.73,0.86-0.73,1.39s0.17,0.99,0.53,1.45c0.46,0.59,1.88,1.92,4.26,3.93c2.21,1.85,3.57,3.04,4.03,3.5
			c1.19,1.19,2.02,2.35,2.51,3.4c0.5,1.09,0.73,2.28,0.73,3.57c0,2.51-0.86,4.59-2.61,6.21c-1.72,1.62-4,2.45-6.77,2.45
			c-2.18,0-4.06-0.53-5.68-1.59c-1.62-1.06-3.01-2.74-4.16-5.02l4.89-2.94c1.49,2.71,3.17,4.06,5.09,4.06c0.99,0,1.85-0.3,2.51-0.86
			c0.69-0.59,1.02-1.26,1.02-2.02c0-0.69-0.26-1.39-0.76-2.08c-0.53-0.69-1.65-1.75-3.4-3.17c-3.34-2.71-5.49-4.82-6.44-6.28
			c-0.96-1.49-1.45-2.94-1.45-4.43c0-2.11,0.79-3.93,2.41-5.45c1.62-1.52,3.6-2.28,5.98-2.28c1.52,0,2.97,0.36,4.36,1.06
			C35.06,16.95,36.55,18.24,38.16,20.09z"/>
		<path class="st2" d="M67.84,31.86l1.29-2.68l-8.39,0.07l-3.44,7.24h8.76c-0.86,1.82-1.95,3.14-3.34,3.97
			c-1.39,0.86-3.07,1.26-5.09,1.26c-3.11,0-5.68-1.02-7.8-3.07s-3.17-4.56-3.17-7.5c0-2.84,1.02-5.29,3.04-7.27
			c2.02-1.98,4.56-3.01,7.57-3.01c3.47,0,6.48,1.39,9.05,4.13l0.03-0.03l2.61-5.49c-1.39-1.26-2.81-2.21-4.26-2.84
			c-2.31-0.99-4.79-1.49-7.47-1.49c-5.09,0-9.22,1.78-12.39,5.35c-2.68,3.01-4,6.51-4,10.57c0,2.94,0.73,5.72,2.18,8.26
			c1.45,2.54,3.4,4.53,5.91,5.88c2.48,1.39,5.32,2.08,8.49,2.08c2.97,0,5.55-0.63,7.77-1.88c2.21-1.26,4-3.07,5.39-5.49
			c1.39-2.41,2.08-4.92,2.08-7.6v-0.4L67.84,31.86z"/>
		<g>
			<polygon class="st3" points="5.78,26.93 5.78,21.64 16.69,21.64 16.69,15.96 0,15.96 0,26.93 			"/>
			<polygon class="st3" points="5.78,35.79 0,35.79 0,46.53 16.69,46.53 16.69,40.81 5.78,40.81 			"/>
		</g>
	</g>
	<g>
		<g>
			<path class="st3" d="M106.27,27.79l-1.12-0.1l0.03,5.52l1.12,0.03v-5.06c0.2-0.07,0.3-0.17,0.3-0.23
				C106.53,27.86,106.43,27.82,106.27,27.79z"/>
			<path class="st3" d="M104.85,30.63l-0.83-0.89l-0.59,0.66v-2.45h1.29l0,0c0.13,0,0.4,0.03,0-0.36l0,0l-0.76-0.76l-0.53,0.59
				h-2.74l0.1,0.56h1.16v2.51h-1.42l0.1,0.5h1.32v3.87l1.45-0.26l0.03-3.6h1.42C104.98,31,105.24,31.06,104.85,30.63L104.85,30.63z"
				/>
			<path class="st3" d="M108.45,26.83l-1.49-0.13v7.04c0,0,0.07,1.02-0.26,1.45l1.39-0.26c0.2-0.17,0.33-0.43,0.33-0.73v-6.87
				c0.23-0.13,0.33-0.23,0.33-0.33C108.74,26.9,108.65,26.87,108.45,26.83z"/>
			<path class="st3" d="M97.64,31.76l-0.96-0.66l-0.53,0.46H95.4l-1.22-0.33v3.24l1.29-0.2v-0.73h0.69v0.36l1.35-0.2v-1.59
				c0.2-0.07,0.3-0.13,0.3-0.23C97.77,31.89,97.74,31.82,97.64,31.76z M96.16,33.14h-0.69v-1.12h0.69V33.14z"/>
			<path class="st3" d="M99.79,27.33l-1.26-0.76l-0.56,0.69h-4.36l-1.39-0.23v3.93c-0.03,0.66-0.23,2.84-1.22,4.06
				c0,0,2.48-0.36,2.64-4.06l0,0v-0.1c0-0.03,0-0.07,0-0.13V30.4l0.07,0.3h4.1c0.1,0.03,0.33-0.03,0.07-0.3l0,0l-0.07-0.07
				c-0.03-0.03-0.03-0.03-0.07-0.07l-0.59-0.63l-0.46,0.56h-0.33v-0.86h1.29h0.03c0.1,0,0.43,0.03,0-0.4l0,0l-0.59-0.59l-0.46,0.53
				h-0.26v-0.4c0.17-0.07,0.26-0.13,0.26-0.23c0-0.1-0.1-0.13-0.3-0.17L95,27.99v0.86h-1.16l0.1,0.46H95v0.86h-1.42v-2.45h4.39h0.03
				v6.01c0,0,0.07,1.02-0.26,1.45l1.39-0.26c0.2-0.17,0.33-0.43,0.33-0.73v-6.38l0.07-0.03c0.23-0.13,0.36-0.2,0.36-0.3
				C99.92,27.46,99.89,27.39,99.79,27.33z"/>
			<path class="st3" d="M82.71,21.71c0.17-0.23,0.33-0.46,0.5-0.69c0,0,0.46,0.03,0.53-0.33c0,0,0.03-0.26-0.4-0.4l-2.71-0.89
				c0,0-2.68,5.98-8.43,9.38c0,0,5.45-1.06,9.68-6.05c0.2,0.26,0.86,1.06,1.85,1.98c2.35,2.74,5.85,3.83,5.85,3.83
				c0.26-0.56,2.71-3.01,2.71-3.01C86.7,25.05,83.27,22.21,82.71,21.71z"/>
			<path class="st3" d="M85.28,27.13l-1.55-1.39c0,0-0.26-0.26-0.46,0.07L82.48,27l-4.79-0.03l0.13,0.66h7.2
				C85.05,27.63,85.71,27.72,85.28,27.13z"/>
			<path class="st3" d="M87.5,29.64l-1.92-0.89l-0.93,0.63h-8.99l0.17,0.69l8.53-0.03l-2.71,3.93c-0.59,0.69-0.46,0.56-0.79,0.83
				l2.58,0.4c0.63,0.07,1.16-0.69,1.16-0.69l2.71-3.87c0.33-0.1,0.5-0.3,0.5-0.3C88.06,29.97,87.5,29.64,87.5,29.64z"/>
		</g>
		<g>
			<polygon class="st3" points="87.63,36.58 74.51,36.58 73.95,37.37 87.63,37.37 			"/>
			<polygon class="st3" points="92.12,36.58 91.03,37.37 109.44,37.37 110,36.58 			"/>
			<polygon class="st3" points="86.77,41.07 86.77,36.58 87.63,36.58 87.63,39.72 92.12,36.58 93.38,36.58 			"/>
			<polygon class="st4" points="92.12,37.44 86.77,41.17 86.77,40.35 92.12,36.58 			"/>
		</g>
	</g>
	<g>
		<path class="st3" d="M16.52,10.97h-0.66c0.2-0.69,0.26-1.45,0.26-2.21h0.59C16.75,9.52,16.69,10.28,16.52,10.97z M17.98,8.49
			c-0.03-0.1-0.1-0.3-0.13-0.43l-0.2,0.43h-1.26c-0.17,0-0.3-0.1-0.4-0.2c-0.07-0.13-0.07-0.3,0.07-0.46l1.02-1.45h-0.79
			c-0.13,0-0.23-0.07-0.3-0.17c-0.07-0.1-0.07-0.23,0-0.36l1.09-1.75h0.76l-1.12,1.75h0.69l0.33-0.5h0.83L16.75,8h1.09
			c-0.03-0.2-0.13-0.66-0.2-0.93h0.63c0.07,0.43,0.23,1.09,0.36,1.45h-0.66V8.49z M17.15,10.97c-0.1-0.66-0.2-1.52-0.2-2.21h0.59
			c0.03,0.76,0.07,1.52,0.23,2.21H17.15z M18.01,10.64c-0.1-0.63-0.17-1.26-0.2-1.88h0.59c0,0.56,0.1,1.26,0.26,1.88H18.01z
			 M20.95,4.93v0.3h1.62v0.46h-3.83V5.22h1.55v-0.3h-1.82v-0.5h1.82v-0.4h0.69v0.4h1.82v0.5H20.95z M19.59,10.97h-1.12
			c0.36-0.2,0.73-0.4,1.06-0.73h0.99C20.26,10.58,19.92,10.81,19.59,10.97z M22.57,7.21c-0.1,0.07-0.2,0.13-0.4,0.13h-3.14
			c-0.13,0-0.23-0.07-0.3-0.13c-0.1-0.1-0.17-0.23-0.17-0.4V6.45c0-0.13,0.07-0.26,0.17-0.36c0.1-0.07,0.2-0.13,0.33-0.13h3.07
			c0.17,0,0.3,0.03,0.4,0.13c0.13,0.1,0.17,0.26,0.17,0.43v0.3C22.7,6.94,22.67,7.07,22.57,7.21z M22.3,9.91
			c-0.1,0.1-0.26,0.17-0.43,0.17H19.3c-0.13,0-0.26-0.07-0.36-0.2c-0.07-0.1-0.13-0.23-0.13-0.36V8.06c0-0.17,0.07-0.3,0.2-0.4
			c0.1-0.1,0.23-0.13,0.4-0.13h2.51c0.17,0,0.3,0.07,0.4,0.2S22.47,8,22.47,8.16v1.35C22.47,9.68,22.4,9.82,22.3,9.91z M19.76,6.41
			h-0.4c-0.07,0-0.13,0.07-0.13,0.13v0.17c0,0.07,0.07,0.13,0.13,0.13h0.4V6.41z M21.78,8.13c0-0.07-0.07-0.13-0.13-0.13h-1.98
			c-0.07,0-0.13,0.07-0.13,0.13v0.13h2.25V8.13z M21.78,8.69H19.5v0.23h2.25V8.69H21.78z M21.78,9.35H19.5v0.1
			c0,0.07,0.07,0.13,0.13,0.13h1.98c0.07,0,0.13-0.07,0.13-0.13v-0.1H21.78z M20.88,6.41h-0.5v0.4h0.5V6.41z M21.78,10.97
			c-0.26-0.2-0.59-0.46-0.79-0.73h0.96c0.26,0.26,0.66,0.53,1.02,0.73H21.78z M22.01,6.58c0-0.07-0.07-0.13-0.17-0.13h-0.36v0.4
			h0.36c0.07,0,0.17-0.07,0.17-0.13V6.58z"/>
		<path class="st3" d="M36.45,6.94c-0.1-0.1-0.23-0.3-0.33-0.43l-0.26,0.43h-4.99c-0.17,0-0.26-0.07-0.3-0.2
			c-0.07-0.13-0.03-0.26,0.07-0.4L32.58,4h0.96l-1.95,2.35h4.43c-0.3-0.5-0.63-1.06-0.86-1.62h0.83c0.36,0.76,0.86,1.52,1.42,2.18
			h-0.96V6.94z M36.81,10.71c-0.13,0.13-0.3,0.2-0.5,0.2h-4.76c-0.2,0-0.36-0.07-0.5-0.2s-0.23-0.33-0.23-0.53V8.39
			c0-0.2,0.07-0.36,0.2-0.5c0.13-0.13,0.3-0.2,0.53-0.2h4.73c0.2,0,0.4,0.1,0.53,0.23c0.1,0.13,0.17,0.3,0.17,0.5v1.75
			C36.98,10.41,36.91,10.61,36.81,10.71z M36.25,8.53c0-0.13-0.1-0.23-0.23-0.23h-4.2c-0.1,0-0.23,0.1-0.23,0.23v1.65
			c0,0.1,0.07,0.2,0.2,0.2h4.3c0.07,0,0.2-0.1,0.2-0.2V8.53H36.25z"/>
		<path class="st3" d="M44.97,10.97h-0.76c0.26-0.73,0.63-2.05,0.73-2.84h0.69C45.5,8.86,45.2,10.21,44.97,10.97z M44.91,5.69
			C44.71,5.32,44.38,4.5,44.21,4h0.73c0.1,0.43,0.46,1.22,0.73,1.69H44.91z M44.87,7.7c-0.2-0.43-0.53-1.29-0.66-1.75h0.73
			c0.1,0.46,0.46,1.32,0.73,1.75H44.87z M46.13,7.5H45.7c0.1-0.26,0.17-0.79,0.2-1.16h0.4C46.26,6.71,46.23,7.21,46.13,7.5z
			 M50.03,5.75h0.56c-0.03-0.1-0.07-0.3-0.1-0.4h0.43c0.03,0.2,0.13,0.59,0.23,0.83h-0.46c-0.03-0.07-0.07-0.23-0.1-0.33l-0.2,0.33
			h-0.76c-0.17,0-0.23-0.07-0.26-0.17c-0.03-0.1,0-0.23,0.1-0.33c0.17-0.17,0.4-0.43,0.5-0.56H49.7c-0.07,0-0.13,0-0.2-0.03
			c-0.07-0.03-0.1-0.1-0.13-0.17h-1.88v-0.2c-0.23,0.23-0.79,0.79-1.06,1.06h0.56c-0.03-0.1-0.07-0.26-0.07-0.4h0.43
			c0.03,0.2,0.13,0.59,0.2,0.79h-0.46c-0.03-0.07-0.07-0.2-0.1-0.26l-0.2,0.26H45.9c-0.1,0-0.17-0.07-0.2-0.13
			c-0.03-0.07-0.03-0.17,0.03-0.23c0.2-0.2,0.46-0.46,0.63-0.63h-0.4c-0.1,0-0.2-0.07-0.23-0.13c-0.03-0.1-0.03-0.23,0.03-0.3
			c0.17-0.17,0.5-0.5,0.66-0.69h0.66c-0.2,0.2-0.53,0.56-0.73,0.76h0.33c0.07-0.07,0.17-0.17,0.2-0.2h0.5v-0.2h0.63
			c-0.03-0.1-0.1-0.3-0.1-0.43h0.63c0,0.1,0.07,0.3,0.1,0.43h0.69v0.23C49.5,4.5,49.76,4.17,49.89,4h0.59
			c-0.13,0.2-0.46,0.56-0.63,0.76h0.33c0.1-0.1,0.23-0.23,0.3-0.33h0.59C50.92,4.79,50.42,5.35,50.03,5.75z M50.85,10.77
			c-0.1,0.13-0.26,0.2-0.43,0.2h-2.18l-0.3-0.5h2.18c0.07,0,0.13-0.1,0.13-0.17v-0.17c0-0.07-0.07-0.17-0.13-0.17h-3.54
			c-0.17,0-0.3-0.03-0.4-0.13c-0.1-0.1-0.13-0.2-0.13-0.36V9.22c0-0.2,0.07-0.36,0.2-0.43c0.1-0.07,0.23-0.1,0.43-0.1h3.34
			c0.07,0,0.13-0.1,0.13-0.17v-0.1c0-0.07-0.07-0.13-0.13-0.13h-4.06V7.83h4.36c0.17,0,0.33,0.03,0.43,0.13
			c0.07,0.07,0.13,0.2,0.13,0.33v0.33c0,0.17-0.07,0.26-0.17,0.36c-0.1,0.07-0.23,0.13-0.4,0.13h-3.44c-0.07,0-0.13,0.07-0.13,0.13
			v0.13c0,0.07,0.07,0.13,0.13,0.13h3.54c0.17,0,0.26,0.07,0.36,0.13c0.1,0.1,0.17,0.23,0.17,0.4v0.43
			C50.95,10.58,50.92,10.67,50.85,10.77z M46.52,7.5c-0.03-0.26-0.1-0.86-0.1-1.16h0.36c0,0.3,0.03,0.86,0.1,1.16H46.52z M47.09,7.5
			c-0.07-0.33-0.13-0.86-0.13-1.16h0.36c0,0.33,0.1,0.86,0.17,1.16H47.09z M49.17,7.4C49.1,7.47,49,7.5,48.87,7.5h-0.93
			c-0.13,0-0.23-0.03-0.3-0.1c-0.07-0.07-0.1-0.17-0.1-0.3V6.78c0-0.17,0.03-0.26,0.13-0.36c0.07-0.07,0.17-0.07,0.3-0.07h0.89
			c0.13,0,0.23,0.03,0.3,0.13c0.07,0.07,0.1,0.17,0.1,0.26v0.36C49.27,7.24,49.23,7.34,49.17,7.4z M47.65,5.52v-0.4h1.62v0.4H47.65z
			 M47.65,6.15V5.72h1.62v0.4h-1.62V6.15z M48.74,6.87c0-0.07-0.03-0.13-0.1-0.13h-0.4c-0.07,0-0.13,0.07-0.13,0.13v0.13
			c0,0.07,0.07,0.13,0.13,0.13h0.43c0.07,0,0.1-0.07,0.1-0.1V6.87H48.74z M49.73,7.5H49.3c0.1-0.33,0.2-0.86,0.2-1.16h0.4
			C49.89,6.64,49.83,7.21,49.73,7.5z M50.13,7.5c-0.03-0.26-0.1-0.83-0.07-1.16h0.36c0,0.3,0.07,0.89,0.13,1.16H50.13z M50.75,7.5
			c-0.07-0.26-0.13-0.86-0.13-1.16h0.4c0.03,0.3,0.1,0.86,0.17,1.16H50.75z"/>
		<g>
			<path class="st3" d="M2.31,10.44H1.29c0.96-0.89,1.69-1.82,2.15-2.97c0-0.07-0.03-0.13-0.1-0.13H1.62V6.78h1.92
				c0.23,0,0.43,0.1,0.56,0.26c0.1,0.17,0.13,0.4,0.03,0.63C3.67,8.86,3.04,9.72,2.31,10.44z M7.24,10.44
				C6.38,9.65,5.72,8.73,5.19,7.77v2.41c0,0.26-0.07,0.46-0.23,0.59c-0.13,0.13-0.3,0.2-0.53,0.2H3.4l-0.26-0.53h1.09
				c0.13,0,0.23-0.1,0.23-0.23V6.25c0-0.1-0.07-0.2-0.2-0.2H2.61V5.52h1.85c0.2,0,0.4,0.07,0.5,0.2c0.13,0.13,0.2,0.3,0.2,0.5v0.26
				C5.32,6.81,5.52,7.14,5.72,7.4c0.56-0.43,1.06-1.02,1.35-1.65H7.9C7.57,6.61,6.84,7.34,6.11,7.97c0.63,0.86,1.39,1.78,2.28,2.45
				H7.24V10.44z"/>
			<polygon class="st3" points="5.98,5.32 4.69,5.32 3.3,4.1 4.59,4.1 			"/>
		</g>
	</g>
</g>
</svg>
