<?xml version="1.0" encoding="utf-8"?>
<!-- Generator: $$$/GeneralStr/196=Adobe Illustrator 27.6.0, SVG Export Plug-In . SVG Version: 6.00 Build 0)  -->
<svg version="1.1" id="圖層_1" xmlns="http://www.w3.org/2000/svg" xmlns:xlink="http://www.w3.org/1999/xlink" x="0px" y="0px"
	 viewBox="0 0 1600 720" style="enable-background:new 0 0 1600 720;" xml:space="preserve">
<style type="text/css">
	.st0{fill:#FCC14B;}
	.st1{fill:#E8605C;}
</style>
<g>
	<path class="st0" d="M214.5,546.1C178.7,547.1,93.2,573,0,580.3V720h606.7C493.1,548.6,326.4,542.9,214.5,546.1z"/>
</g>
<g>
	<path class="st0" d="M1600,0v668.9c-47.9,5.8-183.2,18-275.8-16c-42.8-15.7-129-67.7-101.5-180.8c13.4-55.3,32-81.1,54.7-128.7
		c33.8-71.1,15.1-127.4-108.3-143.2S907.7,225,862.8,236.4S567.6,232.8,456.8,8V0H1600z"/>
</g>
<g>
	<path class="st0" d="M311.6,713.1c67-7.8,184.7-8.5,289.2-1.6C487.5,548.4,324.5,542.9,214.5,546.1C178.7,547.1,93.2,573,0,580.3
		v102.3C87.2,707.8,165.4,730.1,311.6,713.1z"/>
	<path class="st1" d="M600.9,711.5L600.9,711.5c-104.5-6.9-222.3-6.2-289.2,1.6c-146.3,17-224.5-5.3-311.6-30.4V720h606.6h0.1h85
		C664,716.4,633.1,713.6,600.9,711.5z"/>
</g>
</svg>
