<?xml version="1.0" encoding="utf-8"?>
<!-- Generator: $$$/GeneralStr/196=Adobe Illustrator 27.6.0, SVG Export Plug-In . SVG Version: 6.00 Build 0)  -->
<svg version="1.1" id="圖層_1" xmlns="http://www.w3.org/2000/svg" xmlns:xlink="http://www.w3.org/1999/xlink" x="0px" y="0px"
	 viewBox="0 0 40 40" style="enable-background:new 0 0 40 40;" xml:space="preserve">
<style type="text/css">
	.st0{fill:#00C500;}
	.st1{fill:#FFFFFF;}
</style>
<circle class="st0" cx="20" cy="20" r="20"/>
<g>
	<g>
		<path class="st1" d="M33,20.4c0.1-0.4,0.1-0.5,0.1-0.8c0-0.4,0-0.9,0-1c-0.3-5.6-6-10-13.1-10C12.7,8.6,6.9,13.3,6.9,19
			c0,5.3,4.9,9.7,11.4,10.4c0.4,0,0.7,0.4,0.6,0.8l-0.3,2.5c-0.1,0.5,0.5,1,1,0.7c5.5-2.6,8.7-5.3,10.7-7.7c0.4-0.5,1.5-2.1,1.7-2.5
			C32.6,22.4,32.9,21.4,33,20.4z"/>
		<path class="st0" d="M12.7,21.1v-4.4c0-0.4-0.3-0.7-0.7-0.7l0,0c-0.4,0-0.7,0.3-0.7,0.7v5c0,0.4,0.3,0.7,0.7,0.7h2.7
			c0.4,0,0.7-0.3,0.7-0.7l0,0c0-0.4-0.3-0.7-0.7-0.7L12.7,21.1L12.7,21.1z"/>
		<path class="st0" d="M16.9,22.4h-0.3c-0.3,0-0.5-0.3-0.5-0.5v-5.4c0-0.3,0.3-0.5,0.5-0.5h0.3c0.3,0,0.5,0.3,0.5,0.5v5.4
			C17.4,22.3,17.2,22.4,16.9,22.4z"/>
		<path class="st0" d="M22.3,16.7v3.1l-2.7-3.5c-0.1-0.2-0.4-0.3-0.5-0.2c-0.4,0-0.6,0.4-0.6,0.7v5c0,0.4,0.3,0.7,0.7,0.7l0,0
			c0.4,0,0.7-0.3,0.7-0.7v-3.1c0,0,2.7,3.5,2.8,3.6c0.1,0.1,0.3,0.2,0.4,0.2c0.4,0,0.7-0.4,0.7-0.7v-5c0-0.4-0.3-0.7-0.7-0.7l0,0
			C22.7,16.1,22.3,16.3,22.3,16.7z"/>
		<path class="st0" d="M28.7,16.7L28.7,16.7c0-0.4-0.3-0.7-0.7-0.7h-2.7c-0.4,0-0.7,0.3-0.7,0.7v5c0,0.4,0.3,0.7,0.7,0.7H28
			c0.4,0,0.7-0.3,0.7-0.7l0,0c0-0.4-0.3-0.7-0.7-0.7h-2v-1.2h2.1c0.4,0,0.7-0.3,0.7-0.7l0,0c0-0.4-0.3-0.7-0.7-0.7h-2v-1h2
			C28.5,17.4,28.7,17.1,28.7,16.7z"/>
	</g>
</g>
</svg>
