<?xml version="1.0" encoding="utf-8"?>
<!-- Generator: $$$/GeneralStr/196=Adobe Illustrator 27.6.0, SVG Export Plug-In . SVG Version: 6.00 Build 0)  -->
<svg version="1.1" id="圖層_1" xmlns="http://www.w3.org/2000/svg" xmlns:xlink="http://www.w3.org/1999/xlink" x="0px" y="0px"
	 viewBox="0 0 1600 600" style="enable-background:new 0 0 1600 600;" xml:space="preserve">
<style type="text/css">
	.st0{fill:#E8605C;}
	.st1{fill:#4AACDD;}
	.st2{fill:#FFFBF0;}
</style>
<g>
	<path class="st0" d="M279.8,7.1c26.6-2.1,51-4.2,74-7.1H119.2C171.4,8.6,226.2,11.2,279.8,7.1z"/>
</g>
<g>
	<path class="st1" d="M1573.4,17.9c-7.8,0-16.3,0.1-25.3-0.4c-13-0.7-25.4-2.2-36.6-4.7c-11.2-2.5-21.3-6.1-29.7-10
		c-1.9-0.9-3.7-1.8-5.4-2.8h-141.2c-39.2,27.4-89.8,88-69.3,199.1c11.9,64.7,44.8,109.5,64.9,165.1c30,83.1,16,153.2-93.3,171.6
		c-109.3,18.4-250.5-48-290.2-61.3C907.7,461.2,686,337.3,587.9,600l1011.7,0V98.7c-0.4,1.1-0.8,2.2-1.3,3.3
		c-2.2,5.4-5.2,10.5-8.4,15c-1.6,2.3-3.2,4.3-4.7,6.1c-1.6,1.8-3,3.4-4.3,4.8c-2.6,2.7-4.4,4.2-4.4,4.2s-0.9-1.2-1.9-3.6
		c-1-2.5-2.1-6.2-2.4-11.1c-0.3-4.9,0.1-10.8,1.9-17.5c1.7-6.7,4.8-14.1,8.6-21.5c3.9-7.4,8.1-14.1,11.6-19.9
		c1.9-3.2,3.7-6.1,5.3-8.8v-8.9c-0.8,1.4-1.6,2.8-2.3,4.2c-1.8,3.3-3.6,6.7-5.3,10.3c-3.5,7-7.1,14.5-11.3,21.9
		c-4.2,7.4-8.9,14.3-14.3,20.3c-5.2,6-11.1,11.2-16.8,15.4c-2.9,2.1-5.7,3.9-8.3,5.5c-0.7,0.4-1.3,0.8-1.9,1.1l-0.2,0.1l0,0l0,0
		c0,0,0,0-0.1,0.2l-1.1,1.5l-1.1,1.4l-0.1,0l-0.5,0.3c-0.3,0.2-0.6,0.3-0.9,0.5c-1.2,0.6-2.4,1.2-3.4,1.7c-4.3,2.1-7,3.1-7,3.1
		s-0.1-2.2,0.4-5.9c0.3-1.9,0.7-4.1,1.4-6.7c0.7-2.7,1.7-5.7,3.1-8.9c2.7-6.4,6.9-13.6,12.7-20.9c5.8-7.3,13.3-15,21.7-22.2
		c6.8-5.9,13.5-11,19.6-15.8c6.1-4.8,11.6-9.3,15.9-13.2c0,0,0,0,0,0v-4.8c-0.8,0.6-1.6,1.2-2.5,1.9c-4.6,3.6-10,8.3-15.7,13.4
		c-5.7,5.2-12,11-18.9,16.7c-8.8,7.1-17.6,13.3-26.6,18.3c-4.5,2.5-9,4.7-13.3,6.5c-4.3,1.8-8.6,3.3-12.7,4.5
		c-4.1,1.2-7.9,2.1-11.5,2.8c-3.5,0.7-6.7,1.2-9.4,1.5c-5.2,0.4-8.3,0.4-8.3,0.4s1.1-2.5,3.6-6.4c1.2-1.9,2.9-4.2,4.9-6.7
		c1-1.2,2.1-2.5,3.3-3.9c1.3-1.4,2.7-2.8,4.2-4.2c6-5.7,13.7-11.6,23-16.9c9.3-5.4,20.3-10.1,32.1-14.4c8.4-3,16.6-5.4,24.1-7.7
		c7.5-2.3,14.1-4.5,19.6-6.5c1.4-0.5,2.8-1.1,4.1-1.6v-3.5c-1.6,0.4-3.4,0.9-5.3,1.5c-2.8,0.9-5.9,1.9-9.2,3
		c-3.2,1.1-6.7,2.4-10.3,3.8c-7.2,2.8-15.2,6-23.7,8.7c-12,3.9-23.8,6.9-34.9,8.5c-5.6,0.8-11,1.3-16.2,1.6
		c-5.2,0.2-10,0.1-14.5-0.3c-9-0.7-16.6-2.3-22-3.7c-2.6-0.7-4.9-1.4-6.1-1.9c-1.3-0.5-1.9-0.8-1.9-0.8s2.6-2.1,7.2-5
		c4.7-2.9,11.4-6.7,19.7-9.9c8.2-3.3,18-6,29.1-7.6c11.1-1.7,23.4-2.2,36.4-1.9c8.9,0.2,17.5,1,25.2,1.5c7.8,0.6,14.7,0.9,20.6,1
		c2.1,0,4,0,5.8-0.1V19c-1.7-0.2-3.6-0.4-5.6-0.5C1588.2,18.1,1581.2,17.9,1573.4,17.9z"/>
	<path class="st1" d="M1577.2,3.9c-3.2-1.3-6.6-2.5-10-3.9h-6.5c5.3,2.4,10.4,4.9,15.1,7.1c3.5,1.7,6.8,3.2,10,4.6
		c3.2,1.4,6.2,2.7,8.9,3.7c1.7,0.7,3.4,1.3,4.9,1.8v-3.7c-1.1-0.5-2.2-1.1-3.4-1.6C1591,9.4,1584.5,6.7,1577.2,3.9z"/>
	<path class="st1" d="M1594.1,0h-5.7c3.4,3.5,6.6,6.7,9.6,9.3c0.6,0.5,1.1,1,1.6,1.5V5.5C1598,3.8,1596.1,1.9,1594.1,0z"/>
	<path class="st2" d="M1598,0h-3.9c2,1.9,3.8,3.8,5.5,5.5V2.4V0H1598z"/>
	<path class="st2" d="M1598,9.3c-2.9-2.7-6.1-5.8-9.6-9.3h-7.1h-14.1c3.4,1.3,6.8,2.6,10,3.9c7.3,2.8,13.8,5.5,19.1,8
		c1.2,0.6,2.3,1.1,3.4,1.6v-1.3v-1.5C1599.1,10.3,1598.6,9.8,1598,9.3z"/>
	<path class="st2" d="M1594.8,15.4c-2.7-1.1-5.7-2.3-8.9-3.7c-3.2-1.4-6.5-2.9-10-4.6c-4.7-2.2-9.8-4.7-15.1-7.1h-41.3h-42.9
		c1.7,0.9,3.5,1.9,5.4,2.8c8.4,4,18.5,7.5,29.7,10c11.2,2.5,23.5,4,36.6,4.7c8.9,0.5,17.5,0.4,25.3,0.4c7.8,0,14.8,0.2,20.6,0.6
		c2,0.1,3.9,0.3,5.6,0.5v-0.8v-0.9C1598.1,16.7,1596.5,16.1,1594.8,15.4z"/>
	<path class="st2" d="M1593.9,22.3c-5.8,0-12.8-0.4-20.6-1c-7.8-0.6-16.3-1.3-25.2-1.5c-13-0.3-25.3,0.2-36.4,1.9
		c-11.1,1.6-20.9,4.4-29.1,7.6c-8.3,3.3-15,7-19.7,9.9c-4.7,2.9-7.2,5-7.2,5s0.7,0.3,1.9,0.8c1.1,0.5,3.4,1.2,6.1,1.9
		c5.4,1.4,13,3,22,3.7c4.5,0.3,9.3,0.5,14.5,0.3c5.2-0.2,10.6-0.7,16.2-1.6c11.2-1.6,22.9-4.6,34.9-8.5c8.5-2.8,16.4-6,23.7-8.7
		c3.6-1.4,7.1-2.7,10.3-3.8c3.2-1.1,6.4-2.2,9.2-3c1.9-0.6,3.6-1.1,5.3-1.5v-0.8v-0.8C1597.9,22.3,1595.9,22.3,1593.9,22.3z"/>
	<path class="st2" d="M1595.6,29.1c-5.4,2.1-12.1,4.3-19.6,6.5c-7.4,2.3-15.7,4.6-24.1,7.7c-11.9,4.3-22.8,9.1-32.1,14.4
		c-9.3,5.3-17.1,11.2-23,16.9c-1.5,1.4-2.9,2.8-4.2,4.2c-1.2,1.3-2.3,2.6-3.3,3.9c-2,2.5-3.6,4.8-4.9,6.7c-2.5,3.9-3.6,6.4-3.6,6.4
		s3.1,0.1,8.3-0.4c2.6-0.3,5.9-0.8,9.4-1.5c3.5-0.7,7.4-1.6,11.5-2.8c4.1-1.2,8.3-2.7,12.7-4.5c4.3-1.8,8.8-4,13.3-6.5
		c9-5,17.8-11.2,26.6-18.3c6.9-5.6,13.2-11.5,18.9-16.7c5.7-5.2,11.1-9.8,15.7-13.4c0.9-0.7,1.7-1.3,2.5-1.9v-1.3v-1.1
		C1598.4,28,1597,28.5,1595.6,29.1z"/>
	<path class="st2" d="M1599.6,34.7c-4.3,3.9-9.8,8.4-15.9,13.2c-6.1,4.8-12.9,9.9-19.6,15.8c-8.4,7.3-15.9,14.9-21.7,22.2
		c-5.8,7.3-10,14.5-12.7,20.9c-1.4,3.2-2.4,6.2-3.1,8.9c-0.7,2.6-1.1,4.8-1.4,6.7c-0.5,3.7-0.4,5.9-0.4,5.9s2.7-1,7-3.1
		c1.1-0.5,2.2-1.1,3.4-1.7c0.3-0.2,0.6-0.3,0.9-0.5l0.5-0.3l0.1,0l1.1-1.4l1.1-1.5c0.1-0.2,0.1-0.2,0.1-0.2l0,0l0,0l0.2-0.1
		c0.6-0.4,1.3-0.7,1.9-1.1c2.6-1.6,5.4-3.4,8.3-5.5c5.7-4.1,11.6-9.4,16.8-15.4c5.3-6.1,10-12.9,14.3-20.3
		c4.2-7.5,7.8-14.9,11.3-21.9c1.8-3.6,3.6-7,5.3-10.3c0.8-1.4,1.6-2.9,2.3-4.2v-3.7L1599.6,34.7
		C1599.7,34.7,1599.6,34.7,1599.6,34.7z"/>
	<path class="st2" d="M1594.3,58.5c-3.5,5.8-7.7,12.5-11.6,19.9c-3.9,7.4-6.9,14.7-8.6,21.5c-1.8,6.8-2.2,12.7-1.9,17.5
		c0.3,4.8,1.4,8.6,2.4,11.1c1,2.4,1.9,3.6,1.9,3.6s1.8-1.5,4.4-4.2c1.3-1.3,2.8-2.9,4.3-4.8c1.6-1.8,3.2-3.8,4.7-6.1
		c3.2-4.5,6.1-9.6,8.4-15c0.5-1.1,0.9-2.2,1.3-3.3V61V49.7C1598.1,52.4,1596.3,55.3,1594.3,58.5z"/>
</g>
</svg>
