<?xml version="1.0" encoding="utf-8"?>
<!-- Generator: $$$/GeneralStr/196=Adobe Illustrator 27.6.0, SVG Export Plug-In . SVG Version: 6.00 Build 0)  -->
<svg version="1.1" id="圖層_1" xmlns="http://www.w3.org/2000/svg" xmlns:xlink="http://www.w3.org/1999/xlink" x="0px" y="0px"
	 viewBox="0 0 1600 600" style="enable-background:new 0 0 1600 600;" xml:space="preserve">
<style type="text/css">
	.st0{fill:#E8605C;}
	.st1{fill:#4AACDD;}
	.st2{fill:#FFFBF0;}
</style>
<path class="st0" d="M797.4,24.8C777.5,14.3,739.2,6.1,691.8,0H0v400.6c0.9-0.2,1.8-0.4,2.6-0.4c2.4-0.2,4.7,0.4,6.2,1.6
	s2.2,3.2,1.6,5.8c-0.4,1.6-0.8,3.2-1.2,4.8s-0.9,3.2-1.4,4.8c-0.5,1.6-1.1,3.2-1.6,4.8c-0.3,0.8-0.6,1.6-0.9,2.4
	c-0.3,0.8-0.6,1.6-0.9,2.4c-1.3,3.2-2.7,6.3-4.2,9.4c0,0.1-0.1,0.1-0.1,0.2v8.7c0.6-0.4,1.2-0.7,1.8-1.1c6.3-3.7,12.4-7.1,18.6-10.3
	c0-0.1,0-0.2,0-0.2c-0.4-0.3-0.6-0.4-0.6-0.4s0.1,0,0.4,0.1c0,0,0.1,0,0.2,0c0-0.1,0-0.2,0-0.4c0-1,0-2.3,0-4.1
	c0-3.4,0.1-8.2,0.5-13.6c0.2-2.7,0.4-5.5,0.7-8.3c0.3-2.8,0.7-5.7,1.2-8.6c0.9-5.7,2.3-11,3.9-15.4c1.8-4.8,7.1-7,11.6-6.9
	c2.2,0.1,4.2,0.8,5.5,2.1c1.3,1.3,1.7,3.1,1,5.4c-0.7,2.2-1.7,4.7-2.8,7.3c-1.1,2.6-2.4,5.4-3.7,8.1c-1.3,2.8-2.7,5.7-4.1,8.4
	c-0.7,1.4-1.4,2.8-2.1,4.1c-0.7,1.4-1.4,2.7-2,4c-1.3,2.6-2.6,5.1-3.8,7.3c-1.1,2.2-2.2,4.3-3,6c-1,2-1.8,3.5-2.3,4.4
	c0.1,0,0.2,0,0.3,0.1c3.1-1.6,6.3-3.2,9.4-4.7c2.4-1.1,4.7-2.3,7.1-3.4s4.8-2.1,7.1-3.2c2.4-1.1,4.7-2.1,7.1-3.1
	c0.5-0.2,1-0.4,1.4-0.6c0.2-2,0.4-4,0.6-6c0.2-2,0.5-4,0.9-6c0.6-3.9,1.4-7.8,2.4-11.7c0.5-1.9,1-3.8,1.6-5.7c0.6-1.9,1.2-3.7,2-5.6
	c0.7-1.8,1.5-3.7,2.3-5.5c0.8-1.8,1.8-3.6,2.7-5.3c1.2-2.2,3.2-3.6,5.3-4.4c1.1-0.4,2.2-0.6,3.3-0.7c1.1-0.1,2.2,0,3.2,0.2
	c4.1,0.8,6.8,3.8,4.4,8.1c-7.7,13.8-17.7,27.2-28.8,42.7c0.7-0.3,1.4-0.6,2.1-0.9l0.9-0.4l0.9-0.4l1.8-0.7c7.9-3.2,16-6.1,24.2-8.8
	c0.2-0.9,0.4-1.8,0.6-2.7c0.3-1.1,0.5-2.2,0.8-3.3c0.5-2.2,1.1-4.3,1.7-6.5c1.2-4.3,2.6-8.5,4.2-12.6s3.4-8.1,5.5-12
	c2.1-3.9,4.5-7.6,7.2-11.3c1.6-2.2,3.9-3.5,6.4-4.1c1.2-0.3,2.5-0.4,3.7-0.4s2.4,0.3,3.4,0.6c4.3,1.4,6.8,5,3.6,9.2
	c-1.3,1.8-2.6,3.5-4,5.3c-1.4,1.8-2.8,3.6-4.2,5.3c-1.4,1.8-2.9,3.5-4.4,5.3s-3,3.6-4.6,5.3c-3.1,3.5-6.4,7.2-9.7,10.9
	c-3.1,3.4-6.3,6.9-9.6,10.6c1.5-0.5,3-1,4.6-1.5c5-1.6,10.2-3.1,15.4-4.5c2.6-0.7,5.3-1.4,8-2.1c1.3-0.4,2.7-0.7,4.1-1
	c0.4-0.1,0.9-0.2,1.3-0.3c1.3-3.3,2.6-6.5,4-9.6c1.5-3.3,3.1-6.5,4.8-9.6c0.8-1.5,1.7-3.1,2.6-4.5c0.9-1.5,1.9-2.9,2.9-4.3
	c2-2.8,4.1-5.5,6.5-8.1c1.6-1.7,3.6-2.6,5.7-2.8c2-0.3,4.1,0.1,5.8,0.9c3.3,1.6,4.9,4.9,1.9,8.2c-2.3,2.5-4.8,5-7.4,7.5
	c-1.3,1.2-2.6,2.4-4,3.7c-1.4,1.2-2.7,2.5-4.2,3.7c-1.4,1.2-2.9,2.5-4.4,3.7c-1.5,1.3-3,2.6-4.6,3.9c-1.6,1.3-3.2,2.6-4.8,4
	c-1.3,1.1-2.5,2.1-3.8,3.2c0.6-0.2,1.3-0.3,1.9-0.4c7.4-1.7,15.1-3.2,23.1-4.5c0.3-0.5,0.6-1.2,1.1-2.1c1-2,2.6-4.7,4.5-7.8
	c1.9-3.1,4.2-6.3,6.8-9.4c1.3-1.5,2.7-3,4.1-4.4c1.4-1.4,2.9-2.6,4.4-3.7c1.7-1.2,3.6-1.7,5.3-1.7c1.8,0.1,3.4,0.7,4.6,1.5
	c2.4,1.8,3.1,4.8-0.1,7.2c-1.2,0.9-2.4,1.8-3.7,2.7c-1.2,0.9-2.5,1.8-3.8,2.7c-2.6,1.8-5.2,3.4-7.9,5.2c-1.3,0.9-2.7,1.7-4,2.6
	c-0.7,0.4-1.3,0.9-2,1.3l-1,0.7l-1,0.7c-2,1.4-4,2.8-6,4.3c3.6-0.6,7.2-1.1,11-1.6c5.4-0.7,11-1.3,16.7-1.9l0,0c0,0,0,0,0.1,0
	c0.5,0,0.9-0.1,1.4-0.1c0.8-1.4,2.1-3.2,3.6-5.3c0.7-1,1.6-2.1,2.4-3.2c0.4-0.5,0.9-1.1,1.4-1.6s0.9-1.1,1.4-1.6
	c2-2.1,4.1-4,6.3-5.4c2.5-1.7,5.3-1.1,7,0.3c1.6,1.4,2,3.5-0.3,5.2c-5.8,4.1-12.6,7.6-19.1,11.5c6.1-0.5,12.4-0.8,18.8-1
	c10.1-2.1,20.7-2.8,31.1-2.1c7.4,0.6,6.5,9.1-0.7,8.8c-11.8-0.6-23.5-1.7-34.7-4.1c-4.6,0.2-9.2,0.5-13.6,0.8
	c6.7,2.7,13.3,5.4,18.8,9c2.3,1.5,2,3.7,0.6,5.2s-4,2.1-6.4,0.8c-2.1-1.2-4.3-2.9-6.4-4.8c-0.5-0.5-1-0.9-1.5-1.4
	c-0.5-0.5-1-0.9-1.5-1.4c-1-0.9-1.9-1.9-2.8-2.8c-1.6-1.6-2.9-3.1-4-4.3c-6.3,0.5-12.5,1.2-18.4,2c-3.3,0.4-6.6,0.9-9.8,1.4
	c11,3.6,21.8,7.1,30.7,12.3c3.3,2,3,5,1.2,7.1c-0.9,1.1-2.3,1.9-3.8,2.2c-1.5,0.4-3.2,0.2-4.9-0.6c-1.5-0.8-3-1.7-4.5-2.8
	c-1.5-1-3.1-2.1-4.6-3.3c-3-2.4-5.9-5-8.5-7.3c-2.6-2.4-4.8-4.5-6.4-6.1c-0.4-0.4-0.8-0.8-1.2-1.2c-8.1,1.3-15.9,2.9-23.4,4.6
	c-0.1,0-0.2,0.1-0.3,0.1c1,0.3,2,0.5,3,0.8c2,0.6,4,1.2,5.9,1.8c1.9,0.6,3.7,1.2,5.5,1.9c1.8,0.7,3.5,1.4,5.2,2.1
	c1.7,0.7,3.3,1.4,4.9,2.1c1.6,0.8,3.1,1.6,4.6,2.4c3,1.6,5.7,3.3,8.4,5.2c3.5,2.5,2.8,6,0.5,8.3c-1.2,1.1-2.7,2-4.5,2.3
	c-1.7,0.3-3.6,0-5.4-1.2c-2.7-1.7-5.3-3.6-7.8-5.6c-1.3-1-2.6-2-3.8-3.1c-1.3-1.1-2.5-2.1-3.8-3.3c-2.5-2.2-5.1-4.6-7.7-7.1
	c-2.2-2.1-4.5-4.2-6.8-6.3c-0.6,0.1-1.2,0.3-1.9,0.4c-1.4,0.3-2.7,0.6-4,1c-2.7,0.7-5.3,1.4-7.9,2.1c-5.2,1.5-10.3,2.9-15.3,4.5
	c-0.7,0.2-1.5,0.5-2.2,0.7c1.2,0.3,2.4,0.6,3.6,0.9c1.2,0.3,2.4,0.6,3.6,1c0.6,0.2,1.2,0.3,1.8,0.5c0.6,0.2,1.2,0.4,1.8,0.5
	c4.7,1.5,9,2.9,13.2,4.7c2.1,0.9,4.1,1.7,6.1,2.7c2,0.9,3.9,1.9,5.8,2.9c1.9,1,3.7,2.1,5.4,3.1c1.8,1.1,3.5,2.3,5.1,3.4
	c4,2.9,3.2,7.1,0.6,9.9c-0.7,0.7-1.5,1.3-2.3,1.8c-0.9,0.5-1.8,0.9-2.8,1.1c-2,0.4-4.2,0.1-6.2-1.2c-3.4-2.1-6.8-4.5-10.1-7
	c-3.3-2.5-6.6-5-9.8-7.8c-3.3-2.8-6.5-5.6-9.8-8.5c-1.6-1.5-3.3-3-4.9-4.5c-1.1-1-2.2-2-3.2-3c-8.5,2.8-16.8,5.7-24.9,9l-1.8,0.7
	l-0.9,0.3c16.9,3.4,30.9,8.4,42.5,15.6c3.8,2.4,3.3,6.4,1,9.1c-0.6,0.7-1.3,1.3-2.1,1.8c-0.8,0.5-1.7,0.9-2.6,1.1
	c-1.8,0.5-3.8,0.3-5.8-0.8c-1.6-0.9-3.2-1.9-4.8-2.8c-1.6-1-3.1-2-4.7-3c-1.5-1-3.1-2.1-4.6-3.2s-3.1-2.3-4.6-3.4
	c-3-2.3-6.1-4.8-9.1-7.3c-1.6-1.3-3.1-2.6-4.6-3.9c-0.9-0.8-1.8-1.6-2.8-2.4c-0.8,0.3-1.6,0.7-2.5,1c-2.4,1-4.7,2-7.1,3.1
	c-2.3,1.1-4.7,2.1-7.1,3.2c-2.3,1.1-4.7,2.2-7.1,3.4c-2.1,1-4.3,2.1-6.4,3.2c0.2,0,0.3,0.1,0.5,0.1c1.8,0.4,4,0.8,6.4,1.3
	c2.4,0.6,5.1,1.2,7.8,1.9c1.4,0.4,2.8,0.8,4.2,1.2c1.4,0.4,2.8,0.9,4.2,1.3c2.8,0.9,5.6,1.9,8.3,3c2.7,1.1,5.3,2.3,7.7,3.5
	s4.5,2.4,6.3,3.7c1.9,1.3,2.7,3,2.8,4.8c0.1,1.7-0.7,3.5-1.8,5c-2.4,3-6.6,4.6-10.7,2.4c-3.7-2-8.1-5-12.6-8.1
	c-2.3-1.6-4.5-3.2-6.8-4.9c-2.3-1.7-4.5-3.3-6.6-4.8c-4.2-3.1-8-5.9-10.8-8c-0.5-0.4-1-0.8-1.5-1.1c-6.5,3.4-13.1,7-19.7,10.8
	c-1,0.6-2.1,1.2-3.1,1.8v0.5c0.7,0,1.5,0,2.2,0c0.9,0,1.7,0.1,2.6,0.1c0.8,0,1.7,0.1,2.5,0.2c3.4,0.3,6.7,0.9,9.9,1.6
	c0.4,0.1,0.8,0.2,1.2,0.3c0.4,0.1,0.8,0.2,1.2,0.3c0.8,0.2,1.6,0.4,2.4,0.7c1.6,0.5,3.1,1,4.6,1.5s3,1.1,4.4,1.7s2.9,1.3,4.2,2
	c2.3,1.2,3.4,2.9,3.5,4.8c0.2,1.9-0.5,3.9-1.7,5.6c-2.4,3.5-7.1,5.7-11.7,3.6c-2.8-1.3-5.6-2.8-8.2-4.4c-2.6-1.6-5.2-3.3-7.6-5.2
	c-3.5-2.7-6.7-5.7-9.5-9V567c37.1,15.1,77.5,25.9,119.5,33h234.5c14.3-1.8,28-3.8,41.3-6.2c49.9-9,94.2-23.4,141.4-50.3
	C620.1,495.9,683.3,436.1,744,377c55.9-54.5,112.3-110.8,133.2-174.2C898.2,139.5,876.6,66.5,797.4,24.8z"/>
<g>
	<path class="st1" d="M1599.7,597.1v-9.4c-0.5-1-1-2.1-1.5-3.1c-2.6-5.3-5.5-10.9-8.3-16.9c-0.9-0.1-1.8-0.3-2.7-0.4
		c2.9,6.5,5.4,12.9,7.8,18.7C1596.6,589.9,1598.1,593.6,1599.7,597.1z"/>
	<path class="st1" d="M1463,591.3c-4.4-3.3-6.8-5.6-6.8-5.6s0.7-0.3,2.1-0.7c0.7-0.2,1.5-0.5,2.5-0.7c0.2-0.1,0.5-0.1,0.8-0.2h0.1
		l0,0c-0.1,0,0.2,0,0.2,0l0,0l0,0h0.2l0.5-0.1c0.6-0.1,1.3-0.3,1.9-0.4c5.5-1.1,13.2-2.1,22.4-2.1c4.6,0,9.5,0.2,14.6,0.8
		s10.7,1.6,16.3,2.8c11.3,2.6,23.1,6.6,35.2,11.5c2.7,1.1,5.2,2.2,7.8,3.4h6.5c-4.3-1.7-8.8-3.5-13.3-5.6
		c-11.9-5.3-22.9-11.2-32.3-17.5c-7.6-5.1-14.2-10.5-19.8-15.9c-47.7-0.2-102.2,5.6-145.9,26.9c-6,2.9-13.1,6.9-20.5,12.1h141.2
		C1470.9,596.9,1466.3,593.8,1463,591.3z"/>
	<path class="st1" d="M1565.8,576.7c3.2,3.1,6.3,6.2,9.2,9.2c2.9,3.1,5.7,6,8.4,8.8c1.7,1.8,3.4,3.6,5.1,5.3h5.7
		c-2.6-2.5-5.3-5.1-8.3-7.7c-5.7-5.2-12.1-10.9-18.4-17.2c-3.7-3.7-7.2-7.5-10.5-11.3c-2.1-0.2-4.3-0.4-6.6-0.6
		c0.5,0.4,1,0.8,1.5,1.2C1556.6,568.2,1561.2,572.3,1565.8,576.7z"/>
	<path class="st2" d="M1599.7,587.7v-18.6c-2.9-0.5-6.2-1-9.8-1.5c2.8,6,5.7,11.6,8.3,16.9C1598.6,585.6,1599.2,586.6,1599.7,587.7z
		"/>
	<path class="st2" d="M1594.9,586c-2.4-5.9-4.9-12.2-7.8-18.7c-4.1-0.6-8.5-1.1-13.2-1.7c-5.3-0.6-10.9-1.2-16.9-1.8
		c3.3,3.8,6.8,7.5,10.5,11.3c6.3,6.4,12.7,12,18.4,17.2c2.9,2.7,5.7,5.3,8.3,7.7h3.9h1.7v-2.9C1598.1,593.6,1596.6,589.9,1594.9,586
		z"/>
	<path class="st2" d="M1583.4,594.7c-2.7-2.8-5.5-5.8-8.4-8.8s-6-6.2-9.2-9.2c-4.6-4.4-9.3-8.5-13.9-12.4c-0.5-0.4-1-0.8-1.5-1.2
		c-8.3-0.7-17.2-1.3-26.4-1.7c-7.2-0.3-14.6-0.5-22.2-0.5c5.6,5.4,12.2,10.9,19.8,15.9c9.4,6.3,20.4,12.2,32.3,17.5
		c4.5,2,9,3.9,13.3,5.6h14.1h7.1C1586.8,598.3,1585.1,596.6,1583.4,594.7z"/>
	<path class="st2" d="M1552.9,596.6c-12.1-5-23.9-9-35.2-11.5c-5.6-1.3-11.2-2.3-16.3-2.8c-5.1-0.6-10-0.8-14.6-0.8
		c-9.1,0-16.9,1-22.4,2.1c-0.7,0.1-1.3,0.3-1.9,0.4l-0.5,0.1h-0.2l0,0l0,0c0,0-0.3-0.1-0.2,0l0,0h-0.1c-0.3,0.1-0.5,0.1-0.8,0.2
		c-1,0.3-1.8,0.5-2.5,0.7c-1.3,0.4-2.1,0.7-2.1,0.7s2.4,2.3,6.8,5.6c3.4,2.5,7.9,5.6,13.6,8.7h42.9h41.3
		C1558.2,598.9,1555.6,597.7,1552.9,596.6z"/>
	<path class="st2" d="M1599.7,567.8v1.3c0.1,0,0.2,0,0.3,0.1L1599.7,567.8z"/>
</g>
</svg>
