<?xml version="1.0" encoding="utf-8"?>
<!-- Generator: $$$/GeneralStr/196=Adobe Illustrator 27.6.0, SVG Export Plug-In . SVG Version: 6.00 Build 0)  -->
<svg version="1.1" id="圖層_1" xmlns="http://www.w3.org/2000/svg" xmlns:xlink="http://www.w3.org/1999/xlink" x="0px" y="0px"
	 viewBox="0 0 21.3 106.6" style="enable-background:new 0 0 21.3 106.6;" xml:space="preserve">
<style type="text/css">
	.st0{fill-rule:evenodd;clip-rule:evenodd;fill:#FFFFFF;}
	.st1{fill:#FFFFFF;}
</style>
<path class="st0" d="M6.2,90.4L8,89.7l7-2.8v5.6v5.6l-7-2.8l-1.7-0.7L7.4,99H4.1L3,94.7H1.5v-4.2H6.2L6.2,90.4z M16.7,94.7l2.6,0.9
	l-0.4,1.1l-2.6-0.9L16.7,94.7L16.7,94.7z M16.4,89.3l2.6-0.9l0.4,1.1l-2.6,0.9L16.4,89.3L16.4,89.3z M17,92h2.8v1.2H17V92z"/>
<path class="st0" d="M6.8,90.4l1.7-0.7l7-2.8v5.6v5.6l-7-2.8l-1.7-0.7L8,99H4.7l-1.1-4.3H2.1v-4.2H6.8L6.8,90.4z M17.3,94.7l2.6,0.9
	l-0.4,1.1l-2.6-0.9L17.3,94.7L17.3,94.7z M17,89.3l2.6-0.9l0.4,1.1l-2.6,0.9L17,89.3L17,89.3z M17.6,92h2.8v1.2h-2.8V92z"/>
<g>
	<path class="st1" d="M19.2,17.1v1.4H2v-1.4h7.6v-1.4H3.4v-1.4h6.2v-1.1H4v-6h5.6v-1H2.1V4.9h7.5V3.7C7.7,3.9,5.7,3.9,3.9,4
		c0-0.4-0.2-1-0.4-1.4c4.4-0.1,9.7-0.5,12.8-1L17.3,3c-1.7,0.3-3.7,0.5-5.9,0.7v1.3h7.7v1.4h-7.7v1h5.9v6h-5.9v1.1H18v1.4h-6.6v1.4
		H19.2z M5.8,9.7h3.8V8.5H5.8V9.7z M9.6,12v-1.2H5.8V12H9.6z M11.4,8.5v1.2h4V8.5H11.4z M15.4,10.8h-4V12h4V10.8z"/>
	<path class="st1" d="M15.3,34.1c-0.6,1-1.3,1.8-2.1,2.4c2.2,0.5,4.2,1.1,5.7,1.6l-1.6,1.3c-1.5-0.6-3.5-1.2-5.9-1.8
		c-2.2,1-5,1.5-8.7,1.8c-0.1-0.5-0.4-1.2-0.7-1.6c2.6-0.1,4.8-0.4,6.5-0.9c-1.4-0.3-2.8-0.5-4.2-0.8c0.5-0.6,1.1-1.3,1.6-2.1H2v-1.5
		h4.9c0.4-0.6,0.8-1.3,1-1.9l1.8,0.4c-0.2,0.5-0.5,1-0.8,1.5h5.2c0.2-0.3,0.3-0.7,0.4-1.1l1.7,0.5c-0.1,0.2-0.2,0.4-0.2,0.6h3.1v1.5
		H15.3z M7.4,24.1H2.3v-1.6h16.5v1.6h-5.3v1.4h4.6v5.1H3.2v-5.1h4.2V24.1z M4.9,29.1h2.5v-2.3H4.9V29.1z M7.9,34.1
		c-0.3,0.4-0.6,0.8-0.8,1.2c1.3,0.2,2.6,0.5,3.8,0.7c0.9-0.5,1.7-1.1,2.3-1.9H7.9z M11.8,24.1H9.1v1.4h2.7V24.1z M9.1,29.1h2.7v-2.3
		H9.1V29.1z M13.5,26.9v2.3h2.8v-2.3H13.5z"/>
	<path class="st1" d="M8.9,43.1c-1.4,3.1-3.5,6.3-5.7,8.2c-0.3-0.4-1.1-1.1-1.6-1.5c2.1-1.7,4.1-4.5,5.3-7.4L8.9,43.1z M14.3,52.1
		c1.5,2.1,3.3,4.8,4.3,6.5l-1.8,1c-0.3-0.6-0.6-1.2-1-1.9c-9.6,0.7-10.8,0.8-11.6,1.1c-0.1-0.4-0.4-1.4-0.7-1.9
		c0.6-0.1,1.1-0.7,1.8-1.6c0.8-0.8,3.3-4.2,4.8-7.4l2.1,0.9c-1.6,2.8-3.5,5.6-5.4,7.8l8.1-0.5c-0.7-1.1-1.5-2.2-2.1-3.2L14.3,52.1z
		 M14.6,42.5c0.9,2.9,2.7,5.7,5,7.1c-0.4,0.4-1.1,1.2-1.4,1.8c-2.2-1.6-3.9-4.3-5-7.1H9.9v-1.8H14.6z"/>
	<path class="st1" d="M19,69.1v1.7H2.2v-1.7h7.9v-2.7H5.6c-0.6,0.9-1.1,1.7-1.7,2.4c-0.4-0.2-1.2-0.7-1.6-1c1.4-1.3,2.6-3.5,3.3-5.6
		l1.8,0.4c-0.2,0.7-0.5,1.4-0.8,2.1h3.6v-2.6H12v2.6h5.7v1.6H12v2.7H19z M4.5,72.5h12.4V80h-1.9v-1H6.3v1H4.5V72.5z M6.3,74.1v3.2
		h8.8v-3.2H6.3z"/>
</g>
</svg>
