<?xml version="1.0" encoding="utf-8"?>
<!-- Generator: $$$/GeneralStr/196=Adobe Illustrator 27.6.0, SVG Export Plug-In . SVG Version: 6.00 Build 0)  -->
<svg version="1.1" id="圖層_1" xmlns="http://www.w3.org/2000/svg" xmlns:xlink="http://www.w3.org/1999/xlink" x="0px" y="0px"
	 viewBox="0 0 21.3 106.6" style="enable-background:new 0 0 21.3 106.6;" xml:space="preserve">
<style type="text/css">
	.st0{fill:#FFFFFF;}
</style>
<path class="st0" d="M14.7,87.4L13,89.1l4.6,4.6l1.7-1.7c0.9-0.9,0.9-2.3,0-3.2l-1.4-1.4C17,86.5,15.6,86.5,14.7,87.4L14.7,87.4z
	 M12.1,89.9l-8.3,8.3c-0.4,0.4-0.6,0.8-0.8,1.3l-1.3,4.3c-0.1,0.3,0,0.6,0.2,0.9s0.5,0.3,0.8,0.2l4.3-1.3c0.5-0.2,1-0.4,1.3-0.8
	l8.3-8.3L12.1,89.9z"/>
<g>
	<path class="st0" d="M18.4,16v1.8H1.1V16h9.4c1-2.4,2.1-6.2,2.7-9l2,0.4c-0.8,2.8-1.8,6.2-2.8,8.6H18.4z M17.6,6.2H1.9V4.3h15.7
		V6.2z M6.2,15.3c-0.3-2.1-1-5.4-1.7-7.9L6.3,7c0.8,2.5,1.5,5.7,1.8,7.9L6.2,15.3z M9.1,4.3C8.9,3.4,8.5,2.1,8.2,1.1l1.8-0.4
		c0.4,1,0.8,2.3,1,3.1L9.1,4.3z"/>
	<path class="st0" d="M7.6,31.2c1,1.6,2.2,3.7,2.7,5l-1.7,0.9c-0.2-0.5-0.4-1.1-0.8-1.8c-4.7,1.6-5.4,1.9-5.9,2.2
		c-0.1-0.5-0.4-1.4-0.7-1.8C1.6,35.5,2,35.1,2,34.4V21.2h7.7v9.3H3.9v4.3l3.2-1c-0.3-0.6-0.7-1.3-1-1.8L7.6,31.2z M3.9,22.8V25h4.1
		v-2.2H3.9z M7.9,28.9v-2.3H3.9v2.3H7.9z M17.8,32.4c0,0.9-0.2,1.4-0.7,1.7c-0.6,0.3-1.5,0.3-2.8,0.3c-0.1-0.5-0.3-1.2-0.5-1.7
		c0.9,0,1.7,0,1.9,0c0.3,0,0.3-0.1,0.3-0.3V23h-3V38h-1.8V21.3h6.6V32.4z"/>
	<path class="st0" d="M6.1,52.2h3.3v1.5H6.1v3.7H4.4v-3.7H1v-1.5h3.5v-1.9H1.4v-1.5H3c-0.1-0.6-0.5-1.5-0.8-2.2l1.2-0.4H1v-1.5h3.5
		V43H1.5v-1.5h2.9v-1.8h1.7v1.8h2.8V43H6.1v1.7h3.3v1.5H7.2l1.3,0.3c-0.4,0.7-0.8,1.5-1.1,2.2H9v1.5H6.1V52.2z M3.5,46.2
		c0.4,0.7,0.8,1.6,0.9,2.2l-0.9,0.3h2.3C6.2,48,6.7,47,6.9,46.2H3.5z M18.2,47.4c-0.4,2.3-1.1,4.4-2.2,6.2c0.9,1,1.8,1.7,2.9,2.3
		c-0.4,0.3-0.9,1-1.2,1.4c-1-0.6-1.9-1.3-2.7-2.3c-0.7,1-1.6,1.8-2.5,2.4c-0.2-0.3-0.4-0.6-0.7-0.8v0.8H10V40.5h7.7v3.7
		c0,0.8-0.2,1.3-0.8,1.5C16.2,46,15.2,46,13.8,46c-0.1-0.5-0.3-1.1-0.5-1.6c1.1,0,2.1,0,2.4,0c0.3,0,0.4-0.1,0.4-0.3v-2.1h-4.4v5
		h5.1l0.3-0.1L18.2,47.4z M11.7,55.9c0.9-0.6,1.6-1.4,2.3-2.3c-1-1.5-1.7-3.2-2.3-5V55.9z M13.1,48.5c0.4,1.3,1,2.5,1.7,3.6
		c0.6-1.1,1.1-2.4,1.4-3.6H13.1z"/>
	<path class="st0" d="M17.2,76.9h-1.9v-0.8H8v0.8H6.2V71c-1.5,0.8-3,1.5-4.5,2c-0.2-0.5-0.7-1.2-1-1.6c2.4-0.7,4.9-1.9,7-3.6
		C6.8,67,5.5,65.8,4.4,65c-0.7,0.6-1.5,1.1-2.4,1.6c-0.3-0.4-0.9-1.1-1.3-1.4c3.2-1.7,5.4-4.1,6.5-6.2l2,0.4c-0.3,0.5-0.7,1.1-1,1.6
		h5l0.3-0.1l1.2,0.7c-1.1,2.8-2.8,5.1-4.9,7h7.5V76.9z M6.9,62.6c-0.4,0.4-0.8,0.8-1.2,1.2c1.2,0.9,2.5,2,3.4,2.9
		c1.3-1.2,2.4-2.6,3.1-4.1H6.9z M15.4,74.5v-4.4H8v4.4H15.4z"/>
</g>
</svg>
