<?xml version="1.0" encoding="utf-8"?>
<!-- Generator: $$$/GeneralStr/196=Adobe Illustrator 27.6.0, SVG Export Plug-In . SVG Version: 6.00 Build 0)  -->
<svg version="1.1" id="圖層_1" xmlns="http://www.w3.org/2000/svg" xmlns:xlink="http://www.w3.org/1999/xlink" x="0px" y="0px"
	 viewBox="0 0 1600 115" style="enable-background:new 0 0 1600 115;" xml:space="preserve">
<style type="text/css">
	.st0{fill:#F0EAE2;}
</style>
<g>
	<path class="st0" d="M-9.2,1.3C4.5,12.6,22.7,18.7,40,22c18.7,3.5,37.9,3.9,56.9,3.8c21.9-0.2,43.8-0.6,65.7-0.1
		c23.7,0.6,47.5,1.8,71.1,3.9c2.8,0.2,5.7,0.3,8.5,1c5.1,1.3,6.5,7,2.8,10.7c-3.9,3.9-9.3,5.9-14.5,7.3c-8.1,2.1-16.8,2.5-24.6,5.8
		C193,60,184,73.7,195.8,85.3c12.6,12.3,31.9,17.8,48.9,20.5c19.6,3.1,39.6,2.8,59.4,3c23.8,0.2,47.7,0.3,71.5,0.3
		c81.3,0,162.5-1.1,243.7-3c53.3,8.2,107.8,6.3,161.7,3.6c34.1-1.7,68.1-3.6,102.2-3.9c34.8-0.2,69.6,0.8,104.4,2.1
		c69.7,2.7,139.4,6.6,209.2,4.7c68.1-1.8,136.1-8.3,203.3-19.3c16.9-2.8,33.7-5.8,50.5-9.2c16.1-3.2,32.5-6.2,48.3-10.5
		c9.4-2.6,19.9-7.2,21.7-17.7c0.7-4.2,0.1-8.7,2.5-12.4c2.4-3.9,7.1-6.1,11.3-7.6c7.6-2.7,15.9-3,23.9-2.8
		c12.9,0.3,25.9,1.8,38.2-3.1c8.4-3.4,16.9-9.5,19.3-18.5c1.1-4.1,0.7-7.9-0.5-11.5H-10.6C-10.2,0.4-9.7,0.9-9.2,1.3z"/>
</g>
</svg>
